<?xml version="1.0" encoding="UTF-8"?>
<svg id="Layer_2" data-name="Layer 2" xmlns="http://www.w3.org/2000/svg" viewBox="0 0 177.38 172.96">
  <g id="Layer_1-2" data-name="Layer 1">
    <g>
      <path d="M176.91,78.63c-1.48-1.37-3.14,1.48-4,2.26-1.57,1.43-3.63,2.38-5.39,3.39-1.88.48-4.18-.21-3.07,2.63l.59-.2.1.59c1.04-.43,2.07-.45,3.13-.84,2.49-.91,7.09-3.99,8.54-6.14.26-.39.48-1.35.11-1.69Z"/>
      <path d="M165.45,17.02c1.1-.58,2.07-.21,2.44-1.97-.19-4.03.17-8.13-.07-12.17-.08-1.34-.08-2.03-1.68-2.05-.43,0-.91.25-1.39.25-2,0-4.2-.29-6.15-.24-.53.01-2.41.09-2.74.19-.66.2-.75,1.6-1,2.18-1.46,3.47-4.64,5.03-8.17,3.34-.38-.72-1.68-1.25-2.03-1.76-.82-1.23.29-3.49-1.44-4.1l-11.66.23c-1.13.77-.66,1.71-.88,2.71-.51,2.31-3.78,4.1-6.01,4.02-1.42-.05-3.52-1.06-4.38-2.18-.23-.3-.71-.92-.81-1.25-.3-.96-.14-2.91-.51-3.9-.09-.24-.2-.33-.46-.34l-11.47.44c-1,.3-.77,2.58-.98,3.38-.26,1-1.6,2.12-2.45,2.6-.14.08-.17.35-.36.44-1.13.5-3.8.61-4.87-.05-.16-.1-2.21-1.96-2.31-2.11-.92-1.52-.09-4.2-1.98-4.49-2.93-.45-7.03.67-10.07.2-1.9.31-1.21.74-1.41,1.88-.59,3.4-3.87,5.64-7.3,5.01-1.21-.22-2.71-1.7-3.05-2.87-.18-.61-.12-3.28-.39-3.64-.22-.3-.98-.55-1.37-.59-1.76-.21-4.71.1-6.55.18-.56.02-1.15-.46-1.6.22l-.18-.38c-1.11.51-4.15-.53-4.77.79-.68,1.43-.41,3.23-1.81,4.54-.65.61-3.07,1.76-3.94,1.82-1.67.11-4.09-1.6-4.58-3.18-.76-2.43.82-3.66-2.64-3.94-2.98-.24-6.96.21-10.06.26-.76.01-1.49-.62-2.05.61-1.21,2.63-.99,4.86-4.19,6.14-3.55,1.42-6.88.38-8.49-3.22-.46-1.04-.09-2.55-.96-3.41-.64-.64-.71-.1-.98-.11-2.09-.1-4.27-.27-6.42-.19-2.23.07-4.52.41-6.73.53-.15,1.32-1.7.56-2.42,1.46-.5.7.36,1.32.38,1.4.09.34-.15,2.63-.14,3.15.08,3.21.19,6.46.21,9.69.31.9,2.36.39,3.32,1.21,1.33,1.13,1.93,3.3,1.69,4.97-.32,2.16-1.16,2.88-2.73,4.19-.91.02-2.86.47-2.92,1.57-.02.38.2.87.2,1.37.03,3.64-.08,7.27-.16,10.9.15.87,3.12.82,3.73,1.39,2.08,3.02,2.36,7.1-1.13,9.21-1.36.82-3.11.67-3.01,2.53.19,3.58-.2,7.44-.04,11.09.02.4.1.77.21,1.15,1.12.59,2.08.45,3.16,1.26,4.06,3.05,2.05,10-2.95,10.49l-.37.44.06,12.96c.63.88,1.58.6,2.4.98.12.06,1.89,1.49,1.97,1.59.9,1.17.91,4.02.47,5.41-.08.23-1.45,2.34-1.62,2.48-.25.2-.63.2-.92.37-.36.21-1.08.76-1.34.88-.41.19-.93.1-1.24.51-1.18,1.59-.26,11.1-.57,13.43.33,1.1.91.59,1.74.84,1.99.6,2.94,1.65,3.58,3.58.88,2.61-.04,5.67-2.72,6.82-.91.39-1.71.16-2.53.85-1.04.87-.23,1.22-.12,2.04l-.12,11.03c.44,1.27,1.62.85,2.43,1.13,1.25.44,2.49,1.88,2.79,3.18.37,1.58-.03,4.23-1.01,5.55-.04.05-.84.82-.89.85-.77.48-2.46.8-3.37.84l-.59,1.29.1,9.89c-.03,1.01-.25,6.17.19,6.65.08.08.42.25.56.28l13.3.02c.45-.2.74-2.52,1.14-3.32,1.73-3.47,6.35-4.68,8.97-1.37,1.2,1.51.89,2.7,1.3,4.45.16.25,1.05.38,1.4.4,2.47.14,5.15-.02,7.61-.04.61,0,3.19.44,3.46-.37.14-.44-.06-.98.18-1.61.31-.83,1.24-2.35,1.91-2.94,2.64-2.32,7.21-1.78,8.4,1.85.37,1.12-.15,2.97,1.04,3.33l11.42.09c.85-.16.83-2.26,1.02-2.94.84-2.95,3.84-4.3,6.71-3.55.12.03.08.25.19.3.55.23.3-.15,1.12.51.14.11.4.08.51.19.1.09.03.37.11.46.67.74.98,1.07,1.37,2.12.27.74.16,2.18.4,2.57.55.93,2.02.34,2.86.34,3.19.01,6.45.18,9.62-.29.31-.29.15-1.19.28-1.7.51-2.12,1.94-3.54,3.92-4.22.25-.08.52.09.63.06.15-.04.12-.38.21-.38.08,0,1.49.27,1.65.32.34.1,2.19.87,2.35,1.04.29.32,1.28,1.99,1.38,2.41.16.65.09,1.82.13,2.52.28.14.54.35.86.41.83.15,3.5.03,4.56.03,2.38-.02,4.81-.27,7.21-.32.67-.29.2-1.36.39-2.05,1.45-5.3,9.7-5.89,11.11-.44.18.7,0,2.77.82,2.91l11.99.07c1.29-.72,1.04-2.46,1.59-3.58.31-.62.97-1.16,1.2-1.89,1.12-.66,2.77-1.49,4.12-1.38.37.03,3.14,1.06,3.5,1.27.76.45,2.03,2.04,2.28,2.9.38,1.32-.66,3.02,1.41,3.04,1.86.02,4.06-.28,5.97-.3,3.26-.03,6.66.2,9.94.06.72-.03,2.44-.02,2.88-.58.6-.76.32-2.63.37-3.58.18-3.38.5-7.09.54-10.44,0-.66.08-2.18-.59-2.49-1.26-.58-2.76-.53-3.71-1.76-.53-.69-1.04-2.71-1-3.58.07-1.59,1.01-3.31,2.36-4.19.86-.56,2.63-.53,2.92-1.44l.27-11.79c-.51-.4-.04-.5-.98-.83-.45-.15-.22,0-.75-.27-2.5-1.27-3.81-2.71-3.62-5.69.12-1.8,1.18-3.8,2.97-4.33.98-.29,2.58.19,2.72-1.25v-11.79c-.2-1.32-1.51-1.47-2.57-2.01-.16-.08-.4.03-.48-.02-.07-.04-1.03-.99-1.14-1.12-1.78-2.09-1.07-6.64,1.35-8,1.24-.7,2.52-.36,3.5-1.26.15-.47-.25-.79-.27-1.16-.09-1.44.71-4.51-1.79-3.08l-.29,2.67c-1.96,1-4.09,2.06-4.92,4.22-1.65,4.29-.05,9.23,4.69,10.21l-.18,10.27c-3.03.6-4.91,2.48-5.49,5.52-.42,2.19,0,4.78,1.34,6.5.56.72,1.28.9,1.83,1.55l2.1,1.05-.15,9.27c-2.44,1.05-3.7,1.67-4.8,4.17-1.16,2.62-.73,7.02,1.83,8.75.83.56,1.92.61,2.72,1.22.06,2.99-.13,5.93-.36,8.91-.06.77.17,3.75-.58,4.17l-5.49.28-.18-.38c-.92.51-2.61.17-3.78.19-2.07.03-4.16.19-6.23.2-1.57-8.03-12.19-10.1-15.59-1.99-.18.43-.06,1.39-.63,1.57l-8.89.03-.4-.2c-.46-1.46-1.28-3.7-2.38-4.77-.3-.29-2.14-1.24-2.57-1.39-3.87-1.35-8.35.54-9.97,4.34-.18.43-.06,1.39-.58,1.59l-8.8.03c-.24-.32-.21-1.84-.26-1.93-.27-.49-1.72-2.42-2.22-2.82-4.22-3.37-11.39-.82-11.83,4.75-1.28.24-2.62-.03-3.86,0-.48.01-.91.21-1.39.22-1.26.03-2.69-.34-3.86.19.04-3.75-3.18-6.92-6.86-7.14-2.35-.14-5.39,1.75-6.47,3.83-.4.76-1.14,2.32-.96,3.11l-8.94-.09c-.14-.7-.29-1.38-.47-2.07-.4-1.5-1.11-2.29-2.41-3.39-.15-.13-.2-.46-.34-.55-3.32-2.14-8.89-.26-10.72,3.17l-1.32,2.63-8.11-.13c-.21-.86-.42-1.87-.83-2.65-.3-.58-2-2.96-2.46-3.28-.32-.23-3.09-.92-3.62-.95-2.28-.13-6.02,1.92-7,3.9-.26.53-.81,2.68-1.14,2.79l-10.05.19-.32-.29-.18-13.45c.95-.91,2.3-1.09,3.4-1.94,3.75-2.93,3.93-9.91-.48-12.34-.6-.33-2.11-.57-2.31-1.04-.06-.15-.05-3-.02-3.16.03-.12.37-.09.36-.18-.01-.13-.29-.4-.29-.67-.03-2.04,0-4.15.13-6.15,1.95-.43,4.05-1.86,4.97-3.66.13-.26.08-.55.17-.78.07-.17.34-.15.37-.3,1-4.12-.44-8.46-4.59-10.04-.3-.12-.63-.13-.95-.14l.04-10.62c.77-.39,1.55-.52,2.32-1,3.15-1.95,4.82-6.63,3.4-10.1-.23-.57-1.67-2.61-2.13-2.88-.6-.35-2.7-.78-2.83-1.48v-9.9c.03-.16,1.95-.82,2.34-1.07,2.68-1.7,3.91-5.62,3.17-8.62-.65-2.64-2.4-5.06-5.27-5.35l.07-10.3c2.02-1.12,4.11-2.3,5.07-4.65,1.09-2.67.51-7.41-1.93-9.2-.6-.44-2.88-1.12-2.96-1.6l.2-9.55c.98-.63,2.39-.89,3.27-1.69.12-.11,1.3-1.43,1.36-1.52.07-.12.89-2.48.93-2.7.06-.28-.16-.63-.1-.89.03-.15.4-.12.41-.25.12-1.95-1.54-5.42-3.19-6.52-.16-.11-.94-.6-1.03-.65-.33-.18-.92-.02-1.14-.41-.18-.32-.16-1.31-.17-1.74-.11-3.26.22-6.56-.02-9.82,4.27-.62,8.57-.99,12.89-.8-.47,1.81.8,3.79,1.98,5.11.12.13.1.45.25.6,2,1.99,6.75,2.16,9.06,1.13.55-.25,2.23-1.14,2.64-1.47.35-.29,1.93-2.63,2.12-3.11.2-.49.17-2.04.73-2.21l10.39-.24c.06.07.06,1.37.16,1.72.19.64,1.11,2.53,1.52,3.05,3.21,4.07,10.24,2.46,12.38-1.92.49-.99.07-1.9.76-2.66,2.5-.15,5.03.1,7.51,0,.63-.03,2.01-.4,2.32-.36,1.13.16.65,1.99.86,2.96.84,3.83,5.47,5.22,8.92,4.16,2.56-.79,5.52-4.08,5.84-6.76l8.21-.16c.42.13.61,2.67.9,3.24.64,1.25,2.7,3.05,4.02,3.52,4.32,1.55,10.42-1.46,10.37-6.42l.23-.17c2.79.07,5.72.14,8.41-.62-.16,3.12,1.53,5.78,4.32,7.09,4.67,2.19,9.41-.08,11.32-4.67.18-.44.04-1.24.57-1.41l8.79-.22c-.06,3.69,4.26,7.27,7.84,6.89.88-.09.88-.47.93-.49.11-.04.47.19.8.12,2.55-.5,4.8-3.64,5.61-5.93l8.42-.19.2,11.69c-4.57,1.11-7.33,6.59-4.92,10.79.64,1.11,2,1.92,3.14,2.41.29.13.96-.04,1.29.5l.21,1.92-.14,8.47c-1.27.83-2.85,1.25-3.89,2.37-.15.17-.15.46-.32.68-.49.66-.72.58-.98,1.69-.23.99-.32,3.61,1.12,3.48.86-.16.66-3.17,1.37-4.07.67-.5,1.65-1.38,2.42-1.66.95-.35,2.16.56,2.4-1.36.25-1.98.1-5.18.06-7.27-.04-1.84-.12-3.66-.21-5.5-.93-1.22-3.09-1.09-4.25-2.19-1.13-1.07-1.12-3.09-.78-4.51.47-1.93,1.4-2.52,3.09-3.42Z"/>
      <path d="M145.2,100.41c-.34-.31-1.76.94-2.08,1.19-4.29,3.4-8.64,8.29-12.6,12.21-5.26,5.21-11.41,10.74-16.29,16.26-.48.55-1.11,1.13-1.18,1.89.39.35,1.6-.79,1.91-1.07,5.43-4.97,10.47-11.03,15.69-16.2,4.26-4.22,9.9-8.58,13.76-13.04.14-.17.94-1.1.79-1.23Z"/>
      <path d="M143.91,18.85c-.12,0-.07.3-.25.39-2.51,1.23-5.74,4.64-8,6.65-4.01,3.58-7.97,7.45-11.75,11.15-.39.38-2.16.75-1.64,2.05l1.83-1.26c5.99-6.43,13.91-11.54,19.79-17.91.24-.26,1.07-1.07.02-1.08Z"/>
      <path d="M148.99,21.56c-1.3.95-2.33,2.42-3.49,3.44-4.47,3.97-9.03,7.71-13.31,11.8l-1.27,1.5c1.08.47,1.47-.69,2.03-1.13,5.59-4.46,12.69-10.47,17.65-15.81.16-.18.29-.35.56-.33-.31-.87-1.71.19-2.17.52Z"/>
      <path d="M138.27,100.32c.01-.92-.84-.02-1.24.31-4.54,3.82-11.09,10.01-14.84,14.58-.28.34-.73.84-.8,1.28.5.48,3.35-2.83,3.64-3.1,3.3-3.14,6.65-6.51,10.2-9.64l-.15-.35c.56-.02,1.31-.67,1.72-1.07.22-.22,1.46-1.84,1.47-2.01Z"/>
      <path d="M117.13,115.69l-3.29,2.27c-.34.49-5.66,5.45-5.15,5.86.45-.07,1.37-.44,1.71-.67.38-.26,1.24-1.62,1.75-2.11.67-.64,1.59-1.25,2.22-1.85.93-.88,1.77-2.21,3.03-2.74l-.28-.76Z"/>
      <path d="M115.57,122.96c-1.27,1.18-2.91,2.37-4.03,3.7-.13.16-.44.76-.37.94.38.86.69.15.78.08,1.25-.99,2.26-2.25,3.38-3.37.95-.95,2.62-2.11,3.43-3.13.12-.15.13-.52.26-.73-1.69-.21-2.5,1.62-3.44,2.51Z"/>
      <path d="M130.34,100.13c-1.56,1.05-3.05,2.63-4.38,3.96-.63.63-1.94,1.28-1.79,2.27.22.3,3.75-2.72,4.1-3.05.66-.62,1.78-1.67,2.33-2.33.28-.33.57-.7.52-1.17-.32-.05-.54.15-.78.31Z"/>
      <path d="M112.16,113.31c-.48-.1-4.81,4.36-5.23,5.09-.46.81-.21,1.28.54.54,1.54-1.54,2.98-3.17,4.73-4.49.28-.25.38-1.04-.04-1.13Z"/>
      <path d="M173.92,69.2c-1.77,1.45-5.04,3.68-7.28,4.32-.29.08-.67,0-.99.1.19-2.84,1.09-5.68.4-8.52,2.79-.98,5.4-2.33,7.89-3.91.71-.74,3.36-2.64,3.44-3.53.11-1.29-.8-1.98-1.94-1.36-1.38,1.72-3.32,2.7-4.87,4.17l-4.72,2.05c-.35-1.05-.61-2.18-1.02-3.21-1.66-4.11-4.55-7.71-7.64-10.69l-3.16-1.97c.09-1.68.12-3.38.12-5.07.01-6.66.06-13.32.07-20,0-1.96.34-3.92.09-5.86-2.32-.76-4.82-.23-7.22-.22-7.19.02-14.29.01-21.44,0-4.79,0-9.8-.43-14.49.19l-.13-.35c-28.13.49-56.56-.05-84.6-.03-2.3,0-5.07-.29-7.33-.11-2.13.17-2.21.34-2.29,2.37-.55,12.94-.35,25.59-.59,38.5-.56,30.5-1.65,60.96-1.99,91.47-.02,2.13-.28,5.6,0,7.56.08.56.55.99.43,1.65l98.09,1.03.21-.41.22.41,38.05.34,1.01-1.16c-.19-7.66.24-15.3.41-22.87.3-13.25.38-26.62,1.08-39.93.02-.34-.15-.66-.13-.95.05-.77.32-1.69.25-2.52,1.33-1.02,2.73-2,3.96-3.16,2.1-1.96,5.57-6.3,6.52-8.95.17-.49.11-1.44.41-1.77.37-.41,3.1-.95,3.87-1.29,1.69-.74,4.38-2.44,5.67-3.54.76-.65,2.91-2.37,2.37-3.5-1.56-1.47-1.89.02-2.75.73ZM163.4,66.34c-.81.73-1.68,1.44-2.52,2.13v-2.38s2.77-.2,2.77-.2c.13.46-.12.34-.25.45ZM162.86,60.53c-.32.9,1.47,2.75.29,2.97-.53.1-1.02.23-1.47.32-1.13.21-1.87-.7-1.31-1.51.08-.11,1.75-1.05,2.21-1.47.12-.11-.02-.38.27-.31ZM162.23,59.7l-2.43,1.63c-.65-.53-.27-1.23-.89-1.9l2.76-1.68c-.12.72.85,1.44.56,1.95ZM160.84,56.46l-2.08,1.66-1.45-1.17,2.19-2.18,1.35,1.69ZM132.25,78.54c1.19.32,1.48-.64,2.04-1.04,4.03-2.87,7.03-5.18,12.36-3.8,1.6.41,3.23,1.38,4.66,1.85,1.67.55,3.48.94,5.21,1.24l-1.11,1.66c-1.85,2.76-3.42,4.48-6.33,6.06-8.88,4.83-19.64,1.56-24.47-7.46-8.49-15.87,9.41-33.95,25.29-24.59.51.3,1.02.85,1.47,1.21,2.5,1.99,4.6,4.12,5.89,7.21.18.43,1.1,2.57.85,2.82l-4.02-.84c-6.24-2.76-12.78-3.36-18.98-.03-1.59.86-2.79,2.04-4.34,2.9-.49.84-.36,2.06.74,2.24.78.13,2.89-2.07,3.79-2.57,3.76-2.09,8.3-2.95,12.49-2.02,3.2.71,6.6,2.52,9.86,2.84.31.03.55-.12.84-.16.23.24.09,4.22,0,4.85-.09.56-.65,3.2-.88,3.49-.18.23-.29.18-.54.16-1.09-.1-2.43-.78-3.48-1.11-2.24-.7-5.52-2.22-7.9-2.06-.09,0-.07-.31-.24-.36-1.69-.48-4.96.09-6.58.7-1.23.46-6.05,3.44-6.75,4.41-.51.7-1.17,2.03.13,2.38ZM147.13,88.46c-.99,1.07-2.43,1.98-3.12,3.32l-2.58.3,2.87-3.37,3.67-1.38c-.04.45-.84.68-.95.83-.03.05.15.27.1.31ZM121.2,81.46l2.28-1.88,1.48,1.97-2.57,1.59c.25-.48-1.19-1.52-1.19-1.69ZM117.33,69.67c.24-.72,1.61-1.6,1.75-2.52l1.32-.86c-.33.68-.25,1.43-.05,2.14-.48.61-1.12,1.05-1.64,1.63-.17.19-1.02,1.71-1.29,1.39.16-.52-.24-1.36-.1-1.77ZM120.21,58.64c.14-.18.43-.23.6-.44,2.74-3.39,5.26-6.4,8-9.71l2.51-1.46-1.26,2.11c-3.81,4.7-7.56,9.34-11.44,14-.17.21-.56.58-.79.75.05-2.02,1.17-3.71,2.38-5.26ZM120.2,57.15c.74-1.44,1.74-2.79,2.78-4.01.28-.33,2.24-2.63,2.57-2.33l-5.36,6.35ZM146.74,48.37c-.56.39-1.23.3-1.81.07l-.11-.41c.95-.21,1.64-1.25,2.37-1.88,2.23.32,0,1.32-.45,2.22ZM149.38,46.84l2.18.79c-1.11,1.31-1.92,2.58-3.76,1.57-.35-.54,1.53-1.76,1.58-2.37ZM144.08,47.51c-.01,1.06-1.82.14-2.65.52-.22-.25,1.84-2.16,2.19-2.27.77-.23,1.23-.04,1.98.09l-1.52,1.66ZM141.74,45.85c-.12.09-.37.13-.43.24-.04.06.07.26,0,.35-.28.37-.95.73-1.11,1.35l-2.54.24c.12-.57.73-.78,1-1.08.34-.4.46-1.02,1.2-1.39.24-.12,2.28-.15,1.88.29ZM136.18,48.23l-2.29.99,2.27-3.39c.55-.35,1.27-.14,1.9-.18l-1.88,2.59ZM131.86,50.16l-2.33,1.04,3.66-4.57,1.7-.58-3.03,4.11ZM121.16,61.38c.19-.2.19-.56.63-.46l-1.2,3.42-3.36,3.53c.18-.6.03-1.48.25-2.03.38-.97,2.84-3.6,3.68-4.46ZM118.82,71.7c.44-.47.68-1.28,1.38-1.45-.09.54.3,1.58.17,2.04-.17.62-1.88,1.5-1.96,2.33-.27.19-.79-1.61-.74-1.86.13-.65.96-.85,1.15-1.06ZM120.99,73.63c.01,1.87.86,1.42-.5,2.87-.22.23-1.25,1.27-1.48,1.1l-.5-1.62,2.48-2.35ZM121.88,76.8l1.29,2.18-2.47,1.4-.9-1.7c0-.31,1.79-1.95,2.08-1.88ZM126.1,82.62c.13.11.95,1.18.85,1.32l-1.8,1.58-.39-.08c-.57-.33-.64-1.27-1.38-1.1.5-.59,1.94-2.4,2.72-1.72ZM127.66,84.53c.41-.03.7.28.99.49.18.14.39.49.68.61l-1.68,2.06-1.89-1.26,1.9-1.89ZM131.91,86.92l-.12.39-1.8,1.6-1.46-.41c.64-1.34,1.92-2.79,3.37-1.58ZM132.99,87.56l2.09.56-2.01,2.55c-.85-.16-1.66-.5-2.36-1.07l2.27-2.04ZM135.13,89.84c.13-.21.09-.6.18-.71.02-.03.28.11.37.05.25-.18.5-.58.72-.62.37-.07,1.51.35,2.06.16l-2.37,2.67-1.79-.29c-.19-.18.68-1,.84-1.25ZM140.06,88.82c.33,0,3.08-.42,2.76.08-.52-.07-.43.46-.66.74-.22.28-1.94,2.17-2.08,2.24-.67.36-2.02.22-2.62-.3.84-.95,1.51-2.06,2.6-2.76ZM157.61,52.2c.14-.03.06.21.18.3.24.2,1.16,1.17,1.11,1.38l-2.28,1.89-1.29-1.68,2.28-1.89ZM156.26,51.94c-.42.37-1.55.64-1.83,1.45l-1.27-1.12,2.07-2.01c.55.22,1.73,1.08,1.03,1.68ZM154.13,49.42l-2.12,1.96-1.65-1.07c.73-.77,1.75-.91,2.28-1.88l1.49.99ZM18.98,17.56l.51-.25,7.85-.03-8.73,8.53.37-8.24ZM18.71,27.4c2.32-1.94,4.19-4.35,6.32-6.47.54-.53,1.43-1.08,2.02-1.66.44-.43.84-1.21,1.14-1.54.72-.79,4.09-.32,5.2-.24.4.03.92-.4,1.09.18l-15.98,15.48.21-5.75ZM39.02,152.08c-.31.37-.8.43-.77,1.11-.41-.04.13-1.59.18-1.66.13-.18.45-.08.54-.18.91-.93,1.64-2.08,2.85-2.72.31.31-2.2,1.89-1.82,2.55-.8-.02-.69.56-.98.9ZM39.69,141.52c.06-.1.94-.75,1.14-.98.75-.89,1.4-1.7,2.27-2.64.2-.22.52-.3.64-.43.07-.07-.16-.41.16-.55l.29.39c0-.82,1.14-1.42,1.69-1.98.16.43-.53.97-.78,1.3-1.41,1.87-3.29,4.83-4.95,6.36-.14.13-.79.6-.92.47-.08-.55.33-.93.5-1.39.08-.2-.1-.48-.06-.56ZM44.2,113.31l-.99-.4,1.89-1.98c.2.04.12.41.04.55-.18.32-1.35,1.05-.94,1.83ZM33.49,98.03h-1.19s1.16-1.52,1.16-1.52c0-.63,2.39-3.19,2.81-2.84l-3.17,3.87.39.49ZM35.87,51.6c-.18.12.15,3.82-.59,2.97-.01-.87-.06-1.67.17-2.52.09-.34-.14-.55.42-.46ZM35.87,76.6l-.29.8-2.68,3.76c-.04-1.04.99-1.59,1.11-2.56l1.87-2ZM36.66,80.17c-.51,1.6-2.57,2.86-2.58,4.56l-.59-.2-1.79,3.17-.4-.1c.21-.34.1-.95.26-1.23.05-.09.31-.13.41-.27,1.41-2.1,3.08-3.97,4.69-5.93ZM33.97,91.47c.58-1.06,1.02-2.53,1.73-3.62.15-.23,1.11-1.35,1.36-1.12-.85,1.23-1.45,2.55-2.19,3.82-.59,1.01-1.27,2.01-1.95,3.05-.3.47-.31,1.22-1.02,1.46-.26-.3,1.83-3.16,2.07-3.59ZM38.66,47.8c.68-.96,2.59-2.44,3.18-3.43.22-.37.04-.88.38-.9l.51,1.39c-1.16.94-1.97,2.21-2.96,3.3-.22.24-1.47,1.67-1.71,1.46.23-.54.26-1.33.61-1.82ZM38.45,42.47c.56-1,.15-3.12,1.59-3.17.05.05-.24,1.2-.32,1.39-.04.1-.36.15-.41.25-.06.12-.42,2.06-.85,1.53ZM40.7,51.17c1.26-1.61,2.35-3.38,3.7-4.93-.02.33.23.37.02.69-.41.64-1.39,1.6-1.89,2.29-.98,1.37-2.07,2.73-3.03,4.02-.31.42-.49,1.09-.79,1.5-.24.32-.82.52-.86,1.01l-.4-.1c.27-.37.29-1.14.46-1.43.5-.85,2.14-2.23,2.79-3.07ZM50.15,60.21c.35-.29,2.44-2.61,2.78-2.26.49.5-1.73,1.92-2.02,2.2-1.05.99-2.1,1.83-3.18,2.77-1.07.94-2.1,1.98-3.13,2.96.13-.86.64-1.55,1.25-2.11,1.32-1.22,3.04-2.51,4.29-3.57ZM49.39,47.85c.09-.06.69.15.74.21.13.14-.6,1.4-.67,1.36-.65-.58-.46-.92-.07-1.57ZM50.95,50.21c.66.01.92.64.98,1.17l-.98.42-.4-.99.49-.19-.09-.4ZM59.68,58.55s.4.07.54-.04c.23-.17.26-1.21,1.44-.95.05.68-.71.95-.99,1.29-1.46,1.76-2.71,3.7-4.37,5.26.02-1.76,2.97-3.61,3.46-4.96.07-.2-.14-.55-.09-.6ZM85.29,61.83c.2-.21.35-.4.4-.69l.58.19c-.02-.79.84-.95,1.39-1.39.17.17-.9,1.3-1.08,1.51-1.79,2.11-5.23,5.32-7.41,7.21-.19.16-1.06.96-1.23.81.22-.38.49-.76.79-1.09,1.99-2.19,4.42-4.3,6.56-6.54ZM82.3,59.53c.69-1.35,1.07-2.34,2.78-2.18-.42.3-2.39,2.5-2.78,2.18ZM101.22,50.48c1.31-.86,2.48-2.01,3.66-3.03.95-.82,2.42-1.57,2.82-2.79.26-.06.33,1.04.32,1.1-.04.27-.47.38-.65.56-1.26,1.3-2.6,2.1-4.03,3.21-1.4,1.1-2.69,2.59-4.38,3.26l2.25-2.31ZM100.56,46.84c.18-.51.66-1.21,1-1.63,1.1-1.39,2.87-2.98,4.16-4.21.58-.55,1.06-1.31,1.88-1.69.13-.04.14.19.1.29-.11.24-1.56,1.85-1.87,2.2-.57.63-1.36,1.45-1.98,2.07-1.03,1.03-2.15,2.04-3.28,2.97ZM104.73,105.97l1.98.4-.95,1.13-.64.45.79-1.59-1.19-.4ZM104.93,103.89c.43-.75,2.26.26,2.38.21.9-.59,1.09-1.44,1.58-2.2.26-.4,1.45-1.7,1.2-2.08-1.28-.24-2.49.12-3.27,1.19l-.2-.4c-.89.56-1.06,1.66-1.75,2.32-.2.19-1.26.85-1.53.65.11-.91,1.06-.67,1.41-1.08.19-.21-.12-.72.27-.91l.29.4c.07-.23-.22-.65-.16-.76.06-.11,1.84-1.46,1.95-1.52.39-.17,3.6-.44,3.77-.3l-2.61,4.93c-.41.1-3.33-.12-3.34-.46ZM108.71,142c-1.03.75-2.53,2.84-3.65,3.78-.45.37-1.12.58-1.52,1.06l5.65-6.55.5,1.39c-.32.06-.72.12-.98.32ZM110.48,143.28l.02.7c-1.05,1.21-2.17,2.41-3.39,3.47l.41-.83,2.96-3.33ZM106.63,139.53c-.1.12-.09.36-.2.49-.45.53-.69,1.04-1.38,1.3l-2.31,2.15,1.78-2.48c.93-.95,2.07-1.83,2.58-3.07,1.44.36-.16,1.21-.48,1.62ZM102.54,139.31c-.28-.3,1.12-1.42,1.27-1.6.7-.89,1.29-1.97,2.2-2.76l.47.96c-1.73.83-1.95,2.75-3.94,3.4ZM104.04,133.85c-.75.72-1.4,1.57-2.18,2.28-.22.2-.35.47-.7.39-.34-.34,1.38-1.49,1.52-1.65.17-.2.19-.65.39-.88.18-.19,1.78-1.73,1.86-1.64l.12.8c-.52.14-.67.37-1,.69ZM45.99,114.7c-.08.1-1.37-.36-1-.9.42-.59,2.26-1.89,2.91-2.55,2.06-2.08,3.77-4.25,5.92-6.28.22-.2.34-.48.7-.4.18.16-2.53,3.12-2.79,3.41-1.47,1.6-3.11,3.05-4.48,4.7-.47.57-1.43,1.22-1.26,2.01ZM45.89,119.86c-.47-.35-.16-.31-.03-.63.25-.59.73-.85.73-1.55l.58.21c.27.37-1.09,1.52-1.27,1.97ZM37.96,65.88c.05-.1.38-.16.5-.34.82-1.16.64-.68,1.57-1.35,1.05-.76,2.47-1.95,3.39-2.81.62-.58.9-1.6,1.97-1.84.04.28-.09.53-.26.73-.79.91-2.04,1.88-2.9,2.8-.83.88-1.78,1.96-2.88,3.03-.15.15-1.37,1.31-1.5,1.18.27-.35.03-1.26.1-1.4ZM59.75,81.76c.95,2.51,1.76,8-.31,10.07-.18.18-1.16.65-1.44.84-.21.14-.22.47-.43.61-1.64,1.11-6.12,1.71-8.11,1.75-.1,0-.06-.33-.21-.37-.17-.04-.72.16-1.08.07-.68-.16-3.67-1.53-4.15-1.97-.06-.06-.98-1.14-1.09-1.29-2.28-2.98-3.02-6.5-1.95-10.11,2.82-9.46,15.56-8.07,18.77.39ZM54.51,69.56c.5-.65,1.81-2.17,2.39-2.73.17-.17.37-.28.6-.35l-1.62,2.45c-.53.35-.84.83-1.24,1.24-.29.3-.56.64-.91.88-.11-.52.55-.81.71-1.04.05-.07-.05-.29.07-.44ZM65.24,69.06s.25.18.35.14c.13-.05.57-.89.84-.93.01.86-.86,1.2-1.31,1.67-.19.21-1.1,1.26-1.17,1.3-.35.18-.36-.32-.3-.49.09-.26,1.35-.89,1.52-1.17.11-.19.05-.48.08-.51ZM64.44,78.17l-.19-.57,1.19-.4c-.58,1.49-1.93,2.36-2.88,3.57-.44-.33-.22-.31-.06-.65.32-.66,1.3-1.62,1.93-1.95ZM89.76,71.45c.22-.17.4-.25.68-.21l-.2-.59c1.24-.14,1.47-1.5,2.48-1.99l.09.39c-.52,0-.59.61-.91.98-1.46,1.69-3.28,3.02-4.84,4.58-.02-.34.3-.73.52-.97.4-.44,1.77-1.87,2.18-2.19ZM87.66,67.87c.35-.23,2.46-2.9,2.78-2.58.09.37-.21.47-.4.69-.52.63-1.62,1.66-2.38,1.88ZM90.49,76c.13-.08.11-.31.3-.38.45-.15,2.99-.47,3.52-.49,2.18-.09,4.76.28,6.57,1.55,2.29,1.61,3.4,5.87,3.26,8.56-.44,8.48-11.11,12.41-17.76,8.02-.25-.17-2.22-1.74-2.31-1.86-.19-.27-.11-.58-.21-.75-.1-.18-.28-.17-.32-.26-.36-.98,0-3.42.2-4.5.82-4.53,2.64-7.45,6.74-9.89ZM105.52,54.68c.24-.21,2.05-2.46,2.38-2.09.05.06.06.65-.13.81-.22.19-.73.26-.99.46-.56.44-.64.92-.9,1.27-.03.03-.43-.09-.81.23-.4.34-.84,1.2-1.2,1.54-1.39,1.3-2.89,2.38-4.35,3.63-.83.71-1.63,1.94-2.73,2.18l1.4-1.68c2.22-2.46,4.92-4.2,7.33-6.35ZM101.35,55.57c2.14-2.14,4.25-4.33,5.95-6.85l.58.12c.39,1.5-.85,1.66-1.61,2.36-1.26,1.15-2.88,3.19-4.2,4.09-.23.15-.4.34-.72.28ZM107.46,85.01c.37-.35.23-.95,1.03-.87l-1.46,1.91-1.12.86c.18-1.11.96-1.36,1.55-1.91ZM108,81.36c.48-.4.6-.61.82-.8.15-.13.99-.51,1.26-.58-.99,1.34-2.48,2.17-3.77,3.17-.28-.3,1.46-1.6,1.69-1.79ZM106.11,94.66c0,.19.06.38-.05.56-.12.21-1.19.95-1.45,1.22-.31.31-.88,1.18-1.2,1.37-.57.34-1.32.34-1.86.82-.09-.92.68-.78,1-1.07.54-.49,2.01-2.22,2.46-2.52.33-.21.76-.2,1.1-.39ZM105.13,97.24l.2.4c.64-.53,1.53-.06,2.38-.4-.77.77-2.26.51-3.27.79-.18-.38.87-.14.7-.8ZM101.83,70.33l1.71-.87-2.25,2.11c-.79.24-1.78.97-2.04,1.67l-1.27-.02,3.85-2.9ZM96.79,71.84l1.66-1.9c1.54-1.22,2.82-2.23,4.15-3.39.2-.18.45-.3.73-.26-1.82,2.25-4.12,3.98-6.55,5.55ZM104.33,71.64c.06.06-.78,1.39-.88,1.51-.24.31-.7.52-.92.76-.33.37.07.89-.78.7l-.11-.59c.5-.13,2.38-2.68,2.68-2.38ZM104.93,66.28c-.26-.3,1.58-2.19,1.88-2.49.24-.25.31-.57.7-.48.17.37-.13.65-.17.78-.18.66-.31.28-.7.63-.53.47-.96,1.3-1.71,1.57ZM106.63,60.94c-1.18,1.47-2.29,2.69-3.88,3.75-.15-.17.38-.79.53-.97,1.21-1.52,2.71-2.57,3.92-4.21.16-.22,0-.49.51-.37.16,1.09-.66,1.28-1.07,1.8ZM107.24,57.29c-.44.37-1.38.79-1.95,1.27-.47.4-.95.8-1.4,1.17-.62.51-1.22,1.52-2.14,1.59l6.05-5.95c.35.6-.1,1.52-.57,1.92ZM99.45,66.07c.21-.22,1.51-2.3,1.9-1.97.37.31-.41.49-.48.58-.1.13.05.48-.21.79-1.02,1.2-3.34,3.36-4.56,4.38-.22.19-.32.48-.69.4l1.1-1.57c1-.82,2.05-1.67,2.95-2.61ZM100.62,95.81c-.16.2-1.24,1.45-1.45,1.22-.36-.38,1.5-1.72,1.78-1.98.13.51-.13.51-.33.76ZM93.28,129.44c-.38.32-.88,1.44-1.65,1.33,1.03-1.51,2.51-2.6,3.78-3.86.65-.65,1.29-1.48,1.83-2.02.96-.96,2.49-1.91,2.92-3.24.55.31.16,1.26.59,1.78-.69-.1-1.13.84-1.61,1.27-1.93,1.72-3.93,3.08-5.87,4.75ZM96.62,132.49l3.94-2.91c.28.27-5.28,4.75-5.42,5.3l-3.71,2.83,1.11-1.27c1.07-1.42,2.87-2.52,4.08-3.95ZM50.95,97.84c1.03.17.59-1.35,1.79-.99l-4.56,4.96c.22-1.12,1.32-1.72,1.92-2.45.33-.4.2-1.31,1.06-1.13l-.2-.39ZM58.19,96.44c.22-.19.32-.48.69-.4.18.18-1.5,2.18-1.78,2.48-.98,1.08-2.23,1.97-3.18,2.97-1.67,1.78-3.53,4.4-5.24,5.98-.15.14-.98.8-1.12.66l2.59-3.08c2.4-3,4.95-6.05,8.03-8.62ZM79.65,78.32c-.08.08-.34.05-.43.14-.25.23-.46.56-.68.79-.2.21-.4-.14-.4-.17,0-.26,3.35-3.14,3.57-3.87l.14.55c-.86.6-1.5,1.86-2.21,2.56ZM81.11,90.69l-2.38,2.38c.16-.99,1.36-2.27,2.38-2.38ZM78.73,99.82l-.86,1.12-1.52,1.26c-.01-.33.3-.73.51-.98.24-.29,1.55-1.65,1.87-1.4ZM72.58,90.29l2.84-3.31,1.32-.66c-1.07,1.6-2.49,3.06-4.16,3.97ZM76.76,88.47c.11-.12.59-.77.78-.56.51.57-2.26,3.31-2.98,3.17.93-.78,1.43-1.77,2.2-2.61ZM76.91,94.5c.48.28.71,1.8.52,2.35-.53,1.58-3.17,2.41-4,4.5-.27.68-.36,3.24-.16,3.93.36,1.21,2.57,2.33,3.52,3.07.43.33,1,.99,1.39,1.31.06.04.51.01.88.34.24.21.5.77.81,1.02-.45,1.65-1.37.94-2.46.34-1.72-.94-3.21-2.44-4.96-3.38-.39-.05-2.88,2.18-3.4,2.53-.28.19-.75.26-1.06.44-.45.26-1.08,1.15-1.81.79-.32-.22-.45-.82-.16-1.12l3.77-2.98c.4-.86,1.88-1.72,1.94-2.59.02-.34-.16-.75-.15-1.16.04-1.57.35-2.67-.84-4.01-.35-.39-.87-.27-.9-.3-.13-.14-.1-.51-.28-.7-.19-.2-.75-.25-1-.44-.52-.4-1.57-1.86-1.29-2.54.03-.06.9-.89.96-.93.56-.31,3.52-.56,4.26-.59.63-.02,4.23,0,4.42.12ZM80.93,119.44c.07.1.47-.12.38.22l-2.18.2,1.39-1.39c.26-.06.16.14.29.31.06.08.25.1.26.13.05.15-.23.41-.14.54ZM88.63,101.49c1.2-.92,1.96-2.24,3.1-3.27.38-.34.97-.33,1.2-.98.29.19.05.49-.11.68-.68.81-1.76,2.11-2.44,2.82-.46.47-1.27.72-1.61,1.47-.32,0-1.72,1.36-1.89,1.18-.24-.25,1.02-1.06,1.2-1.29.32-.39-.21-.02.55-.61ZM88.1,99.21l-1.43,1c-.26-.24,2.57-3.01,2.87-3.18.31-.18.54-.23.9-.19l-2.34,2.37ZM92.69,100.68l1.32-.86c-.68,1.15-1.8,1.91-2.7,2.86-1.14,1.2-2.53,2.94-3.92,4.21-.59.54-1.48,1.26-2.13,1.74-.29.21-.6.54-.97.51l8.4-8.46ZM89.12,110.8l3.41-2.84.09.39c-1.19.95-2.54,2.08-3.67,3.17-1.57,1.52-3.05,3.66-5.05,4.57l5.22-5.29ZM95.07,119.92c.15-.12.52-.14.73-.26v.39c-.16.03-.38.07-.49.19-.77.83-1.92,2.24-2.73,2.93-.04.03-.39-.2-.75.46-.07-.31.12-.49.28-.72.12-.17,2.76-2.83,2.96-2.99ZM89.75,117.09c.3-.31.5-.68.78-1,.42.25.19.63.03.92-.05.08-.28.15-.39.3-.25.3.06.59-.71.67-1.3.15.05-.63.3-.89ZM85.53,118.33c-.4.42-.19,1.14-1.44.93l5.36-4.96c.09.37-.21.47-.4.69-.96,1.15-2.47,2.23-3.52,3.33ZM90.04,120.26l-6.16,5.83-.38-.17c2.16-1.76,3.9-4.71,6.54-5.65ZM82.02,105.79c-.36.38-.1.97-.91.78.13-.25,2.15-2.99,2.58-2.58.2.19-1.53,1.65-1.67,1.8ZM78.46,117.28c.03.11-.57.95-.71,1.1-.21.23-1.5,1.52-1.6,1.57-.3.18-.66.09-.99.1.4-.89,1.54-1.3,2.11-1.85.88-.85,1.78-2.24,2.74-3.11.22-.2.35-.47.7-.39.13.12-1.95,2.48-2.26,2.58ZM55.91,113.31c-.14-.15,1.08-1.54,1.26-1.72.92-.94,2.24-2.07,3.24-3,.16-.15.38-.49.65-.25.22.19-.28.55-.41.67-1.58,1.43-3.08,2.96-4.74,4.28ZM58.56,117.94c-.58.69-.67,1.54-1.86,1.12.58-.79,1.59-1.08,2.28-1.78.37.36-.29.5-.42.66ZM59.29,107.16l2.25-2.91c.96-.43,1.42-1.82,2.51-1.85-1.4,1.7-3.02,3.45-4.76,4.76ZM64.66,114.93s.69.07.97-.43c.09.54-.47.6-.72.86-.51.52-.99,1.12-1.65,1.52-.32-.36,1.18-1.28,1.33-1.46.1-.11.02-.42.07-.5ZM63.65,109.14l1.8-2.22,2.17-1.74c.23.27-1.61,2.12-1.88,2.39-.23.23-1.92,1.74-2.09,1.58ZM64.77,98.36l-1.91,1.66c.46-.99,1.49-2.16,2.38-2.78l-.46,1.12ZM64.64,113.51c-.31.25-.97.21-1.18.31-.37.18-.6.99-1,.39.97-.4,1.29-2.17,2.18-.7ZM63.71,119.47c.19-.12,1.34-1.94,1.72-1.6-.13.47-.61.71-.86,1.04-.35.46-.66,1.86-1.72,1.04-.17-.42.59-.32.85-.48ZM67.72,124.62c.22-.19.32-.48.69-.4.09.37-.21.47-.4.69-.98,1.18-2.27,2.2-3.37,3.27-.04-.37.28-.64.48-.91.44-.56,2.05-2.2,2.59-2.66ZM66.43,120.25l1.89-1.59c.78-.73,1.44-1.62,2.18-2.38.21-.21.35-.46.7-.39.05.67-.63.94-.99,1.34-.38.42-.56.52-.8.78-.85.9-1.34,2.4-2.97,2.25ZM72.58,119.26l-.16-.36c.69-.09,1.5-1.41,1.9-1.61.36-.17.44-.32.64.18-.83-.18-.94.93-1.32,1.37-.64.75-1.6,1.58-2.65,1.41.31-.54.97-.96,1.59-1ZM73.57,115.49c.16-.62.74-.93,1.08-1.39.3-.41.23-1.23.9-1.18.13.13-1.55,2.98-1.98,2.58ZM75.43,126.09c.17-.15,1.18-1.02,1.31-.87.24.27-.1.49-.25.65-.45.49-1.28.99-1.73,1.44-.3.3-.78,1-1.18,1.39-.89.85-2.06,2.03-2.99,2.77-.21.17-.45.46-.59,0-.03-.08.42-.21.59-.39,1.57-1.65,3.12-3.48,4.84-4.99ZM68.68,83.81c-.79,1.13-1.65,2.34-2.65,3.41-.1.11-1.08,1.01-1.18.89-.26-.3.15-.52.25-.65.52-.67,1.27-1.15,1.73-1.68.78-.89,1.51-2.19,2.3-3,.21-.21.28-.51.68-.41.13.12-1.02,1.3-1.12,1.45ZM65.87,89.88c.39-.36.7-.78,1.05-1.17.23.11-.09.87-.16.94-.09.09-.38,0-.54.18-.8.87-1.68,1.76-2.24,2.78l-2.12,1.65c-.09-.09,1.4-1.85,1.58-2.04.68-.76,1.61-1.57,2.43-2.33ZM60.87,77.89l-.59.3-.6-.99c.23-.14,1.28-.24,1.38-.3.33-.22.64-1.14,1.2-1.29l-1.39,2.28ZM60.87,98.13l1.78-1.49c.27.33-1.36,1.67-1.58,1.94-.91,1.12-1.75,2.86-3.11,3.48l-1.46,1.52c.11-.81,1.02-1.47,1.46-2.01.96-1.16,1.94-2.29,2.9-3.45ZM56.56,106.63l2.32-2.05-1.25,1.92c-1.28.8-2.25,2.21-3.4,3.16-.12.1-.43.03-.48.09-.12.14.05.57-.06.74-.07.11-.47.09-.62.23-.66.57-.96,1.49-1.73,1.79-.07-.32.12-.49.28-.72,1.35-1.99,3.56-3.49,4.94-5.17ZM54.18,117.09c.31-.28.38-.87.94-.8.06.06-.78,1.48-.84,1.55-.04.04-.92.28-.94.24-.37-.65.66-.82.84-.98ZM55.52,124.91c.38-.4.48-.59,1.06-1.12.87-.78,1.63-1.94,2.9-2.14l-5.36,4.76c-.01-.91.99-1.08,1.39-1.5ZM61.65,126.1c1.15-1.08,2.59-2.03,3.78-3.07.09.37-.21.47-.39.69-.66.79-1.71,1.86-2.45,2.61-1.87,1.89-3.91,3.71-5.98,5.42-.22.18-.32.48-.7.39.48-.27.39-.93.43-.96,2.12-1.65,3.41-3.31,5.31-5.1ZM63.46,132.12c3.16-3.52,6.65-6.43,10.2-9.69l.9-.19-12.3,11.51c.16-.57.8-1.18,1.2-1.63ZM73.29,133.37c.3-.3,1.5-1.09,1.61-1.28.21-.34-.21-.68.4-.38.08-.35,1.53-1.59,1.83-1.33.1.09-.93,1.17-1.07,1.31-2.08,1.99-4.18,4-6.18,5.84-.66.6-1.27,1.48-2.08,1.98-.16-.17,1.32-1.74,1.52-1.96,1.24-1.35,2.67-2.88,3.96-4.17ZM77.04,135.13c1.98-2.43,4.72-4.36,6.93-6.66l2.1-1.46c.41.4-5.08,4.82-5.56,5.25-1.36,1.21-2.67,2.71-4.06,3.88-.22.19-.32.48-.69.4l1.28-1.4ZM83.76,133.81c.35-.48,1.87-1.68,2.42-2.23,2-1.99,4.08-3.98,6.16-5.86.71-.65,1.15-1.55,2.27-1.6-.03.63-.81.66-1.13.95-.56.5-1.08,1.41-1.82,1.76l.17.56-.57-.17-7.76,7.52c0-.27.11-.72.26-.93ZM98.57,117.48l-2.58,1.98c-.31-.32,2.02-2.23,2.58-1.98ZM99.37,111.23c-.98,1.29-2.75,3.7-4.02,4.53-.54.35-1.48.79-2.13.93l7.54-7.14-1.39,1.69ZM93.99,103.87c-2.33,1.49-3.82,4.17-5.95,5.75-.18.14-.81.65-.97.51-.19-.16.69-.95.82-1.07,1.85-1.8,3.63-3.55,5.48-5.34.18-.17.13-.53.31-.69.15-.14,1.23-.56,1.53-.65l-1.21,1.47ZM83.97,99.7c.15-.12.62-.52.51.02-.15.28-.55.37-.72.57-1.76,2.03-3.96,3.9-5.51,5.91-.18.23,0,.56-.51.28-.42-.23.77-1.14.73-1.44,1.8-1.76,3.54-3.73,5.5-5.33ZM82.38,71.82c-1.1,1.21-2.49,2.35-3.6,3.44-.17.17-.08.67-.3.9-.31.33-1.48,1.27-2.01,1.76-.19.18-1.57,1.4-1.72,1.26l2.37-3.04c1.85-1.36,3.58-3.23,5.24-4.93.25-.26-.12-.57.72-.57.12.18-.56,1-.71,1.17ZM79.76,70.89c-.15.14-.3.75-.72,1.15-.6.57-1.41,1.08-2.02,1.65-.68.63-1.43,1.94-2.45,2.11,1.82-1.93,3.63-3.82,5.66-5.55.71.68-.42.6-.46.64ZM74.37,69.16c-1.32,1.39-2.72,3.21-4.07,4.48-.38.36-.98.97-1.49.98l10.12-10.51c-1.03,2.13-3,3.41-4.56,5.05ZM70.6,75.61c.16.15-2.27,2.51-2.38,2.38l.32-.77,2.06-1.61ZM69.8,78.98c-.41.9-1.09,1.4-1.71,2.07-.14.15-.08.67-.67.71l.4-.89,1.98-1.89ZM66.03,80.17c.76-.65,1.04-1.79,1.98-2.18.34.43-1.76,2.39-1.98,2.18ZM67.02,82.16c.02.36-.3.7-.51.97-.69.91-1.84,2.73-2.55,3.4-.29.27-.44.47-.9.39-.51-.54,1.9-2.4,2.26-2.79.52-.56.95-1.55,1.7-1.97ZM63.47,71.74c-.15.23-2.24,2.31-2.5,2.49-.2.14-.47.07-.69.19-.29-.43,3.01-3.54,3.17-3.37-.02.33.22.37.02.69ZM60.59,66.8c-.17.26-1.96,2.01-2.1,1.86.12-.6.95-1.08,1.33-1.46.08-.09.02-.35.2-.53.17-.17.63-.39.85-.59.07.32-.12.49-.28.72ZM58.69,73.23h.99c-.46.74-1.78,1.38-1.79,2.18l-.79-.5,1.78-1.11-.19-.58ZM47.51,97.47c.18-.15.9-.78,1.06-.63-.87,1.11-1.88,2.08-2.97,2.97-.28-.31,1.58-2.07,1.91-2.34ZM48.47,103.98c.22-.18.32-.48.7-.39l-2.98,3.47-2.58,2.28,2.47-3.09c.81-.74,1.54-1.57,2.39-2.27ZM52.34,114.3c.32.36-1.82,1.69-1.62,2.35l-.76.03c-.44-.39,2.06-2.14,2.38-2.38ZM50.46,121.85c.2-.22,1.78-2.12,2.08-1.79l-.14.59c-.68-.09-.54.54-.72.73-1.07,1.1-2.27,2.11-3.31,3.24.17-.77.94-1.32,1.4-1.89.23-.28.24-.4.69-.88ZM51.51,126.02c.18-.14.88-.76,1.03-.61.14.13-1.22,1.69-1.39,1.89-.28.32-.9.68-1.19,1.04-1.41,1.75-3.08,3.51-4.88,5.18-.21.19-.27.52-.67.42-.48-.5,3.23-3.97,3.68-4.45,1.18-1.24,2.02-2.37,3.42-3.48ZM56.9,126.7c.37-.27.18.37.1.49-.23.35-.83.91-1.17,1.31-1.93,2.3-4.86,5.32-7.36,7.43-.22.19-.32.48-.7.39l9.13-9.62ZM49.61,140.55c.06-.1,1.68-1.17,1.9-1.48,1.14-1.56,2.95-3.07,4.64-4.54.33-.29,2.07-2.21,2.34-1.97.07.07-.28.49-.36.59-2.52,3.05-6.7,6.86-9.51,9.72-1.05,1.07-2.28,1.98-3.22,3.17-.02-.36.3-.7.51-.97.42-.55,1.03-1.34,1.47-1.85.96-1.13,1.5-1.42,2.23-2.68ZM52.75,145.62c3.18-3.64,7.11-7.29,10.66-10.12.21-.17.41-1.08,1.03-.95.09.08-1.43,1.74-1.57,1.89-.72.76-1.36,1.37-2.08,2.08-2.95,2.93-5.97,5.74-9.04,8.52-.16-.17.83-1.22,1-1.43ZM54.92,148.93c1.53-1.82,3.46-3.37,4.76-5.36.27-.27.63-.41.9-.69,2.06-2.12,4.29-4.3,6.51-6.29.18-.16,1.17-1,1.32-.86-.79,1-1.63,2.03-2.5,2.95-2.18,2.32-4.83,5.03-7.31,7.37-1.3,1.23-2.77,2.33-4.08,3.56-.09-.37.21-.47.39-.69ZM62.98,146.38c2.24-2.24,4.61-4.58,7.01-6.78.35-.33.83-.57,1.2-.88l-.62,1.16-.36-.17c.06,1.02-.54.86-.73,1.05-2.14,2.12-3.95,3.9-6.21,5.81-.73.62-1.42,1.35-2.19,1.87-.31-.35,1.68-1.83,1.91-2.05ZM65.25,149.73c4.19-4.7,8.61-8.4,13.16-12.73l2.11-1.66-.84,1.34c-.87.2-1.41,1.23-2.02,1.84-4.66,4.66-9.43,9.23-14.39,13.49-.11-.53.04-.43.24-.66.49-.53,1.23-1.04,1.75-1.62ZM74.04,146.03c.87-.9,1.52-1.57,2.43-2.44,2.99-2.84,6.12-5.5,8.99-8.51l.81-.14-15.87,15.08c.95-1.57,2.38-2.7,3.64-3.99ZM81.64,142.9c2.7-2.76,5.56-5.42,8.07-8.29l3.11-2.25c-.57.94-1.27,1.74-2.04,2.52-1.77,1.79-3.9,3.53-5.57,5.53l-6.07,5.44,2.51-2.95ZM95.24,136.92c.53-.48.94-1.09,1.45-1.58.09.44-.55,1.25-.81,1.57-.28.35-.62.46-.81.68-3.15,3.55-7.08,7.14-10.52,10.26-1.5,1.36-3.12,2.61-4.63,3.96-.37-.4,2.47-2.61,2.71-2.85.26-.27.42-.7.68-.96,4-4.11,7.84-7.37,11.93-11.08ZM89.15,146.64c2.35-2.75,5.38-5.16,7.85-7.84.14-.15,0-.4.05-.45.16-.18,1.53-1.19,1.72-1.03-1.08.69-1.74,2.94-2.49,3.56-2.07,1.71-4,3.61-6.04,5.47-.19.18-1.65,1.42-1.79,1.29.2-.34.43-.69.69-.99ZM99.98,143.59c.2-.19,1.61-1.45,1.77-1.31-.84.97-1.68,1.97-2.57,2.89-.57.58-2.2,1.63-2,2.26l-.7.2c-1.62,1.54-3.26,3.34-4.96,4.77-.22.19-.32.48-.69.39,1.65-1.81,3.31-3.64,5.06-5.35,1.33-1.3,2.73-2.6,4.09-3.86ZM103.47,130.91c-.41.47-1.91,1.79-2.45,2.2-.26.19-.52.48-.86.44l3.27-3.57c.41.26.31.62.04.93ZM97.38,129.38c-.07-.35.19-.48.39-.7.81-.88,1.73-1.7,2.66-2.6.18-.17.94-1.03,1.11-.87l.17,1.16-4.34,3.01ZM95.6,111.13c-.23-.24,2.64-2.76,2.96-3.13.69-.82.27-1.26,1.61-1.23l-.19-.57c.54-.13.85-.48,1.02-.99l1.35-.02-6.75,5.95ZM102.27,102.12c-.56.41-1.4.83-1.89,1.18l-2.6,1.87c.56-.59,1.26-1.39,1.87-1.91.2-.17,1.14-.58,1.27-.71.12-.11.17-1.29,1.01-1.38l-.17-.56,2.58-.2c-.68.54-1.37,1.2-2.06,1.71ZM107.9,97.43c0-.29.61-.38.84-.45,2.34-.69,2.32-.53,3.43-2.92l-.72,2.96-3.55.41ZM111.34,91.96c-.46.33-.99,1.21-1.52,1.56-.19.13-.58.54-.73.05-.01-.05.62-.46.78-.66.35-.41,1.04-1.64,1.4-1.23-.16-.84,1.15-.93,1-1.79.4-.05.32,1.33.29,1.4-.17.43-.91.45-1.21.66ZM109.09,89.2c-.86.72-1.55,2.05-2.78,2.08.24-.47.64-.89,1.02-1.25.63-.62,1.5-1.21,2.05-1.72,1.17-1.09,2.08-1.86,2.78-3.38l.26,1.54c-1.02,1.01-2.24,1.8-3.34,2.72ZM105.92,80.77c-.23-1.23,1.16-1.83,1.89-2.66.67-.76,1.25-1.6,1.83-2.44.12-.17-.03-.37.44-.26l.37,1.56c-1.65.97-2.82,2.8-4.54,3.8ZM109.59,60.13c-.45,0-.15-.57-.13-.73.12-.89.02-1.89.15-2.66.04-.23.25-.94.68-.77-.36.5-.33,4.16-.69,4.16ZM109.36,73.97c-.03.09-1.31,1.39-1.45,1.24.35-.57.65-1.14.94-1.74.05-.11.06-.8.45-.44.13.13.15.69.07.94ZM108.23,71.37c-.22.35-1.34,1.44-1.71,1.76-.2.17-1.24,1.03-1.39.89.55-.85,1.31-1.53,1.99-2.28.27-.3.45-.47.59-.62.33-.35.5-.88.99-1.07-.04.43-.24.96-.47,1.32ZM101.65,52.79c.32.19-.05.44-.2.59-.32.3-.64.63-.96.92-.57.53-1.38.76-1.57,1.6l-5.7,4.82c1.95-3.27,5.71-5.24,8.43-7.93ZM96.47,47.01c-.97,1.15-2.31,2.46-3.37,3.57-.25.26-.7.83-1.07.82-.29-.28,2.61-2.87,2.88-3.16.45-.48.89-1.23,1.36-1.72.12-.13.74-.87.91-.67.14.16-.56.98-.72,1.17ZM92.22,56.26c.39-.48.55-1.09.89-1.49.45-.53.22.27.4.21.61-.44,1.05-1.15,1.89-1.19l-3.64,4.09-1.32.67c.26-1.14,1.19-1.55,1.78-2.28ZM91.03,61.72c.29.26-.78.72-.68,1.11-1.5,1.25-2.73,2.79-4.24,4.04-.2.16-1.06.95-1.23.8.9-.86,1.51-2,2.41-2.85.39-.37.96-.65,1.37-1.02.3-.27,2.11-2.32,2.38-2.08ZM77.64,57.56c-.44.46-.57.59-1.04,1.04-.69.65-1.44,1.72-2.14,2.33-.22.19-.33.48-.7.39.66-.75,1.18-1.64,1.78-2.43.45-.59,1.45-1.04,1.42-2.11l2.16-.02c-.27.42-1.12.42-1.48.8ZM73.97,65.29l-8.33,9.13c.72-2.26,3.03-3.62,4.17-5.66l4.16-3.47ZM69.21,64.3c.19.15-2.18,2.16-2.38,1.98-.19-.17.63-.88.75-.99.17-.16,1.47-1.12,1.63-.99ZM68.79,62.99l2.2-1.47-.46.92c-.43,0-1.98,1.17-2.11,1.06-.2-.17.1-.52.37-.51ZM66.46,63.43c-.18.24-.18.57-.63.47.4-.36.46-1.05.71-1.37,1.22-1.62,3.33-2.97,4.52-4.71l1.52-1.06c-1.84,2.38-4.28,4.25-6.12,6.67ZM65.16,58.27c-.09.11-.3.16-.4.29-.95,1.18-1.65,2.65-3.09,3.36-.26-.29,1.98-2.42,2.18-2.68.73-.94.82-2.36,2.38-2.48.16.16-.89,1.31-1.06,1.51ZM55.81,60.12c-.87.79-1.73,1.96-2.63,2.78-.19.17-1.26,1.15-1.43,1,.82-1.14,1.8-2.13,2.77-3.13.8-.83.4-.41,1.19-.95.2-.13.31-.59.71-.68l.07.76c-.11.08-.47.03-.68.21ZM46.26,56.14c-.23-.03-.81,1.11-1.07.82-.26-.3,1.06-1.3,1.05-1.72.63-.62,1.25-1.28,1.86-1.92.14-.15.07-.86.85-.72l-2.7,3.55ZM46.3,52.11c-2.6,3.45-5.3,6.8-7.85,10.3l-.79.3c-.46-1.08.49-.99,1.11-1.66,2.03-2.18,4.03-5.17,5.76-7.46.33-.44,2.21-3.24,2.54-3.18.81.15-.62,1.5-.77,1.7ZM38.08,58.27c.5-.97,1.54-1.81,2.16-2.6.12-.16.99-2.07,1.39-1.69l-2.3,3.75-1.47,1.6c-.06-.41.04-.7.22-1.06ZM45.74,48.88c-.49.63-1.1,1.25-1.73,1.73.03-.58.65-.85.96-1.32.09-.14.49-1.6,1.02-1.06.28.28-.15.53-.25.65ZM44.3,43.06c-.75-.67-.44-1.86.69-1.38l-.69,1.38ZM37.5,69.9c.12-.15.53-.17.74-.35.73-.64,1.37-1.47,2.09-2.08.22-.19.32-.48.69-.39-.24.59-3.27,4.67-3.77,4.16.11-.31.07-1.14.24-1.34ZM37.46,90.38c.19-.64,1.03-1.5,1.58-1.88l.17,1.36c-.29.24-2.44,2.07-2.75,1.81-.27-.23,1-1.01,1-1.3ZM38.25,98.43c.12.49-.25.49-.62.49l-3.74-.88c1.53-.22,2.87.36,4.36.4ZM36.46,100.61c.07.32-.12.49-.28.71-.28.41-.77.53-1.04.74-.31.24-.32.91-1.06.72.36-1.2,1.22-1.86,2.38-2.18ZM36.04,104.65l2.9-3.45c.41.31.26.31.06.65-.37.66-1.52,2.26-2.03,2.84-.38.43-1.08,1.11-1.5.28l.57-.33ZM41.73,103.59c.34.27-.23.53-.42.69-.07.06-.08.23-.12.25-.3.13-1.88-.3-1.75.45l-.39-.3c.66-.96,1.94-.25,2.68-1.09ZM41.74,107.18c1.03-1.24,2.13-2.23,3.16-3.38.39-.44.66-1.03,1.18-1.4l-1.14,2.04c-.09.21-.37.27-.48.42-.72,1.07-1.35,2.04-2.06,3.05-.69.98-1.48,1.88-1.88,3.02l-1.09-.89c.87-.86,1.53-1.93,2.3-2.86ZM45.12,124.04c1.1-1.43,2.89-3.76,4.19-4.93.22-.19.12-.36.65-.24l-5.16,7.24c-.2.17-.94,1.12-1.19.89-.33-.3.33-.42.39-.54.18-.43.32-1.76.45-1.99.07-.11.5-.2.67-.42ZM45.79,128.19c.29.34-2.87,4.29-3.57,4.56.22-.56.48-1.89.78-2.29.56-.76,2.13-1.45,2.79-2.27ZM39.76,146.66c1.55-1.86,3.65-3.31,5.2-5.38l2.62-1.98c.06.06-.72,1.15-.86,1.32-1.51,1.74-3.29,3.42-4.96,5.16-.86.89-2.13,1.71-2.61,2.85-.74-.29.33-1.63.61-1.97ZM40.81,155.16l-1.37.02,1.7-2.36c2.33-2.05,4.42-4.47,6.76-6.43l3.14-3.31c.1.25-.44,1.14-.57,1.31-.96,1.26-2.84,2.81-3.99,4.04-.85.91-1.58,1.71-2.29,2.47-1.22,1.3-2.85,2.54-3.38,4.26ZM44.8,154.78l-1.59.2c.66-.79.93-1.64,1.89-2.18l.09.39-.99.9.59.69ZM47.95,155.15l-1.76.03c-.24-.37.93-.86,1.18-1.11,1.15-1.19,2.38-2.54,3.53-3.71.39-.4,3.19-3.91,3.63-3.51-1.25,2.05-3.15,3.6-4.35,5.67-1.01.43-1.69,1.67-2.22,2.64ZM55.95,151.14c-.94,1.14-1.87,2.62-2.71,3.85-.59.47-1.22.17-1.9.18l6.74-6.55c.15.16-.89,1.31-1.07,1.51-.3.33-.79.66-1.07,1ZM59.94,152.66c-.24.27-.26.73-.45.99-.42.55-1.55.66-1,1.73h-1.88s-.1-.39-.1-.39c2.61-1.84,4.69-4.3,7.14-6.35l-2.07,2.59c-.47.42-1.24.99-1.63,1.44ZM66.63,151.56c-.91,1.13-2.17,2.09-2.41,3.6l-1.76.02c.8-1.23,2.01-2.02,3.08-2.98.42-.38,1.07-1.77,1.49-.79-.16-.03-.29.02-.39.15ZM69.39,154.03c-.27.39-1.1.66-.78,1.15h-1.19s1.26-1.52,1.26-1.52l2.31-1.85-1.6,2.22ZM77.68,150.56c-1.53,1.09-2.34,2.55-3.61,3.84-.66.67-1.28,1.11-2.29.98.07-.92,1.07-1.21,1.52-1.65,2.31-2.26,4.64-4.65,6.9-6.69.65-.59,1.72-1.62,2.36-2.1.22-.17.42-.32.73-.27l-5.29,5.22-.32.67ZM83.2,151.81c-.56.65-2.28,2.09-2.61,2.65-.18.3-.21.6-.07.92l-1-.09c-.33-.18.1-.59.24-.76.34-.41.87-.7,1.15-1.23l2.98-2.47s-.57.85-.69.99ZM86.53,154.66c-.08.08-.02.38-.1.47-.31.32-1.85.25-2.34.25l1.72-1.46c2.19-2.56,4.64-4.83,7.02-7.18,1.73-1.71,3.4-3.5,5.25-5.06.27.19-.24.78-.37.92-2.88,3.07-5.7,6.01-8.55,9.21-.86.96-1.7,1.95-2.63,2.84ZM91.54,155.19l-1.5.19c-.25-.21,1.59-1.58,1.78-1.78-.2.65-.53.84-.29,1.59ZM94.39,155.36l-1.37.02c.21-.4.6-.66.89-1,1.81-2.19,4.12-4.4,6.25-6.44.41-.39.61-1.06,1.3-1.29.29.57-.73,1.12-1.02,1.46-1.55,1.82-3.19,3.64-4.7,5.42-.5.59-1.41.89-1.34,1.83ZM98.97,154.33c-.56.71-.41,1.83-1.98.75,1.17-.7,1.93-1.94,2.85-2.82.73-.69,1.84-1.47,2.75-2.24.71-.61,1.35-1.35,2.04-1.98.32.2-.07.44-.2.6-.43.52-1.01.99-1.42,1.45-1.22,1.34-2.96,2.87-4.04,4.25ZM100.96,155.38c.53-1.04,1.55-1.21,2.06-2.3l1.51-1.27c-1.12,1.19-1.6,3.81-3.57,3.57ZM105.89,155.35l-1.36.22.6-.4-.2-.39,1.19-.6-.23,1.16ZM105.92,152.4c.36-.3.5-.91.71-1.17,1.24-1.49,2.64-2.81,3.93-4.2.28-.3.36-.92.81-1.18.37,1.12-1.05,2.29-1.77,3.09-.67.75-1.44,1.65-2.09,2.32-.22.23-1.33,1.35-1.6,1.14ZM112.26,149.43l.12.79-2.3,1.78.99-1.43,1.19-1.14ZM109.6,155.59c-.34.15-.45.25-.7-.11,1.62-.83,2.27-2.74,3.97-3.47-.93.77-2.26,3.14-3.26,3.58ZM112.07,155.77c-.15-.13.92-1.64,1.19-1.39l.4,1.39h-1.59ZM150.16,155.97c-.68-.26-1.37-.03-2.05-.01-.71.01-1.49.02-2.21.03-1.02,0-1.85-.3-2.88-.01l7.14-6.74v6.75ZM150.16,147.54c-.2.24-.85.49-1.11.77-2.06,2.15-4.21,4.57-6.27,6.63-.05.05-1.09.71-1.15.74-1.18.49-4.36-.06-5.75.1l14.58-14.48c.44.44-.02.9-.03,1.25-.04,1.01.2,4.42-.27,5ZM150.46,140.1c-2.7,1.96-4.79,4.54-7.13,6.87-2.52,2.52-5.09,5.04-7.66,7.52-.34.33-.71.87-1.04,1.24l-6.7.05,22.72-22.02-.2,6.34ZM150.91,128.55s-.34.02-.35.15l-.04,3.82c-.5.34-1.28.89-1.67,1.3-6.56,6.86-13.52,13.52-20.43,20.05-.43.41-1.19,1.44-1.55,1.71-.92.69-4.6-.04-5.86.19,1.73-2.13,3.74-4,5.67-5.95,3.89-3.93,8.58-8.29,12.68-12.51.52-.53,1.27-1.15,1.87-1.62l-.18-.56.57.17c2.13-2.56,4.78-4.63,7.09-6.99.7-.71,1.29-1.75,2.26-2.3-.44.54.01,2.43-.05,2.54ZM151.41,97.53c-.02.85.22,2.15-.12,3.02-.1.25-.84.5-1,.66-8.41,8.5-17.02,16.69-25.39,25.33-2.6,2.68-6.83,6.25-8.98,9.46-.34.51-.37,1.02.39.88.54-.1,1.37-1.41,1.73-1.79,2.4-2.52,4.55-4.95,6.82-7.31,4.55-4.73,9.64-9.61,14.09-13.87.39-.38.32-1.19,1.1-1l-.16-.36c.28-.14.59-.25.83-.46,1.73-1.49,3.07-3.3,4.56-4.66,1.11-1.02,2.23-1.93,3.28-2.97.93-.92,1.78-1.92,2.71-2.85.46.62.09,1.26.09,1.88,0,1.06.22,4.29-.18,4.98-.35.61-1.78,1.59-2.32,2.14-4.52,4.57-9.7,9.85-14.36,14.52-5.49,5.51-11.21,10.86-16.4,16.64-.28.32-.68.83-.86,1.22.31.15,1.04-.33,1.29-.5,1.35-.93,2.44-2.44,3.57-3.58,2.94-2.98,5.87-6.22,8.9-9.25,1.33-1.33,3.25-2.66,4.11-4.23l.36.16c4.52-4.84,9.38-9.5,13.94-14.13.59-.6,1.23-1.17,1.87-1.71.1,1.33-.08,2.71-.11,4.08-.02.8.36,2.29-.1,2.85-2.79,2.68-5.63,5.4-8.34,8.13-2.23,2.24-4.88,4.9-7.44,7.44-5.16,5.12-10.64,10.08-15.35,15.61-.36.42-1.74,1.23-.13,1.35l31.28-31.32c.55.35,0,.95-.02,1.38-.06,1.08.17,4.6-.18,5.36-.17.36-.65.44-.83.66-4.74,5.47-10.63,10.52-15.86,15.7-4.66,4.61-9.04,8.92-13.65,13.63-.29.3-.54.76-.76,1.13l-4.3-.18c-.22-1.71-.49-3.5-.83-5.19-.78-3.85-2.22-7.99-4.01-11.71-2.92-6.07-6.89-11.83-8.62-18.54l-.82-5.38,3.07-2.09c1.78-1.89,3.61-3.71,5.12-5.84,2.03.7,4.15,1.37,6.25,1.86.33.08.73-.11.77-.09.06.04.07.44.34.54.39.14.93-.06,1.33.03.07.02.51.84,1.3.36.8-2.15-.4-1.81-1.72-2.29-.7-.26-1.43-.65-2.13-.87-1.37-.43-3.39-.63-4.61-1.13-.2-.08-.34.01-.22-.31.37-.99,1.15-2.04,1.6-2.97.28-.58.83-2.71,1.36-3.02l9.87-.53.21-1.52c-.42-.13-.83-.35-1.28-.4-1.59-.2-5.03-.03-6.74.08-.24.02-1.59.41-1.68.3l.47-3.55c.39-5.37,0-10.52-1.41-15.46-1.05-3.65-2.64-6.11-2.2-10.01,1.16-10.32,2.06-19.25.63-29.72-.19-1.39-.17-3.57-.49-4.85-.05-.21-.5-1.27-.59-1.39-.19-.25-1.74-1.3-1.68-.5-1.55-.65-3.85,1.59-4.98,2.64-5.36,4.96-11.28,12.25-15.63,18.2-.38.52-1.75,3.1-2.09,3.27-.56-.17-1.13-.4-1.72-.48-6.93-1.04-17.7-1.01-24.48.66-.72.18-1.47.63-2.27.71-.54-.99-1.01-2.01-1.52-3.02-.08-.16-.33-.17-.34-.2-.08-.19.19-.46.15-.53-.02-.03-.45-.09-.67-.42-3.85-5.78-7.68-11.81-13.11-16.47-.64-.55-1.29-.85-1.53-1.54-.94-.12-1.91-1.33-2.83-1.35-.13,0-1.37.51-1.43.57-.26.26-.14.74-.27.99-.11.2-.36.19-.44.4-.37.98-2.11,9.64-2.05,10.37.03.34.7.39-.03.59-.02,1.27-.34,2.5-.44,3.77-.58,7.29-.23,14.67.49,21.96-2.98,7.81-5.82,17.03-3.79,25.44.07.28.42.37.33.73-2.22-.02-4.76-.29-6.95-.1-1.34.12-2.72.05-1.79,1.8l1.33.27,8.19.22.95,3.7c.25.55,1.88,2.6,1.44,3.04-2.99.27-5.63,1.95-8.5,2.81-.16.84-.1,1.91,1.01,1.72l8.95-2.96c1.8,2.52,4.18,4.62,6.69,6.45.47.34,3.02,1.66,2.93,2.15-.13.21-.29.4-.35.66-1.63,7.02-4.04,13.86-5.72,20.87-1.3,5.43-2.12,11-2.73,16.53l-8.04.19,1.39-1.68c.8-.66,1.34-1.38,2.02-2.17.51-.59,1.26-.97,1.35-1.91-1.19.12-.97.32-1.57.9-.98.94-1.89,1.93-2.69,2.66-.76.7-1.21,1.58-2.1,2.09l-4.35-.1c-.06-.07,1.14-1.06,1.26-1.2,2.21-2.37,5.21-5.28,7.4-7.8.24-.27,2-2.33.76-2.12-2.81,3-5.83,5.82-8.71,8.76-.73.74-1.43,2.24-2.6,2.37-.99.11-2.41-.32-3.47-.01.45-1.18,1.52-1.68,2.31-2.63,4.17-5,9.24-10.13,14.08-15.09l.86-1.52c-.46-.07-.74.15-1.09.4-.92.65-2.97,2.93-3.88,3.86-4.07,4.19-7.96,8.56-11.84,12.95-.12.13.01.38-.45.25v-4.86c.08-.35,3.05-3.61,3.56-4.17,2.7-2.94,5.56-5.78,8.27-8.7,1.01-1.09,8.21-8.54,8.2-9.16,0-.32-.23-.25-.49-.1-.27.16-.76.56-1.01.78-2.02,1.83-3.87,4.16-5.76,6.14-3.46,3.61-6.78,7.1-10.3,10.93-.82.89-1.48,1.96-2.38,2.78l.14-5.12c.79-.21,1.06-1.13,1.49-1.62,5.59-6.31,11.41-12.54,17.21-18.68.54-.57,2.87-2.51,2.89-3.07l-.79-.49-20.74,22.62-.12-5.67c1.06-.73,1.81-2.04,2.67-2.99,4.43-4.95,9.33-9.6,13.75-14.43.62-.67,1.17-1.44,1.65-2.21l-.59-.2c-1.16,1.22-2.51,2.27-3.67,3.47-3.1,3.2-6.15,6.8-9.1,10.05-1.57,1.72-3.29,3.26-4.59,5.24l.22-6.32,4.75-5.18c1.9-2.01,3.73-4.08,5.54-6.17.19-.21.5-.29.64-.44.34-.39.41-.98-.29-.79-.75.21-1.48,1.36-2.03,1.95-2.16,2.27-4.89,5.47-7.33,7.94-.37.38-1.08,1.34-1.6,1.18.72-1.45-.16-4.48.39-5.77.29-.69.97-.76,1.28-1.09,1.01-1.07,2-2.4,2.98-3.48.31-.34,1.91-1.78,1.9-1.97-.04-.91-1.8.68-1.98.85-.59.56-1.5,1.5-1.93,2.23l-2.24,1.98c-.15-1.91.26-3.7-.01-5.61,1.29-.61,1.86-1.93,2.78-2.83,1.5-1.49,3.56-2.71,4.38-4.65l.36.17.62-1.06c-.33-.62-1.11.19-1.48.5-2.1,1.8-4.02,4.36-6.05,6.05-.2.17-.27.37-.6.29.35-1.08-.27-5.14.52-5.74.79-.6.9-.82,1.54-1.53.36-.39,1.68-1.21,1.12-1.66-.5-.4-2.93,2.23-3.18,1.98.1-.25.26-.4.3-.69.24-1.76-.16-4.04-.01-5.85.18-.92.71-.69,1.11-1.08,1.68-1.62,3.67-3.76,5.11-5.6.24-.31,1.46-1.71.44-1.65l-6.06,6.35-.48-.31c.55-1.32-.14-3.49.23-4.71.03-.11.68-.9.82-1.06,1.17-1.25,3.06-2.5,3.71-4.04l.36.16c.86-1.32,2.07-2.39,3.22-3.46l-.5-.67-7.35,7.34c-.14-.02-.19-.37-.19-.5,0-.83.03-4.34.35-4.8.17-.24,1.72-1.32,2.13-1.74,2.39-2.41,5.65-5.56,7.65-8.03.38-.46.67-1.52-.12-1.11-.11.06-1.64,1.45-1.89,1.68-1.5,1.43-2.63,3.03-4.25,4.33l-3.78,4.01.23-5.53c.31-.05.52-.11.77-.31,2.05-1.64,5.39-5.73,7.23-7.86.19-.22.52-.29.64-.44.15-.19,1.2-1.83,1.05-1.92-.57.06-1.29.67-1.72,1.06-1.45,1.34-2.62,3.12-3.92,4.5-1.2,1.29-2.78,2.42-3.79,3.96-.45.08-.28-.18-.27-.48.08-1.66-.21-3.37.07-5.07,1.09-1.23,2.44-2.22,3.58-3.39.49-.5.92-1.26,1.36-1.71,1.18-1.22,3.51-2.99,4.42-4.3.2-.29.5-.85.48-1.19l-.71-.15-9.22,9.35.24-5.91c.4-.25.95-.59,1.28-.9.92-.9,1.77-2.16,2.64-3.02.77-.76,5.01-4.38,5.14-4.99.09-.42-.46-.58.23-.75.12-.38-.5-.52-.7-.32l-8.53,8.95c-.44-.84-.04-2.08-.01-3.07.03-.85-.24-1.85-.05-2.74.84-.83,1.59-1.81,2.4-2.66,2.24-2.33,4.81-4.56,6.95-7.14.51-.62,1-.51.72-1.85l-.4.09-9.42,9.83c-.53.04-.18-.1-.15-.35.13-1.12.17-2.71.2-3.89,0-.28-.48-.8-.08-1.47,1.74-1.54,3.44-3.19,5.03-4.88.78-.82,1.94-2.12,2.91-3.12,1.17-1.21,2.29-2.49,3.5-3.66-.06-1.32-2.15.77-2.49,1.08-2.02,1.85-3.77,4.03-5.65,6-1.01,1.06-2.19,1.95-3.07,3.14l-.18-1.29.12-3.55c1.24-1.14,2.3-2.46,3.43-3.7,5.86-6.4,12.33-12.57,18.35-18.75.63-.64,2.27-1.82,2.4-2.77.06-.44-.18-.29-.5-.3-1.41,1.4-2.98,2.66-4.41,4.04-3.07,2.98-6.04,6.26-9.06,9.38-.59.61-3.17,2.78-3.45,3.29-.08.15.47.31-.6.61l-5.76,6.29-.65.19c.43-2.13.24-4.38.2-6.53.84.11.63-.52.85-.76.08-.09.36-.03.46-.12,5.58-5.28,10.58-11.05,16.16-16.29.31-.3.68-.28,1.07-.32,3.77-.35,7.99.47,11.81.21l-5.75,6.21c-.77.1-.56.51-.79.78-.68.78-2.16,1.85-1.5,2.93.72-.01,1.41-1.56,1.75-1.93.15-.16.46-.24.64-.44,2.29-2.48,4.7-4.84,6.83-7.46l5.34-.03.62.23c-.73.41-1.26,1.24-1.86,1.82-1.77,1.71-3.62,3.62-5.38,5.62-1.23,1.38-2.75,2.51-3.47,4.27.16.17.23.31.49.3.15,0,1.98-1.79,2.27-2.09,1.97-2.03,3.81-4.2,5.74-6.18,1.3-1.33,2.54-2.73,3.99-3.92l5.95.08c-3.24,3.11-6.34,6.36-9.41,9.64-1.14,1.22-2.27,2.39-3.39,3.66-.38.43-1.8,1.22-.99,1.97.5.1,1.37-1.2,1.78-1.59,4.62-4.4,8.9-9.32,13.7-13.7.59-.27,5.14-.35,5.95-.19.28.06.52.02.7.3-.78.24-1.42,1.23-2.05,1.81-5.2,4.82-10.67,9.83-15.61,15.05-.43.46-2.08,2.15-2.24,2.54-.12.3.05.45.06.73.41-.04.66-.6.84-.74,2.99-2.38,6.41-5.96,9.41-8.85,3.81-3.67,7.38-7.34,11.37-10.73l5.76.09c-.38.51-.95.85-1.4,1.28-.48.45-.89.97-1.04,1.25-.12.22-.76.43-.91.58-6.35,6.02-12.66,12.16-18.54,18.64-.24.27-2.5,1.94-1.02,2.07.85.07,2.06-1.83,2.6-2.38,7.14-7.21,14.2-14.3,21.6-21.26,1.26-.59,3.76-.22,5.16-.18.38,0,1.49-.38,1.69.09-.8.6-1.67,1.24-2.42,1.9-6.97,6.12-13.58,12.98-19.88,19.75-1.76,1.89-3.7,3.66-5.27,5.73l.49.3c.15,0,2.14-1.58,2.34-1.79.16-.17.11-.43.21-.53,6.79-7.07,13.89-14.41,21.35-21.21,1.5-1.37,3.24-2.52,4.42-4.22l6.7-.24c.17.24-.4.64-.55.78-7.01,6.17-14.02,13.03-20.57,19.66-2.44,2.46-4.87,4.72-6.87,7.56-.12.17-.74.31-.26.57l.59.12c.49-.08.32-.63.35-.67.14-.17.63-.27.86-.51,1.66-1.74,3.37-3.59,4.95-5.16,7.69-7.65,15.42-15.13,23.63-22.32,1.78.15,3.76-.27,5.51-.03.29.04.59-.18.5.29-2.56,2.41-5.27,4.66-7.83,7.05-4.86,4.54-9.81,9.26-14.58,13.99-1.2,1.19-5.58,5.03-6.05,6.25-.12.3-.14.72.2.79.58.12.61-.84.72-.97.02-.03.36.17.71-.08,1.47-1.07,3.75-3.97,5.22-5.41,1.63-1.6,3.31-3.18,4.98-4.74,4.9-4.61,10.27-9.47,15.34-14.32.9-.86,2.12-1.48,2.63-2.67,1.34,0,2.66-.14,3.99-.14.73,0,1.38-.03,2.12-.06.26-.01,1.01-.17.9.31-1.64,1.54-3.2,3.15-4.86,4.67-8.27,7.61-16.54,15.14-24.72,22.9l-.58,1.3c1.37.12,1.42-.95,2.05-1.52,5.48-4.95,11.01-10,16.51-15.13,3.85-3.58,7.91-7.25,11.87-11.06.49-.48,1.24-.75,1.65-1.43l6.52-.23.1.39c-.23.03-.43.13-.6.29-.98.94-2.02,1.94-2.89,2.76-1.65,1.55-5.88,5.04-6.87,6.74-.2.34-.51.66-.06.93.29.05,1.88-1.38,2.2-1.67.82-.74,1.58-1.78,2.36-2.49,2.41-2.22,5.03-4.22,7.24-6.65l6.75-.3c.32.28-1.16,1.1-1.33,1.26-1.75,1.7-3.81,3.65-5.52,5.28-1.24,1.18-5.62,5.04-6.22,6.29-.14.28-.3.52-.23.86,1.52-.76,2.5-2.06,3.72-3.18.91-.83,1.81-1.75,2.72-2.59,2.79-2.57,5.67-4.88,8.24-7.62l6.55-.1c-.11.64-.73.7-.98.93-2.12,1.99-4.25,4.17-6.28,6.09-4.26,4.02-8.76,7.93-12.69,12.22-.14.15-2.02,1.44-.55,1.36.52-.03.46-.47.73-.69,5.49-4.61,10.57-9.78,15.9-14.74,1.86-1.73,3.8-3.32,5.6-5.13,1.07-.22,2.28.1,3.3.08,1.25-.02,2.79-.41,3.96.02l6.25-.3.41.25-.26,8.84-8.15,7.13c-.32.77-1.03.85-1.49,1.29-.31.3-2.5,2.75-2.37,2.88.86.4.69-.26,1.06-.53,2.64-1.97,5.59-4.42,8.07-6.7.88-.81,1.73-2.35,2.97-2.49v5.06c0,.51-3.43,3.27-3.84,4-.77.42-2.4,1.8-2.52,2.74-.06.46.76.19.88.1.34-.26.59-1.21,1.41-1.39l4.07-3.57v10.51c-.52-.17-1.38-.25-1.84-.41-8.51-2.9-15.56-3.04-23.63,2.04-3.24,2.04-5.83,4.62-7.91,7.97-8.6,13.86-1.8,32.09,13.42,37.65,2.68.98,6.38,1.69,9.34,1.66,3.55-.03,6.95-1.19,10.22-2.47v2.86s-.41.22-.41.22c.36.81.08,1.7.06,2.56ZM160.88,80.47c-.11.25-1,1.24-1.27,1.61-2.21,2.98-4.83,5.94-8.25,7.22.79-.91,1.6-1.85,2.45-2.71,1.54-1.55,3.28-2.99,4.93-4.45.7-.62,1.23-1.44,2.05-1.97.15-.03.14.21.1.29ZM160.41,79.3c-3.72,3.28-6.93,6.57-10.77,10.07-.33.3-.95,1.2-1.26,1.42-.58.42-2.22.63-2.98.7-.01-.35.52-.22.75-.44.19-.18.2-.69.54-.96.95-.77,1.78-2,2.84-2.96,1.03-.93,2.4-1.67,3.46-2.58,2.36-2.05,4-4.64,5.81-7.16l3.28-.38c.4.58-1.23,1.93-1.66,2.31ZM163.02,74.37c-.88.27-1.83.39-2.73.24l1.54-1.59,1.83-1.19-.64,2.53ZM163.6,70.19l-3.51,3.04c.32-.88.37-2.49.78-3.23.45-.8,2.45-1.63,2.79-2.72l.21,1.68-.27,1.24Z"/>
      <path d="M95.35,82.91c-.14-.81-.78-2.33-1.39-2.88-.05-.04-.25.12-.3.09-.06-.04-.07-.21-.13-.24-1.58-.86-3-.87-4.14.74-1.6,2.28-1.6,7.64.24,9.79,2.44,2.85,5.27-.38,5.72-3.03.14-.85.15-3.61,0-4.46Z"/>
      <path d="M56.24,83.93c-.09-2.54-1.32-6.12-4.53-4.9-2.02.76-2.41,2.47-2.75,4.43-.37,2.08-.05,6.9,2.06,7.96,1.11.56,2.12.25,3.1-.44,1.84-1.3,2.2-4.95,2.13-7.04Z"/>
    </g>
  </g>
</svg>