<?xml version="1.0" encoding="UTF-8"?>
<svg id="Layer_2" data-name="Layer 2" xmlns="http://www.w3.org/2000/svg" viewBox="0 0 167.43 171.73">
  <g id="Layer_1-2" data-name="Layer 1">
    <g>
      <path d="M29.46,139.75c.11.68-.37,1.14-.75,1.61-2.76,3.35-6.82,6.26-9.58,9.7l-1.17.38c-.08-.38.08-.5.27-.76,1.81-2.47,6.23-6.21,8.59-8.56.26-.26,2.33-2.71,2.63-2.36Z"/>
      <g>
        <path d="M22.16.69c1.09-.82,2.14-.37,3.25-.41,2.05-.08,4.59-.37,6.6-.21.37.03.73.09,1.08.19.39.22.43,1.74.61,2.26,1.69,4.92,9.26,4.67,10.35-.35.15-.72-.29-1.45.82-1.86.44-.16,2.86-.2,3.49-.19.53,0,1.25.15,1.76.32l.16-.35c1.75.67,3.67-.41,5.34.41.41,1.13.26,2.25.99,3.25,2.61,3.58,8.51,2.73,9.69-1.58.33-1.21-.43-1.81,1.55-2.07s4.78.15,6.75.18c.76.01,3.09-.48,3.51.11.26.37.14,1.83.6,2.75,1.88,3.73,8.39,3.96,10.08.38.38-.8.42-2.13.71-2.68.51-.97,3.23-.53,4.16-.56,1.31-.05,6.13-.45,6.87-.1s.46,1.45.62,2.02c1.17,4.21,7.6,5.63,9.59,1.22.36-.8.68-2.98,1.57-3.14.43-.08,1.56-.14,2.07-.16,1.74-.07,3.58.17,5.29.16,1.06,0,2.86-.48,3.91-.16.7.21.78,2.33,1.19,3.15,1.28,2.54,3.95,3.38,6.59,2.48,1.1-.38,2.69-1.89,3.02-3.01.16-.56,0-1.08.23-1.66.52-1.34,2.3-.65,3.35-.71,1.18-.06,2.47-.3,3.76-.3.7,0,3.33-.04,3.69.52.27.42.12,1.22.26,1.76,1.23,4.72,8.3,4.98,10.17.73.37-.84.18-2.63,1.23-2.92.6-.17,3.06.1,3.88.08,2.23-.03,6.35-1.24,6.43,2.03.06,2.78-.01,5.81-.04,8.64,0,.85.06,3.55-.37,4.05-.63.73-2.16.46-2.5.62-.04.02-.05.25-.17.32-3.78,2.29-4.08,8.33.16,10.44,1.03.51,2.47.35,2.88,1.66l-.09,12.86c-.23,1.27-2.18,1.08-3.25,1.64-3.04,1.57-3.61,7.07-.88,9.13.24.18,1.42.84,1.7.94.95.35,1.8-.13,2.42,1.17l.04,12.6c-.26,2.18-1.85,1.53-3.19,2.28-3.65,2.06-3.71,7.95,0,9.95,1.89,1.01,3.24-.16,3.3,2.82s.07,6.89-.13,9.84c-.18,2.68-.84,1.89-2.77,2.49-2.35.74-3.54,3.58-3.1,5.87l-.35.11c.65.4.5,1.45.94,2.27.49.92,1.68,1.9,2.65,2.25.9.32,1.94.16,2.54,1.04l.06,12.87c-.12.17-.5,1.04-.55,1.07-.11.07-.39-.19-.51-.14-.02,0,0,.27-.3.37-.41.14-1.03.01-1.62.25-3.92,1.57-3.93,8.57.12,10.25,1.24.52,2.64.27,2.88,2.02-.47,3.24.72,8.8-.1,11.72-.47,1.67-1.94,1.06-3.22,1.7-2.23,1.1-2.92,4.86-2.46,7.07.17.8,1.64,2.49,2.34,2.93,1.13.71,2.69.48,3.43,1.68-.03,2.36-.22,4.75-.24,7.12-.02,1.64.7,5.95-.57,7.08-.31.28-.91.34-1.32.37-.61.06-2.15.21-2.27-.39-.17-.03-.04.27-.13.33-.22.14-4.96.11-5.31-.01-1.03-.37-.82-1.63-1.22-2.52-.61-1.36-1.78-2.21-3.09-2.72-.14-.05-.15-.28-.24-.31-2.23-.65-5.69.72-6.55,3.02-.28.75-.05,2.23-.89,2.5l-10.45.1c-.55-1.79-.53-2.68-1.89-4.08-2.52-2.61-7.3-1.96-8.59,1.52-.52,1.4.04,2.42-1.59,2.55-2.66.22-5.47-.12-8.11-.16-.84-.01-1.71.45-2.62-.06s-.56-1.32-.77-2.06c-1.16-4.03-6.89-4.57-9.14-1.17-.83,1.25-.44,2.48-1.52,3.34l-10.94.02c-.89-.29-.77-2-1.23-2.91-1.9-3.72-7.82-3.56-9.53.23-.64,1.41.15,2.53-1.95,2.77-3.21.37-7.05-.26-10.33-.04-.87-.37-.57-1.25-.83-2-1.68-4.87-8.71-4.86-10,.1-.19.74.24,1.64-.9,1.93l-10.7-.03c-.68-.2-.62-1.42-.84-1.98-1.47-3.7-6.08-5.01-8.99-2.13-1.27,1.26-.81,2.66-1.43,3.65-.59.94-4.45.4-5.54.41-1.65,0-3.5.38-5.19-.01-1.29-.3-.79-1.31-1.09-2.11-1.31-3.61-6.14-4.89-8.71-1.85-1.15,1.36-.76,2.2-1.35,3.36-.54,1.05-1.23.49-1.92.53-1.64.08-2.92.03-4.52.02-1.07,0-2.44.28-3.42.16-2.01-.24-1-2.61-1.01-3.87,0-.54-.21-1-.21-1.5-.03-3.06.03-6.14.05-9.21.34-1.26,1.35-.91,2.21-1.18,4.33-1.4,4.84-8.59.52-10.3-.7-.28-2.32-.29-2.55-1.04.18-3.16-.27-6.46-.24-9.58,0-.78.08-2.69.2-3.39.17-.93,1.75-1.09,2.51-1.44,1.4-.66,2.18-1.29,2.63-2.83.15-.52.04-.95.13-1.35.03-.15.36-.12.35-.21-.07-1.86-.74-4.09-2.48-5.05-1.01-.55-3.12-.31-3.3-1.6-.04-.32.16-.61.16-.92-.02-3.46-.24-7.14-.12-10.51.1-2.72,1.84-1.8,3.57-2.98,3.04-2.06,2.62-7.71-.69-9.24-.99-.46-2.12,0-2.63-1.32s-.11-6.84-.12-8.74c0-1-.55-4.41.29-4.97.39-.26,1.18-.22,1.67-.4,2.18-.79,3.53-2.43,3.58-4.8.04-1.86-.47-3.93-2.24-4.81-1.06-.53-3.09-.53-3.37-1.72l.06-12.88c.17-1.44.62-.77,1.23-.88.11-.02,1.73-.75,1.92-.86,2.29-1.29,2.79-3.39,2.42-5.89-.32-2.17-.93-2.72-2.8-3.57-.12-.05-.09-.31-.27-.37-.82-.24-1.96.14-2.48-.88-.45-2.25.09-4.8.07-7.14s-.49-4.67-.29-6.97,1.05-1.78,2.71-2.57c2.71-1.28,3.22-2.99,2.95-5.91-.15-1.59-1.19-3.32-2.69-3.9-1.17-.46-2.55.02-2.88-1.46L.25,1.88C.45.87,1.06.42,2.05.28c1.98-.27,5.03.03,7.15,0,.82-.02,1.92-.6,2.27.74.07.28-.11.6-.03.95.74,3.45,4.44,5.02,7.61,3.63,2.17-.95,2.65-2.76,3.11-4.91ZM165.3,2.67c.08-.14.16-.48-.03-.52-.19,0,.07.35-.36.4-1.95.22-4.26-.23-6.24-.04-.64.26-1.03,2.24-1.78,3.08-3.1,3.5-9.09,4.06-12.03.02-.71-.97-1.1-2.15-1.63-3.22l-6.7.14c-.15,2.97-2.57,4.87-5.28,5.55-3.63.92-6.76-.53-8.51-3.73-.44-.8-.35-1.89-1.41-1.95l-7.86.16c-.75.59-.34,1.5-.82,2.37-2.2,3.99-8.15,4.38-11.46,1.56-.32-.27-1.77-1.98-1.88-2.27-.14-.39-.07-1.62-.42-1.7l-7.3.03-.22.16c-1.29,6.35-10.28,7.5-13.93,2.44-.63-.87-.81-1.98-1.54-2.78-2.15.45-4.62-.14-6.78.15-.29.04-.45.03-.66.28-.41.47-.98,2.19-1.58,2.94-2.08,2.57-5.78,3.15-8.73,1.93-2.48-1.02-3.69-2.54-4.4-5.12-.96-.29-1.82-.01-2.7-.01-1.67,0-3.33-.12-4.99,0-.46,3.87-4.1,6.07-7.84,5.85-.38-.02-1.89-.28-2.24-.4-2.39-.75-3.79-3.38-4.94-5.43h-7c-.26,1.57-.87,2.69-2.02,3.74-1.66,1.52-2.71,1.96-4.91,1.92-.1,0-.06.32-.21.35-.39.09-2.67-.44-3.13-.61-2.49-.93-3.66-3.14-4.61-5.44-1.42-.06-2.87.03-4.31.02-.78,0-1.52-.37-2.3.04l-.02,11.52c.09.26,2.15.92,2.68,1.28,1.59,1.08,2.62,3.05,2.77,4.96.31,3.92-.5,6.31-3.96,8.31-.51.3-1.48.27-1.67.97-.05.19.11,3.71.18,3.89.09.26,1.07.65,1.38.69,2.55.35,5.62-.68,8.13-1.13-.13-1.22.04-2.44.06-3.66.01-.93.02-1.89.03-2.86.01-.78-.51-2.05.37-2.44.03-.17-.27-.04-.33-.13-.19-.31-.02-6.24-.04-7.23-.02-1.09-.82-3.38.85-3.66,2.91-.48,6.77.3,9.79-.16,40.46-.05,81.07.22,121.58.16,2.94,0,6.59-.45,9.42-.21,1.11.09,1.39.48,1.43,1.62.01.51-.05,1.23-.05,1.82-.32,42.88.07,85.8-.15,128.61l.21,2.8-.39.21.37.21c.06,1.57-.2,3.13-.19,4.7,0,1.3.45,4.21.07,5.32-.03.1-.53.6-.71.62-41.18-.11-82.33.07-123.47,0-5.39,0-12.16.46-17.35,0-1.19-.11-1.51-.55-1.53-1.72-.13-8.29.15-16.71.13-24.95-.03-15.81,0-31.71,0-47.51,0-2.44-.25-4.91-.22-7.36l.4-.36-.39-.2c.36-.76.03-1.66.04-2.43,0-2.75.24-5.53,0-8.28l.54-.4-.57-.1c.15-.28.18-.52.2-.83.13-2.55-.21-5.22-.19-7.74,0-.28.49-4.2-.1-4.05-1.06.74-3.42.21-4.43.66-.38.17-1.14,1.4-1.65,1.78-.45.34-1.27.71-1.8.98-.86.44-1.49.09-1.64,1.38v9.59c2.05.99,4.85,2.34,5.39,4.83.82,3.8.15,7.62-3.49,9.54-.41.22-1.32.39-1.52.56-.47.39-.05,2.68-.07,3.36-.02.89-.2,1.95-.2,2.86,0,.84-.08,3.91.33,4.38.21.25,2,1.06,2.62,1.57s1.12,1.18,1.66,1.78l-.37.47c.67-.28,1.19,1.69,1.27,2.21.67,4.27-1.42,7.6-5.43,9.04v9.94c4.6,1.7,6.39,5.72,5.2,10.49-.31,1.23-1.18,2.86-2.55,3.01l.15.34c-.88.54-1.67,1.19-2.79,1.17v9.89c0,.17.05.27.18.38.46.38,1.86.71,2.62,1.34.49.4.88.67.77,1.4l.28-.38c2.64,2.82,2.1,9.09-1.08,11.36-.46.33-2.88,1.38-2.94,1.58v10.79c.31.5,6.06.13,6.96.12,1.18-6.36,9.97-7.68,13.33-2.23.3.49.84,2.2,1.1,2.29h7.3c.75-1.37,1.04-2.84,2.33-3.93,3.49-2.94,8.66-2.09,11.24,1.53.56.78.77,1.77,1.55,2.4l7.06-.08c.75-.31.97-1.7,1.44-2.48,3.24-5.33,10.5-3.56,13.13,1.48.25.48.07,1.21.79,1.24l7.97-.34c.69-3.9,5.12-5.95,8.8-5.34,1.86.3,4.14,1.67,4.99,3.38.32.65.41,1.96,1.02,2.2.36.15.75-.21.67.35h.18c-.08-.63.38-.26.78-.3.53-.05,1.1-.02,1.6-.25.17.73.21.1.57.03.23-.04.6.15.91.15.64,0,2.6.1,3.03-.09.56-.24.7-1.38.99-1.93,2.42-4.46,9-5,12.17-.99.61.78,1.15,1.84,1.46,2.78l8.12.19c.6-.54.75-1.59,1.23-2.36,3.3-5.29,12.27-3.72,13.63,2.37l6.86.02c.53-.1,1.2-2.28,1.63-2.9,1.48-2.13,5.39-3.25,7.85-2.63,2.65.66,4.77,3.31,5.78,5.71l.18-.35,5.75.17c-.08-2.18.06-4.36.12-6.53.02-.85-.18-3.19.08-3.89.06-.15.22-.14.35-.15l.02-.36s-.25.12-.37.06c-1.94-.88-3.12-1.14-4.42-2.9-2.72-3.69-2.09-9.77,1.94-12.17.64-.38,2.36-.62,2.48-1.29l-.04-9.2c-.17-.55-.9-.49-1.35-.72-2.54-1.29-4.36-3.33-4.65-6.28-.39-3.9,1.63-8.09,5.72-8.77l.2-.24-.06-9.81c-2.45-1.09-5.49-3.41-5.83-6.27-.32-2.67.23-5.34,1.96-7.43,1.11-1.34,2.4-1.62,3.86-2.4.32-2.2-.14-4.48,0-6.72.04-.72.34-1.46.18-2.25l.38-.31c-.89-.73-2.09-.72-3.08-1.35-1.87-1.2-3.23-3.93-3.34-6.1-.2-3.97,1.75-7.58,5.86-8.32l.37-10.7c-.66-.57-1.55-.5-2.33-.9-5.02-2.53-5.1-10.61-.5-13.63.62-.41,2.4-.71,2.59-1.36-.14-1.4.41-9.81-.19-10.38-2.08-.58-3.76-1.87-4.82-3.76-1.98-3.51-.9-8.53,2.35-10.96.87-.65,1.92-1.06,2.87-1.56-.21-1.19-.26-2.62-.26-3.84,0-1.74-.09-4.21.06-5.85.03-.35.31-.27.34-.32ZM14.38,27.32c-.22,1.48.16,3.45,0,5,5.49-1.49,10.23-4.75,15.51-6.82,4.79-1.88,9.73-3.15,14.92-2.41.99.14,3.01.25,2.92,1.58-.13,1.99-2.69.82-3.73.73-8.95-.78-15.18,3.4-22.81,6.86-2.23,1.02-4.55,1.88-6.83,2.79v5.47c0,.07-.33.22.1.47,3.74-1.15,7.24-3,10.74-4.71l.28.37c-.17-.87.92-.77,1.49-1.05,3.8-1.91,7.26-3.19,11.43-4.04.23.77,1.18.03,1.68,0,1.27-.1,6.2.26,7.15.97.55.41.44,1.44.13,1.93-.55.88-2.79-.26-3.55-.39-9.56-1.67-19.15,6.3-27.91,8.94-.58.17-.77.61-1.55.34-.29.17.01.53.01.93,0,1.72.03,3.46-.13,5.18l.21.38c1.05-.35,2.12-.61,3.16-.98,4.26-1.51,8.17-3.9,12.26-5.83.69-.32,1.44-.54,2.11-.91l.27.37c.39-.94,2.21-1.17,3.21-1.41,2.73-.66,5.58-.88,8.37-.45,1.47.23,4.95.68,3.46,2.75-1.27.85-2.4-.32-3.44-.5-9.24-1.63-19.58,6.57-28.41,9.29-.58.18-.96-.24-1.09.78s.2,6.6,0,6.89l-.37-.19v.37c.87.56.27.42.84-.19.53-.57,1.37-1.34,2.01-1.76.13-.09,1.12-.86,1.11-.21,0,.25-1.99,2.19-2.35,2.55-.77.77-1.23.47-1.23,1.79v3.86l1.5-1.8c3.58-2.99,6.53-7.29,10.09-10.27.45-.38,1.33-1.35,1.79-.65-.27.3-.48.64-.75.95-1.65,1.96-3.8,3.6-5.59,5.43-2.26,2.32-4.26,4.92-6.8,6.96-.31.39-.34,2.93-.33,3.62,0,.22-.05,1.15.36,1.03,2.34-2.77,5.02-5.22,7.57-7.79.73-.73,3.02-3.57,3.77-3.87.13-.05.44-.12.44.09l.16.42c-.14.06-.32.12-.42.24-1.91,2.32-4.15,4.26-6.25,6.39-1.41,1.43-3.15,3.77-4.62,5-.33.28-.68.03-.93.38v4.62c.34-.34.65-.65,1.04-.95,2.9-2.15,5.6-6.22,8.57-8.76.15-.13,1.85-1.64,1.7-.75-.04.23-1.13,1.44-1.39,1.72-2.38,2.56-5.79,6.37-8.37,8.54-.32.27-1.55.69-1.55,1.24v3.96s-.28.23-.19.47c.04.04.64-.35.76-.46,3.11-2.91,6.33-7.14,9.57-9.7.28-.22.81-.79,1.17-.48l-.47.85-10.73,10.76c-.34,1.48-.24,3.02-.01,4.51l10.56-10.55c.7.44-.35,1.41-.75,1.88-.87,1.03-2.08,2.18-3.04,3.18-1.18,1.24-2.72,2.84-4.12,4.17-.59.56-2.11,1.56-2.45,2.07-.57.87-.17,3.71-.29,4.89,3.27-2.91,6.12-6.28,9.33-9.24.33-.31,1.79-1.69,1.98-1.79.33-.17.36-.04.56.19l-11.44,11.64c-.09.12-.43,1.26-.43,1.36v3.49l11.69-11.4.57-.19-.47,1.04c-3.57,3.23-6.83,7.16-10.36,10.37-1.09.99-1.75.68-1.42,2.7l-.38.22.38.22.09,2.52,13.29-13.29.57.2c-.77,1.5-2.15,2.48-3.3,3.66-2.74,2.79-5.57,5.47-8.39,8.2-.73.71-1.13,1.65-2.25,2.08v4.15c0,.11-.41.51-.1.66.68-.63,1.29-1.35,1.98-1.98,3.5-3.2,6.9-6.68,10.28-10.08,1.16-1.16,2.23-2.43,3.39-3.59,1.06-.11.18,1.04-.1,1.41-1.35,1.77-3.49,3.35-5.06,4.93-2.07,2.07-4.04,4.26-6.14,6.3-1.04,1.01-2.4,1.94-3.1,2.92-.17.24-1.15.81-1.15,1.13v4.24c1.11-1.05,2.41-2.13,3.49-3.2,2.47-2.46,4.81-5.4,7.62-7.37l-.15-.33c2.64-2.05,4.85-4.82,7.32-7.11.68-.63,1.42-1.24,2.18-1.78.13-.04.12.15.09.28-.16,1.04-3.57,3.79-4.46,4.68-3.69,3.71-7.48,7.49-11.1,11.05-1.67,1.65-3.31,3.36-4.99,5v4.43l24.04-23.75c.31-.04.3-.01.29.28-.06,1.01-2.61,2.81-3.33,3.55-5.11,5.23-10.14,10.47-15.24,15.58-1.81,1.82-3.83,3.46-5.58,5.36-.32.55-.27,3.36-.27,4.16,0,.11.05.45.18.47.36-.35.58-.9.92-1.25,6.06-6.36,12.71-12.41,18.98-18.63,1.19-1.19,3.56-4.01,4.79-4.82.18-.12.53-.35.67-.08-1.18,2.18-3.32,3.69-5.03,5.44-.67.68-1.35,1.64-2.02,2.32-6.04,6.12-12.37,11.95-18.41,18.07v3.96c0,.05-.41.49.19.38,3.35-3.7,7.13-7.01,10.68-10.53,4.19-4.17,8.03-8.41,12.42-12.37.43-.39.6-.91,1.13-1.13.62-.16-.04,1.1-.16,1.25-1.23,1.56-3.67,3.5-5.12,4.96-6.37,6.39-12.72,12.76-19.13,19.14v4.24c6.72-6.25,13.09-12.87,19.61-19.32.29-.29.45-.67.74-.95.78-.76,1.85-1.45,2.55-2.35.59-.25.14,1.21-.19,1.32l-22.72,22.71v4.43l20.73-20.83.52.38c.07.68-3.32,3.53-3.92,4.14-5.73,5.87-11.47,11.78-17.33,17.54v4.24l10.36-10.43c2.77-2.17,5.11-5.55,7.92-7.77.16-.12,1.08-.87.95-.18-.2,1.02-4.77,5.01-5.77,6.02-4.47,4.52-8.9,9.22-13.46,13.58v6.31c.81.01,2.43-.62,2.73.19l.2-.39,10.55.03.18.36.18-.35,3.87.16c-.05-.89.26-1.75.51-2.6.66-2.27,1.55-4.52,2.27-6.78.63-2,1.11-4.06,1.94-6,.02-.19-.72-.64-.76-1.32-.03-.42.77-2.88,1.04-3.28.54-.8,1.32-.64,1.72-1.67.2-.49.18-1.04.34-1.54,2.43-7.44,4.88-14.95,7.15-22.44.73-2.42,1.31-4.88,2.15-7.26-1.1-.47-.98-2.57-.44-3.47.61-1,1.59-.87,2.53-1.34l-.38-.31-.27-3.28c-.29-.42-1.09-.03-1.49-.06-2.89-.22-2.49-2.88-2.2-5.02l-4.81.16-.17-.34c-1.94.19-4.34.46-6.22.35-2.05-.12-2.48-1.57-2.56-3.28-.25-5.14.01-10.86.02-16.03,0-1.07.11-2.31.19-3.39l-.21-1.31c.41-2.67-.54-6.88.1-9.34.39-1.51,3.66-1.82,4.88-1.51.19.05.05.36.22.38l.09-.38c1.37.25,2.75.07,4.14-.01-.15-1.95.32-3.93,2.56-4.13,1.34-.12,4.97-.18,6.2,0,1.6.24,2.18,2.79,2,4.14h2.64c.23-2.4.14-4.83.26-7.22.33-6.43.66-14.34,2.21-20.56.91-3.64,2.89-6.52,6.85-3.89s7.75,7.67,11.02,11.03c.51.53,2.53,2.68,3.01,2.84,4.29-.29,8.6-.66,12.88-.21.79.08,2.94.7,3.43.29.26-.21.63-.98.94-1.32,2.46-2.65,11.79-13.02,14.75-13.52,1.97-.34,3.02.08,4.01,1.74,2.3,3.88,1.9,10.48,2.64,14.89l-.04,13.21-.34.27c.75-.08.19.9.28,1.41.2,1.16,1.33,2.89,1.7,4.25.32,1.17.52,3.2.55,4.44.07,2.43-.36,4.48-.65,6.87l7.24.39c1.19.18,1.88.72,1.24,1.97-1.14.79-9.05-.77-9.42-.47-.2,1-.57,1.98-.95,2.92-.28.69-1.2,1.34-.33,1.83,1.57.87,4.33,1.46,6.08,2.22,1.18.51,2.33.96,1.57,2.43l-1.3-.06-8.28-3.11c-.19.57-.58,1.32-.95,1.78-1,1.27-3.63,3.39-5.02,4.22-.25.15-.53.22-.82.22-.07.29.05.3.2.46.46.46,1.36.96,1.91,1.44,6.12,5.35,10.49,14.31,10.14,22.52-.09,2.16-.58,4.48-1.32,6.49,2.27-.02,4.69.38,6.22,2.17,1.73,2.03,4.34,9.3,3.92,11.83-.13.75-.68,1.14-.73,1.92-.07,1.27.57,2.29.75,3.42.37,2.24.72,5.72-.08,7.8-1.4,3.63-4.68,4.01-8.01,4.81,2.38,2.02,5.11,2.51,8.15,2.12,4.12-.53,6.11-6.19,9.29-6.37s3.73,2.89,3.36,5.31c-.5,3.35-2.61,6.16-5.16,8.27,1.67-.28,3.33-.09,5,0,.42.02.78-.39,1.13.19l.18-.35h9.45s.26.35.26.35c.52-.62.18-.99.19-1.78.02-3.2.14-6.4.14-9.57,0-1.49-.39-10.2-.09-10.67.06-.09.36.05.33-.13l-.4-.21.2-.54-.37-.19c-.88.83-6.67,6.91-7.26,6.88l-.28-.46c1.53-1.51,2.93-3.11,4.43-4.62.61-.62,1.29-1.23,1.85-1.82.31-.33,1.17-.78,1.35-1.2.52-1.17-.2-3.3.28-4.52l-2.17,1.88c-2.68,2.61-5.16,5.47-7.88,8.04-.54.51-1.95,2.06-2.57,1.29,1.5-1.73,3.15-3.32,4.77-4.93,1.07-1.06,1.96-1.99,3.05-3.08,1.41-1.41,2.99-2.73,4.44-4.09l.37-4.77h-.57s.07.38.07.38c-4.02,3.75-7.65,7.94-11.56,11.79-.26.25-.61.25-.84.48-.99.96-2.02,2.45-3.12,3.29-.28.21-.76.67-1.14.37l.66-1.23c4.88-5.04,10.1-9.8,14.9-14.89.5-.53,1.3-.66,1.42-1.59.05-.36.12-4.26-.01-4.44-.65-.12-.17.26-.33.51-.1.17-.21.29-.33.44-3.89,4.82-10.37,10.19-14.9,14.69-.6.59-1.63,2.22-2.45,2.46-.92.27.54-1.65.66-1.79,1.31-1.58,3.56-3.56,5.08-5.09,4.06-4.1,8.23-8.11,12.28-12.24l-.02-4.43-13.88,13.82c-1,1.01-2.68,3.42-3.9,3.93-.29.12-.22.21-.5-.13,0-.32,2.3-2.82,2.7-3.23.63-.65,1.46-1.5,2-2.03,1.06-1.05,2.33-1.97,3.31-3.12l.13.28.34.09c-.36-.75.81-1.8,1.39-2.38,2.18-2.19,4.67-4.27,6.84-6.54.27-.28,1.49-1.54,1.58-1.71.5-.87-.31-3.3-.01-4.44l-16.68,16.78-1.51,1.13c-.31-.82.84-1.75,1.41-2.36,4.73-5.1,10.16-10.12,15.08-15.08.53-.53,1.32-.9,1.72-1.69v-4.62c-.39-.03-.09.45-.24.71-.05.09-.4.15-.53.31-1.99,2.37-4.32,4.35-6.5,6.51-3.72,3.69-7.4,7.43-11.11,11.14l-.67.08c.23-.73.81-1.32,1.31-1.89,3.59-4.03,8.1-7.56,11.57-11.71l6.11-5.76.05-4.86c-.31.16-.37.61-.65.95-2.75,3.27-7.15,6.94-10.29,10.07-2.83,2.82-6.03,6.64-8.93,9.16-.16.14-1.52,1.3-1.61.65l.56-.94,20.75-20.72c.28-.5.35-4.3.18-4.44l-23.3,22.98-.83.21c.38-.86,1.06-1.49,1.69-2.17,3.89-4.21,8.3-7.94,12.35-11.97,3.33-3.3,6.48-6.85,9.9-10.08.68-1.4-.09-3.25.38-4.81-.37-.1-.36.14-.53.31-4.78,4.88-9.66,9.63-14.48,14.45-2.77,2.77-5.37,5.8-8.19,8.48-.33.31-2.1,2.04-2.24,2.11-.15.07-.28.14-.46.09l-.3-.46c3.51-3.54,7.03-7.05,10.56-10.58.31-.31.49-.49.84-.84,4.91-4.91,9.87-9.74,14.72-14.7l-.1-4.14c-2.3,1.82-4.33,4.04-6.41,6.12-2.92,2.92-5.84,5.85-8.77,8.77-3,2.99-6.42,7-9.6,9.62-.15.12-1.26,1.01-1.04.28s3.22-3.72,3.98-4.5c7.09-7.29,14.55-14.23,21.66-21.51l.17-3.94.39-.31c-.28-.06-.44.03-.67.18-1.36.9-3.07,3.09-4.3,4.28-4.39,4.26-8.91,8.45-13.25,12.76-2.44,2.42-4.83,5.55-7.41,7.76-.2.17-1.51,1.22-1.61,1.22l-.28-.46,27.16-27.14c.13-.77.33-1.6,0-2.35l.36-.11-.38-.22v-1.76s-27.93,28.05-27.93,28.05c-1.19.14-.45-.81.03-1.38,4.68-5.58,11.54-11.31,16.79-16.57,1.9-1.91,3.69-4.01,5.57-5.93,1.77-1.8,3.71-3.51,5.55-5.24v-4.39c-4.33,4.45-8.92,8.69-13.33,13.07-4.88,4.85-9.64,10.16-14.66,14.83-.2.19-1.43,1.27-1.52,1.31-.84.36.33-1.25.47-1.42,2.35-2.75,5.65-5.47,8.23-8.07,6.9-6.95,13.7-14,20.76-20.8.17-1.4,0-2.79.15-4.19.12-1.16-1.03.64-1.23.84-4.14,4.08-8.2,8.23-12.35,12.35-1.33,1.32-6.88,7.2-8.06,7.58-.21.07-.44.32-.33-.14s3.39-3.77,3.96-4.34c4.47-4.51,8.99-9.02,13.48-13.48.95-.94,4.25-3.47,4.42-4.62.11-.73.15-2.82.04-3.59-.03-.21.07-.5-.22-.45-.09.68-.79.9-1.23,1.31-5.23,4.95-10.1,10.34-15.23,15.4-.47.46-2.66,2.59-3.01,2.74-.23.1-.46.16-.5-.13.04-.41.33-.65.56-.94,2.3-2.84,5.97-5.79,8.61-8.45,3.29-3.31,7.09-6.92,10.14-10.31.19-.22.56-.31.68-.5.62-1,.05-3.6.08-4.77-5.7,5.68-11.35,11.4-17.06,17.05-.96.95-3.8,4.23-4.71,4.72-.27.14-.65.24-.57-.19l17.91-18.56.56.37-.18-.54c.71-.32,1.18-1.13,1.78-1.73.47-.46,1.95-1.56,2.18-1.96.48-.84.14-3.39.09-4.44-6.64,6.7-13.41,13.23-20.08,19.88-1.15,1.15-3.21,3.87-4.58,4.47-.23.1-.45.17-.5-.13-.03-.16.68-1.02.85-1.22,2.39-2.8,5.59-5.41,8.15-7.97,5.35-5.35,10.55-10.91,16.08-16.11l.39-1.07-.3-3.3-26.01,25.58-.47-.42c.75-.43,1.25-1.99,2.07-1.6.05-.9,1.51-2.18,2.25-2.92,7.31-7.34,14.85-14.41,22.06-21.86.75-1.06-.19-3.22.38-4.43l-2.57,2.14c-7.05,7.41-14.44,14.38-21.66,21.6-.88.88-1.59,2.07-2.82,2.65-.36-.94.87-1.41,1.35-1.95,3.12-3.51,6.54-6.88,9.86-10.22,5.18-5.2,10.54-10.21,15.66-15.49v-4.2c-5.13,4.36-9.62,9.48-14.4,14.26-4.15,4.15-8.4,8.63-12.63,12.63-.13.12-1.66,1.44-1.63.73l3.2-3.61c1.75-1.2,3.33-3.28,4.9-4.88,6.78-6.91,13.68-13.74,20.55-20.54v-4.43l-29.03,28.65c-.05-.57.41-1.01.75-1.42,3.46-4.19,8.65-8.15,12.38-12.22,4.49-5.31,10.01-9.78,14.7-14.89.38-.42.67-.98,1.01-1.44l-4.39.18c-5.85,6.15-11.95,12.13-17.95,18.1-1.95,1.94-3.8,4.1-5.81,5.97-.16.14-.82.66-.97.63-.35-.06-.22-.25-.11-.47.2-.41.64-.96.95-1.32,4.75-5.62,11.41-10.69,16.3-16.31l6.7-6.59c-1.29.06-2.8-.17-4.06-.01-.91.12-1.38,1.21-1.96,1.81-2.04,2.07-4.28,3.96-6.35,6-3.4,3.36-6.94,7.62-10.52,10.68-.33.28-.72.63-1.13.75-.28-.16.08-.58.2-.74,1.5-2.11,4.02-4.06,5.86-5.92,3.12-3.17,6.26-6.37,9.39-9.55.34-.34,3.09-2.75,2.74-3.2-1.27.42-2.77-.05-4.05.19-.68.13-1.79,1.79-2.35,2.35-3.18,3.15-6.29,6.45-9.52,9.52-1.02.97-2.11,1.92-3.21,2.81l-.19-.56,14.04-14.13-4.71.09c-.99,1.14-2.01,2.36-3.08,3.42-1.83,1.82-4.63,4.92-6.53,6.38-.26.2-.49.44-.85.47-.49-.3-.05-.65.18-.95,1.06-1.37,3.22-3.04,4.5-4.35,1.63-1.67,3.08-3.52,4.83-5.06-.94.24-3.54-.36-4.21.02-.49.28-2.33,2.14-2.89,2.69-.64.62-3.82,4.4-4.49,4.27-.13-.03-.43-.4-.2-.57l6.32-6.31-2.54-.24-1.54.09c-2.16,1.56-3.54,4.1-5.99,5.33-.29-.04-.23-.27-.13-.5.27-.64,2.19-2.16,2.8-2.77l1.76-2.01h-4.05c-.4,0-5.15,5.45-5.84,5.46-.09,0-.44-.39-.19-.56l4.62-4.8-4.26-.11c-3.4,3.14-6.5,6.56-9.78,9.83-.38.38-2.37,2.3-2.64,2.26-.2-.03-.33-.31-.2-.57.1-.2,1.88-2,2.24-2.38,2.78-2.94,5.78-5.79,8.59-8.65.14-.14.38-.26.58-.27.05-.31-.25-.18-.47-.19-.87-.04-3.15-.18-3.86.1-.49.19-2.58,2.27-3.13,2.8-3.29,3.2-6.34,6.68-9.59,9.92-.36.28-.78.29-1.04-.1-.03-.32,1.51-1.36,1.81-1.67,3.25-3.33,6.39-6.93,9.82-10.11.39-.36.23,0,.68-.69.09-.13.39.04.31-.25h-3.49c-.08,0-.31-.27-.51-.16l-13.44,12.98-.65-.38,12.45-12.16v-.47c-1.53.49-3.41-.45-4.71.67-3.38,3.74-7.08,7.23-10.68,10.71-.36.35-1.46,1.87-1.85,1.95-.91.19-.22-1.11.09-1.3l11.59-11.65c.09-.59-.35-.19-.38-.19h-3.58c-1.39,1-9.64,10.2-10.37,10.17-.13,0-.39-.38-.2-.57l9.35-9.6-4.16-.09c-1.71,1.83-3.59,3.5-5.39,5.24-.77.74-1.67,2.01-2.63,2.73-.32.24-.82.61-1.2.32l8.1-8.39c-1.29.51-3.78-.26-4.78.4l-5.49,5.63-.45-.5.39-.7,4.68-4.65-4.29-.06c-.78.54-4.04,4.41-4.66,4.53-.09.02-.3-.18-.48-.13.67-1.24,2.12-2.72,3.2-3.7.26-.23.79-.09.94-.82-.26-.1-.43.19-.47.19h-3.77c-.7,0-4.2,4.21-4.71,4.26-.16.02-.6-.09-.47-.39l3.77-3.87h-3.68c-.08,0-.27-.17-.43-.07-.69.14-.65.62-.99.92-1.19,1.04-2.24,2.14-3.39,3.21-.86.8-1.92,1.82-2.92,2.36-.28-.41.61-1.32.91-1.63.86-.89,1.86-1.67,2.76-2.61.61-.64,1.17-1.61,2.08-1.99-.19-.6-.76-.18-1.22-.18-3.42.03-6.78-.14-10.1-.13-2.72,0-5.46.19-8.2.14l-.45-.39c.08.68-.96.27-1.56.42-.87.22-4.16,4.31-5.11,5.16s-2.21.83-1.25-.35,2.81-2.51,3.89-3.61c.38-.38.7-1.01,1.2-1.35l-4.38.14c-2.34,2.25-4.65,4.53-6.93,6.82-.78.78-2.64,3.29-3.66,3.42s-.01-1.01.18-1.25c1.68-2.03,4.5-4.25,6.42-6.21.9-.92,1.65-2.01,2.72-2.74-1.35-.18-2.69-.27-4.04-.1-1.48,1.25-2.97,2.66-4.38,4.03-2.05,1.99-3.96,4.18-6,6.16-.54.53-1.68,1.02-1.8,1.78ZM14.38,16.19c.02,1.41-.02,2.83,0,4.24,1.55-1.78,3.49-3.22,4.9-5.09-1.71-.18-3.4-.05-5.09,0,.07.23.19.62.19.85ZM14.38,21.66v4.43l10.74-10.74c-1.27.08-3.34-.33-4.45.18l-6.29,6.14ZM61.1,28.01c-.55-.32-.72.41-.8.88-.67,3.83-1.16,7.81-1.42,11.62-.04.62.03,2.34-.57,2.35l.39.3c-.17,2.22-.4,4.82-.31,7.04.01.24-.12.38.21.57l1.88-2.45,3.1-3.13c.08-.47-2.51-2.36-2.73-2.9-.07-.18.07-.72.1-.75.5-.38,2.86,2.69,3.34,2.81.41.11,1.07-.54,1.37-.83l-4.52-4.58c-.51-.56-.3-1.36.48-.8l4.8,4.44c.59.28,1.14-.15,1.5-.57l-7.13-7.19c-.16-.6.47-.79.91-.53l5.84,5.37-1.51-3.3-5.29-5.13c-.3-.46-.21-1.15.45-.97.36.1,2.66,2.18,2.76,2.04.08-.36-.28-.55-.33-.87-.03-.21.2-.53.14-.64-.01-.03-.29.17-.47.02-.62-.49-1.59-2.15-2.19-2.81ZM112.96,28.16c-.3-.36-1.69,1.75-1.97,1.9l-1.61,2.81c.15.15.74-.37.92-.49.35-.24,2.67-2,2.76-2.15.31-.5-.26-1.45-.1-2.07ZM113.53,30.99l-5.78,5.53c-.42.88-.88,1.74-1.19,2.67-.09.26-.39.54.09.47l5.38-5.17c.42-.42,1.29-.4,1.09.33-1.86,1.88-3.69,3.8-5.49,5.73-.24.26-.37.26-.77.73-.28.33-.76.62-.8,1.11s.62.77,1.05.57c.57-.25,2.55-2.61,3.21-3.21.53-.48,1.3-1.16,1.86-1.58.09-.07.06-.37.5-.21.74.28-.59,1.67-.85,1.97-1.11,1.26-2.67,2.22-3.72,3.58l1.18,1.18c.55-.22,3.37-3.66,3.86-3.16.29,1.02-3.2,3.51-3.2,3.86,1.47,1.32,2.86,2.65,3.95,4.3l.58.13c-.26-.93.06-2.09.08-3.11.06-2.69-.22-5.42-.13-8.1l-.89-7.64ZM12.12,35.7l-5.95.93-.55-.36c-.17-.07-.02.31-.18.35-.44.09-3.01-.65-3.12-.53l.09,5.66c.3.6,3.23.83,3.96,1.02l5.75-.84v-6.22ZM12.09,50.57l-.06-6.01c-.29-.44-.88.05-1.23.1-1.07.14-2.39.42-3.39.09.24,2.06,1.21,4.14.56,6.22.56.13,4-.22,4.12-.4ZM72.25,54.18l-.1-.57c-.19,0,.07.35-.36.4-1.5.17-3.7-.28-5.1-.01-.8.16-1.39,1.52.18,1.7,2.52.29,5.28-.29,7.83,0-.07-1.66-1.03-2.19-2.45-1.51ZM107.24,58.2c-3.94-4.43-10.8-2.16-12.32,3.29-3.08,11.01,11.53,13.05,13.65,4.04.56-2.39.36-5.42-1.33-7.32ZM77.71,65.3v-6.5c0-.06-.54-.98-.64-1.05l-16.57-.29c-8.47.45-17.01.41-25.45.1-.66.14-.53,5.23-.55,6.13,0,.6-.54,1.62.51,1.71,1.36.11,3.11-.36,4.54-.09,1.56-.46,3.9.41,5.42-.01.13-.04,1.45-1.55,1.93-1.89,4.73-3.36,11.36-3.46,16.1.12.77.58,1.22,1.33,2,1.77h12.72ZM81.3,57.57l-1.7.31c-.12.94.14,1.99.13,2.88,0,.83-.37,3.97.14,4.37.34.27.98.2,1.4.14.4-2.5.22-5.16.03-7.7ZM54.56,86.46c.24-.15,1.23,0,1.71-.1,13.8-2.63,13.29-21.64.75-23.65-13.96-2.24-19.53,16.53-7.39,22.47,1.68.82,3.25.69,4.57,1.23.16.07.16.23.14.37.31.08.12-.26.22-.33ZM81.34,76.01c-.31-.49.15-7-.06-8.34-.04-.28-.2-.76-.49-.84l-.82.31-.12,8.78c-.17,2.92.13,5.95.13,8.9,0,1.43-.24,2.85-.58,4.23.93.2,1.69-.59,1.87-1.43.26-1.24,0-2.56,0-3.76,0-.44-.02-2.77.06-2.89.06-.09.36.05.33-.13,0-.19-.34.08-.4-.36-.16-1.29.23-2.81,0-4.13l.39-.21c.03-.17-.27-.04-.33-.13ZM40.39,68.13c-.13-.14-1.17.71-1.32.85-.63.59-2.24,2.26-2.73,2.92-.27.36-.53.63-.47,1.13l4.25-4.13.27-.77ZM75.64,68.31c-.24-.26-2.66,2.03-2.95,2.33-.69.71-1.67,1.88-2.33,2.67-.13.15-.57.39-.19.57.23.11,1.41-1.28,1.8-1.41.92-1.35,2.34-2.34,3.43-3.53.14-.15.47-.37.23-.62ZM91.05,71c-.58-1.01-5.79-.86-6.62.33-.33.48.43,1.97.76,2.4.4.52,1.64,1.05,1.85,1.56.52,1.23.19,2.19-.66,3.11-.69.75-3.07,1.98-2.16,3.11.84.17,2.63-2.41,3.57-2.64.62,0,2.19,1.97,2.99,2.31.27.12.46.07.61-.24.36-.75-2.22-2.38-2.53-2.94s-.56-2.45-.22-3.01c.51-.85,2.62-1.07,2.66-2.62,0-.15-.2-1.3-.24-1.38ZM117.46,71.49l.04-1.01c-.86-.29-5.44-.38-5.66.58s2.94.73,3.5.29l.16.35,1.96-.2ZM76.77,70.95l-2.08,1.6c-.34.67-3.91,3.83-3.57,4.25,1.33-.63,2.05-1.9,3.01-2.92.22-.23.54-.33.75-.57.19-.21,1.99-2.25,1.89-2.35ZM37,76.04c.14.15,2.75-2.57,2.93-2.82s.35-.39.27-.76c-.43.3-3.53,3.23-3.2,3.58ZM114.63,76.45c-.85-.32-3.97-1.91-4.48-.67l.1.47,4.41,1.31-.03-1.1ZM73.12,79.37c.6-.62,2.02-1.99,2.41-2.58.15-.22.46-.69.2-.93-1.86,2.09-4.39,3.98-6.04,6.21-.19.26-.35.4-.27.76,1.21-1.04,2.59-2.3,3.7-3.46ZM38.25,78.8c.4-.4,1.49-1.48,1.29-2.01l-3.03,2.82-.27.76c.64-.44,1.47-1.03,2.01-1.57ZM76.09,80.07c.18-.21.79-.3.4-.82-1.56,1.07-2.6,2.49-3.86,3.86.31.38.27.29.56,0,.89-.89,2.09-2.11,2.9-3.04ZM63.61,85.8l-.22-.33c.04.59-.98.44-1.51.66-3.86,1.65-5.55,2.54-10.03,1.73-1.89-.34-3.29-1.33-5.05-1.74s-3.18-.07-4.82-.08c-2.54-.02-5.1-.18-7.62,0l.29,2.27,41.07.17c1.83-.13,2.28-.25,1.99-2.31l-.53-.27-13.58-.09ZM95.06,97.14l.09-.55,4.72-6.61c.21-.41-.38-.84-.74-.73-.23.07-2.93,3.17-3.21,3.58-.78,1.11-1.32,2.49-1.99,3.67-1.86.1-3.9-.11-5.75.09-3.26.34-5.8,1.84-7.64,4.61-.88,1.32-1.95,3.01-1.5,4.62.84-.03.8-1.07,1.1-1.64,3.91-7.42,12.81-8.11,18.98-2.89.64.54,6.36,6.94,6.87,6.41l-1.99-3c-2.41-3.1-5.21-6.08-8.93-7.56ZM65.4,95.39c.76-.76.8-1.75.89-2.74.06-.68.28-2.37-.58-2.44-.97-.08-.53,2.84-.62,3.47-.14,1.06-1.27,1.27-2.18,1.4-1.28.18-1.71-.57-1.77,1.05-.01.34-.1.24.26.27,1.11.09,3.18-.2,3.99-1.01ZM70.74,93.76c-1,.01-1.07,1.11-1.62,1.68-.4.41-1.08.5-1.22,1.06-.1.66,2.01,4.41,2.5,5.24,5.04,8.66,11.53,16.85,18.33,24.08l1.99,1.5c-.92-1.66-.61-4.42-1.18-6.08-.2-.58-1.27-1.4-1.65-1.93l.38-.28c-.23,0-.39.04-.58-.13-1.29-1.15-3.56-4.41-4.77-5.93-3.4-4.25-6.73-8.97-9.51-13.68-1.04-1.77-2.05-3.57-2.67-5.53ZM61.13,99.04c1.2,1.52,1.01,3.39.58,5.16.14.56,1.32.08,1.46-.39.16-.54-.03-3.07-.16-3.73-.15-.79-1.15-1.22-1.88-1.04ZM88.84,104.13c-2.56-.44-5.26,1.7-6.07,4.01-.59,1.69-.1,2.14.79,3.52l.37-.09c-.26-2.58.42-4.6,2.65-6.02.76-.48,1.75-.59,2.25-1.42ZM53.59,104.5l-.64.02-9.73,32.02c.26.28,6.75.25,7.65.19s1.71-.19,2.44-.74l.28-31.49ZM59.02,104.91c-.18-.11-.5,0-.72-.03v23.18s.75,0,.75,0c.08-2.29-.1-4.6.01-6.88.08-1.67.32-3.98.58-5.63.2-1.28.91-3,.93-4.17.01-.6-1.27-6.3-1.55-6.47ZM75.83,140.51l.66-.18.07-2.34c-3.38-9.64-6.58-19.48-10.44-28.95-.2-.49-1.56-4.41-2.35-3.77l12.06,35.25ZM90.89,111.5l-2.28.41-2.6,1.26.84.58c.51-.17,1.11-.13,1.62-.28.9-.27,1.35-1.23,2.04.01.21.37.18.82.36,1.14.37.67,2.45,3.79,2.91,4.14.07.06,1.42.52,1.65.63-.99-2.85-3.9-4.91-4.54-7.9ZM122.71,118.32c-1.01-.92-3.56-.93-4.85-.72-2.01,3.81-4.62,6.02-9,6.46-3.94.4-7.43-.46-10.59-2.89l-.76.2c.54.99,1.77,1.68,2.3,2.6,1.19,2.07,1.82,5.62,2.88,7.86.74,1.56,2.6,1.99,4.19,2.02.22,0,.38-.22.52-.22,1.1-.03,4.68-.14,5.39-.76.06-1.07-.21-1.91.49-2.87.79-1.09,3.56-1.48,4.77-1.08s1.58,2.77,2.37,2.92c.35.07,2.32-.29,2.77-.43,1.05-.33,2.81-1.2,3.21-2.26.68-1.81-.81-6.08-1.66-7.84-.34-.71-1.48-2.49-2.01-2.98ZM98.82,129.01c.14-.24-1.22-4.01-1.51-4.23-.61-.47-1.78-.14-2.51-.13-.6,0-1.3-.41-1.98.05.07.86.09,3.11.73,3.65,1.52,1.28,3.6.56,5.27.66ZM83.98,128.11l-3.39,3.39.19.19,3.39-3.39-.19-.19ZM99.39,129.76c-2.13.69-3.97.74-6.03-.19.81,2.37.86,4.89,1.27,7.32.36,2.12.8,5.72,1.42,7.61.26.78,1.2,1.92,2.02,2.13l5.28.46-3.96-17.34ZM115.93,130.75c-2.44.62-1.13,6.96,1.81,5.02,1.67-1.1.45-5.6-1.81-5.02ZM85.63,131.84l-2.26,2.17-.37.66c.76-.68,1.6-1.38,2.26-2.17.18-.21.46-.31.38-.66ZM126.16,132.59c-1.89.61-3.81,1.45-5.84,1.32.02,2.75-1.23,4.59-4.23,4.14-.5-.08-1.95-.82-2.3-1.18-.39-.4-.54-1.38-1.1-1.46-1.8.11-3.66.63-5.46.59-.79-.02-3.67-.62-4.07-.47-.12.04-.24.28-.37.37.99.89.74,2.74.98,3.91.31,1.49.73,3.21,1.19,4.66.17.53-.06.14.27.7.55.91,1.22,1.82,2.36,1.94,3.29.35,8.44-1.24,11.74-2.02,2.11-.5,6.08-.66,7.14-2.84s.59-2.43.44-4.47c-.13-1.81-.2-3.42-.76-5.18ZM92.23,134.85c-.62-.23-2.76,2.31-2.64,2.45l2.64-2.45ZM82.99,139l.38.28c.88-1.12,2.1-1.93,3.02-3.02.18-.21.46-.31.37-.66l-3.77,3.4ZM52.27,139.75l-8.52-.18c-.78.52-.47,1.7-.98,2.27s-1.17.22-1.76.59c-1.08,3.7-2.23,7.39-3.35,11.07-.29.96-.93,1.89-.84,3.02l16.69-.18.19-14.15c-1.08-.43-1.95-1.22-1.42-2.44ZM61.88,156.53l-.08-2.85c.42-3.16,1.08-5.97-.54-8.88l-.8-3.34c-.44.98-1.06,1.45-2.17,1.51l.05,13.29c.07.21.23.25.43.28.78.1,2.22-.24,3.1,0ZM80.92,156.53l-5.37-15.08c-.46.23-.67.38-.58.95.75,1.85,1.28,3.78,1.93,5.65.7,2,1.84,5.85,2.75,7.58.32.6.46,1.04,1.26.9ZM113.89,149.01l-.93.09.74,7.12c.45.72,3.29-.16,4.16.31-.74-1.06-2.39-1.66-2.93-2.81-.36-.76-.83-4.53-1.04-4.71ZM86.38,152.76c-.46-.06-.3,0-.4.26-.36.99-.46,2.19-.71,3.21.11.53,1.53-.1,1.95.28l.26-.42-1.1-3.33Z"/>
        <path d="M73.9,64.12c-.73.51-6.03-.23-7.28,0-.49-.3-.77-4.2-.13-4.88l7.82.1c.41.34,0,1.01,0,1.5,0,.76.29,2.78-.41,3.27Z"/>
        <path d="M64.24,74.42c0,5.22-4.24,9.46-9.46,9.46s-9.46-4.24-9.46-9.46,4.24-9.46,9.46-9.46,9.46,4.24,9.46,9.46ZM54.91,70.95c-.68-2.24-3.45.11-4.05,1.32-.22.44-1.1,3.16-.85,3.4,1.09.31.99-1.24,1.37-2.12.52-1.22,2.08-2.85,3.53-2.6Z"/>
        <path d="M99.53,58.92c.81-.25,2.25.49,2.77,1.11,1.17,1.39,1.33,5.43.44,7.01-.22.4-1.56,1.79-1.94,1.84-.67.09-2.37-.8-2.82-1.32-1.13-1.3-1.29-4.41-.7-5.98.25-.67,1.59-2.46,2.25-2.66Z"/>
      </g>
    </g>
  </g>
</svg>