<?xml version="1.0" encoding="UTF-8"?>
<svg id="Layer_2" data-name="Layer 2" xmlns="http://www.w3.org/2000/svg" viewBox="0 0 172.83 173.82">
  <g id="Layer_1-2" data-name="Layer 1">
    <g>
      <path d="M171.5,63.66s.04.25.08.26c.13.04.34-.13.54-.04.43.19.36.81.21,1.18-.38.95-2.55,2.98-3.43,3.62-3.12,2.25-9.27,4.43-13.07,3.89-.76-.11-1.31-.54-1.26-1.39.11-1.84,2.97-.88,4.17-1.02,3.81-.47,6.89-2.31,9.77-4.59.61-.48,2.3-2.27,2.99-1.89Z"/>
      <path d="M165.07.12l.18,16.05c-.16,1.61-1.55,1.15-2.74,1.72-.24.11-1.55,1.21-1.72,1.45-.9,1.31-.66,2.67-.96,4.12.49.31.58,1.37.92,1.98.42.76,1.15,1.42,1.95,1.77.64.27,2.3.46,2.51.92l.09,7.05-.41.39.4.22c-.11.82.23,3.83-.25,4.32-.2.2-1.38.46-1.61,1.03l-.49-.51c.42-.71.03-1.28,0-1.94-.1-2.97.26-5.98,0-8.95-.05-.24-1.34-.57-1.64-.75-3.39-2.04-4.74-7.01-2.67-10.43.82-1.36,2.03-2.07,3.3-2.81.32-.19.83.11,1-.91-.12-4.07.36-8.21-.09-12.21l-.23-.16-17.91-.03c-.24.06-.42.96-.54,1.22-.44.91-1.02,1.94-1.83,2.7-1.81,1.69-5.01,2.27-7.39,1.75-.13-.03-.12-.31-.29-.37-2-.67-2.69-.87-3.8-2.8-.31-.53-.87-2.25-1.18-2.36l-8.06-.13-.39.19c-1.86,7.5-13.2,7.71-15.03,0-.57-.53-1.45-.09-1.88-.1-1.95-.04-3.92-.4-5.85,0-.29.13-.68,1.65-.89,2.03-1.66,3.02-5.89,4.54-9.15,3.52-2.9-.91-4.29-2.92-5.32-5.66l-7.11-.09c-1.09,1.17-1.07,2.62-2.24,3.81-3.38,3.44-10.25,3.1-12.63-1.46-.12-.23-.27-.61-.42-.93-.37-.77-.04-1.26-1.21-1.33-.54-.03-.98.18-1.37.16-1.89-.06-3.83-.3-5.74-.13-.63,1.76-1.43,3.45-2.97,4.55-1.33.95-4.07,1.67-5.7,1.44-3.15-.45-5.89-2.9-6.61-6h-8.45s-.23.19-.23.19c-1.6,6.53-11.04,7.95-14.64,2.33-.35-.54-.71-2.03-1.23-2.3-.95-.25-1.9-.01-2.89-.03-.92-.02-1.78-.04-2.72-.03-.73,0-3.78-.31-4.14.23l-.27,12.5c3.38.66,5.58,4.39,5.27,7.74-.12,1.32-1.16,3.61-2.07,4.58-.3.32-1.09.82-1.36.97-.63.35-1.25.76-1.86,1.14v11.05c3.18,1.05,5.29,4.09,5.29,7.46,0,1.25-.71,4.13-1.56,5.04-.23.25-.52.21-.64.33-.98.91-1.72,1.68-3.09,2.05-.4.38,0,1.03.02,1.56.09,3.11-.12,6.23-.01,9.35.91.62,1.97.94,2.78,1.71,1.7,1.62,2.4,3.61,2.39,5.95-.02,3.68-2.14,5.73-5.14,7.45l-.04,10.53c.15,1.14.87.84,1.48,1.26.54.37,2.44,2.11,2.56,2.68.08.36-.47.46.41.49,1.18,2.82,1.02,5.75-.74,8.27-.55.79-1.55,1.75-2.23,2.25-.46.33-1.35.43-1.48,1.07l-.09,10.27c.14.38,1.68,1.04,2.09,1.36,3.83,2.98,4.19,9.07.53,12.39-.14.12-1.08.91-1.18.97-.37.25-1.22.18-1.39.79.22,1.32-.29,10.62.28,11.01.22.09.54.03.74.13,5.51,2.86,5.62,10.35.47,13.75-.44.29-1.16.22-1.4.76l-.2,11.26.64.42,12.8.09c.77-4.41,4.81-6.51,9.08-5.49,2.81.67,3.95,3.03,5.17,5.38l7.9.12c.18-.03.92-2.28,1.22-2.73.7-1.06,2.36-2.52,3.59-2.88.34-.1.65.11.74.07.03-.01.02-.3.16-.34.44-.1,1.97-.05,2.51,0,3.35.3,5.36,2.58,6.29,5.67,2.73.16,5.54.19,8.3,0,.65-.56.66-1.44,1.05-2.14.19-.35,2.07-2.37,2.38-2.55,2.08-1.23,5.27-1.04,7.36.03.21.11.27.45.35.5.08.05.38-.09.73.15,1.34.95,1.86,2.78,2.58,4.17l9.02-.15c.71-1.51.99-3.01,2.41-4.08,4.34-3.3,10.64-1.08,11.8,4.26l7.99-.2c-.13-.76.55-1.8.98-2.43,3.55-5.2,11.66-3.64,13.12,2.42l8.87.16c.49-.89.56-1.79,1.14-2.7,2.8-4.38,9.74-3.92,12.27.48.39.68.66,1.9,1.31,2.17l18.78.11.02-20.24.38-.18-.41-.21c.3-.48.24-3.95-.03-4.14-2.6-.37-5.22-3.86-5.32-6.39-.11-2.81.91-5.59,3.17-7.33.77-.59,1.67-.76,2.25-1.16.32-.22.44-.64-.04-.68.21-2.69.18-5.51,0-8.24l.35-.17-.22-1.93c-.15-.55-.64-.36-1-.54-1.03-.51-2.41-1.32-3.06-2.28s-1.31-2.66-1.38-3.84c-.25-4.12,1.79-6.75,5.49-8.24l-.25-10.39c-.84-.19-1.79-.61-2.48-1.13-1.16-.88-2.43-2.95-2.66-4.37-.7-4.39,1.49-7.53,5.28-9.39.41-1.13-.11-2.42.14-3.57.11-.51.87-1.49,1.43-1.45,1.44.1.42,5.86.65,6.85-.1.3-1.89.75-2.45,1.06-1.04.59-2.17,1.56-2.55,2.73-.84,2.6.01,5.66,2.55,6.92.65.32,2.28.54,2.44,1.08l.11,12.73c-.28,1.44-2.33,1.31-3.48,2.18-.38.28-1.13,1.17-1.35,1.58-.65,1.22-1.19,5.04.46,5.67l-.17.55c1.31.93,2.66,1.49,4.24,1.82l.11.2c.37,2.42.05,4.86.05,7.29,0,2.09.34,4.83.1,6.85-.15,1.19-1.19.61-2.11,1.02-3.89,1.73-4.59,7.89-.77,10.05,1.06.6,2.19.54,3.02,1.26l-.33,27.93-.89.29-21.49-.02c-1.19-.24-1.07-1.74-1.52-2.77-1.37-3.14-5.31-3.99-7.87-1.71-1.63,1.45-1.16,2.88-2.37,4.47l-12.1-.15c-.54-.38-.63-2.22-.96-2.95-1.39-3.01-6.01-3.36-8.24-1.11-.35.36-.29,1.24-1.23,1.12l.35.22-.59,2.37-.43.36-11.14.19c-.61-1.37-.49-2.83-1.48-4.01-2.29-2.73-6.86-2.17-8.31,1.07-.33.74-.44,2.56-1.25,2.84h-11.93c-.65-.3-.9-2.53-1.37-3.34-1.5-2.57-5.21-3-7.52-1.26-1.5,1.13-1.46,3-2.16,4.5-.31.12-.63.18-.97.2-2.73.16-7.51.26-10.16-.02-1.46-.15-.98-1.66-1.56-2.93-.42-.93-1.57-2.15-2.51-2.57-2.08-.94-4.29-.1-6,1.14-.96,1.35-.78,3.17-1.89,4.37l-11.07-.03c-.49-.17-.93-2.31-1.22-2.89-1.86-3.75-7.36-3.79-8.97.18-.37.91-.33,2.74-1.38,2.93-.62.11-2.15-.11-2.89-.12-1.79-.03-3.53.08-5.31.07-2.47,0-4.98-.12-7.46,0-1.86-.36-.88-3.7-.89-5.13l-.17-10.37.41-.38-.39-.29c1.1.05,2.45-.57,3.37-1.17.26-.17.2-.64.7-.44,1.57-2.72,1.76-6.78-1.32-8.46-.8-.44-2.34-.64-2.62-1.49l.06-13.75c.21-.18.45-.33.69-.48.73-.46,1.89-.48,2.46-1.1.68-.74,1.72-2.84,1.88-3.85.33-1.97-1.49-5.13-3.44-5.71-.97-.29-2.14.2-1.56-1.54l-.39-.19.3-1.19-.03-11.92c.17-.56,1.58-.73,2.2-1.04.93-.46,2.24-1.88,2.64-2.83.55-1.28.28-4.28-.52-5.42-.22-.32-1.59-1.5-1.92-1.67-.65-.34-2.21-.35-2.46-1.2l-.03-5.59.39-.22-.41-.22c0-1.15.17-2.34.16-3.48,0-.85-.37-4.49.11-4.94.3-.28,1.94-.56,2.53-.88,3.15-1.72,3.19-7.19.2-9.13-.95-.62-2.6-.6-2.94-1.51l.08-13.94c1.49-.91,2.5-.6,3.78-2.05,1.56-1.76,1.79-3.74,1.07-5.95-.24-.73-1.22-2.23-1.86-2.63-1.37-.85-2.89.03-3.09-2.17-.1-1.17-.16-5.99.02-7.07.04-.24.15-.4.34-.54l-.37-.18c.38-1.94-.32-3.96.18-5.98,5.13.04,7-7.08,2.64-9.77-.89-.55-2.42-.67-2.74-1.56L.47.67,1.84.08l12.47.04c.66.21.74,2.56,1.07,3.23.1.21,1.2,1.54,1.4,1.73,2.21,2,7.1,1.5,8.65-1.14.54-.92.82-3.57,1.66-3.81l11.49-.05c.76.14.72,2,.98,2.74,1.24,3.51,6.54,4.69,9.19,1.96.71-.73,1.18-2.05,1.49-3.02.17-.52-.1-1.4.69-1.64s2.73.14,3.65.13c.77,0,1.57-.03,2.36-.03,1.44,0,3.28-.41,4.69-.14,1.05.2.89,2.26,1.24,3.06,1.27,2.96,4.53,3.71,7.37,2.75.1-.03.08-.25.14-.27.76-.32,1.78-.94,2.29-1.79.45-.75.86-3.52,1.51-3.71l10.91.14c.59.43.52,2.21.86,3.06,1.39,3.54,6.47,3.66,8.91,1.06,1.09-1.16,1.4-2.56,1.68-4.09.77-.28,1.61-.03,2.26-.05,1.9-.06,3.74.01,5.63.01.85,0,3.25-.55,3.72.22.35.58.27,2.26.84,3.26,1.74,3.05,6.75,3.17,8.96.6.08-.09.91-1.8,1-2.06.26-.76-.01-2.02.92-2.19l11.49.02c.88.84.5,1.93,1.03,3.08,2.4,5.17,10.42,2.89,10.13-2.71l.63-.35,21.91-.02Z"/>
      <path d="M129.14,83.91c.23.25-.85,1.69-1.07,1.96-3.33,3.98-7.7,7.95-11.32,11.74-.29.3-2.06,2.71-2.46,2.32.45-1.1,1.29-2.22,2.04-3.14,3.04-3.68,7.49-7.72,10.98-11.2.56-.55.88-1.6,1.83-1.69Z"/>
      <path d="M133.83,84.89c.14.16-.04.64-.21.86-2.21,2.95-5.96,6.28-8.59,9-1.43,1.47-2.72,3.19-4.19,4.61-.27.26-.39-.06-.69-.02-.2-.2,2.96-3.81,3.32-4.2,1.57-1.71,3.42-3.38,5.02-5.05,1.36-1.41,2.85-3.37,4.26-4.63.17-.15.92-.76,1.09-.58Z"/>
      <path d="M124.06,83.13c-.96,1.19-1.91,2.48-2.93,3.61-2.81,3.12-5.97,6.34-9.16,9.2-.39.35-.45,1.02-1.19.86-.35-.33,1.41-1.89,1.64-2.16,1.84-2.19,3.87-4.18,5.88-6.23,1.41-1.43,2.84-3.36,4.39-4.6.39-.31.83-.73,1.37-.68Z"/>
      <path d="M137.28,86.57c-2.19,2.39-4.46,4.65-6.69,6.98-.3.31-2.08,3-2.61,2.47-.05-.71.55-1.27.98-1.79,2.35-2.88,5.62-6.33,8.3-8.94.51-.5,1.31-.93,1.76-1.57.08-.04.25.46.25.53,0,.23-1.66,1.98-1.99,2.33Z"/>
      <path d="M117.74,84.03c-.53.63-1.92,2.3-2.46,2.73-1.78,1.41-3.82,3.98-5.96,5.95-.14.13-1.17,1.09-1.27.97-.06-.39.1-.66.31-.96.93-1.35,3.68-4.07,4.96-5.39,1.02-1.06,2.19-1.99,3.23-3.01.76-.74,1.22-1.6,2.15-2.16.35.64-.53,1.37-.96,1.88Z"/>
      <path d="M106.59,41.04c-1.26,1.54-4.48,5.16-5.97,6.25-.27.2-.39.37-.79.28-.04-.32.05-.59.22-.86,1.13-1.8,4.78-5.07,6.43-6.65.62-.59,1.09-1.56,1.95-1.87.28.36-1.49,2.43-1.84,2.85Z"/>
      <path d="M73.59,37.93c-.52.57-1.44,1.29-2.01,1.9-.71.75-1.69,2.34-2.51,2.88-.39.25-.51.05-.88-.02l7.05-8.09.66-.51c.28.21.31.29.26.64-.07.44-2.11,2.68-2.57,3.19Z"/>
      <path d="M151.58,14.39l.41,1.06c.44,10.14-.66,20.97.01,31.06.08,1.26.64,2.18.78,3.41,2.37-.63,5-1.1,7.28-2s5.48-2.87,7.28-4.44c1.36-1.19,2.66-2.71,3.83-4.08,1.21.16,1.78,1.12,1.27,2.25-1.19,1.01-1.98,2.33-3.15,3.4-2.13,1.96-5.59,3.93-8.28,5.01-2.54,1.02-5.25,1.38-7.84,2.22.3,2.66.49,5.37,0,8,6.98-.07,13.41-3.58,18.03-8.66,1.32-.23,2.17.89,1.23,2.04-1.82,2.24-5.79,5.02-8.28,6.21-3.66,1.75-7.7,2.68-11.76,2.76l.35.22-.84,2.8c.15,22.67-.02,45.18-.03,67.84,0,7.64.44,15.59.21,23.22-.04,1.42.08,2.47-1.55,2.64-2.56.27-5.62-.1-8.21-.09-41.48.19-82.92.01-124.26-.02-1.35,0-2.94.51-4.38.07-.22-.13-.31-3.72-.31-4.37-.03-10.8-.27-21.97.2-32.82.02-.56-.47-1.2.28-1.37l-.36-.19v-10.95c.3-2.47-.04-4.96-.02-7.44,0-.64-.1-2.17.38-2.33-.59-2.28-.23-5.03-.22-7.43.04-9.69-.08-19.36,0-29.13l.41-.38c-.53-.12-.47-.7-.48-1.17-.06-3.51.28-7.06-.09-10.56l.37-.19-.4-.21.23-36.01c.82-.38,1.71-.39,2.61-.42,5.85-.22,11.94.21,17.78.14h31.16c19.96-.01,40.15-.16,60.1-.14,8.79,0,17.47.13,26.24.04ZM32.23,16.7l-4.5.09c-.57.83-1.38,1.42-2.08,2.13-1.62,1.65-3.55,3.7-5.21,5.52l-4.52,4.36.09,4.7,16.21-16.8ZM146.34,16.7h-4.01c-.18,0-.65.07-.79.18-.75.92-1.51,1.91-2.33,2.76-.19.2-.9.66-1.28,1.07-2.24,2.37-4.38,4.87-6.64,7.23-.24.25-.53.64-.88.68-.63-.12.37-1.3.49-1.46,1.73-2.28,4-4.58,5.98-6.62l3.39-3.84h-3.81c-.39,0-.58-.12-1.01.26-3.44,3.82-7.01,7.51-10.71,11.07l-.49-.49,9.96-10.85h-4.4c-.88.91-1.81,1.79-2.72,2.66-3.6,3.44-7.21,7.52-10.66,11.11-.69.71-1.29,2.01-2.44,2.06-.75.04.56-1.33.78-1.57,3.8-4.33,7.78-8.25,11.69-12.33.5-.52,1.25-1.3,1.5-1.93h-4.79c-1.16,1.05-2.13,2.31-3.22,3.42-5.96,6.08-11.62,12.39-17.52,18.53-.43.45-2.43,2.99-2.73,3.04l-.65-.47,22.27-24.52h-4.01c-6.66,6.1-12.49,13.08-18.76,19.54-.25-.2-.36-.3-.26-.65.04-.14,1.55-2.11,1.79-2.41,3.72-4.51,8.51-9.2,12.55-13.53.89-.95,2.17-1.82,2.82-2.95h-4.59l-7.19,7.96c-1.24,1.09-2.58,2.55-3.78,3.84-.52.55-3.41,4.05-3.88,4.03-.25-.22-.35-.23-.2-.58s1.32-1.79,1.66-2.19c2.57-3.09,6.04-6.77,8.86-9.65.82-.84,2.36-1.68,2.67-2.81l.58.2-.18-.5c0-.13.6.02.37-.47l-5.03.25c-2.81,3.45-6.24,6.32-9.03,9.81l-3.03,2.83c-.6-.12.36-1.41.5-1.6,1.77-2.39,4.49-4.71,6.56-6.87,1.35-1.41,2.56-3,3.98-4.33-.15-.32-.46.1-.49.1h-3.52c-.08,0-.18-.11-.44-.07-1.34.22-3.85,4.12-5.26,4.83l-.19.49-6.42,6.29-.49-.3c.53-1.28,1.68-1.98,2.54-2.93,2.31-2.53,4.65-4.99,6.95-7.51.09-.1,1.63-1.29.44-.92-1.52.48-2.39-.22-3.74.16-.95.27-3.01,3.2-3.86,4.1-2.93,3.13-5.87,6.16-8.9,9.22-.64.65-1.38,2.18-2.42,1.98.31-.43.47-.93.78-1.37,2.55-3.59,7.12-7.52,10.09-10.91.8-.92,1.3-2.28,2.41-2.96-1.09.06-2.6-.23-3.62-.1-1.13.14-2.3,2.22-3.09,3.07-4.65,4.93-9.29,9.72-13.9,14.72-2.18,2.36-4.5,5.39-6.81,7.55-.37.34-1.43,1.31-1.88.95.67-.21.42-.57.57-.78,1.37-1.94,3.58-3.76,5.19-5.56,5.22-5.83,10.43-11.98,15.73-17.53l1.75-2.41h-3.61c-.54,0-4.92,5.25-5.66,6.06-5.58,6.13-11.12,12.31-16.9,18.27-.78.8-1.69,2.09-2.84,2.05l23.54-26.38h-4.1s-.06.36-.28.59c-5.62,5.76-10.76,11.78-16.23,17.58-2.09,2.22-4.39,4.22-6.25,6.64l-.68-.48c2.81-3.3,5.64-6.57,8.58-9.78,3.71-4.05,7.44-8.07,11.18-12.08.76-.82,1.66-1.54,2.31-2.47h-3.81c-6.2,6.57-12.58,13-18.79,19.61-.52.55-2.14,3.21-2.61,1.79l15.82-17.4,3.92-3.99h-3.61c-.16,0-.13-.17-.54.02-.3.13-1.26.97-1.51,1.24-4.96,5.35-10.05,11-15.23,16.24-.23.23-1.85,1.74-1.96,1.65,0-.29-.23-.45-.11-.77.09-.22,1.37-1.71,1.65-2.03.23-.26.25-.22.58-.62,4.05-4.91,9.6-9.98,14.08-14.86.22-.24.63-.55.59-.87h-5.08c-.13.48-.55,1.01-.88,1.37-1.12,1.24-2.45,2.33-3.61,3.33-.07.06-.35.92-.85,1.48-2.62,2.95-6.34,7.03-9.21,9.65-.12.11-.66.42-.68.39-.18-1.27.99-1.77,1.49-2.41,3.5-4.37,7.75-7.97,11.3-12.24.36-.43.91-1,.88-1.57h-4.3s-.06.36-.28.59c-.87.89-1.68,1.84-2.64,2.63-3.42,4.04-7.18,7.81-11.05,11.43-.56-.34.02-1.1.29-1.46.49-.65,1.43-.99,1.7-1.31.04-.04-.09-.44.44-.85.67-.52.66-.06.98-1.16l9.19-9.77c-1.53-.26-3.29-.1-4.88,0-.85,1.23-2.02,2.15-3.04,3.21-2.47,2.56-5.12,5.35-7.51,7.92-.29.31-1.79,2.03-1.77.78.43-.22.41-.67.79-1.17,2.51-3.35,5.86-6.13,8.6-9.18.47-.52.84-1.11,1.36-1.57h-4.69s-2.99,3.36-2.99,3.36c-5.04,4.86-9.64,9.94-14.59,15.2-1.91,2.03-4.06,3.88-5.74,6.15.15,1.31-.17,2.69-.13,3.99.01.29-.15.58.29.5l6.34-6.95c1.8-1.44,3.34-3.63,4.96-5.29.19-.2,1.39-1.13,1.69-.94-1.44,2.86-4.2,4.98-6.35,7.32-1.61,1.75-3.14,3.61-4.77,5.38-.6.65-1.26,1.27-1.96,1.8.01,1.52-.32,3.07.1,4.55l9.67-10.25.29-.11c.75-.16-.13,1.25-.29,1.47-1.58,2.16-4.63,4.95-6.55,6.93-1.1,1.14-2.24,2.26-3.32,3.42v4.98c.76-1.2,2.07-2.03,2.96-3,1.64-1.78,3.16-4.02,4.94-5.7.16-.15.87-.73.99-.18.17.83-1.75,2.26-2.26,2.83-2.19,2.44-4.17,5.1-6.73,7.17l.09,5.14,7.76-8.17.74.16c-1.46,1.83-3.09,3.49-4.68,5.23-1.09,1.2-2.04,2.12-3.14,3.26-1.51,1.56-.27,3.68-.77,5.57.37.07.56-.26.79-.48,1.77-1.7,3.4-3.67,5.2-5.45.88-.86,1.43-1.96,2.61-2.57.34-.18.37-.04.58.2l-6.87,7.67-.35-.15c.4.99-1.44,1.49-1.86,2.36v4.68c.25.34.28.07.49-.1,2.86-2.3,5.06-5.91,7.91-8.3.22-.18.32-.47.68-.39-.08.55-.08.77-.42,1.24-2.17,2.97-5.88,6.02-8.27,8.91-.22.27-.46.55-.59.88.15,1.36.04,2.74.1,4.11.01.22-.13.54.19.48.59-1.3,2.1-2.2,3.06-3.19,1.28-1.33,2.4-2.7,3.69-3.82.66-.57,1.53-2.01.77.18l-7.72,8.15v7.29s1.47-1.17,1.47-1.17c.44,1.1-1.33,1.93-1.45,2.84-.15,1.14-.15,2.9-.17,4.09-.02,1.26.28,3.12.18,4.31-.04.46-.42.19-.42.38.62.12.63,1.23,0,1.37l.39.21v5.94s-.59,0-.59,0l.41.31-.21,1.05c2.29-.03,4.58.06,6.84.39-1.18-1.6-1.96-2.55-2.13-4.61-.27-3.41.67-5.72,2.72-8.32s5.09-5.28,8.58-5.81c.43,2.05,1.78,3.89,3.2,5.4,2.85,3.02,6.4,4.73,10.13,5.39.7.12,1.34.48,2.11.34-.61-.72-2-.87-2.93-1.27-4.23-1.84-8.61-5.09-11.19-8.93-.52-.77-.69-1.57-1.22-2.3-1.67,1.01-3.73,1.3-5.51,2.11-.41.19-1.35.58-1.61.73-.9.49-1.07,1.46-2.61,1.03-1.69-.48,1.16-1.93,1.54-2.19.26-.17.97-.74,1.19-.85,2-1.07,4.15-1.75,6.31-2.39l-1.27-5.05c-1.54.55-3.23.04-4.7.75l-.28-.39c.02.14.04.34-.13.39-.46.13-3.28.6-3.69.59-.28,0-.51-.05-.69-.28l-.37-1.29,1.37-.39.19.39c.07-.85.53-.38.85-.47,2-.52,4.59-.76,6.68-.9.24-.02.46.12.68.2-.04-4.93-.29-10.22,2.46-14.56-2.83-8.68-3.42-19-2.24-28.11.2-1.52.57-5.29,2.41-5.42,1.02-.07,2.77,1.21,3.68,1.8,4.97,3.25,9.83,8.04,13.51,12.28.69.79,1.27,1.69,1.96,2.49,2.79-1.36,5.59-1.8,8.64-2.27.91-.14,2.27-.05,3.06-.23.16-.04.07-.37.42-.4,1.46-.13,4.4.17,5.96.32.66.06,3.64.75,3.93.57,1.1-.7,1.19-3.23,2.73-3.41l-.39-.29,2.28-3.76c1.83-1.88,3.26-4.17,5.04-6.11,1.22-1.33,5.42-5.56,6.83-2.52,1.6,3.45,3.04,8.56,3.58,12.32.11.78.32,1.72.44,2.44.27,1.69.43,5.89.38,7.99-.04,1.54-.45,3.1-.54,4.65.71.9,1.63,1.43,2.31,2.39,1.43,2.02,3.41,6.45,4.06,8.83.17.63.05,1.55.33,2.21l9.68-1.37c-.04.46.21,1.35-.32,1.53l-4.25.63-.31-.41c0,.25-.09.44-.33.55-.66.29-4.24.72-4.55,1.03.3,1.34.61,2.94.19,4.28.84-.27,1.67.26,2.28.33,1.19.13,2.67-.03,3.85.1.41.04,3.52.62,3.62.77v1.31s-9.76-.47-9.76-.47c-.65,2.12-1.12,4.37-1.99,6.42-.57,1.36-2.08,3.87-2.98,5.03-1.03,1.34-2.8,2.51-4.01,3.7,1.15,0,2.2.22,3.32.49,7.2,1.71,19.56,6.82,18.12,15.98-.19,1.22-.52,2.32-1.32,3.27.6-.19,1.19-.05,1.8.06,3.59.66,7.61,2.91,10.32,5.31,2.03,1.8,3.76,4.01,5.4,6.15.14-.1.98-.19,1.01-.23.09-.11.05-.45.22-.64.49-.56,1.33-1.25,1.74-1.79,1.93-2.54,2.77-5.81,2.54-8.96-.98-1.23-1.84-2.74-3.28-3.53-1.34-.73-3.85-.46-5.44-.82-4.78-1.08-5.26-6.33-2-9.53,5.49-5.39,14.68-2.52,18.84,3.05,2.26,3.02,3.87,7.42,3.83,11.21-.04,4.06-1,8.58-3.32,11.94-1.17-.34-2.39-.56-3.62-.58-4.38-.1-6.97,1.55-10.15,3.99-2.9,2.22-1.81,1.27-3.2-1.3-3.47-6.47-8.19-11.2-15.29-12.49-5.79-1.05-8.1.72-13.28,2.56-1.73.62-4.81,1.95-6.54,1.97-1.86.02-2.27-2.12-1.89-3.56l1.31-2.99c-2.08,1.49-2.84,3.52-2.25,6.06-.79.37-3.08-1.07-3.2-1.78-.18-1.13.19-2.54.68-3.57.29-.6.68-.86.93-1.26.05-.08.41-.77-.08-.62-1.44,1.25-2.31,2.78-2.84,4.58-.42.79-.96-1.44-.98-1.74-.09-1.34.58-3.6,1.48-4.6.51-.55.36-.32.89-1.06s2.86-2.44,3.72-2.92c3.97-2.25,8.27-2.83,12.67-3.64.07-.33-.1-.4-.3-.58-1.5-1.45-2.5-1.84-4.28-2.76-.4-.21-.53-.33-1.13-.61-1.59-.75-3.22-1.76-5.04-1.71.28.69,1.08.69,1.63,1.01.89.52,1.89,1.17,2.73,1.76.39.27,2.55,1.72,2.48,2.01-.9.59-2.19.6-3.28.83-3.55.76-9.3,3.74-11.45,6.91-.56.82-1.15,2.73-1.35,3.66,0,.04-.31.03-.3.12.11,4.37,4.19,7.2,8.22,7.81,1.59.24,3.99-.39,5.52-.87l.3.4c0-.84.86-.53,1.08-.63,5.49-2.63,9.97-4.59,16.29-3.15s11.15,8.67,13.57,14.73c.12.3.07.98.35,1.35.65.14.92-.51,1.37-.86,1.65-1.28,3.07-2.76,4.97-3.82s4.91-2.28,7-2.07c2.2.22,5.38,1.25,5.6,3.84-2.96-1.66-5.19-.39-7.78,1.11-.11.06-.77.07-.42.45.39.42,1.06-.37,1.51-.54,1.93-.73,6.48-1.58,6.9,1.41.54,3.85-2.73,6.08-5.19,8.32-2.89,2.63-8.04,7.44-11.96,8.16s-5.74-1.21-9.03-2.99c-4.04-2.19-7.93-4.13-11.98-5.83-.48-.2-1.28-.37-1.58-.54-.33-.18-.2-.57-.51-.55l-.2.78c.93.08,1.55,1.02,2.32,1.49,1.2.74,2.64,1.28,3.87,1.99,3,1.75,5.94,3.59,8.97,5.3l-.51.88-4.88,2.84,21.27-.03c.06-.29.1-.53.3-.77.91-1.07,2.51-2.29,3.52-3.33,2.92-2.99,5.7-6.13,8.51-9.22.22-.25.89-.3,1.13-1.06.01-12.37.08-24.72.05-37.08,0-1.69.07-3.38.07-5.07,0-1.13-.32-2.28-.08-3.42-.35-.09-.39.13-.58.31-1.01.97-1.94,2.22-3,3.14-.37.32-1.09.32-1.11,1.05-1.02-.62.11-.93.49-1.37.32-.38.74-1.27,1.07-1.66.85-.97,2.07-1.8,2.93-2.8v-4.73s-7.62,7.92-7.62,7.92l-.29.09-.3-.49c2.76-3.07,5.22-6.42,8.34-9.13l.06-5.23c-.32.08-.33.57-.58.88-1.58,1.94-3.86,3.99-5.6,5.83-1.49,1.58-3.76,4.65-5.43,5.8-.19.13-.34.24-.59.19-.17,0-.13-.36-.11-.5.04-.25,2.64-2.75,2.93-3.32,1.07-.81,1.73-2.01,2.65-3.02,2.14-2.35,4.56-4.46,6.56-6.93l.18-4.79-.98.67c-4.95,5.55-10.12,11.07-15.13,16.73l-1.08.67c.13-.82.85-1.7,1.37-2.34,4.21-5.16,9.46-10.49,14.06-15.44.74-.8,1.59-.88,1.72-2.15.11-1.09.06-4.43-.04-5.56-.02-.22-.04-.65-.2-.79-1.87,2.08-3.59,4.43-6.03,5.89-13.94,8.35-31.74,1.25-35.21-14.68-2.27-10.43,2.43-20.74,11.29-25.81,8.71-4.99,21.26-2.39,28,4.89.28.3,1.74,1.88,1.81,2,.19.3-.24.88.43.74v-20.9s-3.84,3.39-3.84,3.39c-.79,1.1-2.16,2.71-3.29,3.45-.26.17-.44.2-.49-.1-.07-.42,3.33-4.19,3.98-4.61.62-1.33,3.47-3.1,3.65-4.36.15-1.09-.32-2.21,0-3.23l-1.86-.02c-3.12,2.83-5.67,6.19-8.59,9.21-.41.43-1.67,1.76-2.04,2.06-.27.21-.41.35-.8.28-.2-.76.5-.93.72-1.23,2.38-3.28,5.46-6.11,8.15-9.14.14-.16,1.05-1.22.9-1.35ZM20.51,16.7h-4.69c.31,1.48.03,3,.1,4.5l4.59-4.5ZM25.98,16.7h-3.61c-.24,0-.76,1.04-.96,1.19-.35.25-.76.12-.89.19-.02,0,.14.26.07.38-.42.7-2.52,2.57-3.29,3.33-.32.31-1.01.62-1.18.97-.21.45-.24,4.68,0,4.69.45-.98,1.34-1.48,2.06-2.24,2.36-2.5,4.64-4.74,6.62-7.04.41-.48.99-.81,1.19-1.47ZM37.7,16.7h-4.1s-.05.38-.28.59c-4.4,4.19-8.54,8.76-12.7,13.2-1.45,1.54-3.07,3.01-4.51,4.58l-.3,5.27,21.88-23.64ZM131.29,35.65c-.87-.34-.42-.04-.78.29-.25.23-1.41.96-1.37,1.17.2,1.12,2.31-1.31,2.15-1.46ZM128.75,35.65c-1.41.24-2.62,1.47-3.52,2.54,1.41-.52,2.49-1.46,3.52-2.54ZM134.22,35.85l-.98.1-1.36,1.47c1.26.1,1.58,0,2.2-.99.13-.21.2-.28.14-.57ZM123.95,37.5c.2-.2,1.57-1.15,1.29-1.45l-2.05,1.16-2.05,2.55c1.08-.59,1.95-1.43,2.81-2.26ZM136.41,36.6l-.13-.36-1.47,1.46c.97.68,2.24-.18,2.15-1.27l-.55.17ZM139.5,37.41c-.83-.36-1.21-.19-1.74.5-.49.64-.12.85.57.78l1.18-1.28ZM120.74,38c-.9.01-1.65.77-2.25,1.37l-.29-.39c0,.19-.01.42-.12.57-.78,1.04-2.35,2.07-3.2,3.1-.45.54-.94,1.32-1.17,2,.21.22,3.62-3.3,3.98-3.64s1.36-1.03,1.67-1.35c.48-.49.89-1.15,1.38-1.65ZM140.29,40.14l1.09-1.36-.44-.58-1.44,1.26c.23.33.85.16.78.68ZM145.95,49.52c-1.76-4-5.13-7.22-9.18-8.89-4.55-1.88-7.43-1.57-12.07-.14-.21.06-.5-.16-.6-.11-.16.07-2.28,1.45-2.66,1.72-8.53,6.02-9.81,18.79-2.35,26.19,8.06,7.99,21.18,5.9,26.26-4.43.23-.47,1.03-1.84.6-2.21-1.51.25-2.99-.4-4.45-.73-.63-.15-2.22-.04-2.19-.64l-.31.39c-3.41-.27-7.39.98-10.23,2.84-.94.62-3.65,3.27-4.46,3.38-.7.1-1.44-1.05-1.13-1.72.1-.22,2.29-2.16,2.66-2.43,4.82-3.62,10.32-5.2,16.27-4.03.2.04.11.37.13.39h.38s.09-.38.09-.38c.76.12,1.76.75,2.39.91.33.08,1.08-.27,1.53.26.4-.03.32-1.76.37-2.21.04-.4.31-.75.32-1.2,0-.57-.29-1.54-.4-2.14l.4-.2c-.63-.24-.35-1.76-.42-1.83-.24-.24-3.85-1.13-4.5-1.25-.99-.19-2.21-.4-3.2-.48-.59-.05-1.36.51-1.54-.24-4.64.58-9.31,2.21-12.73,5.54-.65.63-1.72,2.83-2.82,1.6-1.35-1.52.94-3.03,1.87-3.83,4.59-3.95,10.15-5.94,16.41-5.27.74.08,5.35,1.35,5.57,1.17ZM143.99,40.15l-1.07-.53c-.27.15-1.53.98-1.27,1.31.48.04.71.15.88.59l1.47-1.36ZM88.27,40.54l-8.51,10.42.48.39,8.51-10.42-.48-.39ZM34.18,41.32c-.68,0-.83.84-1.36,1.13l-1.57,2.19c1.18-.91,2.13-2.07,2.93-3.32ZM144.19,43.27c.35.24,1-1.11,1.36-1.27-.79-1.08-1.24-.69-1.94.22l.58,1.05ZM147.09,43.49s-.62-.37-.66-.37c-.26,0-1.52,1.14-.69,1.82.42.34.79-.89,1.28-.88.11-.15.16-.41.06-.57ZM146.85,46.05c.09.17-.07.74.54.73.83-.74,1.23-1.34.21-2.14l-.49,1.09-.58-.12c-.18.49.28.36.32.43ZM38.3,44.78l-6.46,8.02.47.38,6.46-8.02-.47-.38ZM89.28,45.03l-1.66,1.56c-.72.9-1.4,1.86-2.15,2.74s-1.87,1.58-2.25,2.73l2.88-2.78s-.13-.26-.09-.3c1.07-1.26,2.33-2.53,3.27-3.95ZM113.44,48.48l1.64-3.06c-1.85,1.42-3.63,2.87-4.1,5.28.57-.68,2.02-1.58,2.46-2.22ZM149.27,47.18c-.27-.2-1.18.86-1.34,1.11l.37,1.23c.75-.68,1.4-1.27.97-2.34ZM39.07,49.53c-.42-.1-.52.09-.78.3-.62.49-1.1,1.38-1.57,1.94-.73.87-1.52,1.69-2.14,2.64.37.08.48-.2.69-.39.83-.76,1.38-1.75,2.08-2.61.52-.63,1.21-1.23,1.72-1.88ZM150.21,51.04c.14-.13.28-.79.22-1.01l-.47-.32c-.6.6-1.28.98-1.08,1.95,1.06.09.85-.61.97-.69.06-.04.31.1.36.06ZM90.26,50.11c-1.93.62-2.67,2.97-4.1,4.29.36.08.48-.19.69-.39,1.2-1.13,2.21-2.75,3.41-3.9ZM110.39,54.41c1.34-.92,2.11-1.85,2.34-3.52l-2.29,1.99-.05,1.52ZM37.62,58.44l5.16-6.57-2.35,2.78c-1.33,1.23-2.65,2.62-3.54,4.23l-.35-.16c0,.83-1.21,1.02-.9,1.94l1.97-2.22ZM150.83,52.26l-.97.68c-.5.54-.7,1.11-.59,1.86l1.03-.78c.35-.66.72-.91.53-1.76ZM63.1,52.85c-.2-.19-.65.41-.77.55-.23.26-.38.61-.61.86-.56.6-1.26,1.13-1.82,1.72-.2.22.03.2.17.38,1.19-1.03,2.29-2.1,3.03-3.51ZM72.29,54.21l-1.47,1.36-1.85,2.35c.35.08.47-.19.69-.38.27-.24,2.78-3.17,2.63-3.33ZM111.52,57.28c.63-.54.32-1.57.24-2.28-.79.2-.56,1.43-1.76,1.37l.4.3c-.2.54-.43,1.21.09,1.65.07.03.43-.82.6-.98s.38-.02.43-.06ZM150.98,56.72c.13-.14.1-1.26-.05-1.53-1.09,1-1.78,1.54-1.66,3.13.51-.47.97-1.17,1.76-1.17l-.39-.39c.1,0,.28.03.34-.04ZM80.41,58.43l1.64-2.07-3.12,3.23.1.29c.48-.46.93-.96,1.38-1.45ZM46.24,58.86c.09-.18.06-.35.05-.54-.77.72-1.67,1.62-2.34,2.45-.15.19-.92,1.12-.79,1.26l2.28-2c-.21-.55.71-1.03.79-1.17ZM48.71,59.56l1.1-.95c.04-.46-.06-.25-.35-.15-.64.22-.87.89-1.3,1.44-.33.41-.97.45-.89,1.35l1.44-1.69ZM112.3,59.45c-.02-.36-.15-1.36-.75-1.04-.97.51-1.04,1.5-.77,2.45l1.52-1.4ZM151.03,58.51l-1.95,1.66c.18.44,1.36.02,1.72.05l.23-1.71ZM83.03,59.88l-1.26.78c-.54.38-1.47,2.11-1.68,2.34-.02.02-.26-.18-.34-.13-.3.18-.92,1.2-1.14,1.49s-.8.56-.86,1.18l1.11-.85,4.17-4.82ZM112.53,61.06l-.39.12c-.66.78-1.02.87-.97,2.03.41.37,1.63-1.22,1.95-1.46l-.59-.68ZM87.72,61.25l-.63.44-2.3,2.88c.69.01,3.11-3.14,2.93-3.32ZM148.02,65.85c.41-.43,2.65-2.71,2.23-3.24-1.61.72-2.59,2.32-3.77,3.56l-.82,1.91c.71-.82,1.62-1.45,2.36-2.23ZM112.34,65.74c.95-.32,1.9-1.31.88-2.14-.82.54-1.34,1.12-.88,2.14ZM50.4,63.79l-1.73,1.52-.22.62c.7-.78,1.62-1.01,1.95-2.15ZM70.14,65.55c-.52-.11-.43.04-.65.24-.18.17-1.6,2.01-1.5,2.1.41.1.44-.23.63-.44.51-.57,1.08-1.27,1.52-1.9ZM115.27,67.1l-.88-.94-1.27.75.59,1.36,1.56-1.18ZM146.67,69.97c.12-.14.11-.44.25-.61.47-.59,1.41-1.13,1.28-2.05-2.21,2.38-4.81,4.42-6.74,7.03.21.18,1.97-1.33,2.24-1.57.82-.71,2.29-2.02,2.97-2.8ZM115.96,68.28l-1.27,1.07.88.87,1.03-1.27-.64-.68ZM42.98,69.45c-.29-.26-.5.13-.64.24-.24.21-1.42,1.17-1.12,1.51.44.06,1.96-1.57,1.76-1.76ZM118.34,70.49c-.11-.13-.77-.54-.91-.45-.23.85-1.45,1.16-.27,1.94l1.36-.96c.09-.17-.06-.41-.17-.53ZM142.36,71.92c.17-.15.98-.83.76-1.1-2.58,1.85-5.45,3.43-7.33,6.05,2.63-.32,3.93-2.73,5.69-4.37.26-.25.62-.35.89-.58ZM91.02,71.23c-1.96-.78-2.57,1.54-4.05,2.45s-3.52.94-5.2.85c-1.55-.08-2.56-.42-3.81-1.28-.48-.33-.28-.81-1.3-.86-2.11-.1-.42,2.3.52,3.01,2.96,2.23,8.18,1.55,11.29.05.88-1.35,2.86-2.32,2.56-4.22ZM120.24,72.31c-.14-.16-.2-.38-.39-.5-.44-.12-1.18.94-1.43,1.26l.78.66.27.02,1.07-1.08c.12-.36-.2-.24-.3-.36ZM123.28,73.75c-1.37-.55-1.73-.27-2.73.68.93.9,2.15.36,2.73-.68ZM124.9,74.66c-.08-.03-.05-.34-.15-.32l-1.66,1.56c.6.17,1.92.36,2.31-.23.03-.04-.35-.38.42-.65-.23-.33-.59-.23-.91-.37ZM52.76,80.77c2.05-.45,6.97-2.61,6.92-5.05-.01-.65-.86-1.42-1.57-1-.51.3-1.57,1.94-2.38,2.5-2.57,1.8-7.84,1.43-10.46-.33-.57-.39-1.02-1.62-2.24-1.04s.09,1.9.72,2.5c1.31,1.26,2.54,1.53,4.22,1.89.1.02.07.34.17.33,1.52-.1,2.97.18,4.53-.16l.1.36ZM135.98,74.73c-1.63-.12-2.89,1.07-3.71,2.34l1.75.2c-.35-.62,2.38-2.19,1.96-2.54ZM128.36,75.12c-1.13-.27-1.86.81-2.54,1.56,1.43.3,2.19-.11,2.54-1.56ZM132.27,75.32c-1.7,0-2.48.49-3.52,1.76l1.75-.11,1.76-1.65ZM72.61,80.91c.26-.35.98-1.56.81-1.95-1.28-1.41-4.02-1.3-5.72-.86-.1.03-.08.24-.19.28-1.5.55-2.51.63-1.39,2.53.54.92,1.66,1.03,2.1,1.8l.75-.17c1.03,2.42.56,6.31-2.3,7.18-1.7.52-3.02.18-4.44-.52-.77-.38-1.64-1.47-2.54-.6-.62,2.73,3.94,3.44,5.86,3.27,1.18-.1,3.08-.61,3.65-1.68l.35.16.89-1.75c.18-.01,2.32,1.56,2.77,1.68,2.59.69,4.91-.41,6.51-2.38.29-.36.76-.16.6-1.05l.57-.02-.22-.67.41-.21-.9-.89c-.44.12-.85.27-1.24.52-.74.47-.45,1.35-1.11,2.01-1.22,1.23-5.01,1-6.04-.38-.59-.79-1.2-4.37-.58-5.07.24-.27.6-.26.74-.38.04-.04.54-.72.65-.86ZM95.15,80.2c-.19-.19-1.26.98-1.43,1.19-.26.32-.69.73-.71,1.15l1.76-1.66.39-.68ZM78.86,81.89c.18-.22.37-.52.5-.77.08-.15.41-.63-.04-.43l-2.34,3.03c.14.14,1.71-1.62,1.88-1.83ZM48.91,91.8c.15-.2,1.19-.81.51-1.24l-1.96,2.73c.32.29,1.26-1.24,1.44-1.49ZM82.05,105.21l-1.89,1.6-.26.93c.57-.61,1.22-1.22,1.76-1.86.18-.22.47-.32.39-.68ZM52.16,106.97c-.18-.17-1.41,1.02-1.17,1.37l-.36-.16-1.4,2.11,1.75-1.66,1.18-1.66ZM58.61,109.9c-.26-.29-.86.69-.77.88l-1.96,2.25c.85-.25,1.14-1,1.65-1.58.39-.45,1.1-.64,1.08-1.55ZM101.85,112.32c.28-.33,1.31-.72,1.01-1.44l-2.83,2.93c.72.04,1.23-.6,1.68-1.06.08-.08.05-.33.14-.43ZM29.3,157.18h4.88c.25-.46.85-1.15,1.26-1.57,3.54-3.61,6.73-7.31,10.35-10.85.48-.47,2.49-2.44,2.94-2.42.59.03-.21.89-.31,1.01-3.36,4.27-8.35,8.54-12.1,12.56-.35.38-.63.89-.98,1.27h5.45c.03-.25.06-.48.21-.68,1.47-2.04,3.54-3.7,5.28-5.47.75-.76,4.13-4.67,4.79-4.79.75-.13-.22.98-.39,1.18-2.5,3.07-5.72,5.76-8.3,8.69-.28.32-.51.74-.79,1.08h5.86c-.52-.8.48-.77.72-1.03.16-.17.5-.86.83-1.21.41-.44,5.81-6.1,6.06-5.76.09.77-.76,1.56-1.27,2.15-1.46,1.69-3.47,3.66-5.07,5.29-.18.19-.43.36-.7.38.08.47,1,.06,1.3.07,1.41.04,2.8.3,4.23.13,1.5-1.61,2.91-3.45,4.73-4.7.23.2-.17.84-.3,1.03-.58.87-1.71,1.72-2.44,2.5-.27.28-.78.81-.87,1.17h4.59c.11,0,1.29-1.36,1.76-1.37l.04.73-.72.64c.23.02.47-.13.69-.1.83.13,1.83.18,2.75-.08l.16.36c1.72-.29,3.61-.42,5.31,0l.2-.38,1.25.11c-.73-.9-1.85-1.56-2.67-2.32-2.84-2.63-6.22-6.06-8.55-9.13-1.24-1.64-2.19-3.52-3.44-5.16-4.72-6.21-12.09-10.27-19.86-11.21-1.95-.24-4.03.07-5.99-.06-.42-.15-.69-.96-.44-1.35,4.26-.8,8.64-.19,12.77.93l6.49,2.99c-.05-.3-.42-.3-.59-.53-1.13-1.49-4.41-7.17-5.71-7.73-1.07-.46-2.51-.72-3.66-1.21-4.59-1.96-8.14-4.09-12.37-6.58-3.3-1.94-7.1-2.36-10.87-2.3l-.2,8.79,5.96-5.47.29.29-5.95,6.55-.1,4.69c2.62-2.07,4.85-4.6,7.12-7.05.67-.37,1.05-.34.9.46l-5.61,5.47c-.24.57-1.35,1.89-1.83,2.19-.19.12-.53-.15-.68.09.22.52-.2.87-.2,1.19,0,.35.22.81.23,1.23.01,1.14-.09,2.3.07,3.45.78-.77,1.79-1.47,2.55-2.24,1.16-1.17,2.39-2.7,3.54-3.89,1.76-1.82,3.48-3.69,5.34-5.39l.24.84c-1.31,1.41-2.73,2.73-4.04,4.15-.54.58-1.04,1.33-1.64,1.97-1.93,2.07-3.99,4.04-5.89,6.13l-.29,5.47c.54-.75,1.46-1.19,2.08-1.82,1.61-1.65,3.2-3.71,4.85-5.41.6-.62,3.87-4.03,4.3-4.1.68-.12.04.83-.1,1.02-.95,1.29-3.02,3.4-4.2,4.65-2.24,2.39-4.78,4.48-6.83,7.04l-.1,5.26c5.2-5,9.84-10.53,14.86-15.7.36-.37.38.49,0,.96-4,4.98-9.34,10.77-13.87,15.43-.22.22-.47.23-.74.33l-.15,5.43,1.02-.45c4.15-5.48,9.49-10.39,14.26-15.25,1.19-1.22,2.63-3.15,3.89-4.22.22-.19,1.18-.72,1.07-.11l-20.32,21.78,5.66-.1c1.2-1.79,2.91-3.22,4.4-4.78,4.67-4.88,9.28-10.1,14.29-14.52.38-.33.72-1.42,1.44-1.02-1.25,1.92-3.03,3.49-4.59,5.18-3.08,3.33-6.28,6.52-9.53,9.77-.18.18-.19.58-.53.84-.25.19-.56.12-.58.14-.03.02.28.36.02.69-.16.21-.65.4-.91.67-.93.96-1.77,2.01-2.83,2.84l.87.39,4.68-.31c1.76-1.76,3.29-3.77,5-5.55,3.41-3.57,7.78-8.53,11.43-11.63.15-.12,1.19-1.11,1.28-.48.05.35-1.29,1.8-1.63,2.18-4.36,4.85-9.29,9.26-13.6,14.2-.36-.1-1.41,1.28-1.18,1.5ZM75.8,114.2c-.33-.29-2,1.98-2.54,2.05.28.32.32.41.69.11.6-.49,1.26-1.58,1.85-2.15ZM65.45,115.18c-.19-.21-1.15.82-1.29.98-.23.26-.1.49-.14.54-.19.24-1.03.42-.91,1.02.18.18,1.56-.94,1.17-1.37l.58.19-.2-.58c.57.12.77-.24.78-.78ZM141.84,115.56v-.39s-3.32,3.12-3.32,3.12c1.51-.2,2.18-2.1,3.32-2.74ZM70.33,115.96l-1.89,1.41c.28.49-.39.39-.65.83l-.98,1.66,1.95-1.91,1.56-1.99ZM141.06,119.28c-.23-.2-1.54,1.22-1.77,1.46-.13.14-1.08,1.16-.97,1.27l1.35-.9,1.39-1.84ZM73.37,121.15c.1-.17.5-.5.19-.7-.16.39-.54.54-.75.78-.04.04-.52.65-.61.78-.12.17-.95,1.49-.88,1.56.63-.21.75-.96,1.08-1.37.27-.34.68-.56.98-1.06ZM64.27,122.41c-.43-.11-.43.25-.63.45-.73.77-1.27,1.76-1.91,2.53-.46.55-1.54,1.08-1.57,1.91.41-.17,1.14-1.35,1.41-1.51.08-.04.32.15.34.14.03-.04.12-.62.35-.93s2.29-2.29,2.01-2.58ZM66.59,124.72l-.06-.75-2.25,2.73c.26.25,1.47-1.56,1.62-1.7.2-.19.58-.16.7-.28ZM107.65,125.73c-.14-.13-.95.51-1.1.65-.91.83-1.99,2.5-2.79,3.17-.37.31-.91.1-.8.67,1.08-.11,1.8-1.51,2.53-2.25.11-.12,2.38-2.04,2.16-2.24ZM114.49,126.12c-1,.08-1.41,1.1-2,1.7-.04.04-.27-.13-.31-.1-.17.13-.44.88-.82,1.03.41.51.28.18.52-.03.93-.82,1.72-1.74,2.6-2.6ZM67.31,128.38c.1-.17.5-.5.19-.7-.78.99-1.8,1.77-2.64,2.69-.42.46-1.11,1.17-1.47,1.6-.23.29-.69.68-.19.98.6.07-.06-.29.27-.69.2-.24.71-.45,1.01-.77.7-.72,2.46-2.5,2.83-3.12ZM103.94,133.15l-.09-.39c-.69,0-3.21,3.33-3.03,3.51.72.1.98-1.35,1.2-1.54s.29-.19.75-.69c.23-.24.89-.8,1.17-.9ZM93.78,133.34l-.39-.29c-.51.39-.84.96-1.24,1.41-.07.08-.36.02-.45.11-.1.1-.41.9-.45,1.12.42-.62,1.15-.88,1.65-1.38.28-.28.26-.98.89-.97ZM97.3,133.74l-1.57,1.48-.58,1.06c1.03.03.63-.59.82-.93.11-.19,1.41-.97,1.32-1.61ZM70.72,137.25l1.66-1.56.87-1.37c-.33.17-2.67,2.79-2.54,2.93ZM68.57,136.47c-1.54.31-2.14,1.77-2.93,2.93l2.93-2.93ZM143.02,138.62c-.51-.21-.34.4-.5.4-.44.01-1.03-.31-1.76-.21-1.28.16-3.16,1.58-4,2.55.24.21,1.58-.94,1.95-1.08.78-.31,3.11-.73,3.94-.56.57.12,1.03.41,1.54.66.17-.17-.62-.89-.7-.95-.18-.14-.44-.2-.67-.22l.2-.58ZM85.57,138.82l-1.33.62c.29.73-1.37,1.02-.53,1.73.25-1.03,1.32-1.47,1.86-2.34ZM81.47,139.21c-.46-.39-2.61,2.63-2.94,3.03s-.96.77-1.17,1.46c.37.08.48-.2.69-.39,1.26-1.15,2.21-2.85,3.41-4.1ZM99.72,142.62c.33-.34,1.29-.77.99-1.26-.47.26-4.22,4.09-4.01,4.3l1.38-1.06c.51-.69,1.04-1.36,1.63-1.98ZM115.66,141.75c-.36-.08-.48.19-.69.39-.77.73-1.47,1.61-2.24,2.34.51.12,3.08-2.6,2.93-2.73ZM149.86,144.29l-12.89,13.09c1.77-.6,3.64.07,5.47-.29,2.16-2.83,4.88-5.15,7.28-7.77l.15-5.03ZM72.48,144.48c-.17-.17-.82.59-.97.74-.17.18-1.34,1.45-1.18,1.6l.66-.41,1.48-1.93ZM80.69,146.83c-.74-.13-.69.53-.85.7-.79.83-1.71,1.58-2.27,2.62.21.19.73-.42.88-.58.76-.79,1.59-1.84,2.24-2.74ZM149.86,155.33c.05-1.43,0-2.87,0-4.3,0-.04-.31-.35-.39-.29-.14.35-1.95,2.35-2.15,2.46-.25.13-.52-.14-.78-.11l.31.58-3.24,3.23,1.85.3c1.01-.27,3.01.21,3.87-.04.64-.18.51-1.2.53-1.83Z"/>
    </g>
  </g>
</svg>