<?xml version="1.0" encoding="UTF-8"?>
<svg id="Layer_2" data-name="Layer 2" xmlns="http://www.w3.org/2000/svg" viewBox="0 0 177.18 174.02">
  <g id="Layer_1-2" data-name="Layer 1">
    <g>
      <path d="M62.3,28.95c-.69-.48-.29-6.89-.4-8.04h-8.44c.08,1.83.51,4.87.19,6.61-.08.45-.73,1.12-1.16.78-.62-.48-.23-7.36-.27-8.54l.76-.5c2.75.29,5.52-.19,8.25-.05.42.02,1.74.05,1.93.33l.18,8.73c.06.5-.68.89-1.03.65Z"/>
      <path d="M143.32,70.84h4.51s0,9.73,0,9.73h-4.51s0-9.73,0-9.73ZM146.48,72.13h-1.6s-.23.38-.23.38l-.09,6.91,2.06-.47-.14-6.82Z"/>
      <path d="M143.64,67.86l-.41-9.04c.08-.23.25-.28.47-.32.25-.04,3.42-.01,3.59.04.19.06.33.18.43.35l.07,8.7c-.21.7-3.5.65-4.16.27ZM146.48,66.76v-6.62s.29-.22.19-.29l-2.09.02.18,6.38-.39.22,2.11.29Z"/>
      <path d="M150.54,75.61c.08-.09.38.05.35-.13.03-.18-.28-.04-.34-.13-.13-.2-.23-3.92.13-4.29.64-.65.96-.02,1.45.02.45.03,2.26-.51,2.6-.03.16.17.16.37.19.59.19,1.52.12,5.45,0,7.11-.03.46-.18,1.74-.58,1.92-.8-.43-3.09.35-3.67-.38-.2-.25-.29-4.51-.14-4.69ZM153.56,72.14l-1.9-.02v7.09s1.91,0,1.91,0v-2.36s.4-.22.4-.22l-.39-.22v-4.27Z"/>
      <path d="M154.7,58.73v8.66c-.34,1.14-3.13.72-4.08.54l-.02-9.04c.13-.26.31-.3.57-.35.47-.1,3.36-.09,3.53.19ZM153.38,59.85h-1.73s-.13,6.63-.13,6.63c.4.68,1.21.17,1.85.28v-6.9Z"/>
      <path d="M20.64,146.77l.11.32c.74-.18,2.32.3,2.98.71.14.09.17.4.22.44.05.03.55-.17,1.09-.04,2.93.72,8.1,3.19,11.1,4.44,2.24.94,5.82,2.19,7.78,3.34.29.17.59.32.53.72-.88.29-1.71-.13-2.54-.43-6.44-2.29-13.43-5.51-19.76-8.24-.29-.13-1.94-.59-2.05-.73-.1-.29.3-.73.55-.54Z"/>
      <path d="M52.5,150.95s-.51.12-.64.13l-18.16-6.35-.19-.68c.5-.16.85-.23,1.39-.15,2.13.31,7.15,2.38,9.45,3.21,1.17.43,7.51,2.68,7.95,3.18.16.18.32.48.2.67Z"/>
      <rect x="126.93" y="145.26" width="31.94" height=".86" transform="translate(-61.15 142.36) rotate(-44.62)"/>
      <rect x="139.27" y="89.93" width="18.45" height=".84" transform="translate(-20.4 131.42) rotate(-44.99)"/>
      <path d="M17.85,127.81c-.29.28-.52.84-.93,1.08-.4.16-.45-.71-.3-.86l11.91-11.41.02.87c-3.66,3.35-7.1,6.91-10.69,10.33Z"/>
      <rect x="136.24" y="88.62" width="16.68" height=".82" transform="translate(-20.93 126.94) rotate(-44.52)"/>
      <path d="M135.16,82.29l-.28.77-6.15,6.13-.28-.38c.08.82-1.01,1.68-1.63,2.3-1.03,1.01-2.32,1.93-3.26,3.08h-.58c-.31-.53,2.98-3.17,3.46-3.64,2.47-2.42,5.34-5.87,7.97-7.94.22-.18.43-.36.75-.31Z"/>
      <path d="M136.89,85.94c.04.41-.12.76-.38,1.06-.91,1.05-2.69,2.39-3.76,3.44-1.78,1.76-3.68,3.95-5.52,5.6-.25.22-1.81,1.44-2.04,1.22-.03-.27.09-.51.25-.71.76-.91,2.35-2.23,3.29-3.13,1.64-1.57,3.61-3.45,5.08-4.89.33-.33,2.77-2.91,3.07-2.59Z"/>
      <path d="M145.33,83.82l-10.93,10.46-.57-.2,9.58-9.6c.62-.25,1.39-1.68,1.92-.67Z"/>
      <rect x="117.66" y="82.93" width="11.8" height=".83" transform="translate(-22.18 114.58) rotate(-46.09)"/>
      <path d="M28.68,136.24c.06.04.04.24.04.33l.46-.4c.57-.06,3.33.1,3.76.3.08.04.2.18.19.29-.27.34-7.2.5-8.15.47-.3,0-1.64-.06-1.63-.37.55-.88,1.51-.32,2.21-.38.64-.06,2.58-.62,3.12-.24Z"/>
      <rect x="20.86" y="123.62" width="11.05" height=".83" transform="translate(-80.11 55.19) rotate(-45.11)"/>
      <rect x="119.17" y="85.3" width="14.71" height=".79" transform="translate(-23.59 114.28) rotate(-44.89)"/>
      <rect x="32.01" y="77.22" width="10.18" height=".81" transform="translate(-44.41 50.07) rotate(-45.78)"/>
      <path d="M42.91,76.92c.39.39-1.85,2.14-2.2,2.5-.88.91-2.94,3.51-3.84,4.03-.3.18-.52.22-.87.18.41-.56.86-1.12,1.33-1.63.92-.99,3.67-4.08,4.57-4.68.31-.21.57-.47,1-.4Z"/>
      <path d="M25.63,138.9l.02.35.27-.36,2.03.26.1.49c-.19.26-2.93.3-3.46.29-.38-.01-1.89-.12-2.2-.19-.29-.06-.57-.13-.76-.39-.01-.5,3.46-.27,4.01-.45Z"/>
      <path d="M147.93,136.31c-.7,1.11-3.16,2.54-3.94,3.81-1.5.24-.21-.95.28-1.44.7-.72,2.46-2.49,3.19-2.95.78-.5.91-.08.48.59Z"/>
      <path d="M32.84,133.89h3.45c.24,0,1.51.21,1.63.29v.58c-.93.04-1.86.12-2.8.1-.54-.01-2.45.06-2.58-.49l.29-.48Z"/>
      <path d="M38.11,71.55c.07.07.03.73-.19.86-1.44.88-2.72,2.71-4.02,3.66-.26.19-.39.36-.77.28-.24-.22,1.21-1.7,1.43-1.92.64-.64,2.02-1.99,2.69-2.48.15-.11.72-.54.86-.39Z"/>
      <path d="M44.25,80.57l-.18.87c-.56.47-4.03,4.1-4.33,4.11-.12,0-.35-.28-.2-.57.12-.23,3.22-3.41,3.63-3.75.16-.14.94-.81,1.08-.65Z"/>
      <path d="M126.91,60.04c.2.14.06,3.58,0,3.93-.06.32-.24.48-.47.67-.75,0-.53-4.19-.21-4.42.18-.13.53-.3.69-.18Z"/>
      <path d="M40.61,138.29c-.2.24-4.17.26-4.7.11-.27-.08-.33-.24-.29-.49.21-.28,4.08-.46,4.51-.39.39.07.69.51.48.77Z"/>
      <path d="M129.6,69.15c.1-.4.69-.21.83.14.18.45.33,3.42-.05,3.71h-.59s-.19-.2-.19-.2v-3.64Z"/>
      <path d="M123.46,63.78c-.04.13-.61.63-.77.48-.14-.59-.49-4.42.29-4.41.09.12.48.42.48.48,0,.78.16,2.89,0,3.45Z"/>
      <path d="M127.11,66.37c-.03.59.58,4.03-.67,3.64-.29-.09-.51-2.84-.39-3.16.19-.5.57-.52,1.06-.48Z"/>
      <path d="M50.96,144.44c-.08.33-.34.38-.64.38-.82-.02-3.24-.61-4.05-.87-.15-.05-.66,0-.48-.36.28-.56,1.98-.12,2.5,0,.89.19,1.81.6,2.68.87Z"/>
      <path d="M130.56,74.62v3.84c-1.59,0-.72-2.78-.96-3.84h.96Z"/>
      <path d="M134.78,75c.3.56.56,4.05-.47,3.83-.67-.14-.18-1.61-.17-1.92.01-.48-.36-1.52.06-1.83l.58-.08Z"/>
      <path d="M36.39,67.91c.22.87-.41.87-.7,1.22-.26.31-2.36,2.86-2.75,2.43-.03-.34-.03-.59.18-.88.17-.23,1.35-1.35,1.64-1.61.17-.15,1.51-1.29,1.62-1.16Z"/>
      <path d="M31.98,123.34c.08.39-.09.51-.28.77-.81,1.1-2.49,2.36-3.55,3.25-.04-.35,0-.57.18-.87.13-.22,2.58-2.66,2.88-2.88.26-.19.39-.36.77-.28Z"/>
      <path d="M48.28,152.3c.39.42-.79.5-.98.47-.37-.07-3.8-1.32-3.81-1.52.29-.42.59-.29,1-.24,1.27.16,2.54,1,3.79,1.3Z"/>
      <path d="M126.15,58.13c-.16-.13-.27-2.99-.16-3.32.1-.31.44-.33.64-.51.65.64.24,1.47.2,2.2-.04.68.52,1.74-.68,1.63Z"/>
      <path d="M123.17,54.29c.35.23.27.51.3.85.04.49.14,2.4.01,2.7-.3.69-.77.53-.94-.05-.12-.41.16-3.49.64-3.5Z"/>
      <path d="M134.01,69.73c.02-.12.18-.81.48-.67.85.32.34,3.79.1,4.03s-.57-.35-.57-.48c0-.86-.11-2.08,0-2.88Z"/>
      <path d="M40.03,39.52c.15.09.41,2.96.2,3.33l-.77.12c-.12-.56-.54-4.16.57-3.45Z"/>
      <path d="M42.91,48.34c-.26.36-.85-.03-.96-.48l.39-.19-.38-.21c.21-.86-.42-1.95.47-2.56.09.12.48.42.48.48,0,.44.09,2.85,0,2.97Z"/>
      <path d="M24.22,154.8c.54.14,3.66,1,3.54,1.62-.31.46-.38.21-.7.13-.47-.1-3.06-.97-3.13-1.28l.3-.47Z"/>
      <path d="M126.72,75.01c.11.41-.13.52-.28.77-.22.36-2.23,2.55-2.49,2.49-.88-.79.61-1.35,1.06-1.81.17-.18,1.37-1.8,1.72-1.45Z"/>
      <path d="M20.47,138.3c.27.27-.01.35-.28.38-.64.08-3.07.13-3.62-.03-.25-.08-.37-.28-.32-.54,1.39-.23,2.87-.29,4.22.19Z"/>
      <path d="M35.91,61.2c.74-.16.59,2.55.5,2.97-.2.91-.69.93-.8,0-.05-.48-.01-1.58.01-2.12.02-.35-.08-.63.29-.86Z"/>
      <path d="M123.46,48.54c-.13.27.48,3.85-.48,3.64-.33-.07-.28-.61-.29-.86-.03-.54-.05-2.37.17-2.67l.59-.11Z"/>
      <path d="M42.72,55.44c-.06.56.18,1.08.21,1.63,0,.16-.01,2.07-.49,1.82-.42-.22-.97-3.86.28-3.45Z"/>
      <path d="M36.39,53.33c-.55.38-1.27-.9-.38-1.05l-.39-.22v-2.18c1.16-.46.93,3.34.77,3.45Z"/>
      <path d="M40.03,58.89c-1.32.12-.73-3.54-.28-3.64.31-.03.36.13.4.4.14.96-.21,2.26-.12,3.25Z"/>
      <path d="M41.95,50.07c1.4-.32,1,3.14.48,3.26-.78.18-.27-2.77-.48-3.26Z"/>
      <path d="M41.95,39.71l.58-.11c.38.31.46,3.24-.1,3.37l-.48-.29v-2.97Z"/>
      <path d="M33.51,58.7l-.58-.09c-.33-.24-.17-2.05-.13-2.57.02-.3-.19-.54.24-.79.8.94.67,2.31.48,3.45Z"/>
      <path d="M40.22,61.19c-.2.98.21,2.07-.17,2.99-.11.28-.05.46-.5.27-.51-.22-.01-2.67-.09-3.25h.75Z"/>
      <path d="M33.51,64.36l-.48.29c-.38-.08-.44-3.35-.29-3.45.16-.11.77.09.77.29v2.88Z"/>
      <path d="M42.68,34.95c-.12.46.62,3.43-.44,3.23-.43-.08-.35-2.94-.1-3.45l.54.23Z"/>
      <path d="M33.03,49.88c.41,0,1.02,3.17.19,3.44-.63,0-.78-3.45-.19-3.44Z"/>
      <path d="M40.8,151.72c-1.26,0-2.73-.32-3.64-1.25l1.62.08c.16.05,2.49.77,2.02,1.16Z"/>
      <path d="M46.17,55.25c.12.13-.02,3.1-.48,3.45-.47,0-.84-3.56.48-3.45Z"/>
      <path d="M40.03,44.89c.16.12.68,3.76-.57,3.26-.04-.48-.31-1.57.38-1.54v-.19c-.96.02-.34-1.92.19-1.54Z"/>
      <path d="M40.22,37.8h-.76c-.03-.61-.27-2.63.18-2.98l.58.2v2.78Z"/>
      <path d="M40.22,53.33c-.65.77-1.31-3.01-.29-3.45.09.05.29.45.29.48v2.97Z"/>
      <path d="M41.95,61.39c1.08-.27,1.17,2.46.39,2.5l.38.57h-.77s0-3.07,0-3.07Z"/>
      <path d="M35.91,55.44c.77-.16.57,3.07.19,3.06-.74-.29-.61-2.98-.19-3.06Z"/>
      <path d="M42.72,66.76c.08.37.35,2.87-.48,2.69-.4-.09-.69-3.11.48-2.69Z"/>
      <path d="M56.69,24.91s-.42.19-.48.2c-.77.03-.23-1.74-.44-2.27l.87.18.06,1.9Z"/>
      <path d="M46.55,83.64c.32.31-1.3,1.42-1.47,1.6-.77.81-1.33,2.1-2.75,2.04l3.36-3.46.86-.19Z"/>
      <path d="M59.11,22.65c.86-.04.74,2.41.38,2.49-.7,0-.79-2.47-.38-2.49Z"/>
      <path d="M39.46,69.25l-.18-2.18.46-.31c.37,0,.8,2.64-.29,2.49Z"/>
      <path d="M45.98,61.2l-.03,2.36-.54.32c-.37-.27.02-3.31.57-2.68Z"/>
      <path d="M34.93,126.28c-.19.22-.3.52-.55.7-.45.1-.33-.41-.24-.63.12-.31,1.37-1.65,1.49-1.48.17.87-.31.98-.69,1.41Z"/>
      <path d="M25.84,68.87l-.35-.16-.32.55c-.84-.21-.92-1.27-.95-2.01-.3-7.85.43-15.76.07-23.6-.03-.69.92-1.17,1.34-.55.27.39.3,2.69.33,3.41.3,5.52-.04,11.61-.06,17.2,0,1.71.34,3.48-.07,5.17Z"/>
      <path d="M22.53,59.43c-.06.09-.37-.05-.34.13-.03.18.28.04.34.13.16.25.09,5.28.04,6.01-.03.4-.02,1.26-.63,1.21l-.89-.84c.27-3.2-.32-6.83,0-9.97.04-.4.13-.83.37-1.16.34-.23.89-.06,1.06.3.15.31.17,4,.05,4.19Z"/>
      <path d="M22.58,49.59c-.02.52.11,1.35-.27,1.65l-.94.18c-.12-.04-.32-.44-.32-.49v-10.36c0-.49,1.53-.69,1.53-.19v9.21Z"/>
      <path d="M61.9,116.24c.04-.46-.01-.9-.09-1.35-.68-4.08-5.41-4.8-5.49-9.48-.05-3.23,2.2-4.19,3.7-6.48.52-.79,1.15-2.64,1.58-3.02.17-.15.22-.25.48-.18.87.61-.92,3.62-1.37,4.28-2.09,3.01-4.82,3.71-2.3,8.12,1.06,1.86,2.85,2.44,3.71,4.15.63,1.26.7,2.52.91,3.87l9.93.15.23.79c-.11.36-.95.37-1.31.39-2.48.12-5.23-.14-7.79-.08-.53.01-.78.5-.96-.19-.2.07-.82,2.42-1.02,2.82-1.34,2.67-4.72,2.49-7.13,3.51.37,1.53.88,3.17,1.14,4.72.13.8-.41,1.04.3,1.61,1.26-1.16,2.63-2.35,4.19-3.11,1.88-.91,3.83-1.14,5.59-2.65s2.21-4.03,3.84-5.56c.35-.15.35.34.36.55.04,1-.96,2.81-1.53,3.65-3.05,4.48-7.5,3.94-11.11,7.11-.47.42-.63,1.42-1.44.96l.57,4.32c.04.37-.56.73-.77.35l-1.52-6.89.37-.27c-.14.02-.34.04-.38-.13-.18-.66-.37-3.99-.58-4.28-2.07,1.06-3.34,2.62-4.56,4.55-.21.33-1.34,3.19-1.95,2.55.26-1.96,1.66-3.6,2.64-5.28l-4.09-4.5c-.51-.43-.31-1.05.38-.97.37.04,3.73,3.43,4.13,3.98.12.17.17.43.19.63l3.03-2.03-1.6-6.02-5.71-2.48c-.46-.31-.23-.94.31-.94.78,0,4.87,2.21,5.31,1.88-.34-.51-.53-1.11-.71-1.69-1.54-4.92-3.66-11.58-4.52-16.57-.12-.72-.4-1.55.63-1.6.34.44.45.99.62,1.49,1.15,3.43,2.15,7.34,3.15,10.85.76,2.67,1.45,5.39,2.07,8.1.61.81,7.31.21,8.54.38ZM54.8,122.38c2.91-.81,6.7-1.01,7.01-4.79l-7.77-.19c-.22.22.52,2.24.39,2.75-.04.17-.26.14-.39.13v.19c.74-.3.93,1.37.77,1.92Z"/>
      <path d="M76.09,117.21l2.49,10.64-.57.28.6.12c.34,2.2,1.03,4.37,1.45,6.56.08.41.6,2.59.13,2.73-.24-.03-.62.07-.81-.04-.57-.34-1.97-8.31-2.26-9.57-.58-2.49-1.37-4.96-1.9-7.46-.28-1.31-.45-2.62-.68-3.93.1-.58,1.08-.76,1.59-.93.42-.14.66.23.81-.27l5.02-1.35.81.66c.04.22-.14.33-.26.46-.77.87-6.23,1.83-6.44,2.1Z"/>
      <path d="M73.34,111.87s-.26-.03-.31-.18l-4.34-16.92.43-.37c.52-.13.95.62,1.11,1.03.84,2.08,1.38,5.71,2.03,8.05.89,3.22,2.3,7,2.96,10.17.14.69.09,1.23-.76,1.26-.63-.06-.76-.89-.92-1.4-.15-.46-.12-1.32-.21-1.64Z"/>
      <path d="M66.11,99.56c.41.29-.54,2.02-.71,2.44-.09.22-.34.21-.39.34-.63,1.54-.44,3.31.45,4.67s3.83,3.69,3.74,5.3c-.02.3-.04.48-.31.67-.32,0-1.72-2.36-2.05-2.75-.62-.74-1.56-1.39-2.16-2.24-1.35-1.91-1.58-3.32-.78-5.55.11-.3,1.23-2.59,1.34-2.69.2-.18.69-.3.86-.18Z"/>
      <path d="M72.25,134.27c-.55.53-3.47-2.32-4.05-2.76-.67-.51-4.68-3.18-4.58-3.66.12-.59,1.07.04,1.34.19,1.17.6,6.53,4.45,7.07,5.4.15.27.27.51.22.84Z"/>
      <path d="M107.69,146.2l.15.54c-.43.95-3.27.44-4.2.58l-.33-.85c.71-.73,1.6-.21,2.21-.21.7,0,1.41-.42,2.18-.06Z"/>
      <path d="M105.21,149.47c.46-.07,3.7-.22,3.48.62-.15.59-3.65.65-4.28.44-1.06-.34.12-.96.79-1.07Z"/>
      <path d="M102.17,143.86c.22-1.15,2.22-.75,3.17-.76.66,0,1.13-.5,1.62.28-1.18,1.22-3.32.94-4.79.48Z"/>
      <g>
        <path d="M170.64,34.54l4.93-3.99c.85-.29,1.62.32,1.61,1.21,0,.56-1.79,2.23-2.31,2.68-1.3,1.14-2.82,2.07-4.21,3.09v5.44s-.59.1-.59.1l.58.1c.14,2-1.74,1.48-2.87,2.21-.41.27-1.46,1.44-1.55,1.91-.06.41.11.31.41.22.77-.25,2.42-1.19,3.14-1.66,1.88-1.21,3.18-2.9,4.82-4.38.77.13,1.38.67,1.59,1.41,0,.21-.11.38-.21.55-.53.94-4.26,4.09-5.29,4.69-1.66.97-3.41,1.41-5.25,1.88.01,2.02,1.07,4.04,2.88,4.98.92.48,2.15.23,2.32,1.51.29,2.19-.1,5.36-.09,7.68,0,.94.46,3.66.08,4.36-.89.71-2.1.66-3.08,1.19-3.5,1.89-3.7,8.47-.16,10.34,1.82.96,3.94.2,3.06,3.3l.35.16c-.44,2.02-.08,4.31-.09,6.35,0,1.05.08,3.34-.09,4.21s-1.76.81-2.53,1.12c-4.62,1.83-4.37,8.98.04,10.58.85.31,1.78.23,2.5.8l.13,12.98c-.18.53-2.25.95-3.01,1.37-3.88,2.12-4.04,8.69.12,10.63,1.02.47,2.79.28,2.94,1.47l-.18,12.98c-1.66,1.1-3.07.76-4.5,2.45-1.56,1.84-1.58,5.08-.44,7.16.73,1.32,1.77,1.94,3.18,2.39.67.21,1.51-.21,1.88.81l.03,13.25c-.16,1.77-.41,1.69-2.15,1.85-1.4.13-4.85.12-6.3.03-.42-.03-1.92-.16-2.01-.49-.05-.18.12-.48.1-.7-.24-2.83-2.41-5.37-5.39-5.33-.82.01-1.73.62-2.4.02l.19.57c-1.29.24-2.88,2.02-3.18,3.25-.19.76.08,1.89-.67,2.41-2.56.35-5.42.19-8.04,0-.91-.49-.47-1.5-.68-2.18-.65-2.11-2.91-4-5.14-3.97-1.02.02-1.64.19-2.38.48-.18.07-.48-.03-.69.05-.1.04-1.53,1.45-1.59,1.55-.17.27-.65,1.83-.75,2.25-.12.47-.22,1.05-.1,1.52-1.31.46-2.72.49-4.11.55-1.73.07-5.07.07-6.71-.15-.43-.06-.99-.11-1.22-.51-.07-.12-.74-2.51-.76-2.7-.04-.28.21-.76.16-.82-.02-.03-.42,0-.68-.19-.56-.41-.9-1.09-1.65-1.43-2.61-1.17-6.03-.56-7.42,2.14-.44.85-.46,3.27-1.14,3.47l-10.87.03c-1.24-.18-.73-.92-.97-1.73-.99-3.33-3.15-4.87-6.67-4.54-2.31.22-3.94,2.5-4.69,4.52-.15.4-.06,1-.15,1.17-.26.46-1.37.64-1.89.71-1.58.22-7.8.06-9.26-.25-.14-.03-.31.08-.45.13.03-3.21-1.62-5.39-4.7-6.24-.26-.07-.59.04-.89,0-.2-.03-.37-.26-.47-.27-.1-.02-.06.31-.23.37-2.21.81-3.6.97-4.47,3.55-.41,1.23-.01,2.47-1.46,2.71-1.28.22-3.73-.12-5.14-.13-1.69-.01-3.43.37-5.08-.09l-.27-.27c-.18-1.64-.23-2.89-1.45-4.14-2.62-2.72-7.55-2.27-8.96,1.42-.26.67-.27,1.44-.45,2.01-.05.17-.24.15-.38.14l.38.47c-.2.52-1.98.63-2.59.67-1.04.06-2.54-.36-3.55,0l-.1-.58c-.41.86-1.87.26-2.67.58l-.2-.58-.19.56-2.8-.08c-.51-.38-.46-2.53-.65-3.18-.27-.92-2.6-2.75-3.55-2.97-.84-.2-3.58-.26-4.37-.02-.03,0-.05.21-.11.24-1.88.75-2.89,1.77-3.46,3.77-.2.71.24,1.5-.84,2.02-.91.44-1.75,0-2.65.21l-.28-.35c.22.55-1.04.41-1.41.31-.42-.1-.42-.66-.59.06l-.78-.57-.09.38H.34s-.21-4.3-.21-4.3l.2-10.74.67-.87.28.38c-.02-.5,1.02-.54,1.58-.82,1.2-.6,1.74-1.27,2.34-2.45.15-.29.05-.69.21-.95.1-.16.47-.14.48-.3.08-1.03-.18-2.75-.5-3.71-.12-.38-.01-.79-.19-1.16-.05-.1-1.53-1.48-1.67-1.58-.9-.58-1.29-.42-2.09-.57-.97-.18-1.2-.65-1.29-1.6-.27-2.68-.11-7.35,0-10.16.04-.85.06-1.72.3-2.55l.2-.24c1.11-.36,2.58-.58,3.43-1.41,2.4-2.32,2.24-7.42-.5-9.43-1.04-.76-2.11-.6-3.17-1.24-.54-1.87-.1-3.78-.08-5.66.02-2.54-.04-5.09.03-7.63.24-.84,1.81-.8,2.56-1.09,4.27-1.65,3.93-9.45-.4-10.74-.71-.21-2.1-.09-2.29-.94l.1-12.77c.24-1.29,2.91-1.25,3.77-2.08s1.43-2.25,1.75-3.34c.14-.49-.21-.96.43-1.1-.8-.2-.24-.87-.22-1.35,0-.08-.29-.06-.34-.23-.69-2.07-1.39-3.04-3.59-3.62-.29-.08-.77.4-.84-.45l-.28.38c-1.4-1.07-.67-3.01-.66-4.51.01-3.25-.2-6.56-.13-9.81.06-3.02,1.57-1.7,3.51-2.9,3.5-2.17,3.09-8.59-.77-10.05-2.02-.76-2.56.58-2.81-2.55-.3-3.8.41-7.99.03-11.84.57-1.89,2.23-1.15,3.37-1.82,2.49-1.47,3.32-5.01,2.38-7.64-.11-.31-.36-.29-.42-.41-.12-.23,0-.5-.06-.58-.56-.8-1.84-1.77-2.8-2.03-.81-.22-2.01.13-2.28-1.03V5.47s.34-.18.34-.18l-.39-.22C.58,3.79-.33.79,1.11.31l11.12-.02c1.44.43.86,1.7,1.19,2.84.85,2.96,4.47,3.75,7.15,3.7,1.59-.03,4.42-1.82,4.98-3.36.42-1.14-.07-2.78,1.35-3.26h10.45s-.19.95-.19.95l.48-.19c.05,1.1.31,2.04.8,3.03.18.36.69.08.25.81.91.19,1.55.94,2.53,1.21,2.35.66,5.97-.07,6.91-2.61.35-.94-.14-2.74,1.1-3.12l9.68-.08c1.56.25.99,1.8,1.35,2.87.62,1.83,3.33,3.47,5.22,3.54s4.51-1.39,5.27-3.21c.33-.8.35-2.91,1.25-3.16,2.67-.15,5.35.02,8.02.05.8,0,2.06-.57,2.67.5.76,1.31.05,2.63,1.66,4.29,3.16,3.25,8.9,2.1,10.24-2.38.26-.86.02-2.24.96-2.49l10.51.03c1.08,1.05.35,2.47,1.37,3.81,2.41,3.17,7.79,3.3,9.35-.64.33-.83.28-2.85,1.1-3.12,1.71-.57,5.15.37,7.04-.25,1.05.38,4.05-.19,4.58.75.12.21.34,1.89.58,2.48,1.31,3.25,4.41,3.99,7.47,2.5,1.28-.62,2.09-1.29,2.49-2.69.6-2.07-.36-2.88,2.22-3.01,2.08-.1,4.44.23,6.56.18,1.32.45.78,1.38,1,2.46.58,2.86,4.42,4.35,7.02,3.54,1.21-.38,3.11-1.98,3.53-3.18.53-1.5-.24-2.81,1.96-2.98,1.66-.13,5.15-.1,6.78.02.65.05,1.35.23,1.5.96.16.78-.14,2.72-.13,3.67.04,2.6.32,5.66.15,8.22-.24,3.67-1.02,1.82-2.94,2.81s-3.33,4.79-2.82,6.79c.22.87,1.32,3.67,2.4,3.54s4.91-3.26,5.87-4.12c.74-.66,2.22-3.12,3.28-1.75.76.99,0,2.07-.69,2.8-1.37,1.46-3.5,2.91-4.97,4.03-.34.26-.77.34-1.06.67.13.2.96.88.96.96v5.85ZM56.76,2.26c-.1-.07.04-.36-.13-.33l-.37.52-5.54-.11c-.47.15-.84,2.23-1.19,2.83-1.3,2.25-3.98,3.53-6.53,3.48-.45,0-1.93-.05-1.82-.58l-.28.38c-.64-.51-1.39-.55-2.08-.99-1.87-1.19-2.66-2.96-3.18-5.06l-7.2-.09c-.67.11-1.14,2.27-1.59,3.03-3.24,5.39-12.58,4.96-15.23-.97-.23-.52-.35-1.79-.72-1.95l-8.16-.05c-.72.31-.05,3.24-.32,3.89-.07.16-.37,0-.35.18l.38.21v6.4c6.84.92,8.22,10.52,2.94,14.36-.92.67-1.8,1-2.95,1.08-.2.14-.17.38-.2.59-.2,1.92.21,4.35.19,6.33-.01,1.28-.37,2.67-.15,4,1.02.61,2.06.72,3.11,1.5,4.06,3.02,4.01,10.53-.39,13.17-.87.52-1.75.63-2.57,1.1l-.37,12.35c2.49-.34,5.31,2.45,5.89,4.75,1.07,4.21-1.07,9.42-5.7,10.02l.06,10.46c.64.4,1.4.41,2.18.81.65.34,2.27,1.96,2.59,2.59.26.52,1.07,2.57,1.12,3.1.35,3.9-1.76,8.33-5.97,8.85v10.44c1.36-.1,2.78,1.06,3.66,2.01,3.81,4.1,2.14,12.49-3.84,13.53l.19,10.07.19.38c7.64,1.79,7.29,13.87-.18,15.44l.08,11.7,8.91-.03c.31-2.74,2.96-5.34,5.57-6.03,1.56-.41,4.43-.36,5.83.32,1.07.51,3.18,2.32,3.73,3.36.29.55.54,2.15.95,2.37l8.29.19c.16-3.8,3.81-6.25,7.29-6.71l.19.58v-.58c3.45.59,6.92,3.01,7.29,6.72l7.68-.28c.72-4.88,6.11-7.5,10.54-5.57,2.26.98,4.46,3.31,4.41,5.85l7.49-.1c1.9-3.28,3.16-5.97,7.36-6.24,1.96-.12,3.62.19,5.27,1.27,1.34.88,3.57,3.15,2.89,4.87h8.63c.12-3.3,3.53-5.96,6.64-6.31,3.62-.41,7.77,2.63,8.13,6.31l8.24.19c.91-5.24,5.05-7.89,10.22-5.9,2.03.78,4.54,3.28,4.16,5.61l.58-.09-.38.57c.68.14.39-.38,1.04-.4,1.15-.04,2.45.13,3.63.01l.31.39c.67-1.07.85-2.31,1.5-3.39,1.21-1.99,3.12-2.8,5.3-3.33l.29.4c0-.82,1.86-.26,2.49-.09,2.54.65,4.11,2.29,5.16,4.62.25.55.12,1.17.6,1.52l6.14.08-.2-6.8.39-.2c-.72-.52-.1-1.34-.09-1.91.01-.87-.08-1.89-.11-2.77-8.02-1.52-7.98-13.89-.26-15.73.08-.72.16-1.47.2-2.19.07-1.6-.01-2.81-.1-4.22-.05-.88.45-3.61.18-4.14-2.31.05-4.8-2.2-5.57-4.31-1.65-4.52.45-10.5,5.57-11.23l-.08-9.98c-.16-.69-1.23-.5-1.65-.66-3.38-1.31-4.95-5.69-4.28-9.07.55-2.77,3.14-5.5,6-5.79l-.22-9.94c-3.59-.59-5.69-3.97-5.93-7.41-.07-.98.22-2.81.49-3.54.97-2.61,2.85-4.25,5.48-5.11v-9.54c-2.91-.79-4.5-2.88-4.98-5.8-.05-.32.03-1.35-.03-1.41-.08-.08-1.31.11-1.26-1.07.04-1.02,1.58-.79,1.65-.86.04-.04-.01-.81.09-1.16.51-1.73,2.63-3.89,4.5-3.84v-4.21s-2.96.95-2.96.95c-.64,2.07-1.31,3.99-2.39,5.86-.67,1.15-1.51,2.11-2.19,3.17-.73,1-2.85,2.18-2.91,3.36-.02.44.13.87.13,1.33-.09,13.84-.03,27.7-.01,41.53l-.38.09.4.22v49.43s-.4.22-.4.22l.4.37c-.41,4.58.4,9.71,0,14.22-.04.44-.03.81-.4,1.13-.61.54-.95.12-1.46.13-2.35.07-4.72.2-7.08.13l-.18-.35-.22.4-5.07-.14c-1.64-.04-3.85.57-5.27-.26-.15-.07.05.36-.37.4-.34.04-3.93.04-4.1-.07-.09-.06.05-.36-.13-.34.14.44-1.51.42-1.6.34s.05-.37-.13-.34l-.18.35-33.75.04-.2-.58-.18.56-9.61.04-.37-.4c-.19-.01-.02.28-.18.35-.4.16-3.85-.11-4.61-.11-3.57,0-7.13.12-10.71.16l-.22-.4-.22.4c-9.59-.31-19.31.14-28.93-.03-.96-.02-.9-.37-.96-.37-.23.03-.65.35-1.16.38-1.6.11-3.2-.23-4.79,0l-.2-.59-.2.59-7.67-.05-.19-.35-.09.38c-3.39-.08-6.75-.1-10.12-.14-1.16-.01-4.17.55-4.74-.62l-.29-39.97.39-.21-.37-.18c.1-.18.18-.38.18-.59.1-16.23,0-32.62,0-48.91,0-12.35-.1-24.75.04-37.09l.34-.13-.4-.37c-.05-4.74.04-9.48.1-14.21.01-1.15-.49-4.61.39-5.29.94-.73,15.04.25,17.26-.28l14.21.09.37.4c.11-.57,1.29-.45,1.92-.47,1.02-.03,2.06.17,3.07.17,22.7-.08,45.11-.13,67.7-.17,7.32-.01,14.83.7,21.99-.6,1.05-.19,2.27-.74,3.34-.3l.2-.37,1.7.06.09.52c.49.19.32-.33.51-.38.95-.26,4.62.67,5.67,1.01,3.37,1.11,7.1,3.69,9.35,6.42.59.72,1.01,1.93,1.83,2.35-.03-3.42,2.12-8.27,6.04-8.44V2.12c-1.22.72-2.6.17-3.9.4l-.22-.4c-.17.77-.78.03-1.39.33-.44.22-.74,1.58-1.08,2.19-1.61,2.91-5.21,4.38-8.42,3.76-2.99-.57-5.55-3.04-5.9-6.09l-3.33.19-.21-.38-.21.38h-1.6c-.3,5.27-6.35,6.85-10.64,5.36-.77-.27-2.33-1.41-2.69-2.11-.09-.17.04-.44-.04-.56-.52-.93-1.19-1.62-1.23-2.86l-8.42-.02c-.22,3.39-3.62,6.53-7.01,6.42-1.11-.04-3.13-.59-4.1-1.16-.19-.11-1.48-1.09-1.6-1.22-.95-.99-1.9-2.64-1.87-4.03l-7.82.24c-.38,1.45-1,3.65-2.53,4.19l.15.34c-2.34,1.7-5.66,2.66-8.53,1.59-.2-.07-2.22-1.22-2.42-1.38-.83-.66-2.73-2.43-1.88-3.45l-.57.19-.51-1.71-7.35-.02c-.21,1.99-1.2,3.43-2.69,4.7-2.74,2.33-6.31,2.52-9.36.54-.39-.25-2.28-2.43-2.5-2.88-.28-.55-.5-1.93-.65-2.13-.24-.3-1.01-.12-1.26-.29ZM46.36,50.26h3.16c.68,0,1.12,1.44.36,1.7-.17.06-3.06.19-3.49.16-.52-.04-1.35-.09-1.53-.65l-.26-19.97-6.88-.03.25,13.56c-.66,1.26-1.96.51-3.04.53-.2,0-.41.23-.58.23-.54,0-3.54-.27-3.72-.13.16.55.19,1.23.2,1.81.16,10.21.32,21.12,0,31.29-.04,1.31-.09,2.63-.39,3.92-1.37-.07-1.33-1.03-1.44-2.11l-14.06,13.85-.23,4.18c.33.09.38-.13.58-.28.54-.42,1.51-1.33,2.01-1.82,2.19-2.15,4.9-5.81,7.19-7.58.15-.12,1.12-.84,1.15-.19.01.3-2.59,2.66-2.86,3.27l-7.77,7.58c-.14.2-.15.44-.19.67-.06.36-.11,2.85-.08,3.27.02.23.11.43.36.47,0-.22.13-.43.28-.58,3.22-3.35,7.31-7.89,10.72-10.86.29-.26.67-.5,1.08-.45l-.65,1.27-11.71,11.76c.27,1.09-.2,2.56-.05,3.6.03.22.05.4.32.44.94-1.49,2.49-2.76,3.74-4.03l.28.38c-.03-.34.01-.58.18-.87.67-1.15,5.07-5.02,6.35-6.31.57-.58.91-.96,1.54-1.53.3-.27.54-1.1,1.14-.77l-.27.86-13.28,13.55c.11,1.05-.09,2.31,0,3.34.02.25-.03.39.23.56,4.15-4.68,8.98-8.76,13.01-13.55l.71-.25c.18,1.29-1.16,1.83-1.85,2.56-3.9,4.13-7.73,8.34-11.96,12.15-.06,1.19-.21,2.41-.18,3.6,0,.29-.16.56.28.48,2.85-3.02,5.96-5.83,8.93-8.72.56-.54,2.27-2.74,2.86-2.9.26-.07.53-.04.59.21.06.27-1.69,1.89-2.01,2.21-3.41,3.49-7.01,6.81-10.41,10.29-.55,1.37-.1,2.79-.24,4.18l.38.1c3.6-4.25,7.84-7.96,11.8-11.89.46-.2.32.68.1.87l-11.51,11.51-.78.28c.25,1.23,0,2.63,0,3.91,0,.65.58,2-.19,2.31l.4,1.04,23.31-3.56c1.58.09,1.6.83.15,1.26-2.84.84-7.24,1.1-10.31,1.63-4.06.7-8.12,1.52-12.14,2.21-.34.06-.68-.02-1.02.03-.34.29.27,2.34-.4,2.39l.36.19c-.38.9.2,2.87.02,3.63-.05.23-.46-.02-.38.31.44.23,3.61-.21,3.45.67-.06.35-2.57.38-2.96.11l-.21.18-.09,3.07c8.17-1.2,16.27-2.8,24.45-3.85,2.13-.28,5.71-.95,7.71-.88.3.01.9.23.82.61-.15.2-.29.34-.53.43-.39.16-1.89.33-2.46.42-6.06.97-12.18,1.63-18.21,2.72l-.47-.4c.02.38-.19.46-.52.53-2.55.55-5.48.44-8.03,1.18l-.27-.37c.02.14.04.34-.13.38-1.13.32-3.03-.36-2.19,1.65l-.37.17.39,1.64-.58.19c.85-.05,6.25,2.04,6.33,2.4.11.49-.54.46-.81.44-1.49-.15-3.48-1.41-4.94-1.88l.09,2.69,5.22,2.07c.25.19,2.12.97,1.98,1.28-.39.82-.97.12-1.34,0-.64-.21-1.8-.3-1.92-1.05l-.28.38-3.75-1.72v4.31s-.58.49-.58.49c.73-.45.52.08.69.19.31.19.42-.1.56.39l.21-.4c5.48.16,11,.08,16.48.09.68,0,1.16-.08,1.72-.08,1.74,0,5.17-.21,6.7,0,.26.04.43.2.59.39l.22-.39,12.34.2,5.18-18.8c-.28.03-.51.16-.81.14-2.69-.18-8.51-5.1-12.18-6.04-.88-.23-2.7.08-2.92-1.11.15-2.11-.36-4.24-.3-6.33,0-.28.25-.42.3-.57.03-.11-.34-.06-.38-.22-.14-.53.14-1.24.1-1.7-.05-.66-.5-1.41-.29-2.2-7.4.48-11.57-5.81-10.93-12.75.24-2.63,1.85-6.1,4.79-6.43l-.58-1.24.58-.29-.74-.03c-.46-1.24-1.16-2.36-1.73-3.55-1.44-3.02-3.26-6.92-4.34-10.04-.17-.5-.46-1.02-.2-1.53.52-.86,3.15.76,3.94,1.05,2.44.9,4.79,1.7,7.18,2.58,2.26.83,4.51,1.95,6.91,2.47,6.62-1.43,13.27-3.06,20.04-3.61.1-.43-.06-.31-.24-.44-.52-.38-1.41-.7-2.02-1.03-.44-.24-.85-.37-1.17-.56-2.9-1.71-5.41-4.17-6.96-7.16-1.36,0-8.33,1.74-9.09,1.15-.5-.44-.18-1.38.37-1.58l7.76-1.41-1.35-4.28c-2.7-.37-5.36-1.01-8.08-.82-.85-.09-1.68-.69-.99-1.52.33-.39,4.37-.13,5.19-.01.3.04.57.12,1.13.2.8.11,1.6.31,2.41.39-1-3.18-.87-6.25-.36-9.47.08-.5.2-1.32.32-1.79.35-1.45,1.97-4.57,1.98-5.51s-1.04-3.66-1.31-4.85c-.99-4.28-3.35-16.3-1.08-19.78,1.19-1.83,2.25-1.53,3.96-.78,1.29.56,2.83,1.64,4.15,2.6.91.66,1.8,1.4,2.61,2.18h.28c1.77-3.4,5.41-5.89,8.93-7.28-.65-1.33-1.04-2.13.11-3.34,1.71-1.8,4.53-1.42,4.2,1.42,2.02-.5,3.75-.96,5.85-.96,1.12,0,.46-.11.79-.19.54-.13,6.14.69,6.88.96,2.51.92,4.9,3.06,5.47,5.75,1.2-1.03,2.26-2.3,3.45-3.36s3.04-2.78,4.46-3.23c.63-.2,1.95-.25,2.52.09,1.51.91,3.24,6.26,3.67,8.03,1.64,6.66,2.1,14.58,2.03,21.4,2.48,3.82,2.95,8.96,2.55,13.41-.06.69.39,1.48-.28,2.21.68.42,1.04-.09,1.49-.14.76-.08,6.12-.76,4.66,1.17-.43.56-5.41.49-6.27.87l-1.61,5.2c1.28-.31,2.89.5,4.21.83,1.23.31,2.82-.15,2.51,1.85-2.65.09-5.2-.74-7.83-.94-1.14,2.33-2.99,4.22-4.85,6l-1.89,1.27c2.05.83,5.81,2.52,7.16,4.24,1.24,1.56,1.62,1.66,3.01,2.95,2.94,2.74,7.5,10.16,8.15,14.1.05.29-.09.5-.11.78l.38-.19c1.46,5.33,1.62,10.92-.21,16.18,3.07,2.1,5.09,6.31,5.77,9.9.54.09.29-.09.38-.29,2.99-6.64,3.07-11.47,1.68-18.55-.77-3.91-2.62-7.57-1.92-11.62.4-2.31,1.68-4.29,4.07-4.9,2.82-.71,5.11,1.66,6.11,4.04.68,1.62,1.57,5.13,1.91,6.91.06.31.29,2.02.26,2.23-.04.22-.48,0-.4.31l.59.11.53,5.94c-.68.2-.12.18-.06.57,1.01,6.58-2.29,17.94-6.43,23.2-.6.76-3.16,3.14-3.35,3.56-.28.63-.2,1.82-.47,2.59-1.28,3.66-6.64,4.62-9.74,5.98-.27.12-.3.03-.24.43h.67s2.48,5.12,2.48,5.12l13.02-.14.22.39c1.14-.64,3.03-.2,4.42-.21,3.08-.02,6.17-.16,9.22-.14.88,0,1.76.13,2.64.11l.31-.24v-5.27c-1.18.88-2.07,2.16-3.22,3.06-.17.13-.86.74-1,.59l.19-.82,3.99-3.92c-.03-1.11.15-2.34.12-3.41,0-.18.02-.72-.27-.67,0,.24-.13.41-.29.58-2.34,2.39-5.02,5.29-7.47,7.48-.25.22-1.5,1.4-1.45.66.07-1.02,2.75-2.95,3.55-3.73s1.54-1.51,2.41-2.39c1.11-1.13,2.11-2.51,3.35-3.56v-4.02s-13.77,13.75-13.77,13.75c-1,.56-.64-.38-.24-.91,1.33-1.79,4.05-3.61,5.47-5.48.83-.11.46-.47.85-.86,2.49-2.47,5.16-4.85,7.6-7.4l.18-3.99-.38-.09c-.12.48-.76.83-1.16,1.24-4.74,4.82-9.37,9.52-14.28,14.3-.78.75-1.75,1.85-2.49,2.5-.2.18-1.3,1.2-1.26.47.05-.87,2.38-2.56,3.08-3.25,1.79-1.75,3.71-3.94,5.24-5.47,3.68-3.68,7.54-7.2,11.1-10.98.2-.37-.04-1,.53-.91l-.4-.46.02-5.1c-.48,0-.98.02-1.45.1-1.79.31-3.81.93-5.58,1.17-.69.09-3.02.33-3.51-.02-.89-.66-.1-.65-.07-.7.07-.11-.25-.45.05-.64l10.75-1.63-.19-9.78-7.66,7.4-.59-.21,8.15-8.15.1-3.83c-.11-.14-1.11.83-1.25.97-1.99,1.9-4.63,5.22-6.64,6.77-.1.07-.51.37-.55.32l.18-1.07,8.08-8.03c.51-.9.1-3.09.08-4.13l-7.66,7.68-.68.18.1-.57,8.34-8.54v-3.26c0-.09.54-.51-.09-.48l-7.96,7.77c-1.53,0,.97-1.8,1.25-2.39l6.7-6.34v-4.41s-8.82,8.82-8.82,8.82c-.3.15-.43-.38-.41-.48.07-.64,8.16-7.84,9.04-9.11.49-.74.41-2.65.31-3.55-.03-.29-.02-.48-.3-.66l-9.91,10.12c-.53.17-.55.02-.67-.44l10.78-10.85.1-4.2-11.6,11.51-.48-.48,12.04-12.13.04-34.19c-2.62,1.13-5.33,2.37-8.16,2.89-2.62.48-5.31.32-7.95.18l.17,19.66-.36.19c.11.1.29.23.3.37.11,1.73.11,6.06-.1,7.69-.16,1.26-1.36,1.58-1.54-.2-.24-2.32-.04-5.17-.07-7.51-.1-6.36-.17-12.78-.13-19.15,0-.52.06-1.12.2-1.62-2.89-.59-5.27-2.05-7.67-3.65-.08,1.74.09,3.56-.09,5.28-.03.29-.21.42-.29.67l.38.19-.39.1.4.21c-.43,1.86-.26,3.83-.04,5.71,1.13.59,4.95-1.05,5.02.78.03.69-.25.95-.88.99-.57.04-3.14.09-3.59.01-2.38-.42-1.84-1.57-1.86-3.3-.02-1.91-.17-3.85.16-5.77l-.35-.16c.1-.18.18-.38.18-.59,0-.71.2-4.85.09-5.08-.16-.33-.98-.74-1.23-1.12l-1.07-1.38c-.62.36.07,3.34-.48,3.74-.44.32-.71-.48-.76-.78-.12-.82-.18-2.96.52-3.38l-2.25-3.72-4.91-.1-.85.59.77-.38c.11-.03.38.26.38.29v10.36c0,.71-1.17.77-1.34-.4s-.12-3.79-.13-5.13c0-.76.08-5.64.24-5.89.28-.45,2.26-.58,2.86-.59.8,0,1.76.57,2.39-.08-.95-1.66-1.39-3.34-1.7-5.21-.12-.73-.12-.48-.2-.77-.06-.21-.21-2.81-.21-3.23-.06-5.83,3.24-12.79,7.49-16.5.91-.8,2.01-1.36,2.88-2.2l-19.06.2-.21-.4-.59.38c-13.95-.17-27.88-.11-41.81-.02l-.18-.35c-.37.44-1,.47-1.35,0-.15.61-.46.18-.97.22-5.85.36-12.1.03-18.03.02-1.46,0-3.38.26-4.79.16-.38-.03-.27-.41-.37-.4-3.88.53-7.89.25-11.87.26-.54,0-1.08.33-1.66-.07-.01,3.17-.06,6.34-.13,9.49-.02,1.11.26,3.17-.07,4.18-.08.24-.38.05-.38.23.57.12.46,1.46.47,2.11.03,1.89-.13,3.86-.18,5.76l.22.98-.12,6.59c1.84-.42,3.92-.6,5.75-.19.09-4.55-.17-9.13.23-13.67.27-.42.64-.9,1.2-.91l7.59.09c1.2.48.59,1.51.62,2.32.21,6.06-.08,12.07.15,18.12ZM20.66,15.36c-.92.04-5.4-.36-5.86.18l.11,5.57c2.03-1.8,4.03-3.65,5.75-5.75ZM25.65,15.36c-.94.14-2.21-.23-3.1-.08-1.29.21-3.16,2.63-4.19,3.63-1.12,1.1-3.4,2.47-3.54,4.09-.08.9.23,2.13.09,3.1l10.74-10.74ZM14.91,27.34v4.12l6.4-6.65c2.18-2.05,4.35-4.09,6.39-6.27.79-.84,1.82-1.68,1.4-2.88l.4-.22c.01-.14-2.58-.31-2.87.02l-11.71,11.87ZM147.06,15.93c-7.28-1.18-13.37,1.46-18,7.02-.37.44-.55,1.19-1.09,1.61l-.48-.38c-.25.52.39.62.38.66-.13.77-1.26,2.49-1.57,3.43-.7,2.09-.96,4.72-.92,6.91l-.39.31c.67.07.51,1.48.66,2.12,1.45,5.93,5.35,11.41,11.03,13.51,8.77,3.23,18.84.68,23.36-7.69.58-1.08,1.1-2.2,1.57-3.33-2.02-.2-3.82-.28-5.79-.82-4.81-1.34-8.06-3.74-13.3-3.41-4.04.26-7.37,2.62-10.05,5.47-2.44.15-2.55-1.12-1.16-2.82,2.07-2.53,5.99-3.97,8.97-4.82.03,0,.03-.28.18-.31,8.17-1.74,14.46,4.82,21.26,4.03.16-.02.33,0,.48-.1.31-.24-.01-.58.04-.92.24-1.76.36-3.54.06-5.33-.06-.38-.3-.73-.32-1.13-.97,0-2.13.25-2.96-.4l-.17.38c-6.17-1.03-11.94-5.17-18.38-3.78-.46.1-3.59,1.04-3.76,1.14-.36.22-1.61,1.15-2.05,1.49-.7.54-2.91,2.97-3.36,3.17-.72.32-1.98-.41-1.86-1.32,0-.06.48-1.11.53-1.18,3.83-5.39,12.46-6.98,18.49-5.43.49.13,1.52-.07,1.46.54l.28-.38c1.21,1.01,10.19,3.66,11.03,3.07l-1.61-3.4-4.39-4.59c-.65-.49-2.92-1.38-3.21-1.68-.17-.18-.18-.44-.19-.68l-.2.36h-.25c-.51-.24-1.08-.54-1.61-.69-.81-.24-2.35-.17-2.54-1.01h-.38s.2.38.2.38ZM28.06,23.15c.3-.35.92-.99,1.03-1.38l.18-1.5-.36-2.42c-.53,1.64-2.55,2.58-3.45,4.13l-10.49,10.31c-.38,1.36.02,2.77-.06,4.16l1.81-1.85c2.81-2.23,5.65-6.4,8.54-8.62.24-.19.46-.31.78-.28l-.19-.55c.72-.41,1.65-1.36,2.22-2.01ZM29.1,26.96v-3.74l-.77.39.14.34c-1.74,1.94-3.82,3.61-5.63,5.48-.23.24-.33.66-.56.89-.66.67-1.47,1.21-1.99,2.02l-5.38,5.21c0,1.18-.13,2.37-.07,3.55,0,.09-.15.55.17.53.18,0,2.44-2.35,2.59-2.58.54-.82-.09-2.04,1.35-1.74l.18,3.44-.38.21c.5.33.27.72,0,1.16.65.64.08,3,.09,4.02.02,2.35.39,5.01.25,7.46-.02.41.03.9-.34,1.17l.38.19-.58.39.58.09c-.42,3.19.07,6.63-.11,9.81-.08,1.38-.67.52-1.33.91-.25.15-2.73,2.53-2.83,2.76l.05,3.97,2.91-3.02c.54.3.23-.12.53-.53.25-.34,1.24-1.35,1.64-1.24l.29.48-5.26,5.48c-.13.22-.21.45-.25.7-.03.16-.03,2.85,0,2.99s.24.38.33.31l1.06-1.34.28.38c.02-.27.05-.58.19-.82.22-.37,5.5-5.65,6.04-6.08.3-.25.74-.81,1.06-.28-.03.36-.27.6-.48.86-2.11,2.73-5.78,5.35-8.13,7.99-.7.87-.08,3.24-.41,4.37.12.25.24.16.4-.02.39-.44.76-.94,1.17-1.36l.33.14c.87-1.74,2.81-3.25,4.22-4.7,2.52-2.59,4.97-5.31,7.68-7.73,1.11-1.35.3-3.41.57-5.03l-1.63,1.53c-.79-1.29,1.63-1.94,1.63-2.59v-3.74l-1.25,1.15c-1.49-.54,1.25-1.93,1.25-2.59v-3.55c-.22-.03-1.91,1.47-1.73.48.13-.71,1.73-1.45,1.73-1.72v-4.12l-1.25,1.15c-1.08-.83,1.25-1.78,1.25-1.91v-3.93s-.3-.34-.38-.29c.06.67-1.17,1.3-1.16.48,0-.58,1.54-.98,1.54-1.72v-4.12l-2.4,2.3c-.32.04-.31,0-.3-.3.03-.54,1.1-1.88,1.73-1.43-.32-.72.96-1.44.96-1.82v-3.93l-4.66,4.73-.62.23c-.55-.37-.21-.81.2-1.13l.48.38-.14-.45,4.74-4.82v-4.32l-7.96,8.25c-1.22-.58-.09-1.03.22-1.41.8-.95,4.19-4.99,4.92-5.45.14-.09.35-.05.52-.05-.39-.49.17-.39.49-.75.28-.32,1.77-1.9,1.81-2.03ZM93.47,28.85c-1.36-1.36-5.19-2.27-7.11-2.37-5.77-.29-14.41,2.78-18.24,7.18-1.76,2.02-2.57,5.25.2,6.82,1.03.58,1.65.62,2.76.38-.08-1.08,1.95-2.14,2.85-2.62,3.37-1.81,9.79-2.43,13.55-1.96,1.12.14,2.35.7,3.48.89,1.96-2.46,5.73-5.08,2.51-8.31ZM167.25,29.1c-.06-.04-.07-.22-.06-.31h-.19c.2.66-1.29.27-1.36.69.45,2.42.78,4.92.4,7.36.69-.21,2.32-.4,2.49-1.25.32-1.64-.17-4.05-.01-5.76l.4-.46c-.52-.33-1.23.07-1.67-.26ZM100.64,35.49l5.09-5.57-.11-.76-2.1,2.21c-.61.85-1.21,1.74-1.84,2.57-.39.51-1.12.83-1.04,1.55ZM106.97,31.85l-9.2,10.55c.75,0,1.41-.91,1.93-1.43,1.69-1.72,3.75-3.99,5.27-5.85.74-.91,1.88-2.13,2.01-3.26ZM102.62,41.89c1.21-1.26,3.93-3.92,4.74-5.33.21-.38.22-.65.18-1.07-1.92,1.69-3.39,3.84-5.08,5.76-.34.38-2.4,2.11-2.02,2.49.96,0,1.57-1.23,2.18-1.85ZM56.53,40.86c.59-.57,1.89-1.99,2.2-2.69.14-.31.05-.77-.19-.76-.2,0-2.29,2.88-2.01,3.45ZM89.51,38.76c-3.35-.6-7.24-.67-10.62-.17-1.32.2-4.43.94-5.43,1.57-.08.05-1.18,1.12-1.02,1.28.35.02.64.16,1,.14,3.29-.12,7.19-1.97,10.75-1.38,1.97-.2,4.92,1.37,5.32-1.44ZM107.08,41.36c.5-.74,1.42-1.17.94-2.22-1.42,1.62-2.77,3.3-4.19,4.92-.54.61-1.44.65-.7,1.79l3.95-4.49ZM56.91,44.89c.36.07.46-.18.65-.4,1.04-1.19,1.78-3.01,2.89-4.2l-.38-.96c.03,1-3.79,4.86-3.16,5.56ZM17.78,40.1c-.37-.09-.37.14-.54.32-.54.6-2.08,1.84-2.29,2.32-.18.39-.21,2.1-.2,2.63.01.4-.04,1.14.24,1.43.2-.02,1.88-2.05,2.3-2.31.17-.11.31-.08.48.02v-4.41ZM60.86,44.46c.04-.07-.03-.24.02-.32l.73-1.55-.48-.19c-.48,1.75-2.71,3.67-3.31,5.23-.17.44-.19.82-.15,1.29l2.82-4.17c.05-.16.32-.21.37-.29ZM105.45,46.26l.46.93c.45-.49,3.05-3.33,2.97-3.73-.22-1.08-1.47,1.07-1.63,1.24-.51.56-1.13,1.26-1.81,1.55ZM62.2,47.34c.05-.08-.03-.28.07-.43.42-.7,1.1-1.14.78-2.01-.13-.16-1.95,2.86-2.14,3.13-.63.89-2.62,2.54-1.79,3.58.85-1.1,1.56-2.27,2.32-3.43.21-.32.67-.68.77-.83ZM17.75,49.85c.12-.13.05-3.05.02-3.53,0-.13-.07-1.26-.37-1.05-.3,1.08-2.03,1.89-2.45,2.83-.12.26-.25,3.6-.18,3.79.05.13.2.37.33.19.7-.6,1.31-1.45,2.01-2.03.2-.16.59-.15.64-.21ZM109.46,47.2c-1.01-.36-1.78,1.11-1.15,1.92l1.15-1.92ZM17.93,51.19l-.24-.73c-1.04,1.51-3.49,2.3-2.77,4.48l-.4.22.39.22v1.79c.11.16,2.83-2.44,2.87-2.63.1-.47-.11-.91-.09-1.31.02-.6.42-1.22-.08-1.92l.32-.11ZM15.6,61.89c.73-.76,1.41-1.6,2.15-2.36l.04-4.08c-.31-.03-.22.41-.38.63-.52.7-2.1,1.57-2.44,2.39-.27.67.02,1.76-.08,2.07-.05.13-.33.07-.35.09-.07.1.26.26.29.47.04.32-.14.86,0,1.25.18.37.65-.31.79-.46ZM95.91,72.02c6.01-2.32,6.08-12.15.13-14.76-5.12-2.25-10.97,1.74-10.93,7.27l-.39.31c.7-.08.23.44.24.87,0,3.84,1.75,4.75,4.64,6.44.23.13.28.49.33.52.15.09,3.09,0,3.48-.05.9-.1,1.9-.36,2.5-.59ZM67.14,72.78c2.03-.92,3.46-1.93,3.91-4.25.98-4.98-1.54-11.26-7.37-10.81-.24.02-.53-.18-.62-.14-.03,0-.04.31-.15.35-3.86,1.61-4.66,5.93-3.56,9.73,1.01,3.49,4.09,5.3,7.61,5.42.11,0,.12-.27.18-.3ZM15.8,67.07c.63-.61,1.28-1.55,1.96-2.18-.18-1.25.08-2.5.1-3.75,0-.23.16-.33-.16-.53-.38,1-2.42,2.18-2.73,3.02-.14.39-.18,3.9-.04,4.08.27-.22.64-.4.89-.64ZM29.1,74.14v-4.32l-14.13,14.25-.25,4.16c.12.14,1.13-.7,1.27-.83,1.84-1.73,3.45-3.82,5.26-5.59l7.85-7.67ZM104.86,71.74c.52.54,1.89.06,2.41.02,1.53-.11,2.95-.35,4.44-.54,1.23-.15,2.87.29,3.69-.92,0-.27-.99-.36-1.24-.37-1.36-.05-5.38.48-6.81.75-.5.1-1.82.43-2.25.63-.2.09-.49.17-.24.43ZM75.2,81.39c-.39.37-2.2,2.52-1.29,2.8,1.18.37,3.27-3.02,3.62-3.02,1.19.58,3.78,3.38,4.99,3.34.52-.02.75-.39.59-.89-.44-1.38-4.3-2.38-4.83-4.39-.07-.26-.29-2.23-.2-2.42.18-.39.91-.49,1.26-.77,1.08-.89,2.19-2.83.22-3.41-.88-.26-4.18-.21-5.05.07-.21.07-.33.76-.91.58.26.53.13,1.06.41,1.6.4.78,1.7,1.32,2.09,1.94.21.34.75,3.18.64,3.51-.44.3-.73.61-1.1.94-.09.09-.35.04-.43.12ZM29.1,79.32v-4.12c-1.2.76-2.08,2.15-3.06,3.17-3.29,3.43-6.82,6.63-10.17,9.97-.35.35-.47.95-1.11,1.09l-.04,3.99c.16.11,1.51-1.04,1.73-1.24,3.02-2.73,6.14-6.06,8.93-8.91.48-.49,3.66-3.68,3.73-3.94ZM104.09,76.34c1.81.56,3.96,1.12,5.85,1.34.48.06,2.25.22,2.51.02.85-.66-.29-1.23-.99-1.34-1.34-.21-4.68-.6-5.93-.56-.31,0-1.29.19-1.43.54ZM110.99,89.77l-2.89-1.64c-.49.07-.89.18-1.34.38-3.18,1.4-9.8,9.91-11.97,12.97-.33.47-1.15,1.53-1.08,2,.92.4,1.94.45,2.88.78.74.26,2.34.89,3.02,1.2,2.89,1.34,6.03,4.87,9.28,6.45.29.14,2.97,1.08,3.13,1.07.31-.02.67-.22.86-.47.03-.28-1.52-1.23-1.85-1.4-4.01-1.99-5.39-3.18-8.92-5.67-1.25-.88-2.64-1.44-3.98-2.15,2.3-2.69,4.22-5.73,6.62-8.34.9-.98,2.07-1.84,2.93-2.88l3.3-2.3ZM57.82,92.4c-3.6.67-7.15,1.55-10.74,2.32l-15.1-5.72c.86,1.89,1.59,3.87,2.43,5.75.55,1.24,1.98,3.37,2.28,4.59.08.34-.12.64-.11.96l.38-.38c.25.98,1.16,1.85,1.05,2.88,2.12.28,4.81,1.69,5.24,3.97.11.57-.19,1.34.07,1.83.2.37.63.33.93.61.72.65,1.09,2.32.94,3.26-.07.46-.59,1.16-.52,1.52.05.27.63.6.81.9.77,1.26,1.13,2.74.78,4.21-.13.55-.53.68-.6.81-.06.11.04.4-.13.54l-1.48,1.81c-.03.11.34.06.39.22.08.32.14,1.74.19,2.27.21,2.46.29,5.13.19,7.57,3.29.17,6.44,2.07,9.27,3.68,2.22,1.27,2.75,2.46,5.6,2.26,4.93-.34,8.31-.78,13.44-.09,2.16.29,6.17,1.57,8.1,1.11,2.15-.5,4.73-2.11,6.99-2.6l9.36-2.54-1.83-9.88c-.36-.43-2.07.65-2.7.02l-.16.35c-2.3-.3-5.19-1.11-6.09-3.5-.21-.56-.3-1.85-.39-2.01-.06-.1-.64-.28-.85-.49-.97-.96-1.59-3.46-1.4-4.8.07-.5.51-1.13.47-1.49-.05-.47-.51-.79-.69-1.22-1.32-3.08,1.66-5.83,4.33-6.82l.28.38c-.35-1.09,2.44-.88,2.69-1.15-1.11-4.71-2.93-9.36-3.47-14.17l-17.34,4.21-.1-.58h-.57s.38.57.38.57c-2.82.6-5.82-1.47-8.54-1.73-1.08-.1-2.47.23-3.65.22-.1,0-.08.29-.14.3ZM37.19,110.83c1.95-.29,5,.45,5.34-2.26-1.64,1.15-3.56.88-5.45.97l-.29-.59-.37.47.78,1.4ZM91,109.99c-.92.02-5.17.4-5.12,1.74.03.85,3.12-.4,3.56-.48.27-.05.57.13.76.09.77-.14,3.11-.39,3.44-.86.09-.58-.46-.18-.73-.24-.74-.14-1.09-.27-1.92-.26ZM37.73,114.9c-.42,2.56,4.84,1.93,5.77.87.25-.29.24-.89-.4-.79-.78.13-1.47.52-2.38.5-.84-.02-2.16-.3-2.98-.58ZM88.17,118.73l6.32-1.44c-.03-1.07-5.33-.24-6.08.53-.2.2-.25.63-.24.91ZM103.84,128.38c-.35-.42-1.85-1.1-2.43-1.51-.27-.2-2.15-1.98-2.31-1.81.68,2.04,2.47,4,4.67,4.23.3-.07.27-.67.07-.91ZM124.81,138.87c3.68-1.08,4.38-2.48,3.35-6.13-.42-1.49-2.82-6.82-4.3-7.22-.59-.16-.85.83-1.25,1.28-2.84,3.14-6.32,4.43-10.54,4.58l-5.49-.75c2.1,3.18,3.73,6.65,4.84,10.31,2.42,1.74,4.75,1.28,7.39.39.23-1.13-.16-2.07.27-3.27,1.19-3.27,5.1-2.11,5.72.82ZM101.6,131.39c.15,1.1.18,2.25.38,3.35.13.74.45,2.78.73,3.31.53,1.02,2.79,1.1,2.74-.62-.06-1.94-.71-4.07-.68-6.05-1.05-.37-2.1,0-3.17,0ZM106.78,135.42v3.16c0,.05-.57.78-.67.87-2.01,1.82-5.17.32-4.89-2.3l-.93.21c.29,2.49.6,5.13,1.07,7.61.41,2.16.89,5.07,1.77,7.05,1.15,2.56,1.83,2.25,4.52,2.28,1.9.02,3.65-.41,5.47-.47-.81-1.29-1.23-2.73-1.69-4.17-1.1-3.5-1.51-7.81-2.91-11.46-.36-.93-.81-2.39-1.73-2.78ZM121.29,137.95c-1.5.46-1.09,4.83,1.26,4.34,1.85-.38.93-5.01-1.26-4.34ZM114.88,153.21c.3.08.62.16.93.12,1.74-.2,3.59-.99,5.22-1.45,3.28-.93,9.99-2.17,10.28-6.4.06-.91-1.28-5.94-1.9-6.33-.34-.22-1.73.79-2.24,1.04-.55.26-1.13.44-1.71.59-.34.46-.08.92-.36,1.54-.57,1.26-1.55,1.72-2.87,1.93l-.22-.4c-1,.77-1.77-.88-2.48-.88-.14,0-1.44.63-1.87.75-1.91.53-4.28.72-5.9-.62.61,3.48,1.49,6.98,3.11,10.12ZM91.43,143.67c-.38-.08-.52.08-.78.28-1.82,1.34-4.4,4.45-6.12,6.15-2.66,2.63-5.31,5.23-7.99,7.84-.12.11-.85.72-.65.88.14.11.64-.1.8-.26l14.74-14.89ZM95.65,143.67c-.29-.25-.56.18-.73.32-3.79,3.18-8.41,8.04-11.94,11.66-.96.98-1.85,2.07-2.68,3.17,1.13.06,1.92-1.6,2.68-2.4,2.68-2.82,5.57-5.44,8.35-8.13.53-.52.85-1.58,1.81-1.55l-.15-.34c.47-.4,1.08-.85,1.5-1.28.14-.14,1.27-1.33,1.14-1.45ZM98.15,145.39c-.37-.08-.52.08-.78.28-1.78,1.31-5.1,4.94-6.83,6.69-1.83,1.85-3.88,3.89-5.63,5.78-.11.12-.45.33-.28.48l.65.17,12.87-13.4ZM66.24,147.63c.4-.44.95-1.04.83-1.66l-6.5,6.16.17.55c.16.13,1.61-1.18,1.85-1.41,1.1-1.04,2.63-2.55,3.64-3.64ZM73.71,157.59c2.8-2.97,5.67-5.91,8.61-8.75.6-.58,1.37-1.02,1.92-1.72.16-.2.45-.43,0-.57-.05-.02-.3.51-.47.68-3.36,3.29-7.77,6.82-10.75,10.34-.29.34-.72.78-.76,1.25l1.46-1.22ZM71.1,147.12c-.95.08-1.6,1.21-2.3,1.82-1.51,1.34-2.99,2.58-4.21,4.22l-4.13,4.12c.34.41.42.11.67-.09.4-.31,1.08-.96,1.46-1.33,2.91-2.82,5.63-5.89,8.51-8.74ZM74.37,147.7l-11.04,10.92.44.45,11.04-10.92-.44-.45ZM78.77,148.46c-.83.15-1.31,1.05-1.87,1.54-.49.44-1.18.86-1.78,1.43-2.27,2.13-4.36,4.47-6.62,6.62l-.19-.38-.48,1.15c.44.13.43-.08.61-.21.48-.35.89-.85,1.3-1.23,3.06-2.91,6.06-5.91,9.02-8.91ZM98.91,148.66l-10.55,10.16c1.02.23.97-.29,1.41-.7,2.41-2.26,6.82-6.02,8.67-8.5.22-.3.34-.62.47-.97ZM99.49,152.3c-.07-.06-.61-.07-.63.24l-5.89,6.28,1.12-.21c-.03-.15-.1-.31.01-.46,1.39-1.8,3.57-3.44,5-5.18.1-.12.58-.49.38-.67ZM100.17,156.44c.29-.36.78-.86.96-1.25.07-.16.24-.64-.11-.59-.94,1.47-2.48,2.83-3.84,3.93l.76.48c.44-.99,1.52-1.71,2.23-2.57Z"/>
        <path d="M89.2,62.99c1.44-1.24,3.38-.44,4.28,1.06,1.84,3.08-.24,9.87-3.67,7.51-2.26-1.55-2.71-6.75-.61-8.56Z"/>
        <path d="M63.87,64.51c.82-.92,2.08-1.14,3.11-.44,2.5,1.7,2.7,7.59-.29,8.35-3.29.85-4.44-6.1-2.82-7.91Z"/>
      </g>
    </g>
  </g>
</svg>