<?xml version="1.0" encoding="UTF-8"?>
<svg id="Layer_2" data-name="Layer 2" xmlns="http://www.w3.org/2000/svg" viewBox="0 0 167.76 174.33">
  <defs>
    <style>
      .cls-1 {
        fill: #0a0a0a;
      }

      .cls-2 {
        fill: #080808;
      }

      .cls-3 {
        fill: #090909;
      }
    </style>
  </defs>
  <g id="Layer_1-2" data-name="Layer 1">
    <g>
      <path class="cls-2" d="M42.62,111.54h0c.23.24.22.63-.02.86l-21.92,20.91c-.25.24-.65.22-.88-.04h0c-.21-.24-.19-.61.04-.83l21.92-20.91c.24-.23.63-.22.86.02Z"/>
      <polygon class="cls-2" points="46.87 113.62 47.16 114.55 27.33 134.04 26.52 133.19 46.87 113.62"/>
      <path class="cls-2" d="M33.42,134.43s-.12-.46-.1-.58c.09-.39,2.47-2.66,2.97-3.14,6.02-5.88,11.55-10.89,17.59-16.76.41-.54.72.23.31.78-.64.85-1.33,1.48-2.14,2.29-4.02,3.94-8.18,7.75-12.23,11.66-1.57,1.51-3.63,4.07-5.27,5.29-.23.17-.84.65-1.11.46Z"/>
      <path class="cls-3" d="M54.14,121.28c-1.86,1.87-10.76,10.98-12.66,12.71-.65.59-1.04,1.04-.35-.65l13.96-14.17c2.4-.5-.37,1.54-.94,2.11Z"/>
      <path class="cls-3" d="M42.82,141.55c.17.16.14.57-.28.69-.69.2-9.72.34-10.05-.09-.21-.27.15-.89.29-.94,1.74-.2,8.31-.11,10.04.33Z"/>
      <path class="cls-3" d="M40.51,152.38c.4,0,12.65-.22,12.84.29.29.8-1.33.79-1.94.97-.81-.3-15.24.06-15.5-.37s.1-.84.53-.9c1.28-.23,2.74-.16,4.07,0Z"/>
      <path class="cls-2" d="M157.06.08c1.51,0,3.1.03,4.63,0,1.54-.11,3.08-.11,4.63,0,0,.09,0,.15.09.18.76-.13.79.42,1.2.74.13,2.59.15,5.19,0,7.78v1.67c.19,2.14.19,4.24,0,6.3-.13.02-.32.45-.6.6-.61.32-1.69.32-2.4.56-3.95,1.36-3.75,7.68-.03,9.19,1.08.44,2.59.11,3,1.45l.04,11.63c.11,1.19-1.54,1.65-2.17.77-.75-1.04.05-9.12-.27-10.93-.14-.41-1.71-.76-2.26-1.08-4.19-2.47-4.78-9.11-.85-12.09.98-.74,2.07-.98,3.14-1.53-.23-3.81.27-7.89,0-11.66-.03-.36-.1-.38-.2-.63-.36-.02-.5-.13-.17-.19l-13.72-.18c-.89,2.95-2.49,5.34-5.6,6.16-2.86.76-5.04.52-7.28-1.53-1.53-1.4-1.81-2.77-2.5-4.64-2.2.12-4.56.14-6.85,0-.44-.42-2.45-.04-2.78.28-.17.16-1.01,2.36-1.44,3-3.18,4.76-10.22,4.27-12.79-.82-.27-.54-.78-2.53-1.08-2.63l-9.05-.03c-.68.12-.83,1.78-1.11,2.41-1.55,3.53-6.46,5.39-9.92,3.62-1.13-.58-2.95-2.17-3.55-3.31-.33-.64-.53-1.9-.9-2.26-.17-.16-2-.72-2.21-.35-.55.23-1.65.21-2.22,0-.2-.23-.72-.12-1.03-.11-1.52.04-3.04-.1-4.53.28-.71,2.67-1.97,5.11-4.77,5.97-4.1,1.27-7.82-.6-9.56-4.41-.49-1.07.11-1.71-1.49-1.85-1.97-.16-6.05-.19-7.95.03-1.33.16-1.19,1.42-1.74,2.51-.74,1.45-1.82,2.67-3.3,3.37-4.84,2.28-9.86-.49-10.64-5.7-.69.13-1.46-.17-2.02-.2-1.29.12-2.6.15-3.89,0-1.29,0-2.61-.08-3.89.09-.5.25-.3.94-.46,1.4-2.29,6.52-10.76,7-13.96.98-.28-.53-.62-1.95-.77-2.1-1.29-.11-2.61-.17-3.98-.2l-.28-.17c-.25,0-1.29-.06-1.3.19-1.12.04-2.27.01-3.44-.08l-.26.27-.08,12.6c.23.42,1.49.6,2.06.88,4.51,2.26,5.1,8.93,1.15,11.96-.87.67-1.8.96-2.76,1.41.01.36-.06.45-.22.27-.06,3.04-.11,6.15-.15,9.36,0,.02-.19.16-.18.43,0,.21.21,1.55.26,1.62.09.13,2.11.75,2.79,1.29,3.24,2.58,4.1,7.53,1.3,10.74-1.25,1.44-2.53,1.79-4.17,2.59l.08,10.96c.22.21.51.38.84.52,5.6,2.19,6.77,10.01,1.65,13.23-.48.3-2.46.96-2.54,1.07-.3.41-.03,1.08-.04,1.26l.06,9.93c.17.44.64.71,1.42.81.02.15,1.96,1.3,2.39,1.78,3.65,4.03,1.63,10.86-3.5,12.3-.12.3-.16.39-.19.13-.11,3.8-.11,7.59,0,11.35.14.17,2.11.95,2.65,1.33,4.04,2.77,3.91,10.19-.56,12.53-.73.38-1.48.36-1.97.63-.76.42-.25,1.22-.3,1.91-.07,1.04-.02,1.58-.01,2.5.11,2.24.14,4.49.09,6.73.3.36.77.59,1.4.68.02.13,1.76,1.12,2.13,1.48,3.15,3.1,2.95,9.47-1.08,11.7-.8.44-1.74.54-2.35.89-.25,3.83-.21,7.96,0,11.85,1.35.08,2.71.14,4.07.19.06,0,.12,0,.19,0,1.95.02,3.86-.08,5.74-.28l.19-.64c1.41-3.82,4.72-6.32,8.9-5.29,1.9.47,4.11,2.22,4.84,4.05.24.6.16,1.56.7,1.98,3.17.22,6.46.14,9.67,0-.28,0-.23-.07.15-.19.53-.91.75-1.92,1.33-2.84,1.11-1.73,2.9-2.99,4.97-3.28.66-.18,1.56-.18,2.22,0,3.91.51,4.98,3.32,6.48,6.3.35.01.5.12.19.19,2.54-.08,5.14-.08,7.78,0,2.36-.07,1.35-.14,2.13-1.85,2.6-5.7,10.46-6.18,13.46-.68.28.52.84,2.16,1.08,2.35,3.2.19,6.42.21,9.67.05.04-.41.15-.73.33-.97,2.1-5.88,9.5-7.33,13.23-2.21.38.52,1.24,2.95,1.4,2.95.27.29.68.4,1.23.33l6.55.04s.15.18.43.18c.18,0,1.55-.21,1.62-.26.17-.12.31-1.06.45-1.4.59-1.39,1.21-2.77,2.51-3.6,3.45-2.22,8.21-1.72,10.62,1.77.51.75.99,2.8,1.41,3.13,3.14.12,6.3.13,9.49,0-.28,0-.23-.06.15-.19.62-1.23.86-2.57,1.85-3.62,2.87-3.06,7.87-3.26,10.92-.34,1.37,1.31,1.46,2.79,2.24,4.33l14.11-.09c0-1.52.04-3.03.16-4.54.04-6.3.1-12.7,0-18.98,0-.62.11-2.12-.04-2.57-.13-.39-1.85-.76-2.43-1.08-4.73-2.62-4.25-10.23.18-12.9.42-.25,2.04-.81,2.1-.9.72-1.16-.18-9.17.19-11.05-2.3-.8-4.1-1.62-5.15-3.96-2.05-4.56.14-9.58,5.06-10.78.18-.28.07-.94.08-1.3-.13-1.48-.15-2.97,0-4.45,0-.37,0-.74,0-1.11-.06-1.4-.09-2.8-.12-4.2-.47-.39-1.05-.66-1.73-.8-.34-.21-1.37-.9-1.68-1.19-3.73-3.59-2.75-10.25,1.86-12.6.6-.31,1.55-.2,1.67-1.02-.12-1.42-.12-2.84,0-4.26.01-.88-.16-4.42.17-4.88.35-.48,2.04-.4,2.16.43l.04,10.43c-.28,1.57-1.49,1.05-2.56,1.33-3.62.97-4.2,6.87-1.56,9.17,1.18,1.03,1.76.88,3.1,1.16s1.02,1.25,1.06,2.36c.18,1.48.15,2.97,0,4.45,0,.55,0,1.11,0,1.67.17,1.94.14,4.02,0,5.93-.32.23-.49.65-.94.82-.59.22-1.42.22-2.13.47-3.94,1.4-3.85,7.92-.15,9.79,1.02.51,1.54.22,2.34.44.4.11.55.64.87.89.15,3.89.15,7.78,0,11.67-.03.91.29,2.59-.87,2.93-1.37.39-1.75-.18-3.21,1.05-3.38,2.86-2.23,8.26,2.18,9.31.4.09.86-.03,1.22.08.33.1.4.49.68.71.16,9.15.18,18.91,0,28.15-.08.45-.05.97-.36,1.35-.22.27-.64.19-.75.5-5.49.16-11.49.16-17.04,0-.12-.32-.49-.23-.69-.42-.54-.5-.36-1.84-.5-2.56-1.02-5.17-8.73-4.87-9.87.15-.19.83.12,2.44-.97,2.75-4.29.05-8.65.23-12.93-.06-1.11-.8-.63-2.3-1.14-3.49-1.53-3.56-6.41-4.02-8.72-.91-.9,1.21-.77,3.86-1.61,4.36-.59.35-3.41.16-4.32.17-1.78.16-3.59.2-5.37,0-1.61-.03-3.69.58-4.18-1.29-.36-1.39-.43-2.68-1.48-3.89-2.44-2.8-7.41-1.62-8.46,1.89-.31,1.05-.04,2.87-1.43,3.19l-12.47.05c-1.3-.29-.99-2.38-1.47-3.53-1.74-4.16-7.54-3.98-9.23-.05-.55,1.28.08,3.31-1.66,3.62-1.03.24-2.25.13-3.33,0-1.96.08-3.62.07-5.56,0-1.04.14-2.12.17-3.15,0-.03-.26-.73-.28-.97-.79s-.22-1.39-.42-1.99c-1.24-3.77-6-5.34-8.71-2.04-1.25,1.52-.98,4.13-1.94,4.82-1.91.2-3.83.14-5.74,0-1.41,0-6.82.27-7.74-.14s-.51-1.87-.64-2.69c-.64-3.83-6.05-5.36-8.57-2.18-1.26,1.58-.71,2.82-1.34,4.21-.28.62-.83.5-.97.79-2.08.15-4.36.16-6.48,0h-.56c-1.84.16-3.76.15-5.56,0-.28-.36-.87-.64-1.11-1.11-.27-4.01-.2-8.07,0-12.04,0-.56-.04-1.31,0-1.94.12-1.81,1.69-1.28,3.06-1.75,4.35-1.48,3.48-8.6-.88-9.7-1.11-.28-2.01.23-2.19-1.33-.14-1.2.02-2.64,0-3.8-.16-1.29-.16-2.6,0-3.89.01-1.23-.22-5.72.29-6.47.26-.39,1.74-.45,2.43-.72,3.46-1.34,4.05-6.07,1.55-8.65-1.4-1.44-2.21-.8-3.48-1.34-.61-.26-.5-.83-.79-.97-.13-1.84-.15-3.71,0-5.56,0-.25,0-.49,0-.74-.17-2.52-.11-5.07,0-7.59.28-.22.34-.52.69-.7.54-.29,1.35-.2,2.01-.4,3.38-1.02,4.36-5.96,1.83-8.33-1.08-1-4.23-1.63-4.52-2.24-.14-1.1-.2-2.25,0-3.33.02-.57,0-1.19,0-1.67v-9.45c.58-1.01,1.45-.72,2.23-1.01,4.94-1.84,4.6-8.49-.36-10.02-.47-.14-1,.04-1.42-.25-.63-.44-.42-1.74-.45-2.42-.2-2.32-.17-4.71,0-7.04,0-.56,0-1.12,0-1.67-.16-1.17-.13-2.35,0-3.52.17-.02.32-.48.56-.64.44-.29,1.8-.47,2.53-.81,3.99-1.86,3.6-8.17-.49-9.21-.85-.21-2.01.18-2.46-.87-.35-.82-.13-4.17-.14-5.32C0,34.6.04,31.5.18,28.42c.25-.2.31-.47.56-.64.54-.36,1.27-.21,1.85-.37,3.99-1.13,4.41-7.38,1.05-9.21-.87-.48-3.2-.45-3.43-1.2L.05,6.5c0-.13.13-.25.13-.3C.03,4.84.07,3.48.18,2.12c.15-.92,0-1.6,1.21-1.84l12.32.07c.73.2.6,2.66.9,3.54,1.43,4.21,8.4,4.39,9.7-.32.25-.91.05-2.9,1.04-3.22l12.5-.07c1.51.24,1.02,2.09,1.3,3.14.6,2.22,3.4,3.65,5.57,3.52s3.79-1.96,4.44-3.9c.32-.95.06-2.24,1.2-2.69h12.79c.8,1.06.59,2.47,1.21,3.8,1.96,4.23,8.03,3.65,9.44-.56.33-1,.13-2.92,1.2-3.24h12.97c.87.88.42,2.15.83,3.25,1.73,4.66,8.83,4.52,10.01-.74.22-.96-.18-2.04,1.01-2.51,3.97.1,8.42-.41,12.33-.09,1.79.15,1.07,1.73,1.47,3.16,1.26,4.51,8.28,4.8,9.82.18.46-1.39-.01-3.18,1.85-3.34,3.73-.32,7.9.25,11.68,0,1.59.13,1.34,2.07,1.7,3.3,1.41,4.69,8.09,4.3,9.59-.15.35-1.03.06-2.32.93-2.96.18-.13.83-.26.84-.36,2.37-.1,4.72-.1,7.04,0Z"/>
      <path class="cls-2" d="M165.76,61.49c-1.36-.58-2.3,1.03-3.24,1.75-2.7,2.07-6.34,3.04-9.71,2.41.48-1.93,1.98-3.42,2.4-5.46,3.45-.46,7.2-1.47,9.74-3.97.65-.64,2.28-2.4.83-3.06-1.18-.53-2.31,1.05-3.16,1.65-2.12,1.48-4.16,2.43-6.84,2.33.23-1.97.3-3.76.02-5.73,2.59-.48,5.21-1.21,7.45-2.65,1.01-.65,3.38-2.16,2.44-3.48-1.04-1.45-2.92.68-4.04,1.32-2.03,1.17-4.3,2.03-6.68,1.83-.4-.86-.65-1.81-1.07-2.67-2.26-4.66-7.07-8.36-12.08-9.59-11.43-2.82-21.73,4.85-23.27,16.23-.04.09-.09.1-.18.09,0,.92.01,1.85,0,2.78.38.59.11,1.39.23,2.09,1.4,8.42,7.75,14.58,16.02,16.2.54.11,1.14-.05,1.59.05.2.05.13.46,1.34.37,3.77-.27,7.48-1.49,10.52-3.74.62-.46,2.07-2.03,2.67-2.16.81-.17,2.81.47,3.85.48,3.12.06,6.69-1.12,9.16-3.03.73-.57,3.89-3.28,2.05-4.06ZM152.9,51.57c.2.35-2.69,3.1-3.14,3.45-1.53,1.18-2.05.26-3.63-.39.74-.47,3.33-3.44,3.84-3.58.34-.1,2.75.21,2.93.52ZM144.47,61.68c.67-.66,2.76-3.04,3.5-3.16.24-.04,2.98.95,2.98,1.11-1.41,1.39-2.75,2.82-4.38,3.95-.14.03-2.56-1.16-2.66-1.27-.27-.33.38-.46.56-.63ZM143.04,61.55c-.83.24-2.62-.91-3.57-.53-.08-.32.13-.37.27-.56.51-.64,3.36-3.46,3.98-3.63.15-.04,2.86.92,2.97,1.04.11.11,0,.26-.12.38-.41.42-3.3,3.22-3.53,3.29ZM150.18,44.93c.16.1,1.17,1.81,1.3,2.13.18.44.32.89.39,1.36-.24.22-3.9-1.06-4.07-1.3-.15-.22.1-.56.26-.75.24-.29,1.83-1.61,2.12-1.44ZM149.26,43.74c.12.46-2.1,2.51-2.52,2.62-.19.05-2.47-.97-2.56-1.08-.21-.27-.03-.29.1-.47.21-.3,2.72-2.8,2.91-2.85.5-.13,1.97,1.4,2.07,1.78ZM133.27,70.46c-5.44-1.4-10.15-5.81-11.59-11.29-.48-1.82-.74-4.05-.56-5.93.67-6.81,5.15-13.02,12.04-14.54,1.2-.27,1.93-.17,3.15-.09-.33.65-3.17,2.97-3.14,3.43.01.2.41.29.63.27.79-.05,1-.86,1.49-1.3.38-.35,2.87-2.6,3.06-2.67.38-.14,3.68.53,3.9.83l-2.56,2.69c.14.21.35.47.62.47.51,0,2.54-2.87,3.29-2.76.24.04,2.51,1.24,2.81,1.45.2.15.19.21.02.38l-3.59,3.24-3.54-.84h-3.7c0,.13-2.01.41-2.37.5-1.41.39-2.82,1.07-4.02,1.91-.85.6-3.64,2.62-2.89,3.76.72,1.1,2.34-.66,2.99-1.06,1.67-1.03,3.56-1.99,5.54-2.14l-5.37,5.09c-.66.73-.07,1.31.83.65,1.99-1.46,3.89-4.28,5.74-5.56,1.15-.8,2.76-.22,3.98.19.14.19-3.06,2.94-3.24,3.33-.39.85.34.79.92.37.71-.51,3.19-3.18,3.73-3.29.37-.07,3.03.97,3.03,1.16-.38.53-3.52,3.09-3.14,3.61.04.06.71.22.92.11.2-.11,1.2-1.38,1.5-1.66.22-.2,1.48-1.35,1.58-1.37.16-.03,2.61.91,3.13,1.07.13.04.41-.06.27.28-.1.22-3.23,3.34-3.47,3.4-2.4-.53-4.66-1.66-7.17-1.83-2.86-.2-4.66.23-7.14,1.58-1.05.57-4.32,2.76-4.44,3.91-.35,3.2,4.68-1.02,5.43-1.44,1.62-.91,3.48-1.42,5.31-1.07l-6.24,6.01.25.48c.91.12.92-.45,1.35-.85,1.75-1.59,3.52-3.15,5.29-4.72.25-.23.41-.72.65-.84.42-.21,3.7.47,3.98.84l-2.59,2.78c-2.02,2.46-4.82,1.86-7.5,3.05-.77.34-3.25,1.82-3.71,2.4-.89,1.12.03,2.35,1.48,1.85,1.48-.51,2.6-2.02,4.82-2.49,1.71-.37,3.12-.32,4.82,0,.24.05.5.06.56.37-1.32.78-2.39,2.16-3.52,3.25-.21.2-1.41.93-.45,1.19.74.2,2.93-2.48,3.59-3.05.21-.18,1.34-1.15,1.43-1.17.3-.08,2.76.84,3.09,1.08.2.15.18.21.02.39-.68.69-1.56,1.37-2.23,2.03-.23.22-.33.53-.56.74-.45.42-2.45,2.27-2.82,2.36-1.28.33-4.33-.17-5.69-.52ZM141.32,70.47l4.44-4.36,1.85.93c-1.67,1.71-3.95,2.92-6.29,3.43ZM150.2,64.44c-.66.57-1.68.17-2.31-.27l4.54-4.45c-.16,1.06-1.48,4.08-2.23,4.72ZM150.21,56.2c-.17-.22,2.66-2.68,2.96-2.96.1.74.43,3.36-.17,3.81-.41.3-2.18-.87-2.79-.85Z"/>
      <path class="cls-2" d="M147.98,137.15c.74.73.74,1.26-.28,1.66-5.68.08-11.36-.07-17.04,0-.73,0-1.64.18-2.31.19-2.33.16-4.72.16-7.04,0,0-.35-.9.17-.92-.85-.01-.6.37-.65.74-1h26.86Z"/>
      <path class="cls-2" d="M76.67,152.52c1.42-.15,2.84-.17,4.26,0,.66.01,3.36-.27,2.51.94-.3.44-3.56.16-4.26.16-4.23,0-8.48,0-12.7.01-2.86.19-5.82.22-8.71,0-.52-.14-1.55-.31-.93-1.02,6.59-.16,13.23-.14,19.82-.09Z"/>
      <path class="cls-2" d="M128.72,146.22c-3.45.16-6.92.15-10.37,0-.34-.42-.88-.43-.25-1.12,1.14.16,2.4-.13,3.49-.14,4.68-.03,9.43.36,14.08-.04,1,.41,2.76-.65,2.97.93-.73.81-1.82.35-2.61.37-2.42.05-4.88.02-7.32,0Z"/>
      <path class="cls-2" d="M140.2,77.69c.11,1.03-.89,1.76-1.57,2.41-2.62,2.54-5.36,4.96-8,7.47-2.05,1.94-4.37,4.61-6.54,6.33-.82.65-1.29.33-.76-.57.4-.68,2.21-2.01,2.89-2.67,3.29-3.25,6.67-6.41,10-9.64.71-.69,2.42-2.92,3.25-3.23.25-.09.47-.14.73-.1Z"/>
      <path class="cls-1" d="M76.66,145.11c.15,0,.31,0,.46,0h9.98c1.04,0,4.93-.16,5.47.17.26.16.38.4.33.66-.32.44-.94.22-1.39.28-.06.17-.13.16-.23,0h-21.23c-1.17-.35-.5-.7-.12-1.11,2.24-.13,4.49-.16,6.73,0Z"/>
      <path class="cls-3" d="M130.2,152.33c.59.26.42.94,0,1.3-2.21.23-4.46.16-6.67,0-.12,0-.25,0-.37,0-1.21.14-2.57.25-3.7,0-.85-.17-1.01-.87-.19-1.3h10.93Z"/>
      <path class="cls-1" d="M87.79,141.22c.23,0,1.62.14,1.97.19.75.1,1.03.84.54,1.08-.27.13-.89-.11-.88.22-3.36.12-6.77.12-10.21,0-1.11-.54-5.18.45-3.56-1.27,3.71-.04,7.42-.04,11.13-.01.44,0,.74-.2.78-.2.05-.13.13-.12.23,0Z"/>
      <path class="cls-2" d="M133.35,77.51c.71.74-2.38,3.03-2.87,3.51-2.5,2.44-4.86,5.23-7.49,7.51-.68.59-1.49.47-.94-.39,3.02-2.83,5.79-5.96,8.8-8.79.3-.28,2.22-2.15,2.5-1.85Z"/>
      <path class="cls-2" d="M128.54,75.65c.76.54-1.33,1.96-1.67,2.31-.71.72-1.41,1.41-2.13,2.13-.93.93-3.79,4.18-4.62,4.65-.36.21-.63.21-1.03.17-.43-.42,1.35-1.79,1.67-2.12,2.3-2.37,4.77-4.61,7.12-6.96.13-.15.54-.26.66-.18Z"/>
      <path class="cls-3" d="M108.9,152.33h.37c1.28-.15,2.64-.16,3.89,0,.03.22.63.29.55.65-.21.28-.53.37-.74.65-2.44.16-5.27.16-7.78,0-.15-.21-.65-.45-.54-.81.06-.21.51-.3.54-.48,1.17-.16,2.48-.15,3.7,0Z"/>
      <path class="cls-3" d="M96.68,152.52c.14.11.27.77.17.91-.29.14-.61.14-.91.2-1.87.16-3.72.16-5.56,0-.03,0-.13-.16-.29-.17-.71-.06-1.8.46-1.35-.92.76-.08,1.55.04,2.31-.01.24-.02.42-.19.45-.19,1.76-.28,3.49-.22,5.19.19Z"/>
      <rect class="cls-3" x="115.38" y="76.65" width="9.89" height=".94" transform="translate(-19.69 105.76) rotate(-44.22)"/>
      <path class="cls-3" d="M120.2,70.28c.05.38-.03.66-.21.99-.14.27-4.05,4.04-4.32,4.2-.77.45-1.14.21-.57-.57s3.39-3.56,4.17-4.16c.27-.21.55-.5.93-.46Z"/>
      <path class="cls-2" d="M134.37,141.11c1.77.04,3.55.12,5.09.11-1.7-.07-3.39-.11-5.09-.11Z"/>
      <path class="cls-2" d="M33.59,107.39c.12-.61-.26-.96-.74-.55-6.19,6.05-7.78,7.54-14.16,13.35-.85.78-1.54,1.8-2.59,2.32v-5.09l16.27-15.78c-.01-1.15-.91-.41-1.45.03-2.52,2.04-4.94,5.05-7.31,7.32-2.13,2.04-4.53,4.21-6.77,6.11-.21.18-.38.67-.74.74.21-1.39-.37-4.23.18-5.37.24-.48,1.39-1.5,1.85-1.95,3.2-3.14,10.21-9.31,13.42-12.45.21-.38,0-1.07-.85-.48-3.46,2.46-10.23,10.27-13.88,12.73-.98.66-.7-.52-.73-1.19-.05-1.17.03-2.35,0-3.52,2.87-2.77,9.89-9.4,12.75-12.18.33-.32,1.49-.96.47-1.22-.37-.05-1.26.83-1.53,1-1.12.7-5.88,5.81-7.08,6.91-1.5,1.37-3.08,2.67-4.61,4v-5.28c0-.18,1.76-1.26,1.98-1.45,2.44-2.15,13.28-12.23,15.76-14.4,5.64-4.92,3.62-4.58,2.79-4.15l-20.53,18.61v-5.09c1.28-.79,2.16-2.04,3.23-3.07.86-.82,18.94-17.77,18.94-18.4,0-.54-.54-.58-.87-.26l-21.22,20.34c-.18-.36-.09-.89-.09-1.3-.02-1.29.01-2.6,0-3.89,7.01-6.6,14.08-13.14,21.03-19.81.61-.58,1.39-1.11,1.2-2.04-.23-.23-1.24.63-1.48.83-2.63,2.18-5.09,5.05-7.59,7.41-4.19,3.96-8.52,7.78-12.69,11.76-.67.15-.45-1.59-.46-2.04-.02-.92.01-1.85,0-2.78,10.07-9.39,19.85-19.1,29.82-28.62.95-1.7-.21-1.12-1.11-.37-1.75,1.44-3.28,3.34-4.91,4.91-3.07,2.96-6.26,5.84-9.36,8.8-4.8,4.59-9.56,9.21-14.35,13.8-.5-.68.07-1.47.08-2.15,0-.95-.55-2.34.1-3.23,5.36-4.88,10.42-10.08,15.66-15.09,3.36-3.21,6.94-6.27,10.29-9.53.53-.52,3.98-3.86,3.98-4.17,0-.79-.84-.36-1.21-.09-2.07,1.48-4.96,4.88-6.94,6.76-7.31,6.94-14.69,13.83-21.95,20.83-.57.05-.09-.2-.09-.28v-4.82c5.57-5.47,11.28-10.84,16.95-16.2,3.54-3.85,7.63-7.18,11.32-10.82.24-.24,1.77-1.85,1.82-1.97.18-.39.08-1.02-.37-.92-.07.02-.84.76-1.06.94-5.67,4.67-11.67,11.1-17.1,16.28-3.05,2.91-6,6.11-9.17,8.71l-2.32,2.41c-.18-.2-.08-.65-.09-.93,0-.12,0-.25,0-.37-.01-.93-.17-3.15,0-3.89.06-.25,1.44-1.56,1.75-1.86,12.91-12.42,26.15-24.59,38.81-37.22.28-.28.69-.94,1.01-1.12.95-.55,4.38.04,5.66-.17.02.22-.28.27-.37.37-.18.2-11.41,12.34-9.69,12.18.77-.07,10.83-12.16,11.73-12.55,1.28-.55,4.04.33,5.56,0,.02.22-.28.27-.37.37-.73.84-9.08,9.61-9.38,10.4-.16.4-.53,1.2,0,1.19.37,0,7.68-8.49,8.11-8.89,1.09-1,2.43-1.77,3.22-3.08h5.46c-.55.96-3.1,2.37-3.16,3.42-.04.68.97.08,1.21-.09.68-.48,3.11-3.33,3.52-3.33h5.46c.07.3-.1.38-.27.56-.5.54-2.89,2.11-2.69,2.86.04.16.29.29.46.3.88.08,3.13-3.32,4.15-3.64,1.39-.43,3.85.23,5.38-.08-.46.87-3.63,3.31-3.71,3.99-.04.31.04.46.29.64.34.07,3.43-2.93,3.98-3.42.26-.23.5-.5.74-.75.15-.16.15-.46.18-.46h5.74l-5.28,5.18c-.1,1.96.92.5,1.48,0,.59-.52,1.39-1.04,1.96-1.57,1.02-.95,2.2-2.61,3.33-3.33.52-.33.73-.25,1.29-.29,1.4-.09,2.86.07,4.26,0-.29.5-.77.86-1.21,1.23-.08.08-.17.17-.28.25-2.02,1.96-4,3.96-6.12,5.82-.45.59-.09,1.2.63,1.04.06-.01.53-.73.76-.94,2.75-2.43,5.38-5,8.15-7.4h5.09c.08.32-.14.37-.28.56-1.24,1.63-4.15,3.41-5.18,5.01-.29.45-.55,1.09.18,1.03.63-.05,1.68-1.65,2.21-2.15,1.14-1.07,2.42-2.03,3.6-3.07.4-.35.86-1.23,1.5-1.37,1.36-.29,3.7.22,5.19,0,.16.55-.31.31-.37.37-1.75,1.8-3.5,3.62-5.27,5.38-.77.77-2.38,1.53-2.32,2.77.37.5,2.03-1.05,2.41-1.38,1-.88,7.12-7.13,7.68-7.13h4.91l-5.46,5.56c-2.03,1.61-3.72,3.57-5.56,5.37-.54.53-2.39,1.84-2.51,2.49-.13.71,1.04,0,1.28-.2.2-.17.29-.46.48-.63,4.71-4.07,9.13-8.53,13.8-12.6h5.19s-.18.37-.18.37c-5.98,6.28-13.04,11.92-18.99,18.15-.22.23-1.09,1.24-1.16,1.43-.1.27-.17.69.24.62.74-.14,2.47-2.33,3.14-2.97,5.51-5.27,11.17-10.38,16.7-15.62.64-.61,1.24-1.82,2.22-1.97l5.07.09c-2.51,2.37-5.01,4.75-7.5,7.13-6,5.73-12.07,11.41-17.96,17.23-.64.64-2.65,1.99-2.7,2.86-.04.71.92-.02,1.12-.18,1.7-1.3,3.99-3.73,5.65-5.28,6.77-6.34,13.41-13.06,20.28-19.36.6-.55,2.19-2.09,2.78-2.31,1.37-.52,3.66,0,5.19-.18.16.55-.31.31-.37.37-4,4.1-8.62,7.97-12.5,12.04-.21.22-1.5,1.69-1.53,1.8-.17.51-.09.7.42.61.31-.06,4.09-3.6,4.66-4.14,3.23-3.05,6.49-6.89,9.88-9.66.97-.79,1.39-1.25,2.78-1.02v3.8c-1.94,1.81-3.95,3.6-5.84,5.46-1.49,1.46-3.99,3.64-5.19,5.19-.2.26-.43.48-.46.83.27.39.69.38,1.03.11l9.53-9.37.92-.64v4.91c0,.64-5.93,5.61-5.93,6.3,0,.41.43.6.75.37l5.19-4.91v4.91c0,.16-1.37,1.12-1.3,1.48.12.54,1.07.19,1.29-.09-.38,1.21.16,4.04,1.84,2.86.66-.46.37-3.09.38-3.97.02-1.11,0-2.23,0-3.33,0-.12,0-.25,0-.37v-9.63c-.01-1.38.19-3.45-.01-4.71-.05-.34-.34-.87-.63-1.04-.63-.37-6.1-.17-7.33-.17-1.85-.01-3.71,0-5.56,0-.49,0-.99,0-1.48,0h-36.49c-.06,0-.12,0-.19,0-12.15.3-24.4.17-36.65,0H16.66c-1.14.04-2.27-.23-2.58,1.21-.05,6.94,0,13.88-.01,20.83,0,2.34,0,4.69,0,7.04-.01,12.5.02,25.08,0,37.6,0,1.29,0,2.6,0,3.89-.01,7.07.04,14.07,0,21.12,0,.92,0,1.85,0,2.78-.01,1.49.02,2.96,0,4.45.03,3.21,0,6.42,0,9.63v1.11c0,1.23,0,2.47,0,3.7,0,.06,0,.12,0,.19,0,1.16,0,2.35,0,3.52v1.85c0,.99,0,1.98,0,2.96,0,2.34,0,4.7,0,7.04,0,1.48,0,2.96,0,4.45.01,2.95-.27,6.71,0,9.55.23,2.5,2.37,1.54,4.27,1.57,2.44.04,4.79,0,7.22,0,24.22.02,48.63-.05,72.89,0,8,.01,16.02-.04,23.98.19,1.6.05,3.22-.03,4.82,0,1.16-.16,2.41-.18,3.6-.19,6.16-.06,12.29.16,18.44.19,1.11,0,2.23,0,3.33,0,0-.09,1.01-.67,1.3-1.11-.01-1.02.01-2.04,0-3.06-.04-5.51-.19-11.18-.17-16.69,0-.94.09-1.91.16-2.85-.3-.19-.21-.71-.19-1.01.08-1.09.17-2.24.19-3.25v-18.89c0-.15,0-.4,0-.56,0-4.26-.11-8.53,0-12.78-.51-.28,0-.95,0-1.11.04-.69,0-1.66,0-2.41.02-1.83,0-3.69,0-5.56,0-.13,0-.41,0-.56.01-3.74.02-7.46,0-11.21,0-1.23-.21-2.33,0-3.6-.4-.82.3-2.72-1.06-2.93-.94-.15-.93.46-1.34.81-5.64,4.7-11.06,10.69-16.4,15.84-.66.64-13.46,12.58-13.51,13.18-.05.51-.13.57.25.42.47-.18,11.98-11.25,12.51-11.75,5.8-5.47,11.53-11,17.32-16.49v5.09c-3.09,2.84-5.99,5.88-8.98,8.81-1.26,1.24-2.73,2.36-3.97,3.62-.35.36-9,8.2-9.17,8.48-.17.28-.86,1.03-.33,1,.86-.05,10.98-9.58,11.79-10.34,3.48-3.31,7.08-6.5,10.38-10,.49-.07.19.16.19.38-.04,1.15.34,3.98-.12,4.87l-16.89,15.8c-.84.93-.11,1.19.58.55l16.51-15.13v5.09c0,.41-3.69,3.53-4.26,4.07-1.55,1.48-3.08,2.98-4.53,4.55-.37.4-6.94,6.3-6.88,6.97.06.68.29.47.71.22l14.69-14.05c.45-.19.27,1.06.28,1.29.03,1.22-.06,2.44-.13,3.65-1.68,1.93-3.6,3.63-5.42,5.42-1.2,1.18-9.98,8.96-10.81,10.2-.15.22-.06.27-.04.56.98-.14,7.51-6.31,8.25-6.97,2.14-1.92,4.04-3.93,6.11-5.93.59-.57,1.45-1.13,2.05-1.75v5.28l-8.98,8.61c-5.31,5.09-10.94,10.13-16.11,15.37-.55.55-2.6,2.59-2.88,3.05-.45.72-.08,1.18.66.86l27.23-26.32c-.02,1.43.26,3.14.1,4.54-.15,1.24-1.4,1.72-2.14,2.49-5.29,5.44-10.88,10.59-16.2,16.03-.58.6-2.79,2.15-2.77,2.97.02.89,1.24-.17,1.57-.47,6.39-5.93,12.23-12.69,18.94-18.28.15-.12.28-.2.23-.43.72.33.24,1.27.25,1.79.03,1.06.42,2.63-.17,3.57-4.29,3.98-8.48,8.07-12.58,12.24-.4.4-1.28.69-1.22,1.38.06.73.81.46,1.22.1,1.02-.88,2.26-2.49,3.33-3.53,2.9-2.8,5.83-6.02,8.99-8.52.15-.12.15-.49.55-.37l-.18,2.59c.37,0,.18,2.18-.21,2.65-1.87,2.24-4.91,4.38-6.84,6.69-.56.91.08,1.11.85.67.79-.45,2.31-2.49,3.07-3.23,1.04-1.01,2.21-1.94,3.31-2.89-.35,1.68.35,13.35-.18,13.89-.18.18-.19.17-.44.2-2.44.25-5.49.12-8.3.04-.97,0-1.95-.02-2.92-.05-.12,0-.25,0-.37,0h-10c-.16.02-1.25.23-1.31.27-.21.14-.23.51-.16.73.15.47,1.4.29,1.84.3,2.65.06,5.32,0,7.96,0,1.66,0,3.34,0,5,0,1.05,0,2.1,0,3.15,0,.77,0,5.3-.12,5.53.03.23.14.29,1.77.19,2.08-.15.44-.73.28-1.09.3-1.57.09-3.33.02-4.91,0-.31,0-.82.12-1.02-.19-.89.04-1.28.25-2.04.37-.71.32-.31,1,.28,1.11,1.51.28,4.48-.02,6.2,0,.44,0,2.07-.06,2.2.02.08.05.63,1.88.21,1.83.02.65.11.51-.45.56-3.88.31-8.2.1-12.31.02-1.06,0-2.11-.01-3.17-.02-2.72.03-5.78.11-8.61.19-.7.02-3.41-.23-3.6.29-.05.13-.07.51,0,.61.23.35,6.55.2,7.58.2,2.1,0,4.2,0,6.3,0,4.71.01,9.43,0,14.15-.01.25.07.53,2.28.11,2.42-.34.12-1.6-.03-2.13,0-.64.03-1.05-.01-1.58,0-1.76.03-3.64.18-5.47.2-.85,0-1.91-.26-2.76-.2-.72.05-2.48.38-1.4,1.3.73-.42,1.55-.13,2.29-.02,2.46-.02,4.97-.02,7.53,0,.55,0,1.11,0,1.66.02.31,0,.62,0,.93,0,.3,0,.6-.04.9.02.31.45,0,.9.02,1.36.03.65.54,1.41-.18,1.95-.28.21-.3.17-.63.2-4.89.4-10.63-.13-15.61-.13-34.67.05-69.36.29-103.97.12-4.59-.02-9.23-.04-13.79-.19-.42-.01-.69.37-1.03,0-.31-.34-.21-1.66-.19-2.22,0-.05,0-.1,0-.14,0-.28-.03-.75,0-.78.06-.06,1.4-.1,1.67,0-.01-.09,0-.15.1-.18.09-.02.19,0,.27,0,1.18-.13,3.06-.02,4.26,0,.87.02,1.72.14,2.59.19.47-.46,3.35,0,3.52-.19.15-.38-.17-.86-.19-1.11-1.23,0-2.47,0-3.7,0-1.78,0-3.58.01-5.37,0-1.05,0-2.1,0-3.15,0,0-.31,0-.62,0-.93,0-.41-.15-1.31.3-1.46.6-.2,3.09-.02,3.96-.03,2.34-.02,4.7,0,7.04,0,1.26,0,2.45,0,3.7,0,2.29,0,4.57.02,6.85,0,.67,0,12.88.26,13.29-.04.18-.13.5-.95.44-1.01-.03-.03-11.19-.25-11.23-.25h-11.67c-.64,0-1.3,0-1.94,0-2.01,0-4.05.01-6.01,0h-4.73s.02-2.4.02-2.4c.88-.28,1.73.01,2.67-.01,1.76-.05,3.5-.18,5.27-.19,2.13-.02,4.27,0,6.4,0,.59,0,15.8.28,15.73-.74-.05-.67-16.1-.35-16.76-.36-1.72-.02-3.46,0-5.19,0-1.04,0-7.65.15-7.98-.08-.28-.2-.28-2.13,0-2.42.55-.56,2.17-.1,2.97-.09.99.01,1.98,0,2.96,0,.52,0,1.55-.21,2.13-.2.65,0,3.19.7,3.26-.27.02-.25-.2-.67-.38-.83-.73-.01-1.47-.02-2.2-.04-3.15.04-8.34.24-8.73-.15-.32-.32-.37-1.89.19-2.04,1.19-.32,2.93.02,4.17.02.41,0,.87-.01,1.2-.02,3.64-.02,7.37.04,10.93-.19.46-.03,3.76-.05,2.32-1.3-.67-.59-4.51-.18-5.55-.17-3.84.02-8.28.25-12.05,0-.26-.02-.89-.08-1.07-.18-.37-.2-.45-5.53-.27-6.17.05-.18.55-.76.72-.95,2.17-2.35,5.38-4.77,7.76-7.06,4.53-4.35,9.13-8.67,13.62-13.05.85-.83,1.08-1.06.5-1.36-.41-.2-.09-.23-.88.23l-21.38,20.47h-.37c.15-.14,0-.29,0-.37v-4.82c5.56-5.05,10.92-10.34,16.32-15.54M52.23,16.75c1.42-.03,2.84.02,4.26,0,.01.22-.26.26-.37.37-11.54,11.32-23.28,22.5-35.01,33.62-1.66,1.57-3.16,3.38-5,4.73v-5.09c0-.24,2.34-2.15,2.69-2.5,10.57-10.38,21.58-20.4,32.12-30.85.43-.49.95-.26,1.31-.27ZM16.11,17.03s.26-.28.28-.28h4.91c.21.16-2.43,2.74-2.68,2.97-.58.55-1.33,1.29-1.95,1.75-.19.14-.23.36-.56.28v-4.72ZM16.11,23.7c2.16-2.05,4.11-4.42,6.48-6.2.02-.04.04-.09.07-.13.23-.37.45-.56.93-.62.79-.1,1.7-.05,2.6,0,.41,0,.8.02,1.12.05.41,0,.81,0,1.19-.03-.05.29-.38.39-.56.55-3.48,3.08-6.71,6.7-10.18,9.73-.49.42-1.1.89-1.67,1.2v-4.54ZM26.21,20.65c1.06-.99,2.91-3.34,4.16-3.71,1.18-.35,2.45-.13,3.7-.19,0-.26,1.42-.34,1.21.19-.23.56-2.67,2.48-3.25,3.05-4.77,4.63-10.2,10.65-15.36,14.73-.15.12-.15.49-.55.37v-5s10.1-9.44,10.1-9.44ZM16.11,36.85c2.93-2.8,5.76-5.74,8.7-8.52,3.04-2.88,6.11-5.76,9.17-8.62.41-.38,3.21-2.91,3.43-2.96,1.27-.29,3.6.22,5,0,.03.02-.13.3-.19.37-1.79,2.31-5.46,5.09-7.69,7.22-5.94,5.69-11.74,11.6-17.77,17.24l-.66.18v-4.91ZM16.11,43.7c.08-.45,1.07-.93,1.42-1.27,6.82-6.67,13.67-13.34,20.63-19.84,1.73-1.62,3.81-4.12,5.65-5.47,1.69-1.24,3.79-.07,5.65-.46l-33.34,31.95c.18-1.48-.24-3.51,0-4.91Z"/>
      <path d="M108.61,119.64l-1.73,2.07c-.41.08-.33-.42-.26-.67.2-.77,1.56-1.78,2.17-2.45.53-.58.59-1.62,1.75-1.77.27.26.58.37.28.82-.17.26-1.84,1.57-2.22,1.99Z"/>
      <path d="M96.04,122.26l-2.07,2.4-2.54,1.12c1.4-1.16,2.73-3.31,4.61-3.52Z"/>
      <path d="M97.94,124.43c-.13.92-1.25.8-1.31.86-.2.19-.15.86-.36.99-.2.13-.67-.06-.96.11-.22.12-.92,1.6-1.7.61-.05-.86.5.28.66-.65l.69.24-.03-.68c1.42-.07,1.47-1.49,3.01-1.48Z"/>
      <path d="M95.23,119.82c-.12.53-3.37,2.58-3.53,2.44.58-1.26,2.06-2.64,3.53-2.44Z"/>
      <path d="M110.96,120.9c.43.41-2.46,2.68-2.71,2.44.28-1.31,1.44-2.14,2.71-2.44Z"/>
      <path d="M106.62,122.8c-.1.86-1.05.97-1.26,1.17-.13.12-1.8,2.31-2,1.13-.09-.52.52-.61.81-.81.31-.22,2.31-1.61,2.44-1.49Z"/>
      <path d="M84.11,111.4c.32,2.69.1,5.36.79,8.03l-.52.25c1.2,1.93.52,4.54,1.35,6.65-.61.1-.75-.4-.9-.86-.45-1.33-.67-4.06-.87-5.57-.35-2.7-.48-5.6-.67-8.33l.82-.16Z"/>
      <path d="M93.87,108.69c-.86-.21-.96.63-1.28.82-.42.25-3.06,1.35-3.33,1.08.36-1.77,3.01-.86,3.96-2.42l.65.52Z"/>
      <path d="M91.7,106.79c.15.78-.21.44-.59.61-1.22.57-2.67.85-4.02,1.01-.17-1.04.51-.19.77-.33.04-.02.01-.4.24-.47,1.1-.32,2.49-.31,3.6-.83Z"/>
      <g>
        <path d="M105.67,66.63c-.15.03-.43.26-.63.33.15,1.79-1.42,2.84-1.13,4.56l4.88.82c-.57,2.79-4.01.44-5.95.54-.88,3.17-3.89,5.29-6.2,7.46-.02.19,1.41,1.96,1.67,2.22,1.71,1.66,5.69,3.02,8.04,3.76,4.3,1.34,12.09,1.16,13.21,6.59.31,1.49-1.19,5.24-2.5,6.06-.51.33-.92-.07-.95-.03-.18.22-.45,1.96-1.63,1.63l.25.51-2.41,1.52c.6.58,1.16,1.22,1.63,1.91.29.42.98,1.64,1.1,2.15.14.56.33,2.76.27,3.27-.09.77-.61,1.07-.59,2.16s.61,2.87.8,4.11.1,2.43.31,3.63c.33.33,1.7-.83,2.02-1.09.48-.39,3.14-3,3.31-3.33,1.99-3.99,1.62-10.63,7.57-11.57,1.87-.29,1.5.19,2.38.98.64.57,1.74,1.67,1.95,2.53.6,2.49-.45,6.88-1.31,9.28-.63,1.74-3.37,7.29-5.06,7.95-.29.11-.73-.21-.82-.12.56,1.12-1.94,2.84-2.9,3.48-4.22,2.79-10.17,3.77-15,2.22-.87,2.18.53,3.02,1.28,4.55.28.57,1.93,4.02,1.94,4.26.1,1.75-1.59,5.87-2.7,7.26-2.35,2.93-7.87,5.54-11.44,3.4-1.73-1.03-2.03-4.52-.63-5.92.42-.42.89-.39,1.15-.61.47-.39.65-1.31,1.71-1.28l-.32-1.29c-3.63-1.06-7.59-2.66-9.97-5.69-.53-.67-1.29-2.57-1.92-2.9s-1.91-.29-2.7-.56c-1.7-.57-4.22-2.35-5.9-1.36-.5.29-3.12,3.81-3.69,4.55-3.05,4-5.81,8.42-9.23,12.04-.98,1.04-1.96,2.34-3.37,2.75-4.32,1.26-14.19-1.26-14.96-6.59-.21-1.46.14-1.77.98-2.8,1.37-1.66,3.28-2.8,5.44-2.11.25-.53,1.79-1.85,1.9-2.06.16-.31.02-.76.15-1.07,1.16-2.65,3.66-8.89,3.93-11.56.22-2.19-.94-5.25-1.04-7.53l.56-.67c-.69.15-.76-1.21-.81-1.77-.1-1.11.06-2.27,0-3.39-4.15,2.48-12.47,3.34-15.14-1.57-.29-.53.03-1.1-.64-1.62l-6.19.74-2.09-15.52c.19-3.08,3.76-2.31,6-2.67,3.3-.52,6.85-1.46,10.09-1.86.53-.07,2.18-.23,2.59-.17,1.31.2,1.47,3.98,1.77,4.97.84,2.83,1.61.45,2.58-.87.62-.84,1.14-1.68,1.77-2.55,1.62-2.23,3.26-4.53,5.23-6.45-3.7-1.78-7.45-3.84-9.94-7.21-1.69.32-2.96,1.55-4.3,2.48-.78.54-1.68-.65-1.37-1.11.11-.17,3.08-2.05,3.48-2.22s.83-.25,1.28-.22l-1.35-3.13-7.84,1.91c-1.5-.06-1.31-1.22-.1-1.7,1.09-.43,7.11-1.16,7.38-1.44l-.38-3.54-8.56-.8c-.09-1.04.16-1.5,1.21-1.64,2.34-.31,4.87.42,7.2.56v-2.27s.54-.44.54-.44l-.51-.11c.54-2.4,1.27-4.81,2.1-7.13.29-.83,1.06-1.54,1.15-2.39.17-1.57-.74-2.55-1-3.85-.64-3.21-1.21-8.4-.64-11.6.33-1.87.76-4.03,3.28-3.82.87.07,4.37,1.93,5.36,2.47,1.12.6,2.99,2.63,4.19,1.75.12-.09.69-1.33.67-1.47-.04-.3-1.25-2.36-1.44-3.17-.46-2.04,1.63-5.34,3.25-6.5,4.22-3.03,16.09-.28,20.62,1.62,1.5.63,4.3,1.93,5.55,2.87.79.6.29,1.74-.34,1.71-.19-.01-3.41-1.42-3.54-1.56-.24-.26-.19-.52-.18-.84l-.66.52-5.3-2.25c-4.36-.4-10.73-2.56-14.85-.5-1.42.71-2.64,3.22-2.5,4.77.11,1.26,1.39,2.45,2.63,2.55.45.03.85-.2,1.26-.17,6.06.41,12.48.53,17.96,3.5,2.63-1.13,4.23-3.61,6.65-5.27.97-.67,3.11-1.99,4.07-2.44.3-.14,3.11-.97,3.37-.99,3.29-.23,3.24,5.37,3.39,7.73.38,6.03-.28,9.86-1.83,15.56-.56,2.06.32,1.87.67,3.26s.8,4.69.86,6.19c.03.75-.42,1.5-.24,2.41.23,1.19,1.03.4,1.77.42,1.03.03,3.36,0,3.81.94l-.29.95c-1.57.19-3.67-.26-5.15,0ZM103.28,32.63c.55-.62.23-1.28-.56-.69-.3.22-.38.58-.64.77-1.53,1.12-3.76,2.58-5.13,3.89-.13.13-.68.95-.63.99,2.54-1.04,4.58-3.48,6.97-4.96ZM98.75,33.53c-1.03.42-2.25,1.21-3.11,1.9-.31.25-1.96,1.61-2.06,1.75-.24.33-.22.9-.27.96-.08.08-.52-.28-.94-.03-.23.14-1.98,1.53-2.21,1.75-.13.13-.68.95-.63.99l4.74-3.26,4.48-4.06ZM101.47,36.24c.07,0,.23.23.54.12.72-.25,1.13-1.39,2.17-.66.1-.56.39-2.62-.66-1.64-.26.24-.14.53-.16.83l-.54-.54c.2.89-.77.68-.27,1.35l-1.08-.27c-.04.26.05.58,0,.81-1.29.11-.74.51-1.61,1.24-.64.53-2.05,1.12-2.63,1.57-.71.56-1.67,1.62-2.27,2.34,1.3-.46,2.85-1.57,3.93-2.45.66-.53,2.44-2.06,2.58-2.71ZM57.43,36.7c.23-.3.48-1.01-.05-1.27-.4.21-.3.76-.49.99-.45.52-1.67,1.09-2.08,1.71.68.13,2.26-.97,2.62-1.44ZM60.78,36.78c-1.18-.34-1.16.58-1.64.94-.91.66-2.48,1.53-3.24,2.15-.6.49-.96,1.33-1.62,1.79.32.08.61-.42.82-.1.08.13-.19.47.26.38.48-1.26,2.6-1.61,2.99-3.25l.54.54c.15-.47.75-1.4,1.07-1.72.39-.38,1.01.12.83-.72ZM104.45,37.33l-4.05,2.19.25.51c-1.76.17-2.55,2.07-4.13,2.72l-2.38,2.44c.58-.25,2.1-1.02,2.51-1.34,2.06-1.63,3.75-3.94,6.41-5.05l1.38-1.47ZM80.77,41.2c-5.06-.98-13.04-1.72-17.94-.33-.68.19-4.77,1.73-4.22,2.7l9.94,1.51c2.65,0,5.74.38,8.36.11,1.5-.15,7.53-1.69,8.56-2.57.73-.63-.07-.28-.26-.31-1.25-.23-3.09-.38-4.17-.65-.2-.05-.21-.45-.27-.46ZM104.72,40.57l-.41-.53-.62.07c-.39.27-.78,1.38-.9,1.5-.11.11-2.12,1.15-2.57,1.52-.33.27-2.31,2.01-2,2.33.1.1,1.16-.57,1.25-.64.94-.7,2.97-2.97,3.7-3.37.3-.16.81.04.98-.11.13-.12-.11-.92.58-.77ZM58.06,45.19l-2.28,2.47-.43,1.33,1.98-2.24.73-1.55ZM103.63,45.2c-1.69-.22-1.79,1.79-3.51,1.93l.26.78,3.25-2.71ZM89.53,46.28c-.48-.47-3.75,2.87-4.24,3.22-.27.19-.87.28-.9.32-.04.06.43.91,0,1.34l1.65-1.73c.99-.57,2.13-1.44,2.94-2.23.29-.28.69-.39.57-.92ZM85.73,46.82c-1.17-.34-1.5.9-2.19,1.47-3.67,3-7.5,5.81-10.81,8.99-.87.83-1.77,1.68-2.72,2.43l.53.41c-.03-.21,0-.42.19-.55.7-.5,2.14-1.45,2.73-1.96.32-.27.06-.87.13-.97.28-.36,2.13-1.16,2.55-1.5,2.85-2.32,5.6-5.08,8.32-7.42.29-.25,1.15-.23,1.27-.9ZM103.36,47.64l-3.8,3.25c1.67-.23,2.39-1.78,3.8-2.17l-.54-.4c-.01-.15,1.09-.18.54-.68ZM60.51,48.18c-.96-.11-1.63.74-2.29,1.37-.41.39-2.59,2.94-2.31,3.24l4.61-4.61ZM62.79,51.82c.82-.61,2.08-1.79,2.74-2.55.32-.37.51-.54.4-1.09l-4.61,4.21c.71.52,1.11-.3,1.47-.57ZM69.46,48.45c-.4-.37-4.25,3.49-4.61,4.07l1.76-1.35.4.54,2.44-3.25ZM72.25,52.35c.33-.35,1.57-.75,1.14-1.45-1.41,1.26-3.45,2.24-4.2,4.07.18.18,2.6-1.7,2.8-1.89.24-.23.15-.6.27-.72ZM101.46,53.06c-.7-.76-2.25,1.51-3.22,1.12l-.04.77-.54-.54c.16,1.3-.26.5-.73.74-.76.4-1.89,1.3-1.98,2.24.2.21,2.02-1.61,2.28-1.79,1.14-.79,2.42-1.29,3.64-1.91.17-.09,1.06-.13.59-.64ZM91.31,66.25c5.43-7.03-4.59-16.59-10.03-7.74-1.92,3.12-1.26,8.68,2.83,9.62,2.21.51,5.75,0,7.21-1.88ZM61.24,55.56c-.91.21-2.43,2-2.86,2.84-1.24,2.43-1.15,6.45,1.29,8.11.61.41,2.66,1.01,3.38.93.56-.06,3.14-1.95,3.54-2.45,2.91-3.6-.53-10.53-5.36-9.43ZM78.68,55.78c-1.42.06-2.01,1.4-2.93,2.16-1.39,1.16-2.84,2.29-4.31,3.34l-.36,1c.6-.56,1.6-1.01,2.18-1.47,1.29-1.03,3.9-3.14,4.93-4.22.22-.24.39-.51.48-.82ZM98.38,57.84c.12-.09.2-.38.4-.53.37-.29,1.66-.47,1.19-1.26-1.18.69-2.31,1.49-3.38,2.33-.56.44-.89,1.62-1.91,1.2v1.08c.98-.37,1.54-1.48,2.27-2.06.35-.28.93-.39,1.42-.76ZM102.47,58.4c.21-.15.32-.69.62-.87-.39-.59-.6-.28-1.06.02-1.79,1.18-3.73,3.22-5.59,4.45l-.93,1.36,4.41-3.61c.59-.66,2.04-.97,2.56-1.36ZM78.14,59.85c-1.11.34-3.04.98-2.98,2.44l2.98-2.44ZM103.09,61.2c.09-.32-.15-.73-.43-.8-.68-.18-3.75,2.52-4.47,3.1-.55.44-1.29.18-1.07,1.23l-.4-.54c-.42.19-.3.84-.45,1.03-.1.12-1.66,1.02-2.22,1.45-.88.68-1.78,2.02-3.16,1.86l.81.81-1.08.81c1.03-.33,2.09-1.28,2.91-1.97.47-.4.07-.36,1.02-1,2.75-1.85,4.86-4.68,7.83-6.05.28-.13.46.02.72.07ZM55.89,60.66l-2.61,2.81-.37.99c.48.49,3.17-3.05,2.98-3.79ZM74.61,62.56l-.82-.1-2.16,2.81.81-.5,2.17-2.21ZM103.36,62.29l-.91.58-2.07,2.13c1.15-.22,1.52-1.17,2.24-1.79.12-.1.99.27.74-.92ZM76.12,64.89c.21-.25.91-.91.53-1.24-.88,1.29-2.88,1.93-3.12,3.53.13.15,2.32-1.96,2.59-2.29ZM102.82,66.63l-1.96,1.08-1.56,1.9c1.29-.41,2.01-1.67,3.48-1.94l.05-1.04ZM72.92,70.63c.11-.15.34-1.43.29-1.65-.3-1.35-4.76-1.04-3.43,1.52.49.94,2.64.82,3.13.13ZM62.68,69.34c-.39-1.09-1.33.05-2.04.27l-1.21,1.36c1.41.04,1.81-1.59,3.25-1.63ZM61.05,73.14c-1.02.76-2.83,1.45-2.98,2.98l2.89-2.54c.12-.17.06-.41.09-.44,1.53-1.13,3.1-2.24,4.61-3.4.26-.2.72.08.54-.67-.28-.25-4.36,2.73-4.77,3.25-.25.32-.31.73-.39.82ZM82.2,69.07c-1.47.13-2.4,1.59-3.46,2.43s-1.29.81-2.33,1.8c-.25.24-2.12,1.7-1.8,2.01.9-.11,1.4-1.11,2.04-1.64,1.02-.86,2.48-2.08,3.84-2.78l1.72-1.81ZM94.96,70.43l-1.95,1.37-1.57,1.88c1.39-.58,2.5-2.15,3.52-3.25ZM90.62,70.97c-2.09.56-3.48,2.55-4.88,4.06,1.13.03,1.45-1.17,2.16-1.77.83-.71,2.13-1.23,2.72-2.29ZM83.02,71.52c-1.15-.32-.97.37-1.35.64-.13.1-.47-.11-.51-.06-1,1.24-2.12,2.49-3.45,3.45-.87.63-2.37.68-2.82,2.2.52.42,5.2-3.71,5.81-4.23s.62-.71.88-.94c.38-.34,1.25-.45,1.45-1.07ZM63.76,73.69c-.3-.24-3.88,2.77-4.1,3.12-.27.43,0,.53.03.95l3.23-2.88.84-1.19ZM70.8,76.12l-.13-.81-5.56,5.15c.53.11.73-.12,1.1-.39.87-.64,2.37-2.17,3.26-2.99.48-.44.43-1.16,1.33-.97ZM65.39,76.13c-.38-.29-3.28,1.44-2.71,2.17.94-.63,2.31-1.02,2.71-2.17ZM90.89,77.21l-1.33.7-2.74,2.28c1.72-.21,3.01-1.72,4.07-2.98ZM78.68,78.3c-1.12-.13-1.69,1.07-2.34,1.58-.54.42-1.78.46-1.73,1.4l1.88-.96,2.18-2.02ZM70.54,78.84l-1.69.81-1.29,1.36c.62.2,3.42-1.74,2.98-2.17ZM72.98,79.39l-1.1.39-1.88,2.05,1.48-.82,1.5-1.62ZM93.87,81.83l-2.56,1.12-.69,1.04c1.07.11,1.51-.58,2.03-1.35l.4.54.82-1.35ZM96.58,83.45l-1.35-.81c.22.77-.98,1.67-1.63,1.36v1.08s2.98-1.63,2.98-1.63ZM77.59,83.46l-1.05-.25c-.01,1.16-5.95,4.49-5.19,5.4l6.23-5.15ZM72.71,84.54l-2.45-.15c-.61.38.35,1.53.29,2.04l2.17-1.9ZM70.27,96.48c.04.83,2.47,5.21,3.09,6.14,1.18,1.76,3.31,3.31,4.24,5.26.54-.32.7-1.91.54-2.44l1.06.03c.3.82.26,1.71-.78,1.32.04.7.17,1-.55,1.22l1.36,1.22c-.98-2.12,1.54-1.48,2.17-2.98-.26,0-.58-.02-.79-.16-2.89-1.86-8.41-10.84-10.03-14.12-.95-1.92-1.97-5.72-2.88-7.15-.07-.11-.3-.35-.4-.27l-.31,1.05c-.39.25-1.57-.3-1.59.31.21-.03.42-.03.53.2,1.47,3.37,1.5,7.39,4.35,10.38-.01-.26-.04-.53.02-.79l1.88-.29-.23.78c1.55.56.41,1.88.77,3.02l-1.06-.56.11-2.43c-1.06-.66-.29.96-.41,1.09-.53.08-.74-.46-1.08-.81ZM85.46,85.08l-2.24,1.08-1.56,1.36c1.46.01,2.8-1.46,3.8-2.44ZM89.8,85.08c-1.07.34-3.32,1.34-3.95,2.15-.28.37-.51.55-.39,1.1l.28-.52,4.06-2.73ZM92.34,88.98c.39-.31,3.9-2.85,3.42-3.36l-5.96,4.62c-.15,1.44,2.17-.97,2.54-1.26ZM74.61,89.69c-.08-1.66,2.21-1.78,2.44-3.25-.76.81-3.98,2.09-2.44,3.25ZM99.56,87.25l-3.52,2.71c1.46.06,2.21-.97,3.12-1.89l.2.41.74.13-.55-1.35ZM88.99,89.15l-.13-.54c-1.23.61-2.25,2-3.38,2.35-.07.4-2.01,1.67-1.64,1.99.23.2,1.41-.87,1.68-1.1.94-.77,1.87-1.63,2.8-2.43.22-.19.64-.24.67-.27ZM52.1,88.88l-15.6,2.17c-.5,1.72,2.92,1.6,3.12,3.26l.4-.54,5.83,3.52,6.25-8.4ZM79.32,91.42c.69-.62,1.79-1.1,1.8-2.27l-1.11.45.03.91-.81-.27-.54,1.9c.38-.02.41-.52.63-.72ZM101.46,89.7c-.86-.22-1.09.84-1.54,1.03-.32.13-.76,0-1.17.21-.17.09-2.08,2.14-1.9,2.29l1.63-.54-.27-.81c1.22.62,1.94-1.06,3.21-1.13l.04-1.04ZM116.38,90.78l-1.9-.27.2.48-4.27,4.12c.77-.22,1.62-1.09,2.22-1.63.52-.47,1.62-1.92,2.05-2.18.52-.32,1.48.14,1.69-.52ZM52.91,91.59l-6.92,7.88c-.4.04-.71-.18-1.06-.32-.47-.19-3.39-1.98-3.71-2.28-.26-.24.05-.65.02-.67-.07-.05-.59.19-1.01.07-.52-.16-3.38-2.19-3.6-1.97l1.09,10.04c2.2-.88,3.53-2.94,5.69-3.8.13,1.04-1.21,1.13-1.55,1.43-.5.44-.77,2.23-2.19,1.63l-1.68,1.55c.93-.05,1.9.09,2.83-.02.29-.03,2.44-.5,2.55-.57.08-.05.48-1.24.89-1.69.29-.33,3.6-2.54,3.93-2.6,1.15-.19,2.25.73,3.16,1.37.5.36.71,1.32,1.3.79v.81c.29.27,2.8-.7,2.44-1.35-1.06.67-.2-.31-.33-.49-1.24-1.66-.82-5.06-1.14-7.12-.13-.83-.99-1.67-.7-2.7ZM76.22,92.39l-.12-.8-2.58,1.76,1.08.68c.06-.8.79-1.71,1.61-1.64ZM111.5,91.59l-2.71,2.44c.95.05,1.84-.87,2.37-1.54.2-.26.53-.17.34-.89ZM77.39,97.34c.1-.13.54-.19.74-.45,1.08-1.36,2.21-2.3,3.26-3.54.26-.3.66-.44.54-.95-.89.5-1.7,1.7-2.46,2.27s-2,.73-2.7,1.73c-.27.39.26.83-.55,1.03l.56,1.48c.8-.09.54-1.49.61-1.58ZM59.14,94.02l-.8-1.07c.61,1.31-.26.63-.76,1.13-.03.03.12.4-.04.64-.68,1.03-1.4,2.03-2.19,2.98l.54.14-.13.81c.3-.95,1.23-1.61,1.67-2.25.39-.57.49-2.21,1.71-2.37ZM93.87,93.49l-1.9.13,2.17,3.39c.47-1-.81-1.69-.83-1.79-.08-.67.61-1.09.56-1.73ZM116,96.92c.51-.74,1.02-1.99,1.19-2.88l-3.79,3.93.81.68c.1-.94,1.27-.97,1.79-1.73ZM63.39,96.92c.19-.29,1.31-1.94,1.19-2.07-2.47,1.4-2.61,2.14-2.89,4.83-.12,1.15-.05,2.41-.08,3.58l1.22-1.65c-.3-.95.95-1.49,1.76-1.88-.15-1.79-1.87,1.21-2.17.82.34-1.35-.21-2.06.55-3.33.1-.17.37-.21.43-.3ZM67.56,96.48l-.54-1.62c-.37.86-1.36,1.73-1.81,2.51-.05.09.12.28.1.32-.12.22-1.13.43.34.69.02-.46.11-1.02.41-1.38.18-.21.5,0,.62-.07.22-.15.17-.91.87-.45ZM85.19,95.67l-2.23,1.36-1.08,1.29-.75.47c.56.77.19.35.56.09,1.3-.92,2.37-2.08,3.5-3.21ZM101.47,99.46c.21-.11.57-.09.88-.27.09-.05,1.52-1.39,1.57-1.48.35-.61.29-1.11.25-1.78l-.8.55c-.44.63.86.52.53.8-.22.19-1.02.41-1.49.83s-.73,1.07-.95,1.35c-.54.28-1.6.35-1.15,1.03-1.25.71-1.96,3.19-3.45,1.25l.53-1.19-1.08.54c.15-.52-.57-1.12-.51-1.45.09-.55,2.07-2.23,2.41-2.89-.56-.53-2.29,2.26-2.44,2.44-.25.3-.31-1.11-.81-.54-.26.3,2.8,4.87,1.9,5.97.38.03.52.09.83-.18.43-.37,1.39-2.03,1.89-2.66.64-.79,1.3-1.54,1.89-2.31ZM87.9,96.48c-.46.02-.5-.31-.95-.03-.37.23-2.72,2.92-3.11,3.43-.32.41-.82.95-.82,1.49,1.81-1.46,2.97-3.6,4.88-4.88ZM104.65,100.48c.25-.27.43-1.25-.2-1.29,0,1.13-.96,1.18-1.35,1.55-1.83,1.78-3.53,3.75-5.84,4.96l.14,4.88c.56-.13.16-1.1.61-1.56.2-.21.8-.28,1.15-.61,1.22-1.13,2.39-2.72,3.6-3.79.88-.78,2.54-.98,2.23-2.46-.32-.44-3.56,3.46-3.93,3.8-.52.49-1.64,1.13-1.97,1.41-.18.16-.19,1.1-.76,1.3l-.4-1.36.54.27v-.81s-1.08.27-1.08.27c-.04-.04.22-.51.32-.64,1.13-1.48,3.38-3.17,4.97-4.52.56-.47.93-.96,1.11-1.11s.64-.07.85-.31ZM70.27,99.74c-1.26-.24-1.23,1.04-1.71,1.54-.2.22-3.09,2.65-2.63,3.07.32.29.77-.1,1.02-.47.32-.49.92-1.48,1.25-1.86.16-.19,2.34-2.07,2.08-2.28ZM89.26,101.09c-.72-.15-.59.05-.9.33s-2.68,2.62-2.36,2.92l1.07-.29-.2-.47,2.39-2.49ZM47.95,103.72c.16-.12.9-1.23.21-1.27-.56-.03-1.22,1.7-2.04,1.35l.24.69-.51.39c1.23.31.56-.6.99-.83.27-.14.7-.03,1.11-.34ZM84.3,103.73c.11-.24.23-.88-.06-1.01-.65.67-1.91.99-1.76,2.17.07.08,1.72-.94,1.82-1.16ZM105.81,113.84c1.63-.17,6.71-1.67,7.2-3.24.78-2.49-.44-6.33-2.98-7.36-3.3-1.34-3.17,2.47-2.59,4.63.47.03.18-.62.42-1.08.17-.34,2.25-1.76,2.01-.69-.53,1.14-2.03,1.4-2.68,2.5s-.45,4-1.38,5.24ZM64.03,103.54l-1.49.76c-.32,0-.67-1.12-1.09-.49l-.4,2.98,2.98-3.25ZM56.95,104.59l.03-.78c-1.64.26-2.55,1.74-3.52,2.98.26.22,1.18-.65,1.49-.83.24-.15.61,0,.64-.03.33-.45.08-1.26,1.37-1.34ZM94.93,105.18l-9.74,1.07c1.88,2.23,2.55,4.7,3.25,7.46l-.81.4c1.07-.18.84.24.81,1.09l8.95,1.08c.3-1.3-.93-1.29-1.58-2.35-.6-.98-.41-1.92-1.13-2.67.63-.12.54-.97.55-1.62.03-1.42-.24-3.04-.31-4.46ZM105.26,104.89c-.28-.26-.95.62-1.06.76-.44.58-.65,1.18-.99,1.66-.21.3-.73.15-.65.56l2.36-1.44c.42-.52.63-.88.35-1.54ZM46.95,108.68c1,.59,2.66-1.09,3.44-1.84.28-.27.77-.27.62-.87-1.39.11-2.07,1.8-2.99,2.3-.41.22-1.11-.08-1.08.41ZM56.91,108.61c.15-.09.33-.63.6-.89.56-.56,1.38-.49,1.1-1.75l-1.84,1.4.22.49h-.82s.28.54.28.54h-.82s.13.54.13.54c.3-.31.87-.16,1.15-.34ZM71.08,105.98l-2.26,1.66-1.81,2.41c1.32-.22,1.93-1.69,2.59-2.42.24-.27,1.88-1.18,1.47-1.64ZM63.47,108.4c-.69-1.98-.83-.12-.89-.05-.26.31-.95.76-1.26,1.15l-.27-1.08-.27,2.98,2.18-2.78.52-.22ZM82.82,128.69c.56.57,4.89,1.04,5.76.89.32-.06.49-.14.67-.41-2.65-6.04-1.24-14.61-4.64-20.31-.78-1.31-1.3-1-2.45-.36-.16.09-.96.82-1.01.94-.35.87-.5,4-.47,5.04.07,2.94.77,9.56,1.43,12.42.1.43.46,1.52.73,1.79ZM104.99,108.42c-.12-.11-2.28,1.32-2.36,1.43-.21.28-.17.81-.5,1.26-.29.4-1.11,1.08-1.61,1.08l-.13.83,2.15-1.5,2.46-3.11ZM129.78,110.42c.28-.23.89-.22,1.12-.64s-.12-.82-.28-.82c-.23,0-3.1,2.57-3.12,3.25.32.32,1.97-1.54,2.28-1.79ZM99.84,110.86c-1.21-.48-2.97,1.65-1.76,2.17.47.2.85-1.22,1.35-1.35l.4-.81ZM64.3,111.68h-.93c-.15,1.56-3.13,2.43-1.91,3.79l2.85-3.79ZM65.5,116.69c.93-.75,2.59-2.57,3.42-3.52.29-.33.59-.76.54-1.22-1.38.43-1.77,1.83-2.53,2.62-.53.54-2.78,1.81-2.35,2.53.13.22.83-.34.92-.41ZM109.87,126.87s.06-.6.38-.84c.48-.36,1.18-.2,1.72-.45,1.34-.64,2-1.96,1.98-3.44-.02-1.85-.59-4.85-.83-6.8-.08-.66.05-1.37,0-2.03-.92.46-1.74,1.12-2.71,1.49-1.03.39-4.28.85-4.89,1.35-.68.57.61,4.18-.99,4.73-.33.11-.93-.15-1.41-.07-1.36.22-3.12,1.41-3.7-.18l-.27.54c-.55-.88-.95-1.97-.95-3.26-3.15.55-6.41-.13-9.49-.81l2.18,12.2,17.86-2.85c.37-.17.98.5,1.11.41ZM130.49,113.3l-3.26,2.01-7.86,7.49c.53.11.73-.11,1.1-.39,1.88-1.42,3.41-3.37,5.28-5.03,1.51-1.33,3.56-2.3,4.74-4.08ZM103.36,119l.27-4.07c-1.2.36-2.58.87-3.79.27l.68,3.81,2.84-.02ZM77.05,117.64c.8.1,1.31-.19,1.77-.81l-.55-1.08-3.39,3.79,2.4-1.4-.23-.5ZM63.22,116.56l-2.05,1.09c-.21.35.31,1.62.56,1.62l1.49-2.71ZM72.55,119.38c.42-.4,1.73-.97,1.39-1.73l-3.39,3.25c.88.17,1.44-.98,2-1.52ZM79.04,119.74c-.19-.32.12-.82-.35-.74-.32.84-1.35,1.52-2,2.21-.15.16-.14.55-.27.68-.3.31-4.05,3.31-3.7,3.62,1.47-.26,2.19-1.55,3.2-2.42.37-.32.96-.49,1.28-.83.44-.46-.56-.06-.41-.54,1.6.17,1.77-.78,2.71-1.77.09-.23-.36-.05-.46-.21ZM121,119.27l-4.6,3.13-.55,2.29.43-1.09c1.26-.91,2.16-2.15,3.35-3.13.53-.43,1.22-.29,1.37-1.2ZM61.59,123.88c1.04-.23,1.87-1.17,2.44-2.04.23-.36.28-.62-.14-.68l-2.3,1.22.55.27-.54,1.22ZM73.25,121.99c-.18-.17-2.21,1.39-2.5,1.63s-4.79,4.39-4.55,4.61l2.44-1.36-.27-.53c1.2.05.93-.77,1.36-1.21.32-.33.96-.95,1.29-1.24.78-.69,1.96-.88,2.23-1.89ZM67.83,123.89c-.49-.44-1.75,1.63-2.03,1.91-1.51,1.53-3.35,2.79-4.76,4.46-.26.3-.66.44-.54.95l5.71-5.28,1.62-2.04ZM63.22,124.97l-1.36.28c.56.6-.49.78-.8,1.29-.51.82-.95,1.89-1.37,2.77l.59-.76.77-.05c-.48-.66.07-.46.26-.74l1.91-2.78ZM117.58,127.26c.29-.29,1.3-.66.84-1.2l-3.39,2.98c1.2.02,1.81-1.04,2.55-1.78ZM68,130.59c.53-.47,1.43-1.3,1.86-1.82.18-.21.71-.54.27-.81l-4.87,4.07-1.5,2.17c1.01.02,1.35-1.02,1.88-1.5.87-.78,1.76-1.56,2.36-2.11ZM76.43,129.23l.22-1.28c-.35.3-.49.78-.8,1.1-1.08,1.1-2.91,2.51-3.85,3.6-.24.28-.41.62-.36,1l4.8-4.42ZM102.55,129.58l-2.27.79c-.55,1.47-2.21,2.13-2.89,3.55l3.93-2.98,1.22-1.36ZM106.62,129.86c-.44.15-1.59-.05-1.89.14-.18.12-.23.5-.36.59-1.18.81-2.47,1.73-3.17,3.07l2.36-1.43c.11-1.38,1.95-1.4,2.46-1.6.05-.02.54-.61.61-.76ZM95.23,130.94c-.58-.14-.72.12-1.09.41-.29.23-2.08,2.37-1.89,2.57l2.25-1.89.73-1.09ZM96.31,132.3l-.82.96c-1.25-.22-.56,0-.96.63-.2.33-.56.5-.66.84,1.06.13,1.71-.8,2.22-1.57l.49.22-.27-1.09ZM104.72,133.38c-.75-.15-.81.69-1.19,1s-1.5.74-1.8,1.44c1.25.23,1.52-1.08,2.43-.54l.55-1.9ZM68.37,134.46l-.55-.42-2.42,2.19c.89.97.69.14,1.07-.27.53-.56,1.13-1.35,1.91-1.5ZM60.06,135.89c.21-.27,1.36-.71.86-1.42-.51.62-2.1,1.45-2.52,1.95-.04.05.3.35-.4.94-.07.06-.36-.17-.42-.12-.09.07-1,1.44-.87,1.57,1.18.19,1.4-1.05,2.03-1.63.75-.7.59-.36,1.32-1.29ZM69.73,136.1l-2.31,1.62c-.2.48-2.46,2.34-2.52,2.5-.1.28.27.63.1,1.02-.19.43-1.1.67-.96,1.36l2.6-2.27,3.09-4.23ZM102.01,140.16l2.98-1.76.26-1.49-3.25,3.25ZM63.76,138.54c-.74-.09-.79.71-1.21,1.1-1.03.95-2.23,2.04-3.49,3.15-1.04.91-2.57,1.66-3.44,2.8.56-.28,1.65-.61,2.09-.89.17-.11.26-.6.63-.86.69-.48,2.3-.73,2.17-2.05.66.73,1.26-1.29,1.67-1.58.07-.05.38.22.44.17.09-.06,1.25-1.72,1.13-1.85ZM106.9,142.9c1.63-.29,1.8-1.13,1.75-2.73l-7.46,7.87c2.47-.51,3.48-4.55,5.96-4.34l-.26-.79ZM52.64,140.44c-1.4.09-1.75,1.42-3.22,1.66-.22.81.1.79.76,1.04-.05-1.35,1.87-1.53,2.15-1.93.05-.07-.17-.28-.16-.36.04-.31.59.06.48-.41ZM57.52,141.24l-.13-.53c-.71.14-6.07,4.58-5.83,4.88l1.9.27-.25-1.05c1.51-.24,1.27-1.22,1.69-1.85.16-.25,1.28-1.03,1.6-1.26.29-.21.98-.41,1.02-.46Z"/>
        <path d="M85.73,30.54c.12.62-.29.61-.69.8-1.52.71-3.35,1.33-5.01,1.64l4.14-2.23,1.55-.21Z"/>
        <path d="M74.34,28.37l-1.16,1.18c-1.11.28-1.59,1.29-2.91.71l.81-.67,3.25-1.22Z"/>
        <path d="M70.81,27.56c.48.41-.37.59-.51.7-.63.47-1.71,1.07-2.21,1.6-.39.42-.33,1.12-.8,1.23-.63-1.44,3.11-3.88,3.52-3.52Z"/>
        <path d="M78.95,30.54c-1.04,1.07-3.16,1.59-4.61,1.62,1.12-1.06,3.15-1.22,4.61-1.62Z"/>
        <path d="M87.9,35.16c.13.69-.13.48-.53.68-.94.49-1.44.52-2.45.13.57-.98,2.02-.7,2.98-.81Z"/>
        <path d="M84.45,65.74c-.15-.14-1.04-2.49-1.1-2.85-.64-3.82,3.67-7.94,5.19-2.46.43,1.53-.05,3.33-1.06,4.55-.69.84-2.1,1.62-3.03.76Z"/>
        <path d="M77.86,43.03c.03.42-.95.38-1.27.42-.93.11-2.56.18-3.48.14-.67-.03-3.04-.17-3.48-.29-.26-.07-.16-.52-.18-.54-.18-.16-.62.98-1.07.13.59-.65,1.77-.42,2.59-.41,2.2.03,4.68.42,6.9.55Z"/>
        <path d="M64.25,58.43l.45-.48c1.81,1.6,2.29,3.97.91,6.06-3.12,4.73-6.47-3.88-2.93-5.93l1.57.35Z"/>
      </g>
      <path d="M69.57,92.3c.89,1.33.29.49.27,1.33-.01.49.79.74.03,1.22l-1.74-3.42.39-.38c.78.03.74.79,1.06,1.26Z"/>
      <path d="M77.59,106.25c-.67-.78-2.12-1.39-.95-2.44.42.82.76.84,1.49,1.21l-.54,1.22Z"/>
      <path class="cls-3" d="M43.85,77.45c.38.5-4.94,5.49-5.38,5.83-.73.57-1.5.55-1.02-.46.08-.17,5.38-5.22,5.59-5.37.77-.56.79-.02.81,0Z"/>
    </g>
  </g>
</svg>