<?xml version="1.0" encoding="UTF-8"?>
<svg id="Layer_2" data-name="Layer 2" xmlns="http://www.w3.org/2000/svg" viewBox="0 0 168.4 173.36">
  <g id="Layer_1-2" data-name="Layer 1">
    <g>
      <g>
        <path d="M58.74.21c-.34,5.62,7.5,7.79,9.87,2.72.27-.58.55-2.4.68-2.55.42-.48,3.93-.19,4.75-.2,2.11-.03,3.11-.27,5.33.11.24.04.58-.18.92-.08.54.16.46,1.93.69,2.56,1.49,4.09,7.98,4.02,9.51-.21.26-.71.22-2.48,1.06-2.56l10.61.22c.36.14.41,1.31.61,1.86.1.27,1.14,2.29,1.26,2.44.02.03.28-.08.45.02,1.05.67,1.29,1.07,2.65,1.16,2.6.17,4.77-.76,5.63-3.32.22-.66.1-2.06.84-2.2l11.76-.14c.54.19.74,1.83.99,2.42.83,1.99,2.12,3.28,4.36,3.43,2.37.16,4.78-.44,5.84-2.73.47-1.02.41-2.26,1.25-2.97l11.94-.11c.87.34.77,1.83,1.08,2.63,1.91,4.95,10.19,3.33,9.68-2.13.44.15.58-.36.69-.39.42-.1,5.01-.05,5.66.06.17.03,1.18.48,1.21.53.13.19-.1.61-.08.84.46,4.02-.12,8.41.12,12.52.03.46.36.77.28,1.27-.28,1.73-1.68,1.45-2.76,1.81-2.11.69-3.24,3.24-3.26,5.31-.03,2.52,1.51,4.97,3.96,5.76,1.02.33,1.69-.38,1.77,1.29v12.91c-.31,1.09-1.44.83-2.29,1.16-1.42.56-2.5,1.34-3.09,2.81-.92,2.32-.28,6.09,2.08,7.31,1.12.58,2.86.26,3.2,1.75l.06,13.97c-.28,1.99-2,1.52-3.35,2.36-3.52,2.17-3.26,7.8.44,9.71.93.48,1.72.48,2.53.89.53,2.53.27,5.18.29,7.75,0,1.33.4,4.25.01,5.27-.41,1.08-1.48.71-2.38,1.04-3.67,1.34-4.41,7.53-1.32,9.88,1.44,1.09,3.71.75,3.87,2.74.14,1.71-.16,4.22-.17,6.02s.23,4.22.02,5.92c-.28,2.22-1.04,1.59-2.58,2.28-3.48,1.56-4.23,6-1.93,8.92,1.25,1.59,3.49.98,4.37,2.48l-.04,13.44c-.32.89-1.69.74-2.55,1.06-4.01,1.49-4.04,7.75-.32,9.9,1.04.6,2.45.41,3.07,1.49l-.14,11.19c-.03.28-.24.83-.45.98-.36.26-2.81.37-3.46.39s-3.48,0-3.93-.19c-.89-.39-1.07-2.56-1.78-3.55-1.95-2.72-6.94-2.32-8.33.77-.71,1.58.13,2.9-2.19,2.96l-11.67-.12c-.67-1.36-.7-2.61-1.74-3.82-2.11-2.46-7.23-1.84-8.56,1.15-.55,1.24-.03,2.76-1.92,2.84-.39.02-.82-.2-1.31-.19-2.69.05-5.35.07-8,0-.42-.01-.79.3-1.29.16-.86-.24-.57-1.26-.77-1.9-1.37-4.38-7.74-5.01-9.75-.74-.76,1.63.17,2.75-2.28,2.53-.36-.03-.39.38-.56-.24l-.22.39-9.33-.33c-.53-.3-.52-1.45-.78-2.09-1.72-4.24-7.48-4.16-9.14-.13-.36.88-.21,2.13-.96,2.43l-10.92.07c-.71-.21-.54-1.82-.86-2.56-1.14-2.74-4.32-3.77-6.93-2.49-.21.1-1.7,1.22-1.79,1.34-.8,1.1-.58,3.68-2.62,3.75l-10.62-.05c-.45-.18-.71-2.14-1.11-2.87-1.93-3.57-7.21-3.67-8.81.25-.27.67-.41,2.34-1.14,2.47-.69.12-2.1.17-2.85.2-3.38.13-6.83-.11-10.22-.06-1.47-.5-1.02-1.09-1.42-2.2-.96-2.65-3.3-3.87-6.11-3.14-2.36.61-3.29,3.13-3.98,5.2-.36.1-.72.17-1.09.2-1.61.12-5.53.21-7.03-.02-.83-.13-1.26-.7-1.71-1.34l-.07-11.82c.26-.81,1.99-.7,2.8-1.2,3.15-1.95,3.27-8.38-.35-9.5-.59-.18-1.34,0-1.9-.38-.7-.48-.75-2.09-.49-2.84.22-3.34-.6-8.02-.08-11.21.21-1.29,1.3-.99,2.27-1.34,4.15-1.54,3.83-8.53-.19-9.88-.47-.16-1.35-.15-1.7-.39-1.06-.72.07-4.23-.48-5.31.39-2.94-.21-6.23.09-9.13.21-2,1.7-1.21,3.03-1.92.15-.08,1.02-1,1.15-1.18,1.61-2.34,1.55-5.64-.63-7.58-1.14-1.02-2.49-.59-3.45-1.59l-.06-14.12c.24-1.08,1.65-.92,2.62-1.38,3.53-1.65,3.43-7.97-.06-9.63-1.06-.51-2.53-.09-2.73-1.74l.23-13.25c.43-1.47,1.49-1.11,2.68-1.49.27-.09.27-.34.3-.35.28-.13.47.29,1.1-.54,1.94-2.57,1.26-7.1-1.9-8.36-.53-.21-1.34-.2-1.79-.5-.97-.64-.49-1.84-.49-2.73,0-3.97-.33-8.47-.12-12.34.02-.41.14-1.67.43-1.85,1.2-.29,1.91-.25,2.92-1.03,2.86-2.2,2.69-7.61-.75-9.14-1.07-.47-2.11-.12-2.59-1.32L.23,1.28,1.42.1C3.52-.05,5.61.23,7.71.21c.72,0,1.89-.57,2.45.19.37.5.54,1.93.83,2.59,1.94,4.42,8.75,3.71,10.4-.7.33-.88.08-1.86,1.04-2.19l12.58.03.65.26c-.39,5.9,8.06,7.44,10.07,2.29.31-.81.26-2.32,1.04-2.58l11.98.11ZM79.17,4.5c-.4-.71-.39-1.97-1.35-2.17-1.97-.42-4.65.25-6.7-.03-.08,2.2-2.39,4.75-4.42,5.37-3.75,1.15-7.47,0-9.36-3.5-.3-.56-.48-1.26-.71-1.86l-8.21-.03c-.82,1.92-1.56,3.47-3.37,4.65-4.41,2.87-10.23.59-11.49-4.46l-.22-.16-9.49.04c-.39.05-.64,1.6-.94,2.03-.39.55-1.72,2.05-2.28,2.47-3.38,2.5-9.04,1.52-11.31-2-.48-.75-.65-1.63-1.08-2.4-1.88-.4-3.77.11-5.57-.17l-.2,13.18c4.34,1.36,5.75,5.24,5.1,9.49-.35,2.3-2.79,4.76-5.07,5.1v7.02s5.18.11,5.18.11l4.03-.67c.35-.46.08-7.08.09-8.28.04-3.86.27-7.72.2-11.61-.02-1.18-.89-3.6.86-3.88h73.58s69.02-.03,69.02-.03c.41.37.82.88.84,1.46.04,1.22-.19,2.71-.18,3.97.1,44.84-.11,89.58,0,134.45,0,1.75.31,4.06.21,5.7-.07,1.2-.44,1.6-1.64,1.63-7.87.2-15.87-.16-23.77-.15-14.63.02-29.29.25-44.01,0-.65-.01-1.8.53-2.01-.26l-.22.39h-14.61c-12.48.01-25.11.27-37.66,0-.37,0-2.12.02-2.25-.01-.21-.06-.03-.37-.21-.38l-.37.4c-4.75-.18-9.53.12-14.29,0-3.16-.09-3.42-.01-3.5-3.32-.13-5.12.03-10.43.02-15.58-.05-25.46.29-51.07.11-76.71-.02-2.25-.3-4.57.03-6.8l-.4-.24c-3.01.41-6.04.64-9.08.53l.04,10.9c.13.43,1.77.9,2.34,1.27,3.41,2.28,3.68,8.41,1.21,11.47-.83,1.02-2.34,1.97-3.59,2.33l.04,11.27c5.29,1.25,6.73,8.39,3.47,12.38-.87,1.07-2.4,1.66-3.51,2.42l.03,11.35c.85.54,1.74.77,2.54,1.46,3.76,3.22,3.44,9.55-.49,12.43-.53.39-1.87.81-1.99,1.23l-.27,10.67c1.7.07,3.64,1.72,4.56,3.14,1.87,2.87.61,8.24-2.11,10.25-.78.58-1.5.67-2.24,1.18l-.02,9.38c1.94.28,3.9.06,5.85-.04,1.16-2.53,3.03-4.84,5.93-5.38,3.12-.59,6.36,1.24,7.88,3.93.25.45.14,1.24.83,1.46l9.83.04c.76-.15.86-1.36,1.23-2,2.3-3.92,8.19-4.87,11.39-1.5.83.87,1.77,2.52,1.92,3.69l8.42-.23c.63-.31.72-1.51,1.01-2.04,2.13-3.91,9.15-4.85,11.95-1.14.7.93.87,2.1,1.42,3.1l7.99.11c1.28-7.59,12.12-7.2,13.82.02l8.13-.04c.91-1.73,1.66-3.33,3.38-4.42,3.23-2.04,7.95-1.12,10.14,1.99.37.53,1.13,2.43,1.53,2.58l8.27.07c.3-1.92,2.08-4.38,3.89-5.14,4.55-1.91,9.01.49,10.5,4.95h9.41c1.46-2.68,2.73-5.27,6.13-5.53,4.14-.31,6.7,1.77,8.02,5.54l4.07-.1.34-8.73c-.74-.59-1.72-.74-2.51-1.29-2.12-1.47-3.21-3.56-3.29-6.12-.11-3.69,1.81-7.29,5.64-8.01l.16-.22.04-10.42c-2.78-.62-4.84-2.88-5.7-5.55l.36-.45c-.56.11-.55-1.73-.52-2.19.21-3.41,2.43-6.49,5.84-7.14v-11.09c-2.83-1.02-4.77-2.91-5.57-5.87s.19-6.44,2.65-8.3c.95-.72,2.06-1.02,3.06-1.63l-.14-9.8c-3.35-.22-5.5-3.61-5.71-6.74-.3-4.42,1.76-6.98,5.72-8.59v-11.95c-.13-.63-1.32-.58-1.97-.89-.94-.45-2.38-1.92-2.86-2.84-2.24-4.31-.54-10.72,4.65-11.66l.18-.39-.03-10.43c-.11-.32-1.71-.81-2.24-1.18-3.44-2.46-4.5-7.92-2.19-11.48.97-1.48,2.5-2.82,4.27-3.15l.16-.22-.06-12.06c-.19-.3-2.38.34-2.95-.18-1.82,7.64-12.85,7.78-14.48.03l-9.29-.03c-.46,3.62-3.76,5.88-7.32,5.91s-5.97-1.68-7.49-4.69c-.23-.46-.1-1.16-.68-1.22l-8.25.03c-2,7.53-12.81,7.77-14.69,0h-7.46c-.48.17-.56,1.35-.81,1.86-1.05,2.15-3.68,3.84-6.07,4.01s-5.86-1.59-7.05-3.68ZM14.26,29.39v6.56c8.54-1.93,15.21-7.77,23.34-10.79,4.47-1.66,12.41-3.63,16.97-2.04,2.14.74,2.21,2.95-.27,2.55-1.25-.2-2.32-.7-3.81-.74-12.78-.31-21.63,8.84-32.81,12.63-1.1.37-2.28.51-3.38.9l-.14,6.43c.19.3,1.13-.02,1.43-.1,8.88-2.44,16.52-9.31,25.59-11.87,3.43-.97,10.7-1.94,13.9-.43,1.31.62,1.56,2.15.2,2.46-.53.12-3.16-.65-4.04-.71-13.07-.91-20.59,7.57-31.61,11.74-1.8.68-3.69,1.06-5.48,1.75l.11,6.28c.27.28,5.01-1.31,5.73-1.59,6.43-2.47,11.69-6.75,18.18-9.2,4.41-1.67,8.5-2.48,13.26-2.14,1.49.11,5.87.54,4.37,2.85l-.79.32c-4.75-1.52-9.68-.91-14.37.5-5.79,1.73-10.78,5.68-16.24,8.29-3.26,1.56-6.71,2.67-10.16,3.73v11.88s3.81-3.33,3.81-3.33l.57.19c-1.18,1.94-3.09,3.25-4.52,4.99l-.03,5.19c1.27-.95,2.31-2.43,3.54-3.39.17-.13,1-.72,1.01-.13,0,.34-2.72,3.07-3.22,3.62-.29.32-1.34.91-1.34,1.51v5.04c1.22-.86,2.46-2.5,3.71-3.23.61-.36.51.46.17.74l-3.84,3.95.15,5,3.81-3.79c1.19.13.1,1.23-.29,1.7-.6.73-3.21,2.99-3.41,3.61-.49,1.5,0,3.91-.11,5.51l5.42-5.32c.38-.16.41.77.4.86-.08.55-5.11,4.84-5.71,5.8l-.29,5.32,8.84-8.36c.34-.18.41.56.39.67-.06.39-1.05,1.08-1.24,1.52l-7.71,7.51c-.46,1.82.07,3.71-.29,5.51l11.28-10.82.5.46c-2.08,2.22-4.14,4.47-6.29,6.64-.73.74-1.79,1.45-2.55,2.21-.35.36-2.58,2.67-2.66,2.85-.58,1.37.16,4.02-.29,5.51,1.33-1.32,2.79-2.55,4.11-3.87,2.34-2.32,4.55-5.19,7.28-6.99l-.15-.33,2.82-2.79c.47-.32.77.07.72.55-.06.58-2.19,2.17-2.74,2.66-.42.39-.62,1.34-1.4.88-.06.07.16.37.09.58-.05.13-1.62,1.79-1.89,2.09-2.7,2.91-5.77,5.53-8.47,8.45l-.36,4.96.36.19c4.63-4.29,9.02-8.87,13.51-13.31.92-.91,2.49-2.88,3.5-3.53.23-.15.38-.24.67-.18-.05.22.14.51.11.67-.03.19-2.3,2.51-2.65,2.87-3.05,3.11-6.37,6.03-9.45,9.09-1.67,1.66-3.47,4.12-5.31,5.53-.24.19-.46.31-.77.28l.19,5.32c1.22-.97,2.25-2.14,3.38-3.22,4.78-4.56,9.49-9.32,14.23-13.96.83-.81,3.37-3.88,4.24-4.04s.43.46.11.88c-2.81,3.66-7.72,7.58-11.06,10.9-3.03,3.01-5.97,6.14-8.99,9.16-.42.42-1.44.98-1.73,1.5-.43.75-.14,2.07-.18,2.86-.04.92-.14,1.84-.19,2.76l.57-.28,24.9-24.92,1.04-.46.32.66-12.12,11.76c-4.03,4.18-8.09,8.34-12.13,12.49-.66.68-2.27,1.65-2.39,2.55-.19,1.4.11,3.21-.18,4.67l29.5-29.05c.35-.14.93-.04.93.44l-13.71,13.68c-4.4,4.42-8.77,8.92-13.18,13.35-.85.85-3.41,2.62-3.55,3.77-.17,1.4.39,3.22.2,4.67,3.39-2.92,6.25-6.36,9.4-9.51,6.43-6.43,13.06-12.69,19.59-19.01,1.05-1.01,3.84-4.57,5.03-4.86.34-.08.35-.09.57.2-9.42,9.56-18.93,19.02-28.39,28.55-1.96,1.97-4.06,3.88-6.11,5.78-.43,1.88.03,3.79-.1,5.7l37.93-37.85.29-.1.56.4-38.4,38.88,5.43-.37c9.05-9.25,18.37-18.26,27.54-27.41,2.63-2.63,5.27-5.79,7.98-8.28.24-.22,1.06-.83,1.36-.83l.05.62c-9.35,10.09-19.5,19.52-29.17,29.3-2.15,2.18-4.27,4.42-6.34,6.68,1.04.22,4.28.55,5.05.1l24.14-24.34c.84-.37,2.41-2.75,3.23-2.68.75.06.32.58,0,.97-2.41,2.97-6.51,6.68-9.31,9.51-4.6,4.65-9.35,9.16-13.99,13.77-.82.81-1.63,2.02-2.65,2.58v.38s5.36-.19,5.36-.19c2.16-2.18,4.32-4.73,6.61-6.75.45-.4.76-.6,1.23-1.04.89-.83,1.18-.2.69.68-.63,1.11-4.2,4.01-5.33,5.12-.54.53-.76.81-1.13,1.33-.17.24-.5.37-.58.66l4.8.15,3.85-3.18c1,1.25-1.27,2.04-1.81,3.04l5.7.19,1.32-4.36c-1.72-.96-3.5-1.79-3.33-4.01.29-3.78,6.48-11.52,9.95-13.07,1.1-.49,2.3-.68,3.44-1.03l1.78-11.62,1.8-6.89c-.02-.23-.39-.4-.59-.48-1.23-.49-3.14-.76-4.48-1.22-8.46-2.89-17.15-7.9-22.35-15.11-1.86-2.58-3.29-5.17-3.94-8.32-8.58-3.82-9.69-16.09-3.39-22.44-1.06-2.49-1.7-4.82-1.5-7.57.23-3.16,2.51-7.51,6.02-7.87.43-.04.85.18,1.09.13.16-.03.86-.7,1.2-.87,2.25-1.17,3.38-1.21,5.84-.4.73-1.69,3.4-2.4,5.13-2.26,2.7.22,4.89,1.38,5.07,4.34,1.88-.21,3.91-.31,5.83-.31.94,0,3.49-.04,4.2.26,1.46.61.74,3.59.81,4.8l3.24-.09c.31-.83.54-1.7.91-2.51,2.41-5.3,5.9-8.52,10.62-11.62.69-.45,2.38-1.1,2.82-1.55s.81-1.87,1.15-2.46c3.77-6.55,13.48-18.72,19.98-22.42,2.6-1.48,4.92-1.55,5.86,1.68,1.18,4.09.91,12.85.48,17.21-.08.77-.81,3.66-.49,4.1,3.23.59,6.41,1.43,9.49,2.66,5.19-4.5,10.73-9.17,16.79-12.52,4.24-2.34,10.01-5.5,10.53,1.95.49,7.02-1.91,20.28-3.94,27.06-.44,1.48-2.14,4.87-2.25,6.1-.03.3.4,1.33.46,1.85.41,3.67.13,7.08-.67,10.67-.17.78-.56,1.42-.65,2.2.12.6,7.84,2.45,8.58,3.68s-.08,2-1.39,1.73-3.73-1.7-5.22-2.2c-1.01-.33-2.06-.52-3.08-.8-1.07,2.25-2.51,4.29-4.01,6.27,2.47.97,4.8,2.63,7.02,4.11.62.22.2,1.82,0,1.95-.93.59-2.92-1.19-3.72-1.65-1.6-.92-3.23-1.81-4.87-2.66-2.25,1.71-4.41,3.06-7,4.22-.46.21-2.32.57-2.25,1.17.88.81,1.9,1.58,2.64,2.52,4.27,5.4,9.6,17.29,12.21,23.87.52,1.3,1.94,6.37,2.52,6.98.53.55,1.34.9,1.78,1.64,1.41,2.31,1.9,6.6,1.93,9.28.02,1.39.16,2.66-.98,3.62.24,2.28.68,4.58.75,6.86.02.77.09,1.91.03,2.65-.08.9-.58,1.78-.38,2.76h13.68s0-24.91,0-24.91c-2.51,1.95-4.4,4.72-7.13,6.46-.51-.4-.31-.71,0-1.15.54-.79,2.54-2.18,3.34-2.94,1.26-1.2,2.45-2.5,3.7-3.71l.1-5.51-7.32,7.22c-1.47-.75,1.64-2.8,2.31-3.49.98-1,4.39-4.21,4.9-5.08.6-1.03-.12-3.9.11-5.12l-.57.28-9.06,9c-1.61-.18.54-1.63.96-2.08,2.82-3.01,5.7-5.96,8.56-8.93.49-1-.13-2.05.5-2.93-.56-.18-.37-1.65-.2-2.19l-1.31.87-9.8,9.78-.58.18-.29-.47,11.8-11.79c.33-1.85-.04-3.74-.01-5.61l-13.49,13.6c-.36.34-.94.75-1.33.18l14.77-14.78.06-5.27c-.3-.07-.39.1-.58.28-3.9,3.67-7.67,7.64-11.53,11.39-1.12,1.09-2.05,2.48-3.4,3.36-.7.46-.43-.82-.1-1.24.19-.24.61-.39.87-.65,4.17-4.32,8.46-8.51,12.73-12.76.45-.44,1.5-1.18,1.82-1.6.66-.88-.14-4.35.37-5.61l-.7.25c-5.37,5.26-10.4,11.08-15.94,16.1-.29.27-1.43,1.26-1.68,1.37-.84.36-.34-.78-.04-1.18.6-.8,2.13-1.97,2.89-2.72,4.12-4.06,8.38-8.18,12.42-12.39.46-.48,2.81-2.96,2.93-3.31l-.09-4.49.21-6.74c-.33-.09-.38.13-.57.28-1.18.93-2.11,2.42-3.42,3.24l-.55-.41,4.51-4.96.04-5-1.45,1.21c-1.43,1.23-3.72,4.3-5.16,5.24-.77.5-1.59.78-1-.47l7.51-7.51c.42-1.72-.39-3.48.1-5.12-.16-.14-1.13.72-1.31.88-2.82,2.55-5.33,5.83-8.2,8.34-.64.56-1.32,1.1-2,1.61-.38.11-.32-.22-.29-.48.1-.9,1.06-1.23,1.63-1.79,3.43-3.36,6.67-6.9,10.07-10.28l-.09-5.13-6.18,6.07c-.44.89-1.25,1.26-1.9,1.91-1.16,1.14-2.06,2.63-3.61,3.42l-.29-.47,2.49-2.65,9.57-9.8c-.02-1.61.04-3.24-.07-4.85-.02-.28.15-.55-.28-.47-1.14,1.65-2.84,2.74-4.26,4.12-.9.87-3.42,3.92-4.27,4.28s-.27-.87-.04-1.19c.82-1.17,3.31-3.12,4.41-4.24,1.46-1.48,2.89-3.02,4.33-4.51.39-1.72.2-3.56.01-5.31-.72.91-1.78,1.58-2.57,2.37-1.11,1.1-2.46,3.03-3.7,3.9-.27.19-1.36.77-1.24.09.04-.24,1.48-1.79,1.78-2.12,1.57-1.68,4.13-3.6,5.45-5.29.6-.77.38-1.01.38-1.72v-4.09c-.35-.06-.1.36-.24.52-.12.15-.43.23-.62.42-.85.86-5.34,5.65-5.97,5.83-.72.2-.56-.43-.28-.85l7.25-7.39-.04-4.99c-2.39,1.9-4.26,4.48-6.74,6.19l-.57-.2,7.25-7.58-.13-4.87c-1.31.93-5.02,5.67-6.27,5.9-.31.06-.31-.01-.29-.29.04-.68,1.09-1.31,1.6-1.83.3-.31.74-1.11.98-1.31.51-.41.88.14.84-.67l3.34-3.33v-5.13c-.38-.4-.2-.09-.33.05-2.55,2.78-5.36,5.29-7.96,8.03-.28.29-.82.23-1.13,0,0-.45,3.6-3.76,4.19-4.37,1.68-1.73,3.22-3.63,5.14-5.13l-.02-2.38c-1.13,0-2.11-.28-3.17.25-1.95,2.01-3.96,3.96-5.96,5.92-1.03,1.01-3.98,4.38-5.02,4.87-.3.14-.52.24-.87.18l.28-.77,10.18-10.45h-5.04c-.78,0-1.27,1.24-1.73,1.69-.7.69-1.68,1.35-2.37,2.01-3.73,3.57-7.3,7.41-11,11.05l-1.15.27.18-.67,14.27-14.25-2.57-.18-2.94.18-18.54,18.72c-1.25-.87,1.1-2.39,1.71-3.05,3.91-4.2,8-8.29,12.2-12.23l3.49-3.74-5.31.28c-1.5.82-10.01,10.4-10.76,10.36-.14,0-.4-.42-.24-.62l9.47-9.83c-1.59.01-3.95-.33-5.35.44-.91.5-3.2,2.92-4.09,3.8-1.48,1.47-3.31,3.92-4.82,5.17-.34.28-.69.43-1.05.66-.52-.33-.18-.84.09-1.18,1.56-1.95,4.27-4.03,6.02-5.91-.13-.55,2.94-2.61,2.53-2.98-5.29.07-10.57-.09-15.84-.12-4.58-.02-9.2-.08-13.73-.07-.5,0-2.43.31-2.71.14-.09-.05.04-.35-.13-.33-1.8.83-4.31-.08-6.29.37l-28.13-.09-3.9,3.52c-.07-1.48,1.57-2.2,2.28-3.33-.21-.37-.36-.18-.56-.2-.96-.1-3.76-.15-4.57.21-.16.07-2.22,2.02-2.58,2.36-.55.51-1.35,1.82-2.08,1.91-.62.08-.12-.75,0-.94l3.32-3.62-5.43.37c-1.06.89-6.8,7.24-7.59,7.24-.26,0-.33-.13-.48-.3l.38-.75,6.27-6.28c-1.39.06-4.22-.61-5.33.18-.61.43-1.11,1.35-1.7,1.91-2.91,2.81-6.71,7.16-9.7,9.5-.21.16-1.64,1.23-1.53.38s.94-1.08,1.44-1.61c3.3-3.47,6.57-6.99,10.16-10.18.15-.38-.45-.36-.66-.37-1.24-.04-3.93-.13-4.85.55-2.2,1.63-5.2,5.22-7.29,7.26l-6.78,6.63ZM14.26,15.89c.03,1.81-.02,3.62,0,5.42l6.28-6.37c-2.16.17-4.33-.07-6.47.09.07.24.19.62.19.85ZM27.19,14.84l-5.12.3c-1.9,1.71-3.59,3.71-5.4,5.53-.58.59-2.24,1.62-2.4,2.45v4.84c2.83-2.77,5.64-5.57,8.45-8.37,1.37-1.37,2.97-2.64,4.19-4.18.15-.19.37-.25.28-.57ZM135.12,38.73c.17-.18,1.34-1.5,1.21-1.64-1.29.89-2.18,2.18-3.23,3.33-.28.31-.82.58-.92.7-.03.04.13.25.09.3-.31.35-.93.61-1.08,1.18.41.03.7-.4.96-.66,1-1.04,1.98-2.16,2.97-3.21ZM2.47,39.56v3.99c1.76.06,3.18,1.66,4.09,3.03.53-.69,4.94-.53,5.21-.97l.21-6.44-4.67.57-4.84-.2ZM135.19,44.12l-.67.38c-1.22,1.5-2.72,2.74-4,4.18-.89,1-2.28,2.56-3.05,3.61-.61.82-.04,1.09.5.64.39-.33.7-1.02.93-1.29,2.11-2.49,4.23-4.98,6.28-7.51ZM11.98,54.57l-.09-6.28c-.2-.33-1.16.12-1.56.17-.86.12-1.87.27-2.73.22.06,1.69.25,2.94-.25,4.6-.22.73-.63,1.35-.89,2.05l5.51-.77ZM132.26,53.55c.76-.82,1.65-1.64,2.36-2.49.18-.21.46-.31.38-.67-.1-.12-.95.72-1.06.83-.98.99-2.39,2.37-3.24,3.42-.24.29-.83.89-.54,1.26.73-.76,1.4-1.59,2.11-2.36ZM78.86,54.64c-8.49-2.2-12.08,12.16-7.3,16.98.79.8,1.26.78,2.17,1.15.23.09.25.39.27.4.08.04,1.59.07,1.78.06,5.26-.32,7.3-4.65,7.52-9.42.15-3.35-.54-6.55-3.46-8.54-.34-.24-.87-.13-.97-.62ZM44.63,55.78c-.13-.13-1.8-1.38-1.46-.53.26.65,1.13,1.36,1.43,2.19.19.55.19,1.13.3,1.69h.74c-.04-1.24-.3-2.4-1-3.35ZM134.62,55.72l-.57-.19c-.05.83-1.3,1.28-1.52,2.28.47.07.4.03.63-.23.46-.51.88-1.35,1.46-1.86ZM50.39,59.14c-.15-.94.41-2.07-.29-2.85-.32.38-.63.16-1.05.45-.8.56-1.18,1.52-1.7,2.3.9.61,2-.13,3.04.09ZM53.81,56.29l-2.01.18-.08,2.68,2.01-.18.08-2.68ZM56.66,59.14l-.08-2.67-2.01-.18v2.85s2.09,0,2.09,0ZM57.61,56.48v2.66h1.71c0-.93-.07-1.85.19-2.75l-1.9.09ZM38.47,63.07c-.64-.73-.17-2.15-.32-3.03-.26-1.53-1.29-3.71-3.17-3.46,1.92,1.3,3.3,4.25,2.32,6.5s-3.35,2.47-5.27,1.4c-.93-.52-1.38-1.55-2.37-1.91-.31,1.26,1.19,1.83,1.4,2.7.11.47-.56,1.14.03,1.29.24.06,2.05-.7,2.65-.76,2.6-.28,7.98-.15,10.4.63,2.01.64,3.62,1.72,4.73,3.54l10.72-.36.45-.31-.56-8.03-15.08-.03c-.42,1.91-2.59,2.68-4.37,2.47-.43-.05-1.29-.3-1.58-.62ZM101.61,62.64c-12.92,15.3,14.21,25.3,15.63,6.32.67-8.93-10.1-12.88-15.63-6.32ZM66.54,61.81l-5.31-.58c-.07.37.29.57.34.9.18,1.18.19,3.38.24,4.71.02.58-.38,2.35.17,2.68.75-.16,4.47.27,4.73-.14l-.17-7.57ZM42.68,71.22c-7.86-9.24-19.52-.12-17.31,10.56,2.44,11.77,17.49,11.89,19.64.04.6-3.31-.1-7.98-2.33-10.6ZM44.97,71.88h3.71c.11-.44-.09-.31-.24-.44-1.33-1.05-2.84-.45-4.32-.9l.85,1.33ZM53.5,74.43c.83-.67,1.78-1.84,2.02-2.93-.44.33-2.79,2.86-2.47,3.23.48.15.33-.2.45-.3ZM65.41,71.5l-.95.19.19,9.69-1.52-.19v-9.51s-.95,0-.95,0l.06,9.28c-.06.91-1.95.89-2.35,1.25-.8.73-1.69,3.84-1.66,4.96.03.86.24,1.9.34,2.77l-12.25.2c-2.43,1.88-5.66,2.02-8.63,2.16-1.04.05-2.12.02-3.16-.09-.54.11-.5.33-.24.73l27.71.04-1.79-2.3c-1.02-2.44-1.48-6.37.93-8.16.88-.65,1.93-.56,3-.34.57.12.91.66,1.47.72l-.19-11.4ZM57.15,74.66c.26-.34,1.76-2.16,1.79-2.3.13-.57-.46-.43-.84-.07-.87.83-2.39,3.41-3.07,4.54-.15.25-.37.39-.28.77.8-.96,1.63-1.94,2.39-2.93ZM48.96,72.83h-3.52c-.05,2.28,2.83,1.11,4.37,1.33l-.43-1.09-.42-.24ZM86.23,78.45c.15-.24.15-.43.39-.65.81-.74,3.58-1.33,3.01-2.89-.44-1.2-9.03-2.39-6.33,1.6.22.33.57.41.67.56,1.81,2.7-1.17,6.08-3.92,6.61l.37,1.31,4.06-1.47c.75.44,4.04,3.49,4.79,2.44.42-1.07-1.3-1.54-1.99-2.03-1.53-1.08-1.66-2.08-1.54-3.98.05-.79.14-.93.49-1.5ZM49.97,75.53c-.29-.18-3.78-.2-3.77.06l.2.85c1.22-.2,2.47-.24,3.69,0l-.13-.92ZM58.68,77.13c.15-.26.28-.57.26-.88-.21-.26-3.7,4.96-3.99,5.32.22.21.79-.5.95-.67.78-.83,2.21-2.79,2.78-3.77ZM49.81,82.91c.37-1.76.88-3.53.49-5.34-.32-.48-2.93-.06-3.53-.18.02,1.86.1,3.7-.38,5.51h3.42ZM133.1,81.96l-5.09-1.29-9.17-1.18c-1,2.64,1.01,1.71,2.75,1.9,2.8.3,6.91,1.36,9.51,1.33.37,0,1.37-.23,1.73-.36.2-.07.55-.11.26-.4ZM79.86,94.89c-2.38-1.83-8.09-4.46-8.97-7.48-.42-1.42-.29-3.15-.67-4.65-.04-.16-.62-2.21-1.01-1.75-.18.81.47,4.47-.04,4.91-.14.12-.57-.07-.53.13.49.97,1.44,1.9,1.94,2.82,1.47,2.7,2.4,6.45,3.73,9.2,1.8,3.72,10.97,11.43,14.87,12.7.25.08.68.19.93.19.9,0,4.02-3.05,4.98-3.79,4.47-3.41,9.79-6.9,14.88-9.27.34-.16.71-.28,1.08-.35.05-.34-.43-.19-.62-.14-4.43.97-8.12,2.96-11.88,5.43-3,1.96-5.7,4.33-8.69,6.3-.82.05-3.83-1.98-4.66-2.56-2.11-1.48-7.6-5.85-9.07-7.75-.23-.3-2.14-4.1-2.26-4.49-.4-1.23.65-.91,1.48-.72,1.46.35,2.95,1.21,4.52,1.28ZM51.49,87.05c.82-1.31,2.31-2.55,2.5-4.14l-1.44,2.26-1.6,1.82.54.05ZM49.43,83.86h-3.33c-.18,0-.58.88-.47,1.14l3.31-.18.49-.96ZM127.77,89.57c-2.74-1.08-5.54-2.65-8.33-3.56-.79-.26-3.08-1.21-3.06.24,0,.35,5.4,2.13,6.1,2.39.16.06.18.3.3.34,1.25.46,2.62.64,3.8,1.32.27.17,1.49-.4,1.19-.73ZM44.3,87.28c1.52-.08,3.22.59,3.99-1.23-.07-.36-2.69-.12-3.06-.02-.28.08-1.05,1.04-.93,1.25ZM45.36,97.25c-.61-.5-1.2-1.01-1.73-1.59-.44-.47-.49-1.29-1.29-1.29l-.52.25c-.24.16-.08.37,0,.57.22.54,1.36,1.91,1.81,2.38,2.97,3.12,7.2,4.42,10.92,6.39,4.28,2.26,4.68,5.18,7.36,8.8,3.41,4.62,8.22,8.88,13.01,12l-9.88,10.04-5.33,6.41c2.61,1.45,2.85,2.8,1.35,5.33l1.88.85c0-.24.05-.48.15-.7,1.22-2.63,4.22-6.22,6.22-8.43.59-.65,2.66-2.89,3.23-3.25.19-.12.29-.02.47.02.06-.13-.2-.41-.16-.54.03-.09,1.24-.99,1.5-1.26.75-.78,1.61-1.97,2.34-2.7.92-.9,2.14-1.6,2.97-2.63,1.89.5,3.67,1.53,5.56,2.06,2.25.63,4.13.53,6.43.32-.39-.66-1.46-.31-2.16-.4-10.99-1.48-21.13-11.14-27.39-19.76-.64-.88-3.96-6.34-4.29-6.54s-2.02-.44-2.7-.72c-2.68-1.1-7.52-3.75-9.73-5.57ZM96.78,100.22c-1.01.24-1.87,1.1-2.47,1.9.65-.28,1.46-.87,1.99-1.33.18-.15.42-.33.48-.56ZM131.27,123.72c-.95-2.23-1.95-4.43-2.95-6.66l-5.87-11.72c.11,1.89.56,3.73.76,5.61.1.93-.11,2.27.08,3.14.52,2.43,3.42,7.68,4.52,10.33.57,1.36.99,2.79,1.49,4.17l4.18.71c-.71-1.74-1.19-3.64-1.92-5.36-.06-.15-.26-.17-.29-.22ZM113.32,119.8c-1.33.38-2.47,1.71-3.63,2.55-1.28.93-2.73,1.93-4.07,2.78-3.42,2.17-7.17,4.43-11.32,4.56l.02,7.48c-.27,2.54,3.31,3.77,4.83,1.83l-.97-8.75c.2-.33,3.9-1.7,4.61-2.05,2.65-1.31,6.68-4.28,8.85-6.32.64-.6,1.19-1.34,1.67-2.08ZM123.21,121.51l-.38.09c.5,2.38-.22,4.97-.76,7.32l4.37-.19-3.23-7.22ZM129.89,144.87c.16.1,1.76,0,2.15-.03,1.32-.1,5.66-.6,6.11-2.03.15-.49-.21-3.62-.32-4.27-.22-1.31-.87-3.85-1.5-4.97-1.16-2.05-5.69-2.57-7.9-2.64-5.64-.18-11.48.06-17.11.19-2.23.05-4.56.28-6.75.08-.14.45.14.33.24.43,1.19,1.17,2.35,1.81,3.25,3.39,1.34,2.36,1.41,5.26,2.5,7.77.6,1.39,1.33,2.83,3.03,3.05,2.6.34,5.64-.21,8.28,0-.45-3.29,1.18-7.05,5.13-5.6,1.86.68,2.42,2.92,2.88,4.63ZM103.75,135.9c.59-.68-.2-1-.76-1.31-.77-.42-1.53-.56-2.41-.53-.17.85-.17,1.64.83.96,1.15.88-1.22,1.89-.45,3.41.8-.85,2.05-1.68,2.79-2.53ZM103.92,139.49c1.22-1.2,2.24-1.45.94-3.33-.76,1.03-3.31,2.64-3.63,3.79-.07.24.24,1.67.59,1.53.66-.71,1.42-1.31,2.1-1.99ZM58.18,138.24c-.58-.05-1.08.17-1.58.41-2.64,1.31-5.68,5.44-6.65,8.18-.77,2.17-1.01,3.15,1.22,4.41.24.14,1.03.57,1.21.3l5.8-13.31ZM105.91,139.19c-.13-.14-1.35.89-1.52,1.04-2.05,1.79-3.92,3.86-5.88,5.71-.72.68-2.5,1.67-2.49,2.64,0,.25.26,1.82.48,1.81l9.56-8.97-.15-2.24ZM98.56,144.39c.29-.27,2.02-1.67,2.02-1.87-1.21-1.58-1.88-.22-3.13-.09-.77.08-1.43-.23-2.19-.2l.57,4.56c.33.09.38-.13.57-.28.74-.58,1.47-1.46,2.16-2.12ZM127.33,142.49c-.2-.26-1.17-.8-1.53-.77-3.27.3-1.76,8.18,1.31,6.23,1.52-.97,1.09-4.28.22-5.46ZM96.78,153.83c.33.09.38-.14.57-.28,1.84-1.41,3.69-3.8,5.42-5.42,2.01-1.89,4.53-2.53,3.51-5.9-3.35,2.99-6.34,6.4-9.87,9.15l.37,2.45ZM57.28,144.93c-.04.09.14.36,0,.66-.57,1.24-2.55,3.59-.33,3.99l.74-.71,2.16-4.67c-1.03-2.76-1.56-.89-2.25.56-.05.12-.31.14-.32.17ZM103.18,151.87c.13-.12.19-.35.35-.5.56-.52,3.04-2.44,3.24-2.86.1-.21.14-.4.08-.63l-.56-1.84c.03.22-.09.32-.24.44-2,1.7-3.86,3.62-5.75,5.46-1.34,1.31-3.91,2.6-2.95,4.75l.67-.18c1.62-1.65,3.46-3.07,5.15-4.64ZM137.09,146.61c-1.16.3-2.33.59-3.53.76-1.01.14-3.19-.05-3.8.56-.41.41-.46.92-1.05,1.42-1.2,1.04-2.89,1.38-4.3.53-.51-.31-1.16-1.22-1.52-1.33-1.2-.35-5.74,0-7.39-.05-1.26-.03-2.23.05-3.51-.47-.89-.36-1.53-1.17-2.47-1.42l.95,11.03,26.3-.03c.37-.13.71-1.44.8-1.86.59-2.82-.08-6.31-.49-9.14ZM60.84,157.43c-.01-2.87.99-5.63,1.51-8.43-.71-.33-1.7-1.13-2.35-.48-.37.37-.9,1.95-1.34,2.46-.8.93-2.74-.24-3.5-.75-.3.21-2.52,6.62-2.44,6.98.04.2.03.33.27.43l7.86-.19ZM98.49,157.45h2.76c.4,0,5-4.84,5.97-5.16l-.36-2.63-8.36,7.8ZM102.68,157.64c1.49-.23,2.12.47,3.4-.69s1.48-2.01,1.16-3.69c-1.11.93-2.29,1.86-3.33,2.86-.22.21-1.39,1.35-1.23,1.51Z"/>
        <path d="M107.68,74.42c-.68.6-.8,1.19-2.04,1.07-3.07-.3-3.11-4.8-2.53-7.07.97-3.83,6.08-6.77,6.96-1.56.49,2.88-.2,5.63-2.39,7.56Z"/>
        <path d="M78.09,59.18c1.9-.44,2.47,1.66,2.69,3.12.35,2.27-.31,6.74-2.47,7.94-3.43,1.91-3.64-4.91-3.12-6.93.3-1.17,1.64-3.84,2.9-4.13Z"/>
        <path d="M30.73,71.82c7.28-6.77,14.67,4.26,11.51,11.41-.31.71-1.83,3.07-2.41,3.49-9.18,6.54-16.76-7.77-9.1-14.9ZM35.31,74.57c-.88.26-.93,2.34.19,2.59,2.53.58,2.19-2.99-.19-2.59ZM32.51,74.74c-.54-.42-1.43,1.43-1.56,1.77-1.05,2.77-1.02,6.65,1.08,8.88l-.96-2.65c-.69-3.06-.07-5.34,1.43-7.99Z"/>
      </g>
      <path d="M56.37,63.52c.77.22.5,3.6-.09,3.9-.86.43-4.73-.1-6,.25l-.61-.2c-.35-1.26-.45-2.76.14-3.94h6.56Z"/>
    </g>
  </g>
</svg>