<?xml version="1.0" encoding="UTF-8"?>
<svg id="Layer_2" data-name="Layer 2" xmlns="http://www.w3.org/2000/svg" viewBox="0 0 176.13 173.97">
  <g id="Layer_1-2" data-name="Layer 1">
    <g>
      <g>
        <path d="M71.04,137.2c-.59.85-2.63,2.2-3.51,2.81-6.47,5.35-12.87,11.77-19.58,16.8-.22.17-1.19.96-1.38.78.21-.65.62-1.03,1.08-1.49,5.23-5.15,12.08-10.15,17.75-15,.72-.61,5.13-4.81,5.62-4.79.44.02.2.64.02.89Z"/>
        <path d="M56.53,136.11l-.39.85c-6.45,4.18-12.67,8.8-18.69,13.53-.49.38-1.33,1.38-1.82,1.64-.26.14-.54,0-.58-.2-.12-.56,4.2-3.58,4.88-4.12,4.23-3.34,10.13-8.33,14.88-11.01.26-.15,1.5-.89,1.71-.69Z"/>
        <path d="M44.53,149.81c-1.52,1.18-3.01,2.42-4.49,3.66l-.76-.19c3.13-2.8,6.45-5.48,9.79-8.04,2.87-2.2,5.97-4.66,9-6.25l-.17-.35c.93-.75,2.27-.74.92.43-4.18,3.64-9.78,7.22-14.29,10.74Z"/>
        <path d="M62.23,140.47c-1.29.96-2.62,1.91-3.87,2.94-3.86,3.19-7.7,6.41-11.6,9.49-.52.41-3.99,3.58-4.42,3.16-.1-.53.25-.74.57-1.06,1.78-1.75,4.16-3.02,6.07-4.57.35-.28.91-1.09,1.34-1.43,3.85-3.13,7.73-6.25,11.7-9.22l.45.26-.25.42Z"/>
        <path d="M48.48,133.62c.07.34-.17.48-.39.66-1.07.86-2.64,1.73-3.82,2.52-4.18,2.79-8.34,5.87-12.48,8.98-.52.39-1.27,1.02-1.9,1.07-.4-.4,1.5-1.82,1.83-2.1,3.96-3.39,10.24-7.82,14.8-10.32.3-.16,1.77-1,1.98-.8Z"/>
        <path d="M52.51,134.77c.09.46-.04.48-.31.74-2.58,2.46-7.56,4.63-10.41,7.04-1.88,1.36-4.18,3.73-6.12,4.81-.76.42-1.05.4-.67-.52,3.19-2.38,6.31-4.8,9.56-7.09,1.91-1.34,4.45-3.33,6.62-4.49.23-.12,1.22-.61,1.33-.49Z"/>
        <path d="M42.22,134.06l-.31.38c-1.66.94-3.31,1.92-4.92,2.93-.84.53-1.94,1.83-2.89,1.42l.02.68c-.82.35-1.89,1.58-2.7,1.74-.33.07-.35.1-.58-.21,0-.26,3.58-2.79,4.12-3.17.85-.61,2-1.43,2.94-2.03,1.96-1.25,4.11-2.28,6.1-3.49l.36.55-2.14,1.21Z"/>
        <rect x="29.45" y="133.62" width="11.76" height=".92" transform="translate(-62.64 35.96) rotate(-30.19)"/>
        <path d="M27,138.8c.4.4-1.59,1.97-1.93,2.19-.22.14-.84.53-.94.01-.08-.4,2.52-2.56,2.87-2.2Z"/>
        <path d="M115.54,79.11c-.22.28-1.13.77-1.41,1.08-2.01,2.23-1.76,5.7-.33,8.16.55.94,1.52,1.77,1.95,2.84.91,2.25.3,5.58-1.49,7.25-.81.75-2.2.93-2.08-.36.06-.61,2.06-1.98,2.27-3.87.32-2.94-1.49-3.37-2.45-5.61-.28-.64-.52-1.52-.69-2.2-.34-1.34-.51-2.97.04-4.5.26-.72.97-1.98,1.47-2.56.22-.26,1.93-1.69,2.12-1.72,1.01-.16,1.11.86.6,1.48Z"/>
        <path d="M122.69,81.27c-.93,2.13-2.6,2.57-2.31,5.28.15,1.4,1.47,2.28,2.19,3.37,1.28,1.94,1.77,4.35.83,6.55-.57,1.32-3.13,4.4-3.75,1.61,1.49-1.32,2.72-2.64,2.44-4.81-.37-2.95-3.93-4.34-3.42-8.05.22-1.56,2.04-4.91,4.01-3.94Z"/>
        <rect x="127.12" y="85.33" width="32.63" height=".87" transform="translate(-17.4 131.16) rotate(-46.64)"/>
        <rect x="126.34" y="83.47" width="27.54" height=".9" transform="translate(-17.02 128.47) rotate(-46.75)"/>
        <path d="M130.36,146.27c-.09-.1.72-.81.89-.92,4.29-2.88,10.42-5.57,15.08-8.12,1.17-.64,2.44-1.61,3.61-2.14,1.4-.64.97.32.15.92-1.89,1.39-4.42,2.35-6.49,3.49-3.47,1.92-6.9,3.93-10.45,5.66-.53.26-2.38,1.6-2.8,1.12Z"/>
        <path d="M107.16,41.96c.05.35-.2.6-.39.86-.6.83-2.07,2.24-2.86,3.07-1.95,2.07-4.72,5.27-6.82,7-.22.18-.31.47-.67.38-.04-.74.57-1.27.99-1.79,2.62-3.25,6.29-6.14,8.98-9.39l.76-.13Z"/>
        <path d="M137.56,81.96c-1.78,1.96-3.94,4.3-5.85,6.12-.13.13-.79.88-.97.67l.18-.87,8.44-9.01.58.2c.02.32-1.98,2.45-2.38,2.9Z"/>
        <rect x="139.64" y="141.9" width="10.21" height=".89" transform="translate(-50.62 87.16) rotate(-28.75)"/>
        <path d="M103.71,50.59c.25.25-.84,1.49-1.05,1.73-1,1.16-2.62,2.82-3.74,3.88-.17.16-.36.27-.58.34-.03-.32.01-.61.14-.91s4.04-4.46,4.45-4.76c.26-.19.39-.36.77-.28Z"/>
        <path d="M59.6,18.95c.06.38-.11.64-.3.95-.29.47-3.26,3.56-3.59,3.7-.29.13-.59.18-.91.14.2-.85,1.07-1.12,1.54-1.62.85-.89,1.6-1.98,2.58-2.79.22-.18.31-.47.67-.38Z"/>
        <path d="M131.62,82.92c-.22.23-1.41,1.41-1.55,1.42-.25.01-.22-.27-.13-.5.22-.55,2.85-3.39,3.19-3.33.36.07.22.26.11.48-.23.48-1.21,1.5-1.63,1.93Z"/>
        <path d="M18.15,6.43s0-.28.12-.3c2.11-.23,4.27-.75,4.96-3.14.28-.97-.18-2.06.7-2.75l9.64-.06c1.02.59.85,1.87,1.31,2.91,1.57,3.49,6.37,4.06,9.18,1.75.31-.26,1.6-1.86,1.68-2.05.04-.09-.16-.37-.11-.59.12-.49.33-1.78.72-1.97h9.22c.98.31.77,1.84,1,2.64.25.87,1.1,1.66,1.77,2.26.42.38,1.03.2.87.96l.28-.38c1.47.66,3.62.75,4.99-.19l.28.38c.87-1.37,2.18-1.77,2.64-3.59.22-.86-.24-1.99,1.09-2.17,1.69-.23,6.3-.16,8.07,0,1.43.13.97.29,1.18,1.17,1.47,6.05,9.31,6.64,11.47,1.33.33-.8-.06-1.78.66-2.39h9.6c.91.29.71,1.92,1.1,2.73.59,1.21,2.29,2.71,3.64,3.07,2.69.71,4.95-.11,6.56-2.35.22-.31.71-.83.74-.88.06-.11-.47-1.88.3-2.49l10.53-.14c1.1.9.63,2.03,1.21,3.21,2.11,4.32,8.91,3.85,10.63-.64.35-.9.11-2.47,1.25-2.58,3.09.2,6.54-.29,9.58-.03,1.73.15,1.31,1.47,1.84,2.77,1.16,2.87,4.63,4.22,7.49,3.13.99-.38,2.65-1.88,3.07-2.88s.03-2.6,1.1-2.92h11.13s.41.39.41.39l-.11,14.78c-.23.51-1.92.84-2.54,1.2-3.76,2.15-3.5,8.51.35,10.47.46.23,2.14.63,2.26,1l.03,13.59-.18.39c-3.09.07-4.85,2.36-4.99,5.27,1.4-.6,3.06-1.08,4.36-1.87.97-.6,2.81-2.01,3.63-2.8.31-.3,1.54-1.96,1.73-2.02.95-.32,1.87,1.46,1.16,2.23-1.38,1.01-2.52,2.47-3.9,3.48-2.01,1.46-4.44,2.39-6.75,3.32-.1,1.35,1.2,2.83,2.39,3.4,1.31.63,2.9.26,2.57,2.33.87.1.68-.3,1.05-.58.52-.4,1.17-.81,1.64-1.24.75-.69,2.14-3.02,3.16-1.82s-1.74,3.65-2.69,4.4c-1.01.81-2.17,1.44-3.12,2.25l-.04,8.21c.67-.06,1.04-.69,1.46-1.02.2-.16.52-.21.74-.41.82-.75,1.56-1.81,2.39-2.59,1.23-.31,1.73.4,1.35,1.54-.72,2.17-5.45,5.02-7.54,5.88-1.65.68-2.68,0-3.4,1.97-.93,2.54.02,6.16,2.43,7.55.79.46,1.72.27,2.38.88.46.66.15,2.49.16,3.27.05,3.05-.07,6.12.17,9.17-.51,1.09-1.54.88-2.44,1.21-2.36.88-2.93,3.21-3.04,5.49-.02.35.13,2.67.18,2.8.01.03.28.04.34.16.53,1.1.83,1.91,1.97,2.59s2.39.11,2.89,1.54c.18.53-.06,3.81-.05,4.66,0,.27-.05.53-.19.77l.35.16c-.53,2.06.16,4.64-.09,6.66-.03.22-.22.83-.4.95-2.37.23-3.76.86-4.62,3.2-.97,2.65-.3,6.49,2.3,7.96,1.11.63,2.22.18,2.53,1.58.41,1.85.26,8.58.19,10.74-.09,2.85-.22,2.03-2.26,3-1.47.7-2.12,1.52-2.72,3.03-.4,1.02-.67,3.11-.43,4.13.02.08.26.08.32.24.49,1.49,1.05,3.14,2.65,3.83.64.28,2.07.13,2.27.8l.04,15.12c-.7.8-5.98.29-7.32.28-1.42-.01-4.47.38-5.72.11-1.16-.26-.89-1.7-1.31-2.72-.68-1.67-1.97-2.72-3.68-3.22s-4.43-.04-5.89,1.28c-1.35,1.22-1.41,2.51-1.73,4.21-.49.68-3.4.27-4.31.29-.82.02-1.71.21-2.48.21-.63,0-3.42-.03-3.84-.19-.96-.37-.9-2.13-1.34-3.09-1.65-3.6-8.07-3.74-9.98-.2-1.09,2.03.39,3.39-2.87,3.46-2.16.05-4.51-.08-6.68-.06-.41,0-1.98-.02-2.2-.18-.32-1.65-.76-3.37-2.15-4.47-2.97-2.36-7.87-1.61-9.1,2.22-.59,1.85.38,2.13-2.2,2.36-1.38.12-3.61.08-5.06.06-.62,0-2.82-.03-3.2-.23-.76-.4-.63-2.14-.92-2.91-.76-1.98-3.87-3.28-5.85-2.88-1.11.22-2.56.92-3.38,1.8-.36.39-.92,1.3-1.08,1.8-.18.56-.09,1.4-.39,1.91-.51.86-1.38.37-2.1.39-2.55.08-5.07.14-7.62.14-1.22-.39-.92-1.84-1.34-2.87-.17-.42-.85-1.36-1.19-1.69-1.95-1.85-5.65-1.87-7.84-.34-.6.42-1.29,1.45-1.51,2.13-.27.84-.04,2.39-1.21,2.62-.18.04-2.08.23-2.17.16-.09-.08.05-.37-.13-.35l-.18.36c-1.35-.23-6.32.71-6.78-.87-.12-.41,0-.92-.12-1.41-1.16-4.53-8.85-5.27-10.5-.5-.26.76-.29,2.25-.85,2.6-1.02.65-7.12.01-8.72.13-.89-.29-1.18-2.73-1.75-3.62-2.26-3.56-7.79-2.95-9.9.59-.23.38-.04,1.07-.62,1.01l.37.27c-.35.54-.13,1.45-.84,1.67l-7.48.17-.2-.58-.1.58c-.81-.51-2.46.42-2.68-.58h-.19c.15.59-.95.49-1.25.19-.2-.26-.26-.55-.29-.88-.27-2.66-.12-7.4,0-10.17.02-.5-.1-1.25.39-1.33l-.39-.22c.08-.68-.24-2.69.39-3.04.3-.17.71-.04,1.01-.14,1.8-.63,2.77-1.49,3.39-3.32.39-1.15.49-2.65.56-3.84,0-.08-.3-.07-.34-.23-.44-1.72-.66-3.11-2.46-4.03-1.35-.69-2.42-.01-2.54-2.06-.03-.54-.2-1.01.38-1.15.03-.18-.28-.04-.34-.13-.21-.33.1-4.35.09-5.24,0-1.02-.36-4.71-.21-5.23.23-.83,2.18-1.08,3.01-1.61,3.02-1.92,2.96-8.85-.65-10.22-.56-.21-1.41-.09-1.9-.59-.33-.34-.37-1.58-.4-2.1-.2-3.89.2-7.82,0-11.71.04-1.18,1.2-.81,1.84-1.03,1.1-.38,2.74-2.37,3.03-3.5.19-.74-.12-1.6.52-1.79-.82.03-.11-2.66-.2-2.78l-.38.2c-.51-2.31-2.38-3.4-4.56-3.88-.53-.53-.14-11.23-.15-12.81.21-.66,2.02-1.07,2.78-1.63,3.02-2.24,3.25-7.83-.04-9.91-1.6-1.01-2.64-.08-2.82-2.53l.03-12.25c.18-.61,2.95-1.31,3.8-2.33,1.9-2.28,1.86-7.93-1.08-9.28-1.03-.47-2.52-.23-2.75-1.66.31-3.91-.33-8.22-.02-12.07.04-.55.2-1.06.34-1.59l.2-.23c5.24.09,6.08-8.87,2.08-10.75-.98-.46-2.18-.18-2.52-1.52s-.06-5.37-.05-7.18c0-1.19.17-2.48.17-3.66,0-1.04-.77-3.65.67-3.92l9.93.04c1.09.25.92,1.99,1.4,3.01.67,1.4,2.18,2.69,3.71,3,.28.06,1.99.27,2.09.23ZM69.75,1.9c-.47-.35-.3.91-.42,1.37-.56,2.19-2.87,4.2-5.04,4.76-4.28,1.11-9-1.14-9.96-5.57l-6.62-.19c-.09,3.28-3.79,5.82-6.83,6.11-4.15.4-7.61-2.05-8.44-6.12h-6.98c.29.76-.3.95-.32,1.01-1.32,4.4-5.77,5.71-10.09,4.71-2.65-.62-4.57-3.22-5.24-5.72H2.27s.03,11.58.03,11.58c.15.42.7.3,1.06.47,5.95,2.89,5.12,12.9-1.06,15.03v10.58c.36.75,1.24.61,1.88,1,2.87,1.77,3.84,6.4,2.97,9.48-.55,1.97-2.65,4.91-4.89,4.8v11.51c2.96,0,4.65,3.51,4.97,6.06.53,4.22-1.18,7.52-4.96,9.42.05,1.22-.19,9.53.22,9.8,4,.51,5.58,6.73,4.67,10-.68,2.41-2.38,4.68-4.9,5.29-.21,1.2.26,6.68-.04,7.14-.06.09-.37-.05-.34.13l.39.22.06,3.44c.14.27,1.76.82,2.22,1.15,2.07,1.47,2.4,3.82,2.87,6.14l-.35.16c.58,3.35-1.33,6.95-4.67,7.96l-.22.36.12,9.68c.09.28,1.64.91,2.06,1.19,4.3,2.93,3.86,11.29-.27,14.27-.51.37-1.64.62-1.78,1.09l-.02,11.55h8.68s.23-.16.23-.16c1.36-7.9,13.15-7.55,14.98,0,1.94.43,4.19.19,6.2.17-.32-.59.29-1.97.62-2.53,3.56-5.96,13.15-4.03,14.34,2.73l6-.19c.42-.94.71-1.93,1.25-2.82,2.85-4.68,10.37-4.22,13.11.38.37.62.82,2.33,1.4,2.43,1.83.34,4.51-.21,6.43,0-.28-.78.29-.92.37-1.11.13-.31.12-.65.32-.99,3.57-6.15,12.82-4.94,14.29,2.07l6.58.03c.98-4.09,4.76-6.89,9.08-6,1.21.25,3.48,1.21,4.21,2.21.15.21.1.56.24.77.14.22.61.35.87.72.34.49.69,2.09,1.19,2.26,1.98-.22,5.03.39,6.87.03.15-.03.3-.03.39-.19.88-4.37,5.23-6.77,9.49-5.66,2.93.76,4.8,2.99,5.48,5.86,2.53,0,5.06-.16,7.55.18.77-4.61,5.53-7.17,9.93-6,1.8.48,4.11,1.77,4.93,3.51.24.51.5,2.11.99,2.27l9.85.03c-.05-.5-.29-1.97-.2-2.36.04-.16.39-.13.38-.21-.66-1.37-.09-3.03-.36-4.43l.35-.16-.22-4.21c-1.06-.83-2.39-1.18-3.31-2.22-1.3-1.46-1.74-2.78-2.04-4.69-.2-1.25-.05-2.51.02-3.47.18-2.37,2.9-5.77,5.38-6.04-.16-2.32-.1-4.66-.01-6.99.02-.54-.38-1.25.2-1.34-.6-.63.04-1.43-.49-2.02-.25-.28-1.73-.9-2.29-1.35-1.19-.94-2.09-2.16-2.5-3.63-1.3-4.7.32-9.21,4.91-11.22l.05-9.45c-.12-.29-1.65-.8-2.16-1.12-4.46-2.81-4.41-11.7.19-14.35.72-.42,1.66-.39,2.03-1.19l.02-9.16c-.97-.53-1.74-.79-2.65-1.55-1.92-1.62-2.7-3.64-2.89-6.14-.03-.43-.02-1.84.38-1.91-.1-.23-.24-.52-.17-.76.1-.32.61-.17.57-.5-.49-.03-.94.18-1.43.2-.66.03-3.85-.22-4.04-.15-.23.1-.25.19-.29.42v23.76s-.39.21-.39.21l.4.37.08,64.54c-.34.47-.79.55-1.34.59-2.15.17-4.68-.12-6.87-.13-.88,0-4.69.32-5.08.07-.09-.06.05-.37-.13-.34-.14.63-.46.2-.95.39l.09-.58-.5.57h-61.12s-.22-.38-.22-.38l-.09.38c-1.14.13-2.36-.12-3.47-.12-1.46,0-9.69.35-10.12.08-.09-.06.05-.37-.13-.34l-.37.4c-2.63-.17-5.26.08-7.89-.01-.47-.02-1.21.11-1.33-.39l-.22.4c-13.11-.09-26.16-.06-39.28-.02-1.64,0-3.36.19-4.91.11-.27-.01-1.1-.26-1.23-.48l-.1-116.59.58-.1-.4-.37c-.04-8.64.1-17.28.1-25.9,0-.9-.44-3.82.19-4.33.57-.45,7.67-.37,9.01-.37,4.65,0,9.36.3,14.02.02l.57.36.2-.39,32.77.03.4.75c.23,0-.07-.45.22-.59.21-.1,2.06-.15,2.48-.15,17.73-.32,35.52.17,53.3.17.64,0,1.45,0,2.01-.2l.1.58.22-.39,5.54-.17c.88.44,3.47-.22,4.19-.01.14.04.12.38.22.39.27,0,.52-.31.78-.34,1.22-.14,3.14.21,4.39.22.91,0,2.16-.43,2.88.11l.21-.39c2.94.59,7.25-.41,10.01.14,1.73.34,1.17,1.01,1.18,2.25.1,11.04-.1,22.06,0,33.09l5.18-.58c-.44-2.26.79-5.09,2.49-6.62.59-.53,2.56-1.45,2.74-1.87.04-2.25-.07-4.55.31-6.77l-.35-.16c.1-.43.25-2.28.14-2.65-.19-.64-2.17-1.37-2.84-1.96-3.3-2.9-3.3-8.41-.85-11.78.68-.94,2.14-2.31,3.35-2.22.46-.33.32-2.01.21-2.57l.36-.11-.37-.18.17-9.12-8.82.19c.22,2.53-2.08,4.79-4.32,5.58-4.49,1.57-9.54-.8-10.57-5.58l-2.47.2c.03-.64-.68-.92-.28-.19h-5.37c.14.26.14.43.07.72-1.57,5.93-10.64,7.24-14.12,2.31-.66-.93-.95-2.07-1.6-2.99l-7.36-.02c.33,1.93-1.9,4.42-3.6,5.13-.46.19-.93.06-.97.09-.07.05-.08.35-.36.49-2.57,1.27-7.12-.4-8.77-2.66-.44-.61-1.25-2.03-1.11-2.75l-.27-.28-6.97-.03c-.04.39.08.84,0,1.21-.03.13-.28.12-.36.29-2.66,6.45-12.81,5.83-14.89-.73-.06-.2.02-.39.1-.56-.32-.45-5.12-.07-6.05-.18-.4-.05-.24-.34-.29-.38ZM39.66,15.5h-2.78c-.05,0-.18-.15-.35-.14-.81.04-1.56,1.14-2.14,1.68-.34.31-.41.38-.67.64-4.98,4.91-9.94,9.92-14.77,14.97-.56.58-4.21,4.3-4.21,4.61v3.74c1.41-1.01,2.49-2.62,3.71-3.77.42-.4,1.3-1.15,1.85-1.03l-.38-.19c-.08-.32.26-.12.35-.22.03-.04-.16-.04.42-.63.39-.4,1.37-1.56,1.82-1.64.28-.05.34,0,.29.29-.09.53-2.89,3.03-3.46,3.63-1.52,1.59-2.94,3.32-4.59,4.81v4.31l6.03-6.15.68-.08-.48.86-6.24,6.61v3.93c1.49-.89,2.74-3.13,4.12-4.03.25-.16.43-.2.48.1.11.66-2.51,2.7-3,3.22-.46.49-.61,1.26-1.42,1.55-.37,10.11-.13,20.36-.16,30.5-.04,12.63-.02,25.16-.1,37.76,0,1.45-.21,2.93-.1,4.4l-.39.22.39.22c-.14.71.12,1.49.13,2.13,0,.23-.23.38-.23.64.1,10.22.12,20.45.1,30.67,1.22-.19,2.42.03,3.64.19.19-.7-.32-.54-.58-.85-1.12-1.34-1.32-11.51-1.14-13.62.15-1.82.9-4.05,1.91-5.57.39-.6,1.41-1.99,2.11-1.82.08-.4-.35-.55-.54-.89-4.21-7.48-4.69-13.72-2.51-21.97.87-3.3,2.4-6.82,2.07-10.57-.26-2.92-1.53-5.96-1.72-8.85-.11-1.74,2.25-2.74,3.6-3.33l.14-.03.11.4c.32.08.12-.27.22-.35.25-.21,1.82.55,2.15.76,3.14,2.09,4.87,9.49,4.68,13.04-.4,7.17-4.44,12.72-3.78,20.19.19,2.15,1.01,4.67,2.49,6.23.07-7.85,1.53-15.64,4.65-22.86,1.83-4.24,5.14-10.09,8.29-13.38.59-.61.99-.55,1.03-.6.11-.14.1-.82.4-1.04l-1.86-1-4.01-2.9-5.25,3.51-.95.11.25-1.48,4.16-3.22-3.48-4.47c-.2-.12-2.34.54-2.74.65-.57.15-.48.08-1.01.27-.37.13-.79.13-1.11.39l-.28-.38c0,.24-.08.44-.32.54s-2.42.76-2.67.79c-.44.06-1,.08-1.05-.48-.06-.8,1.27-1.34,1.88-1.58,1.91-.74,4.35-1.3,6.38-1.58l-1.7-4.1c-.5-.6-7.14.32-8.33.27-.24-.06-.38-.72-.23-.96.51-.83,5.36-1.16,6.52-1.16.65,0,1.2.08,1.83.2-.98-4.66-.42-10,1.39-14.43.25-.62,1.45-2.41,1.49-2.74.1-.73-.48-1.97-.57-2.69-.8-6.38-.02-16.31,1.21-22.58.43-2.17,1.03-5.53,3.05-6.7.14-.08.32.02.46-.03.03-.01.04-.25.19-.29,2.7-.68,5.63,1.76,7.62,3.44,3.28,2.77,6.5,6.21,9.3,9.53.26.31.24.95.87,1.01.68.06,2.57-.49,3.45-.57,2.63-.25,5.98-.17,8.63,0,.67.04,3.46.63,3.88.44,2.6-2.93,5.47-5.6,8.42-8.18,1.63-1.43,4.84-4.49,6.88-5.1,1.15-.35,2.74-.13,3.54.85.98,1.19,1.69,5.64,1.91,7.29.86,6.39,1.18,13.13.09,19.49l1.25,1.8-.38.19c.71.39,1.04,1.17,1.37,1.89,1.96,4.21,2.85,9.53,2.46,14.13l6.24-.35.28.35.28-.4,2.38.43.03.93c-3.14.02-6.4-.05-9.42.89-.44,1.49-.57,3.12-1.32,4.48,1.39-.01,2.78.28,4.14.56.27.06.91.2,1.24.28.67.17,4.52.99,3.17,2.05-1.68.25-3.45-.78-5.18-1.07-.68-.12-3.64-.46-4.04-.1-.24.21-1.2,2.23-1.5,2.71-.14.22-1.14,1.43-1.08,1.5,1.07.35,5.89,3.15,6.11,3.97.24.86-.69.59-1.17.39-1.09-.46-5.14-3.31-5.92-3.12-2.66,2.54-5.63,5.01-9.17,6.25-.09.26,0,.49.09.74.65,1.75,2.23,3.93,3.13,5.7,4.13,8.14,11.06,24.26-.57,29.48-6.02,2.7-13.41-1.01-8.99-7.83,1.41-2.18,3.88-3.59,5.55-5.57l-.67-.48c-.13-2.46.66-4.99.29-7.48-.41-.53-.68,1.31-.71,1.49-.39,2.13-.49,4.46-.81,6.61-1.42,1.22-3.01,2.46-4.24,3.87-.52.6-1.17,1.96-1.73,2.29-1.24.73-3.4.27-4.69,1.02-2.24-3.12-5.65-4.33-9.21-5.31-2.92-.81-6.09-.34-6.89-4.04-.15-.67.06-1.45-.29-2.11l.58-.19c-.9.21-.57-.86-.78-1.44l.39-.47c-.88-.12-.53-1.73-.96-2.49h-.57c.21,2.49.17,7.74,1.79,9.72,1.38,1.69,5.09,2.02,7.08,2.61,4.57,1.34,10.89,4.35,8.02,10.21-2.15,4.39-9.72,3.31-13.66,2.53-6.73-1.34-12.7-3.12-15.25-10.07-.35-.97-.26-2.43-1.3-2.91-.22,0-.39,1.36-.38,1.56.07.95.85,3.51,1.23,4.45.1.23.45.04.6.24.19.26.31.91.67,1.4.52.72,1.41,1.33,1.99,2.03-.21.27-.45.44-.76.58-2.32,1.02-4.93,1.51-7.28,2.5-5.17,2.16-10.89,5.49-12.8,10.93v3.33c3.48,6.59,12,9.85,19.07,11.9l12.81.02c7.29-6.28,14.64-12.55,22.08-18.66.71-.58,1.75-2.2,2.75-1.66l-.38-.39,2.97-2.3c.3.23.28.25.21.59-.09.46-4.1,3.25-4.76,3.83-5.01,4.53-10.39,8.7-15.49,13.12-2.09,1.82-4,3.97-6.32,5.47l.48.38c.14-.07.07-.39.09-.39h3.93c5.06-4.42,10.2-8.73,15.31-13.08,2.65-2.26,5.1-4.84,8.08-6.68l-.08.88-22.06,18.78c-.05.53.12.16.33.14,1.34-.09,2.64.1,3.95-.07,4.52-4.05,9.09-8.01,13.68-11.94.16-.14.24-.44.44-.61.66-.56,5.3-4.38,5.66-4.31.78.58-.51.98-.95,1.35-6.01,5.02-11.74,10.39-17.65,15.53-.3.84.32,0,.38,0h3.84c1.2-.61,2.14-1.88,3.16-2.78,3.64-3.23,7.15-6.39,10.87-9.56.38-.32,1.99-2.13,2.46-2.04.66.41-.2,1-.57,1.35-1.75,1.67-3.88,3.21-5.66,4.88l-9.01,8.34,4.8-.28c2.92-3.06,6.32-5.75,9.52-8.6.37-.33.75-.96,1.21-1.37.32-.29,2.4-1.98,2.59-2.01.29-.05.33,0,.29.29l-12.47,11.7,1.82.18,2.47-.3,9.86-8.99c.14-.26,1.43-.68,1.19-.1-1.24,1.16-2.44,2.38-3.72,3.49-.59.52-.17.16-.48.55-.94,1.18-3.73,2.96-4.94,4.19-.27.27-.46.75-.83.99,1.48.08,3.05.37,4.48-.12,1.48-1.05,8.75-8.58,9.8-8.6.29,0,.27.54.03.71l-8.76,8.11h4.12c.75,0,.4-.33.67-.63.95-1.04,2.32-1.95,3.38-2.9,1.56-1.4,2.95-3.06,4.77-4.15.27.15.04.5-.08.68-.97,1.46-4.07,3.72-5.48,5.07-.55.53-1.39,1.21-1.62,1.92h2.78c.49,0,1.04.28,1.54-.19,2.29-1.88,4.39-4.54,6.71-6.33.31-.24.76-.49,1.15-.58.21.36-.44,1-.66,1.25-.68.78-1.44,1.14-2.09,1.75-1.44,1.35-2.83,2.8-4.24,4.19,1.33-.24,3.13.27,4.36-.24.49-.2,2.02-1.61,2.54-2.06,1.86-1.62,3.48-3.67,5.65-4.89l-.09.68c-1.75,1.41-3.24,3.1-4.87,4.62-.6.56-1.54,1.03-1.85,1.79h4.31c.49,0,6.35-5.86,7.28-6.53l1.07-.18c-.22.53-.63.99-1.06,1.35-.37.32-.38.38-.67.65l-5.17,4.71h4.51l6.87-6.26.8-.26c.32.19-.06.42-.19.58-.45.55-1.19,1.22-1.72,1.73-1.47,1.4-3.03,2.74-4.51,4.12-.05.53.12.15.33.14,1.41-.07,2.87-.06,4.28.04,2.14-1.86,4.14-3.93,6.32-5.75.36-.3,1.45-1.18,1.82-1.25.25-.05.4.04.29.29-.07.16-1.54,1.59-1.81,1.83-.64.58-1.57,1.07-2.15,1.59-1.01.92-1.94,2.31-3.13,3.1l4.47.06,9.82-8.4.38.58-8.73,7.86,5.13-.14c2.92-2.5,5.58-5.39,8.77-7.53.24.67-.95,1.57-1.43,2.02-.77.73-1.76,1.44-2.62,2.08l-3.52,3.57h24.35s-.02-35.45-.02-35.45l-10.35-1.66c-.56,2.33-2.61,3.8-4.39,5.19,2.73,1.44,4.39,3.7,3.01,6.85-.35.79-1.05,1.11-1.28,1.88l6.44-3.44.46.28c-.05.19-.1.49-.24.62-.24.23-3,1.34-3.6,1.67-6.99,3.87-13.99,7.74-21.24,11.17-.57.27-3.29,1.67-3.68,1.2l.51-.54c3.46-1.83,7.08-3.37,10.55-5.17.23-.12.52-.14.15-.42-1.84,1.02-4.08.95-6.09,1.39-2.89.62-5.97,2.28-8.77,3.5-1.2.52-2.23,1.53-3.64,1.44-.07-.38.25-.55.51-.74,1.14-.79,3.89-1.67,5.31-2.36.61-.29,1.43-.59,1.85-1.12-1.4.1-3.13-.03-4.5.19-2.7.43-5.68,2.77-8.34,3.55-.69.2-1.21-.06-.65-.5,1.59-1.25,4.26-1.66,5.96-2.82.17-.12.36.03.25-.43-1.57.48-2.96-.32-4.65.04-1.17.25-6.13,2.9-6.54,2.81-.21-.05-.36-.32-.31-.55l5.56-2.69c-2.3-.6-3.43-.56-5.61.23-.88.32-3.35,1.67-4.02,1.64-.1,0-.49-.12-.53-.24.41-.93,3.98-1.75,4.93-2.35.2-.12.34.01.25-.43-1.36.16-2.43-.99-3.75-.67-1.06.26-4.29,2.34-4.97,2.2-.39-.08-.33-.5,0-.77.8-.66,3.09-1.3,4.13-1.72l-2.68-1.34c.02.15-.01.29-.16.36-.62.34-4.5,2.02-4.93,1.93-.45-.09-.18-.47.1-.66.54-.38,3.83-1.58,3.82-1.93l-1.85-1.02c-.66.13-3.26,1.76-3.71,1.3.02-.23-.1-.41.12-.59.31-.24,2.75-1.08,2.76-1.23-2.26-1.6-5.09-3.67-4.12-6.8,1.04-3.33,4.81-5.16,7.95-6.05.54-.15,3.31-.45,3.4-.95-.25-1.53-1.09-2.93-.91-4.52-1.37-.2-2.78.11-4.09.12-.65,0-1.42-.13-2.15-.13-.4,0-.82.23-1.14.2-.81-.07-1.03-1.1-.67-1.73l7.58-.38c.14-3.51-1.52-8.45,1.23-11.23,4.85-4.9,20.9-4.1,27.25-2.88,3.35.64,8.3,2.07,8.24,6.24,4.05-1.82,8.68-.13,10.64,3.84.55,1.1,1.14,3.3,1.22,4.53.05.74-.02,1.27-.16,1.98l1.12.23.02.55h.19c-.06-.51.26-.4.66-.38,1.85.09,4.11.75,5.71,1.01.53.09,1.08.15,1.6.28.21-.04.25-.25.28-.43.19-1.25-.28-3.52,0-4.57.05-.2.45-.06.39-.22-.76-1.68-.34-4.24-.27-6.14.02-.58-.48-1.36.28-1.53l-.39-.22v-2.75s-4.88,5.19-4.88,5.19l-.87.09c.77-.83,1.45-1.76,2.2-2.59.69-.77,1.37-1.45,2.01-2.2.43-.5,1.17-1.01,1.42-1.64.3-.74-.19-3.09.12-4.02-.19-.22-1.17.87-1.35,1.05-1.9,1.91-3.61,4.26-5.61,6.09-.18.23-.51-.01-.51-.14-.01-.56,6.25-6.96,7.1-7.86.09-.14.38-.87.38-.96v-3.55c-.45-.12-.32.12-.44.25-2.45,2.77-5.76,6.59-8.37,9.06-.27.26-.99,1.07-1.35.76.57-1.12,1.56-2.21,2.4-3.16,2.46-2.82,5.16-5.47,7.77-8.15v-4.12c-1.96,1.65-3.52,3.71-5.27,5.56-.38.4-.88.7-1.18,1.02-1.5,1.58-4.48,5.4-6.1,6.46-.18.12-.78.45-.68-.11.11-.66,2.04-2.24,2.61-2.85,3.52-3.8,7.09-7.55,10.62-11.34v-4.03c0-.08.49-.34-.09-.29l-15.86,17.02c-1.15.27-.19-.9.13-1.3,3.92-4.83,9.21-9.78,13.42-14.38.76-.83,1.55-1.65,2.4-2.39v-4.12l-20.13,20.9c.02-.83.89-1.67,1.43-2.3,5.5-6.34,11.79-12.32,17.45-18.6.27-.3,1.17-.93,1.21-1,.41-.71-.26-5.81.23-7.05-.98-.33-4.4-.47-4.4-1.82.57-2.31,2.79-.02,4.2-.48v-8.43s-3.64-.77-3.64-.77c-.95,4.1-3.19,8.04-6.54,10.63-13.5,10.42-32.57,2.85-34.79-14.16-.14-1.08-.33-2.32.29-3.27l-.4-.2c.47-2.8.86-5.49,2.08-8.08.79-1.68,3.81-6.26,5.3-7.18.32-.2.57.08.68.02.03-.01-.21-.26.07-.58.26-.3,1.49-1.11,1.91-1.38,3.35-2.12,7.03-3.1,10.96-3.43l.1.59.19-.58c1.12.32,2.36.25,3.5.43,5.53.89,11.46,4.79,14.3,9.47,1.15,1.89,2.04,4.02,2.56,6.18l3.42.8v-20.52s-5.47,5.37-5.47,5.37c-.46.2-.32-.68-.1-.87l5.36-5.57.21-3.91-8.15,8.24c-.11-.03-.25-.48-.25-.52.03-.76,7.34-7.74,8.3-8.88l.1-3.83c-.15-.18-1.58,1.14-1.81,1.35-3.1,2.85-6.44,7.71-9.69,10.06-.46.33-.03-1.18.28-1.25l11.05-11.4.17-1.44h-2.37s-.13-.38-.13-.38c-.25-.05-.24.33-.47.58-1.24,1.39-2.63,2.78-3.93,4.12-2.67,2.75-5.36,5.55-8.16,8.14l.05-.71,11.16-11.85-3.82.2c-3.94,3.71-7.63,7.71-11.31,11.7l-.78.28c-.16-.15.53-.97.67-1.15,2.73-3.49,6.94-6.76,9.44-9.83.37-.46.09-1.06,1.2-.71.06-.06-.25-.38-.29-.38h-3.45c-.06,0-.22-.25-.39-.02l-11.69,11.92-.48-.3,11.12-11.51c-1.01-.17-3.38-.32-4.21.2-3.48,3.55-6.89,7.2-10.37,10.73-.49.5-1.01,1.29-1.51,1.74-.3.26-.72.16-.87.66-.65-.04.84-1.79.96-1.92,2.35-2.79,5.2-5.29,7.7-7.93,1.07-1.13,2.13-2.29,3.13-3.48-1.06-.29-2.49-.08-3.64,0l-15.44,15.81-.19-.57,14.67-15.34h-3.74c-7.59,7.44-14.73,15.29-22.14,22.93-2.82,2.91-5.94,6.42-8.96,8.97-.27.23-.45.83-1.02.89.09-1.19,1.37-1.84,2.09-2.65,9.14-10.16,19.4-19.46,28.41-29.62.1-.11.22-.15.36-.15l-.09-.38c-1.18.19-2.75-.43-3.75.28-7.15,6.79-13.66,14.22-20.51,21.3-1.79,1.85-4.11,4.46-6.04,6.04-.22.18-.31.47-.67.38-.03-1.08,1.1-1.58,1.66-2.18,7.61-8.21,15.38-16.17,23.2-24.16.52-.53.98-1.28,1.6-1.76-.14-.31-.45.1-.48.1h-3.26c-.18,0-.53.14-.67.27-.76.91-1.66,1.67-2.5,2.5-5.65,5.66-10.9,11.72-16.48,17.46-.28.29-3.49,3.55-3.65,3.35.1-1.26,1.54-1.98,2.23-2.75,3.66-4.08,7.41-8.04,11.11-11.9,2.84-2.95,5.58-5.99,8.51-8.84-1.15-.02-2.96-.38-4.03,0-.68.24-1.98,2.16-2.58,2.79-3.21,3.38-6.55,6.63-9.78,9.98-1.99,2.06-3.69,4.57-6.13,6.13-.28-.17.09-.59.21-.75.36-.51,1.23-1.42,1.71-1.94,5.05-5.54,10.45-10.78,15.63-16.2.05-.59-.21-.09-.29-.09h-3.55s-.06.36-.28.58c-2.6,2.67-5.31,5.26-7.9,7.92-.81.83-6.2,6.85-6.68,6.83-.29,0-.22-.28-.13-.5.46-1.13,2.54-2.67,3.42-3.59,2.88-3.02,5.7-6.11,8.62-9.12.61-.63,1.71-1.31,1.99-2.13h-4.12c-.65.52-1.06,1.24-1.62,1.83-2.49,2.57-5.02,5.06-7.49,7.66-.88.92-1.63,2.24-2.77,2.79-.29-.81.71-1.41,1.05-1.82,3.06-3.68,6.69-6.81,9.78-10.45h-3.55c-2.27,2.27-4.54,4.54-6.81,6.8-.81.81-1.88,2.53-3.06,2.5.69-1.35,2.05-2.21,3-3.23l5.63-6.07-3.91-.16-.59.74-.28-.38c.03.34-.01.58-.18.87-.52.91-5.51,5.6-6.62,6.61-.25.23-1.63,1.48-1.73,1.53-.34.14-.35-.21-.26-.45l8.41-8.75h-3.74c-1.82,1.83-3.64,3.65-5.47,5.46-1.66,1.64-3.33,3.74-5.17,5.19-.25.2-.52.47-.86.48-.24-.11-.12-.4.03-.58,1.35-1.59,3.14-2.98,4.59-4.47,1.92-1.96,3.85-4,5.63-6.07h-3.74c-.35,0-4.13,4.5-4.89,4.88l-6.22,6.05-.29-.29c3.14-3.72,7.09-6.85,10.17-10.64h-4.03s-.06.36-.28.58c-1.71,1.76-3.6,3.32-5.09,5.27l-7.39,7.37-.21-.59,12-12.54-1.44-.18-2.39.18-8.05,8.21c-1.11.54-2.18,2.39-3.14,3.14-.15.12-.5.12-.7.25l.47-1.15c2.86-2.82,5.69-5.69,8.55-8.52.34-.34.31-.82.95-.68l-.14-.34.91-1h-3.74c-.73,0-.36.34-.75.78-1.72,1.94-3.99,4.18-5.85,6.03-.58.58-4.11,4.05-4.51,4.12-.28.05-.34,0-.29-.29.14-.76,5.52-5.54,6.46-6.49,1.33-1.34,2.5-2.88,3.9-4.15h-21.53s-6.75,6.9-6.75,6.9l-.48-.48,6.14-6.43h-3.93l-5.09,5.47-4.31,4.12c-.77.2.37-1.29.49-1.44.92-1.15,7.6-7.46,7.68-8.05.05-.39.07-.58-.4-.49l.19.38ZM14.73,15.5v4.99l4.6-4.89c0-.27-4.29-.04-4.6-.1ZM24.42,15.5c-1.14.05-2.31,0-3.45,0-.07,0-.3-.29-.45-.18-.23.51-.61,1.01-.98,1.43-1.14,1.26-2.68,2.76-3.93,3.94-.19.18-.53.12-.64.21-.02.02.07.22.02.35-.05.15-.25.26-.25.29v3.74c.29-.1.54-.28.77-.47,3.19-2.59,6.02-6.52,9.2-9.21.05-.59-.2-.1-.29-.09ZM29.69,15.5h-3.93l-11.03,11.22v3.74l14.96-14.96ZM34.87,15.5h-3.93c-.29,0-1.88,1.91-2.2,2.22-3.32,3.3-6.57,6.57-9.78,9.97-.56.59-4.22,3.92-4.22,4.21v4.12l20.13-20.52ZM83.66,36.29c1.09-.82,2.2-1.03,1.64-2.58l-2.3,2.78c-.05.68.59-.16.66-.21ZM36.73,34.53c-1.34-.8-1.27,1.62-1.67,2.44l1.83-1.73-.15-.71ZM128.64,36.59l.87-.18,2-2.12c-.85.16-1.11.87-1.63,1.33-.38.34-.98.56-1.25.97ZM135.73,34.86l-.09-.38c-.32.17-2.72,1.93-2.4,2.3l2.02-1.73c.15-.14.45-.17.47-.19ZM125.95,35.44l-.52.08c-2.48,2.64-5.48,4.76-8.14,7.21-.72.66-1.65,1.48-2.26,2.2-.18.22-.46.31-.38.67,2.75-2.32,5.46-4.71,8.15-7.11.14-.13.39,0,.44-.05l2.72-3.01ZM38.7,37.73c-.57-.84-.67-1.98-1.82-1.14-.24.18-2.04,1.96-2.11,2.11-.29.64.07,1.74-.29,2.49.33.09.38-.14.58-.29,1.19-.92,2.34-2.42,3.64-3.17ZM85.49,36.4l-3.53,2.32c-.88,1.02-1.66,2.11-2.03,3.43l5.66-3.84-.1-1.92ZM142.06,37.17c-.55-.34-2.35,1.49-2.11,1.72.91-.02,1.19-1.13,2.07-1.18l.03-.54ZM143.98,45.6c.13-.12-1.18-1.81-1.35-2.01-4.64-5.39-14.1-6.78-19.56-2.31-6.79,5.56-8.37,15.14-2.4,21.96,5.37,6.13,15.55,6.8,21.26.74.35-.37,1.4-1.99,1.51-2.05.46-.26.82.43.77-.85l1.68-3.6c-1.7-.25-3.61-.98-5.3-1.13-2.77-.24-8.13,1.68-10.35,3.32-.4.3-1.15,1.44-1.59,1.56-1.46.4-2.24-.66-1.36-1.93,1.6-2.29,8.03-4.83,10.83-5.09.79-.07,1.67.06,2.47,0l.31.39c0-.1-.03-.29.03-.34.13-.1,2.89.35,3.24.43.79.18,1.5.55,2.29.67-.34-1.6.08-5.54-1.14-6.77-.83-.84-3.27-.29-3.66-1.48h-.19c.14.64-1.44.18-2,.19-2.92.02-5.54.79-8.16,2.03-.18.08-.47-.1-.54-.06-.31.19-1.09.84-1.59,1.18-1.38.93-2.73,2.91-3.63.23.12-1.36,5.85-4.09,7.17-4.55,3.73-1.31,7.39-1.24,11.25-.54ZM34.48,42.44v2.78l5.77-4.72c.05-.32-.92-1.82-1.23-1.78l-4.54,3.72ZM144.74,39.46l-.44-.35c-.74.5-1.72,1.12-1.85,2.08.83-.61,1.42-1.29,2.3-1.73ZM85.87,39.47l-7.24,4.82c.05.76-.15,1.21.63,1.68l6.58-4.62.03-1.89ZM34.67,49.25c.09-.5.59-.92.96-1.25,1.79-1.59,3.7-3.08,5.47-4.7.36-.58-.36-1.35-.49-1.92-1,.67-1.96,1.42-2.88,2.2-.84.71-3.15,2.64-3.32,3.58-.04.2-.19,2.4.26,2.08ZM146.66,41.39c-.14-.13-1.49,1.02-1.61,1.17-.53.62-.34,1.12.33.51.15-.14,1.36-1.6,1.29-1.68ZM86.07,42.35l-3,1.79-2.94,2.33,1.91,1.25c.34-1.3,3.33-2.37,3.85-3.2.47-.77.07-1.4.18-2.17ZM37.68,50.33c.41-.39.83-1.02,1.31-1.47,1.1-1.06,2.4-1.97,3.46-3.07l-.77-1.91-7.09,6.52c-.2.25-.11,2.7.19,2.68.97-.91,1.94-1.83,2.91-2.75ZM148.2,44.07c-.22-.23-1.99,1.35-1.72,1.92.29-.24,2.07-1.55,1.72-1.92ZM86.07,45.6l-3.64,2.59,1.52,1.16c.23.02,1.94-1.26,2.03-1.45.28-.56,0-1.66.09-2.3ZM43.65,49.02l-.64-2.46c-1.3.89-2.48,1.99-3.61,3.09s-3.45,3.28-4.26,4.38c-.22.3-.34.62-.47.97l8.98-5.98ZM113.1,50.4c.12.12,1.48-1.01,1.63-1.15.45-.44,1.2-1.1,1.05-1.72-.7.36-1.1,1.16-1.59,1.67-.27.29-1.01.29-1.09,1.2ZM86.45,49.25c-.39-.18-1.9.85-1.9,1.05l1.23,1.63c.51-.62.17-1.87.28-2.37.05-.24.47,0,.39-.31ZM148.39,51.74c.09.1,2.16-1.27,2.11-1.63-.36-.46-.27-.22-.57,0-.23.17-1.81,1.33-1.54,1.63ZM162.96,50.21l-5.36.77.18,7.4,3.07-.09.2.36c-.06-.64,1.47-.38,2.11-.48.9-.15,4.38-.79,4.79-1.36v-1.4c-.73-.01-2.41-.97-2.88-1.46-.17-.18,0-.4-.03-.44-.11-.12-.48-.09-.68-.27-.24-.23-.92-1.59-1.07-1.91s-.24-.75-.33-1.1ZM155.48,50.98l-2.87-.58c.14,2.34.21,4.67-.2,6.98l3.07.88v-7.28ZM75.33,51.36c-.21-.2-.89.59-1.06.76s-1.37,1.6-1.24,1.73c.31-.02,2.42-2.37,2.3-2.49ZM112.15,55.19c.81-.12,2.13-1.22,2.69-1.81.26-.28.45-.44.37-.87l-3.07,2.68ZM150.5,54.04c-.37-.08-.52.08-.78.28-.28.21-1.77,1.51-1.52,1.83.9-.53,1.66-1.29,2.3-2.11ZM41.64,57.37c.58-.52,1.39-1.21,1.66-1.99-.22.08-2.42,2.37-2.3,2.49.45.11.43-.32.64-.5ZM113.49,58.45c.1.11,1.99-1.02,1.92-1.43-.07-.35-.24-.23-.47-.1-.27.16-1.78,1.15-1.44,1.53ZM149.92,59.03c-.99.22-2.16,1.25-2.91,1.93-.12.11-.74.57-.54.75l2.73-1.92.72-.76ZM165.72,67.15c.43-.31,2.09-1.04,2.2-1.35l.03-6.78c-3.18,1.39-6.93,1.9-10.35,1.34v8.82c1.77-.12,4.52.43,6.18-.24.57-.23,1.38-1.38,1.94-1.79ZM114.64,61.9c.1.13,2.49-1.22,1.44-1.91-.22.32-1.73,1.54-1.44,1.91ZM37.55,62.1c-.19-.22-.51.16-.5.36l-1.61,2.13.77-.53c.09-.37,1.53-1.75,1.34-1.96ZM118.09,62.86c-.24-.2-2.38,1.45-2.11,1.72.4.05,2.32-1.55,2.11-1.72ZM85.82,65.03c-1.03-.75-3.18-1.12-4.44-1.01-5.63.47-9.91,9.64-5.27,13.5.73.61,1.96.89,2.3,1.64l.3-.39c6.51,2.21,11.99-7.47,8.22-12.44-.13-.17-1.03-1.24-1.1-1.29ZM57.8,76.59c1.06-1.72.86-3.25.32-5.06-1.54-5.21-6.1-8.81-11.5-6.44-.1.04-.33-.12-.4-.07-.07.04-.1.31-.24.4-2.36,1.47-3.58,4.07-3.44,6.84l-.38.19.55.02c.04,1.29.66,2.47,1.4,3.5,1.95,2.7,4.78,3.87,8.13,3.95.11,0,.07-.3.17-.32,2.14-.41,4.15-.97,5.39-3ZM147.24,64.97c-.37-.08-.52.08-.78.28-1.36,1.01-2.77,2.58-4.08,3.68-.17.14-.55.08-.7.35.28.45.56.12.86-.1,1.6-1.18,3.15-2.93,4.7-4.22ZM120.01,65.36l-1.52,1.1-.78.82c.62.4,2.49-1.7,2.3-1.91ZM139.76,68.62c-.35-.04-.57,0-.87.18-.23.14-2.62,2.39-2.87,2.69-.1.13-.53.72-.47.77,1.03.12,1.16-.86,1.6-1.28.84-.8,1.86-1.46,2.62-2.36ZM125.95,69c-.55-.21-2.76,1.84-2.49,2.11l.67-.39,1.82-1.72ZM129.17,70.5l.04-.54-.67.38-1.24,1.54,1.87-1.38ZM132.21,71.99c.54-.4,1.57-1.4,1.79-2.04-.13-.14-2.85,2.12-2.98,2.29-.1.13-.2.34,0,.39.41-.22.8-.37,1.18-.65ZM70.42,81.35c.57-.67,2.13-1.61,1.16-2.76-.79-.93-4.95-.67-6.08-.15-3.28,1.54,1.96,3.08,1.88,4.65-.01.2-.24.41-.26.61-.02.29.11.57.06.83-.36,1.89-2.97,3.32-4.41,4.41-.77,2.12,1.9.69,2.76.07.61-.44,1.1-1.53,1.93-1.23-.32-.69.25-.88.67-1.34.15.72,3.73,4.36,4.23,3.47s-1.58-2.42-2.08-3.13c-1.52-2.15-1.56-3.45.14-5.44ZM66.04,104.01l1.43-2.03c-.24-.25-2.04,2.16-2.11,2.49l.68-.46ZM130.87,106.84c-5.35-3.4-20.26-3.19-26.25-1.55-1.64.45-5.44,1.94-5.32,4.08.03.54,1.69,1.78,2.2,1.8.72.03.86-.73,1.19-.95,5.2-3.54,16.43-3.32,22.35-1.87,2.12.52,3.64,1.44,5.12,3.02.18-.61,1.16-.67,1.65-1.33.75-1.01,0-2.6-.94-3.2ZM113.9,110.19l-.22-.35c-.04.05.06.3-.09.35-1.06.36-2.78.26-3.98.67-.45.16-1.24.58-1.66.83-.22.13-.73.4-.79.64,1.33.25,2.37-.47,3.56-.75.72-.17,1.52-.19,2.15-.35,1.04-.25,2.03-.83,3.11-.82-.27-.86-1.88-.04-2.08-.22ZM123.65,110.04c-1.03.03-2.45-.22-3.07.76,1.02.07,2.27-.03,3.07-.76ZM142.19,112.78c-1.4-1.53-3.99-2.6-6.03-1.85-2.37.88-2,1.47-1.96,3.89,1.11-.29,2.14-1.17,3.34-1.16,1.94.03,3.59,1.25,3.89,3.22.61,3.95-2.72,7.27-6.32,8.16-.86.21-1.75.11-2.36.22-.29.05-.59.5-1.06.4l-1.33,2.77c3.71-.91,9.02-1.71,11.59-4.81,1.85-2.24,2.8-5.35,1.99-8.14-.03-.12-.27-.06-.34-.23-.08-.21.08-.54-.05-.78-.05-.1-1.2-1.52-1.36-1.7ZM99.68,111.76c-.81-.58-.54,2.92-.5,3.38.84,10.8,5.65,19.19,17.66,18.64,5.77-.26,10.59-2.88,13.03-8.24,1.82-4,2.79-8.86,2.42-13.21-2.13.99-4.52,1.64-6.84,2.08-7.33,1.4-17.07,1.51-24.06-1.37-.58-.24-1.57-.64-1.7-1.28ZM134.01,118.66c1.18.04,2.37-.04,3.56,0s2.48.89,2.19-1.03c-.55-3.63-5.55-1.54-5.74,1.04ZM132.66,123.65c1.04.34,6.1-1.95,5.94-2.78-.23-.3-.71-.26-1.05-.28-1.37-.08-2.75-.04-4.11-.18l-.79,3.23ZM76.86,123.46c-.88-.55-1.79.95-2.05,1.69-.29.8-.28,1.56-.25,2.41l-.39.31c.75.14.45,1.15,1.53.96-.27-2.14-.07-3.56,1.15-5.37ZM61.84,125.63c-.38-.35-.92-.44-1.38-.61-.84.61.56,1.36.86,1.84.68,1.06,1.15,2.42,1.16,3.69l1.72-.77c-.91.18-.82-1.31-1.11-2.05-.18-.44-.94-1.81-1.25-2.1ZM79.72,129.38c.17-1.56.56-2.94,1.16-4.39-1.83.47-2.17,2.83-1.89,4.39h.73ZM102.45,130.28c-1.14-1.45-2.02-3.08-2.89-4.7-3.13.52-7.31,1.43-9.47,3.91-1.1,1.26-1.3,2.76-.35,4.2s4.69,3.07,6.31,3.66c6.88,2.53,14.61,3.29,21.92,3.17l.22.39c.15.03,0-.37.45-.47,1.14-.25,2.94-.1,4.21-.24,4.73-.51,9.76-1.38,14.13-3.32,2.23-.99,6.34-3.12,5.29-6.12l.37-.11c-1.08-1.04-2.3-1.97-3.79-2.36l-5.58,1.47-.21-.35c0,.11-.04.31-.11.37-.45.35-3.25.82-4.03.9-.27.03-.64-.15-.66-.12-.03.05.06.36-.05.52-.17.24-1.09.69-1.29,1.12,2.05.16,4.07-.89,6.13-.86-.1.78-1.72,1.02-2.38,1.18-1.54.36-3.92.46-5.33.95-.15.05-.57.53-1.08.68-3.69,1.14-7.46,2.02-11.25,2.76-.39-.03-.69-.41-.28-.67l2.1-.67c-2.68-.45-5.21.67-7.86.57-.03-1.12,2.45-.71,2.68-.96.27-.3-.08-.33-.25-.42-2.47-1.43-4.16.77-6.66.23-.37-.47,3.34-1.07,3.64-1.24-.43-.31-1.54-1.15-2.01-1.17-.57-.02-2.13.89-2.59.6-.95-.6,1.68-1.31,2.11-1.06.23-.2-1.26-1.56-1.45-1.81ZM59.41,132.66c.26-2.23-.99-4.23-2.97-5.18-1.03.2,1.07,2.45,1.28,2.94.27.64.34,1.55.44,2.24h1.25ZM19.33,157.4l-.04-5.41c0-.27-.78-1.61-1.11-1.3.75.63.09,1.21.1,1.62s.25.78.26,1.19c.03,1.25-.23,1.75.2,2.9.14.38-.02,1.15.59,1ZM21.83,158.93l-.23-5.24-1.5-1.28.22,6.4.28.28,1.23-.16ZM24.51,159.12v-3.36c0-.26-1.48-1.14-1.82-1.24-.32.19-.18.3-.19.5-.08,1.37.1,2.71.1,4.09h1.92ZM25.28,155.86v3.26h2.49c.47-2.39-.9-2.25-2.49-3.26ZM31.22,158.74l-2.68-1.34.18,1.65c.08.06,1.66-.01,1.95-.03.19-.01.61,0,.55-.27Z"/>
      </g>
      <path d="M55.43,71.07s.31-.05.36.31c.13,1.03.03,3.12-.36,4.08-.77,1.84-3.42,2.65-4.81,1.1-.52-.58-.2-.93-.25-1.01-.05-.07-.36-.08-.49-.35-.25-.52-.7-2.91.34-2.56l-.09-.38-.48.19c-.11-1.81.71-3.56,2.54-4.09,1.23-.35,3.1.73,3.37,1.93.08.35-.16.67-.12.78Z"/>
      <path d="M81.79,68.67c1.28,1.42,1.31,6.68-.33,7.91-.33.24-.57.09-.71.16-.29.14-.13.61-1.24.47-.76-.1-.92-.55-1.15-.66-.12-.06-.37.08-.71-.16-1.71-1.18-1.43-5.75-.21-7.29,1.05-1.32,3.13-1.78,4.35-.42Z"/>
    </g>
  </g>
</svg>