<?xml version="1.0" encoding="UTF-8"?>
<svg id="Layer_2" data-name="Layer 2" xmlns="http://www.w3.org/2000/svg" viewBox="0 0 178.1 175.26">
  <g id="Layer_1-2" data-name="Layer 1">
    <g>
      <path d="M148.56,58.4c.08.36-.21.46-.39.68-1.74,2.12-3.79,3.95-5.73,5.86-.78.77-1.04.25-.45-.46,1.64-1.96,4.02-3.7,5.58-5.81l.98-.27Z"/>
      <path d="M44.83,40.83l-1.63,2.13c-1.26.65-2.14,2.42-3.19,3.19-.82.61-.98.33-.5-.5.31-.54,3.81-4.19,4.34-4.54.35-.23.52-.36.98-.28Z"/>
      <path d="M35.55,49.71c.09.07.12.46.02.67s-2.13,2.4-2.33,2.52c-.51.31-.27-.32-.78-.3.74-.89,1.6-1.68,2.41-2.5.14-.14.48-.56.68-.39Z"/>
      <path d="M47.34,38.51c-.07-.06.16-.46-.19-.39.33.57-1.82,3.19-2.13,2.02-.06-.71.87-.91,1.28-1.32.5-.5.45-1.06,1.29-1.32,1.07-.33-.1,1.13-.25,1Z"/>
      <g>
        <path d="M153.39,140.11c-.05.29-.62.47-.87.58-2.06.92-5.13,1.83-7.34,2.51-.44.14-1.47.62-1.26,0h-.19c-.03.91-1.02.53-1.26.62-3.95,1.5-7.75,2.89-11.88,4.34-.73.26-6.2,2.57-6.57,2.18-.11-.12,0-.5.2-.67.09-.07,1.77-.73,2.06-.84,7.49-2.76,15.88-5.76,23.28-7.82,1.25-.35,2.4-.98,3.82-.91Z"/>
        <path d="M60.67,131.8l-24.92,6.18c.36-.43,1.26-.63,1.8-.8,2.48-.78,5.14-1.26,7.57-2.09.22.11-.06.47.28.38l.33-.54,5.96-1.58-.1.48c.54.42.26-.34.49-.51,1.79-.48,3.38-.96,5.2-1.24.3-.05.74-.71.68.1h.19c.03-.62,2.2-1.09,2.51-.39Z"/>
        <path d="M97.71,138.26c3.68.97,8.68,2.86,12.01,5.25.32.23,1.04.9.59,1.24-.39.29-2.58-1.45-3.15-1.77-2.24-1.27-5.19-2.13-7.13-3.26-.25-.14-.15-.81-.43,0-1.36-.55-2.91-.97-4.34-1.26-.74-.15-2.22-.1-2.78-.31-.24-.09-.31-.32-.32-.55-.35.01-.02.6-.67.38-.54-.18-.03-.72.34-.72,1.77-.03,4.16.54,5.89,1Z"/>
        <path d="M100.8,143.1c1.45.59,4.85,2.27,6.15,3.28.53.41.51.4.27,1.07-2.61-1.45-5.31-3.08-8.11-4.15-4.01-1.53-7.43-1.72-11.55-2.37-.21-.03-.81.05-.62-.33.16-.33.56-.28.86-.3,3.22-.28,9.96,1.56,13,2.8Z"/>
        <path d="M143.94,151.3c-.09-.07.13-.44-.21-.37v.58s-.39-.38-.39-.38c.16.88-.4.51-.87.68-2.05.77-4.05,1.52-6.27,2.32-1.95.7-4.26,1.77-6.34,2.35-.5.14-1.2.5-1.58-.04.02-.46,4.34-1.69,5.01-1.94,1.01-.38,2.1-1.1,3.1-1.37,2.77-.76,6.02-2.22,8.95-3.19.37-.12,2.14-.65,1.58.23-.08.14-2.86,1.23-2.99,1.13Z"/>
        <path d="M91.96,132.19c.56.6-1.87,1.71-2.17,1.93-1.97,1.48-3.95,3.14-6.08,4.43-.38.23-.66-.15-.92.6l-.29-.38c.07.9-.97.96-1.45,1.54-.19-.54.07-.68-.67-.58l.38.19-.29.77-.29-.38c.11.84-1.37,1.05-1.84,1.75-1.69.4.67-1.73.87-1.56l.19.39c-.08-.46.61-1.14.97-1.41,2.68-2.06,7.35-5.4,10.37-6.86.2-.09,1.12-.53,1.22-.42Z"/>
        <path d="M41.93,148.03l-.73.56c-6.16,2.29-12.54,5.2-18.99,7.08-.51.15-1.07.96-1.71.18.39-.71,1.37-.55,1.83-.72,3.96-1.53,8.05-3.01,12.03-4.46,1.82-.66,4.03-1.97,6.2-2.52.42-.11.93-.1,1.37-.11Z"/>
        <path d="M148.94,138.18l-2.32,1.06c-3.94,1.27-8.07,2.77-11.82,4.02-.63.21-4.66,1.63-4.98,1.3-.02-.02-.02-.56,0-.58.03-.03.53,0,.77-.09,2.02-.8,4.58-1.63,6.08-2.18.28-.1,1.57-.48,1.72-.45.15.04.13.27.12.4h.19c-.2-.71,1.15-1.05,1.74-1.25,2.25-.76,4.76-1.35,7.05-1.88.12-.03.07-.32.22-.35.26-.05.85.19,1.22,0Z"/>
        <path d="M79.39,136.66c.06.09-.13.66-.27.75-3.66-2.14-8.26-3.11-12.46-3.28.03-.19-.05-.72,0-.77.17-.18,3.01.16,3.52.25,1.46.25,3.8.78,5.2,1.22.54.17,3.83,1.57,4.02,1.84Z"/>
        <path d="M144.5,137.02l-8.48,2.59c-.59-.23-1.53.65-1.7-.17-.12-.56,1.27-.73,1.11-.1h.19c-.1-1.03,1.04-.79,1.78-1.02,1.31-.4,2.65-.77,3.92-1.29l.19.58c.17-.95.11-.42.59-.41.12,0,.05-.3.21-.35.07-.02.26.09.45.04.51-.12,1.32-.68,1.75.13Z"/>
        <path d="M44.63,150.35s.16.52.11.59l-.24.15-14.93,5.64-.2-.77,15.26-5.6Z"/>
        <path d="M113.59,142.24c-.35.08-.53-.11-.8-.26-2.02-1.11-3.97-2.5-6.15-3.31-.22-.08-3.07-.51-2.32-1.25.41-.4,5.21,1.86,5.96,2.24.44.22,3.97,1.92,3.31,2.58Z"/>
        <path d="M67.43,152.86c.13.75-.38.13-.55.24-.59.39-1.92,1-2.78,1.37-.96.41-7.07,2.99-7.49,2.64-.08-.38.18-.46.44-.62,1-.6,2.7-.77,3.73-1.49.31-.1.29.09.27.37h.19c-.19-.63.63-.82,1.18-1.05.49-.21,1.36-.49,1.87-.66,1.01-.36,2.02-.89,3.13-.79Z"/>
        <path d="M74.57,154.02c-.31.31-1.26.2-1.32.24-.07.04-.14.39-.47.58-.93.54-2.41.59-3.34,1.3l-.29-.38c-.63,1.07-3,1.51-4.25,1.54,1.14-.97,2.85-1.47,4.27-2.02.25-.1.58-.24.7-.28.55-.2,3.8-1.38,4.01-1.38.29,0,.6.07.67.4Z"/>
        <path d="M110.89,136.25l-.09.39c.2-.08.4-.14.62-.05.68.27,4.86,2.6,5.21,3.01.17.2.29.44.26.71-.42.39-3.15-1.7-3.76-1.94-.58-.33-2.92-1.21-3.19-1.54-.33-.39.68-.63.97-.57Z"/>
        <path d="M51.78,136.44c0,.89-.9.59-1.24.69-1.8.52-3.71.98-5.32,1.33-.29.06-1.95.62-1.93,0,.02-.55,1.61-.47,1.83-.52.31-.07.97-.27,1.48-.4,1.7-.43,3.38-1.22,5.17-1.1Z"/>
        <path d="M81.72,154.21c-.05.27-.32.4-.53.53-1.17.69-5.38,2.35-6.7,2.58-.23.04-.55.26-.68-.12-.12-.35.29-.34.51-.44.89-.42,1.9-.58,2.68-1.19.22.11-.06.47.29.38,0-.97,1.64-.7,1.9-.82.04-.02.06-.3.17-.33.8-.27,1.49-.72,2.38-.58Z"/>
        <path d="M114.77,134.34c1.66-.69,3.35-1.5,4.81-2.54-.04.26.17.55.09.78-.3.86-3.75,2.04-4.63,2.5l-.27-.74Z"/>
        <path d="M119.39,138.57c-.67.08-.88-.66-1.32-.94-1.16-.74-2.7-1.38-3.97-1.94l-.11-.6c.37-.38,4.81,2.04,5.19,2.63.17.26.25.54.21.85Z"/>
        <path d="M67.38,136.51c.06.03.04.31.13.3,1.09-.07,2.31-.05,3.41.3.28.09.39.19.37.49h.19c-.15-.68.59-.25.58.19.32.11.1-.42.28-.38.37.08,2.61.97,2.88,1.18.53.41.39,1.03-.2.78-1.59-.67-3.1-1.38-4.78-1.81-.63-.16-1.36.02-2.1-.36-.1-.05-.53-1.1-.43,0-.57-.17-2.22.12-2.22-.58-.32-.09-.08.32-.31.39-.37.11-2.66-.54-3.36-.2.13-.34.95-.57,1.26-.59.7-.05,1.51.31,2.08.34.59.04,1.53-.36,2.22-.07Z"/>
        <path d="M48.69,152.67c.09.27-.6.87-.73.96-1.19.71-5.97,2.46-7.46,2.92-.28.09-1.78.45-1.84.38-.04-.04-.07-.46.11-.6.24-.18,1.56-.5,2.01-.67,1.4-.53,3.37-1.38,4.8-1.94,1.01-.39,2.06-.93,3.11-1.04Z"/>
        <path d="M59.31,152.66c-1.33.55-2.89.98-4.18,1.52-1.89.78-3.72,1.75-5.67,2.44-.3.1-1.93.77-1.92.2s3.62-1.56,4.15-2.03c.2-.05-.05.49.28.38.2-.85,1.58-.87,2.23-1.35l.19.58c.41-.17.04-.71.09-.77.09-.09,2.12-.49,2.43-.76l.27.37c-.33-.7,1.82-1.34,2.13-.58Z"/>
        <path d="M138.51,135.86c-.59.74-1.86.65-2.61,1.16l-.1-.38h-.19c-.13.66-1.84.75-2.51.77-.07-.42.26-.54.58-.67.56-.23,2.61-.75,3.24-.83.51-.06,1.07.09,1.59-.04Z"/>
        <path d="M118.62,134.32c.71-.25.99.3,1.35.45.44.18,2.5,1.1,2.51,1.58.02.83-1.29-.27-1.41-.33-.21-.11-2.95-1.27-2.45-1.7Z"/>
        <path d="M87.13,155.57c-.54,1.06-1.79,1.05-2.75,1.37-.16.05-.14.32-.28.35-.3.08-1.15-.08-1.61.21-.1-.45.74-.63,1.06-.77,1.1-.5,2.39-.93,3.58-1.15Z"/>
        <path d="M52.55,151.32l-.74.75-2.54.8c.21-1.33,2.21-1.16,3.28-1.54Z"/>
      </g>
      <g>
        <path d="M13.2,3.51c.11.26,1.76,1.59,2.13,1.82.71.44,2.9,1.09,3.75,1.08.46-.01.68-.76.63.04.32.1.11-.24.23-.35.7.11,1.68-.32,2.27-.72.3-.21,1.69-1.59,1.87-1.87.25-.39.19-1.54.85-1.5v-.19c-.65.23-.29-1.04-.09-1.35.41-.63,3.65-.17,4.44-.41.49.06.2.88.6,0,1.33.45,4.58-.63,5.37.6.37.58.24,1.39.45,2.06.58,1.88,1.85,2.57,3.57,3.16.13.04.16.3.19.31,2.22.61,6.07-.75,7.08-2.95.55-1.18.07-2.6,1.52-3.12,2.91.21,6.14-.27,9-.02.6.05,1.04-.07,1.45.48.58.79-.22.62-.17.74.77,1.45.55,2.29,1.95,3.46,1.65,1.38,2.9,1.31,4.92,1.44.09,0,.07-.3.23-.35.89-.26,2.18-.58,2.89-1.23.05-.05.79-1,.82-1.06.34-.69.68-3.4,1.31-3.52l5.81.05.14.34.09-.39c1,.25,3.09-.2,3.93.23s.51.91.62,1.34c.75,2.87,2.9,4.79,5.99,4.62.41-.02,2.78-.66,2.95-.83.08-.08.01-.38.1-.46.47-.45.95-.55,1.42-1.2.84-1.18.43-3,1.48-3.55.36-.19,5.74-.17,6.61-.16.79.02,1.56,0,2.32,0,1.39.02,1.07,1.64,1.38,2.67.34,1.13,1.21,1.41,1.22,2.55l.29-.58c1.2.9,3.17,2.1,4.64,1.35.28.83.21.1.42,0,.61-.28,1.84-.37,2.43-.77.27-.18.62-1.02,1.01-1.17.52-.2.07.65.48.58l-.14-.77h-.24s0-.19,0-.19c.65-.03.08-.87,1.16-.58l-.58-.29c1.07-1.94-.3-2.69,2.41-2.78,2.12-.07,5.26-.15,7.32.01s1.13,1.46,1.82,3c1.73,3.83,7.06,3.97,9.69.93.4-.46.5-1.27.97-.86-.05-1.22-.28-2.86,1.27-3.05,1.73-.21,6.94-.1,8.54.31.33.08.66,0,.99.07.36,1.38.07,2.16.99,3.35,2.66,3.46,7.29,2.75,9.94-.3.32-.36.11-.93.87-.76.11-.32-.39-.1-.4-.3,0-.6.33-2.09.96-2.32,1.1-.39.98.31,1.07.3.19,0,0-.35.22-.4.53-.12,1.9.19,2.47.18,1.48-.01,7.21-.49,8.04.3.63.6.1,2.31.09,3.1-.02,3.7.42,7.55.18,11.21-.13,2.07-1.41,1.16-2.71,1.82-1.58.8-2.48,3.06-2.6,4.74-.19,2.63,2.03,6.33,5.04,5.61.35-.08.6-.36.89-.43.15-.04.43.14.44.12.04-.05-.07-.37.04-.53s2.51-1.61,2.99-2.22c.33-.43-.23-.42.89-1.12.25-.15.51-.83,1.25-.14.98.91.05,2.12-.66,2.82-.62.61-1.03.51-1.19.64-.08.06-.07.46-.22.65-.79,1-4.1,2.22-4.23,2.45-.07.12.1,2.25-.03,2.74-.04.16-.26.14-.39.13.11.34.3.06.44.61.13.48.04,1.79-.06,2.29.12.12.98-.5,1.22-.62.15-.07.36.02.47-.03.06-.03.25-.49.64-.6.27-.08.54.11.56.09.03-.03.12-.62.33-.91.33-.47,1.17-.66,1.23-1.4.38-.04.01.48.38.38.21-1.06,1.4-.56,1.37.47-.07,2.13-4.53,4.47-6.39,4.94.19.58.33,1.56.28,2.15-.04.5-.5,1.34-.49,1.6,0,.13.55.02.4.39-.35.38-1.26.85-1.16.1h-.19c.07.9-1,.73-1.73,1.27-.26.19-1.55,1.55-.69,1.43,1.99-.61,3.81-1.24,5.61-2.31.73-.44,2.21-2.26,2.89-.77.63,1.38-2.2,3.01-3.25,3.51-.57.27-1.31.69-1.87.35-.06.14.14.48-.12.59-.09.04-1.82.38-1.91.36-.18-.05.04-.45-.28-.36.26,1.16-2.33.49-2.51,1.45-.36,1.87.99,4.75,2.72,5.59,1.31.63,2.35-.23,2.5,1.55.16,1.88.02,4.28-.02,6.2,0,.34.18.61.19.78,0,.05-1.05.43.02.37-.49,1.05-.04,1.99-.04,2.89,0,.3-.17.62-.16.97s.21,1.29.15,1.51c-.23.76-2.09.57-2.98,1.05-3.14,1.71-3.26,8.1-.11,9.85.82.46,2.46.5,2.91,1.34.36.69.07,1.03.03,1.69-.09,1.36.09,3.3.09,5.04,0,2.35-.06,4.74-.11,7.1-.19.6-2.44.75-3,1.15-.46.33-1.63,2.12-1.84,2.7-.81,2.36-.08,6.08,2.31,7.24.89.43,2.59.38,2.69,1.71.02.25-.09,2.08-.13,2.29-.05.24-.4-.17-.58-.09.05.44.64.3.77.4.04.03-.16.64-.17.88-.02,1.38.13,2.56-.22,3.84-.04.14.38.06.37.17-.05,1.52-.55,2.63-.02,4.26.03.1-.09,1.78-.16,1.84-.73-.41-.55.18-.68.2-.43.07-.78-.45-.86-.39-.02.01.03.26-.06.32-.23.15-.63.09-.98.29-3.48,1.95-3.52,8.44.26,10.11.62.27,1.26.18,1.73.39.98.43.44,2.95.45,3.84.05,2.92.24,6.14.23,9.09,0,1.9-1.22,1.33-2.42,1.74-4.07,1.4-3.77,8.37-.25,10.5.39.24,1.32.62,1.65.74.13.05.36-.16.54-.05.06.04.56.9.58.98.03.13-.37.06-.37.17.02,2.83.19,5.66.18,8.52,0,1.42-.16,4.14.16,5.59.06.3-.24,2.97-.46,3.19-.38.39-3.27.52-3.68.35-.16-.07,0-.37-.18-.35-.2.84-1.7-.03-2.11,0-.11,0-.1.4-.22.41-.24.03-.53-.2-.77-.19-.72.03-2.25.34-2.85.18-.22-.06-.05-.87-.44,0-.67-.3-1.7.14-2.26-.04-.06-.02-.84-.81-.86-.87-.12-.33-.02-.78-.17-1.19-.84-2.27-2.57-4.09-5.16-4.07-.35,0-1.58.4-1.65.34-.07-.07.08-.31-.11-.37-.1-.03-.12.31-.33.45-1.4.97-1.38.59-2.5,2.13-.15.21-.48.28-.52.35-.1.17.1.49.05.76-.13.71-.38,2.3-1.14,2.48-.21.05.02-.37-.19-.39-.19-.02.08.36-.37.41-1.38.15-2.95-.26-4.36-.02l-.09-.39c-.17.02-.03.35-.22.4-.18.04-3.07.03-3.23,0-.22-.06-.04-.39-.22-.39.13.52-1.55.43-1.62.37-.08-.08-.92-2.31-.22-1.91v-.19c-.53.09-.33-.44-.5-.75-.92-1.69-2.5-3.06-4.52-3.12l-.09-.39c-.17.66-.63.18-1.26.29-.31.06-2.35.65-2.47.74-.17.13-1.52,1.82-1.66,2.08-.53.95-.23,1.51-.53,2.33-.02.05-.62.89-.68.91-.34.12-2.69.22-2.68-.37-.19,0,.08.35-.37.41-1.42.18-3.18-.25-4.66,0-.45-.06-.18-.4-.37-.41-.08.69-1.9.47-2.23.06-.57-.7-.35-2.2-.62-2.71-.21-.4-2.24-2.29-2.77-2.54-.76-.35-1.56-.26-2.11-.44-.17-.05,0-.36-.18-.35s-.03.27-.13.35c-.08.07-1.56.07-2.14.28-.91.33-2.28,1.43-2.7,2.33-.27.57-.19,1.53-.73,1.49-.09.31.28.13.32.23.34.7-.4.37-.52.74.98-.04-.16.83-.53.92-.79.2-2.36.26-2.75-.53l.09.58-5.61.02c-.59-.67-.6-.07-1.35-.05-1.09.03-1.16-2.39-1.56-3.24-.21-.44-2.07-2.41-2.44-2.58-.39-.19-1.1-.19-1.57-.27s-.64.36-.8-.26c-.15.63-.33.18-.77.29-1.86.46-3.61,1.37-4.41,3.23-.46,1.07.08,2.39-.99,2.87-2.47.07-5.21-.24-7.63-.13-.87.04-.37.24-1.06-.03s-.72.34-.77.34c-1.41-.08-1.19-1.99-1.56-2.89-1.4-3.44-5.07-4.14-8.16-2.57-.39.2-.03.62-.82.25.33.64-.39.59-.59.9-.18.29-.49,1.92-.57,1.99-.03.03-.55-.27-.77-.19l.77.39c-.23.8-.19,1.84-1.27,1.94-.45.04-.18-.4-.38-.4s-.01.28-.18.35c-.6.25-2.11-.22-2.81.04l.29-.58-.59.59-6.18-.09c-1.17-1.4-.6-2.66-1.92-4.17-1.4-1.61-3.3-2.12-5.36-1.69-1.33.28-2.49.87-3.2,2.01-.18.29-.56.98-.65,1.28-.4,1.3.17,2.99-2.08,2.63l-.11-.57c-.23,0,.05.55-.2.59-.32.06-2.98.06-3.25,0-.22-.06-.04-.4-.22-.39-.17.74-.98.28-1.55.28-.97,0-3.44.41-3.93-.41-.91-1.54-.14-2.6-2.06-4.32-2.54-2.28-7.85-1.3-8.71,2.31-.18.75.1,1.95-.72,2.39-.11.06-2.4.18-2.52.15-.23-.05-.03-.4-.22-.4s0,.34-.22.39c-.25.06-2.62.02-2.74-.05-.1-.06.05-.34-.13-.34s-.03.28-.13.34c-.27.17-6.09.14-6.35-.04-.07-.05-.69-1.36-.72-1.52-.12-.61.62-1.7-.04-2.36.87-.29.02-.24.02-.36,0-.26.32-.63,0-1.06.84-.09.03-.2,0-.3-.09-.3.49-2.39.17-3l.39.1c.1-.46-.36-.11-.4-.56-.04-.38-.02-2.93.05-3.12.07-.17.31,0,.35-.18.03-.16-.28-.06-.4-.23-.24-.36.11-1.06.1-1.51-.01-.79-.25-1.83-.27-2.53,0-.1.36-.06.36-.16-.03-.83-.6-1.73.49-2.25.53-.25,1.32-.19,1.42-.24.03-.01.09-.29.27-.4,2.4-1.37,3.28-4.53,2.42-7.14-.17-.5-1.04-2.25-1.34-2.61-.03-.04-.63-.05-.97-.24-.23-.13-.28-.49-.43-.52-.18-.02-.48.19-.76.15-.13-.02-.14-.31-.17-.32-1.57-.53-.95-.4-1.03-1.84-.03-.62-.52-1.11.11-1.22-.47-.62-.49-.62.19-.97-1.11-.19-.12-2.23-.22-2.52-.06-.18-.38,0-.36-.19s.29-.03.36-.11c.03-.03,0-.82,0-.86-.02-.12-.37-.08-.35-.18.29-1.57,0-2.07.02-3.5,0-.11.35-.07.35-.16-.02-.84-.65-2.06.55-2.61.92-.42,2.8-.79,3.46-1.81.14-.22.92-2.47.98-2.79.32-2.04-.7-5.02-2.61-5.99-.65-.33-2.29-.34-2.52-1.15-.31-1.06.18-2.55-.21-3.64.68-.15,0-.58-.02-1.18-.01-.42.29-.68.29-.94.02-2.23-.36-4.74-.11-6.97.04-.37.18-.86.48-1.08s.5.01.64-.04c.1-.04.94-.4,1.12-.5,1.5-.8,2.19-2,2.62-3.56.1-.36.17-.72.17-1.09l.38.38c.21-.57-.3-.56-.34-.67-.07-.18.09-1.07-.01-1.56-.23-1.13-.88-2.05-1.24-3.12-.88-.82-3.5-.88-3.85-2.06-.05-.15-.12-2.24-.08-2.43.09-.47.65-.48-.05-.67.09-2.3.13-4.63.17-6.95,0-.26-.21-.61-.17-.78.06-.26.55-.24.55-.39,0-.22-.47-.91-.48-1.36-.05-1.99,1.45-1.34,2.47-1.86,1.34-.68,2.54-2.52,2.8-3.98.14-.78-.23-2.12-.14-2.44.06-.22.35-.03.38-.22.03-.16-.28-.06-.39-.23-.79-1.29-.58-1.99-2.03-3.15-.53-.43-1.55-.33-1.06-1.16-.3-.01-.33.52-.4.57s-1.14-.42-1.32-.69c-.57-.89.1-4.92-.23-6.18.07-.49.86-.18,0-.59.24-.95-.15-2.06-.11-2.97.01-.35.27-.52.32-.68.04-.14-.38-.06-.37-.17,0-.13.19-.45.2-.79.02-.82-.61-.94.75-1.16l-.78-.1c0-.34.18-1.21.49-1.35.6-.26.32.57.87.38l-.19-.58c1.18.22,1.45-.37,2.23-.96.18-.14.53-.15.62-.25.14-.15,1.21-2.57,1.27-2.89.34-1.85-.51-4.39-1.87-5.69-1.15-1.09-1.82-.6-2.87-1.08-.69-.32-.61-2.12-.62-2.88,0-.52.18-1.17.17-1.8,0-.26-.29-1.06-.25-1.17.06-.18.37,0,.36-.19s-.37,0-.37-.18c0-.19.21-.56.19-.98-.05-1.26-.15-.98.18-2.13.04-.15-.3-.04-.35-.18-.06-.16.06-3.1.08-3.48.07-1.95.74-1.12,1.87-1.46.52-.15,2.12-1.9,2.43-2.43s.84-1.97.89-2.55c.06-.7-.57-2.03.11-2.25-.78-.92-1.04-2.03-2-2.93-.44-.41-1.23-.54-1.29-1.03-.34-.11-.09.43-.28.38-.45-.48-1.35-.27-1.56-.95-.36-1.18.28-.94.3-1.08-.87-.37-.39-2.02-.37-2.89s.23-4.7.14-5.03c-.03-.12-.36-.09-.37-.2-.01-.21.11-1.17.11-1.72,0-1.08-.06-2.64.01-3.62C.16.63.8.14,1.32.12l10.72-.02c.9.18.94,1.95,1.21,2.87.06.2-.09.45-.05.54ZM6.58,1.42c-.48-.53-.36.74-.39.77-.81-.39-2.23.43-2.61-.39-.19.57-1.28.18-1.43.4-.25.37.42,2.03-.4,1.92-.09.32.29.1.35.28.02.05.04.8.04.97.13,2.94-.18,5.92.02,8.86.13.4,1.17.46,1.63.69,1.24.62,2.45,2.32,3.04,3.55.02.05.35.92.36.97.15.57.56,2.58.16,2.93-.03.02-.92-.19-.39.29.06.05.43-.03.58,0-.6,2.61-2.17,6.51-5.41,6.18l.58.29-.59.2c.04,2.96-.02,5.92,0,8.87,0,.35-.17,1.16-.15,1.37.02.13.54.01.16.47,4.68.9,6.5,6.75,4.73,10.82-.96,2.2-2.61,3.35-4.7,4.38l-.15,10.03c.07.45,1.46.5,1.86.77.08.05.75.62.89.74,1.09.93,1.85,2.18,2.39,3.5.06.14-.6.17-.57.48l.77-.19c0,.14-.12.23-.07.39.98,3.69-.64,7.9-4.37,9.36-.22.09-.73.07-.76.1-.12.12.1,1.61,0,1.99-.07.28-.68-.21-.01.81l.04,8.26c.17.51.82.34,1.2.53,3.7,1.79,4.82,5.99,3.7,9.84-.61,2.07-2.61,4.53-4.92,4.64-.17.17.15,3.32,0,3.92-.06.22-.4.04-.39.22s.27.03.34.13c.22.34-.13,3.84.07,4.52-.06.45-.4.18-.41.37.83.09.12,1.49.41,1.82.04.05,1.05.19,1.33.31,1.93.81,3.41,3.26,3.51,5.22,0,.13.29.07.31.18.28,1.37.14,3.51-.24,4.54-.43,1.17-2.1,3.68-3.33,4.02-.8.22-.17-.74-1.02-.73l.38.87c-.23.41-.89.23-.96.3-.3.29.17,7.34-.05,8.41l-.35.18c.84.1.12,1.68.41,2.01.08.09,1.56.37,2.28.9,3.52,2.62,4.08,8.31,1.38,11.74-.03.04-.54.51-.66.62-.99.97-1.96,1.37-3.21,1.92.78.2.09.24.07.58-.02.22,0,1.22,0,1.66,0,.56.24,3.37.08,3.62-.06.1-.34-.05-.34.13s.28.03.34.13c.1.16.13,3.41.05,3.7-.06.22-.4.04-.39.22.62.11.63,2.2,0,2.32.84.08.14,2.37.39,2.61h5.6c.05.26-.49.58.1.58.23,0-.03-.47.19-.56.34-.14,2.42.19,2.9.19,1.14,0,.7-.33.77-.77.1-.67.83-2.09,1.22-2.67,1.09-1.61,3.25-2.58,5.15-2.79.62-.07,1.14-.16,1.18.62l.1-.77c2.1.37,3.96.96,5.4,2.61.17.19.95,1.32,1.03,1.49.21.48.55,2.03.64,2.1.36.27,2.9-.16,2.97-.03.07.15-.11.59.1.59-.05-.53.43-.7.94-.59.23.05.04.39.22.4s0-.34.22-.39c.64-.16,2.67.33,2.98-.12.26-.37.38-1.7.79-2.45.89-1.62,3.08-3.16,4.92-3.38.39-.05,1.1.16,1.33.13.13-.02.01-.36.37-.37.68-.03,2.06.49,2.79.68.15.04.39-.1.4-.08.06.12-.05.46.01.58.01.02.29-.15.51-.05,1.02.46,2.56,2.36,2.99,3.39.13.3.29,1.53.38,1.64.2.24.88.04,1.03.08.12.03.09.34.2.36.36.04.59-.3.92-.34.94-.13,4.05-.09,5.07,0,.18.01.31.1.48.15.42-6.71,9.91-8.52,13.52-3.14.66.98.52,1.11.62,2.08.01.11.28.05.35.23s-.05.56,0,.62c.22.23,3.68-.17,4.32,0,.16.04.14.26.13.39.35.04,0-.35.47-.4.96-.1,2.05.17,3.01.21-.31-.49-.04-1.33.16-1.87,1.91-5.08,9.39-5.93,12.75-1.67.87,1.11,1.25,1.71,1.21,3.07,0,.06.56.09.18,1.05.39.02.05-.55.47-.7.67-.23,2.32.18,3.1-.05l.19.36c.77-.53,2.49-.44,3.48-.39.26.01.44.11.67.2-.12-.77-.24-1.37.77-1.16-.28-.49-.81.18-.49-.78.88-2.65,4.26-4.55,6.95-4.38,4.02.24,6.43,2.35,7.59,6.14l7.12.11.66-.5c.08-.32-.27-.13-.33-.22-.34-.49.43-1.11.46-1.17.05-.12-.06-.34.09-.59.35-.6.84-1.12,1.24-1.68.21.58.14.27.67.19l-.38-.29c1.48-1.53,4.03-2.14,6.11-1.95s4.54,1.75,5.52,3.66c.4.77.59,1.65.86,2.47.36.27,2.8-.13,3.27.01.17.05,0,.37.19.36.18.03.04-.28.13-.34.27-.17,3.42,0,4.02.15-.32-.93.9-.77,0-1.06.06-.24.68-.86.71-.91.05-.1-.12-.35-.03-.52,1.97-3.42,5.71-4.52,9.37-3.3l-.2.38c.75-.2,2.3.32,1.55,1.26,2.12-.29,2.68,2.41,3.2,3.98l9.73-.03c.13-.13-.09-2.41,0-2.77.05-.23.86-.06.02-.44l-.04-11.74c-.1-.34-.48-.2-.8-.33-1.14-.48-2.57-1.36-3.23-2.39-2.07-3.24-1.97-8.7,1.18-11.2.22-.17,1.93-1.23,2.05-1.26.24-.06.78.05.83,0,.39-.35-.34-9.12.19-10.43-1.15-.04-1.88-.81-2.89-1.18.41-.59-.14-.29-.45-.55-3.61-3.04-2.74-10.74,1.72-12.74.57-.26,1.35-.07,1.43-.7v-10.41c-4.59-1.55-6.46-6.02-4.96-10.58.4-1.22,1.61-2.96,2.66-3.72.25-.18,1.09-.61,1.29-.69.35-.14.88.06.98-.32l.04-10.97c-3.02-.4-5.23-3.76-5.53-6.6-.02-.15.21-.36.21-.57,0-.3-.66-1.2.47-1.07.06-.37-.41-.11-.58-.2-.04-.02.11-.79.14-.91.21-.89.66-2,1.13-2.75.66-1.04,2.43-3.29,3.74-2.37.17.12.12.63.4-.06.07-.16-.71-.17-.77-.39,0-.21.54.01.71-.38.06-.14.07-2.76.07-3.11,0-.33-.19-.65-.19-.78,0-.14.43,0,.37-.18-.42-1.12-.2-2.22-.18-3.49.02-.94.16-.88.16-.94,0-.53-.45-1.39-.18-2.04-4.09-.26-5.54-4.54-5.43-8.1-1.8-.02-3.44-.8-5.1-1.37l-.09,11.1c-.83.09-.93.69,0,.29.17.61-.48.61-.58,1.16h.58c.04,1.26-.12,2.52-.16,3.77,0,.26.19.53.17.75-.01.18-.88.09-.05.4l.05,15.45-.59.2.58.1c.11.36-.32.48-.36.71-.02.13.34.63.38,1.12.03.39-.13.8-.13,1.16,0,.76.58,1.93-.47,1.93,0,.23.55-.05.59.2.04.18.03,2.84,0,3.09-.04.34-.32.27-.39.43-.2.46,0,.92,0,1.39l.39-.09c-.28.76.37,2.22-.39,2.51.75.18.26.68.27,1.19.01.58.46,1.15-.27,1.32,0,.19.33,0,.39.22.06.24-.13,1.76-.15,2.15-.02.28.17.57.16.71-.02.17-.86.08-.04.39l.04,11.4-.59.2.58.11v6.45s-.58.2-.58.2l.59.2-.05,7.34-.35.18c.52.1.67.52,0,.48l.36.28c-.22,1.06.1,2.26.05,3.31-.03.53-.48.48-.41,1.14l.39-.09c-.13.31.05,1.25,0,1.43s-.43.06-.38.21c.04.12.27.21.32.57.04.26.11,2.92.07,3.07-.05.23-.41.04-.4.22-.02.19.3.02.35.18.1.32,0,3.02,0,3.65,0,.4-.29.83-.27,1.19.04.72.45,1.46.32,2.52-.06.45-.41.18-.41.37s.35-.01.4.22c.01.06,0,1.22,0,1.32-.06.56-.33.72-.39.98-.04.16.29.04.35.18.11.27.11,5.41.06,5.82-.06.45-.42.18-.41.37.44-.11.44,1.7.4,1.9-.04.17-.86.19-.06.35l.05,7.21-.77.29c1.02-.21.87.37.72,1.21s-.54,1.06-1.39,1.13c-.45.03-1.7.06-1.74-.41-.71.81-1.88.13-2.8.39l-.1-.58c-.23,0,.05.55-.2.59-.22.04-2.4,0-2.51-.05-.17-.07,0-.37-.18-.35,0,.56-1.72.53-1.74,0-.1.52-.52.67-.48,0-.33-.08-.09.33-.28.36-.2.03-2.59.04-2.72,0-.15-.05-.02-.42-.19-.35-1.33.52-3.94.62-5.22,0-.15-.08.05.36-.37.41-.58.06-3.31.07-3.89,0-.45-.05-.19-.43-.38-.41.14.45-1.52.42-1.61.34s.05-.37-.13-.34c-.19-.02-.02.28-.18.35-.18.07-3.27,0-3.85.01-1.6.02-3.24.03-4.85.04-1.97,0-3.94-.13-5.9,0,.39-.92-.19-.82-.3,0h-6.54s-.21-.78-.21-.78c-.23,0-.01.66-.1.78-.03.04-.98.02-1.03,0-.23-.05-.04-.39-.22-.4-.07,0-.02.61-1.15.4-.25-.05.02-.6-.2-.59-.16.02-.04.29-.24.38-.4.2-3.28.2-4.01.21-1.79.03-3.61-.15-5.4-.01l-.21-.58-.18.56-8.12-.02c-.52-1.08-1.4.92-1.93-.34-.07.46-.69.39-1.16.39-2.52.04-5.07-.15-7.58-.16-.59,0-1.36.16-1.98.15l-.1-.58-.2.59h-9.85c-.46-.04-.19-.41-.38-.4.14.35-.84.4-.97.37-.15-.04,0-.53-.38-.36l.1.39c-.97-.15-2.47.13-3.38,0-.26-.04.05-.78-.2-.78l-.1.78c-.49-.29-1.67.09-2,.01-.23-.05-.05-.88-.44,0-1.1-.33-6.9.24-7.38-.06-.1-.06.06-.33-.13-.34-.14,0,.09.54-.78.41-.49-.08-.2-.85-.6,0-.63-.27-4.17.15-4.32-.01-.08-.09.14-.78-.1-.78l-.1.78c-1.13-.35-2.95.21-3.96,0-.24-.05.17-.4.09-.58-.44.29-.52,1.15-.87.19-.18-.03-.04.28-.13.34-.26.16-3.46-.06-4.12-.06-1.09,0-8.93.3-9.33.06-.09-.05.03-.34-.14-.34l-.09.39c-.48-.07-1.19.12-1.61,0-.19-.05-.07-.45-.22-.39-.11.04-.21.27-.47.31-.21.03-2.28.11-2.4.09-.23-.05-.04-.41-.22-.4l-.19.37-4.45.02.29-.39c-.61-.21-.47.35-.86.4s-3.81,0-3.98-.12c-.23-.15-.05-.68-.56-.29-.56-.92-.2-1.59-.23-2.4-.05-1.73-.11-3.17.18-4.64.1-.5-.63-1.77.23-1.93-.95-.13-.44-.22-.41-.96.07-1.83-.25-4.15-.1-5.91.02-.26.28-.37.32-.48.02-.06-.84-.1,0-.97-.54-.08-.25-1.21-.26-1.76,0-.29-.19-.66-.14-.92.04-.21.88-.05.01-.43.34-.95-.37-2.72.59-3.26-.02-.22-.46-.02-.58-.1-.04-.02.17-.32.17-.5.02-.52-.09-1-.04-1.59.12-1.27-.03-.55-.11-.9s.16-1.54.15-1.95c-.04-3.9-.08-7.78,0-11.78.01-.59-.37-1.63.2-1.73-.75-.76.02-2.05-.39-2.99h.58c.03-.83-.34.29-.51-.72-.04-.28-.08-2.72-.04-2.86.24-.8.15-2.86.14-4.24,0-.76-.28-3.55.01-4.02.11-.17.37-.07.39-.23-.97-.31-.16-1.18-.55-2.01.84-.11-.02-.19-.05-.33-.05-.28.2-1.44.21-1.91.03-1.44-.3-3.36-.1-4.72.05-.34.26-.4.3-.5.06-.17-.32-.02-.35-.19-.11-.54-.02-2.09,0-2.72,0-.1.25-.08.33-.24.47-.88-.33-.67-.38-.94-.04-.23.25-.8.04-1.2.83-.13.02-.21,0-.31.04-3.35.13-6.69.16-10.05,0-.53-.3-1.79-.2-2.29.03-.15.41-.12.4-.23,0-.25-.54-1.03-.36-1.55.13-.37.32-1.88.28-2.5-.03-.49-.12-1-.32-1.46l.58-.1c-.6-.15-.55-.92-.57-1.55-.08-2.58.1-5.24.02-7.93,0-.11.36,0,.38-.37.02-.45-.46-2.11-.39-2.33.08-.24.66.25-.03-.77,1.02.09.02-.37.01-.41-.13-.48.5-.82.47-1.52-.03-.58-.34-1.09-.39-1.65-.22-2.41-.01-5.96.04-8.48.01-.54-.47-1.11.26-1.27-.99-.39.43-2.27-.39-2.9l.38-.1c.08-.09-.28-.28-.3-.47-.13-1.12-.02-3.58.03-4.83.02-.43.26-.97.26-1.19,0-.11-1-.12.21-.37.03-.18-.28-.04-.34-.13-.17-.26-.2-5.4-.17-6.21.03-.87.14-.49-.03-1.18-.06-.26.16-1.2.17-1.55.02-.54-.48-.97.18-.87.08-.34-.29-.12-.36-.21-.05-.06.21-1.52.75-1.34-1.32-.77-.46-1.64-.4-2.62,0-.08-.35-.06-.38-.21-.05-.22.17-1.51.17-1.89,0-.83-.41-5.87.54-6.1,5.61-.06,11.19.18,16.79-.14.33.07.21,1.07.59.14h7.67s.42,1.17.42,1.17l-.1-1.16c3.4-.03,6.92.1,10.34-.14.64,1,.31.28.62.15.39-.17,4.86-.12,5.34,0,.22.05.04.39.22.39s0-.36.22-.4.5.13.76.11c.51-.04.58.02.94,0,.77-.01,1.97-.58,2.33.29l.09-.39c.49.06.98-.07,1.46-.09,4.32-.2,10.18.07,14.28.09.6,0,1.62-.11,2.12-.02.23.04.04.47.11.59.73-.49.44.21.85.21.34,0,.72-.24,1.08-.21-.66-1.25,1.27-.28,1.93-.77.06.27-.49.58.1.58.23,0-.03-.58.19-.57.69,0,1.61.21,2.32.2,2.46-.03,4.74-.04,7.15.1.23.01.64-.61.97.28.65-1.07.69-.21.76-.21.24,0,.73-.27,1.17-.27.65,0,1.46.51,1.55-.11l.39.58.39-.58.2.58c.82-.9,1.25-.24,1.94-.2.05,0-.15-.14.77-.18.26-.01,1.37-.21,1.42-.16.09.08-.07.35.12.35s0-.33.19-.36c.37-.07,2.28.17,2.89.17,2.34,0,4.62,0,6.97,0,.95,0,.7.18.75.18.56,0,1.7-.64,1.95.21.41.17.29-.5.56-.54.32-.05,1.66.16,2.14.16.98.01.89.17.95.16.52,0,1.4-.79,1.47.21h.19c-.08-.66,1.83-.65,1.64.2.23,0,.01-.65.1-.77.03-.04.54.19.86.21,6.25.26,12.55-.28,18.71-.13.67.02,2.2-.03,2.35.51l.09-.39c.85-.39.8.18.85.17,1.88-.04,3.91-.33,5.82-.27.3,0,.94.14.95.48l.1-.58c.65.45,1.58.07,2.42.09s2.98.38,3.48.27c.07-.02.54-.92.67.42.63-.45.14.67.87-.19.14-.06-.02.57.58.39.18-.05-.03-.48.29-.39.38,1.43-.05,2.89.21,4.34l-.59.2c.82-.03.87.94.19,1.16l.35.18-.14,6.07c.58-.09.63.44.91.59,1.67.9,3.95,1.4,5.54,1.53.49.04.95.24,1.45.21-.57-.88-1.33-1.82-1.79-2.77-.15-.31.05-.58,0-.67-.03-.06-.67-.84-.68-.9-.39-2.31.36-5.22,1.79-7.06.54-.69,2.39-2.37,3.3-2.08.18.06-.04.43.28.35l.2-12.55c-.85-.39-2.29.49-2.61-.39-.22.01.06.48-.29.39-.05-.9-.21-.02-.29,0-.58.19-.45-.45-.58-.39-.27.12-.5.58-1.06.39.44-.84-.3-.91-.2,0-.72-.26-1.96.17-2.57,0-.18-.05-.11-.37-.13-.39-.07-.05-.95.8-1.54.19.07,1.07-.52,2.88-1.34,3.59-.28.24-.65.22-.75.3-.04.03.13.27-.03.44-2.9,3.07-9.77,2.09-12.07-1.46-.08-.12-.6-.99-.65-1.08s-.26-1.39-.24-1.48c.05-.24.48,0,.4-.32l-2.79.2c-.13,0-.14-.64-.3-.39-.07.11.15.46-.19.39l-.1-.38c-.13.15-.28.28-.48.31-.24.03-2.07.1-2.21.07-.19-.03-.04-.45-.21-.38l-.48.39-.19-.58c.09.53-.6.31-.75.7-.23.62-.09,1.56-.52,2.37-.83,1.56-2.89,2.7-4.53,3.21-.22.07-.81.3-.86.3-.36.03-3.48-.07-3.58-.22-.03-.04.55-.59.19-.96-.38-.03-.09.67-.49.75-.27.06-1.9-.65-2.2-.86-.66-.46-2.64-3.27-2.7-4.06-.02-.3.18-.56.18-.85-1.91.21-4.15.28-6.08.2-.38-.02-.7-.14-1.06-.21.1,3.18-2.54,4.88-5.12,5.99-.2.05.05-.49-.29-.38.05.61-1.31.9-1.16.19h-.19c.23.48-1.46.39-1.81.36-1.4-.14-3.31-.89-4.36-1.82-.53-.47.16-.07.18-.47-.34.03-.58-.01-.88-.18-.1-.06-1-1.23-1.03-1.33-.17-.44-.01-.92-.06-1.1-.03-.13-.27-.09-.3-.19-.05-.19.04-.97-.05-1.07-.04-.05-.36.13-.48.1-.4-.08-.38-.62-.57.06l-5.81-.09c-.43.13-.24.88-.37,1.29-.37,1.18-1.18,2.29-2.14,3.07-.17.14-1.75,1.15-1.88,1.21-.31.14-2.12.59-2.37.51-.16-.05-.05-.3-.09-.36h-.19c.07.73-2.34.3-2.94.14-1.18-.32-1.38-.76-2.13-1.24-.08-.05-.42.1-.73-.15-.36-.29-.32-.66-.51-.86-.68-.76-1.85-1.56-1.83-2.81,0-.2.5.02.4-.3l-.55-.38c-1.64-.09-3.33-.15-4.96-.03l-.09-.36c-.32-.09-.11.29-.28.35-.33.12-1.93-.17-2.21.06-.08.06-.29,1.54-.47,1.95-1.22,2.8-4.9,4.18-7.76,4.03-2.52-.13-5.51-2.27-6.34-4.67-.24-.7.16-1.76-.9-1.32.08-.99-.14-.41-.68-.43-.2,0-.79-.24-.87-.16-.07.07.13.52-.11.59-.61.18-2.18-.14-2.97-.13-.38,0-2.24.05-2.37.12-.64.34-.27,1.24-.58,1.8-.07.12-.43.72-.5.83-1.74,2.73-5.19,3.59-8.26,3.36-.39-.03-.27-.33-.37-.35-1.57-.35-2.78-.72-4.08-1.87s-1.49-3.63-1.66-3.74c-.2-.14-.94-.13-1.22-.03.08-1.09-.37,0-.42,0-.41.07-1.28-.18-1.72-.17-1.24.02-2.87.44-3.94-.22.03.57-.44.7.19.87-1.05,3.94-4.81,5.82-8.6,5.51-3.35-.27-6.79-2.68-7.05-6.19-.43.13-.99.2-1.44.2s-2.79-.01-2.91-.2c-.15-.22.17-.51.11-.58ZM135.9,4.9v.19c.13-.06.13-.13,0-.19ZM14.89,77.82c-.05,1.32.04,2.64,0,3.96l9.18-9.27.29.38c-.02-.59.29-1.11.77-.48-2.97,2.82-5.63,6.06-8.58,8.9-.45.44-1.09,1.09-1.66,1.16v18.92c.23.72-.71,1.43.01,1.58-.09,5.08-.09,10.25,0,15.31h6.83s.11.6.11.6c.35.04,0-.35.47-.4.81-.09,1.99.1,2.81.21-.14-.8-.29-1.62-.39-2.43-.46-3.85-1-7.98-1.27-11.93-.05-.71-.25-2.17-.19-2.75.02-.2.37-.36.3-.47-.02-.03-.31.04-.36-.09-.11-.31.42-2.72.64-3.2,1.49-3.24,8.57-4.9,11.82-5.37,3.58-.52,7.19-.68,10.8-.57l.18.35.19-.37c2.87.32,5.81.38,8.64,1,1.21.27,2.39.77,3.62.92l.02.56c.33.09.09-.38.3-.4.62-.05.84.52.89.54.11.04.4-.18.74-.07,2.79.92,4.94,3.72,3.86,6.68.75-.08,3.79.65,4.22.36.09-.06.1-.44.21-.61.09-.13.35-.13.36-.16.09-.24-.21,0,.22-.69.72-1.18,1.75-3.68,2.5-4.57.16-.2.39-.12.6-.12l-.38-.29.96-1.45c-.21.04-.34.17-.58.11-1.84-.48-7.5-3.44-8.58-4.96-.1-.13-.1-.39-.11-.56l-.29.38c-.16-.07-2.23-2.52-2.32-2.71-.17-.37-.05-1.09-.11-1.15-.04-.04-.56.04-.87-.19-.18-.12-.47-.69-.62-.92-.92-1.39-1.49-3.16-2.15-4.45-.11-.21-.13-.73-.23-.8-.2-.15-1.01.09-1.13-.04-.11-.11.18-.63-.2-.57l-.13.59c-2.88.21-5.74.59-8.59,1.07-.22.04-.35.23-.47.27-.11.04,0-.62-.48-.39-.01.16.26.29.1.38-.22.12-2.24.43-2.49.4-.18-.02-.33-.71-.33-.89.01-.74,1.45-.67,1.53-.72s.08-.37.49-.56c.2-.09,2.19-.59,2.32-.56.23.06-.01.47.31.39-.21-.97.54-.35,1.07-.42.07,0,.46-.62,1.16-.49.46.09.06.92.47.91v-.97c2,0,3.99-.41,5.99-.19.08-.33-.33-.08-.38-.31-.02-.09.11-.31.07-.49-.13-.63-.35-2.56-.56-2.87-.27-.37-1.12-.27-1.47-.48-.08-.05.03-1.19-.45-.1-2-.72-4.28-1.09-6.39-1.35-1.15-.14-3.96.44-3.59-1.62.09-.48,1.4-.19,1.66-.22.32-.03.61-.23.93-.24,2.51,0,5.25.87,7.73,1.29l.13.78.19-.58,1.35.39c.03-1.2.18-2.42.35-3.59.26-1.74.63-3.83,1.12-5.31.61-1.8,1.43-3.47,2.01-5.26.06-.18.41-.13.38-.23-.09-.29-.54-.66-.4-1.15l.05-10.06.35-.18c-.76-.19-.13-.26-.1-.65.08-1.08.17-5.77.55-6.35.04-.07.22-.07.32-.06.11-.32-.38-.09-.4-.29-.03-.34.25-.53.29-.77.47-3,.89-6.38,1.71-9.6.69-2.71,1.71-5.37,5.07-3.44,3.18,1.83,7.27,7.5,9.62,10.37.39.48,2.06,1.87,2.27,2.46.12.34-.05.64-.02.69.02.03.26-.23.58.08.43.42,1.52,1.99,1.91,2.57.12.18.22,1.06.74,1.21.73.21,1.58-.48,1.69.19,3.55-1.22,10.27-.41,13.52,0,1.21.15,2.6.61,3.77.39l.1.97c-.01-1.12,1.1-1.43,1.63-2.04,4.26-5,9.36-10.4,14.94-14.04,3.42-2.23,5.54-2.72,7.08,1.7.74,2.11,2.23,10.86,1.76,12.9-.05.2-.37.05-.4.22l.39.09c-.13,1.96.04,3.93-.05,5.89-.11,2.16-.32,4.6-.53,6.76-.17,1.78-1.2,6.45-1.06,7.73.2,1.76,1.86,4.59,1.64,6.77v4.72c1.85.26,3.89.5,5.71.95.29.07.79.23,1.2.34,1.52.42,3.35,2.21,1.12,2.19-.51,0-2.59-.23-2.24-.97l-.48.4c-1.98-.33-3.88-.98-5.87-1.24-1.39-.18-3.59-.34-4.57-.22-1.17.14-1.67-.06-2.7.27-.28.09-1.9-.07-2.32.21-.32.21-.55.58-.48.98.67-.22,1.73.22,2.21.2.13,0,.09-.32.2-.36.22-.08,4.33-.09,4.65-.06.29.03.31.11.28.41h.19c-.23-.46,1.44-.56,1.16,0h.19c-.11-.63.56-.18.97-.19-.23.83-.28,1.69-.47,2.52-.14.61-.74.84-.11,1.45.5.48,2.19.81,2.91,1.15,1.06.5,2.39,1.21,3.41,1.8.34.19,1.59.88,1.74,1.05.58.69-.07,1.71-.91,1.61-.22-.03-1.84-.93-2.15-1.11-1.51-.88-3.03-1.69-4.71-2.5-.83-.4-1.82-1-2.6-1.23-2.57-.76-5.49-1.37-8.11-1.26.13.33.29.68.65.79.94.32,8.03,1.57,8.03,2.2-2.05,2.54-4.15,5.14-6.95,6.86v.28c1.42,1.73,3.04,3.29,4.44,5.04.94,1.18,3.24,4.06,3.85,5.25.21.41-.03.77.02.83.01.02.27-.19.47-.01.15.14,1.04,1.56,1.23,1.88,1.68,2.77,3.12,6.05,4.28,8.69,1.04,2.35,2.05,4.77,2.7,7.33.21.83.86,3.77.78,4.41-.03.27-.65-.1-.58.29,1.18-.18.43,1.54.96,2.23l-.58.09c.02.52.71-.03.58.48-.15.57-.52.29-.58.67,1.15-.23.17,1.56.77,2.32.38-.77.93-.52.96-.58.04-.06-.15-.5-.11-.78.67-4.67,1.67-7.91.83-12.79-1.03-6.02-5.95-14.54-3.72-20.43,1.54-4.08,6.92-6.1,9.54-1.8.6.99,1.45,3,1.38,4.13l.38-.2c-.16.8.93,2.11,0,2.41.13.34.54.09.56.12.06.08.29,1.66.4,2,1.81,5.81,4.07,10.98,4.45,17.2.03.47.22,1.37-.38,1.26v.19s.37.08.37.08c-.35.71-.17,1.58-.25,2.29-.26,2.29-.98,4.34-1.57,6.41-.36,1.26-1.05,2.25-1.64,3.38l9.66,2.32c-.11-2.1-.29-4.55-.14-6.66.04-.49.39-1.41.34-1.72-.02-.13-.37-.1-.4-.25-.08-.36-.08-6.96.03-7.31.03-.08.93-.36-.03-.77-.15-.36.64-.47.58-.58-.85-.27-.5-1.48-.38-2.22l.38.38.2-.58h-.77c.13-.8.19-1.8.19-2.61,0-.54-.5-.79.2-.97-1.07-.93.55-.85-.38-1.18.31-.73-.15-2.72.02-3.27.05-.17.37,0,.36-.19l-.35-.18c.13-1.53-.08-3.14-.05-4.65,0-.49-.07-1.27.4-1.35.01-.18-.35,0-.4-.22-.12-.52.31-3.42,0-3.74-1.56,1.27-2.83,3.02-4.44,4.35-.6.32-.59-.38-.32-.81l4.66-4.71c.18-.83.26-1.68.1-2.51l.58.58c.11-.87-.36-1.71-.67-2.51-.31.01-3.64,3.92-4.43,4.45-.18.12-.54.36-.69.09l.59-.97,4.5-4.4c.79-1.35-.23-4.02.52-5.55l-5.89,5.99c-.16.31-.45.05-.48-.1-.11-.56,1.08-1.63,1.5-2.03.51-.5.85-.84,1.35-1.35,1.04-1.07,2.05-2.15,3.22-3.08.19-1.54-.2-3.13.12-4.64l-2.41,2.13-.87.19.38.29c-.85.51-3.73,4.17-4.34,4.29-.03,0-.48-.11-.49-.23,0-.21,2.4-2.73,2.77-3.12,1.55-1.61,3.35-3,4.77-4.75.13-.16.36-.14.37-.16.11-.19-.3-.55-.35-.85-.14-.84.16-2.13.36-2.91.03-.11-.3-.08-.34-.14-.11-.16.29-.64-.24-.72-.04.67-.74.87-1.09,1.23-2.36,2.41-4.73,5.31-7.01,7.57-.49.49-1.2.89-1.66,1.44-1.35-.52.54-1.35,1-1.81,1.36-1.36,2.6-2.9,3.93-4.28,1.12-1.16,4.14-3.71,4.83-4.82.12-.2.51-1.63.57-1.95.03-.13-.82.08,0-.57-.47-.01-.47-1.56-.4-1.92.05-.27.66.1.59-.29l-.88.18-10.71,10.54-.58-.2c-.03-.17,2.11-2.31,2.37-2.54.17-.15,1.12-.94,1.2-.98.05-.02.26.16.28.14.07-.07.49-1.11.96-1.65,2.02-2.31,4.65-4.55,6.88-6.66,0-1.37.03-2.73-.03-4.09,0-.09.15-.55-.17-.54-.1,0-1.13,1.15-1.35,1.36-1.67,1.53-3.57,3.68-5.32,5.44-.27.27-1.66,1.78-1.78,1.84-.08.04-.32-.16-.34-.14-.03.03,0,.46-.29.78-.07.08-.84.68-.98.76-.68.44-.39-.45-.18-.76.7-1.05,1.73-1.56,2.46-2.32.18-.19.42-.73.73-1.06,2.26-2.36,4.67-4.6,6.95-6.96.59-1.01.14-3.54.18-4.74l-12.94,13.04c-.3.33-.55-.11-.5-.39.11-.67,5.3-5.39,6.18-6.29,1.03-1.06,2.2-2.52,3-3.36.9-.94,3.7-3.35,4.21-4.21.27-.47-.16-1.08.45-1.2l-.4-.22.2-5.67c-2.64,2.44-5.32,4.26-9.02,4.62-1.05.1-2.34-.13-3.37-.12-.55,0-.61.45-.56-.44-.32-.08-.09.33-.31.39-.91.23-.88-.41-.94-.39-.66.75-.35.14-.62,0-2.33-1.17-3.63-1-5.77-3.18-.56-.57-1.81-2.05-.66-2.72.83-.49,1.39.29,1.91.8,2.53,2.47,4.15,3.1,7.72,3.49.29.03.53.21.72.24.16.03-.04-.49.27-.38.1,1.03.45.01.51,0,.54-.14,1.7-.05,2.46-.21,2.91-.61,6.05-3.14,7.45-5.52.15-.25.03-.56.07-.61.08-.09.41.1.33-.22-.54-.26-1.25-.55-1.73-.88-.75-.51-1.53-1-2.42-1.64-.49-.35-.3-.26-.9-.59-4.46-2.46-8.21-2.47-12.64.18-.62.37-2.1,1.46-2.37.14-.39-1.92,3.9-3.52,5.38-3.88,1.67-.4,3.99-.59,5.67-.27,3.39.64,5.96,2.66,8.82,4.42-.07-.95-.28-2.84-.08-3.7.11-.47.48-.29.47-.46-.91-.21-.23-1.4-.5-1.84-.34-.56-3.6-2.47-4.38-2.9-3.02-1.65-7.24-2.02-10.51-.61-.83.36-3.35,2.19-3.98,1.79-1.36-.87.58-2.39,1.34-2.88,1.33-.86,2.75-1.42,4.28-1.72.4-.08.84-.26.89-.26,2.41-.29,5.47.25,7.6,1.11.41.16.86.35,1.37.57.59.26,2.84,2.05,3.01,2.01.79-.19.22-2.53.29-2.78.05-.17.26-.13.39-.12v-.19c-.06-.04-.31.07-.36-.09-.08-.24,0-2.08.15-2.4-1.95-1.56-4.7-3.13-7.26-3.3-.38-.03-.81.22-.84.19-.11-.14.16-1.16-.32-.19l-3.45.02c-2.34.87-4.47,1.6-6.56,3.26-.51.41-1.59,2.08-2.56,1.11-.76-.77.15-1.84.72-2.38,1.59-1.52,2.9-1.89,4.8-2.85.03-.02.04-.64.42-.32.07.06-.16.46.19.38-.2-.99.72-.52,1.07-.63,2.68-.85,3.93-.98,6.95-.72.87.07,1.27.54,1.35.55,1.92.05,3.17.7,4.79,1.78.2.13.04.47.5.23l.22.34v-9.08s-4.93.21-4.93.21c-.63-.64-.25-.22-.76-.12-.88.16-1.75-.22-2.61.1l-.1-.77-.1.77c-.57-.23-1.16-.03-1.74-.09-.32-.04-.69-.35-1.03-.3-.13.02-.1.37-.25.4-.31.06-1.12,0-1.12-.39l-.48.38-.09-.39c-.27.34-1.66.46-1.94.35-.15-.06-.01-.41-.18-.34-.09.03-.97.52-1.06.39s.19-.64-.19-.58c0,.24-.03.49-.18.69-.32.43-1.09,1.06-1.49,1.5-1.99,2.17-4.06,4.24-6.16,6.31-1.13-.31.26-1.04.49-1.64l6.57-6.38-.58-.48-.19.58c-.75-.29-.98.34-1.06-.58-.85,1.44-.89,0-.97,0l-.1.58c-.36.09-.07-.41-.29-.39-.19.02,0,.33-.22.39-.26.07-1.1-.33-1.48,0l-4.89,5.03-.46-.19c.52,0,.43-.72.77-1.21.28-.39,1.28-1.56,1.74-1.11l-.19-.58c.07-.06.63.33.77-.1.07-.19-.44,0-.39-.19.1-.32.51-.09.55-.14.08-.11.03-.41.14-.52.16-.16,1.18-.83,1.05-.99-1.62-.09-3.26-.24-4.87,0-1.47,1.56-2.81,3.37-4.5,4.84-.39.34-.89.75-1.36.96-.26-.91,1.25-1.64,1.77-2.19,1.07-1.15,1.94-2.59,3.35-3.41.04-.26-.76-.33-.92-.33-.78-.03-1.14.62-1.01-.63l-.19.77c-.57.05-1.56-.47-1.98-.36-.2.06-1.34,1.08-1.59,1.31-.66.61-4.66,5.01-5.02,5.03-.09,0-.46-.4-.2-.58l5.31-5.5c-.55-.47-1.32.06-1.64.07-.39,0-1.82-.06-1.65-.55h-.19c.05.65-.67.32-1.07.57-.68.43-1.32,1.58-1.98,2.13l-2.46,1.94c-.27-.15-.04-.5.09-.69.17-.25,3.09-3.16,3.29-3.28.62-.34.18.26.58.29.26-2.08-.25-.68-.5-.6-.43.15-.72-.15-.96-.16-.1,0-.05.31-.17.34-.07.02-1.45.05-1.53.03-.22-.06-.03-.4-.22-.39-.2,0,0,.38-.18.37-.11,0-.34-.2-.59-.18-1.17.06-.9-.2-.96-.18-.79.16-.61.21-1.55.19-.5-.01-.61.46-.78-.19-.52.62-1.71.07-2.51.09-.34,0-.85.13-1.5.14-.78,0-1.79.19-2.57.12-.16-.01,0-.42-.18-.36-.46.35-3.99.5-4.42.39-.19-.05-.04-.38-.22-.39l-.09.39h-.97s.09-.77.09-.77l-.87.2.58.38c-.38-.02-1.32.24-1.62.19-.14-.02-.1-.36-.2-.36-2.92.02-5.57.34-8.32.27-.2,0-.42-.22-.58-.22-.49.01-.6.7-.77-.07-.16.66-.27.18-.78.19-.45.01-2.91.24-3.06.2-.22-.06-.03-.39-.22-.39-.37,1.01-.51.02-.56.02-.11,0-1.99.47-2.04.37-.07-.14.11-.6-.1-.58.13.44-1.77.59-1.94.55-.15-.03.07-.55-.67-.16l.29-.58c-.44-.06-.47.66-.76.71-.32.05-1.09-.3-1.38-.3-.09,0-.07.37-.19.38-.31.02-1.36-.37-1.74-.37-.09,0-.06.34-.2.36-.32.05-1.33-.3-1.73-.3-.94,0-2.64.42-3.66.2-.67-.15-.45-.45-.49-.48-.06-.04-.39.33-.68.38-.35.07-.76-.07-1.12.04-.39.11-4.94,5.19-5.62,5.87-4.66,4.69-9.6,10.09-14.4,14.47-.3.28.02.73-.77.29l.17.55c-2.75,2.55-5.35,5.28-8.1,7.84-.19.18-.67.93-.8,1.01-.08.04-.32-.15-.33-.13-.03.03-.04.47-.29.78-2.49,3.08-7.01,7.01-9.96,9.94-3.15,3.13-6.27,6.31-9.6,9.22l-.15,2.9.18,2.26,16.94-17.34c.28-.18.82.08.74.44-5.74,6.03-11.58,12.01-17.59,17.76-.4,1.54-.24,3.19-.08,4.75,3.06-3.05,6.13-6.09,9.17-9.19.22-.23.6-.21.73-.33.48-.48,1.17-1.81,1.88-2.47.13-.12.98-.88,1.07-.28.1.67-.96.99-1.29,1.32-.49.49-.51,1.42-1.22.9.28.63-.85,1.65-1.36,2.22-2.68,3-6,5.67-8.79,8.58-.47.38-.27.72-.28,1.07ZM22.61,14.94c-.62-.07-.63-.04-.58.58-.37-.11-2.13-.18-2.37-.02-.63,1.11-4.61,4.27-4.77,5.14-.13.69.12,1.58-.09,2.31.25.33-.25,1.57.19,1.64s4.14-4.48,5.03-4.82c1.23-1.14,2.56-3.1,3.85-4.08.44-.33.65.38.88-.56-.19-.15-1.2.57-1.55.38-.03-.01.26-.41-.1-.58.09.59-.62.79-.87.58-.42-.37.5-.32.38-.58ZM14.89,15.62c-.25.8.18,2.81,0,3.77l3.86-3.77-2.23-.48c0,.73-1.39-.27-1.63.48ZM28.36,15.2c-.9-.42-1.94.51-2.9.2-2.63,2.4-5.35,4.91-7.8,7.54-.76.81-2.04,2.05-2.59,2.91-.25.39,0,.84-.57.98.85.38,0,2.09.39,2.99l-.58.19.96.39,7.53-8.02.97.2-4.05,4.05-.97.11.58.29-4.46,4.29c-.47.74.81,1.67-.95,1.41,0,.5.93.15.96.19-.04.57.26,1.1-.39,1.26.64.14.23,1.24.39,1.84l20.47-20.57c-.97-.14-2.28.23-3.09-.29l-.19.39c-.07-.9-.19-.05-.22-.02-.08.07-.48-.19-.88-.03-.26.1-2.28,2.05-2.7,2.44-.88.83-1.84,1.94-2.5,2.61s-1.7,2.3-2.59,1.67l6.37-6.57c-.24-.22-.7-.02-1.03-.1-.14-.03-.13-.3-.18-.32ZM14.89,36.96c-.29.71.22,3.65,0,4.64,1.09-1.04,2.27-2.03,3.34-3.08.37-.36.99-1.51,1.64-1.74.18-.07.55.05.63,0,.11-.07-.21-.7-.18-.75.05-.07,1.13-.62,1.24-.99l.29.38c-.2-.95.53-.99.9-1.42.54-.62,2.98-3.48,3.41-3.75.14-.09.35-.05.52-.05-.37-.51.05-.33.29-.58,3.62-3.85,7.29-7.09,10.91-10.91.99-1.04,1.92-2.14,2.9-3.19-.28-.25-2.35.05-2.81-.04-.16-.03-.01-.42-.18-.35-.58.73-1.39-.22-1.93.77l-.29-.38c.3,1.01.08.58-.27.98-2.53,2.91-5.61,5.61-8.03,8.39-.15.18-.52.6-.68.7-.44.27-.88-.41-.54.44-2.04,2.12-4.23,4.12-6.23,6.3l-.29-.58c-.01.24-.04.5-.16.71-.61,1.13-2.51,2.84-3.51,3.83-.2.19-.95.61-.97.67ZM45.24,15.47c-.07-.06.05-.39-.12-.34-.07.02-.17.24-.39.28-1.04.19-2.04-.34-2.9.29-8.84,9.03-17.73,17.93-26.77,26.75-.39,1.48-.2,3.19-.18,4.74,2.38-1.86,4.42-4.15,6.55-6.29.36-.36.53-.53.86-.86,3.92-3.97,8.35-8.51,12.18-12.37,1.3-1.31,2.65-2.69,3.65-3.86.33-.38,1.04-.67,1.41-1.03.62-.62,1.33-1.66,2-2.34.61-.62,5.02-4.67,5.02-5.02,0-.04-.31-.35-.38-.29-.04.03.07.34-.09.35-.04,0-.82.01-.85-.02ZM48.24,19.51c.49-.51,3.63-3.62,3.68-3.89.01-.08-.19-.3-.14-.49-.49.58-4.04.11-4.21.24-.1.08-.19.46-.41.64-2.47,1.99-5.35,5.33-7.72,7.73-.61.62-1,1.14-1.57,1.72-7.54,7.65-15.15,15.24-22.8,22.79-.51.62.26,1.72-.57,1.94.82.33.2,1.96.39,2.8.27-.47.91-.38.94-.42.19-.25.35-.78.79-1.23,5.62-5.79,11.37-11.3,17.01-16.99.38-.39.45-.96,1.15-.88-.38-.49.16-.39.5-.75,2.4-2.6,4.86-5.03,7.35-7.41.13-.13,1.57-2.24,1.81-1.19.15.64-5.71,5.57-6.18,6.58l-.58-.11.02.68c-6.84,6.58-13.31,13.5-20.01,20.19-.27.27-.32.25-.61.57-.57.62-1.8,1.61-2.1,2.32-.49,1.17.18,3.02-.09,4.12-.06.23-.47,0-.39.32.5.11.42-.03.64-.24,2.53-2.4,4.89-5.03,7.36-7.5.31-.31.46-.47.76-.77,3.31-3.3,6.62-6.54,9.77-9.76,1.29-1.31,2.77-2.6,3.97-3.95.18-.2.25-.55.28-.58.22-.25.11.62.38.29.16-.17.03-.39.27-.68,3.38-3.98,9.2-9.51,13.18-13.01.29-.26.31-.83,1.03-.71l-.38-.38c.79-.68,1.93-1.48,2.64-2.19.52-.52,1.26-1.36,1.81-1.95.6-.64,1-1.77,1.92-1.85-.22-.67-.53-.09-.96-.07-.33.02-2.29.07-2.42.04-.18-.03.01-.35-.19-.36s0,.33-.21.38c-.19.05-.89-.22-1.22.11l-7.84,7.81c-.38-.26-.2-.28-.16-.54.14-.97,2.32-2.6,3.09-3.39ZM14.89,59.85v4.25s-.41.34-.1.48c4.4-4.34,8.75-8.77,13.13-13.14,1.35-1.34,2.79-2.62,3.95-3.78,1.66-1.68,3.19-3.51,4.94-5.1l.29.38c-.04-.43.03-.64.28-.98.91-1.24,3.32-3.1,4.49-4.3,4.09-4.24,8.38-8.7,12.15-12.67,1.71-1.8,3.84-3.83,5.79-5.6.48-.44.37-1,1.24-.78l-.38-.38c.81-.54,1.56-1.5,2.31-2.24.22-.21,1.32-.66.09-.66-1.05,0-2.23.21-3.28.09-.25-.03-.61-.33-.67-.29-.02.01-.03.31-.21.46-1.66,1.45-3.22,3.23-4.82,4.87-5.82,5.94-11.93,12.02-17.84,17.96-7.1,7.13-14.27,14.25-21.38,21.42ZM67.8,31.14c.27-.4-1.69-2.81-2.06-3.22-.13-.14.06-.46-.34-.05l-.87,7.43c-1.07-.05-.01.32-.01.37-.02.31-.29,1.76-.38,2.09-.25.87-.2,1.66-.36,2.75-.06.37-.38.29-.38.37.17,2.88-.19,4.84-.56,7.59-.13.99.29,1.17.34,1.34.11.45.23,1.73-.58,1.42-.07.38.45.08.56.2.2.21-.19,2.41,1.37.47,1.36-1.69,2.45-3.51,3.88-5.16s2.96-3.16,4.62-4.5c-.14-.29-.67.2-.77.1-.05-.05-.25-1.17-.37-1.47-.3-.75-.59.2-.86.44-1.65,1.46-3.17,3.05-4.81,4.5-.43.38-.69,1.21-1.5,1.16-.16-.15.53-.99.67-1.16,1.14-1.39,2.71-2.52,3.91-3.72.47-.47.87-1.37,1.41-1.8.32-.26.75.06.72-.59,0-.11-.58-1.79-.67-1.94-.1-.16.04-.32-.33-.25l-5.51,5.21.18-1.07c.53-.8,5.12-4.59,5.23-5.21.02-.11-.3-.07-.38-.24-.08-.19-.46-2.01-.78-1.79,0,.29-.2.49-.38.68-.82.85-2.14,2.28-3,2.99-.22.18-.31.47-.68.39-.11-1.02.84-1.34,1.36-1.88.4-.42.7-.99.95-1.3.34-.44,1.91-1.61,1.95-1.74.23-.74-.5-.4-.58-.48.45-.72-.53-.7-.58-1.54-.23.52-.88.6-.92.64-.28.24-.61.97-1.2,1.1-.05-.5.3-.89.58-1.25.32-.4,1.09-.84,1.14-.9ZM159.05,28.39c-.12-.07.05-.4-.25-.31-.14.58.37,1.99-.39,1.93-.04.35.35,0,.4.47.1.9-.25,1.81-.01,2.7-.84.36-.11.27-.07.35.09.16.12.95-.32.74v.19c.54.02,1.02.3,1.49.53,1.8.88,5.18,1.78,7.3,1.62.33-.02.27-.34.43-.39.33-.1,1.65-.26,1.76-.43.2-.29-.06-1.84.01-2.17.05-.23.39-.04.4-.22s-.34,0-.39-.22c-.09-.34-.06-2.42-.01-2.88s.44-.12.4-.47c-.71-.35-2.08.28-2.59.21-.21-.03-.03-.4-.21-.41s0,.34-.22.39c-1.57.4-6.27-.78-7.74-1.62ZM123.72,32.07c-.33-1.18-.74-2.38-.66-3.61-.95.62-1.38,2.4-2.51,2.51l.38.29c-.87,1.12-1.82,2.22-2.32,3.57.15.15,1.34-.92,1.52-1.09.26-.24.72-.68.8-1.04.41,0,.13.74.04.91-.16.32-1.26,1.54-1.59,1.89-.66.71-2.08,1.7-2.51,2.36-.83,1.28-.95,3.02-1.94,4.2.27.39.88-.35.96-.29.03.02-.02.76.39.38.05-.05-.34-.38-.02-.87.28-.43,2.71-2.66,3.2-2.99.87-.57.08.82-.19,1.16-1.3,1.64-4.41,3.56-5.07,5.36-.1.28-.65,2.33-.63,2.45,0,.04.28.38.39.2.34-.5.98-.81,1.36-1.21.34-.35.24-1.05.76-.63-.14-.8.54-.65.72-.84.7-.73.93-.81,1.56-1.34.31-.26-.01-.95.82-.72.08.39-.08.52-.28.78-1.05,1.41-3.04,2.91-4.35,4.14.07.31,2,1.92,2.12,1.84.21-.68.93-1.42,1.45-1.94.24-.24.61-.25.82-.44.43-.39.74-1.43,1.6-1.29l-3.67,4.25c.34.02.61.18.87.39,1.33,1.05,3.39,3.35,4.31,4.77.59.92,1.04,3.1,1.37.71.28-2.08.14-4.98.6-6.9.05-.22.39-.04.39-.22s-.35,0-.4-.22c-.1-.43.28-1.63.3-2.08.17-4.08.39-10.88-.6-14.46ZM161.11,37.35c-.83.71-1.36-.17-2.21-.39-.4-.01-.02,5.03-.16,5.37-.08.81,1.53.93,1.61,1.01.13.14-.26.72-.19.96.79-1.14.97-.51,2.08-.25.39.09,2.36.58,2.53.42.46-2.1,2.73-4.15,4.85-4.43-.07-.77-.49-1.34-.2-2.12-1.58.37-3.19.68-4.83.58l-.19-.77c.28,1.2-.8.79-1.6.56-.12-.04-.15-.31-.18-.32-.32-.12-1.79.43-1.51-.63ZM150.01,38.51v.19c.13-.06.13-.13,0-.19ZM72.97,45.02c.34-.46-.06-1.19-.23-1.68-1.1,1.01-2.04,2.19-3.11,3.27-.17.17-.38.03-.42.07-.13.14-1.48,1.79-1.4,1.87.69-.14.71-.75,1.54-.39l-.38-.29,1.45-1.26.29.38c-.06-1.08,1.76-1.3,2.26-1.99ZM71.19,55.7v.19c.13-.06.13-.13,0-.19ZM73.03,56.47l-.19-.77c.22,1.15-.46.68-1.18.89-2.21.65-3.15,1.85-4.43,3.65-.35.49-.21.1-.54.8-2.12,4.55-1.75,8.18,1.99,11.65.45.42,1.21.44,1.06,1.16,1.5-.04,3.28.54,4.88.19.16-.04.15-.31.28-.38,2.66-1.38,4.06-2.7,4.89-5.71s-.44-8.31-2.91-10.22c-.98-.76-2.6-1.61-3.86-1.26ZM107.96,59.02c-.13-.11-2.99-1.19-3.16-1.2-.1,0-.07.37-.17.37-4.04-.11-6.51,1.32-8.3,5.06-1.83,3.84-1.39,6.1.51,9.64.33.62.12.15.62.56,2.4,1.96,5.12,3.37,8.1,2.34,6.49-2.23,8.49-9.82,3.97-14.99-.45-.52-1.09-.9-1.5-1.32-.09-.09-.01-.41-.09-.47ZM93.22,62.07v.19c.13-.06.13-.13,0-.19ZM92.83,62.27v.19c.13-.06.13-.13,0-.19ZM93.22,62.46v.19c.13-.06.13-.13,0-.19ZM.88,63.04v.19c.13-.06.13-.13,0-.19ZM118.13,65.94v.19c.13-.06.13-.13,0-.19ZM85.62,72.07c-.06-.05-.04-.24-.04-.34h-.19c.09.58-.87.37-1.47.56-.66.22-1.21.69-1.82.98-.08.31.26.11.33.23.33.52.45,1.15,1.09,1.82.27.28,1.02.59,1.18.85.9,1.52-.79,5.03-2.76,4.88-.06.23.05.39-.22.33-.04-.88-.19-.07-.28-.04-1.15.48-3.57-.9-4.35-1.8-.41-.48-1.09-2.12-1.19-2.19-.79-.49-1.19.27-1.09.98.3,2.05,2.63,3.84,4.5,4.41,1.5.45,3.29-.03,4.6-.82.44-.27,1.32-1.31,1.57-1.32.64-.02,1.04,1.03,1.58,1.5,1.34,1.16,3.79,1.88,5.54,1.77,1.11-.07,2.41-.95,3.36-1.11.26-.05.6.18.63.16.02-.03,0-.42.19-.68.53-.74,2.34-1.83,2.32-2.87-.05-2.3-2.75,1.03-3.19,1.42-1.36,1.19-3.6,1.79-5.38,1.54-.13-.02-.1-.29-.22-.33-.14-.04-.43.14-.92-.08-1.98-.92-4.18-3.86-2.86-6,.55-.89,2.94-1.02,2.63-2.46-.41-1.92-3.27-1.16-3.55-1.4ZM59.41,74.05v.19c.13-.06.13-.13,0-.19ZM41.35,94.33c-.05-.06.03-.42,0-.58-.38-.06-.1.46-.19.58-.04.05-.96-.13-1.24-.09-.24.03-.43.32-.78.29-.12-.01-.12-.63-.29-.4-.06.09.13.58-.49.39-.08-.03-.08-.41-.19-.39-.15.03-.54.35-.95.42-2.91.52-7.28,1.06-9.72,2.82-1.77,1.28-1.82,2.56-1.75,4.56.12,3.98.77,7.9,1.01,11.82.02.32.69.38-.08.56.25.38.43.92.41,1.37s-.45.12-.41.47c.92-.06.41.06.46.44.04.33.34,1.6.29,1.67-.07.08-.44-.13-.36.21.9.27.45,2.07.95,2.82l-.37.08v.19c.13-.01.32.02.39.13.63.99.65,2.75,1.54,3.64l-.38.29c.93-.12.87.74,1.22,1.1.88.91,3.26,2.67,4.38,3.22.3.14.99.12,1.35.32l-1.16.38c.39-.04.86.08,1.22,0,.15-.03.13-.38.21-.37.55.03,1.73.57,2.38.71.93.2,1.26-.39,1.31.82.01-1.12,1.3-.32,2.12-.3,5.01.13,12.35-.62,15.84-4.53,2.66-2.97,3.63-10.46,4.06-14.38.05-.41-.46-1.15.28-1.07v-.19c-.64.07-.21-.21-.19-.67.03-.67.12-4.24.38-4.61.08-.11.26-.14.39-.13v-.19c-.14.02-.34.04-.38-.13-.1-.35-.04-3.85.04-4.03.07-.17.37,0,.35-.18-.75-.17-.24-.82-.28-1.35-.19-2.68-.98-2.76-3.24-3.59-.16-.06-.15-.33-.29-.36-.9-.2-2.93-.2-3.34-1.16h-.19c.04.76-1.71,0-2.3-.08-3.55-.45-7.74-.78-11.3-.67-.19,0-.65.23-.7.17ZM102.49,95.49v.19c.13-.06.13-.13,0-.19ZM102.49,95.88v.19c.13-.06.13-.13,0-.19ZM72.06,102.25c-.22-.22-.62.08-.09.38.17.02.11-.37.09-.38ZM63.18,121.18c2.17-.8,4.64-1.63,6.47-3.09,3.57-2.86,4.83-7.69,2.46-11.72-.12-.2-.94-1.44-1.01-1.5-.36-.3-2.35-1.19-2.89-1.36-.41-.13-3.02-.68-3.26-.27-.04,1.39-.27,2.92.17,4.23.4-.14-.02-.42.66-.39,1.76.07,3.76,1.82,3.93,3.59.03.35-.19,2.19-.31,2.51-.14.38-.62.52-.73.73-.22.41-.23.91-.49,1.35-.44.75-2.02,1.74-2.81,2.21-.37.22-1.58.66-1.7.81-.24.32-.21,1.17-.3,1.6-.04.16-.35.14-.35.22.01.26.3.7.17,1.07ZM84.35,121.85c-.93-.79-2.24-1.59-3.3-2.22-.69-.4-2.39-.84-2.67-1.59-.05-.14-.2-2.61-.23-3.03-.05-.78-.03-1.74-.09-2.61-.13-2.15,0-4.38-.49-6.48-.82.29-.47,1.85-.55,2.74-.17,1.82-.36,3.63-.33,5.48,0,.77.59,3.9-.11,4.1-.11.03-.28-.13-.42-.09-.04.01-.03.28-.16.31-.29.07-1.22-.28-1.42.4,1.34.94,3.02.93,4.54,1.55,2.26.91,4.71,2.53,5.97,4.65.18.3.9,1.78.9,2.01,0,.19-.37.02-.4.2-.03.16.3.06.39.22.65,1.17-.41,3.93-1.45,4.71-.68.51-1.56.88-2.42.77,1.08-1.11.84-1.89.76-3.36-.02-.34-.32-.73-.29-.98.02-.18.49-.61.3-.87-.02-.03-.52-.12-.76-.3-.77-.6-.86-1.56-2.13-1.05-.08.32.27.13.33.22.05.08-.08.34.01.49.62,1.04,1.28,1.92,1.41,3.25.08.82-.35.64-.36.76-.01.13.19.34.09.69-.04.15-.77,1.13-.9,1.24-.76.61-1.92.06-2.8.45l-.19-.15c.24-.71-.26-.81-.26-.86-.03-.75.21-1.68-.01-2.52-.3-1.13-1.34-2.93-2.71-2.13.18.79.61.69.86,1.07.87,1.34.97,2.52.68,4.06-.53-.16-1.06.03-1.58-.04-1.94-.27-4.49-1.67-6.08-2.62-.61-.36-.9-1.04-1.6-1.21l.58-.38c-.78.22-1.67-1.16-1.96-1.8-.51-1.11-.34-2.69-.61-3.33-.14-.33-1.99-.17-2.32-.05-.84.3-.52,1.43-.9,2.08l1.35.2c.28,1.1-1.16.47-1.69.82-.3.19-.86,1.71-1.4,1.98-.04.51.09.18.34.15,1.11-.16,2.19-.56,3.33-.44l-.33.73c-2.09.55-4.11.73-6.08,1.6-.96.42-2.17,1.27-3.21,1.66-4.15,1.57-8.26,1.32-12.66,2.02-1.75.28-3.44,1.1-5.15.75.28.3.08.53-.29.58-.05,0-.44-1.09-.39,0-.68.02-1.73.53-2.33.57-.17.01.06-.47-.27-.37-.01.21.09.46-.12.59-.15.09-3.15.75-3.45.76-.19-.05-.12-.7-.08-.75.2-.24,4.8-1.04,5.51-1.38.42-.11.11.43.46.39-.09-.98.17-.35.58-.46,1.32-.35,2.63-.72,3.96-.89.26-.03.6-.1.29-.38-.19-.17-1.98-.06-2.4-.36-.25-.18.07-.66-.3-.6.14,1.1-.56.36-1.07.29-1.18-.15-1.51.22-2.41.39-2.88.56-5.75,1.17-8.6,1.83-.73-.71-.02-.53.23-.66.04-.02.04-.26.18-.3,1.75-.46,3.9-.69,5.68-1.09,1.15-.26,2.27-.75,3.46-.85l-2.61-1.17c-3.52.08-7.24,1.41-10.72,2.25-.57.14-1.05.33-1.48.43-1.43.33-1.85-.29-.29-.87,1.79-.66,4-.93,5.79-1.36s3.61-.98,5.46-1.3l.19-.29c-.94-.16-1.44-1.08-2.22-1.55-.28.63-1.5.51-2.23.67-3.05.67-6.43,1.39-9.22,2.21-.58.17-1.02.21-1.59.02l.2.38c-.27.06-1.03-.1-1.15.03s.25.64-.6.65c0,.23.55-.05.59.2.31,1.67-.37,4.18,0,5.95-.87.4-.08.21-.02.44.02.07.05,1.37,0,1.43-.06.06-1.29-.37-1.16.29.03.16.9-.25,1.16-.1.12.63-.1,1.35-.12,1.92,0,.24.02.25.21.39l9.37-2.79c-.53.73-2.03,1.22-2.91,1.54-1.63.59-3.53,1.18-5.19,1.72-.26.08-1.8.18-1.76.61.02.18.34,0,.39.22.16.64-.31,1.5,0,2.19,1.19-.25,2.03-.78,3.19-1.07,3.27-.82,7.85-2.78,11.56-3.79.42-.11,1.68-.51,1.86.03l-16.59,5.62-.02,2.88c.22.04.37-.02.57-.1.29-.12,1.17-.61,1.31-.65.38-.12.97-.32,1.31-.4.18-.04-.05.48.28.38.05-.65,1.45-1.01,2.04-1.15.18-.04-.05.48.28.38.01-.21-.1-.45.13-.59.08-.05,1.57-.54,1.85-.63,3.81-1.28,7.8-2.53,11.64-3.91l.87.3c.19-.21-.91-.57.89-.75.25-.03.59-.13.46.27-.17.55-9.6,3.07-10.73,3.96-.51-1.11-.33.15-.58.19-.77-.43-.67.2-.78.21-.21.02-.56-.24-.64-.18-.05.04-.06.36-.34.52-.55.32-1.72.47-2.38.71-.95.35-5.67,2.36-6.26,2.22-.13-.03-.19-.91-.7,0,1.22.18.54,2.33.77,3.29.3.07.11-.25.33-.38,1.61-.86,4.63-1.72,6.48-2.39,2.04-.75,4.81-1.68,6.86-2.43,3.48-1.26,7.94-3.38,11.39-4.22.21-.05.7-.16.83.05,0,.6-2.89,1.5-3.49,1.74-6.49,2.58-13.63,4.92-20.39,7.43-.56.21-1.09.1-1.69.61-.53.44-.25,1.01-.7,1.52h.39c.04.39-.48.01-.38.39.47-.21.43.64.34.88-.05.15-.41.02-.34.18.52,1.26.08,1.28.3,2.32.19.94.96,1.46.77.29.91.37,2.3-.49,2.7.58l.2-.59c.74.33,2.25-.16,2.87.01.22.06.03.38.21.38s.01-.28.18-.35c1.02-.42,4.91.37,6.29-.03l-.09.58c.42.13.69-.55.8-.57.53-.12,2.24.41,2.96,0-.39.92.2.82.3,0,.94.32,5.38-.24,5.85.06.1.06-.03.78.35-.05h7.48s.22.39.22.39l.19-.36,5.8-.03-.48.38c.64.19.84.47.78-.38h9.26s.1.96.1.96l.32-.94c3.12-.13,6.25.11,9.36.13,1.8.01,4.48.11,6.06-.07.89-.11,1.59-.42,1.36.69l.77-.19-.1-.58,14.11-.02c.73.75,1.96.02,3.08,0,.52,0,1.71-.09,1.74.4.52-1.07.89,0,.97,0,.22-.01-.06-.48.29-.39,0,.26-.09.45.19.39l.12-.4h9.03c.39.85.25.13.35.06.22-.14,3.52.08,4.12.08,1.95,0,3.8-.07,5.79.06.51.03,1.05-.42,1.16.2.19-.73,1.53-.05,2.22-.39l-.1.39c.44.13.14-.41.56-.4l11.03.05.18.35.22-.4h5.55c.39.85.25.12.35.06.12-.07,2.39,0,2.78.05.62.06.94.15,1.53.1.77-.06,1.54-.19,2.32-.21,1.2-.03,4.66-.14,5.61.05.16.03.01.41.18.35.41-.78,3.81-.06,3.96-.19-.2-.36-.27-.42.19-.39.18-.11-.58-.23-.34-.68.14-.27.58.22-.05-.79v-4.33c-.33.17-.22.35-.69.56-1.91.84-3.91,1.2-5.79,1.81-.04.01-.54.48-.57.49-.39.07-1.7.26-1.45-.44.12-.33.77-.11.93-.17,1.58-.57,3.53-1.42,5.19-2.04,1-.38,2.23-.41,2.77-1.46.06-.17-.33-.03-.36-.18-.02-.09.05-1.58.07-1.75.02-.21.27-.32.29-.39.05-.14-.61.02-.19-.48-.65-.17-.2.47-.51.58-.9.33-1.98.57-2.88.95l-.47-.38.19.58c-.92.2-1.82.57-2.71.88-2.62.92-5.67,2.29-8.51,3.27-.57.2-2.35.85-2.82.87-1.63.06.3-.89.83-1.13,4-1.74,8.76-3.27,12.66-4.72.59-.22,1.26-.31,1.8-.71l.09.38h.19c.07-.85,1.4-.6,1.86-.95s.04-2.32.08-2.92c-.24-.21-5.07,1.97-5.94,2.08-.96.13-1.07-.37-.11-.66.74-.22.41-.26.76-.42,1.68-.74,3.51-1.21,5.24-1.82.32-.48-.07-3.12.04-3.24.1-.1.64.18.58-.19l-38.63,13.9c-.13-.39.33-.56.6-.66,1.31-.52,2.9-1.41,4.43-1.94.26-.09,1.51-.51,1.63-.5.15,0-.01.61.49.4-.39-.64-.05-.64.58-.87,3.56-1.3,7.5-2.69,11.19-4.06,2.15-.8,4.3-1.9,6.48-2.6.35-.11.33.08.13.29.53.4.21-.35.48-.5,1.26-.67,3.72-1.19,5.2-1.72.29-.1,2.32-1.09,2.41-.97.09.12-.19.64.19.58,0-.23,0-.5.18-.68.14-.14,2.2-.5,2.48-.62.22-.1.21-.35.39-.43.27-.12,1.15-.09,1.21-.33.2-.73-.08-2.71-.02-3.62.87-.42.11-.24.03-.34-.11-.13.44-.77-.15-.91-3.06-.74-6.12-1.62-9.2-2.16-1.45-.42-3.56-.84-5.34-1.26-.99-.23-1.54-.23-2.43-.37-3.85-.59-8.11-2.1-11.99-2.6-.65-.08-2.08.3-2.01-.4l-1.06.77c.29.29,1.09.35,1.33.56s.08.54.12.6c.02.02.32-.18.58-.11.68.18,1.32.92,1.83,1.28.34.24,1.32.55,1.54,1.14.08.21-.34,1.34.46.73.09-.07-.09-.42.23-.33-.08.38.52.88.52,1.06.01.24-.36.48-.41.67-.07.25.12.49.09.65-.04.21-.46.05-.4.22.16.43,1.05.35.58.86.87.01,1.02.72.92,1.45-.2,1.45-2.42,2.23-3.32,3.31-3.98,2.43-7.65,5.94-11.85,8.56-.52.33-.97.17-1,.21-.68,1.08-1.13,1.15-2.24,1.92-1.21.84-2.7,1.9-4.08,2.69-.26.15-.98.6-1.08.65-.29.14-.52-.05-.68,0-.03,0-.03.29-.17.32-1.46.34-7.81-2.08-9.65-2.67-2.06-.65-4.45-1.54-6.68-2.21-3.48-1.05-7.02-1.89-10.49-2.98-.68.94-3.44,1.35-4.41,1.05-.15-.05-.39-.22-.32-.33,1.13-.16-.11-.47-.17-.37-.07.12.04.47-.03.54-.23.23-2.56-.39-2.94-.6-.51-.29-.95-1.36-1.38-1.42-.25-.04-.76.16-1.17.13-6.54-.51-13.1-.39-19.31-.89-2.16-.17-4.32-.5-6.47-.77-1.46-1.72,1.48-2.4,2.21-3.38.12-.16-.1-.63,0-.96.41-1.36,1.84-2.06,2.81-2.84,2.95-2.37,6.12-4.6,9.52-6.47,2.2-1.21,4.55-2.13,6.79-3.24,1.46.36,1.36.85.34,1.72-.9.77-2.12,1.01-3.04,1.75l-.29-.38c.14.62-.57.85-1.06,1.16-1.29.81-2.84,1.42-4.11,1.99s-2.27,1.59-3.48,2.45c-.72.51-1.49.81-2.19,1.43-.19.16-.49,0-.36.5,3.76-.77,7.66-.9,11.49-.57,1.82.16,3.89.43,5.47.9,1.79.54,4.78,1.74,6.32,2.76.31.2,1.26,1.32,1.54,1.28,3.09-1.98,7.78-1.58,11.26-.95,4.92.89,10.62,2.9,15.17,5.49.53.3,3.14,2.22,3.34,2.26.5.1,1.26-.79,1.67-.98.21-.1.5.06.51.04.07-.11-.09-.42.13-.59,4.64-3.48,9.78-6.76,14.19-10.3l5.93-3.68c.09-.67-2.17-1.29-1.89-2.03l-.29.38c-.39-.54-1.3-.58-1.72-.96-.11-.1-.06-1.15-.41-.2-.67-.79-3.68-.99-3.95-1.85-.15-.46.85-1.05,1.14-1.4,3.54-4.25,4.71-8.51,4.53-14.04-.02-.69-.43-3.91-.86-4.35-.23-.24-.43.1-.46.37-.15,1.35.19,3.12.16,4.55-.01.5,0,1.53-.07,1.91-.03.15-.37.12-.36.21.27,4.77-2.61,9.66-6.53,12.25-.88.58-1.98,1-2.86,1.58l-.29-.38c-.02.27-.15.53-.39.67-1.97,1.15-7.15,2.1-9.37,2.06-.1,0-.06.33-.21.36-.07.02-1.35-.06-1.41-.09-.61-.31-.24-.81-.3-1.17-.1-.56-.36-1.3.08-1.91.17-.24.57-.02.76-.14.21-.13.29-1.46,1.39-.94-.13-.33-.51-.41-.75-.7-.16-.19-.19-.63-.22-.65-.07-.05-1.37.54-1.53.69-.93.85-1.44,3.52-.98,4.72-.95.02-3.7.13-4.17-.86-.34-.71-.64-4.21.88-3.87-.98-.91.98-.98.48-2.02-.36-.73-1.36.13-1.74.56-1.18,1.35-1.23,3.75-.86,5.41-1.16.21-3.11-1.49-3.4-2.51-.02-.06-.07-1.2-.05-1.26.06-.18.44.04.35-.28-.29.02-.41.04-.39-.27.13-1.58,1.12-3.46,2.13-4.65.18-.22,1.34-1.46,1.44-1.45.21,0,.18.64.48.57,0-.32-.22-.56-.02-.88.52-.82,3.64-1.82,4.66-2.12.76-.22,2.93-.89,3.56-.88.2,0-.02.5.3.4.09-1.03,1.84-.53,2.22-1.16.24-.39.07-1.12.24-1.5.05-.11.61-1.23.65-1.29.14-.22.51-.28.53-.33.08-.15.47-2.74.56-3.21.12-.62-.26-1.4.63-1.2.07-.39-.54-.02-.59-.3-.09-.51.09-1.27.01-1.82l.77.29c-.48-.67-.85-.69-.78-1.64-.57-.47-1.85,6.3-2.02,6.78-.27.78-.94,1.63-1.39,2.35-.19.3.17.81-.84,1.21-6.33,1.05-13.48,3.59-13.85,10.93-.02.32.16.63.13.95-2.17-.64-1.19-3.3-.58-4.83-.08-.12-2.44-.35-2.81-.43-.11-.03-.05-.31-.18-.31-.11,0-.32.17-.54.13-.78-.16-.78-.95-1.3-1.41l.38-.29c-.92-.41-1.39-1.54-2.2-2.24ZM144.69,106.89l-.38-.38c-.06.4-.02.44.38.38ZM64.91,109.02c-.55-.36-.23.41-.26.66-.09.82-.34,1.64-.39,2.47-.02.3-.22.48.17.73.12-.75.41-1.49.59-2.22.06-.23-.1-.53-.08-.58.03-.11.34-.1.37-.19.04-.16-.33-.82-.39-.86ZM103.84,111.72v.19c.13-.06.13-.13,0-.19ZM148.75,115.97c-.27-.14-.52.12-.38.19.27.14.52-.12.38-.19ZM15.86,120.2l-.11-.57c-.09.83-.3.57-1.06.58l.38,2.24c1.6-.35,3.17-.14,4.76-.28.39-.03.28-.02.27.36l-5.41.78c.33.66.16,1.41.19,2.12,2.8-.6,5.82-1.39,8.69-1.24.34.02.19-.04.2-.3l.2.48-8.74,1.64c-.56.18-.49,2.38-.34,2.51.27.25.51-.09.19-.38.67-.27,1.09-.07,1.65-.03.09,0,.03-.31.36-.38,2.3-.45,5.05-1.07,7.35-1.13.32,0,.51.16.29.38-.39.39-6.12,1.05-7.07,1.53l-.08-.37h-.19c.07.58-.83.43-1.26.58l-.19-.58c-.41.17-.04.73-.1.77-.11.08-.88-.08-.96,0s-.07,2.21,0,2.32c.72-.19,5.35-1.5,5.57-1.32.1.08-.1.43.22.35.03-.17-.09-.53.09-.56,1.96-.28,3.9-.86,5.86-1.15.37-.05.59.14.73.14.08,0,.09-.68.47-.36.07.05-.15.47.19.38-.07-.52.52-.33.77-.67-.22-.21-.46-.27-.64-.53-.86-1.23-1.87-3.5-2.23-4.73-.16-.55-.21-1.94-.59-2.27l-9.46-.3ZM127.19,141.15c.53-.37,2.18-1.15,2.23-1.75.03-.38-1.42-1.31-1.85-.88-5.72,4.23-11.56,8.24-17.37,12.3-.49.35-1.21,1.1-1.74,1.43-.84.54-1.8,1.49-2.77,1.08-.31-.13-4.71-2.8-4.92-3-.25-.24-.33-.4-.31-.76h-.19c-.01.1.03.32-.02.37-.19.16-4-1.77-4.62-2.01-2.99-1.17-6.87-2.22-10-2.56-2.37-.26-5.09-.63-7.32.31l-1.61,1c.41.06,1.04.06,1.4.2.17.07.26.84.35.01l1.83.15c.21-.53,2.87-.43,3.4-.25.41.14.39.73.73.46.17-.13-.28-.44.87-.37,1.64.1,7.3,1.47,8.67,2.16.23.12.33.29.33.54h.19c-.02-.28-.04-.47.27-.37,1.9.99,3.97,1.66,5.87,2.63.87.45,1.41,1.35,2.55,1.32l3.78,2.4c.09,0,.08-.28.22-.37,4.34-2.52,8.26-5.79,12.37-8.69.53-.37,2.91-2.08,3.29-2.26.43-.21,1.03-.22,1.21-.35.17-.12.12-.48.32-.69.75-.75,1.95-1.42,2.83-2.04ZM59.36,141.41c-.5-.26-3.76-.01-4.99-.11-.07,0-.07.33-.46.47-.67.24-1.47.32-2.14.09l.2.38c-.59-.27-2.83.75-3.06.55-.1-.09.1-.43-.22-.35v1.73c5.32-.73,10.55-1.37,15.91-.54.76.12,2.66.3,2.83.94.33.08.12-.29.21-.36.04-.03.54.26.76.17l-.2.77c-.67-.16-1.47-.52-2.1-.66-.44-.1-1.34.35-1.37-.5h-.19c0,.1.03.28-.04.34-.27.23-5.96-.47-7.02-.43-.85.03-2.2.46-3.1.39-.36-.03-.31-.67-.6.09-1.55-.09-3.33.5-4.8.58-.33.02-.47-.2-.29-.39.07-.07.46.16.38-.19h-.96c-.09.34.43.09.39.29-.09.4-.52.38-.58.68l17.45.57.51.78v-.77c1.63.62,3.53-.11,5.22.58-.03-.23.13-.44-.13-.58s-2.03-.44-2.16-.6c-.1-.11-.21-.78.26-.75,2.06.11,3.87,2.3,6.08,1.74-.4-.17-.69-1.23-.76-1.26-.22-.12-.52.11-.91-.03-.6-.22-1.72-1.23-2.24-1.54-.27-.16-.82.15-.72-.44-.35-.09-.06.27-.29.38-2.25-1.15-5.07-1.57-7.59-1.87-.51-.06-3.13-.04-3.27-.12ZM124.12,144.17v.19c.13-.06.13-.13,0-.19ZM121.03,146.49v.19c.13-.06.13-.13,0-.19ZM121.9,146.49c-.27-.14-.52.12-.38.19.27.14.52-.12.38-.19ZM121.42,146.87v.19c.13-.06.13-.13,0-.19ZM89.21,148.29c-.88-.26-4.44-.76-5.46-.84-.8-.06-1.61.04-2.41,0l.19.29c4.33,1.32,8.78,2.17,13.1,3.51,1.37.42,3.7,1.05,4.92,1.61.14.06.17.24.14.38.34.08.12-.32.19-.38.05-.05.96.61,1.35.38l-1.79-.97c-3.14-1.76-6.79-2.98-10.23-3.98ZM108.28,155.76v.19c.13-.06.13-.13,0-.19ZM28.51,160.78l-.29.29c0,.2.48-.11.29-.29ZM137.16,161.94c.14-.27-.12-.52-.19-.38-.14.27.12.52.19.38ZM9.77,174.3v.19c.13-.06.13-.13,0-.19Z"/>
        <path d="M105.75,62.58c1.96,1.56,2.11,3.82,1.64,6.14-.44,2.19-1.88,4.5-4.42,3.9-1.5-.35-2.21-2.73-2.32-4.07-.19-2.31,1-7.26,4.11-6.61.78.16.6.32.99.64Z"/>
        <path d="M71.79,69.28c-.03-.07-.23-.06-.26-.15-.22-.73-.35-2.35-.26-3.1.04-.33.31-.26.34-.32.06-.11-.33-.41.25-.34v-.19s-.37-.08-.37-.08c.21-1.77,1.19-2.9,2.5-4.07,5.82-1.03,4.33,11.09-.47,10.32-1.23-.2-1.36-1.19-1.73-2.06Z"/>
      </g>
      <g>
        <path d="M37.49,97.42l-7.53,2.71c.32.42,1.37.82,1.89.91.15.03,1.62-.16,1.74-.2.02,0,.05-.27.31-.35.97-.29,2.05-.51,2.92-.94.22.11-.06.47.28.38-.07-.49,1.06-.65,1.5-.72,4.35-.75,10.31-.6,14.61.33.23.05.1.42.12.59.31.09.14-.28.23-.32.08-.04.36.08.53-.06-.06.96.14.34.87.37.9.04,1.04.53,1.11.55.13.04.32-.16.43-.15.21.02-.2.62,1.06.08.96-.41,1.29-.67,2.39-1.05.17-.06.14-.35.26-.38,1.53-.34.63,2.02-.32,2.42-.24.1-.55-.13-.57-.11-.04.05.11.39-.12.6-.49.44-3.15,1.21-3.94,1.44-1.02.3-2.54.67-3.78.85-1.81.26-3.79.14-5.59.59.13-1.39-.35-.2-.41-.18-.41.08-.81-.13-1.14-.11-1.73.12-3.15.16-4.98.02-1.04-.08-4.48-.4-5.22-.72-.24-.11-.32-.3-.33-.55-.32-.11-.1.42-.28.38-.66-.14-1.13-.76-1.2-.77-1.31-.17-1.71-.26-2.91-1.1-.97-.68-1.65-1.34-1.36-2.62.37-1.63.82-.17.98,0,.04.04.86.47.91.44.02-.01-.08-.26.24-.44,2.24-1.32,4.04-1.93,6.63-1.96.23,0,.4-.6.67.09Z"/>
        <path d="M59.89,110.95c-.61.45-.6,1.08-1.15,1.65-.47.49-4.29,3.35-4.64,2.98-.04-.31.22-.92.43-1.09.05-.04.27.06.43-.06.75-.56,1.62-1.14,2.32-1.75.43-.37,1.48-1.73,1.65-1.84.34-.21.64.1.96.11Z"/>
        <path d="M59.31,114.42c.67.65-3.05,3.86-3.8,3.99-.21.04-.57-.19-.64-.13-.05.04.05.77-.52.94-.28.08-.84-.01-.83-.26s3.21-2.32,3.76-2.81c.36-.32,1.66-2.1,2.03-1.73Z"/>
        <path d="M59.89,107.47c.18.9-.36,1.31-.98,1.82-1.45.53-2.76,2.07-4.04,2.72-.26.13-.54.01-.58-.2-.13-.63,2.57-1.94,3.03-2.28.51-.39,1.21-1.35,1.82-1.76.23-.16.44-.36.76-.3Z"/>
        <path d="M56.15,119.95c.5-.34,1.03-.72,1.52-1.09.12-.09,1.35-1.61,1.45-.86.14,1.01-5.11,4.43-5.41,4.25-.31-.22-.17-.36-.05-.63.33-.72,1.83-1.22,2.48-1.67Z"/>
        <path d="M31.25,107.55c.22.1,1.35.8,1.44.84.17.06,1.05-.22,1.56.08.7.41-.04,1.13-.15.36-.73.92-1.61-.06-2.31-.29-.31-.1-.74-.01-1.11-.15-.27-.1-2.71-1.51-2.28-1.88.97-.2,1.48.6,2.25.95.24.11.46.03.59.09Z"/>
        <path d="M34.01,118.67c-.68.91-3.95-1.46-4.44-2.22.35-.48.31-.14.6-.03.75.29,1.41.81,2.12,1.17.18.09,2.16.49,1.72,1.08Z"/>
        <path d="M32.66,114.23l-.2.38.77-.19v.58c.35.08.13-.33.19-.38.32-.26,1.03.65.09.78-.61.09-2.62-.83-3.21-1.19-.24-.15-.99-.61-.93-.94l3.28.97Z"/>
        <path d="M56.8,107.27c-.63-.65,2.75-2.7,3.28-2.9.19.85-3.05,3.13-3.28,2.9Z"/>
        <path d="M58.54,121.57c-.42.43-.75,1.01-1.16,1.45-.38.4-1.83,1.82-2.21,2.04-1.09.63-2.47.32-.79-.6.6.09,3.79-3.22,4.16-2.89Z"/>
        <path d="M34.01,121.57s.02.56,0,.58c-.54.56-3.54-1.26-3.67-2.12,1.04.03,1.75.97,2.76,1.39.31.13.88.12.91.15Z"/>
        <path d="M32.46,111.14c.08.36-.37.06-.39.29,0,.11.52.16.39.48.38.06.1-.48.19-.58.06-.07,1.73.29,1.73.49-.13.11-.25.32-.39.39-.43.2-2.6-.43-3.14-.69-.11-.05-.12-.29-.18-.33-.11-.08-.47.5-.35-.43l-.29.38c-.62-.56-1.3-.58-1.45-1.54l3.86,1.55Z"/>
        <path d="M56.22,107.27c.41.42-1.64,1.87-2.12,1.74-.16-.14.97-1.22,1.09-1.32.19-.14.85-.6,1.03-.42Z"/>
      </g>
    </g>
  </g>
</svg>