<?xml version="1.0" encoding="UTF-8"?>
<svg id="Layer_2" data-name="Layer 2" xmlns="http://www.w3.org/2000/svg" viewBox="0 0 177.2 172.37">
  <g id="Layer_1-2" data-name="Layer 1">
    <g>
      <path d="M149.27,24.03c.12.12.24.47.23.64,0,.56-1.89,3.51-2.46,4.04l-11.23,19.42-.56-.38c-.26.5.39.62.38.66-.04.14-.79,1.37-.96,1.67-1.64,2.86-3.57,5.81-4.81,8.54-.82.72-.96,2.5-2.4,1.57-1.68-1.09-4.59-4.65-6.08-6.27-.34-.37-.99-.47-.96-1.23l-6.48,5.02c-1.25.55-1.5.52-1.89-.75.74-.17.1-.21,0-.76-.12-.69-.33-3.43-.2-3.96.05-.22.47,0,.38-.31-.95.27-.51-1.26-.57-2s-.2-1.66-.38-2.38l.57-.19c-.86-.12-.56-1.66-.77-2.33-.04-.12-.24-.15-.35-.31-.18-.28.3-.57-.59-.22l.19-.38c-1.05-.25-2.03-1.33-2.9-1.96-2.47-1.78-6.25-3.86-8.32-5.93-.66-.66-.94-1.71.14-1.95,1.9-.41,4.43-1.1,6.25-1.37.56-.08,1.92.25,1.98.18.06-.07-.14-.49.12-.58.06-.02.97-.19,1.01-.16.08.07-.12.44.2.36-.1-.44.82-.55,1.23-.66,6.18-1.69,13.04-2.75,19.34-4.14,2.05-.45,4.14-1.04,5.8-1.46.58-.15,1.43-.09,2.07-.4l.46.4c.02-.16-.11-.53.12-.58,2.85-.59,5.74-.95,8.55-1.72l.46.39c.02-.16-.11-.54.11-.58.52-.09,1.97-.29,2.32.06ZM142.97,32.68c.99-1.69,2.04-3.49,3.08-5.22.18-.3.67-.86.52-1.2-1.49.98-3,1.93-4.45,2.96-4.18,2.96-8.11,6.62-12.57,9.02.53.55-.69.68-.9.83-3.02,2.23-6.07,4.53-9.08,6.77-.75.56-1.4,1.27-2.19,1.8,2.23,2.65,4.88,4.92,7.21,7.43.37.4.76.02.4.84l.57-.19c-.51,1.09.03.56.68.94.32.19,1.54,1.72,1.7,1.72.47-.5.88-1.23,1.2-1.84,1.56-2.92,3.2-5.92,4.81-8.67,1.32-2.27,3.44-6.54,4.94-8.39.22-.27.41-.31.74-.3l-.38-.28c1.31-1.93,2.27-4.06,3.43-6.05.06-.11.27-.13.3-.18ZM143.04,26.65c-1.35.16-2.65.55-3.97.84-6.66,1.46-13.49,3.09-20.36,4.58-2.72.59-6.28,1.02-8.66,1.75-.26.08-1.92.51-1.99.44-.1-.1.26-.74-.38-.57l.19.76-6.84,1.24c1.01.77,2.07,1.48,3.11,2.22.62.44,1.17.76,1.71,1.14.63.44,4.87,3.35,5.03,3.62.04.06-.18.32-.16.34l1.38.55,22.67-12.52.28.38c0-.21-.07-.43.12-.59.43-.36,2.09-.9,2.71-1.24l5.15-2.92ZM134.3,33.11c-.17-.14-3.26,1.81-3.71,2.09l-.28-.57c.12.78-.06,1.16-.57,1.71l4.21-2.74c.26,0,.55-.33.36-.49ZM128.92,37.05c.12-.13.56-.89.34-1.08-.74.36-1.73.7-2.3,1.32-.2.22-.23.52-.39.76-.21.31-.63-.02-.26.77l-.57-.19c.19-.66.73-.42.38-1.14-.29,0-.29.43-.41.53-.08.06-.59-.18-.69-.1-.19.15-1.05.97-1.22,1.05-.08.04-.32-.16-.34-.15-.06.06-.26,1.23-.48,1.54-.14.19-.81-.2-.34.36.21.25.33-.01.06.76.24.24,1.55-1.08,1.72-1.22.22-.18.55-.2.7-.34.21-.21.38-1.03.44-1.08.19-.14.67.25.9.15.05-.02.53-.76.76-.92.42-.3,1.37-.66,1.7-1.01ZM122.7,39.58c-.3-.07-.44.06-.67.18-.33.18-2.38,1.4-2.48,1.51-.63.69-1.05,2.71-1.41,3.63l3.17-2.15,1.39-3.17ZM119.09,41.67c-.68.17-2.94,1.27-3.32,1.71-.42.49-1.77,4.29-2.16,5.24-.15.36-.5.87-.5,1.42,0,1.53.44,3.33.29,4.93l.56-.71c.47-2.54,1.61-3.75,1.72-6.42.06-1.55,1.15-1.66,1.69-2.49s.54-2.34,1.08-3.1c.24-.34.62-.26.66-.58ZM114.71,44.14c-.07-.1-2,.89-2.07,1.07-.27.75.62,2.43.17,3.3.57.1.3-.15.4-.44.45-1.34.99-2.62,1.5-3.93ZM118.46,50.85c-.26-.26-.77-.45-1.07-.74-.37-.37-.57-.93-.97-1.21-.32,1.05-.69,2.37-1.09,3.38-.08.21-.35.2-.42.38-.32.8-.47,1.89-.96,2.7.61.11.74-.5,1.07-.73.39-.27,1.93-1.03,2.11-1.22.08-.08.61-1.74.71-2.06.08-.24-.04-.34-.09-.55.76-.02.59.69.36,1.18-.12.27-.5-.05-.17.71.44-.27.75-.75,1.33-.76-.49-.24-.61-.88-.81-1.08Z"/>
      <path d="M127.97,98.4c.1.05-.02.34.15.31.18.03.04-.28.13-.34.4-.26,6.32.9,7.31,1.08.54.1,1.5-.27,1.41.4.17.24.21-.93.46-.03,1.45.14,3.1.19,4.52.47,3.61.7.77,1.94-.7,3.18-1.25,1.06-4.39,4.13-5.56,4.76-.34.18-.61.02-.81.09-.66.21.36.25.1.48-1.78,1.56-3.7,2.99-5.46,4.57-1.93,1.74-3.73,3.68-5.66,5.41-.45.4-2.1,1.9-2.48,2.08-.19.09-.43.15-.65.11s.01-.48-.3-.39c.09.66-.28.19-.76.09-2.7-.59-5.43-1.01-8.03-1.66-.5-.13-1.73-.21-1.67-.71-.31-.11-.11.39-.27.37-1.25-.52-3-.61-4.23-1.1-.22-.09-.29-.17-.26-.41-.31-.09-.1.28-.28.35-.39.14-4.06-.87-4.3-1.24-.61-.93.77-2.15,1.41-2.85,3.97-4.31,9.23-8.76,13.52-12.62.57-.51,1.22-.93,1.72-1.51l.28.76c-.2-1.13,1.87-3.05,2.92-3.03.91.02,6.87,1.04,7.49,1.39ZM123.99,98.94c-.09-.04-.49.16-.8.13-.83-.09-2.43-.68-3.09-.3-3.46,3.37-7.11,6.5-10.75,9.64l-7,7.02,5.7,1.14-.19.57h.57c-.05-.18-.41-.43.09-.37,3.8.4,8.03,1.94,11.83,2.6.61.04.6-.42.67-.46.09-.04.32.16.34.14.03-.04-.09-.35.13-.58,2.6-2.87,7.28-6.71,10.29-9.29s6.08-4.94,9.16-7.33c-.72-.33-1.57-.2-2.33-.33-3.68-.61-11.81-1.39-14.63-2.57Z"/>
      <path d="M138.67,73.42c-.15.35,0,.68-.21,1.02-.09.14-1.67,1.78-1.78,1.84-.29.17-.53.21-.87.18l.57.28c-.07.17-1.24,1.05-1.47,1.29-1.87,2-3.7,4.36-5.66,6.41-.81.85-2.28,2.52-3.13,3.14-.26.19-.38.36-.77.28-.04-.35.2-.6.38-.85.35-.49,3.91-4.26,4.27-4.49.33-.21.67.37.31-.53.51-.4,1.54-1.13,1.5-1.74l.34.16c.75-1.02,1.55-2.07,2.41-3.01,1.01-1.1,2.36-2.62,3.42-3.61.21-.19.32-.46.67-.38Z"/>
      <path d="M105.72,95.24c-.09.18-.81.83-.97,1.04-.75,1.04-1.79,2.55-2.36,3.71-.82,1.68-1.47,3.79-2.07,5.57-1.36,1.31-.86-2.49.31-2.29l-.57-.28c.88-2.09,1.74-4.22,3-6.12.27-.41,1.8-2.34,2.13-2.44s.69.46.52.81Z"/>
      <path d="M131.52,76.72c-2.1,2.24-4.2,4.46-6.28,6.65-.47.49-1.13,1.57-1.57,1.94-.56.47-1.15.3-.77-.35.33-.56,2.55-2.87,3.13-3.39.15-.13.42,0,.44-.02.25-.29.14-1.32.98-1.1-.36-.48.05-.34.39-.66.23-.22.04-.67.55-.29.92-1.59,2.58-3.33,3.92-4.73.52-.55,2.2-2.41,2.72-2.57.34-.11.47.46.4-.68l.57.47c-1.42,1.65-3,3.15-4.49,4.73Z"/>
      <path d="M148.24,79.16s.09.42-.13.53l-8.48,9.12-.38-.47c.67-1.01,1.62-1.76,2.4-2.63,1.7-1.88,3.46-3.9,5.09-5.65.92-.98,1.88-1.93,2.77-2.94,1.13.48-.96,1.68-1.27,2.04Z"/>
      <path d="M124.98,70.76c.23.8-.13,1.56-.46,2.29-.37.82-1.18,1.68-1.57,2.31-.06.1.03.59-.25.96-.33.44-1.08.98-1.43.33s.18-.52.28-.71c.67-1.18,1.45-2.34,2.02-3.34.31-.53.35-1.76,1.41-1.85Z"/>
      <path d="M119.84,78.75s-.06.22.1.33c.02.01.46-.13.47.14.01.25-1.94,3-2.27,3.39-.14.17-.43.09-.52.18-.3.3-.51,1.08-1.21,1.53-.64.42-.89-.42-.72-.78.02-.04.26-.06.34-.18.56-.87,1.21-1.69,1.84-2.51.21-.27.48-.52.7-.82.2-.27.45-.56.51-.9l.57.95c-.25-.34-.37-1.72.19-1.32Z"/>
      <path d="M140.59,76.67s.15.47-.04.62c-2.56,2.35-4.72,5.66-7.31,7.92-.87.76-.36.32-.98,1.28-.19.29-3.17,3.54-3.39,3.67-.3.18-.52.22-.87.18.92-1.38,2-2.68,3.11-3.92,1.5-1.69,3.21-3.44,4.71-5.08,1.91-2.08,3.82-4.16,5.77-6.2.94.96-.72,1.3-1.02,1.54Z"/>
      <path d="M114.71,85.21c.06.07-.48,1.12-.66,1.34-.31.37-2.17,2.21-2.53,2.47-.73.51-.84-.18-.61-.83.25-.68,2.4-2.83,3.04-3.08.18-.07.72.06.75.1Z"/>
      <path d="M144.48,78.28c-1.67,2-3.63,3.76-5.37,5.66s-3.78,5.05-5.76,6.5c-.18.13-.59.46-.77.28-.4-.4,1.63-2.15,1.9-2.43.19-.2.56-.92.61-.95.06-.04.32.17.34.16.06-.06.32-.59.7-1.02,2.5-2.82,5.17-5.51,7.62-8.17.24-.26.5-.93.91-1.27.08-.07,1.03-.87,1.04-.29,0,.15-1.01,1.29-1.22,1.54Z"/>
      <path d="M109.77,89.77c.02.28.22.44.1.75-.16.42-2.38,2.72-2.81,2.91-.3.13-.58.18-.9.14-.33-.3,2.95-4.29,3.61-3.8Z"/>
      <path d="M97.79,44.52c.12.11-.88,1.55-1.01,1.66-.29.24-.66.04-.68.07-.09.1-.05.48-.39.85-.3.33-2.76,2.27-3.05,1.98-.16-.16.12-.59.27-.78.59-.71,1.9-1.49,2.62-2.08.3-.25,1.81-2.11,2.24-1.7Z"/>
      <path d="M98.82,51.45c-.79.47-2.11,1.5-2.86,1.8-.95.38-1.53.27-.63-.63l4.65-2.77.28.76c-.57-1.19,1.68-1.85,1.71-1.04.01.31-2.71,1.63-3.15,1.89Z"/>
      <path d="M126.45,68.61c-.05.06-.48.25-.5.23-.57-.78-.11-1.44.19-2.32.04-.12.28-.15.3-.19.06-.14-.04-.87.31-1.23s.83-.4.77.28c-.04.52-.78,2.87-1.07,3.22Z"/>
      <path d="M137.47,91.42c-.39.33-1,.26-.89-.22.05-.23,2.17-2.42,2.37-2.38.23.21.37.24.2.57-.06.12-1.56,1.92-1.68,2.03Z"/>
      <path d="M122.64,101.24c.14.08.17.41.34.51l-.1-.57c.35,0,.69-.04,1.04.01.54.08,4.45,1.01,4.72,1.13.16.08.16.22.14.37.34.09.06-.27.28-.38.37.44,3.34.55,3.52.76.54.66-1.13.81-1.59.75-1.54-.21-3.72-1.07-5.36-1.4-1.21-.24-2.46-.52-3.7-.49.12.36.41.12.52.7.36,1.8.32,3.78.81,5.57.31.22,5.4-3.47,6.61-3.57.22-.02.62.01.61.24-.01.48-4.32,2.43-4.85,3.14l-.28-.38c-.35.91-1.52,1.34-2.39,1.68-.51-.05-.62-2.43-.7-2.88-.05-.29-.28-.45-.34-.61-.02-.05,1.07-.43,0-.38.06-1.24-.86-2.82-.74-4.01.07-.69,1.02-.47,1.45-.21Z"/>
      <path d="M122.7,111.06c-.15.2-4.16,1.22-4.8,1.41-1.61.47-3.56.96-5.32,1.5-1.21.37-2.07,1.15-3.57.9l.63-.61c3.81-1.35,7.74-2.43,11.63-3.59l.29.39c-.34-1.1,1.5-.47,1.14,0Z"/>
      <path d="M123.08,113.53l-7.56,2.44-1-.25,1.23-.67c1.84-.66,3.8-.97,5.66-1.57.54-.18,1.45-1.17,1.67.05Z"/>
      <g>
        <path d="M55.33,137.24c-1.96,1.61-3.96,3.2-5.9,4.84-.84.71-1.87,1.89-2.97,2.7-.15.11-.5-.36-.38.5l-.38-.19c.19.8-1.09,1.06-1.46,1.39-2.43,2.19-4.82,4.62-7.35,6.72l-1.84,1.2c-.4-.45,1.67-2.14,2.04-2.48,2.58-2.36,5.52-4.73,8.26-7.04.2-.17.52-.46.54-.74l.38.38c-.04-.63.46-.93.85-1.34,1.53-1.59,4.14-3.69,5.9-5.12.27-.22,2.14-1.71,2.28-1.71.32,0,.31.71.03.89Z"/>
        <path d="M42.08,130.27c.14.14-.13.75-.37.86-6.03,4.93-11.97,9.98-17.97,14.92-.59.49-1.64,2.15-2.38,1.42,1.24-1.31,2.67-2.36,4.03-3.53,4.29-3.7,8.69-7.57,13.08-11.12.38-.31,3.42-2.76,3.62-2.56Z"/>
        <path d="M51.78,135.21c.08.36-.2.45-.38.67-.52.62-1.62,1.51-2.28,2.09-5.22,4.63-11.12,10-16.54,14.26-.14.11-1.93,1.62-1.9.76.01-.3,1.7-1.39,2.02-1.68,2.41-2.22,6.08-5.97,8.71-7.74.29-.2.7-.12.82-.22.21-.17.66-1.1,1.47-1.68,2.09-1.5,4.34-4.1,6.65-5.88.52-.4.76-.53,1.42-.58Z"/>
        <path d="M48.36,133.69c.08.62-.55,1.04-.95,1.43-2.23,2.17-5.23,4.3-7.64,6.38-2.68,2.31-5.43,4.82-8.07,6.99-.76.63-3.11,2.77-3.77,3.08-.36.17-.36.3-.68-.11l21.1-17.77Z"/>
        <path d="M45.31,131.79c.15.14-.21.59-.31.74-.31.44-4.08,3.86-4.39,4.02-.25.13-.58,0-.6.02-1.14,1.45-3,3.05-4.52,4.31-.85.71-1.81,1.3-2.66,2.01-.4.33-.47,1.12-1.4.88-.07-.39.04-.5.28-.76.18-.19,2.06-1.75,2.2-1.81.39-.17.71.15.75.1.06-.07-.16-.37-.09-.58.04-.11.96-.92,1.19-1.12,2.03-1.83,4.23-3.48,6.32-5.24.8-.67,1.63-1.69,2.46-2.29.18-.13.57-.46.77-.28Z"/>
        <path d="M59.38,142.06c.13.13-.78,1.07-.95,1.24-2.78,2.72-6.13,5.35-9.06,7.96-.49.44-5.8,5.66-6.15,5.25-.13-1.01.85-1.17,1.43-1.72,1.24-1.16,2.46-2.57,3.81-3.6.45-.34.81-.65,1.42-.58l-.38-.38c.14.01.28-.04.38-.14.85-.94,3.26-3.3,4.26-3.98.31-.21.64.19.37-.4l4.22-3.68c.1-.17.64,0,.67.02Z"/>
        <path d="M57.67,139.02c.28.3-1,1.37-1.15,1.44-.25.11-.51-.16-.56-.11-.06.07.13.34.11.48-.05.28-2.97,2.57-3.46,3.01-3.89,3.5-7.69,7.21-11.76,10.58-.1.08-1.04.78-1.1.8-.62.23-.67-.3-.2-.78.72-.74,2.27-1.84,3.15-2.5.34-.25.17-.72.91-.38l-.11-.57c1.01-.81,2.03-1.63,3-2.48.51-.44,1.5-1.65,1.95-1.92.39-.23.64.05.67.02.03-.03.02-.61.25-.9.34-.43,1.47-.98,1.78-1.26,1.72-1.55,3.42-3.51,5.29-4.88.19-.14,1.1-.71,1.24-.57Z"/>
        <path d="M31.05,143.96c.16,1.13-1.07,1.27-1.65,1.77-1.23,1.08-2.69,2.74-3.99,3.71-.14.1-1.12.89-1.21.31.03-.69.66-.73.88-.92.31-.27,1.5-1.47,1.8-1.55.27-.07.53.13.56.09.04-.04-.33-.84.38-.95l.19.38c0-.68.67-1.17,1.14-1.62.28-.27,1.59-1.42,1.9-1.23Z"/>
        <path d="M145.63,149.4c-.78.7-2.8,2.53-3.55,3.01-.3.19-.56.35-.94.29l.38-.95.38.57c-.2-1.26.25-.78.51-1,.17-.14.22-.44.43-.62,1.43-1.23,3.12-2.18,4.29-3.7.8.63-.98,1.93-1.5,2.39Z"/>
        <path d="M60.9,145.1c.35.35-1.83,2.13-2.19,2.47-1.45,1.35-4.13,4.01-5.79,5.05-.25.16-.36.39-.76.28-.39-.39,1.22-1.36,1.45-1.59.19-.18.28-.53.54-.69l.28.57c-.01-.27-.02-.51.11-.76.22-.42,4.96-4.59,5.59-5.05.17-.13.58-.46.77-.28Z"/>
        <path d="M139.81,149.66c.43.44-1.76,1.88-2.09,2.18-.68.63-1.3,1.44-2.07,1.97-.82.57-.77-.19-.32-.75.25-.31,2.73-2.57,3.11-2.83.22-.15,1.16-.79,1.37-.58Z"/>
        <path d="M149.51,132.17l-.71,1.14c-.39.16-2.95,1.86-3.09,1.71-.5-.54,2.25-2.14,2.68-2.37.19-.1.46.09.53.05.14-.08.12-.68.6-.53Z"/>
        <path d="M146.27,130.46c.36.31-2.24,2.03-2.49,2.16-1.23.67-1.24.08-.34-.72.36-.32,2.47-1.76,2.83-1.44Z"/>
        <g>
          <path d="M87.94,131.74c-.1-.06.09-.41-.22-.33.17.82-.38.47-.95.76l-.19-.76-.1.76c-.69-.74-.19-1.09.61-1.29,1.95-.47,6.3-1.59,8.07-1.32,1.15.18.28.67-.33.88-1.12.39-2.94.5-4.18.75-.59.12-2.34.78-2.72.55Z"/>
          <path d="M99.5,132.17c.67.63-2.75,1.07-2.97,1.12-1.49.31-3.46.69-5.21,1.05-.65.13-1.44.78-1.89.2-.23-.81,1.64-1.3,2.17-1.25.17.02.02.62.5.39l-.19-.57c2.54-.15,5.05-1.42,7.6-.95Z"/>
          <path d="M103.28,135.61s.2.43.2.46c-.01.29-2.89,1.03-3.4,1.15-.42.1-3.32.7-3.5.67-.23-.05,0-.47-.31-.39-.02.16.11.53-.12.58-.5.11-2.5.59-2.73.08-.15-.32,1.03-.78,1.25-.85,1.83-.61,4.34-.87,6.25-1.25.52-.1,1.83-.79,2.36-.44Z"/>
          <path d="M86.49,137.57c.85.61,4.53,3.3,4.74,4.11.08.32-.05.46-.09.75-.71.17-.74-.47-1.1-.76-.84-.69-2.29-1.56-3-2.27-.25-.26-.23-.66-.32-.73-.12-.1-.5-.02-.7-.15-.3-.19-1.55-1.05-1.53-1.32.78-.75,1.38-.08,2.01.37Z"/>
          <path d="M79.73,139.59c.59.49-1.52,2.38-1.87,2.78-.59.68-1.04,1.68-1.93,2.16-.28-.6,1.71-3.24,1.94-3.38.11-.07.15.31.66-.47.04-.07-.12-.25-.08-.29.07-.08,1.18-.89,1.29-.8Z"/>
          <path d="M76.11,139.02c.45.45-1.26,1.56-1.45,1.78-.3.34-1.21,1.93-1.68,1.83-.21-.04-.33-.31-.2-.57.24-.48,2.8-3.56,3.33-3.04Z"/>
          <path d="M82.96,140.92l-2.12,2.73c-.06.3-.62.42-.73.31-.37-.37,2.22-3.58,2.85-3.04Z"/>
        </g>
        <path d="M132.96,151.94c.22.21-.06.46-.23.63-.79.76-1.71,1.16-2.56,1.72-.25.17-.24.93-.82.22l2.74-2.38c.15-.18.79-.26.86-.18Z"/>
        <path d="M92.09,149.66c.07.34-.18.46-.38.67-.23.25-1.6,1.5-1.81,1.63-.19.12-.61.05-.67-.02-.23-.28,1.81-2.17,1.95-2.23.29-.12.6-.04.9-.05Z"/>
        <path d="M134.63,134.14c.06.03.75.92.76.98.04.16.08,2.95.06,3.22-.2,2.75-.9,2.42-3.18,1.65-.67-.22-2.14-.9-2.9-1.29-1.19-.6-3.53-1.74-2.73-3.46.09-.2.76-.8,1.02-.87,1.25-.34,2.07.57,3.02,1.21-.33-1.25.49-2.03,1.74-1.98.25,0,1.99.44,2.21.54Z"/>
        <path d="M121.81,136.67c2.44,2.07,6.49,4.67,8.5,7.05.83.99,1.02,2.35-.47,1.18s-3.26-2.84-4.43-3.85c-.86-.74-1.6-1.65-2.61-2.22.19-.96.04-.31-.53-.59-.8-.4-.78-.85-1.11-1.28-.03-.03-.3.11-.44-.02-.27-.25-1.66-1.43-1.72-1.53-.16-.25-.16-.49.1-.68.8-.57,2.23,1.52,2.73,1.94Z"/>
        <path d="M121.78,145.73c-.96.24-2.88.92-4.29,1.29-.43.11-4.77,1.89-3.64-.02.26-.44,3.4-.89,4.1-1.07.99-.25,4.18-1.36,5.02-1.21,1.04.19.12.9-.47,1.07-.34.1-.56-.1-.73-.06Z"/>
        <path d="M120.8,142.25c-.27.68-.97.78-1.57,1-1.62.59-3.8,1.09-5.23,1.46-.52.13-2.3.74-2.14.02-.37-.09,0,.42-.38.38.06-.22-.17-.56-.15-.67.05-.26,1.96-.69,2.38-.8,1.26-.34,3.03-.85,4.53-1.16.84-.17,1.71-.48,2.55-.21Z"/>
      </g>
      <g>
        <path d="M4.57.29c.07.02.07.48.53.31.23-.35-.76-.07.03-.52l7.11.05c.76.41.44,1.08.61,1.66.1.34.51,1.92.58,2,.21.29,2.72,1.88,3.18,2.03,2.72.89,6.45-.32,7.5-3.14.27-.72.21-2.2,1-2.43l8.82-.12c1.39.22,1.07,1.54,1.41,2.55.9,2.71,4.25,3.9,6.89,3.28.28-.07,2.19-.77,2.28-.86.11-.11.09-.45.23-.61.33-.37.76-.65,1-1.1.45-.86.39-2.79,1.05-3.13.48-.25,3.01-.17,3.54-.05.12.03.3.98.31-.19.44.28.84.09,1.29.13.2.02.4.23.52.26.09.02.08-.38.17-.37.19,0,1.14.42,1.35.35.4-.13-.33-.13.76-.16.67-.02,1.4-.13,2.08,0,.84.16.86,2.25,1.29,3.08,1.05,1.98,3.61,2.95,5.76,2.97.09,0,.06-.31.2-.35.3-.07,1.68.01,1.76-.03.03-.02.18-.47.39-.67.24-.22.5-.09.54-.13.11-.11,1.26-1.44,1.31-1.53.63-1.1.27-3.28,1.78-3.48l9.14.2c1.02.31.61,1.1.84,1.82,1.38,4.29,5.53,4.86,9.1,2.81.21-.12.57-.1.67-.17.02-.01-.1-.27.01-.45.37-.6.85-1.05,1.09-1.77.32-.97.04-2.34,1.51-2.44,1.76-.12,4.37.09,6.23.13.3,0,.62-.18.96-.17,2.54.1,1.77.84,2.34,2.59,1.56,4.74,9.5,4.55,10.83-.1.14-.51.17-1.77.43-2.04.6-.63,3.86-.31,4.85-.28.78.02,1.08-.08,1.9-.08.51,0,2.67.04,2.95.18.19.09.61.82.57.86-.38.34-.54-.34-.76-.38-.25.94.6.41.76.57.1.1.16,2.4.85,2.48l.14.72c.92.28,1.59.89,2.52,1.19,2.71.86,6.1-.07,7.27-2.83.54-1.27.17-2.64,1.76-2.8.9-.09,3.47.35,3.91.26.16-.03,1.13-.51,1.71-.31.11.04.07.36.18.34s.31-.21.52-.24c3.34-.44,2.36.79,3.29,2.9.38.86,1.09,1.15.66,2.09.42-.09.23-.71.66-.56.22.08,1.76,1.39,1.99,1.44.17.03,2.1.08,2.39.07,1.76-.11,3.93-1.26,4.7-2.9.43-.9.24-2.55,1.06-2.94.96-.46,3.9.2,5.09-.21.15.65.43.07.99.03.84-.07,3.52-.12,4.3-.02.47.05,1.05.18,1.38.53l.23,8.86c-.8.3.02.24.01.36,0,.1-.17.33-.16.59.02,1.01.22,4.27-.1,4.95-.34.73-1.3.45-1.93.62-1.41.39-3.01,2.91-3.22,4.31-.04.25.08,2.97.14,3.11.04.1,1.03,1.51,1.21,1.73.16.2,1.72,1.62,1.83,1.67.26.12,1.75-.19,2.02.56.31,4.19-.17,8.35.2,12.51l-.55.3.38.19c-.05.93-.66.42-1.06.4-.1,0-1.24.75-1.67.77l-1.07.92c.95.02,1.94-.21,2.85-.47.54-.15,2.63-.86,2.99-1.1.24-.16,1.63-1.28,1.89-1.53.82-.78,1.58-2.02,2.4-2.84,3.45-.34-.14,3.49-1.16,4.41-2.87,2.59-6.78,4.4-10.68,3.82-.12,1.48-.09,2.91.6,4.24,1.02,1.96,1.72,2.15,3.84,1.82s4.68-1.82,6.33-3.28c.57-.5,1.09-1.92,2.16-1.36,1.22.63-.19,2.29-.75,2.87-.09.1-.91.88-.97.92-.36.3-2.03,1.49-2.37,1.63-.05.02-.18-.65-.66-.38l.38.57-3.42,1.14.4.46-.02,5.62c.13.13,3.12-.99,3.49-1.16,1.1-.51,3.14-2.39,3.92-2.56.28-.06.41-.03.64.13,1.55,1.03-1.41,3.1-2.25,3.6-.98.58-2.42,1.21-3.4,1.55-.77.26-1.58.48-2.39.55l.09,4.74c-.67.96-1.82.67-2.8,1.16-.15.08-.27.34-.49.5s-.69.21-.76.29c-.1.13-.03.5-.15.7-1.62,2.79-1.58,6.85,1.6,8.51.6.31,1.52.27,1.55.83l.28-.38c1.14.47.3,1.58.84,2.58-.64.13-.06,1.39-.05,1.91.09,3.05-.26,6.16-.13,9.26-.56.18-.17.46-.19.5-.13.19-1.26.16-1.56.25-3.44.98-4.32,6.21-2.42,8.99.23.34,2.25,1.99,2.41,2,.5.04.78-.45,1.45.18.29.27.29.49.33.86.22,1.77.07,4.09-.01,5.89-.01.33.2.69.15.93-.06.36-.71.41.03.58l-.34,4.02c.61.16.26,1.22-.22,1.5-.59.34-1.46.24-2.26.78-2.24,1.52-3.07,4.79-2.14,7.25.32.85,1.18,2.33,1.99,2.76.47.25,1.31.16,1.28.72.31.09.13-.28.22-.32.52-.26.65.18.54.7l.47-.38.29.49-.09,13.22c-.11.44-.9.77-.96.18l-.57.57h-.28s-.19-.38-.19-.38c-.33.82-1.3,1.24-1.9,2-.78.99-1.21,2.55-1.23,3.8,0,.38.21,2.18.32,2.48.04.1,1.2,1.59,1.36,1.74.26.25,1.09.83,1.42.96.94.36,1.88-.04,2.32,1.1.03.13-.86.07-.03.37-.11,1.41-.24,2.97-.25,4.38,0,1.16.1,2.42.1,3.62,0,2.07.06,4.84-.02,7.02-.01.41.21,1.89-.19,2.18-.03.02-.24-.18-.33-.13-.06.03.02.31-.31.35-.83.09-1.8-.3-2.65-.02-.23-.06.01-.47-.3-.38.18.53-.85.49-1.11.33-.2-.12.23-.66-.5.07-.64-.17-5.38.12-5.59-.06-.09-.08.05-.36-.13-.34-.09.6-1.13.46-1.63.3-.96-.31-.62-1.33-.83-2.02-.69-2.27-2.52-3.99-4.95-4.06-.44-.01-1.73.31-1.79.25-.07-.07.08-.31-.11-.36-.14-.04-.08.26-.23.38-1.07.8-1.63.77-2.5,2.03-.33.47.02.86-.78.45-.28.35.45,2.33-.46,3.06-1.02.82-8.63.15-10.38.27-.5-.25-.58-2.15-.82-2.8-.75-2.02-3.27-3.37-5.36-3.3-.39.01-2.7.59-2.9.74-.22.17-1.54,1.87-1.7,2.17-.85,1.65.37,3.1-2.42,3.28-.67.04-1.34.22-1.34-.58-.5-.05-.66.51-.76.53-.22.05-1.03.02-.95-.34-.36.58-.79.17-1.31.2-.66.04-1.91.29-2.48.19-.24-.04.03-.53-.2-.58-.21,0-.03.43-.1.58-.03.06-1.25-.08-1.31-.11-.96-.48-.7-1.83-1.06-2.75-.27-.67-1.69-2.27-2.31-2.64-2.78-1.65-7.63-.15-7.86,3.39l-.38-.38c-.22.52.31.57.33.66.17.6,0,1.38-.6,1.64-.21.09-4.18.21-4.4.13-.05-.02-.45-.99-.38.04-.52-.23-1.25.12-1.7,0-.27-.06.14-.69-.38-.58-.25.05.15.4.09.57-.93-.21-3.52.34-4.08-.38-.11-.15.07-.72.01-.95-.8-3.22-2.54-4.83-5.92-4.77-.28,0-.8.21-.83.18-.07-.07.08-.31-.11-.36-.15-.04-.06.28-.23.38-.4.24-.91.29-1.3.57-1.04.73-2.29,2.31-2.46,3.58-.1.73.41,1.57-.95,1.75l-9.48-.05c-.93-.47-.58-.75-.54-1.4,0-.09-.31-.05-.35-.21-.12-.45-.01-.86-.24-1.45-.53-1.39-2.72-2.85-4.17-3.08-.85-.13-3.9.59-4.51,1.07-.02.02.17.3-.1.55-.29.26-.68.38-1.07.38.58.9-.09.99-.3,1.89-.1.45-.1.89-.09,1.34l-.38-.19c-.09.14.66.94-.69,1.14-.23.03-2.86.05-3.01.02-.25-.05.03-.59-.2-.59l-.1.57c-.91-.23-6.17.2-6.46-.19-.08-.11.26-.52.19-.57-.95.18-.44-.55-.58-1.23-.97-4.71-6.77-5.54-9.77-1.81-.33.41-.3,1.14-.87,1.13-.1.31.39.09.39.29,0,.58-.33,1.84-.89,2.15-.34.19-3.18.32-3.56.22-.22-.06-.04-.39-.22-.39-.11.62-1.81.61-1.9,0-.51,1.14-1.06-.18-1.14-.18-.04,0-.34.31-.29.37s.45-.16.38.19l-3.29-.17c-.96-2.85-.99-3.79-3.55-5.46-.13-.08-.16-.36-.23-.41-.15-.1-3.16-.05-3.59.04-1.54.33-3.13,1.8-3.51,3.34-.17.68.02,1.46-.39,2.08-.8,1.24-5.13.16-6.61.59l-.22-.39-.09.38c-1.31-.21-2.85.18-4.1.02-.45-.06-.18-.4-.37-.4-.33.91-1.83.26-1.82-.65.04-2.15.11-4.3.12-6.44,0-.65-.21-4.24-.06-4.47.06-.09.36.05.33-.13-.47.13-.45-1.63-.39-1.87.05-.23.39-.03.39-.22s-.34,0-.39-.22c-.11-.46.36-1.68.03-2.26.83-.33-.06-.11-.03-.55.19-2.24,2.12-1.15,2.64-1.67.08-.08,0-.37.07-.48.06-.09,1.25-.95,1.55-1.4,2.25-3.39.8-8.64-3.5-9.11l.19-.38c-.21-.08-.92-.12-.97-.31-.04-.15-.02-2.88.01-3.03.11-.53.58-.4.58-.57-.81-.29-.65-2.05-.56-2.84.04-.4.32-.59.37-.77.01-.05-.6-.1-.34-.76.06-.15.4-.02.33-.18-.03-.08-.25-.17-.28-.38-.03-.23-.12-2.15-.09-2.26.06-.21.38-.03.38-.21s-.33,0-.39-.21c-.02-.07.06-1.43.09-1.5.42-1.05,1.08-.62,1.57-.81,4.85-1.85,4.81-9.15.3-11.05-.85-.36-1.5.48-1.87-1.06-.06-.26-.11-2.9-.05-3.06s.8-.02-.03-.39l.11-9.2c.55-.94,1.48-.58,2.28-.93,2.32-1.01,3.52-4.85,2.7-7.08-.3-.82-.85-1.73-1.47-2.35l.38-.47c-.86.37-1.05-.35-1.78-.62-.48-.17-1.63-.04-1.98-.58-.21-.33-.24-4.27-.25-4.98-.03-2.39.11-4.58.4-6.87.04-.34-.32-.22-.35-.36-.52-2.14,2.24-1.65,3.46-2.78,2.66-2.48,2.47-8.26-1.07-9.72-.71-.29-1.87-.04-2.33-.92-.07-.14-.1-2.74-.1-3.11,0-.71.2-1.37.2-1.93,0-1.69-.16-3.43-.17-5.12l.36-.18c.01-.18-.35,0-.39-.22-.03-.13-.01-2.47.02-2.6.01-.06.77-.68.85-.89l.47.57c-.14-.91.3-.44.82-.57.15-.04.1-.37.24-.38.12,0,.31.19.43.16.4-.13,1.84-2.01,2.09-2.56,1.04-2.26.16-6.79-2.44-7.59-.94-.29-1.93.18-2.36-1.08-.08-.23-.15-3.49-.09-3.67.07-.22.55.25-.04-.93l.14-8.25c.17-1.03,1.37-.54,1.84-.61.13-.02.13-.28.28-.35,3.18-1.6,4.17-6,1.93-8.81-.29-.36-1.25-1.27-1.63-1.45-.81-.38-2-.2-2.51-1.12l-.05-6.05c.04-.45.4-.19.4-.37s-.34,0-.39-.22c-.02-.09-.02-1.75,0-1.84.05-.23.4-.04.39-.22s-.35,0-.38-.21c-.04-.25.03-.99.38-.93.03-.18-.33,0-.39-.22C-.07,4.54.01.76.3.46.73,0,3.91.05,4.57.29ZM166.81,64.48c.09-.13,0-2.74,0-3.23-.79.06-1.67,0-2.45-.09-1.97-.24-3.84-.76-5.77-1.47-.8-.3-1.64-.74-2.42-1.1v8.17c.71.23,1.41-.77,1.98-.77.06,0,.81.81.82.87.2.86-1.05,1.52-1.71,1.85-.47.23-1.06.04-1.47.62l.38.09c-.04,4.28.11,8.57-.02,12.84-.02.62.04,1.07.03,1.7-.1,6.9.1,13.83,0,20.75-.72.58.02.61.08,1.31.17,1.92-.19,4.49-.18,6.47.01,4.63.01,9.32,0,13.88,0,2.1.41,15.32.03,16.02-.04.08-.52.02-.33.61l.38-.38.19,8.36-.57.1c.77.28.57,1.84.59,2.66.02.98.08,4.67-.24,5.28-.21.39-.45.53-.88.6-.24.04-3.74.12-3.93.07-.13-.03-.06-.38-.18-.35s-.3.26-.57.3c-.14.02-1.46.07-1.54.06-.18-.03,0-.37-.18-.36.05.47-.91.44-1.15.35-.17-.07-.02-.79-.39.04l-4.93-.03c-.18-.68-.31-.07-.79,0l-4.06-.02-.47-.51c-.23.01.05.54-.19.58-.63.08-2.14-.14-2.86-.16-1.48-.05-2.01-.26-3.41.12-.34.09-6.71.12-7.04,0-.11-.04-.08-.36-.18-.35-1.05.14-4.74.59-5.68.39-.15-.03-.12-.37-.21-.37-1.33.05-2.79.24-3.97.31s-2.77.02-3.84-.33c-.17-.06-.03.36-.17.36-.28,0-1.26.04-1.33.03-.13-.02-.1-.43-.2-.4-.14.04-.31.28-.57.3-.18.02-1.46.08-1.53.06-.09-.03-.2-.82-.3,0-2.81-.25-5.63.02-8.45,0-.23,0,.04-.55-.19-.55l-.19.56-8-.02c-.31-.81-.21,0-.39.03-.09.01-.32-.13-.52-.12-.51.03-.82.42-.99-.26l-.18.36c-3.34-.23-6.74.02-10.08-.17-.66.02-4.83.25-5.04.11-.18-.13-.13-.49-.28-.49-.22.05-.03.43-.1.58-.05.1-2.06-.15-2.18-.38-.07.53-1.05.37-1.33,0l-.18.36-6.18.02-.1-.95c-.25,0,.06.96-.19.95-2.96-.11-5.84-.05-8.79-.05-3.75,0-8.27-.33-11.56-.05-1.73.15-3.5-.11-5.22.1l-.1-.57-.1.57c-.77-.35-3.82.15-4.28-.03-.12-.04-.07-.36-.18-.35-.11.01-.38.24-.65.27-.23.02-1.87.19-1.91.11-.08-.16.11-.55-.1-.57-.7,1.06-.6.25-.76.19-.51-.19-.02.38-.19.38-.43.02-1.06-.16-1.54-.16-1.42,0-3.34.35-4.54-.22l-.18.35c-1.5-.21-3.16.04-4.65-.06-.31-.02-.38-.25-.49-.29-.15-.06-.04.33-.21.38-.07.02-1.43-.01-1.51-.03-.17-.05,0-.34-.18-.35-.2,0,0,.42-.19.38-.32-.07-.49-.5-.52-.52-.08-.05-.31.15-.33.14-.46-.34-.23-4.74-.22-5.6,0-.54-.35-1.24.21-1.33-.51-.32-.36-1.78.19-1.9-.99-.09-.36-.4-.37-1.14-.01-2.4,0-4.82,0-7.24,0-.52-.24-1.68-.18-2.09.08-.51.74-.7-.02-.66l.38-.19c-.09-.23-.26-.3-.3-.58-.2-1.55.11-4.28.12-5.99,0-1,.17-.87.17-.93,0-.2-.48-1.19.36-.63.06.04-.02.57.23.23.21-.81-.61-.33-.76-.48-.31-.32.11-3.32.11-3.86.01-8.86-.04-17.13-.03-26.08,0-10.12-.17-20.26-.09-30.39.86-.39.06-.21,0-.44-.1-.37-.07-2.06-.08-2.63-.03-2.2.17-4.45.17-6.65,0-5.57-.11-11.16-.08-16.73l.57.09-.59-.66v-21.12c.05-.45.39-.18.4-.37-.73-.24-.15-1.81-.38-2.57l.38-.09c-.14-.19-.37.02-.4-.37-.1-1.08-.12-3.5-.07-4.58.08-1.45.74-1.14,1.88-1.24h29.69c.76.77.17.06.73-.01,2.2-.28,5.48.11,7.81.1,2.1,0,4.18,0,6.27,0,2.43,0,4.89-.16,7.32-.09l.1.57.2-.59h7.37c.33.84.73.12,1.23.05,3.11-.41,6.85.27,10.04-.05.76.78.17.07.73,0,.24-.03.92-.04,1.13.01s.04.39.22.39c.05,0,.16-.73.82-.33.09.05-.03.77.34-.04l54.04.04c.17.79.11-.06.49-.06l12.56.02c.2.03.38.1.5.26.21.27.29,3.56.18,3.98-.05.22-.39.04-.39.22,0,.19.34-.08.4.37-.21,3.35.16,6.75.07,10.09-.03.94-.45.86-.46.95,0,.05.58.25.57.57-.02.38-.79-.19-.57.57.05.18.25-.07.38-.1l.06,9.77c1.54,1.29,3.8,1.9,5.73,2.41.98-.56,1.56-1.79,2.59-2.38.38-.22,2.25-.66,2.27-.78l-.04-10.23c-.14-.42-.87-.29-1.26-.46-2.6-1.15-4.37-4.6-4.26-7.37.02-.36.38-.25.38-.36-.04-.84-.16-1.08.12-2.01.55-1.77,2.78-4.66,4.77-4.74.17,0-.06.46.27.37V2.25c-.68-.7-.75-.01-.85.02-.22.06-.87.03-.67-.33-.31-.1-.1.36-.28.39-.64.08-.72-.81-.98,0l-5.68-.14c-.92,1.91-1.3,3.33-3.15,4.59-2.08,1.41-5.29,1.68-7.62.81-1.76-.65-4-2.66-4.41-4.54-.05-.24.09-.7.07-.72-.38-.37-2.43.51-2.57-.38-.19,0,.08.36-.37.4-.6.06-3.58-.26-3.82-.15-.25.11-1.02.87-.29.78-1.21,3.94-6.03,6.02-9.87,4.76-2.79-.92-4.41-2.69-5.13-5.53-1.93.18-4.02-.09-5.93.03-.61.04-.63.26-1.11.46-.11.31.39.09.39.29.03,1.12-1.91,3.05-2.8,3.67-3.69,2.52-9.64,1.72-11.65-2.58-.25-.53-.33-1.69-.4-1.75s-.5.05-.75-.11c-.15-.09-.14-.47-.3-.48-.19-.02-1.09.43-1.51.49-.74.12-4.31-.07-4.47.09-.03.03.03.57-.05.8-1.07,3.47-5.45,5.78-8.96,4.89-.14-.04-.09-.33-.21-.34s-.36.19-.68.09c-2.71-.83-4.64-3.03-5.13-5.82h-.18c-.04.06.08.32-.12.38-.14.04-2.67.04-2.8,0-.21-.05-.04-.39-.22-.39-.06.52-.87.5-1.3.39-.22-.05-.04-.39-.22-.39s0,.34-.22.39c-.42.09-1.64-.23-2.18.08-.84,5.06-6.75,6.93-11.05,4.8-1.9-.94-3.92-2.97-3.38-5.27-.77.58-2,.21-2.93.22-1.26.02-2.54.03-3.79.16-.39-.85-.23-.1-.33-.02-.06.05-.87-.38-1.12.31.61-.04,0,1.06-.21,1.5-2.88,5.76-12.48,5.16-14.3-1.08-.07-.25.03-.62-.03-.71-.2-.3-.98.16-1.43,0l.19-.76-.38.76c-.33.09-.08-.39-.29-.39-.29,0-.65.37-1.14.4-.65.04-1.28-.32-2-.02l-.09-.38c-.19.81-1.11.07-1.67.37-.2.11-.7,1.9-.96,2.31-2.32,3.72-8.33,4.46-11.79,2.04-1.6-1.12-2.35-2.74-3.06-4.48l-8.66.14c.5.82-.12.7-.18.88-.09.27.35,1.27.37,1.87.11,2.88-.14,5.82-.02,8.72.63.35,1.23.4,1.9.8,2.53,1.53,3.76,5.03,3.39,7.92-.3,2.35-2.53,6.21-5.28,5.67l.76.38-.89.47c.2,2.08.15,4.2.14,6.28,0,.96-.27,2.59-.16,3.43.01.1.51.03.14.47,1.59.04,3.42,1.59,4.19,2.94,2.07,3.66,1.37,8.51-2.23,10.9-.66.44-1.31.67-1.94,1.11,0,3.44-.16,6.91,0,10.31,7.15,1.79,7.03,13.06-.03,14.97v10.54c.57-.29,1.68.41,2.2.76,4.39,2.92,4.07,11.63-.97,13.67-.43.18-1.17.17-1.22.21-.14.14.15,3.3,0,3.87-.08.32-.77-.16.01.58-.31,1.25.27,3.24-.01,4.36-.05.22-.39.04-.39.22.76.03.19,1.44.38,1.62.04.03.67-.02.96.09,3.51,1.23,4.79,6.23,4.13,9.52-.02.1-.3.05-.31.18-.03.86-.18,1.38-.7,2.19-.98,1.51-2.49,2.45-4.09,3.18v10.2c1,.32.85.87.96,1.84.49-.19.27-.87,0-1.14.39-.46,1.82.6,2.19.95,2.7,2.59,2.76,8.07.55,11.01-.87,1.17-2.47,2.17-3.88,2.49.39.58.07,1.16.07,1.72s.23,3.33.08,3.57c-.06.1-.33-.05-.33.13s.33,0,.39.22c.07.27.03,2.95-.05,3.08-.06.1-.34-.05-.33.13s.32,0,.38.21c.23.85-.29,3.15.02,4.18.02.27-.15.31-.4.27v.18c.46-.08.45.29.39.68-.06.47-.43.12-.4.47l.84-.39h8.74c.24-.08.58-1.92.84-2.4,1-1.89,3.63-3.32,5.7-3.62.64-.09,1.16-.29,1,.52.37.06.1-.45.19-.57.02-.03.5.25.76,0l-.38.57.57.19v-.57c3.33.27,5.31,2.85,6.02,5.9l7.2.13c.27-.02.42-2.02.66-2.48.13-.26.91-.9,1.1-1.12.04-.05-.12-.25-.08-.29.95-1.08,1.76-1.32,3.02-1.78.16-.06.14-.31.29-.35,3.18-.93,7.61.77,8.97,3.91.18.42.4,1.77.58,1.89.74.5,6.55-.13,7.81.08-1.3-1.58,1.51-4.52,2.91-5.17.67-.31,2.77-.89,3.43-.73.22.06,0,.46.31.38.03-.16-.05-.49,0-.57s1.75.25,1.9.29c2.67.75,4.88,2.82,5.24,5.62.76.58,1.95.02,2.63.17.22.05.05.86.43,0h4.82c-.34-2.66,2.26-4.99,4.66-5.71.35-.11,2.1-.31,2.42-.31.53,0,1.24.28,1.85.14l-.19.38c.88-.38,2.58.65,3.22,1.25.46.43,1.52,2.02,1.71,2.51.24.62.34,1.28.4,1.94l7.79-.19c.02-2.37,1.71-4.63,3.89-5.52.53-.22.95-.13,1.35-.22.1-.02.05-.29.18-.31,3.02-.44,6.77.99,8.24,3.71.32.59.86,1.72.6,2.34.38.05.85-.08,1.21,0,.05.01.51,1.08.41,0l5.77-.02c.22-1.67.91-2.92,2.02-4.16.21.57.14.26.66.19l-.38-.28c.24-.6,3.55-1.8,4.28-1.82.95-.03,4.6.62,5.19,1.2.17.17.14.56.26.68.02.02.26-.13.54.11,1.21,1.07,1.93,3.95,2.12,4.08.58.38,6.15-.22,7.27.04.13-.63.29-1.16.51-1.75.04-.12.24-.67.27-.71.86-1.49,2.22-2.63,3.86-3.19.22-.07,1.92-.46,2.02-.45.21.01-.03.48.29.39l.1-.57c.18-.03.04.27.12.35.07.07,1.43-.03,1.92.08,2.43.56,4.75,2.94,5.28,5.37l-.38-.09c.02.15-.04.52,0,.57.2.24,3.53-.09,4.1-.01.44.06.18.4.37.4s.03-.27.13-.33c.39-.25,4.86-.03,5.67.14l-.18-14.7c-.13-.3-2.71-.26-1.91-1.27-.7.35-1.72-.99-2.13-1.57-.65-.92-1.01-2.03-1.27-3.11-.11-.47.38-.07.36-.45-.53.15-.55-1.41-.52-1.8.16-2,.94-3.36,1.86-5.05l.38.57c-.15-1.15,1-1.77,1.96-2.13.42-.16,1.36-.07,1.42-.42l-.14-10.05c-.57-.4-.94-.14-.77-1.08l-.28.57c-.38-.45-1.9-.81-1.43-1.32-1.06-.09-2-1.93-2.38-2.86-.4-.98-.35-1.79-.68-2.75.8-.21.06-.24,0-.78-.01-.1.38-1.85.44-2.03.81-2.52,2.64-4.29,5.1-5.21l-.02-10.14c-4.15-.8-6.03-5.24-5.23-9.14.52-2.52,2.36-5.57,5.15-5.68.27-3.43-.01-6.9.1-10.35l-2.09-.9.18-.36c-1.57-.34-3.1-2.98-3.4-4.48-.07-.37-.24-2.56-.04-2.83s.64.07.59-.3c-1.01.25-.44-1-.25-1.48.25-.6.5-1.04.77-1.7.09-.21.75-1.14.9-1.2.41,1.01.28-.3.45-.49.19-.21,1.24-.8,1.55-.66l-.19-.38c.23-.01,1.48-.32,1.52-.38ZM103.5,16.19s.46-.72.48-.76c.24-.54-.57-.18-.76-.19-.6-.03-2.68-.23-3.08.06-1.13,1.3-2.29,2.61-3.49,3.85-2.8,2.92-5.69,5.75-8.48,8.71-.53.56-3.3,4-3.62,4.09-.25.07-.62-.07-.63-.25,0-.14,1.47-1.82,1.71-2.1,1.78-2.03,3.56-3.52,5.42-5.49,2.76-2.92,5.34-6.02,8.26-8.76-1.29-.33-2.86-.07-4.23-.11-.95,1.22-1.99,2.44-3.06,3.56-.94.99-2.95,3.31-3.92,3.98-.38.27-.57.05-.86.26-.3.33.28.08.29.29.01.2-.58.06-.76.1l.57.28c-1.51,1.54-2.96,3.13-4.54,4.59-.16.15-.21.42-.22.44-.19.14-.62-.18-.56-.46.03-.13,1.55-1.72,1.8-2,1.23-1.34,2.6-2.55,3.83-3.87,1.8-1.91,4.34-5.24,6.23-6.79.19-.16.44-.18.68-.18l-1.63-.26c-.7-.14-2.07.22-2.65.09-.26-.06.16-.76-.48-.58-.13.3.44.83.37.94,0,.01-.22-.02-.3.08-.46.59-1.15,1.8-1.98,1.26.43,1.24-.2,1-.77,1.61-.49.52-1.36,1.96-2.08,2,.02.1.24.31.19.37-.03.04-.34.05-.48.19-.31.33-.17.75-.66.39-.54,1.02-2.25,3.19-3.23,3.91-1.13.83-.75-.08-.19-.76.86-1.06,2.27-2.62,3.22-3.62.77-.81.51-.43,1.15-.47-.04-.16-.18-.48-.16-.54,0-.02.24-.04.34-.18,1.23-1.68,2.75-3.12,4.19-4.61-1.3.06-2.67-.27-3.93.07-2.15,2.29-4.19,4.75-6.45,6.95-.2.19-.45.4-.74.4-.27-.44.47-1.18.76-1.53,1.72-2.07,3.89-3.82,5.61-5.89-.59-.31-1.93.46-1.9-.38h-.18c.11.69-.75.19-1.23.29-1.74.34-5.32,5.74-6.09,5.8l-.09-.95.38.38c.49-1.84,2.56-3.07,3.71-4.56.15-.19.37-.24.28-.57l-9.03.02c-.48-.03-.19-.86-.59-.02l-6.64.03c-.44-.05-.19-.42-.37-.4l-.18.35-9.22.04c.07.15.12.31.01.46-.57.81-4.96,5.4-5.71,5.9-.34.23-.51.35-.96.27l6.27-6.47c.05-.31-.26-.18-.47-.19-.83-.04-3.23-.19-3.84.25-2.34,2.89-5.24,5.31-7.79,7.99-.12.12-.12.48-.33.71-.24.26-1.78,1.88-1.91,1.89-.91.03.8-1.88.92-2.02,1.41-1.58,3.05-3.15,4.5-4.67,1.31-1.39,2.74-2.69,3.99-4.14h-3.99s.03.23-.07.31c-1.69,1.31-3.27,3.26-4.78,4.84-1.95,2.03-4.1,4.42-5.99,6.36-.3.31-.96,1.08-1.24,1.26-.36.23-.65-.05-.67-.03-.09.12.18.63-.19.57-.05-.35,0-.56.18-.86.42-.71,1.96-1.94,2.61-2.62,1.36-1.43,2.27-2.39,3.61-3.8,1.51-1.58,2.95-3.39,4.53-4.88.23-.22.69-.73.74-.76.24-.18.66-.16.69-.18.13-.11.15-.37-.24-.34-1.02.08-2.25.2-3.26.16-.26,0-.76-.25-.87-.19-.02.01.15.26.02.47-.92,1.45-3.79,3.74-5.09,5.1-1.75,1.84-3.44,3.77-5.19,5.6-.38.39-.96,1.58-1.34,1.18.28.43-1.15,1.32-1.24,1.33s-.45-.4-.2-.57l7.36-7.94.34.16c-.08-1.01.71-.71.75-.77.03-.04.02-.44.19-.67.86-1.12,2.28-1.97,3.15-3.13l.28.38.19-.95c-.2-.14-3.54-.06-3.91-.02-.33.04-.26.31-.32.34-.08.04-.26-.13-.3-.09-.14.12-.27.68-.52.91-.61.57-1.27,1.11-1.91,1.79-5.59,5.99-11.05,12.15-16.8,17.94.03,28.02-.1,56.03,0,84.01-.78.76-.07.17,0,.73.16,1.24-.14,2.71-.14,3.98.01,1.97.13,3.95.12,5.92-1.42.42-.08.36-.01.58.04.79-.43,5.01-.28,5.23.51.8.4-.21.46-.29.17-.23,1.51-1.01,1.86-1.2.61-.32,1.49-.99,1.96-.42-.48-.92,1.59-1.47,2.28-1.52,0-.49-.48-.67-.72-1.09-1.11-1.99-2.31-4.41-2.95-6.74-.89-3.21-.91-6.84-.3-10.11.52-2.8,1.85-5.35,2.05-8.22s-.45-4.89-.55-7.41c-.03-.8.04-2.81.96-2.94l-.38-.28c3.27-4.39,6.49-.15,7.71,3.33,3.04,8.69-5.02,17.7-.84,26.47.59.44,1.44,2.49,1.92,2.77.23.13,1.42-.06,1.49-.28.29-.87-.09-2.32.19-3.16.08-.25.47-.01.38-.32-.59.11-.4-.77-.38-1.24.4-6.51,2.14-15.74,5.11-21.55.38-.74.08-1.83,1.54-1.56l-.76-.28c.71-.61,1.32-2.48,1.89-3.01.2-.19.47-.09.55-.15.02-.02-.11-.29.08-.57.49-.7,1.4-1.97,2.23-2.08-.24-.89-.39-.38-.78-.48-1.35-.36-2.39-.92-3.56-1.4-.22-.09-1.72-.57-1.82-.55l-4.69,4.05c-.77.31-1.12-.09-.87-.86.4-1.25,3.15-3.01,4.17-3.97.51-.48-.25-.25-.62-.49-.69-.44-1.62-1.57-2.14-1.96-.04-.03-.25.14-.3.1-.36-.29-1.6-1.77-1.88-1.82-.25-.05-.82.39-1.16.5-1.43.48-2.62,1.21-4.1,1.79-.36.14-1.37.51-1.42-.13-.09-.96,4.67-3.14,5.47-3.8-1.21-.57-2.8-5.47-3.42-5.71-.06-.02-1.12-.06-1.24-.06-.14,0-1.87.62-2.69.65-.48.02-.91-.02-1.39-.12-.57-1.85,4.66-1.68,4.76-2.2-1.28-4.07-1.59-8.11-.95-12.32.04-.29.34-.51.33-.75-.02-.33-.59-1.32-.7-1.77-.41-1.55-.83-3.68-1.11-5.35-.25-1.48-.2-3.05-.59-4.51.73-.39.81-1.01-.02-.29l-.57-5.89.57-.1-.58-.2.19-7.59.58-.1c.08-.32-.32-.08-.38-.31-.2-.79,1.14-4.49,1.99-4.83l.28.38c-.2-.69.46-.67,1.05-.68.91,0,2.98.35,3.33,1.25.32.1.1-.37.27-.37.35,0,5.12,2.27,5.75,2.61,2.53,1.37,4.92,3.09,7.34,4.64.54.34,1.65,1.47,2.24,1.39s1.96-.91,2.65-1.14c2.49-.83,5.75-1.68,8.1-2,.72-.1,2.25.11,3.02.08.3-.01.78-.05,1.04-.18.27-.14,1.63-2.68,1.94-3.19.56-.93.95-1.69,1.49-2.47.4-.59,1.08-1.3,1.53-1.94.25-.35-.12-.75,1.13-.66l-.09-.38h-.67c.21.02.32-.09.44-.24,1.21-1.53,2.61-3.44,4.08-4.7,1.14-.98,3.35-2.76,4.87-1.89.07.04,1.1,1.05,1.15,1.12,1.47,2.04,3.91,8.2,3.93,10.56,0,.1.31.06.38.35.45,1.72.69,3.49,1.3,5.16-.94.3.09.71.21,1.13.41,1.43.87,3.92.76,5.33,0,.07.28.04.38.36.15.47-.06,1.02-.02,1.05.06.04.35-.06.51.05.07.05,1.02,1.18,1.2,1.38,1.75,2.1,2.87,4.66,4.19,7.03l-.38.28.59.11,1.69,5.78c.16.11,3.12-1.26,3.61-1.43.19-.06.74-.27.84-.3.54-.15,2.34-.53,2.85-.55.42-.02.28.84-.27,1.2-.82.55-3.62,1.58-4.7,1.99-.67.26-1.37.42-2.05.61.18,1.14.17,2.3-.09,3.43l-.76-.19c-.03.36.64.26.75.4.07.08-.02,1.86-.37,2.07.41-.01.85-.15.76.38h.18c-.02-.14,0-.3.14-.37.25-.13,4.02-.43,4.53-.4,1.47.09,1.13.99-.06,1.29s-3.27.46-4.54.61c-.3.04-.55-.12-.83-.09-.42.23-1.23,3.38-1.38,4.06l-.32.22c.48-.15.8.55.89.57.6.13,1.18-.36,1.01.57.34.08.12-.32.19-.38.28-.21,1.27,1.16,2.15.58.19-.13.22-.43.41-.59.74-.63,1.7-1.6,2.38-2.43,3.24-3.97,5.11-8.67,8.18-12.49.29-.36,1.79-1.98,2.08-2.09.24-.09.52.11.77.09l-.29-.38c1.14-.91,3.87-1.32,4.44.32.22.64-.3.25-.35.63.17.03.54-.1.57.1,0,.06-.13,1.07-.15,1.16-.01.04-.31.66-.37.78-.27.58-1,.92-.61,1.77,1.22.12,1.83-3.02,2.28-3.34.12-.08,1.45,0,1.63.09,1.34.63,1.93,3.45.86,4.46-.22.21-.55.09-.59.12-.06.05.42.87-.38,1.33.74.46,1.29.33,1.52-.57l.38.38c-.19-1.18,1.3-.35,1.42.54.22,1.66-.61,3.97-1.49,5.38-.81,1.3-1.7,1.81-2.69,2.83-1.32,1.37-2.26,3.52-3.28,5.16-.03.05.11.57-.27,1.17-3.57,5.66-7.32,10.78-12.42,15.35-3.21,2.88-6.78,5.46-10.37,7.73-.15.96.18,1.89.21,2.81.02.62-.21,1.58-.18,2.1,0,.11.34,0,.37.36.12,1.27-.08,3.03-.03,4.39.04,1,.5,2.11,0,3.13.09.11,2.38,0,2.76,0,.24,0,.49-.18.58-.18.11,0,.03.4.17.37.13-.04.28-.29.56-.3,3.19-.08,14.23-.34,16.63.6.18.07.75.46.93.6s.43-.04.04.34l-10.38.43-.27-.52h-.18c-.09.83-.43.35-.83.4-.47.06-1.41.36-1.8.12-.1-.06.09-.41-.22-.33l-.04.32c-5.52.46-11.11.6-16.58,1.59l-.12-.39h-.18c.04.26-.04.32-.27.42-.71.29-2.33.13-3.15.34-.07-.75.89-.61,1.14-1.14-1.66-.49-6.97-6.11-8.09-6.09-.25,0-.52.21-.46.47.02.1,1.21,1.36,1.4,1.56.08.08.34.02.51.19.72.73,1.22,1.8,2.27,2.15l-.76.38c.54-.02,1.26-.01,1.52.57-4.56.02-9.66.31-13.67-2.2-.28-.17-2.71-2.09-2.49-2.36l.38-.19c-.4.01-.6-.09-.85-.39-1.89-2.22-2.16-7.34-2.6-10.14-.04-.25-.07-1.03-.35-1.07-.28.65-.31,1.37-.32,2.08-.02,1.98.44,4.55.97,6.29,1.76,5.81,6.03,8.49,11.99,8.93,1.9.14,4-.04,5.91.17.36.04.25.38.36.37,3.23-.13,8.06,2.07,8.77,5.55.07.35-.03.7.09,1.04l-.38-.09.13,1.67,3.91,4.28c.26,2.23-2.32,1.09-3.59.92-.82-.1-2.99-.15-3.54-.42-.16-.08-.16-.22-.14-.37h-.18c-.04.06.07.3-.09.36-.27.09-1.85-.52-2.3-.53-.68-.02-1.74.33-2.46.36s-4.64-.19-5.15-.44c-.28-.14-.21-.52-.36-.51-.28,1.04-2.08-.54-2.57.38.79.17,1.53,1.18,2.1,1.81,2.44,2.74,5,5.7,7.51,8.45.54.59,2.87,3.58,3.37,3.58l40.63-10.04c.08-.71-.51-.35-.74-.48-.7-.41-3.96-2.64-4.45-3.12-.87-.85-1.72-1.17-2.85-1.95-3.11-2.13-6.19-4.44-9.32-6.46-.46-.3-1.2-1.08-1.63-1.22-.66-.21-3.2.11-4.03.22-2.04.26-4.03,1.11-5.97,1.22-.1,0-.19,0-.29,0l-.09-.38c-.23.76-1.09.36-1.53.42-.05,0-.26.6-.82.29-.08-.05.09-.4-.22-.32.02.14,0,.31-.14.37-.47.22-3.03.8-3.38.39-.77-.91.29-1.36,1.09-1.57.35-.09,1.72-.33,1.48.24h.18c.02-.6.61-.61,1.1-.71,2.35-.44,4.75-.71,7.11-1.12.85-.15,2.12-.65,2.91-.65.18,0,.07.33.11.39h.18c.14-.75,2.4-.66,3-.43.49.2,1.61,1.22,2.09,1.56.26.18.73.24.88.37.19.17.02.49.24.59,1.16.5,3.26-.59,4.36-.56.15,0,.04.29.08.36.31.09.07-.29.32-.37,1.37-.46,3.59-.66,5.07-.98.93-.19,2.01-.54,2.73-.73,1.78-.46,2.33,0,3.85.75.1.26-.77.17-.38.57.07.07.52-.42.77-.3,2.65,1.49,5.36,2.87,8.03,4.32.36.19,1.39,1.05,1.59,1.08s.45-.29.74-.34c1.79-.3,3.31-.82,5.15-1.13.49-.08,1.51-.31,1.95-.12s2.38,1.85,2.87,2.28c.45.39.49,1,1.14.86l-.19.38c.99-.09,1.44.88,1.99,1.33,1.57,1.27,4.35,3.26,5.62,4.65.34.37.42.91.73,1.17.63.53,2.29,1.51,3.05,2.11.52.41,1.41.84.79,1.68-.17.23-1.22.82-1.53.94-2.86,1.08-6.48,1.76-9.41,2.75-.5.17.21-.47-.66-.57l.19.76-5.79,1.73-.29-.39c-.01.2.09.46-.12.58-.19.11-2.17.59-2.66.73-4.54,1.32-9.52,2.9-14.24,4.05-.13.03-.02.32-.37.36-1.63.18-2.52-1.65-3.98-2.08l-3.07,2.44-.19-.57,2.95-2.57-2.19-1.62c-1.05.39-4.6,4.4-5.32,4.37-.1,0-.44-.4-.19-.57,1.55-1.55,3.44-2.81,4.85-4.47-1.31-1.4-2.48.09-4,.22-.81.63-4.76,4.65-5.42,4.63-.1,0-.44-.4-.19-.57l4.66-4.09c.08-.35-.45-.44-.65-.67-.06-.07.07-.31.04-.35-.28-.25-1.25-.13-1.01-.79-.47.11-.66.57-1.1.81-.17.09-.47-.05-.49-.02-1.14,1.56-3.29,3.16-4.74,4.19-.29.21-1.24,2.1-1.12.19,1.9-1.41,3.58-3.07,5.37-4.6.4-.34,1.51-.78,1.11-1.16-.26-.24-.86-.59-1.19-.86-.37-.31-.35-.85-1.16-.64.42.43-.62.77-1.04,1.15-.89.8-1.74,1.7-2.67,2.47-.21.18-.31.46-.67.38l.18-.87,4.01-3.6-.85-.47c-.98.58-2.36.35-3.32.86-.76.41-1.83,1.73-2.49,2.26s-1.58,1-2.25,1.55c-.15.12-.85,1.27-.88.26,0-.29,1.07-1.26,1.39-1.51.78-.62,1.71-1.12,2.51-1.72l-.1-.37c-.49-.26-2.05.41-2.66.56-2.94.73-6.06,1.58-8.79,2.28-1.99.51-4.52,1.35-6.47,1.69-.21.04-.72.03-.91-.05-.35-.14-2.66-2.9-3.13-3.43-.77-.87-1.73-2.1-2.67-3.18-2.79-3.19-5.79-6.25-8.3-9.67-7.29-1.3-14.29-2.44-19.17-8.55-.83-1.04-1.5-2.19-2.18-3.33l.38-.28-.59-.12-1.79-4.27c-.55-.01-.33-.17-.66-.36.29,3.99,2.62,7.27,4.63,10.58.19.31.79.48.7,1.27-2.92,2.42-5.81,4.9-8.71,7.34-.97.81-2.34,1.49-2.9,2.38l-7.51,6.38c-1.1-.24.31-1.24.76-1.63,1.04-.92,2.28-1.79,3.38-2.75.22-.19.7-.89.76-.92.28-.15.38.63.82-.59l.28.38.25-.71c2.91-2.02,5.63-5.24,8.52-7.18.38-.25.69-.1.72-.13.1-.1.12-.5.32-.72.53-.58,1.77-1.08,2.18-1.91-1.3.25-2.64.73-3.89,1.19-.67.25-3.33,1.21-3.79,1.5s-1.02,1.41-1.83,1.31c-.02.02.19.28.16.34-.09.14-2.24,1.68-2.63,2.03-1.3,1.13-2.52,2.34-3.8,3.43-.63.54-4.11,3.6-4.47,3.7-.67.2-.07-1.15.58-1.33l.28.38c.13-.72,1.15-1.61,1.74-2.16,1.44-1.35,3.51-2.95,4.73-3.85.26-.19.16-.68.95-.46.07-.06-.24-.33-.16-.53.05-.14,1.96-1.55,2.28-1.82.1-.08.67-.19.35-.49-.14-.14-3.07,1.67-3.8.95.09.35.77.1.07.54-1.39.87-3.62,1.62-5.18,2.43-1.67.87-3.27,1.89-4.93,2.77-.33.51.08,2.24-.04,2.7-.06.21-.38.03-.38.21,0,.19.33,0,.36.18.05.33-.14,1.64-.15,2.1,0,.4.19,1.46.15,1.72-.02.13-.81.09.01.36-.53,1.39-.02,2.99-.02,4.4,0,2.09-.36,4.59-.16,6.65.1,1.08.88-.02.39,1.04h.57s-.09-.57-.09-.57c.9.37,2.27-.48,2.66.58l.19-.58c3.4.18,6.84-.04,10.22.07,1.1.04,1.84.16,2.69.1,3.49-.26,6.99-.03,10.47-.02,1.03,0,2.3-.22,3.39-.16l.13.39c.31.09.1-.29.28-.35.11-.03.69.15.93.09.68-.16,3.15-2.8,3.92-3.46.61-.51,2.44-2.05,1.25-.08l-3.91,3.32c.02.46,3.85-.14,4.16.25,1.18-1.58,2.98-2.67,4.44-3.97,2.12-1.88,3.96-3.86,6.14-5.71.13-.11.74-.12.95-.75.13.05.23.47.19.57-.06.15-1.62,1.64-1.9,1.9-1.99,1.88-4.21,3.52-6.11,5.48-.58.36-.99-.01-1.02.02-.39.38.56.36.38.57l-2.09,1.62,2.56.18c.53-.21,1.8.08,2.15-.12.11-.07,1.37-1.61,1.75-1.96,2.11-1.94,4.34-3.79,6.56-5.61.65-.12,0,.72-.16.89-.27.3-.87.6-1.19.9-2.04,1.92-4.04,3.88-6.16,5.73,1.3.28,2.69-.04,3.96.25l3.03-3.01,3.84-3.04c.06.71-.02,1.06-.76.76l.15.45c-1.36,1.18-2.68,2.52-4.05,3.73-.41.36-1.19.65-1.23,1.05.03.27.24-.09.29-.09h3.8c.28,0,.88-.94.95-.94.14,0,.39.73.67,0l-.38-.1c.87-.76,3.93-4.11,4.85-4.28.72-.13-.11.88-.27,1.06-.8.87-2.4,2.3-3.34,3.13-.36.32-1.07.6-1.43,1.04,1.02.16,2.71.41,3.71.19.2-.04.3-.26.48-.35.11-.05.29.03.33,0,.22-.18.6-.84.99-1.18,1.38-1.19,2.79-2.32,4.08-3.53.24-.22.5-.38.77-.56.81.83-.41.74-.45.79-.11.14-.07.67-.4.83-.44.6-4.37,3.5-4.38,3.79-.02.31,1.66.17,1.84.42.65-.43,2-.15,2.49-.38.19-.09,2.39-2.55,2.86-2.98l2.79-2.3c.64-.11.05.59-.11.8-.78,1.06-2.23,2.23-3.35,2.88l-1.39,1.84c.28-.14.53-.21.85-.21,2.94.01,5.9.11,8.83.13.57,0,3.79-.18,3.97-.07.1.06-.05.33.13.33s0-.37.21-.4c.19-.03.5.16.75.16,1.31.02,2.81-.16,4.14-.16l.22.39.28-.38.1.95c.25,0-.06-.95.19-.96,1.5,0,3.06.14,4.56.14.77,0,4.1-.3,4.44-.09.09.06-.05.36.13.33.09,0,.2-1.01.57,0-.11-.47,1.25-.44,1.5-.38.22.06.03.38.21.38s.01-.28.18-.35c.32-.14,3.13.08,3.64.13,1.22-.37,2.38-.07,3.58-.01.33.01.92-.22,1.13-.17.23.05.04.39.22.39s0-.34.22-.39c.32-.07,1.49.29,1.97.01l-.1.38c.45.1.11-.34.55-.4,1.57-.19,3.72.23,5.35,0,.48.07.18.85.58,0h10.78c.4.85.11.04.59,0,1.02-.1,2.43.38,3.25.39.09,0,.08-.39.17-.37.15.03.39.26.66.29.22.03.42-.21.68-.22,2.35-.11,4.71.1,7.04.11,1.31,0,2.75-.31,4.08,0-.19-.35-.27-.42.19-.38v-.19c-.29.03-.36,0-.4-.27-.38-2.96.17-7.14.17-10.23,0-1.51-.41-10.27-.1-10.75.06-.09.77.02-.05-.34l.19-6.53c-2.69-.65-5.28-1.69-7.94-2.43s-5.24-1.1-7.74-1.87c-.41-.13-.38-.57-.55.1-.82-.49-2.01-.35-2.83-.57-.16-.04-.12-.35-.22-.35-.79.03-2.04.04-2.82-.22-.25-.08-.01-.47-.32-.37.19.67-1.24,0-1.75-.06-1.85-.24-3.89-.25-5.48-1.37-.05-.34.26-.37.47-.48.93-.52,3.8-.1,4.96.05,4.81.63,11.07,1.92,15.91,3.23,2.8.76,5.54,1.79,8.33,2.62-.7-1.07.7-.92-.2-1.26v-6.15s-2.18,2.09-2.18,2.09l-.86.29.25-.8c.51-.43,2.72-2.28,2.88-2.71.11-.29-.23-1.76-.09-2.36.05-.2.51,0,.38-.41l-.38.09v-1.14c-.97.99-2.01,1.92-2.98,2.92-.18.19-3.14,3.93-3.3,2.88-.05-.34.44-.81.66-1.05.66-.75,1.48-1.42,2.2-2.17,1.09-1.14,2.07-2.49,3.38-3.37.01-1.49.29-3.09.04-4.52-1,.87-1.76,1.99-2.65,2.95-1.28,1.37-2.68,2.64-3.99,4.04-1.03,1.1-2.03,2.48-3.1,3.59l-.7-.04c1.38-1.73,2.93-3.61,4.46-5.23,1.36-1.44,2.55-2.58,3.7-3.89.43-.5,2.02-1.8,2.2-2.19.47-1.05-.18-3.19.29-4.37-.39-.05-.62.32-.86.57-3.93,4.09-7.66,8.38-11.61,12.44-.67.68-1.44,2.24-2.55,2.11.76-1.1,1.94-2.75,3.23-3.14.11-.32-.61-.07-.29-.38.41-.4,1.34-.91,1.4-.98.24-.3.29-.78.86-1.24.65-.53.21-.25.47-.55.16-.18.52-.23.57-.31.04-.06-.18-.33-.16-.35.16-.21,1.78.15.57-.48l8-8.54c.34-.4-.09-1.16.56-1.06v-.19c-.1-.02-.38.02-.38,0v-3.04l-5.32,5.8c-2.81,2.95-5.67,5.87-8.57,8.93-1.06,1.11-2.23,2.71-3.32,3.71-.19.17-.77.56-.86.09-.06-.34,1.93-2.47,2.22-2.52.16-.02.39.2.45.14.06-.07-.16-.37-.09-.58.18-.47,1.9-2.06,2.36-2.57,3.59-3.94,8.06-8.53,11.73-12.63.4-.44,1.22-.88,1.36-1.47l.14-4.43c-.42.47-.72,1.05-1.14,1.52-1.19,1.35-3.11,3.62-4.37,4.75-.32.29-.74.57-1.04.09,1.51-1.72,3.03-3.44,4.56-5.14.33-.37.93-1.13,1.19-1.37.19-.18.6-.17.67-.27.28-.43,0-3.45.03-4.15-1.96,1.45-3.37,3.55-5.03,5.33-.38.4-.85.69-1.17,1.01-.55.57-1.01,1.77-1.87,1.65l-.1-.48,4.13-4.16c.69-.95,1.67-2.34,2.4-3.12.27-.29,1.26-.82,1.47-1.13.54-.78.09-3.14.26-4.23.05-.31.4-.57.3-.95l-9.88,10.94c-.13.13-1.19,1.24-1.15.37.03-.73,2.33-2.66,2.96-3.31l7.76-8.57c-.03-1.21.05-2.44,0-3.65-.01-.2.18-.34-.16-.53l-13.4,14.73c-.22.25-.96.05-.95-.18,0-.11,1.44-1.26,1.64-1.49,3.91-4.4,7.94-8.83,11.85-13.1.2-.22,1.08-.88,1.12-.94.06-.11-.17-.7-.17-1-.02-1.96-.01-3.94,0-5.91,0-.43.41-1-.2-.96-.13,0-.36.16-.58.18-12,.96-20.35-10.93-15.37-21.84,2.8-6.14,9.52-9.71,16.16-8.27v-1.52s.38-.09.38-.09c-.83-.27-.22-1.48-.23-2.09,0-.3-.16-.62-.17-.95-.09-6.54.16-13.12,0-19.67l-15.08.02-2.08,2.39c-1.1.17-.47.09-.76.76-.04.09-1.11,1-1.37,1-.27-.15-.04-.5.08-.68.72-1.08,2.41-2.21,3.05-3.51-.14-.12-3.17-.06-3.48.03-1.2.35-4.01,4.86-5.55,5.48-.28-.25.06-.71.19-.95.35-.61.18.57.57,0v-.56s3.51-3.91,3.51-3.91c-.3-.36-2.02-.01-2.08-.1-.12-.18.24-.72-.39-.56l.09.57-1.07-.09c-1.15.68-6.58,7.33-7.3,7.31-.94-.03.72-1.32.79-1.39.75-.84,1.41-1.8,2.17-2.63.8-.88,2.43-2.21,3-3.13.08-.13.11-.64-.15-.31.12.36-.89.22-.93.19-.09-.07.09-.41-.22-.32.08.67-1.16.18-1.72.26-.38.06-.64.17-.96.39-1.34.93-3.62,3.83-4.92,5.15-.8.81-2.58,2.85-3.34,3.33-.2.13-.45.06-.66.18-.3-.4,2.47-2.78,2.78-3.11,1.8-1.91,3.42-4.13,5.58-5.64l-1.42-.27-2.63.11c-3.43,3.43-6.65,7-10.01,10.53-.28.3-.64.75-1.05.85-.73.02,1-1.8,1.13-1.92,1.13-1,2.58-2.65,3.82-3.97,1.72-1.82,3.37-3.73,5.22-5.44.07-.46-.17-.23-.43-.23-.59,0-3.02-.02-3.33.08s-.92.66-1.17.91c-2.53,2.52-5,5.84-7.6,8.19-.24.22-.67.24-.73.31-.09.11-.03.52-.22.82-.07.11-1.62,1.82-1.72,1.9-.11.09-.27.15-.38.09-.11-.06.48-.38-.09-.38-.19,0-.06.41-.1.57-.64-.15-.06-.91.19-1.24,1.55-2.04,4.69-5.03,6.62-6.59.03-.02-.11-.29.02-.45,1.13-1.28,2.42-2.24,3.44-3.57.03-.03.89-.46.28-.52-1.2-.12-2.37-.04-3.57.04l-13.54,14.22c-.16.07-.47-.22-.47-.28,0-.09,1.11-1.37,1.23-1.44.22-.14.46.04.47.02.06-.1-.22-.35-.02-.67.38-.61,1.57-1.34,2.06-1.86.22-.24.45-.6.81-.99,2.41-2.56,5.02-5.45,7.61-8.18.21-.22.67-.39.76-.57.37-.72-2.3.05-1.9-.66h-.18c.09.7-.56.23-.98.29-.36.05-.64.16-.96.34-.71.39-.79,1.51-1.48.7.47,1-.4,1.07-.88,1.59-3.92,4.23-7.83,8.68-11.86,12.77-.88.89-2.08.82-1.07-.22,4.54-4.66,9.13-9.17,13.45-14.01.1-.11.33-.09.36-.12ZM14.7,15.24v4.37c1.53-1.29,2.51-3.13,4.18-4.28l-4.18-.1ZM23.2,15.75c.23-.25.31-.51-.03-.69l-3.66.22c-1.27,1.36-2.4,2.86-3.66,4.23-.26.28-1.07.83-1.11.89-.28.48.19,3.35-.04,4.14.66-.15.8-.82,1.21-1.26,2.24-2.43,4.6-4.7,6.78-7.2.14-.16.4-.21.51-.33ZM14.7,25.79c-.17.59,0,2.97,0,3.8,0,.08-.49.33.09.28,2.32-2.3,4.4-4.83,6.66-7.23,1.38-1.46,3.02-3.06,4.58-4.63.92-.93,1.61-2.25,2.93-2.68,0-.24-4.39-.2-4.75,0-.18.1-.64.94-.89,1.21-1.66,1.78-3.25,3.48-4.89,5.28-.5.55-3.66,3.7-3.74,3.96ZM33.52,15.05c-1.08.44-3.16-.13-4.14.33-.2.09-2.58,2.66-3,3.09-.35.36-.19.76-1.04.57.46.61-.27.75-.68,1.22-1.53,1.78-3.2,3.43-4.83,5.16-1.27,1.36-2.93,3.65-4.37,4.76-.31.24-.74.25-.77.28-.05.05.14.52.13.74-.08,1.33-.2,2.66-.13,4.01l8.18-8.94.57.38c-.4-.91.08-.68.32-1.02.63-.88,2.68-3.39,3.53-4.06.3-.23.71-.16.87-.27.04-.03-.02-.7.22-.92l.38.57c-.23-1.09.38-1.03.86-1.52.76-.78,1.38-1.75,2.31-2.35l1.59-2.02ZM70.79,31.59c-.38-.08-.44.19-.62.43-.7.95-1.18,2.59-1.8,3.7-.23.42-.56.02-.24.81l2.76-3.05-.1-1.9ZM71.36,34.25c-.45-.12-.32.12-.43.24-2.12,2.36-3.8,4.62-4.7,7.74.25-.06.58.19.77.09.31-.17,2.24-2.88,2.66-3.42s.55-.54.65-.66c.26-.31,1.23-1.49,1.34-1.74.31-.72-.34-1.54-.28-2.27ZM30.67,37.86c-.06-.08.09-.78-.29-.95l.09.95-.38.19c.44-.07.51.01.66.38.15-.59.51-.38,1.04-.38-.03-.4-.71.03-.57-.57-.24-.11-.21.81-.57.38ZM71.68,40.84c.11-.15.6-1.05.63-1.18.05-.25-.24-2.58-.56-2.37l-4.18,5.32c.58-.29.95.32,1.43.48,1.09.37,1.58-1.11,2.09-1.81.17-.24.49-.3.6-.45ZM72.95,41.61c-.22-.36-.08-.98-.45-1.08.21.83-2.45,2.74-2.09,3.23l1.9.95c-.25-.69.54-1.13.71-1.86.11-.49-.4-1.1.24-1,.08-.29-.24-.13-.31-.24ZM25.99,41.4c-.12-.09-.01-.37-.16-.3-1.41,1.14-1.47,1.79-1.43,3.52,0,.21.2.62.17.64-.07.08-.44-.12-.36.2.87.39.44-.06.86-.57.18-.22.47-.29.6-.45.53-.63.9-1.41,1.58-1.93-.37-.44-.81-.78-1.26-1.12ZM154.07,60.49v-2.66c-2.51-.13-4.74.07-6.98,1.29-.84.46-1.89,1.78-2.91,1.28-1.76-.87,2.41-3.42,3.1-3.74,2.17-1.02,4.42-1.18,6.79-1.11l-.19-.76.57-.1c-.14-.19-.35.03-.4-.37-.09-.78.3-4.23-.17-4.58-.71-.53-2.59.13-2.67-.66h-.18c-.06.58-1.52.53-2.2.75-.64.21-1.71.76-2.31,1.11-1,.58-2.55,2.31-3.62,1.8s.36-2.12.9-2.63c.06-.06,1.29-1.02,1.39-1.09.91-.56,2.13-.96,3.09-1.47.17-.03-.04.49.27.37-.07-.57.23-.2.33-.25.05-.02.04-.27.18-.31,1.54-.36,3.69-.39,5.19.18-.38-1.86-.04-3.81-.19-5.7-.59.12-1.17-.24-1.68-.28-1.98-.13-4.57.46-6.27,1.2-1.8.78-3.35,2-4.4,3.35s-1.7,1.99-2.23,3.67c-2.22,7.03,1.1,14.33,7.93,17.06.48.19,1.34-.02,1.33.66h.19c.05-.08-.08-.36.08-.36.43,0,1.38.29,1.93.31,1.04.05,2.09-.07,3.13-.14v-6.54c.79-.18,1.27-.99.19-.88l-.19.57ZM161.3,44.33c-1.78-.3-3.45-1.09-5.13-1.71l.03,5.39.27.3c.83.23,5.79,2.59,6.16,2.3-1.33-1.72-1.72-4.17-1.33-6.27ZM29.11,44.36c-.05-.08-1.26-.82-1.39-1.17h-.28c-.05.63-2.8,3.15-2.85,3.37-.16.78.51,1.51-.2,1.67.35.26.42.63.38,1.05,1.39-1.01,2.51-3.35,3.8-4.3.34-.25.91.04.53-.61ZM73.45,44.14c-.29-.34-.78.9-.77,1.03,0,.07.98.65,1.15.87l.19-1.14-.38.38c-.15-.22-.16-1.1-.19-1.14ZM29.66,48.06c1.23-1.44,1.78-1.52-.03-2.93l-1.56,1.32c-.04.77-1.16,1.48-1.65,2.07-1.41,1.69-1.78,2.17-1.26,4.54.69-.13.7-.78.94-1.05,1.17-1.31,2.44-2.66,3.55-3.96ZM32.96,48.7c-.11-.27-1.27-1.82-1.52-1.62-1.48,2.09-3.62,3.87-5.13,5.9-1.41,1.91-.89,1.8-.79,3.81,0,.07-.7.12-.36.46.27.27,1.35-1.55,1.52-1.75,1.62-1.96,3.88-4.72,5.79-6.62.12-.12.31-.19.48-.19ZM62.43,47.56c-.27-.14-.51.12-.38.19.27.14.51-.12.38-.19ZM31.16,52.42c.45-.53,2.32-2.29,2.46-2.58.23-.49.11-1.2-.48-.67-2.24,2.04-4.38,5.01-6.27,7.42-.79,1-1.44,1.03-.56,2.57,1.6-2.33,3.05-4.62,4.86-6.73ZM163.48,58.97c1.02.14,2.28-.1,3.33,0v-5.89c-.63.24-2.71.26-3.28-.01-.27-.13.03-.72-.62.01-.13-.62-.45-.12-1.09-.22-1.1-.18-3.89-1.32-5.03-1.83-.17-.08-.58-.47-.63-.41.14.69-.21,5.51,0,5.71.05.05.59-.06.82,0,1.72.46,4.43,2.38,6.5,2.66ZM43.6,50.79l-1.9,1.8-.38.67c.86-.73,1.81-1.4,2.28-2.47ZM54.63,53.08c-.3-.29-.7.85-1.08.82l-1.01,1.46c.37.09.45-.19.65-.4.17-.18,1.54-1.79,1.44-1.88ZM76.24,56.95c-8.45-4.11-13.96,11.11-4.59,14.24.11.04.06.26.19.29.78.2,2.18.15,3.06.21.1,0,.06-.33.32-.41.32-.11.67-.04,1.09-.22,5.22-2.3,5.09-11.59-.06-14.1ZM53.34,71.49c-.03-5.49-3.96-9.83-9.65-9.48-2.25.14-4.21,1.69-5.32,3.6-.21.37-.3,1.01-.45,1.23-.2.29-.79-.19-.59.68.25.11.19-.79.57-.38.04.04-.26.5-.28.73-.22,2.75-.01,3.84,1.46,6.17.09.14-.04.41,0,.47.07.09,1.59,1.38,1.79,1.52,2.83,1.98,6.48,2.18,9.41.35,1.05-.66,2.51-2.06,2.81-3.28.16-.64-.26-1.65.59-1.41l-.34-.22ZM107.15,70.33c-.09-.23.18-.67.16-1-.14-1.84-1.29-4.18-3.49-3.3-.67.27-1.8,1.49-2,2.19-.05.18-.16.49.15.43l1.75-1.57c2.34-.69,2.79,2.27,2.06,3.96-.19.45-1.67,1.99-1.53,2.17.73.35.91-.19,1.32,0-.11-.73.56-.76.78-1.08.26-.38.51-1.51.57-1.57.38-.4.31.49.57.38.23-.54-.32-.57-.34-.61ZM66.68,71.08c-.15-.24-.26-.69-.44-.8-.88-.55-4.95.85-6.16.7-.47.16-.49,1.28-.26,1.63.38.59,2.45,1.52,2.99,2.23.53.66.85,1.7.39,2.49l-3.19,2.78c-.18.99-1.02,1.84-1.29,3-1.15,4.74,3.71,5.8,7.12,3.89.79-.44,1.42-1.5,1.74-1.7.44-.28.69.48.95-.37h-.57c1.31-2.36,1.62-4.52-.67-6.36-1.17-.95-2.57-.94-2.73-2.79-.17-1.99,1.73-2.71,1.88-4.44l.57.19c.17-.48-.25-.34-.31-.44ZM34.1,78.93c.03-.62-.62-.79-1.11-.84-2.17-.23-4.41-.04-6.6-.1-.35,0-.77-.22-.93-.21-.14.01.04.62-.67.2-.03.36.13,1.41.49,1.49l8.83-.54ZM97.48,78.45l-2.14,2.43.26.23,2.14-2.43-.26-.23ZM81.57,85.52c.4-.27,1.36-1.07,1.87-1.46,1.55-1.2,2.93-2.68,4.47-3.89l-3.23-1.34c-1.17,2.13-2.62,4.04-4.27,5.82-.49.53-1.23,1.37-1.91,1.89-.42.32-2.4,1.33-2.56,1.53-.02.02-.07.4.09.37l1.91-.95.28.38c0-.24,0-.48.19-.66.51-.46,2.46-1.21,3.17-1.68ZM32.65,84.72c.42-.17,2.32-.85,2.5-1.02.43-.41.25-.85-.3-.87-.26,0-3.38,1.02-3.92,1.21-.73.26-1.59.63-2.31.93-.23.1-.51-.08-.41.33.11.44.94,1.11,1.41,1.07.53-.04.51-.56.81-.78.54-.4,1.61-.61,2.22-.86ZM91.25,86.09c.33-.39.6-.84,1.02-1.17l-.51-.03-7.48,8.49c.09.09,1.88-1.42,2.03-1.58,1.65-1.71,3.36-3.86,4.93-5.72ZM48.44,84.93l-1.94,2.25.26.22,1.94-2.25-.26-.22ZM94.37,87.3c-.42-.1-.42.24-.61.43-.54.56-1.02,1.22-1.48,1.84.3.29,2-2,2.09-2.28ZM78.68,91.86v.19c.12-.06.12-.13,0-.19ZM71.84,94.52v.19c.12-.06.12-.13,0-.19ZM69.65,96.43c-.33-.29-1.19,1.21-1.41,1.45-.68.75-1.96,1.72-2.52,2.4-.02.03-.02.55-.25.72.37.09.45-.19.65-.4.59-.61,1.15-1.26,1.74-1.88.46-.48,0-.69,1.03-.39l-.38-.47c.1-.18,1.34-1.25,1.14-1.43ZM74.02,97c-.97-.41-1.45,1.16-2.09,1.71.34.3,1.16-1.14,1.41-1.34s.7-.04.68-.37ZM62.62,99.09c-.07-.06.16-.45-.19-.38-.01.29-.06.59-.21.84-.54.87-2.35,2.41-3.12,3.34-.11.13-.52.71-.47.76l1.62-1.52c.38-.41,2.13-2.62,2.36-2.76.18-.1.71.28.96-.19-.3.04-.36-.46-.38-.47-.13-.08-.45.47-.56.38ZM71.74,99.09l-2.05,1.55c.34.63-.13.2-.4.36-.02.02.11.27.05.36-.13.21-.85.74-.64.95.34.33,1.7-1.89,1.9-2.01s.55.14.57.11c.05-.06.05-1.07.57-1.33ZM64.71,101.94c-.3-.29-1.42,1.59-1.84,1.58-.49.9-1.35,1.84-2.07,2.59-.36.38-1.27.52-1.22,1.53.42-.4,5.41-5.44,5.13-5.7ZM74.69,105.67c.57-.79,1.44-1.48,1.8-2.4-.29-.29-2.38,3.02-3.04,2.86l.48.38c.1-.52.57-.32.66-.39.03-.02-.22,0,.1-.45ZM67.18,104.03l-1.81,1.71-.47.76,1.9-1.8.38-.66ZM70.93,105.3c.21-.23.27-.78.63-.99.12-.51-.43-.1-.51-.03-.57.59-1.2,1.32-1.77,1.94-.36.4-.69,1.39-1.11,1.08-.02.52-2.18,2.35-1.94,2.62.27.3.73-.86,1.08-.82.66-.88,1.62-2.36,2.72-2.6.02-.38-.69,0-.19-.48.33-.31.86-.48,1.09-.72ZM35.9,104.41l-.28.28c0,.2.48-.11.28-.28ZM25.54,107.26l-.47-.95c-.43.64-1.25,1.11-1.43,1.9l1.14-1.33c.37-.06.1.45.19.57.04.05.36-.3.57-.19ZM70.22,110.68l2.09-2.66c-.73.74-2.15,1.53-2.09,2.66ZM61.48,110.31h-.76s.38.28.38.28c-.92.32-.56.45-.69.66-.17.28-.52.38-.45.76l1.05-.95.47-.76ZM43.54,111.2c.17-.19.28-.44.25-.7-.46.05-1.95,1.64-1.71,1.9.33.36.4-.37.46-.36.12.01.4.25.49.17.06-.05-.23-.33-.11-.57.11-.22.48-.28.62-.44ZM77.44,113.15c.06-.11-.03-.49.11-.75.22-.42,1.22-.88.95-1.53-.69.82-1.37,1.69-2.09,2.48-.37.41-1.2.77-1.24,1.51.71-.39,1.18-1.28,1.8-1.73.21-.15.45.03.47,0ZM39.61,115.25c.78-.67,1.78-1.45,2.09-2.47-.64.44-.97,1.26-1.61,1.72-.55.39-.81-.16-.48.75ZM116.78,126.69c-.05-.04-.67.08-1.25-.19s-1.98-1.42-2.48-1.52c-.43-.09-2.46.67-3.09.73l-.19-.57-.32.73c-1.42.12-2.76.61-4.15.88-.71.14-1.75,0-2.28.48l-.1-.38h-.19c.07.57-.79.43-1.25.56-.88.26.14.4.39.57.5.35,1.96,1.5,2.47,1.51.38,0,2.69-.87,3.33-1.05.32-.09.65.11.73.08.96-.42,2.07-.95,3.31-1.16,1.07-.18,1.57.17.33.73-1.1.5-6.75,1.54-7.13,1.99-.12.14-.11.22-.09.39.79-.43,1.82,1.08,2.56,1.12,2.54-.63,5.09-1.68,7.62-2.25,2.36-.53,2.45.12.28.84-1.6.54-3.61.99-5.31,1.49-.39.11-1.84.26-1.92.32-.33.28.13.34.25.42.82.57,1.44.88,2.27,1.3.24.12.02.45.43.37.17-.03.04-.27.24-.37,1.45-.71,6.44-1.85,8.22-2.2.32-.06,1.04-.25,1.26-.26.08,0,.05.64.46.36.02-.01-.21-.36-.02-.48.28-.18,1.73-.24,1.73-.57-1.77-1.15-3.97-2.06-5.7-3.24-.28-.19-.34-.58-.41-.63ZM71.55,125.52c-.91-.38-1.34.57-1.01,1.28.2.43,1.56,1.27,1.96,1.72.25.27.86,1.08,1.03,1.39.36.65-.05,1.35,1.06,1.12.34-.31-1.18-3.15-1.58-3.55-.53-.53-1.98-.86-1.46-1.96ZM68.62,130.16c-.46-.42-2.79-2.11-2.17-.59.09.22,1.04.71,1.4,1.07.71.71,1,1.53,1.41,2.39.11.24,0,.47.49.27.9-.38-.6-2.67-1.12-3.15ZM133.07,130.73c-.51-.46-.96-.82-1.71-.64l-19.12,4.66c-.6-.37-.97-.29-.24.22.68.47,4.43,2.69,4.34,3.29-.16,1.07-1.73,1.3-2.63,1.56-2.54.73-5.27,1.49-7.87,2.04-.15.03-.88.18-.93.17-.14-.04.02-.55-.47-.35l.19.37-2.09.67c.42.53,1.77,1.1,1.33,1.81l.59-.09c2.79,2.32,5.61,4.65,8.41,6.98.17.14.74.86.8.87.59.14,3.23-1.13,3.98-1.12.17,0,.09,1,.42-.19,3.39-.87,6.76-1.86,10.06-3.03.17-.04-.04.48.27.38-.02-.22.04-.33.24-.44,2.49-1.35,8.53-2.38,11.46-3.22.06-.02.67-.47,1.08-.58.58-.15,1.94-.13,2.03-.18.04-.02.1-.4.45-.58.22-.11,3.11-.74,3-1l-13.58-11.61ZM76.25,131.85c-.56-.52-.89.27-1.2.7l-1.98,1.34,5.32.95-2.14-2.98ZM103.04,145.19c-.27-.2-1.19-.98-1.38-1.01s-1.02.65-1.54.7c-.69.07-.72-.85-1.18-.25l2.05,1.98c1.12,1.38,2.3.45,3.64-.08-.55-.13-1-1.07-1.17-1.2-.03-.02-.02.17-.42-.14Z"/>
        <path d="M50.88,70.34s.28.02.32.15c.03.12.04,2.24.02,2.44-.12,1.12-.73,2.15-1.74,2.65-.43.21-1.23.62-1.12-.07h-.19c.15.78-.89.07-1.24-.19-1.78-1.38-2.35-5.14-1.67-7.18.07-.22.35-.24.37-.28.07-.13-.09-.39.15-.71,1.31-1.71,3.71-.74,4.58.93.38.73.43,2.08.52,2.26Z"/>
        <path d="M71.85,68.53c-.84-1.58-1.31-4.08-.51-5.88.18-.4.5-.41.55-.48.04-.07-.18-.29.02-.63.32-.53.83-.39,1.1-.85,3.53-.76,4.53,3.26,4.23,5.98-.33,3.01-3.11,5.14-5.32,2.29-.1-.13-.02-.31-.08-.42Z"/>
        <path d="M66.89,80.37c.81,1.21.64,3-.22,4.22-.27.38-1.57,1.57-1.96,1.69-.34.1-.65-.12-.74-.08-.03.01-.04.29-.16.34-1.42.67-3.86-.27-3.87-2,0-1.44,1.96-5.34,3.54-5.6s2.57.18,3.4,1.42Z"/>
      </g>
    </g>
  </g>
</svg>