<?xml version="1.0" encoding="UTF-8"?>
<svg id="Layer_2" data-name="Layer 2" xmlns="http://www.w3.org/2000/svg" viewBox="0 0 174.63 174.34">
  <defs>
    <style>
      .cls-1 {
        fill: none;
      }
    </style>
  </defs>
  <g id="Layer_1-2" data-name="Layer 1">
    <g>
      <path class="cls-1" d="M77.98,140.03c-.21-.23-.33-.8-.72-1.03-.36-.22-.62-.43-1.01-.1l-6.32,6.73c1.89,1.06,3.35,2.67,4.92,4.11.39.35.62.64.99.99,2.33,2.22,1.96.83,3.73-.72.46-.41.93-.71,1.47-1.25.36-.36,1.93-2.01,1.9-2.31-.5-.84-1.07-1.66-1.64-2.45-1.04-1.44-2.15-2.69-3.33-3.97ZM73.84,146.03c-.36.2-.55.11-.78-.2.01-.37,1.5-1.64,1.75-1.95.45-.56,1.66-2.79,2.43-2.63,1.17.24-.69,1.63-.78,1.74-.3.35-.47.77-.76,1.1-.23.27-1.74,1.87-1.85,1.93ZM77.05,146.13c-.46.43-1.28,1.21-1.75,1.55-.64.46-.86-.19-.38-.77.28-.34,3.34-3.44,3.65-3.64.3-.2.54-.31.91-.26-.15.24.01.57-.1.77-.13.21-2,2.04-2.33,2.35ZM80.43,146.69c-1.12.29-1.27,1.98-2.5,1.97-.14-.74.64-.92,1.02-1.37.2-.24.75-1.29,1.02-1.35l.48.29-.02.46Z"/>
      <path class="cls-1" d="M55.51,145.23c-1.1,1-2.47,2.34-3.59,3.23-.48.38-.98.9-1.65.78.07-.66.61-.58.91-.85.61-.56,1.23-1.62,1.75-2.04.42-.35,1.33-.6,1.4-.65.37-.31.63-1.33,1.6-1.13-.61-.89-1.53-1.8-2.64-2.04-.97-.2-3.45.49-4.27,1.06-1.23.85-1.98,3.41-2,4.83,0,.23.71,2.42.79,2.53.05.07,1.27,1.02,1.36,1.06,2.38,1.04,6.12-.25,7.1-2.73.66-1.66.63-3.3-.34-4.72.08.38-.19.47-.41.66ZM48.91,147.88l.1-.97c1.54-1.37,2.9-3.08,4.96-3.7.11.11-.84,1.14-.96,1.27-.9.94-1.89,1.61-2.83,2.43-.42.36-.48,1.13-1.27.97ZM51.44,151.38c-.15-.73.59-.87,1.05-1.2.37-.26.27-.78,1.09-.56l-.2-.58,1.36-.78c.46.52-2.31,3.45-3.31,3.11Z"/>
      <path d="M88.89,131.89c.36-.43,1.54-1.78.15-1.03-.48.26-3.32,3-2.94,3.39,0,0,.02.02.04.02.39.1,2.51-2.09,2.76-2.38Z"/>
      <path d="M85.69,131.86c.19-.27.81-.41.96-.86l1.39-2.6c-.94.23-1.22,1.4-1.62,1.88-.76.9-2.06,1.45-1.88,2.99,1.04.22.93-1.09,1.15-1.42Z"/>
      <path d="M87.39,151.31c.3-.36,1.87-2.39,1.94-2.64.07-.24,0-.61-.21-.59-.19.01-2.17,2.49-2.25,2.91l-.34-.15c-1.35,2-3.4,3.36-4.89,5.19-.15.18-.95,1.07-.79,1.21.9.16.93-.53,1.35-.88,1.68-1.42,3.77-3.36,5.19-5.03Z"/>
      <path d="M89.99,151.67l-.39-.39c-1.02,1.05-2.05,2.11-2.99,3.22-.29.34-.37.33-.53.52-.56.66-1.22,1.58-1.55,2.4.27.25,1.8-1.35,2.07-1.63.56-.57,1.38-1.5,1.94-2.16.54-.63.96-1.3,1.44-1.97Z"/>
      <path d="M62.66,152.68c.4-.44,1.48-1.55.75-2.07-.47,1.04-1.51,1.53-2.17,2.21-.32.33-.6.87-.92,1.22-.16.18-1.69,1.23-1.29,1.63.35.34,1.2-.99,1.6-.98.51-.78,1.46-1.38,2.03-2.01Z"/>
      <path d="M41.24,145.85c.08-.1.03-.36.12-.45.05-.04,1.17-.4.73-.83-.21-.2-.6.14-.78.3-.47.42-3.06,3.06-3.2,3.41-.13.33-.14.62-.11.96.47.09.49-.04.75-.32.83-.87,1.71-2.11,2.48-3.07Z"/>
      <path d="M68,153.83c-.67.43-2.07,1.88-2.62,2.55-.18.22-.64.17-.51.75.1.46.54.13.76-.01.5-.33,3.21-2.87,3.13-3.29-.29-.43-.43-.21-.76.01Z"/>
      <path d="M65.17,152.95c-.57.28-3.94,3.13-3.41,3.69,1.23-.19,2.16-1.74,2.99-2.66.29-.32,1.15-.45.42-1.04Z"/>
      <path d="M41.31,153.03c-.45.41-1.9,2.19-2.15,2.72-.11.24-.25.4-.18.69.27.03.52-.09.72-.26.83-.71,1.52-2.17,2.5-2.85.27-.53-.33-.81-.88-.3Z"/>
      <path d="M88,156.69c-.14.3-.18.59-.15.92.32.33,1.32-.86,1.55-1.12.23-.26,1.73-2.21,1.56-2.38-.29-.3-2.79,2.19-2.97,2.58Z"/>
      <path d="M39.47,151.58c.8-.73,2.27-2.44,2.43-3.51l-2.46,2.21c-.37.66-1.08.84-.65,1.68.35.07.47-.19.68-.38Z"/>
      <path d="M47.35,138.53c-.3-.28-.59.22-.72.32-.59.46-1,1.09-1.52,1.61-.42.42-1.06.35-.68,1.17.42.36,3.22-2.84,2.92-3.11Z"/>
      <path d="M79.39,130.94l-.11-.58c-.43-.35-3.22,2.07-2.72,2.73l2.83-2.14Z"/>
      <path d="M85.12,142.43c.11-1.15,2.03-2.31,2.44-3.11.16-.3-.07-.59-.2-.58-.2,0-2.51,2.61-2.68,2.97-.22.46-.14.71.43.73Z"/>
      <path d="M86.01,144.18c-.19.24-.43.63,0,.77.38.13.75-.41.99-.66.37-.39,1.39-1.44,1.6-1.81.14-.25.35-.49-.07-.64-.23-.08-2.07,2.16-2.52,2.34Z"/>
      <path d="M70.62,154.89c-.62.13-.56.71-.73.92-.09.11-1.24.67-1.31.93.34.92.82.49,1.27.01.31-.33.66-.8.84-1.21.15-.34.35-.34-.07-.64Z"/>
      <path d="M30.99,68.23c.49.45,2.15-1.58,2.68-1.79l-.25-.74c-.47.22-3.03,1.98-2.43,2.53Z"/>
      <path d="M169.81,73.37c-.36.32-1.07.2-.96,1.1l-.29-.39c-1.87,1.47-3.72,2.03-5.94,2.63-.32.08-.62.41-.92.45-.35.05-.63-.23-1.02-.07-.74.31-.79,1.81-.21,2.15.39.23,3.29-.2,3.93-.36,2.12-.55,3.86-2.11,5.81-2.86l-.19-.37c1.38-.42,4.6-2.83,3.79-4.49-.77-1.57-3.39,1.66-4.01,2.21Z"/>
      <path class="cls-1" d="M92.54,146.6c-.39-2.59-.54-5.27-1.2-7.78l.41-.48c-.93-.06-.29-1.47-.68-2.15l-2.9.38c-1.87-.04-4.4-1.16-5.7-2.51-.23-.24-.09-.49-.14-.54-.34-.4-.96-.82-1.27-1.34-.37-.63-.77-2.47-1.09-2.8-.46-.47-4.6.44-5.48.57-.63.1-.7.2-.94.24-9.29,1.55-19.64,3.23-28.49,5.61-.6.16-1.18.28-1.8.21v2.73c.4-.21.51-.67.87-.98.19-.16,1.41-.97,1.27-.29-.09.46-.99,1.35-1.36,1.76-1.84,2.09-3.07,4.78-5.33,6.65-.56.46-2.5.97-2.64,1.56-.08.31.29,2.18.33,2.72.04.52.15,1.08.18,1.33.25,2.18.4,4.37.83,6.53l3.02-.17.19.36c.64-.31.63-1.12.93-1.5.46-.58,1.85-1.36,2.38-2l.27.75c-.97.52-1.53,1.56-2.58,1.95l-.12.6c1.77-.07,3.58-.17,5.35-.15.71,0,1.5.22,2.33.23,1.68,0,3.76-.43,5.27.12l.19-.39c2.19.63,5.57.01,7.98.01,4.25,0,8.59.43,12.87.16l.38.41.22-.39c3.04-.05,6.11.21,9.13-.18l.19.36c.56-.47,1.87-.18,2.73-.19,1.31-.01,2.4.12,3.61.12.74,0,1.57-.33,2.32-.13-.1-2.8-.51-5.58-.91-8.34-.13-.92-.49-2.16-.63-3.06ZM38,149.24c-.04-.34-.02-.64.11-.96.14-.35,2.73-2.99,3.2-3.41.18-.16.57-.5.78-.3.45.43-.68.79-.73.83-.09.09-.04.35-.12.45-.78.96-1.66,2.2-2.48,3.07-.26.28-.29.4-.75.32ZM38.78,151.97c-.43-.84.28-1.02.65-1.68l2.46-2.21c-.15,1.06-1.63,2.78-2.43,3.51-.21.2-.33.46-.68.38ZM42.19,153.33c-.98.68-1.67,2.14-2.5,2.85-.2.17-.45.29-.72.26-.07-.29.07-.46.18-.69.25-.53,1.71-2.31,2.15-2.72.56-.51,1.15-.23.88.3ZM88.53,141.84c.41.15.21.4.07.64-.21.37-1.23,1.42-1.6,1.81-.24.25-.61.79-.99.66-.42-.14-.18-.53,0-.77.45-.18,2.29-2.42,2.52-2.34ZM84.69,141.7c.17-.36,2.48-2.96,2.68-2.97.13,0,.35.28.2.58-.41.81-2.33,1.96-2.44,3.11-.58-.02-.65-.26-.43-.73ZM79.28,130.35l.11.58-2.83,2.14c-.5-.66,2.3-3.08,2.72-2.73ZM72.66,135.22c.37.47-1.65,2.64-2.03,3.03-.27.28-1.98,2.18-2.25,1.15-.13-.49,1.67-2.3,2.34-2.04l-.39-.39c1.28.02,1.25-1.37,2.33-1.75ZM70.44,133.88c.32-.2.43-.29.86-.21.25.19-1.55,2.05-1.85,2.33-1.14,1.07-2.67,1.94-3.6,3.23l-.59-.11c-.18-.18,1.17-1.62,1.38-1.84.37-.38,1.2-.96,1.77-1.48.65-.59,1.27-1.45,2.03-1.92ZM63.8,136.97c.25-.23.66-.64.81-.78.63-.55,2.15-1.8,2.8-2.22.21-.14.78-.45.96-.3.3.24-.86.82-.79,1.07-.72.78-1.72,1.44-2.46,2.11-.25.23-2.49,2.79-2.79,2.46-.14-1.19.68-1.62,1.46-2.34ZM56.68,137.84c.15-.2,3.75-3,4.01-3l.27.75-2.12,1.2.16.35c-.65.51-1.71.61-1.74,1.56l-.75.03c-.03-.34-.03-.6.18-.89ZM44.43,141.65c-.38-.83.27-.75.68-1.17.51-.52.92-1.15,1.52-1.61.13-.1.42-.6.72-.32.3.27-2.5,3.47-2.92,3.11ZM58.51,149c-.6,1.91-1.23,2.68-2.72,3.82-.14.11-.19.37-.38.48-2.99,1.76-8.27,1.18-9.76-2.26-.22-.51-.05-.72-.11-.97,0-.03-.29-.03-.32-.17-.46-2.19.4-5.72,1.96-7.35,4.68-4.85,13.4-.16,11.34,6.45ZM60.63,154.68c-.4,0-1.25,1.33-1.6.98-.4-.39,1.14-1.45,1.29-1.63.31-.35.6-.9.92-1.22.66-.67,1.7-1.17,2.17-2.21.73.52-.35,1.63-.75,2.07-.58.62-1.52,1.22-2.03,2.01ZM61.76,156.64c-.53-.56,2.84-3.41,3.41-3.69.73.59-.13.72-.42,1.04-.83.92-1.76,2.47-2.99,2.66ZM65.64,157.11c-.22.15-.66.47-.76.01-.13-.57.33-.53.51-.75.55-.66,1.95-2.11,2.62-2.55.33-.22.48-.44.76-.01.08.42-2.63,2.97-3.13,3.29ZM70.69,155.54c-.18.41-.53.89-.84,1.21-.45.48-.94.91-1.27-.01.07-.26,1.22-.82,1.31-.93.18-.21.11-.78.73-.92.42.31.22.31.07.64ZM74.54,152.23c-1.66-1.61-3.87-3.13-5.46-4.76-1.54-1.58-1.37-2.59-.03-4.27.47-.58,4.88-5.02,5.21-5.19.08-.04.32.16.34.14.03-.04.28-.92.33-.96,1.93-2.04,3.48.03,4.82,1.47,1.35,1.45,4.28,5.12,5.15,6.83.28.55.26,1.09.21,1.69l-6.74,6.73c-2.04,1.49-2.72-.57-3.83-1.65ZM80.84,157.22c-.16-.14.64-1.03.79-1.21,1.49-1.83,3.54-3.18,4.89-5.19l.34.15c.09-.41,2.07-2.89,2.25-2.91.21-.01.28.35.21.59-.07.25-1.64,2.28-1.94,2.64-1.42,1.67-3.51,3.61-5.19,5.03-.42.35-.45,1.05-1.35.88ZM84.54,157.42c.32-.82.98-1.74,1.55-2.4.16-.18.24-.18.53-.52.94-1.11,1.98-2.17,2.99-3.22l.39.39c-.49.66-.9,1.33-1.44,1.97-.55.65-1.38,1.59-1.94,2.16-.27.28-1.8,1.87-2.07,1.63ZM89.4,156.49c-.23.26-1.23,1.46-1.55,1.12-.04-.33.01-.62.15-.92.18-.39,2.68-2.88,2.97-2.58.16.17-1.34,2.12-1.56,2.38Z"/>
      <path d="M163.45,97.3c-.87-.41-2.11-1.88-2.48-2.78-.61-1.48-.28-2.45-.26-3.87.61-.34.93-1.32,1.52-1.88,1.1-1.06,2.73-1.11,3.9-1.99.22-.81.6-4.77-.67-4.74-1.49.04-1,2.67-1.07,3.72-.83-.04-1.66.26-2.38.65-.46.25-1.91,1.68-2.18,2.09-1.18,1.74-1.38,4.41-.8,6.42.28.97.57.82.77,1.16.09.15-.07.48.13.85.71,1.33,2.75,2.55,4.25,2.68.34,1.46-.16,2.97-.18,4.37,0,.52.22.99.21,1.55-.02,1.27-.09,2.53-.22,3.79-1.05,0-2.77,1.26-3.47,2.07-2.56,2.99-2.87,8.23.35,10.89.81.67,1.83.73,2.61,1.29l.32,9.3c-1.05-.11-3.03,1.28-3.7,2.04-1.29,1.46-2.35,4.87-1.93,6.77,0,.04.21.56.27.73.85,2.39,2.42,3.96,4.97,4.49l-.58,25.5c-1.48-.27-3.42-.3-4.94-.17-.46.04-.71.06-1.09.36-.15-.88-1.51-.21-2.07-.21-1.45-.02-2.8-.08-4.27-.08h-5.36c-.22-.11-.6-2.02-.82-2.48-.74-1.52-2.23-3.11-3.84-3.75-3.81-1.52-8.04-.13-9.81,3.63-.29.61-.57,2.33-1.19,2.42l-9.51.06c-.69-.88-.78-2.04-1.4-3.1-2.17-3.69-7.57-4.12-10.82-1.66-1.57,1.19-1.97,3.24-3.04,4.76l-8.52.03c-.71-3.95-3.55-6.83-7.81-6.45-2.14.2-4.81,2.36-5.64,4.29-.19.45-.5,2.31-.78,2.33-1.16-.55-2.74-.02-4.08,0-.69.02-4.59.1-4.78-.2.4-.91-.27-2.41-.74-3.25-2.21-3.9-7.95-4.4-11.04-1.24-.9.92-1.2,1.74-1.85,2.83l.39.29c-.53,0-.67.92-.79,1.36h-8.56c-.05-1.79-1.08-4.11-2.49-5.26-2.27-1.86-6.37-1.68-8.65.01-1.44,1.07-2.62,2.92-2.88,4.71l-.24.21-8.82.14c-.78-.11-.39-1.02-.53-1.62-.5-2.05-2.18-3.79-4.06-4.71-.18-.09-.42.07-.47.05-.15-.06-.09-.28-.19-.3-2.18-.52-5.43.22-7.12,1.81-1.05.99-2.47,3.1-2.34,4.57l-10.9-.19c.05-.76.26-1.55.28-2.31.07-2.7-.02-5.52.02-8.14,0-.8.11-1.72.27-2.51l-.37-.19c.67-.16.18-1.41.19-2.14.03-2.13.33-4.31.39-6.44.02-.7-.25-1.57-.17-2.3.07-.19,2.81-1.92,3.28-2.38.17-.17,1.43-1.73,1.48-1.84.1-.21-.09-.44-.05-.54.01-.03.3-.02.44-.41.76-2.07.9-3.82.02-5.89-.77-1.81-3.01-3.61-5-3.67l.4-10.12c.81.16,2.56-.82,3.05-1.42.22-.28.27-.69.47-.99.24-.35.37-.63.4-.67.07-.1.44-.12.64-.43.78-1.18.99-4.69.63-6.07-.32-1.23-2.06-3.23-3.19-3.82-.72-.38-1.29-.36-2.03-.54l.22-9.62c.76.41,1.62-.87,2.19-1.29.07-.05.44-.01.8-.3,2.34-1.92,3.62-5.82,2.31-8.67-.97-2.1-2.34-2.86-4.2-3.79-.23-.11-1.07-.46-1.08-.65.56-.95.19-2.27.49-3.35l-.03-5.72c3.11-1.22,5.63-3.93,5.64-7.49,0-.73-.41-1.42-.09-2.12-.81-1.02-1.34-2.93-2.59-3.75-.07-.05-1.33-.6-1.44-.64-.26-.1-1.04-.02-1.19-.24-.29-.44-.04-4.95-.02-5.72,0-.34-.17-.67-.16-.97,0-.36.22-2.28.39-2.4.15-.1.69-.09,1.12-.34,2.71-1.58,5.01-5.44,4.35-8.6-.09-.45-.59-1.85-.75-2.18-.09-.19-.49-1.09-.53-1.14-.11-.11-.45-.09-.63-.24-.39-.33-.57-.61-1.06-.89-.86-.5-1.91-.5-2.53-1.19.3-2.51.13-5.06.09-7.56-.01-.71.44-1.32-.11-2.04,1.49-.17,2.71-1.39,4.08-1.97-.33-.78,0-.44.28-.77,1.77-2.11,2.21-4.85,1.28-7.47-.45-1.26-1.95-2.68-3.16-3.26-.54-.26-1.08-.38-1.69-.36V2.23s12.34-.37,12.34-.37c.46.11.43,1.55.55,1.97,1.48,4.89,7.33,7.05,11.7,4.4,2.17-1.31,3.32-3.13,3.87-5.58l9.89-.04c.48,4.22,4.65,6.95,8.81,6.19,1.87-.34,4.29-1.91,5.07-3.51.46-.95.73-2.02.93-3.05l9.72-.21c-.04,3.44,2.3,5.77,5.5,6.67,4.2,1.18,8.67-1.95,9.13-6.25l9.71-.22c-.23.76.22,1.92.53,2.68.09.23.38.24.4.28.19.45-.08.63.66,1.4,2.87,3.05,7.31,3.03,10.39.31,1.5-1.32,1.83-2.54,2.44-4.39.21-.16,4.14.13,4.77.13,1.02-.01,2.94-.2,3.7-.36.16-.03.6.13.88-.05-.02,1.06.15,2.05.61,3.01,2.78,5.81,11.35,4.77,13.79-.82.23-.52.37-1.22.41-1.78l9.92-.21c.18,1.93.72,3.8,2.24,5.06l.29-.39c-.19,1.04.26.64.51.84,1.81,1.48,4.16,1.58,6.4.92,3.05-.89,4.94-3.35,5.37-6.42h10.18c.55.2.19.71.23,1.07.17,1.49,0,2.88,0,4.38-.02,2.06.12,4.15.08,6.21-2.01.66-3.4,1.82-4.42,3.67-.13.24-.8,1.46-.83,1.55-.62,2.63-.15,5.65,1.82,7.59.08.08.37.01.46.11.1.1,0,.39.17.55.44.4,2.47.57,2.56,1.08-.18,1.92-.23,3.88-.28,5.8,0,.24.24.53.25.8,0,.13-.35,1.95-.41,2.04-.19.28-.9.46-1.25.7-.61.43-1.02.59-1.42.85-.23.15-1.49,1.62-1.67,1.9-.79,1.21-1.03,2.75-.59,4.13l1.34-.17c-.38-.91.14-.73.18-.9.02-.09-.13-.33-.07-.47.51-1.35,1.54-2.68,2.8-3.42.53-.31,1.97-.54,2.34-.76.81-.49.34-2.05.38-2.73.1-1.63.09-2.85.12-4.47.01-.74.38-4.23.19-4.68-.3-.71-2.12-.77-2.88-1.11-.8-.36-.98-.99-1.32-1.2-.11-.07-.37.09-.38.07-.09-.14-.7-2.86-.73-3.17-.15-1.69,1.04-3.81,2.47-4.71l-.39-.29c.77.1,1.29-.43,1.95-.68.52-.2,1.32,0,1.48-.67l.06-14.49c-.19-.61-3.05-.56-3.59-.52-.56.05-.68.31-.97.39-.07.02-.08-.44-1.16-.47-2.63-.08-5.36.2-7.99.16-.82.81-.55,1.99-1.03,3.17-1.92,4.71-9.73,4.78-10.5-.67-.12-.83.22-1.48-.1-2.14-1.64-.82-3.6-.19-5.3-.15-.71.02-4.84-.23-5.13-.04-.06.04-.04.24-.04.33-.31-.44-2.22-.4-2.59-.17-.52.33-.39,1.22-.58,1.77-.71,2.11-2.19,3.78-4.38,4.38-.8.22-2.63.24-3.41.05-.15-.04-.15-.3-.29-.36-1.4-.59-2.22-1.15-2.71-2.7-.31-.97-.06-3.1-.84-3.45l-11.94.13c-.84.52-.49,1.46-.76,2.15-.15.4-1.51,2.74-1.77,3.02-.49.53-3,1.18-3.74,1.19-2.48.03-4.66-2.07-5.12-4.39-.23-1.19.19-2.3-1.72-2.38-1.44-.06-3.36.28-4.85.27-1.13,0-4.54-.44-5.35-.15-.23.08-1.18.66-1.28.84-.22.44.13.89.08.95-.05.07-.37.05-.49.3-.06.13,0,.72-.17,1.08-.12.29-.84,1.84-.9,1.92-.01.02-.29-.1-.47.02-.74.48-1.33,1.19-2.32,1.38-2.63.51-5.39-.55-6.38-3.17-.45-1.19.19-3.58-1.61-3.66-1.05-.05-3.25.01-4.09.41-.14-.62-1.18-.2-1.75-.18-1.38.03-3.35-.13-4.67.04-2.5.32-1.44.99-2,2.83-.6,1.96-2.17,3.6-4.25,3.74-.43.03-2.85-.02-3.23-.11-1.14-.29-2.97-2.56-3.27-3.7-.08-.32-.06-1.75-.12-1.84-.68-1-1.92-.61-2.73-.63-3.33-.1-6.68.02-10.03.14-.91.3-.99,2.21-1.31,2.97-1.69,4.08-8.01,4.92-10.47,1.33-.13-.19-.79-1.31-.82-1.42-.24-.92.07-1.92-.58-2.92-.78-1.19-1.89-.49-2.88-.54C12.51-.02,9-.11,5.16.2c-.71.06-.98-.4-1.62.56-.75,1.13-.19,2.02-.24,3.11-.02.43-.25.83-.27,1.22-.15,3.03.02,6.15-.27,9.13-.2,2.11,1.67,1.62,2.77,2.08.67.28,2.19,1.78,2.39,2.47.46,1.53,0,3.99-.97,5.27-.59.78-1.65,1.35-2.53,1.75-1.64.73-1.74-.05-2,2.24-.29,2.62-.15,6.04-.17,8.74,0,.66-.49,2.18.24,2.66.52.34,2.2.49,3.03.97.24.14,1.86,1.94,1.9,2.07.91,3.35-.7,6.17-3.69,7.71-.18.09-.51-.04-.83.12-.09.05-.91.87-.92,1.08v3.08s.39.22.39.22c-.68,1.47-.54,5.23-.49,7.02,0,.14-.29.29-.2.48.79,1.42,1.54.75,2.75,1.15.36.12.28.32.53.46.13.08.42-.06.49,0,.09.06,1.12,1.58,1.22,1.79.53,1.15.59,2.87.38,4.06-.07.4-2.08,2.78-2.59,3.1-.87.54-2.5.62-2.78,1.51-.23.76.11,1.24.08,1.87-.1,2.69-.58,6.35-.38,8.94.18,2.27,1.41,1.52,2.97,2.26.27.13,1.06.86,1.23,1.15l.29-.39c.65,1.87,1.24,2.68.96,4.75-.18,1.27-1.19,2.87-2.22,3.63-.79.58-3,.78-3.31,1.65-.09,2.39-.05,4.81-.09,7.21-.02,1.26-.63,4.47.39,5.25,6.81,1.16,5.79,9.16-.19,10.73-.52.32-.48,1.33-.49,1.94-.03,1.76.14,3.52.18,5.25.01.74-.46,1.86.1,2.34l-.4.22c.41,1.13-.5,2.81.68,3.58.47.31,1.32.36,1.9.63.78.36,2.33,1.43,2.57,2.28.07.24-.12.48-.09.65.03.15.34.11.38.26.12.39-.42,1.5.2,1.92-.63.21-.58.96-.82,1.51-.21.48-.32,1.05-.36,1.1-.02.03-.53.11-.75.32-.73.66-1.23,1.87-2.34,2.15-.23.06-.53-.11-.67-.07-.2.06-.36.66-.91.65l-.19,7.36.4.22c-1.08,1.85.29,4.31-.58,6.25l.37.16-.35,4.97.37.11c-.84.25-.08,1.46-.57,2.16l.37.16c-.29.63-.53,1.12,0,1.67l-.38.12c.19.87-.33,3.34.24,3.92,1.15,1.2,5.88.21,7.46.81.99-.62,3.44.03,4.87-.06.51-.03.99-.23,1.49-.31.59-.84.49-1.93.88-2.87,1.02-2.43,3.39-3.66,5.98-3.47.79.06,2.62,1.2,3.09,1.86.37.52,1.08,2.32,1.16,2.95.09.77-.44,1.51.5,1.82,3.87-.08,7.72.23,11.58-.12,1.01-.26,1.13-2.01,1.53-2.95.14-.33.41-.5.57-.8.08-.15-.03-.39.03-.48.75-1.15,2.55-1.37,3.53-2.19.14.64.9.23,1.48.31,1.85.27,3.44,1.38,3.93,3.23.19.74-.03,2.97.86,3.23,2.13-.03,4.26.07,6.38.05.52,0,1-.22,1.56-.22.88,0,1.78.39,2.72.21,1.19-.23,1.32-2.71,1.85-3.79,1.31-2.68,4.24-3.35,6.86-2.19.26.12,1.24.51,1.29.56.37.36-.09.21.78.77.08.05.51,1.46.56,1.68.48,2-.76,2.82,2.11,3.04,2.1.16,6.47.11,8.55-.08.37-.03,1.31-.17,1.56-.38.31-.27.82-2.44,1.16-3.13,1.38-2.79,4.41-3.69,7.23-2.25.19.1.2.32.35.44.11.09.36.03.46.12.2.19,1.14,1.87,1.23,2.17.27.88.08,2.52,1.02,2.88.4.16,2.24.15,2.78.15.83,0,1.73-.22,2.52-.22,1.67,0,3.81.31,5.45.22,1.57-.09,1.27-1.54,1.6-2.5.85-2.49,2.25-3.82,5.03-3.88,1.94-.04,4.28,1.28,4.96,3.17.71,1.99-.51,3.06,2.44,3.21,2.94.15,7.34-.03,10.33-.21,2.2-.13,1.59-1.3,2.13-2.92.66-2.01,3.14-3.35,5.18-3.43,2.34-.09,4.57,1.6,5.44,3.72.35.85.09,1.75.43,2.6.33,0,.88.36,1.07.38.47.07.66-.26.92-.26,5.24.06,10.53.39,15.78.12,1.97-.1,3.61.25,3.76-2.08.17-2.66.09-5.51.16-8.16.14-4.99.05-9.99.17-14.99.02-.78.51-2.8.09-3.3-.53-.64-2.06-.69-2.96-1.28-3.15-2.03-2.44-7.12.45-9.03,1.84-1.22,2.93.15,3.02-3.13.07-2.67.14-6.95-.11-9.54-.13-1.37-.72-.74-1.66-1.06-1.11-.38-2.56-1.73-2.99-2.71-.11-.25.12-.56-.38-.7.23-.99.01-2.13.17-3.11.13-.8,1.74-2.99,2.42-3.43.71-.45,2.24.02,2.78-1.31.06-2.44.37-4.91.43-7.36.02-.84.09-2.81.02-3.5-.25-2.27-1.45-1.5-2.88-2.18Z"/>
      <path d="M173.27,59.7c-.37.07-2.31,2.27-2.81,2.7-1.41,1.22-4.32,3.17-6.08,3.8-.42.15-2.68.76-2.93.59-.23-.15-.11-.33-.12-.5-.13-2.26.5-4.7-.07-7,4.24-.92,8.46-2.99,11.59-6.03,1.02-.99,2.85-2.82.96-3.91-.81-.06-1.03.76-1.45,1.07-2.92,2.19-5.16,4.26-8.71,5.51-.41.14-2.83.97-2.97.82-1.68-7.61-8.1-13.35-15.37-15.46-.72-.21-.74-.14-1.42-.46-.26-.12-4.77-.43-5.5-.41-5.27.15-11.28,2.38-15.08,6.14-.35.35-.88.69-.61,1.23l-.57-.18c-1.17,1.7-2.54,3.17-3.47,5-6.33,12.44-.69,27.75,12.41,32.47,4.97,1.79,10.91,1.85,15.73-.43.72-.34.36-.14,1.17-.38,5.38-1.54,10.12-7.83,12.05-12.73.27-.67.53-1.39.85-2.04,1.33-.49,2.74-.5,4.08-.98,2.61-.96,8.14-4.33,9.31-6.64.57-1.13.26-1.96-1.01-2.18ZM158.78,60.2c-.06.15-1.08,1.16-1.28,1.35-.33.3-.76.55-1.1.85.41-1.03-.04-1.88,0-2.92l2.22-.18c.45.24.34.52.17.91ZM155.62,57.14l-.1-.79,1.75-1.74c1.73,1.83.43,2.7-1.65,2.53ZM156.96,53.5l-2.03,1.88-.85-2,2.11-1.5c-.03.78.89.82.76,1.62ZM130.79,70.18l.38.31c1.21.09,1.74-.95,2.54-1.48,6.28-4.13,9.58-2.53,16.02-.44.98.32,2.17.4,3.03.67.2.06.35.19.31.43-.01.09-.76,1.44-.88,1.65-1.6,2.74-4.12,5.2-6.94,6.5-.63.29-1.51.1-1.32.92-.33.09-.09-.37-.31-.41-.27-.04-1.11.34-1.54.42-1.91.32-3.79.28-5.66.36-.1,0-.06-.29-.18-.32-4.79-1.3-8.8-3.03-11.19-7.77-7.58-15.05,10.46-31.19,24.07-19.67.32.27.71.95,1.23,1.2l2.72,4.19-7.06-2.19-4.91-.55-.11.4-.31-.39c-.73.2-1.49.14-2.23.29-2.36.46-6.22,2.03-8.02,3.61-.15.13-.94.96-.95,1.07-.11.95.15,1.86,1.28,1.66.24-.04,2.94-1.93,3.56-2.28,3.81-2.14,8.89-2.22,13.19-.99.1.03.09.29.36.37,2.03.58,4.03,1.21,6.08,1.7.92.73.37,6.31.07,7.61-.13.13-2.27-.44-2.66-.55-1.81-.53-3.52-1.46-5.31-1.89-5.3-1.27-10.65-.23-14.64,3.49-.14.13-.46.04-.56.26-.16.35-.26,1.44-.09,1.81ZM155.21,50.84l-.07.26c-.12.11-.33.15-.42.26-.52.61-1.12,1.78-1.95.84-.98-1.11.53-1.91,1.4-2.48l1.05,1.11ZM152.39,47.89c.39.43,1,.42.86.94-.03.1-1.29,1.4-1.38,1.44-.72.3-1.33-.62-1.71-1.11l2.05-1.56c.13-.05.07.18.18.3ZM149.68,45.65c.16-.03.05.25.16.32.63.39,1.22.41,1.5,1.24l-2.02,1.54-1.87-1.25c.24-.44.82-.49,1.11-.74.27-.24.58-1.01,1.13-1.11ZM147.11,44.52c2.16.46,1.03,1.34-.17,2.19-.07.05-.06.28-.22.3-.67.12-.71-.21-.99-.36-.27-.15-.92.05-.82-.61.72.35,1.72-1.52,2.2-1.52ZM146.07,44.48l-2.63,1.76c-.19-.55-.73-.52-1.26-.59-.08-.35.11-.38.32-.55,1.02-.79,2.59-2.19,3.57-.62ZM143.74,43.31c-.09.33-.65.19-1.04.41-.57.32-1.33,1.35-1.48,1.44-.14.08-.36-.1-.47-.08-.16.03-.11.36-.24.37-.55.06-1.76-.37-2.42-.2.51-.49,2.11-2.08,2.73-2.25.7-.2,2.19.18,2.92.31ZM121.55,52.17c1.49-2.46,5.38-6.23,8.5-7.46.33-.13.67-.26,1.03-.23l-10.71,9.93c.14-.85.76-1.53,1.18-2.24ZM119.43,56.2c.1-.11.6-.07.88-.29.13-.1.23-.46.43-.64,3.4-3.07,6.55-6.16,9.9-9.23.69-.63,2.46-1.42,2.38-2.34l1.95-.39c.06.83-.83.98-1.29,1.43-.32.31-.97,1.2-.19,1.08.96-.14,3.41-3.43,4.91-3.28l.08.37c.05.04.91-.72,1.16,0-1.77.96-2.67,2.42-4.68,3.02-3.28.98-6.85,2.55-8.96,5.45-.17.24-.17.65-.2.68-.02.02-.26-.18-.34-.13-.78.45-1.55,2.53-2.04,3.01-.18.18-.58.18-.83.44-.4.4-3.41,3.72-3.79,3.31-.03-.38.48-2.34.62-2.49ZM118.44,60.99c.25-.61,2.11-2,2.64-2.56.41-.43.8-1.33,1.43-1.69-.43,1.42-.89,3.28-1.82,4.41l-2.46,2.4c.02-.78-.09-1.84.21-2.57ZM118.27,65.66c.24-1.08,1.25-1.74,1.7-2.6l1.18-.87v2.24c.02.37-.39.4-.51.55-.65.85-1.45,1.53-2.21,2.27.03-.56-.28-1.02-.15-1.6ZM119.2,70.57c-.07-.63-.51-1.6-.39-2.2.02-.09,1.1-1.3,1.24-1.44.23-.22,1.04-.52,1.29-1.04l.31,2.44c-.32.7-.94,1.06-1.42,1.52-.16.16-.05.79-1.03.71ZM120.59,73.47c-1.34-1.99-.01-2.98,1.73-3.87l.39,1.85c-.06.59-.65.65-.91.95-.61.7-.09,1.16-1.22,1.08ZM122.42,76.22l-1.27-1.85,2.25-1.66c.62,0,.73,1.16,1.25,1.48v.26s-2.23,1.77-2.23,1.77ZM123.29,77.1l1.87-1.83c.73.23,1.27.77,1.42,1.52l-1.84,1.58-1.46-1.27ZM125.24,79.04c.39-.3,1.88-2.01,2.31-1.83.05.57,1.19.73.98,1.42-1.21.93-2.05,2.13-3.29.42ZM127.38,80.7c1.74-.75,1.94-2.74,4.09-.88.04.19-.86,1.03-1.05,1.19-.35.3-.96.89-1.37.86l-1.67-1.17ZM129.91,82.64l2.66-2.34,1.81.69-2.13,2.13-2.35-.48ZM133.42,83.62c-.12-.45.12-.33.25-.44,1.45-1.29,2.42-2.95,4.62-1.79l-2.71,2.53-2.15-.29ZM139.02,83.96c-.48.27-1.88-.02-2.49.24l2.92-2.82,2.72-.49c.09.35-.13.39-.3.58-.81.9-1.58,1.15-2.34,1.75-.27.21-.44.7-.52.74ZM140.62,84.01c.39-.52.88-1.03,1.35-1.47.24-.22.57-.21.79-.42.38-.35.74-1.31.96-1.51.06-.05.86-.25,1.33-.48.33-.16,1.31-.48,1.4-.53.81-.45,1.48-1.13,2.34-1.44l-4.52,4.33c-1.18.85-2.15,1.48-3.65,1.51ZM157.05,73.08c-.41.83-1.32,2.13-1.9,2.87-1.68,2.11-4.91,4.74-7.29,5.9-.8.39-1.69.8-2.56,1l11.98-10.71c.25.22-.11.72-.22.94ZM157.66,70.77l-5.74,4.67c-.17-.18,1.43-1.91,1.62-2.19.65-.95,1.53-3.29,2.6-3.58.2-.05,2.12-.13,2.2-.07l-.68,1.17ZM158.9,67.24l-2.31.12c-.22-.17-.24-.29-.16-.56.09-.34,2.44-2.46,2.7-2.27l-.22,2.7ZM159.04,63.1l-2.65,2.21c.42-.54-.02-1.22.14-1.7.08-.22,1.95-2.05,2.18-2.12.93-.26.56,1.15.33,1.6Z"/>
      <path d="M122.22,116.92c.22.5.29-.03.38-.11,1.6-1.47,3.04-3.15,4.58-4.67,7.2-7.09,14.54-14.12,21.49-21.44.44-.46,1.18-.82,1.47-1.55l-.27-.46c-.61-.04-7.42,7.44-8.69,8.27-4.57,4.41-9.53,9.55-14.06,14.25-1.46,1.52-2.85,3-4.43,4.45.09.7-.82.48-.47,1.26Z"/>
      <rect x="113.91" y="101.44" width="32.7" height="1.18" transform="translate(-34.2 120.23) rotate(-44.38)"/>
      <path d="M124.75,87.51c-1.53,1.18-3.22,3.27-4.67,4.68-4.37,4.22-8.75,8.35-13.04,12.85-.72.75-2.04,1.43-2.05,2.72.25.25,1.79-1.11,2.05-1.36.85-.81,1.53-1.87,2.35-2.71,4.87-4.97,10.18-9.77,14.97-14.63.41-.42.77-1.04,1.22-1.4.02-.77-.41-.48-.83-.16Z"/>
      <path d="M133.67,92c-5.68,5.26-11.67,10.57-16.8,16.46-.46.53-1.34.88-1.37,1.84,1.1-.06,1.4-1,2.02-1.68.4-.44,1.2-.81,1.09-1.44l.34.14c4.96-5.03,9.98-9.65,14.95-14.74.17-.18.49-.14.62-.26.11-.11.43-1.09.99-1.15l-.16-.54c-1.02-.19-1.32,1.03-1.69,1.37Z"/>
      <path d="M122.79,95.48c-3.49,3.39-6.68,7.07-10.08,10.46-.45.45-1.49,1.08-1.97,1.64-.39.46-.85,1.67.19,1.16,5.41-5.98,11.47-11.29,17.09-17.09.16-.16.51-.14.66-.31.12-.13.95-1.09.98-1.16.12-.3.05-.61.05-.92-2.37,1.97-4.71,4.07-6.92,6.22Z"/>
      <path d="M25.27,91.53c.2-.21.25-.56.46-.81.43-.51,1.75-.97.88-1.84l-3.26,3.12c-1.73,1.66-3.3,3.44-4.69,5.2-.37.47-1.39.65-.91,1.79l5.71-5.97c.6-.47,1.28-.95,1.8-1.5Z"/>
      <path d="M100.99,106.21c.71-.59,1.44-1.64,2.1-2.28,2.56-2.45,5.51-4.78,7.93-7.35.2-.21.46-.33.39-.69l-1.93,1.08c-1.04.94-2.06,2.59-3.33,3.01l.19.38c-.94-.08-1.32,1.24-1.8,1.71-1,.96-1.64,1.28-2.74,2.52-.51.58-1.6,1.07-1.49,2.01.37.09.46-.21.68-.39Z"/>
      <path d="M120.89,85.5c-2.25,1.89-4.17,4.13-6.3,6.15l.04.74.49.19c.02-.22.12-.44.28-.59,1.89-1.74,5.46-4.79,6.91-6.73.17-.23.3-.27.21-.66-1.12-.28-1.14.49-1.63.9Z"/>
      <path d="M102.33,98.68c1.19-1.06,2.77-1.99,3.83-3.28.18-.22.47-.31.39-.68-.16-.14-1.07.27-1.26.39-1.17.75-1.93,1.83-2.92,2.74-.66.61-3.34,2.71-3.62,3.19-.18.31-.24.53-.18.89.39.08.52-.09.79-.28.96-.7,2.09-2.16,2.98-2.96Z"/>
      <path d="M23.4,98.91c.79-.67,3.02-2.83,3.4-3.56.31-.58.33-.29.79-.62.47-.34,1.33-1.52,1.25-2.15l-6.92,6.43c-.15,1.42.84.44,1.47-.1Z"/>
      <path d="M38.77,102.25c.58-.39,2.22-1.81,2.55-2.36.18-.31.24-.52.18-.89-.39-.08-.52.09-.79.28-1.09.8-2.12,2.22-2.97,3.15-.58.63-1.83,1.41-1.89,2.41.44.45,2.7-2.12,2.91-2.59Z"/>
      <path d="M114.72,46.23c-.51-.07-.84.32-1.21.6-1.57,1.19-2.68,2.81-4.16,4.07-.03,1.63,1.68-.29,2.16-.76.79-.77,2.31-2.28,2.92-3.12.2-.27.37-.39.28-.79Z"/>
      <path d="M109.47,57.72c.39.09.52-.09.79-.28.23-.16,2.63-2.56,2.73-2.72.22-.38.23-.66.18-1.08l-2.33,1.91c-.47.72-1.28,1.25-1.36,2.18Z"/>
      <path d="M34.69,100.75c.24.26,2.76-1.95,2.33-2.73-.12-.15-2.86,1.93-2.33,2.73Z"/>
      <path d="M153.86,15.37c-.19-.27-.54-.61-.88-.68-2.81-.11-5.58,0-8.37.01-.34,0-.65-.12-.96-.22l-.19.38c-5.15-.51-10.69-.42-15.8.02l-.17-.37-1.59.36-.16-.36c-10.13.67-20.39-.25-30.59.39l-3.11-.22-.2.59c-.17,0-.11-.38-.29-.5-.35-.23-4,.04-4.74.03-20.08-.21-40.02-.02-60-.17-.58,0-1.19-.52-1.37.24l-.19-.36c-1.15-.06-2.31.07-3.45.05-1.08-.02-1.91.04-2.96.06-.34,0-.94-.64-1.63.1-.45.48-.55,3.65-.59,4.53-.59,11.42-.32,22.9-.54,34.27-.3,15.46-1,31.03-1.14,46.41-.01,1.21.09,2.44-.08,3.64l.36.19c-.64,1.31-.21,3.29-.26,4.78-.13,3.84-.35,7.88-.42,11.57-.2,10.25-.1,20.39-.67,30.59l.37.17c-.59,1.88-.27,4.12-.29,6.04-.01,1-.78,2.58.81,2.77,2.08.25,4.49-.05,6.59-.03,15.56.18,31.02.24,46.55.29,1.03,0,.66.08.96.14.57.12,1.83-.24,2.54-.24,3,.03,5.95.1,8.96.09.2,0,.41-.09.59-.18l.19.38c13.94-.62,28.04.25,42.05,0,.35,0,2.23,0,2.34-.03.16-.05.02-.43.19-.37.58.65,1.76.26,2.6.3,2.7.12,5.45.16,8.1.08,4.2-.24,9.12.48,13.22.15,2.61-.21,1.52-3.45,1.58-5.1.14-4.05.34-7.82.12-11.89,0-.1.32-.08.33-.17.17-4.73.31-9.78-.13-14.43.69-.17.19-.51.22-.97.59-10.55.15-21.19.7-31.74l-.36-.19c.11-.1.29-.23.3-.38.15-2.41.03-4.79,0-7.23,0-.8.65-4.51-.71-4.27-.91.16-1,.98-1.17,1.76l.41.38c-.67,1.32-.24,3.31-.27,4.84-.02,1.05-.08,2.15-.18,3.2-3.32,2.79-6.24,6.07-9.28,9.16-1.8,1.83-3.8,3.97-5.75,5.89-.19.19-.41.36-.69.38l.39.38c-1.02-.05-1.29.93-1.76,1.41-3.27,3.26-6.78,6.55-9.53,10.08-.01.02-.26-.18-.34-.14-.11.05-1.41,1.47-1.41,1.78l.5.23c1.92-1.56,3.58-3.52,5.34-5.28,6.59-6.58,13.83-14.5,20.51-20.85.51-.49,1.31-.8,1.66-1.08.03-.03-.13-.58.33-.75-.13,1.34.23,5.05-.4,6.02-.19.29-1.07.74-1.38,1.05-5.99,6.08-11.8,12.2-17.86,18.26-.51.96-5.77,5.82-5.78,6.3,0,.26.13.33.3.48,1.19-.81,2.11-2.25,3.09-3.24,6.54-6.57,12.98-13.02,19.52-19.54.19-.97.36-.37.81-.63.09-.05,1.14-1.43,1.21-1.71l.39.1-.18,5.46c-1.56,1.56-3.12,3.12-4.68,4.67-.94.93-2.23,2.24-3.4,3.41-4.35,4.34-8.81,8.61-13.16,12.93-.31.3-1.94,2.14-1.95,2.34l.3.48c.77-.71,1.46-1.53,2.24-2.24,5.59-5.1,10.81-10.82,16.23-16.19,1.41-1.4,2.98-2.67,4.32-4.16.44-.08.27.2.28.49.05,1.76-.25,3.75-.19,5.54l-.55-.17c-1.86,2.12-3.97,4.04-5.96,6.03-1.86,1.85-3.67,3.95-5.63,5.77-.3.28-1.83,1.3-2.02,1.67-.13.25,0,.63-.05.73,0,.02-.26-.16-.39-.08-.2.12-.28.5-.48.68-1.1.96-1.97,1.66-2.89,2.66-.19.2-.65.36-.92.46l.18.55c-.66-.07-2.07,1.95-.86,1.71.56-.11,1.49-1.56,1.92-2,5.55-5.6,11.39-11.01,16.97-16.62.23-.23.32-.58.58-.79-.19,1.49.54,4.38-.2,5.64-.12.2-.5.27-.68.49-4.82,5.98-11.19,10.85-16.54,16.35-.31.32-1.19,1.21-1.17,1.57.01.25.23.55.48.48.19-.1.21-.44.33-.52,2.37-1.6,4.53-4.3,6.65-6.42l2.67-2.3,8.37-8.48v5.16c-2.52,3.18-5.63,5.89-8.5,8.73-1.77,1.75-3.96,3.99-5.52,5.48-.77.74-4.34,3.86-4.57,4.39-.13.28-.13.57-.1.87l.48.1c2.42-2.74,5.28-5.12,7.9-7.68,2.69-2.63,5.77-5.61,8.18-8.03.63-.63,1.5-1.65,1.94-2.4.47.03,0,.82.02,1.09.03,1.1.22,2.56.1,3.67-.15,1.34-.28.91-1,1.66-5.7,5.92-11.8,11.5-17.4,17.45-.2.21-.41.46-.41.76.67.42.95-.21,1.24-.42.14-.1.4-.03.47-.09.04-.03-.08-.26-.02-.36.56-.97,3.26-3.13,4.24-4.1,4.1-4.02,7.98-8.26,12.04-12.19.23-.22.61-.35.81-.65l-.14,5.41c-.27.2-.77.4-.99.62-2.4,2.4-4.86,5.04-7.33,7.51-1.78,1.78-4.8,4.18-6.23,6.08-.25.33-.35.92-.42,1-.02.02-.38-.13-.61,0-.28.17-.53.94-.87,1.19-.68.51-1.64.19-2.46.2-.26.73-.2.11-.8.02-.25-.04-1.18.16-1.56.18-.67.03-1.21-.29-1.85.19.13-3.33.22-6.63.31-9.96.1-3.38,1.03-9.17-1-12.04-.61-.86-1.94-1.42-2.86-1.77-.13-.05-.13-.32-.29-.36-.51-.14-3.42-.48-3.54-.61-.1-.96.15-2.19.06-3.13-.05-.55-.4-1.66-.57-2.11-.5-1.31-.69-1.78-2.03-2.46.23-1.98.79-3.4.17-5.4-.16-.52-.73-1.71-.99-2.12-2.36-3.92-7.18-6.61-11.67-6.27-1.14.09-2.25.45-3.36.73l-3.46,2.09c-.68-3.29-1.59-6.64-2.77-9.79-.58-1.54-1.52-3.68-2.25-5.15-.15-.3-.4-.5-.62-.74,0-.26,3.94-2.23,4.57-2.63,2.96-1.86,5.47-4.34,7.43-7.22.38-.08,3.61,1.3,4.18,1.6.36.18,1.26.73,1.59.95.12.08.15.25.14.39l.39-.39c-.13,1.06,1.55,1,1.37-.28-.15-1.05-2.28-1.98-3.16-2.46-.12-.06-.14-.29-.3-.37-.81-.41-2.07-.73-2.96-.99-.16-.2,1.75-1.98,1.36-2.53.63.17,2.11-.28,2.63-.16.18.04.4.15.97.24,1.51.26,2.97.82,4.49,1.09.75.18,1.17-1.34.68-1.67-.28-.19-1.02.03-1.28-.48l-.19.39c-1.82-1.41-4.18-1.22-6.33-1.56.69-.63.47-1.61.63-2.24.03-.12.3-.08.34-.23.09-.4.08-.98.04-1.4.18-.18,2.9-.65,3.43-.75.73-.13,3.96-.26,3.95-1.12-.17-.97-1.21-1.15-2.04-1.17-1.68-.05-3.3.62-4.97.68-.15-.16-.02-2.7-.06-3.16-.5-5.35-2.3-10.09-5.42-14.44l-1.91-2.16c.55-1.3.97-2.75,1.31-4.15,1.34-5.5,2.1-12.4,2.34-18.26.06-1.43.2-3.38.14-4.73-.08-1.87-1.16-3.52-3.26-3.1-2.72.54-8.89,4.45-11.29,6.19-2.46,1.78-3.28,3.58-6.32,3.94-.28.03-.38.24-.8.22-.86-.05-1.7-1.05-2.31-1.71-1.1-1.18-2.6-3.23-4.03-4.72-2.5-2.61-5.01-4.8-7.96-6.7-.55-.35-1.42-1.21-2.11-1.44-1.37-.46-3.09.9-4.37,1.34-2.14.74-4.48,1.08-6.58,1.9-3.38,1.31-7.69,4.22-10.38,6.66-1.18,1.07-1.68,2.2.33,2.34,1.83-1.35,3.42-2.98,5.32-4.19,1.11-.71,2.55-1.62,3.97-2.26,2.72-1.23,5.43-1.56,8.13-2.5,1.59-.55,2-1.67,3.86-.64,1.85,1.02,8.07,6.52,9.35,8.17.13.16.69.8.52.95-.27,0-.55-.01-.82.05-7.71,1.8-14.47,4.75-21.59,8.6-.47.25-1.01.34-1.48.86-.16.02-2.03-1.69-2.4-2-3.72-3.13-7.87-6.84-12.54-8.69-.38-.15-2.48-.82-2.71-.78-.11.65-1.17.05-1.63.45-.2.17-.95,2.15-1.02,2.58-1.32,7.85.42,14.93,1.46,22.39.04.28-.17.64-.1.96.03.15.4.13.4.22-.03.52-.99.76-1.34,1.01-2.48,1.68-5.44,4.61-6.71,7.49-.88,2.01-.51,3.98,1.92,4.07,2.02.08,4.25-.47,6.18-1.03.81-.24,1.53-.91,2.49-.72.07.05-.65,1.11-.72,1.32-.92,2.74-1.31,8.44-.83,11.42.06.4.87,1.91.77,2.05-1.39.64-5.5.55-6.32,1.77-.76,1.13.59,1.69,1.55,1.51.54-.1.98-.27,1.68-.4.84-.15,3.06-.81,3.68-.66.61.15,2.01,3.28,2.49,3.96.04.26-.27.5-.46.64-.97.72-5.08,2.42-5.33,3.45.16,1.12.64,1.24,1.65.85,1.88-1.23,3.83-2.45,6.03-3.05.4.1.5.63.74.83.44.37,2.72,2.17,3.06,2.32.24.11.56-.13.57-.11.03.04-.09.37.13.6.11.11,2.27,1.36,2.65,1.59.59.34,1.58.45,2.08,1.22-1.51.98-3.38,1.73-4.85,2.74-3.99,2.73-9.72,8.72-12.15,12.76-1.89,3.15-2.76,6.43-1.49,10.02.4,1.14,1.17,1.58,1.31,1.88.04.1-.14.34-.04.53.41.83,1.48,1.1,1.99,1.43.47.31,1.16,1.34,1.81.92.02.89-.77,1.46-1.07,2.14-.3.67-.74,3.31-1.17,3.51-.22-.22-.58-.84-.77-.99-.21-.16-.48.04-.49.02-.05-.07.17-.35.02-.69-.31-.75-1.49-1.79-1.96-2.53-3.15-4.98-3.86-10.16-2.2-15.81.76-2.59,2.75-5.15,3.11-7.79.35-2.54-.12-5.24-2.68-6.38-.9-.4-2.25-.37-3.16-.04-.91.32-2.87,1.77-3.55,2.49-1.99,2.09-4.1,6.6-4.83,9.38-1.4,5.29-.32,13.13,1.56,18.22.98,2.65,2.49,4.84,3.98,7.22l.36-.17c-.37.84.03.45.39.87,1.55,1.78,2.77,3.75,4.67,5.26l4.78,3.03c-.07,1.94.33,3.84.56,5.73.08.63.03,1.67.12,2.31.14.9.52,1.75.57,2.66h-4.67c.15-.47.7-.6.98-.93,1.08-1.25.85-1.87-.58-.72-.49.39-.83,1.19-1.52,1.4l-4.33.24,5.84-6.13c.11-.2-.15-.68-.29-.68-.11,0-1.26,1.42-1.53,1.67-.94.88-1.79,1.79-2.66,2.65-1.06,1.04-2.16,2.41-3.8,2.39l-2.62-.29.76-1.08c1.74-1.61,3.58-3.2,5.08-5,.44-.44,1.98-1.94,2.1-2.44.06-.24-.05-.64-.25-.63-.2,0-2.06,2.8-2.77,2.78l-6.34,6.51-3.08-.24c-.42-1.01.67-1.24,1.29-1.84,2.18-2.14,4.79-4.45,6.72-6.57.41-.45,2.33-2.46,1.74-2.98-.85.31-1.23,1.33-1.81,1.89-2.03,1.96-4.41,4.1-6.36,6.04-.53.53-.81,1.53-1.76,1.61.32-1.7-.36-4.03.85-5.38,1.88-2.09,4.05-3.75,6.04-6.04.15-.17.66-.35.71-.56.14-.65-.82-.49-1.23-.1-.38.36-1.04,1.54-1.58,1.97l-4.58,4.07c.3-1.04-.12-2.41,0-3.38.32-2.36,3.19-3.61,4.1-5.56l.34.15.81-1.24-.49-.48c-.62,1.05-1.43,1.5-2.22,2.26-.82.79-1.34,1.27-2.1,2.17-.12.15,0,.36-.45.24l.43-4.54c.96-1.04,1.97-1.99,2.49-3.35-.71-.79-.62.19-.83.43-.14.17-.51.13-.67.3-.4.44-.64,1.21-1.22,1.5-.16-.43.26-.81.29-1.07.13-1.14-.31-2.76-.09-3.89.11-.57,1.45-1.45,1.36-2.14-.11-.82-1.09.76-1.36.48.26-2.3,0-4.71.05-7.05.05-2.72.33-5.47.35-8.2l-.4-.22.41-.22-.19-1.12.37-6.62-.39-.22c.73-.25.27-1.82.29-2.62.02-.82.08-1.83.31-2.63l-.4-.21.37-.18c-.1-.18-.18-.39-.18-.6.02-1.6.09-3.24.12-4.77.01-.76-.07-1.65-.03-2.43,1.56-1.9,3.35-3.65,4.97-5.45,1.1-1.23,2.14-2.57,3.33-3.84,1.75-1.88,4.45-4.03,5.93-5.99.24-.32.42-.67.48-1.08l-.69.08c-4.37,4.41-8.66,8.88-12.75,13.55-.26.29-.74.23-.58.87-.95-.03-.39-.86-.38-1.45,0-.56-.2-2.95-.1-3.23.07-.19,2.3-2.77,2.63-3.14,1.69-1.89,3.65-3.65,5.37-5.48.35-.37,1.95-2.09,2.02-2.36.12-.51-.6-.09-.76.02-1.95,1.26-3.38,3.6-5.21,5.02l-3.96,4.6c.04-1.22-.29-3.73.18-4.79.13-.29,1.68-2.03,2.05-2.42.35-.38,1.03-.78,1.38-1.16.49-.54,3.02-3.37,3.01-3.81l-.58-.48c-1.22,2.18-3.35,3.68-5,5.52-.3.33-.47.9-.85,1.1.05-1.44-.33-3.99.04-5.31.04-.13,1.31-1.86,1.52-2.13,1.07-1.38,2.65-2.4,3.5-3.94-.17-.31-.44.06-.61.17-1.42.91-2.87,2.67-4.01,3.96-.12.13.01.37-.44.25.28-1.61-.28-3.57.25-5.1.14-.39,1.63-2.03,2.02-2.47,1.72-1.98,3.33-3.37,5.06-5.14.59-.61,3.58-3.8,3.57-4.33,0-.26-.11-.32-.29-.47-.79,1.26-2.12,1.99-3.15,2.98-2.05,1.99-3.82,4.42-5.59,6.51-.45.53-1.21,1.04-1.68,1.6,0-.58.02-5.41.23-5.62.07-.07.38.03.49-.07,1.31-1.13,4.13-4.8,5.43-6.26,1.46-1.63,2.97-3.21,4.36-4.9l-.78-.19-9.73,10.61.29-5.44c1.93-2.92,4.59-5.19,6.91-7.76.37-.41,3.09-3.43,3.1-3.67.01-.33-.38-.6-.56-.46-.02.02-.04.32-.19.48-2.74,2.85-6.15,6.04-8.23,9.02-.16.22-.82.43-.83,1.01-.23-.15-.2-.26-.22-.48-.08-.88.09-4.55.43-5.15l9.62-10.45-.29-.66c-.87.94-1.85,1.79-2.73,2.71-1.9,1.98-3.96,4.24-5.39,6.21-.23.32-1.45.88-1.42,1.6.05-1.57-.51-5.21.4-6.42.44-.58,1.48-1.32,2.02-1.91.63-.69,1.19-1.33,1.82-1.98,4.62-4.83,9.41-9.88,14.33-14.25l-.16-.35c1.97-1.68,4.33-3.56,6.22-5.38.2-.19.66-1.17.89-1.21.16-.03,1.68-.06,1.94-.06.96,0,2.04.41,3.11.02.43.4-.23.39-.38.59-3.11,4.13-7.74,7.22-11.08,11.23-.28.33-.68.15-.72.94-.01.29-.02.36.3.3.47-.08,2.11-2.1,2.65-2.6,2.12-2,4.45-3.94,6.52-6.05,1.37-1.39,2.56-2.96,3.92-4.37.45-.08.88.14,1.32.14,1,0,2.18-.14,3.3-.12.44,0,.8.28,1.27-.05.14.5-.21.34-.36.51-2.15,2.37-5.03,4.43-7.33,6.88-.43.46-2.85,3.19-2.94,3.49-.07.26,0,.58.21.59.35.01,2.63-2.77,3.09-3.24,2.68-2.74,5.58-5.25,8.24-8.01l5.32-.03c.23.3-3.32,3.41-3.66,3.82-.39.47-1.42,1.54-.72,2.01l5.68-5.8,5.51-.03-3.51,3.78-.09.89.81-.28c.58-.46,3.33-4.29,3.7-4.38.18-.05.39.08.57.15l.17-.36c1.65.55,3.46.25,5.17.19l-1.36,1.65c-.22.22-3.1,2.35-1.84,2.63.57.13,4.09-3.63,4.69-4.24l4.74-.04-5.74,5.84-.1.58c.57.75,1.72-1.4,2.01-1.69.21-.21.57-.27.76-.45.95-.92,3.11-3.43,4.06-3.98.68-.39,2.57-.14,3.53-.17.31,0,.63-.23.92-.24.28,0,.71.37,1.18.1.09.38-.14.38-.33.55-3.14,2.86-6.23,5.72-9.21,8.75-.22.36-.29.56.1.83,3.76-3.11,6.9-6.9,10.82-9.83l4.76-.09.19.38c-1.45,1.45-3.23,2.76-4.7,4.16-.73.69-1.51,1.54-2.19,2.21-.92.9-5.14,4.92-5.38,5.89-.06.26.18.45.4.4.19-.05,2.35-2.55,2.72-2.93,2.82-2.86,5.85-5.4,8.8-8.05.48-.43,1.5-1.87,2.16-2.02.66-.15,2.98-.08,3.84-.05.29.01.57-.15.49.29-1.57,1.54-3.25,3-4.79,4.58-.31.32-.62.66-.98,1.04-.6.63-1.48,1.9-2.08,2.41-.24.21-.56-.25-.52.54.03.57.7.27,1.03.1.65-.34,2.74-3.04,3.46-3.75.3-.29.78-.19.91-.94l4.67-4.23,3.23-.17,1.49.31c-1.01-.07-.95.9-1.01.95-1.92,1.53-2.84,2.77-4.51,4.44-.41.41-2.29,1.63-2.26,2.11,0,.11.3.3.49.3.31,0,.86-.87,1.14-1.1,2.17-1.83,3.8-3.73,5.84-5.65.25-.23,1.24-1.08,1.48-1.15h4.68c-2.27,2.16-4.5,4.36-6.42,6.83-.05.33-.01.31.29.29.74-.03,1.31-1.16,1.84-1.66,1.24-1.19,2.41-2.38,3.58-3.53.31-.31,1.72-1.73,1.96-1.83,1.35-.56,3.16.26,4.6-.18,0,.38-.53.77-.8,1.05-2.16,2.23-4.34,4.53-6.47,6.67-.9.9-2.27,1.59-2.85,2.89l.48.3,4.87-4.49c1.94-2.16,3.86-4.29,6.07-6.21l4.93-.21-15.28,15.58v.78c.72,0,3.25-3.01,3.86-3.63,3.4-3.46,7.32-7.43,11.14-10.96.89-.83,1.46-2.14,3.09-1.55l.31-.4.09.36,2.83-.16c-1.24,1.19-2.31,2.56-3.52,3.78-4.1,4.14-8.52,8.3-12.64,12.48-.15.16-.37.22-.55.32l.16.35c-1.58.83-3.89,2.98-4.95,4.5-1.07,1.54.74.31,1.23-.13,5.62-5.05,10.86-10.8,16.1-15.84,1.34-1.29,2.9-2.8,4.37-4.19.46-.43.69-1.18,1.45-1.38l4.38-.09c.04.35-.19.63-.39.88-1.41,1.73-4.43,3.91-6.16,5.61-1.06,1.05-1.92,2.07-3,3.14-5.2,5.15-10.58,10.25-15.49,15.37-.79.82-3.42,3.42-3.58,4.32-.05.28-.12.56.28.47,3.57-3.79,7.18-7.54,10.88-11.22,5.78-5.76,11.72-11.56,17.52-17.14.58-.56,1.44-1.65,2.25-1.27,0-.69.25,0,.9.06.9.09,2.19-.17,3.12-.21l.09.39c-.35.11-.82.52-1.07.77-1,1-2.35,2.61-3.21,3.25-1.53,1.14-3.04,2.99-4.44,4.34-4.82,4.63-10.09,9.2-14.65,14.13-.61.66-2.24,2.39-2.57,3.08-.4.84.25.75.75.27,1.21-1.15,3.43-3.55,4.47-4.85.56-.69.14-.12.65-.43.27-.17,1.38-1.74,1.78-2.13,5.21-5.03,10.69-10.42,16.08-14.98.82-.69,1.7-2.17,2.61-2.94.26-.22,1-.8,1.28-.83,1.45.24,3.02-.11,4.45-.06.22,0,.54-.12.49.2-.32-.01-.54.08-.79.28-2.63,2.11-5.3,5.39-7.8,7.78-2.99,2.87-6.34,5.41-8.99,8.63l-.67.31c-.34.9-2.46,2.21-2.59,2.96-.15.83,1.13-.24,1.29-.37,2.16-1.82,4.15-4.2,6.21-6.14,4.47-4.21,9.73-8.48,13.79-13.06.15-.16.13-.35.16-.55.32-.09,1.22-.14,1.32.27l-.08,4.18c-.53.73-1.44,1.24-2.03,1.84-3.52,3.55-7.85,7.25-11.11,10.9-.39.44-1.43,1.58-1.35,2.14.02.13.34.42.49.1.57-.63,1.2-1.22,1.79-1.82,2-2.05,5.53-4.79,7.18-6.93.19-.25.32-.47.28-.79l.55.18,3.93-4.07-.19,5.7c-2.1,2.11-4.54,3.92-6.54,6.17-.22.25-.22.63-.33.73-.24.23-1.59.45-.24,1.22l7.11-7.01c-.02,1.46.3,3.71-.08,5.08-.16.56-2.48,2.76-2.9,3.49-.12.21-.25.65-.13.77.39.42,2.24-1.88,2.56-2.21.17-.18.17-.42.55-.32-.09.23-.19.41-.2.68-.03.95-.26,4.16-.09,4.87.27,1.12.77,1.07,1.75,1.24.54-.43.18-1.28.19-1.61.2-6.4.19-12.83.41-19.21.05-1.41.76-5.49.08-6.5ZM149.58,157.5c-.02.21-.11.39-.27.52-.8.64-7.38-.24-8.88.18l4.74-4.8c.75-.43,1.24-.95,1.75-1.63.47-.63.37-.29.96-.77.21-.17,1.67-2.02,1.9-1.76l-.19,8.26ZM149.77,142.62c-.04,1.46.05,2.92,0,4.38,0,.05.17.18.12.48-.13.81-1.26,1.31-1.79,1.84-2.86,2.83-5.73,5.67-8.4,8.7l-5.5.08,15.58-15.48ZM30.5,105.62c.43.17.05,1.06,0,1.37-.34.27-.58-.02-1.01.25-.11.07-.45.81-.85.42l1.85-2.05ZM29.92,109.13c.35.25-.24.52-.38.79-.4.78-.16.55-.81,1.23-.75.79-1.6,1.53-2.41,2.26l.89-1.55c1.31-.6,1.69-1.94,2.72-2.74ZM25.65,120.92c-.52.57-1.03,1.19-1.67,1.64.07-.96.96-1.42,1.48-2.03.2-.23.86-1.47,1.14-1.47.17,0,.34.38.27.65-.02.09-.98.95-1.22,1.21ZM26.71,122.57l-1.82,2.46-1.1.84c.19-.94.96-1.23,1.44-1.77.2-.23,1.15-1.84,1.48-1.54ZM26.87,116.31c-.26.19-.79.07-1.01.93l-2.27,2.01c-.06-.06.68-1.33.78-1.46.44-.57,1.59-1.14,1.36-1.85l.57.18c-.02-.31,1.21-1.74,1.38-1.54.03.61-.54.94-.84,1.37-.06.09.07.34.04.37ZM22.65,107.9c.9-1.38,2.05-2.23,3.18-3.24.33-.29,1.03-1.28,1.1-1.32.04-.02.53.16.75-.04.2.23-.88,1.2-1.07,1.36-1.26,1.06-2.37,1.52-3.03,3.16l-1.35,1.12c-.08-.45.21-.7.42-1.04ZM20.32,113.45c.06-.09.4-.13.55-.32.34-.42.89-1.03.97-1.47l.35.16c.15-.34.32-.81.81-.74.34.35-2.79,3.45-2.63,4.28-.41-.16-.14-1.77-.06-1.91ZM23.01,115.36c.58.25-.44,1.18-.66,1.48-.09.12-.33.19-.48.39-.67.89-1.17,2.02-1.98,2.8-.23-2.15,2.25-3.03,3.12-4.67ZM20.28,123.73l-.39-.78c.74.13.74-.48,1.04-.72.1-.08.34-.03.44-.12.36-.3.83-1.02,1.34-1.3.22.32-.38.85-.57,1.09-.53.66-1.2,1.3-1.86,1.83ZM24.22,133.41c-.1.16.06.32-.33.25l-.68-.68c.45-.09,1.79-2.18,2.14-1.85-.43.72-.7,1.56-1.13,2.28ZM27.01,125.89c-.15.43-.5.44-.63.64-1.06,1.59-2.22,3.18-3.77,4.41-.04-.34-.04-.48.13-.78.28-.49,1.38-1.37,1.78-1.88.81-1.03,1.64-2.28,2.37-3.38.39-.01.17.8.11.99ZM27.29,131.91l1.65-2.34c.39.45.11.72-.17,1.09-.15.2-1.35,1.37-1.48,1.24ZM28.66,135.02c.07-.74.66-1.88,1.34-2.16l-.17-.46.39-.1.39,1.15c-.85.06-1.25,1.13-1.94,1.57ZM30.25,140.53c-.03.05.09.93-.33,1.12l-.48-.77c.42.18,1.59-2.32,1.93-1.96.35.37-1.07,1.51-1.13,1.6ZM32.33,135.78c-.06.05-.36-.02-.49.09-.66.56-1.38,1.55-1.98,2.21-.19.21-.22.54-.63.44l2.38-3.66c.15-.07.68.13.72.18.02.03.02.71,0,.73ZM91.76,158.13c-1.2,0-2.3-.13-3.61-.12-.86,0-2.17-.28-2.73.19l-.19-.36c-3.03.38-6.1.13-9.13.18l-.22.39-.38-.41c-4.27.27-8.62-.16-12.87-.16-2.42,0-5.79.61-7.98-.01l-.19.39c-1.51-.55-3.59-.11-5.27-.12-.82,0-1.62-.22-2.33-.23-1.77-.02-3.58.08-5.35.15l.12-.6c1.05-.39,1.61-1.43,2.58-1.95l-.27-.75c-.53.64-1.92,1.42-2.38,2-.3.39-.29,1.19-.93,1.5l-.19-.36-3.02.17c-.43-2.16-.58-4.36-.83-6.53-.03-.25-.14-.81-.18-1.33-.04-.53-.4-2.41-.33-2.72.14-.59,2.08-1.1,2.64-1.56,2.26-1.87,3.49-4.56,5.33-6.65.36-.41,1.27-1.3,1.36-1.76.13-.68-1.09.13-1.27.29-.36.31-.47.77-.87.98v-2.73c.62.07,1.2-.05,1.8-.21,8.84-2.38,19.2-4.06,28.49-5.61.24-.04.31-.14.94-.24.89-.14,5.02-1.05,5.48-.57.33.33.72,2.17,1.09,2.8.3.52.93.94,1.27,1.34.05.06-.09.3.14.54,1.29,1.35,3.83,2.47,5.7,2.51l2.9-.38c.39.68-.25,2.09.68,2.15l-.41.48c.66,2.52.81,5.19,1.2,7.78.14.9.5,2.15.63,3.06.4,2.76.81,5.54.91,8.34-.75-.2-1.58.13-2.32.13ZM39.76,132.3h-.59s.16.36.16.36l-1.13.62.58-1.56.29.39c.4-.22.59-.97.71-1.13.04-.05,1.03.07.95-.62l.37.57-1.54.8.2.58ZM40.92,125.29l4.48-5.26c.31.41-1.22,1.88-1.48,2.21-.26.33-2.54,3.43-3,3.04ZM56.3,100.95l-.68.78c-.33-.01-.62.41-.7.45-.21.12-.36-.05-.38-.17-.08-.37,1.21-1.54,1.75-1.06ZM54.45,95.49c-.26.27-1.58,2.22-2.04,1.76-.09-.46.04-.63.28-.98.6-.89,3.39-3.04,4.41-3.97.17-.16,1.23-1.58,1.54-1.27.09.38-.2.46-.41.66-1.36,1.33-2.49,2.46-3.79,3.81ZM55.14,98.22c-.04-.05.49-.74.6-.85.98-.96,2.93-2.61,4.02-3.43.32-.24.81-.57,1.21-.58-1.26,1.62-4.01,2.78-4.3,4.85h-1.54ZM42.09,70.96l-.88.18-3.01,3.32.04-1.12c.86-.25,1.15-1.02,1.8-1.61.43-.39.95-.67,1.4-1.04.29-.23.33-.9,1.04-.71.08.32-.33.07-.39.33-.05.19.02.44,0,.64ZM46.09,54.23c.21-.25,1.72-2.28,2.03-1.96.08.09-.48,1.06-.59,1.21-.24.34-1.48,1.84-1.75,2.14-.62.68-1.46,1.25-2.13,1.9l1.76-2.43c-.05-.63.39-.51.68-.86ZM46.05,57.77c.31-.36.91-.88,1.29-1.21-.07.51-.4,1.05-.66,1.48-1.2,1.96-4.58,5.67-6.34,7.38-.17.16-.77.88-.98.68.32-.46.62-.98.98-1.4.27-.32,1.41-1.22,1.46-1.33.1-.21-.11-.49-.07-.55.47-.77,3.55-4.15,4.32-5.05ZM42.01,56.89c-.12.19-1.5,1.38-1.67,1.22l1.75-2.33c.38-.06-.05,1.07-.08,1.11ZM40.83,60.06c.28.61-.29,1.04-.57,1.47-.58.89-1.28,1.78-1.96,2.61-.43-.32-.22-.3-.06-.63.65-1.31,1.77-2.25,2.59-3.45ZM42.09,66.48c-.08-.38.08-.52.28-.79.63-.84,1.63-1.83,2.44-2.52-.12.51-.64,1.03-.98,1.46-.49.63-1.11,1.37-1.75,1.85ZM46.96,63.37c.14.15-.63,1.07-.78,1.26-.54.66-1.27,1.57-1.83,2.17-.35.38-1.12,1.23-1.67,1.15,1.73-1.3,2.44-3.48,4.28-4.58ZM47.44,77.18c.66-.67,1.55-1.23,2.14-1.94.44.36.25.27,0,.58-.49.63-1.23,1.1-1.78,1.64-.45.44-.91.84-1.36,1.27-.2.2-.25.57-.28.59-.12.11-.52.03-.38-.29.09-.21,1.37-1.58,1.65-1.86ZM88.56,52.98c.96-.9,1.69-2.37,3.18-2.46l-.87,1.16c-1.18,1-2.55,1.8-3.48,3.05l-2.27,1.62c-.21-.2,3.17-3.13,3.44-3.38ZM87.66,47.4l1.46-1.56,1.66-.97c-.26.8-.96.89-1.39,1.23-.55.44-1.07,1.09-1.72,1.3ZM99.34,82.06c.25.09.57-.2.68-.2h3.41l-.28.52c-.64-.18-1.31-.16-1.96-.14-.45.01-1.95.62-1.84-.19ZM100.05,85.11c-.17.14-.6.34-.91.55-.29.21-.2.48-.57,0,.38-.13,1.12-1.39,1.2-1.44.19-.11.79.28,1.13-.22.15.15-.71.99-.85,1.1ZM101.49,71.48c-.27,1.1-.37,2.41-.84,3.51-.8.54-1.46,1.6-2.33,2.06-2.84,1.5-5.68,1.59-8.56.46-.28-.11-.59.06-.69.02-.08-.03-1.1-1.13-1.17-1.24-1.79-2.49-.83-6.48.45-9.03,1.16-2.32,3.08-4.2,5.65-4.74,1.64-.35,2.63,0,4.12.75,2.58,1.32,3.54,5.09,3.76,8,0,.08-.33.05-.37.22ZM92.52,123.54c.12.12-1.88,2.55-2.01,2.66-.4.34-1.08.33-.72-.23.51-.79,1.93-1.27,1.95-2.24l.35.15c-.05-.26.21-.54.42-.34ZM93.86,137.43c-.06.31-.65.43-.75.32-.47-.49,1.49-2.13,1.94-2.34l-1.19,2.02ZM95.54,138.53c.19.03.12.4.04.54-.02.03-.24.05-.33.19-.35.52-.64,1.18-1.36,1.41-.4-1.12,1.05-1.44,1.65-2.14ZM94.41,132.06c-.05.11-1.08,1.47-1.17,1.54-.2.17-.44.29-.72.26-.3-.29,1.68-2.09,1.94-2.34.01.19.03.35-.06.53ZM79.87,127.04c-.35-.36,3.34-3.71,3.49-4.39l1.37-1.25c0,.29-.14.73-.31.96-.99,1.31-2.66,2.67-3.8,4.01-.2.23.27.54-.76.68ZM70.03,123.73c-.61-.53-1.66.33-2.43.19.63-1.28.19-2.02,0-3.3,5.2-2.15,5.8,3.68,7,7.19l-3.31.39c.08-1.55,0-3.39-1.27-4.48ZM60.39,122.56l-.3-.4-.67.11c.5-.7,1-1.06,1.75-1.46.12.8-.88.95-.78,1.75ZM63.31,122.76c-.19.38-.71.45-1.05.8-.27.28-.8,1.79-1.28,1.34-.36-.33,1.62-2.49,2.33-2.14ZM64.11,119.85l.57-.02-.2-.58c.75,0,.95.96.97,1.55-.33.09-.1-.37-.29-.4-.59-.09-1.96,1.47-2.04,1.37-.06-.88,1.25-1.03.99-1.93ZM62.14,108.35l-.35-.16-1.88,2.5c-.37-.14-.22-1.26.09-1.46l4.29-3.41c-.32,1.3-1.99,1.39-2.15,2.53ZM63.08,110.85c-.04.06-.4.14-.54.32-.9,1.17-.92,2.22-2.73,1.27.05-.29.56-.42.83-.59.76-.47.54-.14.93-.29.25-.1,1.02-1.1,1.45-1.26.19.03.12.43.05.55ZM71.3,58.89l.56.17c1.82-2.05,3.48-4.24,5.57-6.01.14.5-.54.92-.77,1.37-.12.23-.11.51-.11.77l-.39-.39c-.93,1.73-2.94,3-4.03,4.54-.09.13-.05.36-.06.52l-.39-.39-.78,1.4-4.09,4.15c-.42-.34-.11-.42.1-.69.56-.72,1.37-1.35,1.93-1.97.82-.91,1.53-2.18,2.63-2.73l-.17-.76ZM76.37,74.43c-.91,1.31-2.11,2.49-3.32,3.55l1.74-2.8c.76-.26,1.18-1.36,1.83-2l3.83-3.18-4.08,4.44ZM77.72,87.12c.2.21-1.49,2.42-2.14,2.14.17-.34,1.87-2.41,2.14-2.14ZM82.47,99.27c-.56.54-1.06,1.47-1.82,1.88.1-.48.65-1.03.98-1.4.85-.97,1.92-1.76,2.82-2.69.27.24-.23.71-.38.89-.43.53-1.13.87-1.6,1.32ZM82.79,102.11s-.61.19-.82.39c-.22.2-.31.49-.53.69-.22.2-2.62,2.37-2.74,2.23-.08-.36.19-.46.39-.68.9-1.03,2.43-2.35,3.61-3.01l.09.38ZM79.17,96.65c-.2.22-.29.49-.66.41l.26-.72,2.47-1.81c-.68.74-1.39,1.37-2.06,2.12ZM80.25,97.64c.14.15-1.12,1.57-1.28,1.73-.6.59-1.38,1.04-2.02,1.58-.35-.41,2.9-2.98,3.31-3.31ZM76.95,104.64c-.62-.22-2.79,2.48-3.11,2.15l.2-.77.35.16c.43-.67,1.31-1.58,1.94-2.11.4-.33.86-.84,1.4-.78l-.92,1.01.14.34ZM70.33,100.95c-.31-.29,1.6-1.86,1.95-1.55-.39.83-1.06,1.33-1.95,1.55ZM71.69,104.26l-.02.56c-1.08.16-1.42,1.68-2.51,1.77l2.53-2.33ZM73.76,95.23c.31-.48-.28-.4.84-.51.14.15-.58.88-.68.97-.49.44-1.12.78-1.65,1.17-.26-.28,1.32-1.37,1.49-1.63ZM72.58,90.16c-.23.29-.89,1.14-.95,1.2-.2.21-1.53,1.36-1.69,1.21.9-1.21,1.87-2.33,3.02-3.31.27.24-.23.71-.38.89ZM71.59,93.55c.14-.03.13.2.09.29-.06.14-1.77,1.69-2.06,1.95-1.31,1.18-2.85,2.14-4.18,3.31-.2.18-1.42,1.75-1.74,1.46.73-1.47,2.18-2.2,3.31-3.21,1.49-1.33,2.87-2.74,4.57-3.8ZM63.71,102.9l.57.18c.29-.79.77-1.29,1.57-1.54v.39c-.1,0-.25,0-.31.07-1.16,1.45-2.54,2.71-3.9,3.79-.24.19-.52.46-.85.43-.11-.09,1.21-1.45,1.37-1.61.3-.29.7-.76.82-.87.25-.22,1.07-.07.73-.83ZM67.14,105.43c.35-.39-.24-.71.66-.59l-.19-.38,1.75-.79c-.36.58-.94,1.22-1.43,1.69-.22.21-.98.71-1.22.91-.78.64-1.59,1.53-2.61,1.88.76-1.08,2.2-1.77,3.05-2.72ZM67.11,110.3l3.41-2.73c-.05.92-1.06,1.16-1.47,1.55-1.24,1.2-2.08,2.33-3.27,3.44-.13.12-.76.59-.9.46l2.24-2.72ZM73.31,109.38l1.4-.84c.25.06-.07.68-.13.73-.04.03-.29-.11-.45.03-.43.38-1.31,1.59-1.5,1.73-.05.03-.26-.15-.31-.11-.86.83-1.58,2.23-2.77,2.68l3.76-4.22ZM75.39,97.44c-.13-.14.9-1.36,1.04-1.49.15-.14.97-.78,1.1-.65.26.26-1.91,1.87-2.14,2.14ZM80.18,72.54l2.22-1.77c.33.34-2.29,2.25-2.53,2.53l.31-.76ZM81.12,76.39l4.1-3.09c.23.1-.09.86-.16.92-.11.11-.44.1-.62.25-1.15.93-2.36,1.75-3.6,2.54l.28-.6ZM83.28,64.94c-1.4,1.35-2.69,2.51-4.07,3.82-.18.17-.49.34-.71.46-.13-.14.51-.95.65-1.1,1.45-1.56,3.26-2.75,4.6-4.45l1.95-1.46-2.43,2.74ZM83.86,60.64c-.44.38-5.08,5.53-5.35,5.26l1.06-1.37c2.74-2.65,5.2-5.7,8.19-8.16.5-.41,1.03-.79,1.55-1.17l.09.38-1.84,1.37-.3.97-.38-.39c-.25.48-.78,1.07-1.16,1.47-.68.71-1.25,1.11-1.86,1.64ZM80.44,59.77c-.44,1.11-1.95,2.1-2.92,3.1-.92.95-1.82,1.98-2.62,3.03-.43-.36-.25-.27,0-.58,1.4-1.76,3.72-4.46,5.35-5.95.34-.31.89-.92,1.37-.86l-1.18,1.27ZM68.13,66.15c.49-1.2,2.63-2.12,3.04-3.5l2.08-1.81-5.06,6.03c0-.28-.18-.43-.06-.72ZM71.39,71.54l4.19-3.89-1.65,2.14c-.24.37-.72.57-.99.86-.79.85-1.47,1.83-2.32,2.64-.28-.63.47-1.27.77-1.76ZM72.19,84.4c.45-.44.1-.56,1.06-.59l-2.52,2.98c-1.03.72-2.34,1.65-2.98,2.8l-2.47,1.61c-.09-.08,1.03-1.34,1.16-1.47,1.95-1.91,3.82-3.41,5.76-5.34ZM65.14,86.8c-.1.1-.09.4-.28.59-1.17,1.14-2.55,2.06-3.68,3.24.2-1.21,1.58-1.86,2.33-2.63.95-.97,1.8-1.94,2.83-2.83.37-.32.42-.93,1.26-.77-.69.89-1.7,1.63-2.46,2.4ZM66.48,82.84c-1.23.89-2.56,1.91-3.73,2.87-.36.29-.39.72-.53.84-.24.2-.92.32-1.23.57l1.45-1.76c1.66-1.47,3.25-3.09,5.36-3.89l-1.32,1.36ZM61.27,97.25c1.32-1.09,5.06-3.87,5.8-5.07.42-.68.24-.21.92-.68.56-.39,1.21-1.57,2.13-1.76l.59.5c-.79-.33-.45-.02-.73.19-.42.31-1.56,1.09-1.82,1.46-.68.96-2.59,2.77-3.59,3.4-1.52.96-2.69,2.48-4.38,3.13l1.07-1.16ZM64.58,113.03c.73-.04-.75,1.43-.78,1.55l-.49-.67,1.27-.88ZM62.15,125.29l-.39,1.17c.45.07.73-.15,1.07-.39,1.17-.82,2.49-2.87,2.63-4.28.35.1.22,1.19.18,1.44-.09.5-.39,1.15-.65,1.59-.8,1.42-1.73,1.83-2.84,2.71-.31.25-.28.63-.59.67-.38-.7-.07-1.22-.04-1.85.03-.64-.62-.93.62-1.07ZM65.46,128.45c.12-.13.09-.46.24-.59.06-.05,1.26-.48,1.32-.43-.54.95-1.26,1.46-2.14,2.04-.29.19-.21.47-.58,0,.4-.32.82-.66,1.17-1.02ZM66.63,118.08c-.39-1.53,1.15-1.53,1.92-2.51l.61-.22c-.97.83-1.45,2-2.53,2.72ZM73.44,119.64l-.02-.68c.46-.16,1.97-2.58,2.36-2.24l-2.33,2.92ZM75,111.27l4.38-4.48c.32.36-.45.75-.7,1.07-.12.16,0,.4-.05.44-.34.37-1.26.91-1.69,1.31-.26.24-1.69,1.89-1.94,1.66ZM83.76,116.87c-.44.86-1.29,1.41-1.93,2.15-.91,1.04-1.55,2.34-2.73,3.16-.06-.33.09-.55.26-.81.44-.69,1.29-1.31,1.79-1.9.78-.92,1.79-2.62,2.82-2.94l-.16-.35c.94-.33,1.44-1.75,2.49-1.59l-2.53,2.29ZM85.12,118.67l-2.53,2.33,1.73-2.21.79-.13ZM83.37,113.71c-1.77,1.89-3.46,3.74-5.37,5.44-.09.08-.04.36-.21.51-.17.15-.79.3-1.04.57.17-1.24,1.57-1.88,2.28-2.59,1.83-1.81,3.46-4.03,5.6-5.98.21-.19.32-.47.69-.39l-1.95,2.44ZM83.08,108.35c-.12.3-.76.61-1,.86-.44.46-.77,1.05-1.11,1.41-.82.86-1.94,1.53-2.58,2.58l-.66.41c1.46-2.13,3.44-3.76,5.06-5.74.25-.28.32.42.3.49ZM78.23,125.11c.16-.16,1.49-1.33,1.63-1.19-.42,1.46-2.16,1.85-2.32,3.41l-.8.09c-.3-.28,1.2-2.03,1.48-2.32ZM82.79,128.8c.11.09-.95.87-.29,1.17.21.04,1.31-1.03,1.68-1.24,1.45-.83,3.7-.86,5.11.09.91.61,1.06,3.59,1.29,4.65-1.04-.38-1.41.99-2.24,1.17-.24.05-1.14.17-1.37.17-.05,0-.48-.36-.83-.54-.01,0-.03,0-.04-.02-.89-.42-.82-.41-1.56-.97-.49-.37-.92-.49-1.36-1.07-.22-.29-1.53-2.69-1.57-2.94.29-.65.53-.66,1.18-.47ZM87.08,125.29l1.75-1.37c.12.14-.49,1.16-.65,1.3-.06.06-.91.45-1,.46l-.1-.39ZM90.31,118.97c-.79,1.05-1.78,1.96-2.66,2.9-.29.31-2.05,2.52-2.32,2.25-.04-.33.24-.6.43-.85,1.34-1.74,3.09-3.17,4.25-5.04l1.94-1.9c-.43.92-1.03,1.84-1.63,2.64ZM86.03,108.28l-1.68,1.43-.16-.55c1.64-1.54,3.17-3.2,4.72-4.82.15-.16.72-.83.89-.66-.23.8-1.2,1.09-1.17,1.95l-.37-.18-.43,1.14-.34-.15-1.46,1.85ZM88.73,97.64l-2.04,1.56c.61-1.18,1.72-2.03,2.82-2.72l.09.38c-.06.07-.79.32-.88.78ZM87.85,100.56l-2.01,2.27c-.83.76-1.78,1.41-2.63,2.14-.66.57-1.25,1.58-2.17,1.82-.27-.24,4.72-4.68,5.16-5.06.46-.39,1.09-.98,1.65-1.17ZM85.37,92.26c-1.31-.25-2.61-1.78-4.04-1.94-.65.27-1.3.59-1.91.93-.87.49-2.81,2.31-3.7,1.73-.96-.63.52-1,.6-1.06,1.06-.77,2.54-1.7,3.52-2.59.15-.13.78-.69.81-.74.43-.6.27-2.19.3-2.94,0-.15.19-.33.18-.61,0-1.62-.23-1.02-1.05-1.55-.2-.13-1.83-1.41-1.91-1.5-.24-.28-.15-.83-.85-1.02.02-.61.61-.74.88-1.08.14-.18.08-.53.11-.57.02-.02.35.18.62.15,1.96-.23,3.48-.5,5.45-.24.14.02,1.42.48,1.48.53,1.03.82-2.55,3.74-3.33,4.09l-.14,5.48c.87.25,1.58.77,2.37,1.17.62.32.77.4,1.32.8.64.46-.15,1.04-.71.93ZM85.65,87.06c-.2.17-.44.3-.72.26.03-.48,3.34-3.5,3.5-3.31v.39c-.1,0-.25,0-.31.07-.56.71-1.81,2.02-2.48,2.59ZM89.5,85.96c.25-.25.63-.26.82-.45.39-.38,1.06-2.18,1.62-1.11-.24-.01-.4-.04-.6.13-.45.38-1.39,1.94-1.92,2.51-.21.22-.85.86-1.07,1.07-.16.15-1.54,1.27-1.66,1.16.87-1.15,1.79-2.31,2.82-3.31ZM91.18,81.41c.57-.44,1.36-.67,1.83-1.29.18.03.12.44.05.55-.03.05-.8.48-1,.65-.29.24-.47.51-.78.65-.23.11-.46.21-.7.29-.17-.17.51-.78.6-.85ZM93,85.75c.98-.97,2.2-1.88,3.16-2.78.47-.44.94-.97,1.33-1.5-.01,1.07-1.36,2.11-2.12,2.84-.72.71-1.85,1.77-2.61,2.41-.25.22-.67.58-1.02.58-.07-.07,1.13-1.44,1.26-1.56ZM98.35,61.41c-1.57-.3,1.25-1.94,1.67-2.52,1.14,1.27-1.45,1.4-1.67,2.52ZM96.32,56.75l-1.85.78c.29-.73,1.2-.73,1.74-1.09.55-.36,1.02-1.17,1.77-1.25l-1.65,1.56ZM93.5,54.51c-1.01.95-2.14,1.78-3.17,2.63-.95.78-1.94,2.11-3.26,2.33l4.59-3.97c.27-.29,2.62-2.44,2.81-2.26.25.23-.95.99-.97,1.27ZM84.81,53.9c-.11.09-1.51,1.31-.9.38.55-.85,2.27-1.68,2.97-2.59.28.32-1.79,1.98-2.07,2.22ZM80.65,55.19c.37-.97,1.38-1.91,2.14-2.63.81-.77,2.07-2.07,3.12-2.23l-5.26,4.87ZM83.43,48.81c-.94.83-1.98,2.51-2.98,3.19-.24.16-.26.6-.58.66.26-.89,1.21-1.59,1.83-2.36.78-.97,1.33-2.68,2.65-2.51.1.77-.75.87-.92,1.02ZM77.81,50.11c-.45.43-.91,1.14-1.45,1.66-.21.2-.43.46-.58.01-.02-.07.3-.13.45-.33,1.03-1.44,2.16-3.41,4.02-3.66.38.44-2.2,2.09-2.44,2.33ZM75.66,49.13c-1.59,1.7-3.44,3.45-5.11,5.01l-1.59,1.44c-.08-.36.2-.46.39-.68.91-1.08,1.89-2.14,2.82-3.22.96-1.11,2.06-1.9,2.67-3.26l1.33-.05s-.4.65-.51.76ZM69.43,51.86c-.2.2-.28.5-.66.41-.11-.11.83-1.13.96-1.27.18-.2,1.36-1.48,1.57-1.26.1.1-1.65,1.91-1.87,2.12ZM70.98,56.04c.63-.65,1.6-1.34,2.27-2.02-.09.88-1.07,1.53-1.65,2.25-1.85,2.29-3.86,4.23-5.86,6.5-.41.47-.35,1.32-1.26,1.18.95-1.4,2.24-2.55,3.31-3.84,1.05-1.28,1.98-2.82,3.19-4.07ZM68.52,50.08c-.96,1.09-2.22,1.85-3.3,2.78-.72.62-1.25,1.68-2.29,1.94-.14-.13,2.24-2.7,2.48-2.92.21-.2.64-.34.92-.58.72-.62,1.32-1.43,2.24-1.75l-.05.54ZM57.48,57.53l-.2-.78c.26.02.47-.03.68-.2,1.65-1.35,3.28-3.92,4.93-5.05.32-.22.58-.48,1.01-.4l-6.42,6.42ZM62.25,58.5c.38-.09.58.47.48.78-.95-.02-1.21,1.11-1.64,1.57-.33.34-1.06,1.03-1.43,1.34-.15.13-1.14.86-1.2.79-.08-.35.18-.47.38-.68.74-.77,1.49-1.5,2.35-2.33.39-.38.44-.98,1.16-.88-.12-.25-.78-.41-.09-.58ZM58.01,52.72c-.38.41-1.06.99-1.51,1.41-.77.71-1.78,1.65-2.73,2.04l2.3-2.32c.29-.06,2.01-1.96,2.18-1.77.23.27-.09.48-.24.64ZM54.26,57.92c.22.04.08.28.02.41-.26.57-1.48,1.69-1.98,2.2-.34.36-.73.84-1.08,1.16-.19.17-1.38,1.24-1.53,1.09.98-1.06,1.91-2.18,2.91-3.22.18-.19.49-.28.69-.49.29-.3.35-.94.98-1.16ZM45.79,82.84l1.13-1.16,1.21-.79c.12.11-1.72,2.37-2.34,1.94ZM47.82,83.23c.35-.04.8-.44.99-.39.27.06.23.65.34.74.12.1.38.03.54.04l-.29.37c-.52-.7-6.52-.04-6.53-.47.33-.35.8-.07,1.21-.14,1.66-.29,2.47.01,3.74-.15ZM49.1,81.86l2.24-1.94.29.58c-.88.03-1.46,1.42-2.53,1.36ZM54.61,66.35s.63-.3.96-.51c.59-.38,1.68-.67,1.51-1.3l.22.36c.74-.13,1.44-.33,2.21-.36,4.82-.18,8.53,4.31,9.4,8.71.57,2.89.02,4.79-2.36,6.5-.34.24-.21.74-.7.36v.59c-.75-.21-1.68.48-2.53.68-1.12.27-4.65.37-5.72.08-.06-.02-.76-.34-1.1-.47-6.31-2.37-7.1-10.77-1.89-14.64ZM58.05,84.9c.52-.25.85-1.24,1.47-1.47.29.17-.06.53-.18.7-.36.5-1.45,1.75-2.06.95-.07-.58.31.04.77-.18ZM62.94,116.81c.26.12.74.08.77.11.02.02-.21.31-.1.57.06.15.98,1.09.88,1.18l-1.75.19.54-.93c-.98-.99-1.14-.15-1.74.23-.91.57-2.08,1.15-2.32,2.26l-.34-.15-1.4,1.32c-.46-.56,1.88-1.66,1.36-2.13.84.09.89-.69,1.35-1.09.38-.33,1.79-.86,1.72-1.35-.23-.47-.49-.43-.93-.29l-.1-.58-.39.59-.19-.39-2.04,1.56c0-1.1,1.73-1.36,1.55-2.53l-.35.14-.32-.34-3.34,2.6-.72,1.03-3.44,3.38c1.02-1.38,2.22-2.94,3.38-4.21.36-.4,1.06-.91,1.43-1.29.32-.33.36-.96,1.22-1.21-.52-.54-1.75-.6-2.04.1l-1.01-.77c-.4-.1-1.8.63-2.18.88-.26.17-1.15,1.27-1.38,1.05.52-.31.48-1.12.62-1.32.09-.12.43-.11.6-.23,1.21-.89,4.26-.96,5.84-.73,2.07.3,3.2,1.61,4.83,2.38ZM58.25,124.71c-.1-.09-.65.19-.58-.19l.19-.58c2.01.12.65,4.75-1.17,4.47.17-.35.73-.61.96-.93.15-.21.45-.6.51-.81.05-.16.16-1.89.09-1.95ZM54.55,122.95l-.34-.15-.82.83.58.68-1.36-.49,3.21-3.21c.19.03.12.42.05.54-.29.46-1.47.84-1.32,1.79ZM49.88,127.57c.01-.06.72-.79.77-.82.65-.33,1.67.12,2.04.69.5.78.36,3.84.55,4.05.06.06.24.04.34.04v.19c-1.07.66-2.44.64-3.7.78.26-1.45-.31-3.43,0-4.92ZM48.71,122.37l.51-.95,1.83-1.58c-.33,1.19-1.61,1.6-2.33,2.53ZM52.15,111.98c-.28.23-1.27.64-1.69.65l1.85-1.94c.39.38.21.99-.17,1.3ZM51.44,114.97l-1.37.87c-.55.47-.47,1.1-1.36.88l.38-.48-.77-.87,3.12-.39ZM50.27,124.32l-1.7,1.56-.83.19c.81-.73,1.25-1.81,2.53-1.75ZM46.59,132.8c.33-.27.43-1.01,1.15-.89v1.17s-1.95.19-1.95.19c.03-.32.48-.21.8-.47ZM45.21,128.21l2.24-3.11c.49.35.11.34.05.58-.09.4-.2.56-.42.9-.06.1-.33.2-.48.39-.44.58-.41,1.5-1.4,1.24ZM47.35,121.48c-.13.08-1.23,1.79-1.6,2.19-.04.04-.26-.13-.31-.09-.29.23-.62,1.37-1.21,1.32l3.41-4.08.49.77c-.1.09-.52-.27-.78-.11ZM43.26,128.6c-1.33-.4-.4-.85-.19-1.75l1.17.39c-.52.54-1.05.35-.98,1.36ZM95.64,145.25c-.08.18-.35.7-.45.82-.15.16-.48.23-.62.45l-.3-.48c.66-.37.18-.99,1.27-1.26.41.33.22.22.1.48ZM95.34,142.61l-1.06.98.04-.93,1.52-1.21-.49,1.16ZM100.12,158.2l-2.02-.22-.32-.46v-21.71c.5.14,2.73-.19,2.85.29l-.52,22.1ZM100.7,133.47c-.64-.03-1.87-.26-2.04.39-.3-.43-.73-.28-1.17-.25l-.24-.23c.41-1.89.27-4.01,1.61-5.56-.2.92,1.85,2.33,1.85,2.63v3.02ZM96.61,125.48l1.95-2.14c-.19,1.22-.6,2.03-1.95,2.14ZM106.94,121.98l.57.57-2.13,1.77c-.35-.39,1.68-1.76,1.56-2.33ZM110.63,123.93c-.42,1.42-1.49,2.62-2.3,3.83-.34.5-.23,1.38-1.2,1.23-.52-.31,3.02-4.73,3.5-5.06ZM106.64,131.47c.31.14,2.28.26,2.67.19,1.21-.22,2.13-.98,3.07-1.7-.54,1,.08,2.02-.39,3.12-.59-.63-.62-.05-1.06-.02-.7.05-2.02-.21-2.95-.18-1.76.04-3.39.48-5.14,0l-.2-1.55c.8.62,2.52-.77,3.02-.72.29.03.84.81.97.87ZM112.97,135.61c.58.07.93-.14,1.27-.59.16-.07.04.24.16.31.24.16.65.11.71.46-.79.05-1.38.76-1.96,1.06-.17.09-.43-.03-.57.04-.41.23-2.73,1.94-2.92,1.82.02-.94.6-.75,1.12-1.11.73-.52,1.47-1.3,2.39-1.42l-.2-.58ZM105.57,139.31l-.29-.39-1.85.97c1.18-1.07,2.69-1.63,3.95-2.57,1.45-1.07,2.15-2.57,4.22-2.1.14.71-.44.2-.8.29-1.01.26-3.02,2.13-3.93,2.76-.42.29-1.25.18-1.3,1.04ZM105.77,141.06c-.81.86-2.01,1.51-3.12,1.94.71-.96,1.97-1.63,3.12-1.94ZM105.67,135.03c.53.65,1.34.11,2.05.2-.37.89-1.43.49-2.16.7-.22.06-1.22.54-1.4.66-.27.17-.08.51-.14.59-.02.03-.31-.17-.46-.14-.35.07-.53.38-.91.33l1.17-1.65-1.17.48v-.78c.32-.32,2.92.43,3.02-.39ZM103.03,145.44l3.83-2.41.47.57-.85.22-4.21,2.89v-1.16s.76-.11.76-.11ZM102.84,148.94c1.49-1.49,4.31-2.72,5.82-4.17,2.56-1.16,4.67-3.1,7.24-4.29.2.17-.43.68-.54.77-.58.46-1.53.87-2.14,1.31-2.89,2.1-5.49,4.22-8.43,5.99l-2.71,1.67c.21-.45.41-.91.77-1.27ZM113.95,145.54l-1.36.39c.13-.87,1.1-.9,1.49-1.23.36-.3.49-.76,1.09-1.15.56-.36,1.24-.61,1.9-.73,0,.76-.95.87-1.42,1.2-.65.46-1.06,1.1-1.89,1.14l.2.38ZM106.43,150.1c-.63.59-1.16,1.03-1.82,1.58-.25.21-2.23,1.94-2.35,1.84v-.97c.75.36.59-.15.92-.39,1.16-.84,2.22-1.83,3.1-2.73.19-.19.73-.31.94-.57.28.57-.49.96-.8,1.25ZM102.07,156.15c.3-.29.56-.61.87-.88,2.91-2.61,7.88-5.94,11.53-8.33.63-.41,1.35-.68,1.91-1.2l-.09.49c-1.78,1.26-3.72,2.38-5.44,3.71-.48.37-.75.95-1.05,1.19-.38.32-1.25.41-1.3.46-.03.03.37.17-.27.69-1.24,1-2.36,1.65-3.61,2.53-.18.12-2.6,2.49-2.54,1.35ZM107.17,155.85c-.72.64-1.49,1.48-2.18,1.86-.24.13-.37.41-.79.29-.23-.2.9-1.2,1.08-1.36.3-.27,2.17-1.77,2.43-1.56.21.17-.43.67-.54.77ZM107.52,158c.36-.59.93-1.19,1.52-1.54.25-.15.67-.13,1-.33,2.07-1.27,4.01-2.72,5.96-4.17.32.2-.07.43-.19.58-.32.38-1.14,1.17-1.53,1.49-.25.2-.72.28-1.08.57-.84.69-3.44,3.26-4.21,3.38-.46.07-.98-.02-1.45,0ZM112,158.2c.37-.56,1.57-.87,1.96-1.27.79-.83,2.28-1.86,3.42-2.59.26-.16,2.12-1.28,2.22-1.2-.28.79-1.01.89-1.62,1.4-.64.54-3.39,3.2-3.88,3.41-.46.2-1.53.09-2.09.25ZM119.07,157.23c-.65.67-1.43,1.12-2.4.97.83-.83,1.87-1.41,2.77-2.15,1.31-1.08,2.45-2.4,3.81-3.3.47-.31,1.11-.49,1.51-.97l.06.75c-.05.09-1.41.7-1.81,1.01-1.41,1.07-2.87,2.61-3.93,3.7ZM124.8,155.43c-.03.05-.69.43-.94.72-.91,1.06-1.26,2.36-2.92,1.85.95-1.47,2.62-2.07,3.8-3.31.19.08.13.6.05.74ZM124.8,149.59c-.07.08-1.62.46-1.81,1.01l-.29-.49c1.07-.18,1.52-1.16,2.24-1.85.22.26.05,1.12-.14,1.33ZM124.26,147.1l-.29-.39c-.33.12-.09.53-.13.56-.13.09-.54.07-.82.25-.61.4-1.27,1-1.86,1.46-.29.23-.74.59-1.05.78-.48.29-.94.69-1.5.45,1.02-1.02,2.24-1.69,3.4-2.54.5-.37.73-1.13,1.43-.82l1.5-1.51c.11.1.26.66.24.74-.04.24-1.26.4-.93,1.01ZM125.24,142.62v.97c-1.01-.27-1.24.65-1.62.91-3.67,2.44-7.27,4.8-10.59,7.66l-2.78,1.56c-.09-.7.61-.58.87-.78,4.35-3.24,9.05-6.65,13.54-10.03.19-.15.24-.38.58-.29ZM124.66,138.92c.29,0,.41.93.4,1.07-.03.33-.31.39-.51.57-.51.46-.73.06-1.38.46l-4.93,2.96c-.08-.36.2-.46.39-.68,1.4-1.62,4.03-2.21,5.83-3.42l-.17-.44.38-.51ZM123.87,137.65c-.22.32-.58.23-.91.37-.29.13-.39.13-.62.23-1.55.66-3.02,1.5-4.7,1.83-.12-.42.56-.67.84-.81.64-.32,1.58-.59,2.06-.85,1.24-.69,2.03-2.24,3.32-.77ZM119.49,136.09c.27-.02.59.15.88.1l-1.46.78-.19-.39c-1.01.89-2.25,1.4-3.4,2.05-.24.14-.43.48-.72.65-1.04.59-2.91.81-3.38,2.17l-.29-.39-1.46.97c.63-.73,1.55-1.48,2.35-2.02,1.66-1.13,5.77-3.79,7.67-3.92ZM117.25,129.67v3.8l-3.12-.29c.25-1.06.07-2.24.4-3.29.06-.2.75-1.76.82-1.82.77-.68,1.9,1.06,1.9,1.61ZM114.72,122.95c.33-.05.21.47.18.66-.14.8-.77,1.2-.57,1.87l-.57-.18c-.05.16-.09.35-.21.47-.94,1-1.85,2.11-3.03,2.83-.26.16-.47.21-.48-.09,0-.31,1.55-1.58,1.9-1.98.57-.65.58-.74,1.11-1.22.56-.52,1.28-1.11,1.27-1.96.55.36.38.08.39-.39ZM114.53,120.71c.69.4-1.25,1.41-1.32,1.5-.03.04.13.25.09.3-.14.18-.68.68-.91.34.29-.6.67-1.11,1.04-1.66.06-.09-.05-.32-.02-.35.18-.19.85-.29,1.13-.13ZM113.55,119.16c-.25.55-.78.24-1.07.46-.31.24-.36.74-.59,1.01-.13.15-.37.02-.43.07-.78.62-.72.35-1.21.62-.38.21-.77,1.31-1.37,1.25-.32-.31,3.58-3.8,3.51-4.48.34-.26.87.94,1.16,1.07ZM110.15,117.3l.29-.97.21.35.56-.07c.66.78-.35.85-.96,1.1l.18.37c-.61-.2-3.23,2.82-3.5,2.54l.77-1.08c.66-.82,2.48-1.41,1.96-2.62l.49.39ZM107.57,115.29c.5-.17,1.29.15,1.86.1l.23.55c-.3.14-1.03-.2-1.14-.16-.02,0-.04.29-.17.35-.56.28-1.24.43-1.75.74-.75.45-1.54,1.28-2.39,1.6.49-.62,1.07-1.23,1.65-1.76.2-.19,1.61-1.39,1.71-1.42ZM101.87,117.41c.14-.31,2.12-2.42,2.47-2.61.33-.19.97-.29,1.23.08-.27.34-.58.14-.95.39-.33.22-.93.84-1.3,1.16-.46.4-.8.95-1.35,1.28-.14.03-.13-.2-.09-.29ZM103.72,121.59c.23.49-.61.91-.88,1.27-.13.18-.15.42-.27.6-.14.22-.34.22-.54.71-.51,1.26-1.42,4.42.91,4.33,1.08-.04,2.14-2.22,3.01-2.83-.18.59-.7,1.47-1.07,1.94-.17.21-1.64,1.55-1.76,1.57-.99.15-.97-.46-1.45-.88-.2-.17-.56-.18-.72-.35-.17-.18-.61-1.52-.63-1.82-.11-1.96,2.18-3.3,3.4-4.55ZM98.36,117.79l2.15-1.45-2.07,2.51-1.82,1.58,1.75-2.63ZM95.35,123.34l2.24-1.56-2.4,3.05-1.49,1.04,1.2-1.92.36.17.1-.78ZM94.86,118.28c.48.08.06.89-.07,1.1-.3.48-1.25,1.72-1.67,2.12-.24.22-.41.55-.79.48.58-1.38,2.05-2.21,2.53-3.7ZM94.28,111.85l-.69-.03c-.15.73-.64.8-.97,1.18-.97,1.12-.97,1.23-2.14,2.14-.31.24-.12.73-.67.59l4.19-5.25.29,1.36ZM93.01,107.38l.48.97-.39.1c.36.35.35.63.19,1.07-.78.26.12-.84-.48-.58-.3.13-1.45,1.36-1.66,1.16l1.85-2.72ZM92.33,105.04c.22.92-.48.89-.88,1.35-1,1.15-1.94,2.53-3.11,3.51-.22.18-.32.47-.68.39.38-.61,1.01-1.01,1.45-1.57.85-1.07,1.53-2.26,2.54-3.3.2-.21.34-.45.68-.39ZM86.29,96.47c.18-.58.72-.85,1.09-1.25,2.27-2.45,4.16-4.58,6.8-6.92.9-.81,1.76-2.12,3.02-2.34l-10.9,10.51ZM97.33,92.91c-.1.1-.41.09-.6.27-1.02,1.03-2.14,2.41-3.63,2.7l1.32-1.17c1.06-.66,1.86-1.88,2.9-2.69.07-.05.45-.35.46-.14-.13.22-.34.89-.45,1.01ZM97.82,88.92l.15.34c-.28.14-.73.11-.97.21-.13.92-.83.97-1.54,1.68-.76.75-1.38,1.95-2.55,2.22,1.26-.91,2.79-3.4,4.09-3.89.08-.55,1.78-1.94,2.33-2.34.07.84-.98,1.28-1.51,1.79ZM99.93,90.43l.68-.98,1.08-.77c-.35.98-.81,1.41-1.75,1.75ZM101.48,86.34c-.09-.38.19-.46.41-.66.35-.33,1.68-1.46,2.12-1.09.44.36-2.22,1.66-2.53,1.75ZM101.87,81.47c.66-.76,1.75-1.32,2.73-1.55-.51.77-1.83,1.26-2.73,1.55ZM105.28,68.63c.48.33.28.73.03,1.1-.09.13-1.06,1.03-1.24,1.18-.13.11-.35.51-.64.25-.05-.05.59-1.26.64-1.31.12-.11.44-.07.62-.25.23-.22.25-.76.59-.97ZM104.79,66.09c.11.1-.85,1.16-.96,1.27-.23.22-.41.55-.79.48.15-.92.78-1.64,1.75-1.75ZM105.86,70.97c.46-.05-.02,1.33-.15,1.5-.31.4-1.55,1.06-2.02,1.49-.37.33-.67,1.08-1.24,1.29.52-1.77,2.59-2.6,3.41-4.28ZM102.26,61.62c.31.42-1.57,2.12-1.75,1.26-.06-.27,1.33-1.82,1.75-1.26ZM99.62,51.77c-.6.5-.87.72-1.44,1.18-.5.41-.64,1-1.37.67l4.58-4.09c.39,1.07-1.1,1.68-1.76,2.23ZM99.94,46.34c-.49.38-1.06.9-1.44,1.38l-4.61,3.18c.04-.92.81-.93,1.31-1.31,2.3-1.72,4.66-3.36,6.77-5.31.44.97-1.3,1.5-2.03,2.06ZM100.04,43.54c-.19.14-.27.4-.38.48-.42.3-1.16.73-1.63,1-.17.1-.49.43-.64.14,1.46-1.15,2.74-2.74,4.48-3.41l.09-.58c.93.82-1.32,1.9-1.92,2.37ZM102.59,38.78c-.1.08-.36.06-.5.18-2.87,2.26-6.41,4.45-9.29,7.07-.17.15-.23.51-.32.57-.1.07-.37-.13-.55-.06-.25.1-.35.59-.77.48.42-.71,1.03-1.22,1.66-1.75,2.3-1.93,4.86-3.62,7.29-5.37.35-.25,2.07-1.8,2.25-1.84.42-.09.57.46.23.73ZM102.15,35.81c-.27.28-1.17.6-1.64.68.51-.89,1.59-.94,2.05-1.94.37.72-.03.88-.4,1.26ZM102.55,31.43l.08,1.53c-.26.2-.74.05-.95.15-1.38.64-1.95,1.54-2.98,2.35-.44.35-1.36.17-1.31,1.42l-.19-.78h-.78s2.78-2.18,2.78-2.18c1.18-.79,2.52-1.31,3.36-2.49ZM96.04,33.1c.82-.71,2.04-1.62,3.1-1.86l-1.89,1.52-1.62,1.01c-.08-.36.18-.47.4-.67ZM93.79,33.77c.27.24-.23.71-.38.89-.58.71-1.46,1.59-2.44,1.44.69-1.04,1.94-1.48,2.82-2.33ZM93.59,37.77c.64,0,1.24.45,1.85.09.22.23-1.23,1.55-1.46,1.75-1.71,1.48-3.99,2.57-5.91,3.63-.83.46-3.15,2.03-3.86,2.17-.72.15-1.54-.02-2.29.05-3.06.27-5.96.78-9,1.29-.84.14-2.71.17-3.43.49-.24.11-.32.3-.33.55l-.27-.37-9.6,2.28-1.22-.74.12-.4c1.15-.61,2.42-.9,3.6-1.43,2.47-1.1,5.22-2.34,7.91-3.39,5.91-2.31,17.46-5.95,23.9-5.97ZM71.42,39.05c.68-.46,2.2-1.14,3-1.48,1.17-.5,2.66-1.16,3.89-1.07l-2.87,1.12c-.94,1.13-2.6,1.02-3.63,1.63-.22.13-.32.3-.33.55l-.38-.29c-.06-.26.15-.35.32-.46ZM69.94,41.24c.28-.1.56-.68,1.17-.46-1.02,1.15-3.07,1.42-4.48,2.14.71-1.08,2.21-1.29,3.31-1.68ZM63.9,43.5c-.31-.02-.57.09-.84.23-1.82.94-3.65,1.95-5.62,2.91-.3.15-.56.81-1.33.56,2.19-1.62,4.92-2.52,7.27-3.93l.52.23ZM56.24,44.71c.65-.38,1.72-.39,1.23-1.2.09-.1.32.32.48.33.21,0,3.19-1.64,3.85-1.9.27-.11-.04-.52.73-.18l-5.52,2.95c-.51.46-.96.86-1.63,1.1-.21.08-.49.39-.64-.06-.03-.09,1.34-.94,1.5-1.03ZM54.74,51.18c.15-.15,1.14-1.05,1.24-1.1.26-.13.53-.07.52.14,0,.13-1.53,1.67-1.82,1.98-.69.74-1.98,1.39-1.88,2.6l-.38-.39-2.73,3.11,1.56-2.24c1.32-1.22,2.24-2.84,3.49-4.11ZM53.5,49.57c.13-.13.87-.97,1.05-.8.05.04-.53.96-.65,1.1-.46.52-2.23,2.32-2.73,2.73-.18.15-.67.24-.91.46-.09-.38.2-.46.41-.66.98-.95,1.88-1.84,2.83-2.82ZM51.62,46.95c.1-.21.76-.16.79-.13.34.29-2.2,2.25-2.46,2.53-.23.25-.07.74-.75.97-.17.01-.29-.2-.1-.48.62-.94,1.93-1.86,2.52-2.89ZM50.46,44.87l-.65,1.29-4.99,4.55,2.4-3.05c.69-.03,2.91-3.14,3.24-2.79ZM48.89,43.34l-.18.56c-1.21-.57-1.51.57-2.32,1.14-.26.19,0,.49-.4-.07l2.04-2.23.86.6ZM46.16,41.29c.01.07-.55,1.14-.6,1.19-.03.03-.28-.09-.45.04-2.35,1.95-3.83,4.48-5.94,6.63l1.56-2.58c1.65-1.9,3.49-3.68,4.86-5.79l.56.51ZM35.64,47.3c.35-.51,2.34-2.15,2.95-2.71.45-.41.61-1.12,1.36-.98.04.47-.54.52-.73.74-.16.19-.14.48-.3.67l-3.84,3.76.02-.76.56-.02c-.12-.26-.21-.42-.03-.69ZM35.6,50.71l2.69-3.11c.13.73-.77,1.52-1.08,2.05-.1.17-.02.34-.08.43-.2.35-.72.88-.93,1.28-.27.52-.26,1.2-.74,1.5l.13-2.14ZM38.34,52.79c.32-.36-.04-.11.44-.45.39-.27.67-.71,1.17-.85l-3.33,5.04-.56.02c-.31-2.01,1.17-2.54,2.29-3.76ZM43.55,39.23l.47.65c-.19.38-.6.52-.88.79-.31.3-.62.61-.96.89-.1-.79.92-1.62,1.36-2.33ZM42.09,38.05c.49,1.04-1.17.85-1.23,1.88l-3.05,2.79c.3-1.07.97-1.42,1.63-2.16.79-.9,1.45-2.11,2.66-2.51ZM37.8,38.68c.43-.68.98-1.64,1.18-2.38l1.17.59c.21.3-1.91,1.92-2.01,2.46l-1.3.84c-.02-.91.67-1.05.96-1.51ZM35.08,45.84c-.36.37-.27.12-.31-.21-.19-1.35.31-1.92,1.29-2.71l-.97,2.92ZM34.69,41.36l.29-1.56.87.22c-.1.65-.4,1.38-1.15,1.34ZM36.61,67.82c-2.81.41-5.42,2.11-8.34,1.59-.58-.65,3.4-4.9,3.89-5.71l2.73-1.89,1.87,5.25-.14.75ZM36.64,59.57c1.46-2.72,3.8-4.99,5.27-7.68l.37.18c.06-.64.71-1.13,1.18-1.55l-1.2,2.21c-1.22,1.31-2.11,2.94-3.15,4.35-.1.14-.36.21-.48.38-.46.63-1.04,2.3-1.98,2.12ZM40.78,74.33l5.78-5.31c.06.6-.62.74-.9,1.04-.74.79-1.37,1.78-2.35,2.33l-.32.66-4.61,4.83-.78,1.46c-.46-2.4,2.32-3.2,3.17-5ZM38.2,83.62l-.17-1.34c1.08-.33,1.7-1.5,2.6-2.17l2.23-1.36c-.01.38-.56-.02-.23.55-1.73.99-2.8,2.57-3.99,4.07-.12.16,0,.36-.44.25ZM38.98,84.4c.22-.38.84-.27,1.27-.58.33-.23.71-.95,1.09-1.24l3.29-2.66-1.44,1.87-1.67,1.24.09.39h1.07c.38.28-3.38,1.33-3.7.97ZM40.73,89.07c.02-.24-.2-.47-.19-.69.02-.49,2.77-2.69,3.49-2.62-.48.57-1.1,1.03-1.63,1.56-.22.21-.13.18-.61.57-.44.36-.62.87-1.07,1.18ZM45.56,89.13c-.4.09-.92.12-1.32.25-.87.28-1.66.82-2.55,1.05.82-.78,1.82-1.34,2.63-2.13.46-.45,1.87-2.34,2.04-2.44.17-.1.66-.22.78,0l-1.17,1.17-.97,1.66c2.03.21,2.57-.34,4-1.55.24-.21.45-.71.52-.75.21-.11.59.04.71-.07.07-.06-.02-.37.07-.5.11-.17.71-.26.98-.46.6-.45.62-1.39,1.51-1.35l-.58.41.19.56c-1.13.22-1.74,1.33-2.53,2.05-1.82,1.67-2,1.59-4.32,2.1ZM48.14,94.63l-.79-.11c-.06-.82.65-1.34,1.17-1.85,1.14-1.11,2.42-2.15,3.61-3.21.29.17-.05.54-.18.7-1.09,1.51-3.06,2.68-3.81,4.46ZM50.27,95.99l-.69-.3,2.48-3.06c.75-.03,1.41-1.37,1.96-1.95l5-3.76c-.07.22-.18.42-.34.59-1.55,1.61-3.77,3.13-5.31,4.61-1.05,1.01-2.11,2.73-3.11,3.87ZM48.48,103.1c2.19-.55,4.24-.27,6,1.25.82.71,2,2.68,2.45,3.68.59,1.28.98,2.63,1.13,4.03l-3.5-.2c.48-3.8-3.56-7.12-7.01-7.79l.93-.97ZM48.42,106.6l1.27.97-2.14,1.17,1.17-1.46c.06-.15-.98-.22-.29-.68ZM49.72,109.55l.35.16.42-1.14c.85-.18,1.13.7.5,1.09-.19.12-.53.05-.83.24-.38.24-.94,1.11-1.41,1.38l-1.99,1.36,2.95-3.08ZM45.01,115.94l3.11-.39-1.62.96c-.18.9-.35.36-.62.58-.45.36-.93,1.5-1.65,1.77.19-.96,1.31-1.33,1.53-2.26.12-.49-.77-.18-.76-.66ZM39.19,112.85c.2.03.42.12.61,0,.65-.41,1.99-2.1,2.78-2.74.4-.32.9-.83,1.45-.78l-5.06,4.48.22-.95ZM42.48,114.19c-.36.61-1.21.94-1.66,1.37-.53.52-.85,1.19-1.42,1.74-.18.18-1.44,1.32-1.6,1.17,1.34-1.63,2.68-3.48,4.67-4.28ZM35.97,115.57l.37-.4c.15-.06.05.2.18.31.15.13.38-.01.31.27-1.11.25-1.26,1.59-2.14,2.14l1.28-2.32ZM34.03,121.39c.07-.12.36-.17.47-.33.41-.58.61-1.07,1.36-1.41.39.51-1.9,2.55-1.75,3.31-.47.08-.12-1.49-.08-1.56ZM35.47,125.98c-.33-.24-.06-.29.07-.52.31-.54,1.12-1.62,1.52-2.17,1.25-1.71,4.45-5.94,5.93-6.72.48-.25,1.27-.56,1.82-.62l-3.83,2.79c-1.06,1.72-2.49,3.34-3.44,5.09-.3.56-.45.36-.73.62-.31.29-.63,1.18-.58,1.63l-.77-.1ZM36.73,126.85l.03-.41,3.19-2.91c.05.37-.28.62-.47.89-.66.94-1.4,1.74-1.66,2.92l-1.09-.5ZM36.06,139.31l.35.16c.99-1.81,2.82-2.88,4.9-2.89-.1.48.12,1.03.1,1.46-.08,1.47-2.29,4.8-3.5,5.75-.44.35-1.54.68-2.05,1.16.27-1.93-.57-3.74.2-5.65ZM18.72,16.24l3.5-.19c.06.28,0,.36-.13.58-.08.13-1.01,1.07-1.22,1.28-.22.23-2.12,2.1-2.34,1.85l.19-3.51ZM18.54,21.24l4.62-4.59c.6-.57.93-.4,1.5-.4,1.1,0,2.22.05,3.31,0,.09,0,.34-.5.29.09-2.01,1.61-3.6,3.62-5.34,5.48-1.55,1.66-3.41,3.11-4.5,5.14l-.11-3.8.23-1.92ZM18.63,27.54c.19-.25.53-.33.67-.5,2.8-3.56,6.18-6.66,9.37-9.91.19-.19,1.08-1.39,1.16-1.27l.03.35,4.84-.16c.28.48-1.29,1.54-1.57,1.84-3.42,3.68-7,7.11-10.51,10.72-1.52,1.56-2.95,3.22-4.47,4.77l.18-.7-.36-.16c.68-1.27-.14-3.89.67-4.98ZM37.75,20.34c-4.45,4.16-9.19,9.33-13.44,13.75l-6.36,6.3c-.11-.58.16-1.12.18-1.66.04-1.12-.3-3.35.21-4.23.91-1.58,3.91-3.59,4.95-5.32l3.88-3.8c2.7-3.24,6.27-5.72,8.69-9.23l6.43.1c-1.29,1.58-3.06,2.72-4.54,4.09Z"/>
      <path d="M59.13,29.29c-3.38,1.56-7.2,2.88-9.64,5.84,1.54-.23,2.54-1.42,4.03-1.9,1.33-.78,2.59-1.89,3.83-2.69.51-.33,1.96-.53,1.77-1.25Z"/>
      <path d="M56.69,34.16c-.53-.07-.92.06-1.39.27-.26.12-.7.57-.9.69-.66.45-2.66,1.35-2.39,2.44.08.32.24.26.49.1.63-.42,1.54-1.44,2.19-1.95.64-.5,1.6-.77,1.99-1.56Z"/>
      <path d="M63.88,29.17c-.84.4-3.89,1.75-4.37,2.25-.24.25-.34.42-.28.79l5.78-3.08.45-.62c-.77-.21-1.1.43-1.58.66Z"/>
      <path d="M58.02,36.46c.07-.12.13-.52-.05-.55-1.37,1.06-3.18,1.33-3.6,3.31l2.07-1.72c.23-.19,1.49-.88,1.59-1.04Z"/>
      <path d="M64.87,32.6c.4.31,2.39-1.3,2.66-1.61.11-.12.17-.27.2-.43l-.43-.48c-.52.64-1.26,1.13-1.83,1.68-.23.22-.67.51-.61.84Z"/>
      <path d="M58.64,38.83c-1.23-.11-1.8.89-2.53,1.65l.48.48,2.04-2.14Z"/>
      <path d="M84.91,145.47c-.88-1.71-3.8-5.38-5.15-6.83-1.34-1.44-2.89-3.51-4.82-1.47-.04.05-.3.92-.33.96-.02.02-.26-.18-.34-.14-.33.17-4.74,4.61-5.21,5.19-1.34,1.68-1.52,2.69.03,4.27,1.59,1.63,3.8,3.15,5.46,4.76,1.11,1.08,1.79,3.14,3.83,1.65l6.74-6.73c.05-.6.07-1.14-.21-1.69ZM81.05,148.76c-.54.54-1.01.84-1.47,1.25-1.77,1.55-1.4,2.94-3.73.72-.37-.35-.6-.64-.99-.99-1.57-1.44-3.03-3.05-4.92-4.11l6.32-6.73c.39-.33.65-.12,1.01.1.38.23.51.8.72,1.03,1.17,1.29,2.29,2.53,3.33,3.97.57.79,1.14,1.61,1.64,2.45.03.3-1.54,1.95-1.9,2.31Z"/>
      <path d="M54.32,145.7c-.06.05-.97.3-1.4.65-.52.42-1.14,1.48-1.75,2.04-.3.27-.83.19-.91.85.67.12,1.17-.4,1.65-.78,1.12-.89,2.49-2.22,3.59-3.23.22-.2.49-.29.41-.66-.97-.21-1.23.82-1.6,1.13Z"/>
      <path d="M47.17,142.54c-1.56,1.62-2.43,5.16-1.96,7.35.03.14.32.14.32.17.06.25-.11.46.11.97,1.49,3.44,6.77,4.03,9.76,2.26.19-.11.24-.38.38-.48,1.49-1.13,2.13-1.91,2.72-3.82,2.07-6.62-6.66-11.31-11.34-6.45ZM56.25,149.29c-.98,2.48-4.72,3.77-7.1,2.73-.09-.04-1.31-.99-1.36-1.06-.08-.11-.79-2.3-.79-2.53.02-1.43.77-3.99,2-4.83.82-.57,3.31-1.26,4.27-1.06,1.11.23,2.03,1.15,2.64,2.04.97,1.42.99,3.06.34,4.72Z"/>
      <path d="M65.13,136.84c.73-.67,1.73-1.33,2.46-2.11-.07-.24,1.09-.83.79-1.07-.19-.15-.75.16-.96.3-.65.42-2.17,1.67-2.8,2.22-.16.14-.56.55-.81.78-.78.72-1.6,1.15-1.46,2.34.3.33,2.54-2.24,2.79-2.46Z"/>
      <path d="M66.65,137.28c-.21.21-1.56,1.66-1.38,1.84l.59.11c.92-1.3,2.46-2.16,3.6-3.23.3-.28,2.1-2.14,1.85-2.33-.42-.08-.54.01-.86.21-.75.47-1.38,1.33-2.03,1.92-.56.52-1.4,1.1-1.77,1.48Z"/>
      <path d="M70.71,137.36c-.66-.25-2.47,1.55-2.34,2.04.27,1.03,1.99-.88,2.25-1.15.38-.39,2.4-2.56,2.03-3.03-1.09.39-1.06,1.77-2.33,1.75l.39.39Z"/>
      <path d="M57.25,138.69c.03-.95,1.1-1.05,1.74-1.56l-.16-.35,2.12-1.2-.27-.75c-.25,0-3.86,2.8-4.01,3-.21.29-.21.55-.18.89l.75-.03Z"/>
      <path d="M60.25,78.11c.91.6,2.57.2,3.35-.53.87-.81,1.49-3.57,1.45-4.74-.04-.99-.96-3.89-1.66-4.59-.7-.72-2.45-.9-3.14-.15-.07.08-1.16,1.75-1.21,1.85-.62,1.45-.82,4.34-.23,5.78.12.28,1.31,2.31,1.43,2.38Z"/>
      <path d="M94.96,67.46c-.08-.12-.38-.15-.43-.24-.05-.08.08-.29-.05-.44-.9-1.08-2.48-1.18-3.52-.2-1.46,1.39-1.47,5.05-1.07,6.91.05.24.72,1.51.88,1.65.07.06,1.63.76,1.73.78,1.18.21,2.17-.94,2.59-1.9.85-1.95.9-3.92.11-5.88-.08-.19-.21-.64-.24-.68Z"/>
      <path d="M79.54,43.69c.14-.03.15-.33.29-.37,1.28-.42,3.43-.74,3.94-2.15-.77-.24-.97.48-1.37.67-.35.17-.77.1-1.12.24-1.03.4-2.07.97-3.15,1.04-.32.77.82.71,1.42.58Z"/>
      <path d="M85.9,42.67c1.26-.56,1.87-.71,3.05-1.46.22-.14.6-.1.8-.27.02-.02.24-.42.23-.45-.09-.58-1.59.32-1.97.51-.99.5-2.22,1.07-3.14,1.65-.22.14-.7-.21-.53.86.05.07,1.37-.75,1.56-.84Z"/>
      <path d="M85.51,128.99c-.29-.23-2.73,1.63-2.34,2.33l1.86-1.54.48-.79Z"/>
      <path d="M37.33,141.85c.7-.72.49-.33.64-.43.12-.08,1.63-1.97,1.79-2.2.18-.27.26-.59.39-.88-.52-.43-3.23,2.74-3.52,3.21-.3.48.02,1.01.71.3Z"/>
      <path d="M76.45,143c.09-.11,1.95-1.5.78-1.74-.78-.16-1.98,2.07-2.43,2.63-.25.31-1.73,1.58-1.75,1.95.23.31.42.4.78.2.12-.06,1.62-1.67,1.85-1.93.29-.33.46-.75.76-1.1Z"/>
      <path d="M79.37,143.78c.12-.2-.05-.52.1-.77-.37-.04-.61.07-.91.26-.31.21-3.37,3.31-3.65,3.64-.48.58-.27,1.23.38.77.47-.34,1.29-1.12,1.75-1.55.33-.31,2.2-2.14,2.33-2.35Z"/>
      <path d="M78.95,147.28c-.38.46-1.16.63-1.02,1.37,1.24.01,1.39-1.68,2.5-1.97l.02-.46-.48-.29c-.27.06-.82,1.11-1.02,1.35Z"/>
      <path d="M53,144.47c.13-.13,1.08-1.16.96-1.27-2.06.62-3.42,2.33-4.96,3.7l-.1.97c.79.16.85-.61,1.27-.97.95-.82,1.93-1.49,2.83-2.43Z"/>
      <path d="M53.38,149.05l.2.58c-.82-.23-.72.29-1.09.56-.46.33-1.19.47-1.05,1.2,1,.34,3.76-2.59,3.31-3.11l-1.36.78Z"/>
    </g>
  </g>
</svg>