<?xml version="1.0" encoding="UTF-8"?>
<svg id="Layer_2" data-name="Layer 2" xmlns="http://www.w3.org/2000/svg" viewBox="0 0 167.76 174.33">
  <defs>
    <style>
      .cls-1 {
        fill: #080808;
      }
    </style>
  </defs>
  <g id="Layer_1-2" data-name="Layer 1">
    <g>
      <path d="M128.83,7.21s-.01.13,0,.19c-.35.1-.3-.14-.38-.19.1-.01.33-.02.38,0Z"/>
      <path d="M128.46,7.21c-.06,0-.18-.02-.19,0,.02-.02-.03-.19.1-.18.07.04.06.16.09.18Z"/>
      <g>
        <path d="M86.8,25.57c.14.18.22.41.38,0,0,.05.33.2.1.38-.19.33-.7-.13-.85,0-.03.03.38.63.02.85-3.42,3.52-7.03,6.86-10.52,10.3-1.76,1.73-3.34,3.67-5.16,5.35-.37.34-1.82,1.74-2.06,1.88s-1.25.41-1.04-.1c.69-.46,1.39-2,2.25-1.6-.32-.46.27-.96.65-1.32,1.16-1.08,1.94-1.9,3.09-3.08,3.06-3.14,6.34-6.07,9.3-9.27l.28.56c-.03-.41-.03-.67.18-1.04.08-.13,1.92-1.94,2.17-2.15.19-.16.53-.13.62-.21.05-.05-.37-.49.6-.53Z"/>
        <path d="M87.18,25.39s0,.12,0,.19c-.12,0-.25,0-.38,0-.31-.4,0-.38.19-.56-.06.08-.01.42.19.37Z"/>
        <path d="M18.11,17.15c.12.11-.1,1.14.76.46l-.47-.47,25.91-.02c.56.07-.03.77.72,0,35.54.05,71.08.05,106.61,0,1.41-.06,1.46,1.7,1.4,2.72-.22,3.74.02,7.29-.06,11.1,0,.34-.29.62-.25,1,.04.33.29.56.31.66.02.1-.36.1-.38.18-.16.54.39.45.39.57,0,.18-.2.45-.2.74,0,1.85.37,3.69-.18,5.63-.04.14.31.05.35.18.11.36-.27,2.83.02,3.47.3.04.11-.28.42-.43.37-.19,1.21.07,1.36.03.63-.18,2.94-1.05,3.64-1.39.88-.42,2.27-1.79,3.14-1.93.45-.07.22.27.26.54.34.08.02-.55.46-.37.69.28,1.04,1.46.53,2.07-2.2,1.34-4.21,2.68-6.75,3.35-.57.15-3.15.45-3.26.57-.04.04.13.38.09.57-.27,1.22-.05.41.06.82.25.89-.32,2.29-.16,2.97.12.52.87-.04,1.06-.06.98-.13,1.58-.08,2.64-.53,1.01-.42,3.62-2.55,4.12-2.61.33-.04.76.21,1.02.42,1.86,1.51-1.1,3.07-2.28,3.73-1.53.86-3.18,1.48-4.86,1.99l-.19-.56c.32,1.05-1.66.31-1.69,1.22,0,.09.35.07.35.17.06.76-.33,3.19-.07,3.68.19.35,2.95-.47,3.38-.63.7-.27,2.18-1.13,2.91-1.55.28-.16.28-.52.53-.65.36-.19.85-.01.94-.05.04-.02.07-.37.39-.42.85-.13,1.59,1.51,1.01,2.17-.53.6-2.83,1.9-3.64,2.31-.91.46-2.48,1.12-3.44,1.44-.77.25-1.57.36-2.35.56v.18c.77.02.1,1.22,0,1.6-.02.06.48-.06.26,1.05-.19,1.01-.01.24.11.66.06.21-.03,1.52-.37,1.66.63.15.14.37.17.93.06,1.3.29,3.07-.16,4.21.68-.04.19.32.2.68.03.79.21,2.18.05,2.91-.11.5-.68,1.26-.6,1.61.1.42.39.33.53.58.44.79-.2,4.31.17,5.39-.83.3.05.24.02.37-.71.8-.03.6,0,.77-.33,1.14.15,2.88-.03,3.93-.03.18-.35-.01-.35.18s.29.03.36.11c.03.03-.19.54-.19.83.02,1.23.16.88-.17,2.07-.04.14.28.05.33.18.38.99-.71.54-.71.75,1.29.17.61,1.56.6,2.45-.03,1.77-.17,3.51-.2,5.25,0,.05.18-.15.21.74.04,1.05.19.87-.23,1.87-.06.15.33.03.38.21.04.15-.18,2.02-.18,2.41,0,.44.24.87.2,1.33-.03.41-.47.21-.4.36s.31.22.38.58c.16.89-.12,3.72-.14,4.79,0,.33.23,2.16.13,2.22-.39.25-.31-.64-.94-.18.06.49.85.3.94.37.04.03.01.95,0,1-.11.48-.25-.43-.11.86.08.72-.07,1.45.1,2.17l-.94.19.94.1c-.01,1.62-.26,3.3,0,4.87-.59.15-.51-.05-.76-.25-.28-.22-.24-.03-.18.16.23.68.36.32.94.28.04.52,0,1.02-.38,1.41.98.35,0,.48,0,.56,0,.18.34,0,.39.22.04.17-.2,1.83-.19,2.22,0,.3.19.55.2.74s-.38.01-.39.2.34,0,.39.21c.01.06-.01,1.23-.03,1.29-.05.17-.8.02.02.39-.31.55.08,2.06-.03,2.42-.05.17-.34,0-.35.18s.32,0,.38.21c.02.09-.2.99-.2,1.28.02,1.48.17,2.99.14,4.46-.01.62-.21.88-.32,1.36-.01.05.98.2,0,.55.81.14-.03,1.15.01,1.21.02.02.33-.03.38.13.04.16-.15.78-.15,1.1,0,.54.19,3.1.11,3.38-.05.16-.36,0-.35.18l.36.18c-.12,1.35-.16,2.89,0,4.21-.84.1.03.2.04.31.02.23-.2.52-.19.75.02.38.17.7.17,1.11.01.52-.09,3.84-.23,3.98-.64.62-2.47.23-3.24.24-.39,0-2.15.25-2.42.18-.22-.05.01-.46-.3-.38.07.66-.24.15-.65.18-.31.02-.72.24-.93.21s-.03-.4-.21-.39.01.35-.2.38c-.05,0-1.02,0-1.1,0-.27-.03-.46-.31-.58-.31-.16,0-.35.4-.46.32-.03-.02.04-.36-.08-.36-.08,0-.34.17-.57.18-1.31.01-2.63.04-3.92.19-.25-.7-.29-.13-.82-.04-.45.07-.85-.13-1.27-.13-.35,0-.99.3-1.18.13-.1-.08.06-.34-.12-.34s-.03.25-.12.33c-.17.14-2.43-.16-2.88-.16-1.01,0-3.13.33-3.92.2-.18-.03-.04-.44-.2-.37-.36.35-3.11.48-3.54.38-.15-.03-.12-.41-.21-.39-1.52.44-2.94.29-4.41.3-4.79.03-9.54-.13-14.33.08-.38-.83-.24-.09-.32-.02-.02.02-.42-.16-.64-.16-.71,0-1.82.33-2.25-.19-.36.97-.49,0-.56,0-.17.7-.64.27-1.16.26-.58-.02-1.16.02-1.65.01-.4,0-2.12.14-2.23.12-.18-.04-.08-.44-.21-.38-.34.13-.52.45-1.13.38-.36-.04-.27-.31-.32-.32-.72-.18-.75.27-.8.28-.13.03-2.47.06-2.6.03-.22-.05-.04-.39-.22-.39s0,.31-.21.37c-.62.16-.68-.37-.73-.37-.19,0,0,.36-.2.38-.12.01-.43-.16-.69-.15-.47,0-.63.33-.79-.23-.19.36-1.89.44-2.22.38-.16-.03-.04-.37-.41-.39-.59-.04-.43.33-.59.38-.73.2-6.75.04-8.04.02-2.83-.04-5.24-.16-8.13-.07-3.42.11-6.91-.07-10.32,0l-.13-.33-.47.37-.1-.56-.37.51-5.05.06c-.37-.82-.22-.11-.39-.04-.37.15-2.08-.14-2.63-.16-1.27-.04-2.32.07-3.64.09-1.17.02-2.34-.02-3.5.07-.14-.03-.07-.78-.36.01-1.32-.21-2.66-.04-3.98-.04-.72,0-5.15-.34-5.42-.28-.25.06.3.22-.73.18-.76-.03-.52-.2-.57-.2-.71.04-2.16.7-2.83,0-.06.5-.79.24-1.32.23-.19,0-.31.13-.37.14-.22.02.04-.56-.18-.56l-.19.57-.28-.38-.08.36-7.81.02-.09-.38c-.24.9-2.47,0-1.97-.94l.38-.09c.01-.19-.3-.03-.35-.19s-.07-2.95-.04-3.2c.05-.44.4-.18.4-.36s-.34,0-.39-.22c-.04-.15-.03-2.99.02-3.14.06-.21.37-.03.37-.21s-.3,0-.36-.18c-.07-.23.15-2.17.14-2.64-.05-2.59-.02-4.91.04-7.49.01-.47-.23-.98-.2-1.3.05-.5.75-.58.02-.74l-.03-10.5.58-.19-.57-.09v-7.4s.57-.19.57-.19c0-.23-.54.05-.57-.19-.04-.38.17-1.37.17-1.89,0-.29-.17-.55-.17-.73,0-.16.85-.08.04-.38v-10.51s.35-.18.35-.18c.01-.19-.3-.01-.36-.18-.04-.14-.06-2.69-.04-2.83.03-.28.11-.3.39-.27v-.18c-.39.33-.37-1.33-.34-1.42.05-.16.36,0,.35-.18-.75-.27.08-1.63-.39-2.43.44-3.79-.43-8.53,0-12.19.06-.54.25-.49.38-.75.07-.15-.35.05-.4-.36-.05-.45.13-.91.13-1.32-.02-2.1-.38-4.94-.13-6.95.07-.56.77.03,0-.73l.02-7.6.38-.09c-.56.04-.45-1.71-.38-1.78.09-.08.94.14.94-.09l-.94-.19c.27-.69-.37-1.87.38-2.06-.58-.16-.58-.78,0-.94-.69-.22-.25-1.88-.27-2.62-.02-1.01-.32-6.78-.06-7.18.06-.09.36.04.33-.13l-.36-.18c.06-2.67.04-5.35.1-8.03,0-.32-.27-.72-.07-1.02.05-.07.3-.02.32-.04.06-.09-.26-.3-.31-.5-.07-.29-.14-2.09.32-2.02l-.39-.21v-3.52c.87-.37.02-.22.01-.39,0-.21.34.02.38-.19.03-.14-.58.02-.38-.56.06-.17.85-.02,0-.4v-8.23c.05-.44.39-.18.39-.36,0-.06-.89-.15,0-.94-.73-.19-.19-.51-.2-.95-.05-1.66-.32-3.79-.18-5.42.04-.44.09-.96.38-1.31.2-.24,1.3-.82,1.5-.64ZM111.48,18.08v.19c.12-.06.12-.12,0-.19ZM113.92,18.08v.19c.12-.06.12-.12,0-.19ZM139.62,18.27v.19c.12-.06.12-.12,0-.19ZM30.22,18.64v.19c.12-.06.12-.12,0-.19ZM37.6,19.06c-.06-.1-.62-.3-.71-.23l.56.93c-.78-.36-1.77.51-1.78-.56-.21,0-.02.43-.1.57-.03.06-1.21-.09-1.03-.38-.13.83-2.22-.11-2.69.4-.02.02.15.25-.1.54-1.75,2.03-4.33,3.91-5.92,5.71-1.49,1.69-3.27,3.4-4.78,4.98-.8.84-2.33,1.65-2.32,2.89,0,1.41.31,3.02.15,4.5.4.4.37-.21.56-.38,2.01-1.87,3.98-3.77,5.91-5.73.13-.25.85-.04.85.11-.61,1.21-1.85,1.93-2.75,2.78-.79.75-1.53,2.21-2.69,2.18l.37.37c-.56.34-1.97,1.56-2.15,2.07-.29.87.06,1.9-.09,2.7-.05.25-.58-.03-.58.2.81-.3.63,1.7.55,1.77-.11.1-.55-.11-.55.1.7.12.62.12.57.84.86-.52,1.4-1.64,2.17-2.23.23-.17.64-.12.78-.26,2.91-2.85,5.87-6.39,8.74-9.26,1.99-1.99,4.25-3.8,5.94-6.06l.37.56c-.05-.83.98-1.73,1.58-2.36,1.82-1.9,3.78-3.72,5.73-5.62.39-.38.82-.1.29-.83-.18.73-.75.25-1.32.23-.86-.02-1.8.13-2.62.14-.56,0-.99-.41-1.65,0-1.87,2.43-4.28,4.32-6.44,6.45-.73.72-5.39,5.82-5.79,5.74-1.14-.23,1.09-2,1.22-2.15.66-.72,1.29-1.45,1.96-2.16l.28.37c0-.31-.02-.59.17-.86.98-1.36,3.91-3.69,5.28-5.03.26-.25.39-.6.65-.85.57-.57,1.74-.9,1.79-1.96l-.38.28c-.01-.16.04-.38-.04-.51ZM86.99,25.01c.27-.26.13-.42.75-.19.1-.33-.45-.09-.37-.28.13-.31.7-.51.88-.71.16-.17.13-.47.29-.64,1.07-1.11,2.58-2.11,3.51-3.43-1.44,0-3.6-.3-4.97-.12-.27.03-.48.15-.7.3-2.49,2.71-5.13,5.29-7.74,7.88-4.03,3.98-7.97,8.06-12.19,12.18-1.2,1.17-4.54,4.73-5.63,5.43-.23.15-.38.23-.67.18.24-.22.31-1,.42-1.09s.4,0,.49-.05c.04-.03-.34-.64.59-.55l-.37-.37,24.2-23.8c.05-.32-.22-.15-.42-.14-.58.02-1.85.36-1.93-.23-.09.55-.65.22-1.12.2-.25-.01-.51.14-.74.12-.27-.02-.45-.29-.59-.32-.15-.04-.07.28-.13.31-.14.05-.32-.05-.46.03-1.55.88-6.42,6.15-8.07,7.79-1.37,1.37-2.28,2.44-3.63,3.8-2.77,2.78-6.44,6.14-9.08,9.07-1.42,1.57-6.25,6.61-7.8,7.54-.3.18-.41.18-.76.14l27.77-27.92c.36-.42-.91-.48-1.09-.5-.56-.05-2.4.22-2.76.11-.15-.05-.01-.41-.18-.35-.23.08-.9.75-.85,0h-.18c-.23.62-1.12,1.1-1.61,1.58-6.91,6.73-13.67,13.69-20.44,20.53-1.26,1.28-2.84,2.72-3.83,3.84-.52.59-1.18.58-1.3.67-.04.03-.12.63-.32.91-.26.38-3,2.97-3.28,2.63-.06-.43.15-.71.37-1.03,1.28-1.81,5.03-5.03,6.84-6.85s3.68-3.51,5.48-5.3c.97-.96,4.63-5.28,5.37-5.69.2-.11.54,0,.66-.09.06-.04.09-.48.3-.73.41-.49,3.21-3.36,3.57-3.56s.64-.21,1.04-.18l-.56-.37,6.94-6.47c-.67-.47-.91.2-1.09.27-.09.03-1.71.23-1.8.21-.16-.03-.1-.37-.12-.38-.58.71-1.98.1-2.53.21-.17.03-.05.28-.09.34h-.18c-.21-.92-.65.03-.93.29-4.2,3.76-8.07,8.05-12.08,12.01-2.23,2.2-5.09,4.59-6.94,6.74-.19.22-1.38,1.48-1.48,1.52-.09.04-.32-.15-.33-.14-1.59,2.04-2.86,2.96-4.64,4.74-1.3,1.3-3.36,4.17-4.73,5.11-.38.26-.72.3-1.14.46-.11-1.08,1.13-1.62,1.79-2.33,9.09-9.69,19.44-18.56,28.34-28.21.18-.2.74-.19.36-.57-1.53.33-3.56-.17-5.03.06-.27.04-.85.35-.88.31-.09-.11.18-.62-.19-.56.2,1.27-.27.77-.51.98-.1.09-.1.48-.32.72-.6.66-5.1,5.32-5.48,5.38-.16.02-.39-.2-.44-.14-.06.06.16.36.08.57-.17.48-.93.64-1.4.56l.56.37-25.14,24.55-.38-.46c.07-.15,1.03-1.26,1.16-1.36.89-.62,1.75-1.72,2.69-2.66,6.09-6.03,12.93-12.02,18.27-18.09,2.59-2.94,6.74-6.93,9.64-9.6.21-.19.66-.2.7-.24.17-.19.08-.38-.27-.35-.81.07-2.04.18-2.83.07-.29-.04-.44-.25-.57-.28-.11-.03-.07.38-.19.39-.15,0-.43-.21-.72-.18-1.33.12-.93.24-1.6.84-2.47,2.21-4.62,4.52-7.15,6.46-.02.01.17.25.13.33-.11.23-3.18,2.97-3.7,3.5-6.87,7-14.31,14.26-20.91,21.09-.59.61-1.18,1.24-1.79,1.82v10.99s-.38.22-.38.22l.38.09v1.13s-.56-.28-.56-.28c-.07.4.53.36.58.6.13.66-.02,2.71-.02,3.53,0,.59.04.97.02,1.49-.04,1.44.12,3.34-.02,4.66-.05.53-.66.82,0,1.05,0-.24.12-.4.31-.54.25-.19,1.75-1.29,1.86-1.33.33-.12.47.69.45.73-.04.06-.98.76-1.12.85-.2.13-.57.07-.74.2-.19.15-.12.5-.23.62-.11.11-.44-.06-.52.16-.13.35-.14,4.54-.06,5.15.02.16,0,.5.16.54.77-.62,2.03-2.49,3-2.63.59-.08.19.52,0,.76-1,1.31-3.1,2.26-3.1,4.02v4.03c.33.08.38-.13.56-.28.86-.66,1.67-1.76,2.53-2.36.19-.13.44.02.46,0,.08-.12-.04-.49.01-.55.26-.29.89.08.38.85s-4.03,3.66-4.1,3.95c-.09.36.59.75-.41.64-.06.38.53.02.57.29.22,1.23-.08,3.3-.2,4.58l.5-.25,4.29-4.62c.33-.14.45.44.42.63-.05.32-1.92,2.33-2.31,2.74-.71.73-1.7,1.63-2.51,2.36-.16.14-.75.35-.57.46.06.04.36-.09.39.12,0,.05-.01.72-.01.92v4.03l2.91-3,.28.37c0-.35-.02-.72.28-.94l.28.56c-.3-.68,1.82-2.69,2.25-2.43-.13.29,0,.56-.17.84-.22.35-2.34,2.33-2.82,2.82-.36.37-.66.64-1.03,1.03-.48.5-1.7,1.48-1.99,1.95-.27.45.14,2.22.02,2.79-.05.22-.47,0-.39.31.65-.08.22.36.23.79l.24,1.64,5.54-5.53c.33-.23.76-.04.76.38,0,.39-2.85,2.64-3.39,3.17-1.02,1.01-1.94,2.36-3.09,3.29-.11,1.52.16,3.08.06,4.59,0,.11-.32.07-.32.17,0,.24.3.68.17,1.04l7.69-7.96c.69.05.32.84.08,1.21-.27.42-.72.55-.96.83-1.82,2.06-3.86,4.33-5.98,6.12-.23.2-.8.36-.82.4-.2.33.38,4.78.16,5.41l-.37.09c.34.42.26.24.56,0,2.49-1.95,4.73-5.25,7.23-7.21.16-.13.9-.71,1.03-.57.2,1.05-.33.61-.52.78-.13.12-.07.58-.29.85-.66.84-2.39,2.05-3.14,2.81-1.55,1.55-2.99,3.23-4.58,4.74-.06,1.73.28,3.61-.3,5.25,1.13.3.5.1,1.02-.57.74-.97,1.7-1.44,2.51-2.08.03-.02-.14-.29.11-.53,1.58-1.6,3.89-4.22,5.55-5.53.21-.16,1.04-.85.94-.18-.19,1.34-4.43,4.6-5.55,5.71-1.22,1.2-2.32,2.58-3.46,3.85-.27.3-.9.63-.93.68-.08.11.16.44.15.65-.06,1.41-.13,2.9-.06,4.29,0,.17-.32.33.18.28l6.94-6.75,1.04-.18c.07.34-.18.46-.38.66-1.4,1.38-2.86,2.7-4.16,4.16-.65.28-.36-.22-.71-.33.25,1.56-2.3,2.6-2.72,3.56-.11.24-.33,3.06-.23,3.28.06.14.1.22.26.26l7.57-.17.47.56-.28-.56c.98.09,2.11.2,3.09.2,2.38.01,6.6-.39,8.64.17.14.04.06-.36.17-.36.57.01.96.01,1.53,0,.11,0,.04.4.17.36,1.43-.38,1.52.12,2.24.01.13-.02.1-.37.19-.37.82.02,2.22.3,2.92.73l.1-.75c4.18.25,8.38.12,12.57.21.63.01.8-.47,1.13.36.25-.59,1.12-.74,1.31,0,.1-.5.81-.48,1.29-.5,1.84-.07,3.91.27,5.65.23.46,0,.59-.65.74.07,3.08-.51,6.47-.19,9.57-.09.7.02,2.03-.49,2.26.28.46-.88,2.16-.28,3-.29.79-.01,2.29-.32,3.01-.25.15.02,0,.41.18.35,1.22-.47,2.73-.18,4.14-.17.98,0,.85.17.91.16,4.55-.12,9.1-.13,13.51-.08.65,0,1.61-.51,1.7.1.87-.59,2.12-.25,3.01,0,.13.04.06-.37.17-.36s.33.19.58.18c.64,0,.59-.58.75.37l.18-.56h37.32c.39.83.24.09.32.02.07-.06,1.48.31,1.86-.03.08-.31-.34-.08-.39-.31s.12-.56.1-.84c-.06-.71-.09-.92-.09-1.56,0-.51-.24-1.72.38-1.6v-.18c-.61.14-.52-1.06-.33-1.28.12-.14.67-.01.71-.41l-.75.19v-5.62s-2.54,2.24-2.54,2.24c-1.25,1.48-2.84,2.95-4.21,4.41-.39.41-.83,1.01-1.41,1.04-.28.02-.34.02-.29-.29.14-.82,5.44-5.3,6.07-6.58.39-.39,2.11-1.67,2.28-1.94.2-.33.11-3.02.1-3.66,0-.41-.37-1.03.09-1.21.19-.08-.05.47.28.37v-.94c-.36.14-.16.79-.47,0l-.56.56-.28-.37c.1,1.15-1.27,1.74-1.98,2.43-2.4,2.34-4.77,4.67-7.15,7-1.07,1.05-3.17,3.76-4.28,4.44-.26.16-1.04.39-.85-.1.29-.74,3.51-3.7,4.31-4.51,2.25-2.28,4.8-4.81,7.03-7.03.8-.8,3.49-3.02,3.8-3.89.44-1.24-.17-3.72.05-5.09-.33-.08-.38.11-.56.29-4.07,4.05-7.95,7.93-12.02,11.97-.92.92-1.83,1.99-2.74,2.89-1.88,1.86-3.92,3.57-5.7,5.54-.22.12-1.13.29-.94-.18l5.53-5.53.28.37c-.09-.46.22-1.17.69-1.26.16-.03.39.2.44.14.06-.07-.16-.37-.08-.57.06-.17,2.13-2.32,2.51-2.72,1.69-1.78,3.65-3.39,5.43-5.07.28-.27,1.26-1.66,1.37-1.72.13-.08.34.47.41-.34.83-.87,5.23-4.63,5.37-5.42.26-1.41-.02-3.7-.19-5.15l-8.91,9c-4.77,4.82-9.57,9.65-14.48,14.3-.63.59-1.74,2.33-2.59,2.38-.6.03-.21-.51-.01-.77.82-1.08,2.62-2.61,3.66-3.65,2.26-2.27,4.56-4.5,6.88-6.71.45-.43.71-1.31,1.57-1.25l-.37-.28c1.89-1.73,3.61-3.65,5.43-5.44s3.9-3.7,5.52-5.53c.87-.99,2.45-2.16,3.4-3.18.31-.5-.26-1.26.47-1.41,0-.18-.33,0-.38-.21-.17-.67.18-4.16,0-4.38-.36-.44-.33.61-.47.76s-.38,0-.43.04c-.3.24-1.42,1.81-1.91,2.29-.85.84-1.8,1.47-2.54,2.34-.38-.64.18-1.56.74-1.88.3-.17.78-.15.83-.2.06-.06.11-1.16.87-1.47l.28.37c-.2-1.37.88-.88.94-.94.05-.05-.22-.31-.1-.55.21-.47,1.79-1.48,1.79-1.6v-5.53l-5.25,5.15c-.86.57-1.37.31-.57-.57s1.52-1.45,2.34-2.34c.67-.72,2.21-2.41,2.92-2.92.39-.28.56-.04.56-.07v-5.72s-.32-.34-.37-.28c.02.31-.08.53-.27.77-.59.75-2.16,1.95-2.93,2.69-.46.44-2.07,2.38-2.38,2.54-.25.13-.76.34-.99.09.34-.72,1.11-1.46,1.68-2.06,1.64-1.72,3.37-3.41,5.17-4.96v-5.81c-2.08,1.76-3.72,4.09-5.82,5.81-.16.13-2.37,2.03-2.34,1.04l8.2-8.01c.07-.84.19-1.78-.13-2.57l.75.18c-.98-.58-.42-1.95-.56-3-1.51.94-2.45,2.33-3.68,3.54-.26.25-1.93,1.83-2.07,1.85-.16.02-.38-.19-.44-.14-.38.36.59.39.37.56-.04.03-.31.04-.47.19-.27.26-.55.76-.85,1-.07.06-.5-.08-.65.5-.23.07-.47-.22-.47-.47,0-.34,2.03-2.07,2.44-2.49.19-.19.25-.53.45-.73.66-.67,5.38-4.84,5.38-5.22v-5.34c-.68.37-1.36,1.62-1.92,2.01-1.23.86-3.32,3.09-4.77,4.43-.97.89-1.94,2.54-3.44,2.56-.06-.05.36-.63.46-.75,2.31-2.84,6.56-6.33,9.3-9.08.19-.19.36-.62.39-.64.05-.03.31.21.35.16.19-.24-.08-.49-.37-.38v-6.37c-.57.02-1.22.12-1.78.08-.6-.03-2.57-.45-2.93-.36-.47.11-1.61,1.4-2.13,1.78-.64.46-1.93,1.26-2.68,1.63-1.11.54-4.65,1.74-5.76,1.74h-3.47s-.17.63-.17.67c0,.09.58-.04.18.64l.75-.75c.55,5.25,1.74,10.41,2.62,15.67.2,1.18.3,2.68.54,4.11,1.12,6.68,2.62,13.58,3.58,20.24.23,1.64.23,3.4-1.41,4.35-.81.47-3.19.82-4.11.61-6.11,1.27-13.45,2.43-20.11,3.5-1.34.21-3.63.72-4.86.78-.72.04-1.23-.47-1.51.19l-9.9,1.52-.11-.38h-.18c.02.14.03.32-.13.37-.91.28-2.14.34-3.09.49-.24.04-.54.25-.64.25-.15,0-.17-.58-.46-.55.47.93-.3.45-1.02.58-1.57.28-3.13.69-4.72.91l-.08-.36c-.3-.1-.07.29-.32.37-.78.25-3.69.73-4.48.74-.11,0-.04-.39-.17-.36-1.97.49-3.24.69-5.23,1.01-3.89.63-7.8,1.32-11.68,1.99-.4.11-.11-.42-.44-.37.02.14.03.31-.13.37-.98.33-2.42.1-3.3.23-1.62.25-3.44.82-5.13,1.06-.42.06-2.81.44-2.96.4-.05-.01-.43-.99-.31.18-.6-.03-1.5.02-2.08.11-1.93.31-12.61,2.39-13.56,1.74-.45-.31-.57-.38-1.03-.66-.97-.59-.76-1.14-1.33-2.04l.56-.28c-.79.25-.9-1.46-1.03-2.15-.85-4.65-1.55-9.3-2.31-13.68-.11-.64-.07-1.49-.23-2.16,1.12.37-.12-.37-.16-.49-.43-1.33-.69-4.1-.94-5.61-1.08-6.45-1.95-12.97-2.95-19.41-.19-1.21-.73-2.61-.82-3.84-.02-.24,1-.64,0-.54-.16-1.89-1.06-3.83-.75-5.71l-.37.19c.18-2.61-1.84-6.72-.08-8.98.98-1.27,2.71-1.02,4.05-1.25,1.76-.31,3.91-.77,5.36-1,4.62-.73,9.68-1.31,13.96-1.99,3.79-.6,7.55-1.41,11.35-1.96.28-.07.29.13.26.37h.18c0-.2.08-.39.27-.49.32-.17,3.91-.69,4.55-.79.82-.12,2.26-.4,2.98-.42.36-.01.26.71.64.39.12-.1-.5-.27.19-.46,1.43-.4,3.71-.7,5.24-.95.49-.08,1.53.1,1.6.08.09-.03.06-.31.37-.36,1.82-.29,3.67-.43,5.46-.9l.08.36h.18s.12-.38.12-.38l21.38-3.01.08-.36.19.37h.18c-.1-.47.68-.5,1.06-.54,1.5-.18,3.51-.65,5.29-.91.45-.07,2.81-.1,3.01-.26.14-.12-.03-1.02.59-.91v-.18c-.61.15-.35-1.09-.29-1.56.85-6.23,5.35-11.75,11.13-14.14,3.76-1.55,7.51-1.82,11.16-1.33,5.18.69,10.73,5.44,13.25,9.84.36.64.33,1.43.97,1.75-.12-.25,0-.47,0-.66v-9.09c-.47.36-.73.7-1.41.56-.62-.09,1.2-1.72,1.3-1.89.26-.47.11-.64.11-1.02v-4.4s-.42-.04-.56-.19l.37.38-.09.19c-1.3.87-2.46,2.66-3.62,3.55-2.03,1.54-1.21-.71-.23-1,.21-.06.52.12.57.07.06-.05-.17-.28-.14-.44.07-.48,3.15-2.88,3.61-3.5l.08-2.6-2.8-.02-.09-.37c-2.22,1.63-3.85,4.18-5.91,5.92-.25.21-.48.15-.76.26-.11-.63.3-1.05.65-1.5,1.15-1.44,3.05-2.97,4.41-4.21-.17-.41-.66-.1-.72-.13-.1-.06-.02-.43-.49-.53-.56-.12-.51.1-.48.57-.29-.3-1.83.08-1.87,0-.07-.14.11-.58-.1-.57-.12.35-.56.58-.93.58-.2,0,.02-.49-.29-.38-.09.46-.84.66-1.29,1.06-1.2,1.05-2.33,2.51-3.49,3.63l-1.04.18c-.32-.28,1.11-1.35,1.23-1.49.88-.98,1.69-2.25,2.9-2.83.45-.63-2.54-.15-2.71-.18-.27-.05-.61-.42-.67-.37-.02.02.05.32-.12.37-.25.07-2.26-.17-2.49.03-.04.04-.08.47-.29.73-.85,1.01-2.23,2.14-3.23,3.05-.45.41-1.5,2.04-1.94.69,1.77-1.28,3.02-3.58,5.06-4.51l-.47-.19c-.43-.04-3.34.32-3.45.18s.03-.69-.39-.74l.19.75c-.07.06-1.47-.2-1.6-.13-.18.09-.19.34-.34.44-1.59,1.15-2.98,2.86-4.43,4.29-.42.42-.8.8-1.12,1.11-.93.93-1.7,1.23-2.41,1.82-.12.1-.24.74-.51,1.09-.8,1.04-2.4,2.19-3.39,3.17-1.25,1.24-3.05,3.46-4.28,4.45-1.12.91-1.8.4-.69-.78,3.03-3.25,6.55-6.2,9.69-9.34,1.75-1.75,3.65-4.3,5.6-5.75.05-.03,1.35-.53.48-.49-.48.02-.74.28-.85-.25-.18.73-.77.25-1.33.23-.5-.01-2.56.2-2.78.13-.43-.14-.11-.74-.49-.73-.04,1.11-1.14,1.54-1.8,2.24-3.1,3.3-6.39,6.32-9.59,9.44-.75.73-1.24,2.15-2.51,1.99.25-.29.36-.96.55-1.19.14-.17.42-.09.56-.26,2.65-2.94,5.65-5.56,8.39-8.36.97-.99,1.8-2.17,2.88-3.05l-.09-.45c-.24.7-1.64.08-2.34.38v-.75s-.37.09-.37.09l.18.66c-.5-.46-1.57.11-1.95,0-.22-.07,0-.46-.3-.37,0,.09.02.27-.04.31-2.43,1.69-4.65,4.28-6.84,6.42s-4.58,4.33-6.81,6.5c-1.19,1.15-4.26,4.88-5.36,5.52-.29.17-.53.21-.86.18l.38.56c-.78.21-1.12,1.16-2.06,1.13-.04-.39.25-.66.46-.94.96-1.24,3.02-3.19,4.22-4.4,4.86-4.91,9.99-9.56,14.83-14.47l.18-.61c-.59.32-1.92-.28-2.32-.18-.1.02-.14.51-.6.3-.37-.17,0-.59-.46-.68v.75c-.38.04-.01-.46-.37-.37.13.55-.81.44-.85,0-.13.77-.76.12-1.04.28-.39.22-1.15,1.97-2.05,1.79l.37.37c-2.09,1.62-3.83,3.68-5.69,5.56-2.13,2.15-4.51,4.58-6.79,6.8-1.38,1.34-3.36,3.5-4.76,4.61-.24.19-.45.28-.76.27l.37.37c-.6.2-2.13,2.35-2.72,2.25-.35-.06-.21-.25-.11-.47.24-.49.69-1.07,1.32-1.03.07-.34-.32-.12-.37-.19-.05-.06.99-1.02,1.15-1.19,2.9-2.91,6.1-6.02,9.05-9.05.39-.4,1.17-.67,1.25-1.38l.56.56-.2-.65c.34-.58.91-1.1,1.41-1.6,1.72-1.73,3.86-3.96,5.4-5.58.47-.5,1.2-.89,1.64-1.45.04-.51-.1-.16-.33-.13-.57.1-2.94.31-3.34.19-.11-.03-.07-.33-.17-.32-.24.01-1.28.15-1.48.2-.67.19-1.13,1.69-1.62,1.28-4.81,5.18-9.96,10.57-15.31,15.37-.36.32-.87.09-.85,1.12-.48-.37-.34.08-.64.38-.73.73-1.39,1.5-2.1,2.23-.63.65-1.59,1.81-2.32,2.36-.96.73-2.2,1.19-.94-.37,3.33-4.13,8.4-7.87,11.68-11.65l10.65-10.46c-1.72-.45-3.7-.04-5.49-.1-1.39,1.32-2.78,2.62-4.17,3.94-.19.18-1.18,1.41-1.27,1.45-.17.07-.59-.16-.89.23-.02-.04-.03-.56-.19-.37ZM23.12,19.47c-1.1-.68-.51.13-.68.29-.21.2-3.56-.85-3.66.47-.03.45-.1,2.08-.06,2.45.02.12.33.07.33.16-.02.58-.35,1.46-.17,2.17l5.04-4.71c.19-.97-.48-.48-.68-.58-.05-.03-.06-.22-.12-.25ZM45.09,26.46c.12-.12.1-.49.32-.7.76-.74,5.98-5.47,6.06-5.89.01-.07-.2-.27-.13-.47-1.32.58-3.09.27-4.59.33-.25.01-.54-.18-.72-.16-.08,0-.75.99-1.05,1.24-1.1.96-2.27,2.21-3.47,3.38-5.76,5.61-11.7,11.76-17.45,17.42-1.38,1.35-3,2.69-4.37,3.91-1.67,1.48-.36,4.63-.8,6.67l1.51-1.21c5.01-5.45,10.42-10.53,15.69-15.72.73-.72,5.23-5.64,5.63-5.7.15-.02.39.2.44.14.2-.22-.08-.48-.37-.38.92-.77,1.75-1.69,2.62-2.54.22-.22.59-.2.71-.32ZM31.07,19.58c-1.92.26-3.92.02-5.82.1-1.22,1.26-2.32,2.68-3.56,3.93-.57.58-2.53,1.99-2.72,2.53-.52,1.54.18,3.95-.11,5.62,1.88-1.86,3.88-3.64,5.75-5.5s3.62-3.85,5.5-5.66c.37-.35.88-.12.95-1.01ZM125.18,30.82v.19c.12-.06.12-.12,0-.19ZM135.4,31.38c-1.84-.07-3.77-.66-5.51.21-.72.36-1.81,1.44-2.47,2.03-.42.37-3.4,3.62-3.84,3.19-.02-.02-.13-.48-.1-.56.18-.44,3.02-2.91,3.6-3.45.1-.1.06-.29.07-.3.13-.08.46.47.56.37.05-1-1.41-.2-1.95.02-1.71.72-2.95,2.17-4.1,2.74-.07.04-.3-.16-.32-.13-.73.89-2.3,3.09-2.86,4.18-1.91,3.73-1.91,8.54-.63,12.49.39,1.21.89,1.89,1.46,2.85.5.85,1.08,1.67,1.46,2.58,1.6-.85,2.8-1.86,4.55-2.5.82-.3.53-.24,1.26-.59,2.16-1.06,6.72-.94,9.09-.64.52.07,1.03.46,1.61.37l-.19.56h.56s.09-.37.09-.37c1.36.37,5.84,2.89,6.95,2.74.39-.05,1.37-1.81,1.62-2.24.35-.61.51-1.71,1.09-1.81-.35-.51-1.37-.29-1.93-.42-3.05-.71-6.23-2.7-9.04-3.14-.99-.15-1.96-.45-2.98-.37l-.21-.38c-.18-.03-.04.27-.12.34-.1.08-2.13-.03-2.68.06-2.25.38-4.11,1.14-5.99,2.26-.78.47-2.82,2.39-3.53,1.33-.03-.04-.15-.68-.14-.72.02-.08.67-.13.35-.46-.09-.1-.48.47-.56.38.2-.54-.49-.54-.37-.84.35-.94,6.37-3.83,7.6-4.24,1.35-.45,2.72-.5,4.12-.74-.08,1.06.36.01.41,0,1.79-.39,6.18.94,7.94,1.6.41.15,2.89,1.11,3,1.22.03.03-.02.17,0,.28-.89-.26.01,1.06.19-.09h.18c-.09.64.59.29,1.02.39.95.23,2.21.7,3.15.79.14.01.28.2.43-.05.36-.39.13-2.96.28-3.63.03-.14.33-.12.37-.25.32-1.07-1.23-.69-1.75-.82-2.12-.52-4.41-1.62-6.65-2.55-.8-.33-2.43-.63-3.08-1-.28-.16-.28-.63-.65-.72-.33-.08-.96.25-1.36.26-.29,0-.48-.19-.66-.19-.74,0-2.21.47-2.45-.28-.17.74-.8.23-1.32.29-.93.1-2.91.75-3.83,1.12-.29.12-2.17.94-2.24,1.04-.03.04.19.31.17.34-1,.1-1.58,1.41-2.43,1.61-1.87.44-2.41-1.59-1.03-2.73.58-.48,2.53-1.83,3.33-2.1.47-.16.99.01,1.08-.04.16-.09.24-.55.56-.75,1.11-.67,5.25-1.17,6.65-1.22.66-.02,2.08-.32,1.79.55l.19-.56c.87.5,1.96-.37,1.69.94.52.11.37-.19.38-.56.42.15.92.25,1.36.39,1.68.56,3.86,1.54,5.53,2.19,1.3.5,2.34,1.11,3.81,1.17-.32-.95-.62-2.05-1.07-2.95-.08-.17-.49-.78-.63-1.02-.39-.64-1.09-1.22-1.34-1.98-.58-.61-1.24.65-1.35.66-.14.02-.77-.26-.85-.43-.28-.61,1.26-.98,1.5-1.4l-.7-.05-2.11-1.93c-.17-.08-.68.36-.84.49-.71.55-1.1.95-1.74,1.36-.09.06-.19.58-.67.47-.13-.03-.49-.39-.49-.43,0-.22,2.29-1.88,2.43-2.25.13-.32-.12-.25-.24-.32-.61-.36-2.96-1.43-3.51-1.18-.5.23-1.76,1.89-2.27,2.4-.15.15-.39.11-.56.27-.5.49-1.71,2.76-1.98.99l3.86-4.12ZM143.19,32.32c-.19.13.1.26.19.37.19-.12-.09-.25-.19-.37ZM114.2,49.19c-.41-.2-5.24.79-6.13.92-5.32.8-10.8,1.81-16.2,2.54-.19.03-.93.13-1,.11-.15-.04-.16-.61-.31-.38-.07.11.15.45-.19.37l-.19-.75c-.01.24.04.55-.09.76-.34.53-7.76,1-8.84,1.68-.33-.97-.46-.02-.58,0-.15.04-.43-.13-.65-.09-1.78.31-3.55.7-5.32,1.02l-.28-.56c.34.62-.97.83-1.38.76-.05,0-.49-1.08-.4-.01-4,.72-8.04,1.38-12.07,2.01-.38.06-.54-.33-.68.2-1.37-.15-3.52.76-4.74.75-.31,0-.51-.4-.61-.33-.02.01.06.3-.14.36-.24.08-2.45.49-2.67.48-.31,0-.47-.35-.57-.29-.04.02.15.42-.67.55-4.45.67-8.85,1.24-13.29,1.91-2.13.32-4.25.83-6.4,1.1.06-1.09-.32-.02-.46.08-.09.07-1.09.01-1.32.1-.07.34.17.47.39.64.83.67,6.24,3.71,6.33,4.15.02.09-.31,1.14.31.07l9.92,5.98c.18,1.19.23.59,1.11.81.67.17,1.8,1.09,2.46,1.49,4.83,2.93,10.07,6.15,14.85,9.14,1.52.95,3.73,1.98,5.06,3.01,1.61,1.24,1.2,3.46-.7,2.95-.12-.03-1.64-.83-1.72-.91-.28-.27-.27-.63-.34-.69-.12-.11-.57-.04-.84-.19-1.13-.61-2.18-1.39-3.24-2.1l-21.96,36.35c.42.07,1-.09,1.38,0,.22.05,0,.46.31.38.02-.16-.11-.53.11-.57,1.77-.31,3.61-.35,5.37-.75,2.02-2.05,4.02-4.16,6.08-6.18.6-.59,1.47-1.45,2.16-2.13.22-.22,1.55-1.69,1.67-1.15.11.46-.33.16-.38.37-.09.42.62.25.38.46-.02.01-.23,0-.35.12-.35.34-.04.55-.77.25l.17.53-7.86,7.52c.5.26.74-.12,1.2-.2,1.25-.22,4.86-.52,5.79-.97.78-.37,2.66-2.59,3.42-3.34.38-.38.67-.81.92-1.05.48-.48,1.08-.85,1.53-1.38.48-.2.3.88.1,1.04l-4.7,4.58c.71-.33,1.58.02,2.14,0,.11,0,.1-.32.25-.37.24-.08,1.41-.23,1.64-.21.47.03.12.43.46.39-.27-1.01,1.33-.39,2-.7,4.6-4.25,8.65-9.16,13.29-13.36.48-.43,1.12-1.18,1.78-.84-.82,1.12-1.8,2.12-2.76,3.09-1.58,1.59-3.48,3.49-5.11,5.16-1.85,1.89-3.79,3.71-5.63,5.62.36.01,1.25.29,1.13-.28.36-.07,0,.44.37.37-.08-.67.42-.22.78-.29.99-.18,2.02-.33,2.98-.65l.19.56c-.2-.94.7-.36,1.26-.8.12-.1.23-.43.42-.6,1.04-.99,2.28-2.12,3.08-3.2l10.34-10.2c.69-.19.73.56-.09.38l.37.37-.53.09c.17.22-1.23,1.65-1.33,1.69-.18.07-.39-.1-.57-.09-.1.09.46.45.37.56-.01.02-.27.01-.45.2-2.2,2.34-4.64,4.53-6.86,7.02l-3.76,3.74.37.28c-.03-.24.04-.32.26-.41,1.54-.61,5.28-.44,6.36-1.28.42-.33,1.04-1.35,1.45-1.75,3.27-3.19,6.55-6.64,9.85-9.88.63-.61,2.23-2.52,2.91-1.77l-13.13,13.4c1.33.07,2.55-.44,3.86-.57.49-.05,1.23-.04,1.69,0,.1,0,.06-.29.17-.32.71-.2,1.48-.06,1.88-.98.56.11.19.54.92.58,1.56.08,3.24-.66,4.71-.77.49-.04,1.17.24,1.21.2.02-.03,0-.41.18-.66.21-.3.66-.64.95-.94.32-.33-.05-.61.75-.28-.04-.18-.14-.28-.02-.47.65-1.05,3.09-2.91,4.08-3.91,2.32-2.34,4.39-4.55,6.72-6.87.69-.69,4.21-4.39,4.7-4.49.75-.15.35.47,0,.94-1.92,2.61-6.22,6.11-8.67,8.49-.85.83-1.73,2.11-2.69,2.84-.38.29-1.06.45-1.1.5-.28.32-.5,1.93-1.64,2.21l-1.96,2.06,6.55-1.05c.91-.59,2.22-2.64,2.87-3.03.58-.35,1.8-1.59,2.59-2.38s1.6-1.73,2.37-2.52c.88-.9,4.58-4.97,5.41-5.08.71-.1-.23.96-.37,1.13-.85,1.03-2.31,2.45-3.28,3.47-1.04,1.09-4.94,5.3-5.86,5.84-.07.04-.31-.15-.32-.13-.03.03-.02.43-.19.66-.44.61-1.26,1.13-1.7,1.77,2.29-.32,4.73-.42,6.9-1.24l2.71-2.84.34.15-.02-.66c.75-.41,4.19-4.4,4.62-4.41,1.4,0-.63,1.54-.85,1.78-.7.77-1.34,1.59-2.09,2.31l-.91-.15.56.46c-.68.59-1.28,1.42-1.97,1.98-.19.15-.57.14-.63.21-.1.13.04.48-.07.67-.09.17-.87.27-.71.79.65-.46,1.42-.16,1.95-.19.12,0,.08-.32.24-.37,1.15-.33,2.95-.23,4.18-.67l4.64-4.58.8.09-3.94,4.22c.58-.11,1.36.26,1.9.08.49-.16.19-.5.63-.46l.1.38h.18c-.08-.6.48-.54.38,0h.18c0-.22.08-.45.31-.53.18-.07,2.95-.5,3.06-.39.1.1-.17.62.19.55.05-.21-.13-.71.11-.75,1.19-.19,2.4-.32,3.61-.51.39-.06,1.04-.01,1.39-.08.51-.1,1.11-.27,1.56-.53l.09.56c.64.16,1.04-.73.73-1.11-.04-.05-.61-.09-.83-.2-1.76-.83-4.56-3.79-6.1-5.15-.21-.18-.47-.24-.73-.3l.18-.36c-1.06.18-.86-1.05-.94-1.13-.1-.1-.6.2-.72.15-.02,0-.04-.24-.17-.33-3.43-2.61-6.85-5.63-10.11-8.31s-6.83-5.62-9.92-8.19c-1.06-.88-2.1-1.78-3.1-2.71-.92-.07-.52,1.6-1.5.66.41.59-1.7,2.73-2.07,2.9-.66.31-1.57-.13-1.79-.83-.39-1.25,1.08-2.42,1.82-3.27.19-.22.32-.35.52-.58,3.6-4.13,7.21-8.34,10.7-12.37,2.13-2.46,4.45-5.52,6.67-7.78.4-.41.78-.97,1.41-.94.22-.24-1.49-2.08-1.75-2.48-.15-.24-1.04-1.63-1.04-1.73,0-.17.52-.41.53-.65l-.75.19c-.32-1.82-1.35-3.51-1.13-5.43ZM150.6,58.08c.09-1.32,0-2.79,0-4.12,0-.08.48-.33-.09-.28-.07.06-.14.12-.18.2-.51,1.01-.81,2.29-1.43,3.39-.08.14-.85.78-.73.9l2.34.38c.08,0,.09-.37.1-.47ZM142.31,59.25c-.58.3-1.07-.35-1.52-.55-5.99-2.62-10.52-3.57-16.4.01-.39.24-1.03.17-1.36.87,1.19,1.03,2.78,1.94,4.28,2.48.6.22,1.78.02,1.54.79.32.09.08-.37.29-.38.39-.02,1.52.35,2.06.38,1.8.1,3.98.01,5.73-.46.61-.17,1.76-.82,2.15-.85.54-.05.11.41.37.56.33-.15.18-.78.47-1.03.23-.2,1.1-.35,1.48-.58.28-.17.43-.46.67-.65.29-.23.9-.06.57-.74-.25-.52-.31.13-.32.14ZM121.25,62.01c-.25-.18-.92-.85-1.12-.82-.15.03-.66.64-.88.82-.95.78-.5.51-1.04,1.22-1.68,2.19-4.01,4.4-5.86,6.5-.58.65-2.8,3.68-3.22,3.9-.26.13-.47.12-.75.1l-.19-.37c0,.19.14.39.08.58-.66,2.03-2.64,3.21-3.58,4.85-.17.29-.52.38-.44.75.7.24,1.4.84,1.96,1.32,4.78,4.07,9.57,8.08,14.32,12.16.86.74,3.13,2.23,3.7,3.01.21.29.26.88.3.92.15.13.77-.09.91.04.06.06-.07.43.12.56.46.31,1.32.66,1.86,1.1,1.85,1.5,3.6,3.19,5.45,4.68,1.12.91,2.35,1.71,3.46,2.63-.73-1.98-.67-4.17-1.02-6.19-1-5.79-2.15-11.58-3.25-17.37-.04-.23-.23-1.37-.22-1.44.08-.3.59-.16.54-.48l-.67-.18c-.23-1.69-.39-3.46-.67-5.14-.33-2.02-.65-3.65-.96-5.78-.07-.48-.46-1.45-.48-1.77s.41-.51.34-.62c-.01-.02-.25.06-.37-.14-.11-.19-.31-1.22.19-.99v-.18c-1.85-.36-3.67-.84-5.38-1.66-1.15-.55-2.11-1.26-3.14-2.01ZM142.72,61.74c-.06.27.08.39.28.56.08-.19-.19-.74-.28-.56ZM28.67,66.18c-.27-.4.39-.69-.98-.23.2.44.73.06.75.09.17.23.04,1.63.1,1.96.04.22.23.45.29.74.07.34.21,2.54.74,2.17.31-.96,1.54-1.76,2.07-2.53.11-.16.26-.19.18-.47-.46-.08-3.03-1.56-3.15-1.74ZM31.45,67.54l.37-.28c-.2-.29-.4-.33-.75-.28l.38.56ZM151.54,67.36c.12.11.46-.11.56-.28-.26-.07-.95-.08-.56.28ZM32.1,67.36v.19c.12-.06.12-.12,0-.19ZM30.69,75.98c.04-.06,0-.27.11-.36l4.96-4.98-1.36-1.08c-2.39-1.48-1.78-.8-3.38.74-.22.22-.88.91-.94.95-.11.09-.4-.04-.51.16-.57,1,.52,3.94.38,5.12.29-.11.45-.42.75-.56-.24.35-.36,1.18-.93,1.03.81.37.34.43.46.84.09.31.61,1.76.48,1.87-.09.09-.62-.18-.56.19.88-.21.79,1.42.94,2.06l1.03-1.29.66.35c.19.27-1.1,1.2-1.37,1.51-.14.16-.11.34-.2.48-.1.14-.39-.03-.3.25.15-.02.29-.02.37.14.31.65.28,2.53.38,3.33.03.2-.05.4.28.27.42-.16,2.02-2.06,2.53-2.54,2.08-1.99,4.14-4.34,6.32-6.44.78-.76,1.02-1.13,1.76-1.93.37-.4,1.03-.37.94-.89l-3-1.79c-2.44,2.42-4.98,4.79-7.22,7.41-.13-.71-.54.04-1.03-.28,1.14-1.27,2.47-2.35,3.69-3.53.47-.46.93-1.2,1.58-1.7.19-.14.53-.09.55-.11.08-.07-.22-.49-.18-.55.03-.04.73-.25.87-.43.04-.05-.09-.29.04-.43.15-.17,1.03-.59.72-.99-.44-.58-2.43-1.3-3.05-1.9l-4.48,4.88c-.4.35-.78-.03-1.24.18ZM33.32,91.91c1.23-1.52,2.69-2.82,4.05-4.19.27-.27.69-1.05.89-1.19.16-.11.46-.02.5-.05.02-.01-.17-.24-.13-.33.03-.06.91-.71,1.07-.88,1.74-1.83,3.43-3.76,5.37-5.41l2.13-2.37c-.53.05-3.42-2.21-3.56-2.06-.36.36.42.38.37.47-.92.81-1.59,1.7-2.45,2.59-1.95,2.02-4.37,4.2-6.45,6.34-1.06,1.09-2,2.59-3.29,3.37l.74,4.1.75-.37c.59.95-.52,1.2-.51,1.93l.7,4.63c-.25-1.24,1.06-2.1,1.87-2.92,2.82-2.84,6.19-5.95,8.84-8.93,1.42-1.6,3.2-2.99,4.58-4.66.4-.26,1.55.19.48-.45l1.5-1.5c-.47-.27-2.84-2.18-3.17-1.95l-13.81,14.41-.47-.56ZM53.35,81.31c-.69-.31-1.33-.68-2.01-1.02.09.39-1.89,2.45-2.06,2.53-.4.19-.96,0-1.13.09-.02.01.12.29.07.52-.21.99-2.21,2.49-3,3.29-1.38,1.39-2.82,2.79-4.32,4.31-1.3,1.32-2.58,2.67-3.82,3.96-1.08,1.12-2.07,2.31-3.28,3.3-.41,1.23.41,2.94.47,4.29.24.17,2.13-2.2,2.53-2.43l.28.37v-.75s.56.19.56.19l-.15-.53,10.97-10.77c1.42-1.55,2.83-3.12,4.28-4.63.73-.76,2.05-1.33,1.79-2.61-.34,0-.65.25-1,.19-.12-.02-.13-.28-.17-.3ZM57.62,81.41v.19c.12-.06.12-.12,0-.19ZM58.65,84.41c-.79.16-2.77-1.75-3.26-1.66-.22.04-1.58,1.55-1.9,1.85-1,.95-2.24,2.17-3.29,3.27-.28.3-1.15,1.27-1.4,1.42-.42.24-1.01.14-1.04.18-.14.13.2.88.17.91-.04.05-.82.43-1.04.65-1.28,1.26-2.57,2.92-3.84,4.13-.77.73-.86.61-1.56,1.44-.37.43-1.07.64-1.19.78-.29.35-.2.52-.8,1.16-.71.75-1.38,1.57-2.13,2.27-.12.12-.42.08-.58.28-.24.31.15.74-.85.55l.37.28-1.7,1.54c-.36,1.51.53,2.86.39,4.36l23.64-23.42ZM51.83,99.54c2.38-3.94,4.61-8.06,7.04-12.01.24-.38,1.47-1.79,1.47-1.91s-1.06-.77-1.31-.57l-5.54,5.54c-.66-1.11-.23.08-.36.37-.25.55-2.2,2-2.72,2.55-.22.24-.24.6-.47.84-1.09,1.14-2.35,2.17-3.39,3.36-.12-.15-.13-.68-.47-.37-.06.05.18.32.17.48-.03.53-2.63,2.59-3.19,3.16-.38.38-.79,1.02-.99,1.23-1.89,1.92-4.62,4.2-6.12,6.23-.12.16-.4.22-.47.33-.21.34.56,3.91.66,4.68l3.37-3.48c.61-.57,1.06-.27.63.48-.51.9-2.71,2.62-3.55,3.55-.35.38-.08.93-.83.76-.01.38.58.05.72.48.03.11-.11.41-.07.64.28,1.6.76,3.51,1,4.76.06.31.04,2.32.65,1.36.38-.6.73-1.45,1.16-2.02.17-.23.6-.32.64-.39.03-.04-.16-.35-.02-.66.7-1.48,3.14-5.39,4.04-6.39.08-.09.35,0,.52-.17.45-.44-.19-.48-.2-.53-.1-.6.36-.5.5-.72,2.48-3.84,4.8-7.76,7.13-11.6ZM64.75,87.22v.19c.12-.06.12-.12,0-.19ZM117.11,90.78v.19c.12-.06.12-.12,0-.19ZM128.74,101.84v.19c.12-.06.12-.12,0-.19ZM33.98,106.15v.19c.12-.06.12-.12,0-.19ZM113.54,114.39v.19c.12-.06.12-.12,0-.19ZM93.28,116.83v.19c.12-.06.12-.12,0-.19ZM36.32,119.26h-.94c-.07.31.17.12.26.18.23.15-.11.35-.07.56l.75-.75ZM40.73,141.56v.19c.12-.06.12-.12,0-.19ZM52.18,141.75v.19c.12-.06.12-.12,0-.19ZM40.3,142.45c-.18-.77-.11.06-.49.06l-20.94-.02v3.93s-.56-.28-.56-.28l.57.47c-.3.81.15,1.95.01,2.71-.05.24-.52-.03-.58.19,0,.21.41.02.56.1.03.01-.02.48-.02.66,0,.47-.2.23-.54.27-.06.37.44.1.56.19.07.05-.08,1.57-.56,1.31-.06.37.47.1.56.19s-.16.66-.18.87c-.02.25.16.45.16.55,0,.12-.39.04-.36.17.12.45.46.68.19,1.41h40.81c-.11.97.3.01.55-.02l62.85.02c.11.42.58.64.4,0l27.3.19v-12.93s-21.12.02-21.12.02c-.56-.07.03-.77-.72,0h-23.67c-.25-.03-.66-.99-.55-.02l-64.24-.05ZM99,156.36c.21-.22-.08-.6-.37-.09-.02.16.36.11.37.09ZM99.37,156.36c.13-.26-.12-.5-.18-.37-.13.26.12.5.18.37ZM88.4,156.18v.19c.12-.06.12-.12,0-.19ZM99.47,156.74v.19c.12-.06.12-.12,0-.19Z"/>
        <path d="M118.14,121.51c.24.24-.59,1.04-.74,1.22-1.14,1.3-2.72,2.48-3.88,3.79-.83-.34-.16.09-.42.52-2.53,2.59-5.22,5.06-7.72,7.67-.18.19-.36.39-.37.66l-.56-.75c-.36,1.14-.65,2.39-2.06,2.25-.24-.4,1.05-1.16,1.24-1.38,3.49-3.83,7.14-7.56,10.96-11.08.36-.33.27-.85.73-.48-.14-.78,1.03-1.12,1.14-1.23.17-.17.35-.86.7-1.01.22-.1.86-.32.99-.19Z"/>
        <path d="M87.14,126.53c-.06.15-1.29.75-1.1,1.35-.46-.44-.66.6-1.03.95-2.16,2.02-4.94,5.04-7.1,7.07-.48.45-1.08,1.09-1.8.98,0-.9.97-1.22,1.41-1.69,3-3.23,6.1-6.42,9.39-9.37.09-.03.31.56.25.71Z"/>
        <path d="M71.98,128.26v.56c-.42-.42-.83.7-1.22,1.13-1.3,1.42-2.8,2.65-4.16,4-.35.35-1.67,2.17-1.99,2.32-.31.14-.74.02-1.07.24-.18-.88.76-.87,1.12-1.22,1.62-1.63,3.11-3.66,4.8-5.32.71-.69,1.52-1.66,2.52-1.7Z"/>
        <path d="M102.75,123.95l-.74,1.03c-4.01,3.51-7.55,8.07-11.54,11.52-.65.56-1.38.4-.76-.37.29-.36,1.77-1.94,2.09-2.01.16-.03.39.2.44.14.06-.06-.15-.35-.08-.57.06-.19,1.91-2.19,2.05-2.24l.28.37c.02-1.17,1.67-1.95,2.37-2.69,1.36-1.43,2.6-3.04,4.07-4.36.51-.46,1.07-.98,1.81-.81Z"/>
        <path d="M126.02,120.2c-.06,1.02-1.11,1.36-1.69,1.97-4.48,4.73-9.28,9.83-14.17,14.15-.18.16-.45.88-.84.65v-.76s8.07-8.09,8.07-8.09l.2-.61c.48.36.34-.08.64-.38,1.17-1.18,2.53-2.21,3.68-3.32.63-.61,2.48-3.05,3.06-3.35.33-.17.69-.26,1.06-.26Z"/>
        <path d="M146.85,65.67l-.27.76c-1.66,1.39-2.98,3.15-4.6,4.6-.24.22-.58.21-.71.32-.41.36-.42,1.33-1.74,1.07l5.91-6.18,1.41-.56Z"/>
        <polygon points="130.37 121.73 131.03 122.4 123.21 130.05 122.54 129.37 130.37 121.73"/>
        <path d="M95.06,124.89c.16.14-.51.96-.65,1.13-1.63,1.99-4.01,3.95-5.74,5.69-.67.67-3.3,3.63-3.83,3.86-.43.19-.13-.45-.46-.37.64,1.11-2.54,2.71-1.04.74s4.26-4.23,5.91-5.9c1.18-1.19,3.68-4.21,4.96-4.98.21-.12.72-.3.85-.18Z"/>
        <path d="M48.21,133.57c-.56.56-3.31,3.95-4.01,3.31l.37-.84,4.41-4.21c1.26.49-.32,1.29-.78,1.75Z"/>
        <path d="M79.67,127.13c.19.94-.68.73-.72.78-.08.11-.03.43-.21.63-.56.64-1.49,1.2-1.98,1.96-.6-1.06-.31-.08-.34.07-.15.8-1.28,1.36-1.76,1.87-.93,1-2.78,3.43-3.86,4.12-.34.22-.71.35-1.08.5-.08-.37.08-.5.27-.76,1.33-1.82,3.84-3.87,5.48-5.49.69-.69,1.35-1.37,2.07-2.06.66-.64.96-1.83,2.13-1.62Z"/>
        <path d="M56.28,131.5c-.83,1.26-3.19,3.7-4.4,4.68-.7.57-1.71,1.34-1.11-.17,2.05-1.62,3.49-3.94,5.73-5.32.53.72-.03.52-.22.81Z"/>
        <path d="M42.33,132.57c.02.32.04.63-.1.93-.09.19-2.76,2.94-2.96,3.06-.75.44-1.53.55-.8-.44.64-.87,1.47-1.19,2.13-1.71.03-.02-.14-.28.11-.53.18-.19,1.43-1.52,1.62-1.31Z"/>
        <path d="M122.83,129.94l-.27.76-6,6c-1.15.56-1.01-.12-.41-.88,1-1.26,2.97-2.7,4.18-3.88.77-.74,1.2-1.98,2.5-2Z"/>
        <path d="M109.88,123.2c.27.27-.45.86-.64,1.04-2.45,2.42-4.93,4.94-7.32,7.31-1.39,1.38-3.3,3.61-4.76,4.75-.19.15-.95.79-1.16.57-.48-.52.7-1.18.87-1.38,1.69-1.92,5.02-5.6,6.95-7.06.2-.15.61-.09.76-.23.07-.06.34-.83.62-1.16.53-.65,2.14-1.69,2.23-1.81.02-.03-.16-.25-.12-.31.16-.22,1.47-1.29,1.69-1.4.16-.09.78-.42.89-.32Z"/>
        <path d="M106.13,33.26c-.41.5.23.32.19.47-.94,1.12-2.04,2-3.12,2.97-.74.66-1.21,1.64-2.32,1.81-.22-.26.51-1.08.69-1.29.54-.64,3.31-3.4,3.9-3.78.23-.15.38-.23.67-.18Z"/>
        <path d="M35.76,133.5l-.37-.37c.32.71-.36,1.33-.84,1.88-.26.29-2.02,2.02-2.35,1.68l.2-.83c.48-.32,2.86-3.09,3.08-3.1.19,0,.36.53.28.74Z"/>
        <path d="M64.28,129.57c.18.18-.15.58-.27.76-.97,1.34-4.61,5.08-5.92,6.09-.28.21-.55.5-.94.46-.06-.37.1-.63.29-.93.31-.48,1.99-2.21,2.51-2.74.32-.33,1.5-1.1,1.84-1.44.26-.27,1.87-2.83,2.49-2.19Z"/>
        <path d="M28.15,128.34c-.16.11-1.47.88-1.21.2l2.53-2.53c.94.38-.92,2.06-1.32,2.33Z"/>
        <path d="M31.82,130.69c.51.42-.63,1.27-.94,1.6-.19.2-.43,1.1-.56.09h-.18c.04.45-.03.38-.38.19.45.9-.56,1.2-1.07,1.74-.16.17-.13.48-.29.64-.47.48-1.3.94-1.73,1.55l-.28-.56c.07.79-.15,1.04-.94.94-.13-.84.82-.98,1.29-1.42,1.13-1.06,3.2-3.85,4.46-4.54.14-.08.5-.32.62-.22Z"/>
        <path d="M130.71,121.89c-.48-.5,2.35-2.41,2.53-3.01.15-.17.85-.18.85.1s-2.93,3.36-3.37,2.9Z"/>
        <path d="M122.27,136.88c-.23-.22.48-.97.63-1.06.33-.21.57-.06.65-.12.09-.06-.09-.4.22-.32.39.7-1.17,1.81-1.5,1.5Z"/>
        <path d="M87.99,80.22c2.19,1.46,4.37,2.76,6.06,4.82.54.66,1.08.89,1.56,1.52,1.47,1.94,1.48,4.99.36,7.08-.09.16-.88,1.36-.95,1.41-.04.03-.26-.16-.31-.13-.26.18-.5.81-1.22,1.14-.3.14-.56-.04-.65,0-.04.02-.05.32-.26.39-.65.21-2.06.74-2.31-.06l-.09.38c-1.04.31-1.05-.31-1.13-.37-.11-.07-.28.28-.46.3-.28.03-.77-.35-1.14-.4-1.96-.25-3.38.99-5.12,1.54-1.07.34-2.4.37-3.5.61.07-1.05-.33-.04-.37-.03-.32.07-2.57-.72-2.7-.94-.03-.05.22-.31.17-.35-.87.32-2.2-1.53-2.53-2.25-1.16-2.47-.57-4.21.65-6.47,2.32-4.27,6.42-11.4,12.29-9.28,1.07.39.99.61,1.67,1.07ZM80.98,82.54l-.37-.37c-.05.39-.02.43.37.37ZM83.89,82.35v.19c.12-.06.12-.12,0-.19ZM80.05,82.54c-.39-.05-.43-.02-.37.37l.37-.37ZM88.37,83.95c-.11-.1.02-.37-.26-.29.11.63-.42.12-1.01.19-1.09.13-1.81,1.49-2.46,2.24l-.28-.56c.08.21-.2.7-.17.73.07.08.43-.12.36.2-.54.2-.54-.28-.61-.31-.08-.04-.26.12-.29.09-1.04-1.08-.23-1.15-2.02-1.55-.18-.04-.35-.33-.45-.28-.02,0,.05.25-.15.35-.89.48-1.54.43-1.84,1.69-.55,2.34,2.32,3.86,3.79,5.14.79.69,1.58,1.68,2.41,2.37.25,0,2.08-3.23,2.16-3.75l.37.19c-.31-.75-.04-.43.18-.7,1.15-1.44,2.18-2.52,1.38-4.51-.3-.74-.57-.78-1.11-1.24ZM79.01,93.03v.19c.12-.06.12-.12,0-.19Z"/>
        <path d="M73.06,74.69c-.05-.05-.24-.02-.34-.02-.09-.36.41,0,.37-.37-.72.14-.64-.33-.71-.89-.2-1.81-.24-3.83,1.62-4.85,3.26-1.8,5.73,1.35,6.68,4.16,1.81,5.37-5.04,7.75-7.57,2.77-.21-.42-.03-.76-.06-.79ZM74.79,74.48l.56-.47-.09-.09c-.29.29-.59.04-.47.56ZM75.82,74.11v.19c.12-.06.12-.12,0-.19Z"/>
        <path d="M90.48,73.11c-.05.06-.21.07-.3.06-.11.33.42.08.37.28-.46.73-.96,1.75-1.68,2.26-1.91,1.33-4.71.75-5.67-1.47-.35-.81-.47-2.4-.4-3.29.1-1.41,1.07-3.38,2.22-4.34,1.34-1.12,3.46-.8,4.6.47s1.94,4.71.87,6.03ZM87.74,70.73c-.26-.13-.5.12-.37.18.26.13.5-.12.37-.18Z"/>
        <path d="M71.91,76.8c.68.67,1.9,3.03,1.76,3.93,0,.05-.64.49-.76.79,1.13.56-.44,1.95-1.03,2.53-.3-.83-.22-.06-.37-.03-.46.08-1.93.08-2.36-.05-2.74-.83-4.9-6.62-1.9-8.28,1.55-.86,3.48-.03,4.65,1.13Z"/>
        <path d="M98.74,71.36c1.57,1.55.77,4.7-.41,6.29-.92,1.24-1.28,1.26-2.57,1.71-.16.06-.14.33-.27.36-.46.11-1.58-.16-2-.4-1.21-.67-1.46-2.18-1.44-3.43,0-.38-.13-.55.38-.48l.19.75c.22-.6.11-.97-.56-1.03.44-.84.64-1.74,1.23-2.52,1.18-1.57,3.8-2.89,5.45-1.26ZM93.46,75.79v.19c.12-.06.12-.12,0-.19Z"/>
        <path d="M72.73,104.27l-.55,1.41c-2.83,3.02-5.71,5.98-8.76,8.77-.27.25-.39.97-1,.59-.45-.28.18-.93.37-1.14,2.32-2.54,5.19-5,7.64-7.46.28-.29,1.87-2.63,2.32-2.18Z"/>
        <path d="M108.94,95.28l-11.26,11.72c-1.21-.7-.14.39-.19.45-.02.03-.42.12-.67.37-1.86,1.83-4.48,5.24-6.45,6.67-.2.14-1,.6-1.13.46-.43-.46,1.19-1.47,1.4-1.7,4.03-4.43,8.6-9.06,12.54-13.25.66-.7,1.53-1.23,2.04-2.08l.72.16c.18-.52-.34-.33-.37-.38-.3-.46.34-.31.5-.42.13-.09.17-.37.34-.51.4-.34,2.08-2.04,2.54-1.5Z"/>
        <path d="M63.53,99.78c.06.33-.09.54-.22.81-.42.87-6.31,6.93-7.38,7.81-.21.17-.3.46-.66.37-.08-.55.06-.92.37-1.35,1.6-2.16,4.58-4.13,6.28-6.34l1.6-1.3Z"/>
        <path d="M67.66,102.77c.27.27-.75,1.33-.93,1.6l-7.98,7.97c-.32.33-.67.03-1.04-.02,1.55-1.53,2.97-3.24,4.52-4.77.62-.61,1.34-1.2,2.06-1.88.19-.19.29-.5.42-.61.32-.27.68-.01.69-.05.05-.11-.05-.44.11-.74.21-.4.88-.51.99-.59.03-.02-.17-.35.2-.64.22-.17.79-.44.96-.27Z"/>
        <path d="M91.86,149.99s-.05-.35.12-.38c.11-.02,2.04.07,2.15.1.44.11.32.49.46.48.3-.94,1.1-.26,1.69-.27.25,0,.49-.18.75-.19,1.22-.03,2.2.07,3.18.08,3.07.01,6.13.02,9.2,0l.2.58c.22,0-.05-.53.2-.58,1.24-.23,2.9.14,4.15.17,2.73.07,6.37-.08,8.98.4.35.06.55-.16.47.38l-10.59.57-.29-.75-.11.75c-1.89.13-3.76,0-5.62.02-.65,0-1.48.61-1.49-.4l-.2.57-4.36-.06-.13-.33-.09.38c-.19.1-3.97.03-4.23-.04-.1-.03-.08-.34-.19-.34-.3,0-.92.43-1.34.34-.3-.06-.46-.32-.71-.34-.13,0,.01.38-.37.4-1.54.1-5.78-.02-7.14-.39-.17.61-.25.19-.74.19-.71-.01-2.25.15-2.79,0-.14-.04-.2-.76-.31-.15-.45.36-.91.21-.75-.42-.37-.06-.1.47-.19.56-.13.13-1.35-.31-1.68-.19l.56-.37-.66-.18c-.35.12-.01.55-.19.56-1.14.08-2.41-.38-3.56-.19l.09-.56-.47.57c-.72-.18-1.48-.12-2.2-.24-.17-.03-.56-.08-.51-.32l12.85-.67c1.9.27,4.19-.43,5.91.29Z"/>
        <path d="M62.62,145.82c.22.1,3.71-.14,4.76-.03.1,0,.99-.35,1.02-.3l.19.56c.03-.34-.17-.38.18-.5.68-.24.57.35.66.31.32-.12.8-.48,1.29-.38.18.03.06.44.21.38.09-.03.2-.26.38-.29.5-.08,1.09.21,1.59-.08l.1.57c.16,0,.1-.33.27-.47.21-.16,2.91.05,3.47.05s1.15-.51,1.33.23c.09-.45.46-.36.89-.33,4.37.32,9.41.08,13.94.14,1,.01,3.32-.2,4.09,0,.21.05.04.38.21.38.12-.6,1.19-.6,1.31,0,.17.03.04-.28.13-.33.49-.3,6.51.3,7.47.33-.05.32-.25.27-.47.3-.74.11-1.86.23-2.61.26-.54.02-2.79-.26-2.9-.16-.06.05.01.81-.28-.02-.46.16-1.04.33-1.52.36s-2.36.09-2.78,0c-.17-.03-.04-.52-.59-.38-.08.02,0,.36-.36.4-.73.08-4.05.08-4.72,0-.44-.05-.18-.39-.36-.39s-.03.27-.13.33c-.41.26-2.41-.07-3.03-.07-1,0-2.24.24-3.22.12-.17-.02.33-.54-.19-.38-.18.06.04.35-.36.39-1.25.14-2.76-.15-3.99-.13-2.25.03-4.52-.07-6.74-.05-.11,0-.06.34-.16.34-.38,0-2.18-.11-2.42-.17-.19-.05.05-.11-.76-.23-.26-.04-.55-.32-.59-.32-.18.01.05.75-1.46.51-1.76-.27-4.22.11-6.24.05-1.1-.03-1.9-.14-2.79-.18-1.8-.08-3.58-.19-5.36-.2-.3-.22,0-.34.28-.37.8-.1,1.79-.13,2.62-.19,1.14-.08,3.29-.29,4.34-.21.45.04.12.43.46.39-.08-.64,1.58-.37,2.17-.37.24,0,.47-.17.57-.18.09,0,.07.3.11.31Z"/>
        <path d="M61.09,150.56c.05.27-.31.26-.5.3-3.51.68-9.84.64-13.47.54-.51-.01-1.96.35-2.27-.09l.1-.75c-.41,0-.24.9-.48.95-.55.1-.75.03-.65-.57-.39.12-.06,1.12-.47.18-.54-.15-.46.37-.55.36-.12,0-.33-.16-.57-.17-2.62-.1-5.2-.18-7.8-.56-.29-.23,0-.34.28-.37,1.65-.2,3.62-.25,5.26-.29,6.08-.41,12.21-.35,18.27.18.89.08,1.91-.09,2.84.3Z"/>
        <path d="M35.35,145.56c.06.05.01.29.04.31.11.07.26-.27.46-.29.21-.02,2.64,0,2.73.1.05.06-.04.57,0,.75l.75-.19-.56-.56,5.63.38c.04.28-.51.28-.71.31-.84.12-2.05.18-2.95.25-3.92.29-8.19.47-12.09.25-.21-.01-.44.12-.66.13l.09-.56c-.7.59-2.57.35-3.19-.28l4.39-.47.12.38.66-.38c.29.84.21.06.39,0,.5.19,4.7-.3,4.92-.13Z"/>
        <path d="M126.37,145.73c.06.05.04.23.03.33h.18c.04-.06-.07-.3.09-.35.11-.04,2,.2,2.4.24.22.03.91,0,.89.3-1.63.29-3.29.57-4.95.69-.43.03-3.42.1-3.59.04-.15-.05-.01-.41-.18-.35-.1.03-.2.28-.47.31-1.96.21-4.23-.45-6.2-.5.1-.37.61-.42.93-.48.72-.14,4.81-.41,5.33-.28.22.06.04.83.43,0,.69.05,4.91-.12,5.1.05Z"/>
        <path d="M144.22,146.43c-.07.1-1.75.29-2.09.32-.45.03-3.1.04-3.3-.17-.03-.03-.26-.67-.23-.7.27-.29,4.75-.28,5.31.03.18.1.49.3.32.52Z"/>
        <path d="M134.32,149.84c.13-.09,2.78.25,3.06.34.2.06.59.07.27.38-.11.1-2.68.55-2.92.55-.1,0-.06-.35-.16-.34-.2,0-.53.22-.95.19-.38-.03-2.15-.2-2.15-.49,0-.61,1.17-.35,1.41-.37.47-.03.55-.56,1.12.27.14,0,.21-.45.32-.53Z"/>
        <path d="M115.62,77.77c-.47.46-.84,1.03-1.61,1.01.13-1.2.79-1.36,1.41-2.05.45-.5,2.05-2.46,2.62-2.44.14,0,.34.28.19.56-.27.51-2.1,2.41-2.62,2.92Z"/>
        <path d="M125.27,79.91l-1,1.44c-1.11.5-2.43,2.8-3.21,3.25-1.03.6-1.06-.06-.48-.85.27-.37,3.42-3.54,3.65-3.66.37-.21.63-.22,1.04-.18Z"/>
        <path d="M122.34,76.99c-.39.44-1.66,1.93-2.03,2.19-.12.09-1.01.41-1.04.37-.51-.69,1.07-1.37,1.26-1.56.09-.09.04-.34.12-.42.36-.38,1.59-1.68,1.94-1.73,1.28-.19.03.85-.25,1.16Z"/>
        <path d="M125.64,85.35c.14.14-.05.8-.18,1.04-.14.26-1.88,1.99-2.07,1.77-.11-.91,1-1.99,1.63-2.58.15-.14.38-.47.62-.23Z"/>
        <path d="M118.89,80.1c.27.23-1.25,1.93-1.69,1.5-.35-.36,1.22-1.91,1.69-1.5Z"/>
      </g>
      <path class="cls-1" d="M157.06.08c1.51,0,3.1.03,4.63,0,1.54-.11,3.08-.11,4.63,0,0,.09,0,.15.09.18.76-.13.79.42,1.2.74.13,2.59.15,5.19,0,7.78v1.67c.19,2.14.19,4.24,0,6.3-.13.02-.32.45-.6.6-.61.32-1.69.32-2.4.56-3.95,1.36-3.75,7.68-.03,9.19,1.08.44,2.59.11,3,1.45l.04,11.63c.11,1.19-1.54,1.65-2.17.77-.75-1.04.05-9.12-.27-10.93-.14-.41-1.71-.76-2.26-1.08-4.19-2.47-4.78-9.11-.85-12.09.98-.74,2.07-.98,3.14-1.53-.23-3.81.27-7.89,0-11.66-.03-.36-.1-.38-.2-.63-.36-.02-.5-.13-.17-.19l-13.72-.18c-.89,2.95-2.49,5.34-5.6,6.16-2.86.76-5.04.52-7.28-1.53-1.53-1.4-1.81-2.77-2.5-4.64-2.2.12-4.56.14-6.85,0-.44-.42-2.45-.04-2.78.28-.17.16-1.01,2.36-1.44,3-3.18,4.76-10.22,4.27-12.79-.82-.27-.54-.78-2.53-1.08-2.63l-9.05-.03c-.68.12-.83,1.78-1.11,2.41-1.55,3.53-6.46,5.39-9.92,3.62-1.13-.58-2.95-2.17-3.55-3.31-.33-.64-.53-1.9-.9-2.26-.17-.16-2-.72-2.21-.35-.55.23-1.65.21-2.22,0-.2-.23-.72-.12-1.03-.11-1.52.04-3.04-.1-4.53.28-.71,2.67-1.97,5.11-4.77,5.97-4.1,1.27-7.82-.6-9.56-4.41-.49-1.07.11-1.71-1.49-1.85-1.97-.16-6.05-.19-7.95.03-1.33.16-1.19,1.42-1.74,2.51-.74,1.45-1.82,2.67-3.3,3.37-4.84,2.28-9.86-.49-10.64-5.7-.69.13-1.46-.17-2.02-.2-1.29.12-2.6.15-3.89,0-1.29,0-2.61-.08-3.89.09-.5.25-.3.94-.46,1.4-2.29,6.52-10.76,7-13.96.98-.28-.53-.62-1.95-.77-2.1-1.29-.11-2.61-.17-3.98-.2l-.28-.17c-.25,0-1.29-.06-1.3.19-1.12.04-2.27.01-3.44-.08l-.26.27-.08,12.6c.23.42,1.49.6,2.06.88,4.51,2.26,5.1,8.93,1.15,11.96-.87.67-1.8.96-2.76,1.41.01.36-.06.45-.22.27-.06,3.04-.11,6.15-.15,9.36,0,.02-.19.16-.18.43,0,.21.21,1.55.26,1.62.09.13,2.11.75,2.79,1.29,3.24,2.58,4.1,7.53,1.3,10.74-1.25,1.44-2.53,1.79-4.17,2.59l.08,10.96c.22.21.51.38.84.52,5.6,2.19,6.77,10.01,1.65,13.23-.48.3-2.46.96-2.54,1.07-.3.41-.03,1.08-.04,1.26l.06,9.93c.17.44.64.71,1.42.81.02.15,1.96,1.3,2.39,1.78,3.65,4.03,1.63,10.86-3.5,12.3-.12.3-.16.39-.19.13-.11,3.8-.11,7.59,0,11.35.14.17,2.11.95,2.65,1.33,4.04,2.77,3.91,10.19-.56,12.53-.73.38-1.48.36-1.97.63-.76.42-.25,1.22-.3,1.91-.07,1.04-.02,1.58-.01,2.5.11,2.24.14,4.49.09,6.73.3.36.77.59,1.4.68.02.13,1.76,1.12,2.13,1.48,3.15,3.1,2.95,9.47-1.08,11.7-.8.44-1.74.54-2.35.89-.25,3.83-.21,7.96,0,11.85,1.35.08,2.71.14,4.07.19.06,0,.12,0,.19,0,1.95.02,3.86-.08,5.74-.28l.19-.64c1.41-3.82,4.72-6.32,8.9-5.29,1.9.47,4.11,2.22,4.84,4.05.24.6.16,1.56.7,1.98,3.17.22,6.46.14,9.67,0-.28,0-.23-.07.15-.19.53-.91.75-1.92,1.33-2.84,1.11-1.73,2.9-2.99,4.97-3.28.66-.18,1.56-.18,2.22,0,3.91.51,4.98,3.32,6.48,6.3.35.01.5.12.19.19,2.54-.08,5.14-.08,7.78,0,2.36-.07,1.35-.14,2.13-1.85,2.6-5.7,10.46-6.18,13.46-.68.28.52.84,2.16,1.08,2.35,3.2.19,6.42.21,9.67.05.04-.41.15-.73.33-.97,2.1-5.88,9.5-7.33,13.23-2.21.38.52,1.24,2.95,1.4,2.95.27.29.68.4,1.23.33l6.55.04s.15.18.43.18c.18,0,1.55-.21,1.62-.26.17-.12.31-1.06.45-1.4.59-1.39,1.21-2.77,2.51-3.6,3.45-2.22,8.21-1.72,10.62,1.77.51.75.99,2.8,1.41,3.13,3.14.12,6.3.13,9.49,0-.28,0-.23-.06.15-.19.62-1.23.86-2.57,1.85-3.62,2.87-3.06,7.87-3.26,10.92-.34,1.37,1.31,1.46,2.79,2.24,4.33l14.11-.09c0-1.52.04-3.03.16-4.54.04-6.3.1-12.7,0-18.98,0-.62.11-2.12-.04-2.57-.13-.39-1.85-.76-2.43-1.08-4.73-2.62-4.25-10.23.18-12.9.42-.25,2.04-.81,2.1-.9.72-1.16-.18-9.17.19-11.05-2.3-.8-4.1-1.62-5.15-3.96-2.05-4.56.14-9.58,5.06-10.78.18-.28.07-.94.08-1.3-.13-1.48-.15-2.97,0-4.45,0-.37,0-.74,0-1.11-.06-1.4-.09-2.8-.12-4.2-.47-.39-1.05-.66-1.73-.8-.34-.21-1.37-.9-1.68-1.19-3.73-3.59-2.75-10.25,1.86-12.6.6-.31,1.55-.2,1.67-1.02-.12-1.42-.12-2.84,0-4.26.01-.88-.16-4.42.17-4.88.35-.48,2.04-.4,2.16.43l.04,10.43c-.28,1.57-1.49,1.05-2.56,1.33-3.62.97-4.2,6.87-1.56,9.17,1.18,1.03,1.76.88,3.1,1.16s1.02,1.25,1.06,2.36c.18,1.48.15,2.97,0,4.45,0,.55,0,1.11,0,1.67.17,1.94.14,4.02,0,5.93-.32.23-.49.65-.94.82-.59.22-1.42.22-2.13.47-3.94,1.4-3.85,7.92-.15,9.79,1.02.51,1.54.22,2.34.44.4.11.55.64.87.89.15,3.89.15,7.78,0,11.67-.03.91.29,2.59-.87,2.93-1.37.39-1.75-.18-3.21,1.05-3.38,2.86-2.23,8.26,2.18,9.31.4.09.86-.03,1.22.08.33.1.4.49.68.71.16,9.15.18,18.91,0,28.15-.08.45-.05.97-.36,1.35-.22.27-.64.19-.75.5-5.49.16-11.49.16-17.04,0-.12-.32-.49-.23-.69-.42-.54-.5-.36-1.84-.5-2.56-1.02-5.17-8.73-4.87-9.87.15-.19.83.12,2.44-.97,2.75-4.29.05-8.65.23-12.93-.06-1.11-.8-.63-2.3-1.14-3.49-1.53-3.56-6.41-4.02-8.72-.91-.9,1.21-.77,3.86-1.61,4.36-.59.35-3.41.16-4.32.17-1.78.16-3.59.2-5.37,0-1.61-.03-3.69.58-4.18-1.29-.36-1.39-.43-2.68-1.48-3.89-2.44-2.8-7.41-1.62-8.46,1.89-.31,1.05-.04,2.87-1.43,3.19l-12.47.05c-1.3-.29-.99-2.38-1.47-3.53-1.74-4.16-7.54-3.98-9.23-.05-.55,1.28.08,3.31-1.66,3.62-1.03.24-2.25.13-3.33,0-1.96.08-3.62.07-5.56,0-1.04.14-2.12.17-3.15,0-.03-.26-.73-.28-.97-.79s-.22-1.39-.42-1.99c-1.24-3.77-6-5.34-8.71-2.04-1.25,1.52-.98,4.13-1.94,4.82-1.91.2-3.83.14-5.74,0-1.41,0-6.82.27-7.74-.14s-.51-1.87-.64-2.69c-.64-3.83-6.05-5.36-8.57-2.18-1.26,1.58-.71,2.82-1.34,4.21-.28.62-.83.5-.97.79-2.08.15-4.36.16-6.48,0h-.56c-1.84.16-3.76.15-5.56,0-.28-.36-.87-.64-1.11-1.11-.27-4.01-.2-8.07,0-12.04,0-.56-.04-1.31,0-1.94.12-1.81,1.69-1.28,3.06-1.75,4.35-1.48,3.48-8.6-.88-9.7-1.11-.28-2.01.23-2.19-1.33-.14-1.2.02-2.64,0-3.8-.16-1.29-.16-2.6,0-3.89.01-1.23-.22-5.72.29-6.47.26-.39,1.74-.45,2.43-.72,3.46-1.34,4.05-6.07,1.55-8.65-1.4-1.44-2.21-.8-3.48-1.34-.61-.26-.5-.83-.79-.97-.13-1.84-.15-3.71,0-5.56,0-.25,0-.49,0-.74-.17-2.52-.11-5.07,0-7.59.28-.22.34-.52.69-.7.54-.29,1.35-.2,2.01-.4,3.38-1.02,4.36-5.96,1.83-8.33-1.08-1-4.23-1.63-4.52-2.24-.14-1.1-.2-2.25,0-3.33.02-.57,0-1.19,0-1.67v-9.45c.58-1.01,1.45-.72,2.23-1.01,4.94-1.84,4.6-8.49-.36-10.02-.47-.14-1,.04-1.42-.25-.63-.44-.42-1.74-.45-2.42-.2-2.32-.17-4.71,0-7.04,0-.56,0-1.12,0-1.67-.16-1.17-.13-2.35,0-3.52.17-.02.32-.48.56-.64.44-.29,1.8-.47,2.53-.81,3.99-1.86,3.6-8.17-.49-9.21-.85-.21-2.01.18-2.46-.87-.35-.82-.13-4.17-.14-5.32C0,34.6.04,31.5.18,28.42c.25-.2.31-.47.56-.64.54-.36,1.27-.21,1.85-.37,3.99-1.13,4.41-7.38,1.05-9.21-.87-.48-3.2-.45-3.43-1.2L.05,6.5c0-.13.13-.25.13-.3C.03,4.84.07,3.48.18,2.12c.15-.92,0-1.6,1.21-1.84l12.32.07c.73.2.6,2.66.9,3.54,1.43,4.21,8.4,4.39,9.7-.32.25-.91.05-2.9,1.04-3.22l12.5-.07c1.51.24,1.02,2.09,1.3,3.14.6,2.22,3.4,3.65,5.57,3.52s3.79-1.96,4.44-3.9c.32-.95.06-2.24,1.2-2.69h12.79c.8,1.06.59,2.47,1.21,3.8,1.96,4.23,8.03,3.65,9.44-.56.33-1,.13-2.92,1.2-3.24h12.97c.87.88.42,2.15.83,3.25,1.73,4.66,8.83,4.52,10.01-.74.22-.96-.18-2.04,1.01-2.51,3.97.1,8.42-.41,12.33-.09,1.79.15,1.07,1.73,1.47,3.16,1.26,4.51,8.28,4.8,9.82.18.46-1.39-.01-3.18,1.85-3.34,3.73-.32,7.9.25,11.68,0,1.59.13,1.34,2.07,1.7,3.3,1.41,4.69,8.09,4.3,9.59-.15.35-1.03.06-2.32.93-2.96.18-.13.83-.26.84-.36,2.37-.1,4.72-.1,7.04,0Z"/>
    </g>
  </g>
</svg>