<?xml version="1.0" encoding="UTF-8"?>
<svg id="Layer_2" data-name="Layer 2" xmlns="http://www.w3.org/2000/svg" viewBox="0 0 178.31 175.03">
  <g id="Layer_1-2" data-name="Layer 1">
    <g>
      <g>
        <path d="M62.29,139.97c-.15-.64.67-1.03,1.16-1.25,2.66-1.23,11.18-.14,14.36.32,13.95,2.05,28.12,6.03,42,8.8.72.14,2.98.02,2.75,1.11-.07.31-.34.19-.54.17-3.29-.28-7.74-1.38-11.09-2.06-12.28-2.48-25.76-6.6-38.11-7.67-3.52-.3-7.08-.28-10.52.58Z"/>
        <path d="M113.26,144.06l.03.94c-.22,0-.44.02-.66-.01-1.5-.23-4.37-1.41-6.06-1.86-1.47-.39-3.37-.58-4.74-1.02-.17-.06-.16-.24-.14-.38l-.28.38c-1-.41-2.1-.68-3.15-.91-9.79-2.1-25.9-6.99-35.43-4.44-.74.2-2.62,1.33-2.29-.13.03-.11.84-.44,1.04-.54,4.89-2.36,14.03-.7,19.48.29,8.72,1.57,18.56,3.8,27.12,6.1,1.71.46,3.38,1.06,5.07,1.6Z"/>
        <g>
          <path d="M122.55,138.43c-.4.03-.78,0-1.17-.08-3.72-.82-8.63-3.12-12.5-4.3-4.59-1.41-9.27-2.58-13.93-3.75l-.02-.75c5.26.8,10.43,2.31,15.49,3.9,3.31,1.04,8.35,2.47,11.36,3.92.48.23.86.44.77,1.06Z"/>
          <path d="M125.63,135.33c-8.93-2.81-17.9-5.72-27.14-7.51-1.33-.89.75-.86,1.51-.74,3.47.52,8.35,1.9,11.82,2.86s10.57,2.84,13.63,4.33c.21.1.43.18.58.39l-.4.67Z"/>
          <path d="M19.46,115.78c-.11-.1-.31-.5-.05-.64.28-.16.75-.11,1.08-.1,3.02.12,6.92.8,10.01,1.19s6.81.76,9.83,1.38c.65.13,3.4,1.02,1.47,1.27-1.32.16-4.21-.7-5.69-.9-3.47-.48-6.95-.9-10.42-1.35-.96-.13-5.75-.42-6.22-.84Z"/>
          <path d="M89.72,128.39c.04.73-.77.6-1.25.57-3.37-.2-7.57-1.34-11.02-1.74-1.86-.22-3.91-.23-5.79-.31-.46-.02-1.32.45-1.45-.37.28-.35.63-.44,1.06-.49,4.25-.49,13.35.81,17.56,1.95.34.09.56.32.89.37Z"/>
          <path d="M88.9,124.39c.51.13.43.05,1.1.12s3.91.4,3.78,1.07c-.27.38-.67.31-1.06.31-3.15-.04-8.03-1.19-11.4-1.55-2.21-.24-4.8-.16-6.94-.59-.77-.15-.62-.69.18-.77,3.11-.35,11.25.64,14.35,1.43Z"/>
          <path d="M61.71,124.71l-1.16.12c-4.21-1.82-8.53-3.35-12.94-4.66-.5-.15-2.45-.31-2.32-.96.18-.27.38-.28.67-.31,2.01-.21,11.26,3.28,13.47,4.32.79.37,1.69.82,2.28,1.49Z"/>
          <path d="M41.84,122.57l-.02-.75c.34-.36,6.22,1.04,7.11,1.3,2.04.59,4.77,1.64,6.65,2.62.44.23,2.06.99,1.89,1.58-.26.89-2.6-.8-3.05-1-3.96-1.78-8.32-2.9-12.57-3.75Z"/>
          <path d="M111.55,32.78c.38.35-2.89,3.73-3.29,4.15-1.84,1.97-3.85,3.82-5.72,5.76-1.35,1.4-2.79,3.33-4.22,4.57-.2.17-1.04.91-1.26.77.14-.3-.01-.57.18-.87.24-.38,1.51-1.66,1.94-2.13,1.6-1.73,3.4-3.31,5.04-5.01,1.83-1.89,4.61-5.54,6.55-6.97.26-.19.39-.36.78-.28Z"/>
          <path d="M155.78,61.94c.12.09-1.63,2.25-1.81,2.44-2.94,3.31-6.63,6.62-9.79,9.82-.76.77-1.69,2.06-2.51,2.7-.19.14-.54.4-.77.2v-.58c3.97-4.07,7.99-8.1,11.98-12.16.48-.49,2.19-2.94,2.89-2.42Z"/>
          <path d="M108.17,42.16c-.94.99-1.94,1.96-2.9,2.98-2.31,2.45-4.73,4.8-6.95,7.34h-.58c-.12-.2.34-.87.48-1.07.68-.91,2.22-2.36,3.09-3.29,2.08-2.23,4.31-4.73,6.48-6.85.22-.22,1.72-1.59,1.83-1.65.3-.15.58.07.58.2,0,.15-1.75,2.05-2.02,2.33Z"/>
          <rect x="100.51" y="48.67" width="10.99" height=".87" transform="translate(-2.68 91.97) rotate(-46.38)"/>
          <path d="M143.61,69.47c.08.39-.09.52-.28.78-.48.66-3.09,3.18-3.77,3.57-.25.15-.38.39-.78.28-.08-.39.09-.52.28-.78.44-.6,2.77-2.92,3.39-3.38.36-.27.65-.56,1.16-.48Z"/>
          <path d="M108.91,50.61c.24-.23.6-.35.8-.64.36.27.32.34.14.72-.17.35-2.41,2.74-2.65,2.75-.33-.25-.37-.39-.19-.77.06-.13,1.68-1.85,1.9-2.06Z"/>
          <path d="M171.81,35.19l.39.2c.52-.6,1.33-.88,1.92-1.37,1.2-1.01,2.84-4.06,4.2-1.34.01,1.17-4.99,5.24-6.47,5.34-.18.28.06,3.23-.02,3.94-.18,1.49-1.23,1.03-2.32,1.54-1.18.55-1.86,1.65-2.45,2.79-.36.68-.45,1.27-.44,2.14,2.67-.64,5.39-2.09,7.71-3.58.84-.54.89-1.31,2.33-.65l-.16.35.55.33c.16.47-1.84,2.33-2.33,2.68-2.34,1.7-5.28,2.39-7.9,3.49.67,1.18,1.25,2.26,2.5,2.91.84.44,1.89.44,2.52,1.15v4.15c1.65-.38,3.35-2.99,4.46-3.57.54-.28,1.52.43,1.53.95.03,1.48-4.42,4.94-5.96,5.15l-.06,6.99c-1.21,1.21-2.78.75-4.01,2.17-2.26,2.59-2.1,8.27,1.11,10.08,1.87,1.06,2.96.11,3.06,3.08l-.16,10.16c-.51,1.07-1.74.9-2.61,1.25-3.78,1.57-4.27,8.41-.89,10.63.81.53,3.4.94,3.54,1.67l-.05,12.32c-.41,1.11-1.68.9-2.78,1.47-3.9,2.02-4.12,8.78-.08,10.76.93.46,2.12.44,2.91,1.19l-.04,13.83c-.52,1.09-1.53.76-2.42,1.06-4.27,1.42-4.73,9.82.57,11.49.69.22,1.67-.15,1.85.86-.15,4.06.42,8.5.12,12.51-.04.49.02,1.14-.38,1.44-1.01.74-11.51-.14-13.49.22-.63-1.45-.27-2.78-1.39-4.05-2.68-3.02-8.6-2.88-10.35,1.01-.51,1.13-.01,2.38-1.11,2.94l-9.97-.09c-.65-.59-.37-1.4-.55-2.15-.35-1.42-1.46-2.59-2.75-3.24-.65-.32-1.41-.25-1.69-.78-2.98.34-5.44,1.11-6.44,4.17-.11.35,0,.76-.15,1.2-.52,1.54-2,.83-3.13.83-2.59,0-5.22.22-7.83.1-1.22-.61-.81-1.84-1.26-2.99-1.52-3.9-7.75-4.21-9.74-.58-.7,1.29-.19,3.43-1.98,3.62l-9.58-.09c-1.08-.35-.78-2.13-1.11-2.94-1.78-4.39-9.11-4.15-10.38.7-.2.78.12,1.67-.67,2.23h-11.21c-1.1-.33-.88-1.91-1.19-2.85-1.04-3.08-5.22-3.97-7.92-2.6-.29.15-1.86,1.34-2.02,1.55-.74.93-.43,2.85-1.29,3.83l-10.5.05-.62-1.33.38-.28c-.58.04-.47-1-.68-1.54-1.46-3.77-7.8-3.79-9.7-.25-.5.93-.41,1.99-.67,2.81-.34,1.12-2.79.59-3.7.72l-.22-.39c-.18-.03-.04.28-.13.34-.26.16-5.58.1-6-.14-.61-.57-.3-1.63-.49-2.26-1.25-4.12-6.84-5.01-9.7-2.09-.18.18-1.24,1.59-1.29,1.69-.17.35.17,1.9-.43,2.58-.34.39-2.54.33-3.01-.11l-.22.39H.98c-.57-.1-.86-.75-.89-1.27-.27-4.41.17-8.98.14-13.38.49-1.35,1.19-.85,2.29-1.19,2.03-.63,2.73-2.98,3.09-4.83.09-.47-.4-.7.28-.87-.69-1.98-.73-3.69-2.76-4.96-.63-.39-2.42-.8-2.6-.97-.65-.63-.22-2.31-.23-3.13-.04-3.13-.22-6.57-.09-9.67.09-2.09,1.35-1.51,2.73-2.18,3.57-1.74,3.7-8.16.32-10.24-1.99-1.22-2.94.25-3.05-3.03-.13-3.9.27-7.87.09-11.78.19-1.02,1.76-.88,2.49-1.18,3.76-1.55,4.28-8.67.45-10.65-1.12-.58-2.78-.36-2.95-1.88l.05-12.14c1.22-1.58,2.87-.8,4.2-2.6,1.83-2.49,1.87-6.68-.45-8.86-1.19-1.12-2.72-.84-3.65-2.05l-.09-13.52c.28-1.26,2.54-.81,3.7-1.9,2.58-2.43,2.58-8.23-.69-10.1-1.32-.76-3.17-.49-3.18-2.39.37-3.49-.1-7.08,0-10.58.08-2.62.61-1.84,2.43-2.51,4.2-1.55,4.45-8.49.83-10.88-1.18-.78-2.52-.36-3.27-1.66L.28,1.18C.51-.22,1.5.33,2.31.3c1.84-.05,3.96-.24,5.79-.14,3.53.19,1.97.95,2.97,3.38,1.08,2.62,4.78,3.3,7.22,2.51.9-.29,2.86-1.64,3.33-2.46.66-1.16.1-2.53,1.51-3.33,1.81-.11,3.63.07,5.45.07.85,0,3.31-.56,3.73.33.21.44,0,.89.1,1.25.55,2.09,1.98,3.84,4.14,4.36,2.68.65,6.13-.7,7.15-3.4.35-.92-.24-2.09.89-2.6l8.37-.07,1.52.31c.46,1.36.34,2.36,1.25,3.58,2.59,3.45,8.19,2.98,9.75-1.06.37-.96.04-2.27,1.15-2.72l10.83-.09c.91.32.81,2.34,1.18,3.17,1.86,4.22,8.71,4.16,10.22-.56.33-1.03.08-2.44,1.56-2.7,2.3.27,4.64-.09,6.94-.01.73.02,2.35.06,2.94.35.84.4.55,1.43.71,2.18,1.05,4.73,8.54,4.84,10.19.7.71-1.8-.07-3.04,2.37-3.23,1.62-.13,4.1-.04,5.8,0,.25,0,1.67.01,1.75.04.09.03.2.82.3,0,.6.35,1.77-.26,2.26.01.06.03.7,1.01.73,1.11.16.5-.07.85,0,1.19.19,1.04.57,1.94,1.43,2.59,2.92,2.18,7.85,1.81,9.24-1.98.37-1.02-.25-2.25,1.09-2.77.9-.35,1.61,0,2.49-.19l.22.39c.96-.39,4.25-.46,5.44-.32,2.05.25,1.35.95,1.74,2.41.7,2.63,3.38,3.86,5.95,3.8,1.65-.03,3.26-.83,4.35-2.12,1.21-1.41.67-2.65,1.55-4.06,2.34-.16,4.7,0,7.05,0,.28,0,.55-.23.79-.23,1.7,0,3.47.26,5.19.14l.88.88-.05,14.23c-.26,1.45-1.28.92-2.35,1.32-3.93,1.48-4.24,8.3-.76,10.57.61.4,3.15,1.02,3.15,1.67v6.37ZM169.68,67.35v-4.64c-3.37,1-6.86.41-10.25.28l-.19,21.45c-.14,25.22.36,50.63,0,75.92,0,.7.38,1.17-.24,1.77l-39.99.26-.32-.39c.13.62-1.92.37-2.23,0l-.21.38c-11-.21-21.8-.02-32.82-.15-.26,0-.5.15-.76.17l-.21-.41c-.18-.03-.04.28-.13.34-.31.19-2.59-.16-3.16-.16-6.04-.02-12.09.29-18.15.22-.59,0-1.99.08-2.12-.4-2.66.64-5.82.26-8.65.27-11.11.02-22.23-.13-33.28-.05-.94,0-3.78.57-4.24-.41l-.04-35.32.35-.12-.35-.18c.07-21.89-.05-43.65-.05-65.5,0-10.09-.07-20.22,0-30.32,0-.44.19-.85.19-1.17,0-1.2-.32-3.12-.2-4.24.05-.45.41-.19.41-.38.03-.18-.28-.04-.34-.13-.22-.35.15-4.61.16-5.47,0-.79-.34-5.11.03-5.46.3-.22.66-.22,1.01-.25,5.89-.48,12.92.1,18.94.09,41.86-.06,83.72-.07,125.45-.2.26.09.7.07.87.3.35.46,0,4.24,0,5.12.01,1.72.16,3.49.17,5.21.02,4.71-.4,10.06-.09,14.69.01.21.08,1.03.32,1.05,3.45-.61,6.99-1.39,10.13-3.02l.09-6.26c-1.39-.69-2.96-1.35-3.95-2.6-2.63-3.33-2.35-9.59,1.08-12.23.47-.36,2.23-1.36,2.77-.99V2.06c-.52.32-1.03.27-1.6.31-2.77.18-5.6-.2-8.39.01l-.25.19c-1.01,4.8-6.11,6.98-10.57,5.53-2.27-.74-5.03-3.11-4.87-5.66-2.12-.37-4.34.48-6.37-.2-.44,2.39-1.84,4.29-3.99,5.38-.77.39-2.07,1.02-2.88.63-.23.59-2.15.23-2.79.08-2.26-.53-4.93-2.24-5.66-4.59-.13-.41,0-.86-.17-1.26l-.64-.12h-7.64c-.53,1.28-.82,2.37-1.73,3.47-2.56,3.08-7.04,3.6-10.41,1.52-.83-.51-2.46-2.51-2.78-3.42-.13-.36,0-1.42-.26-1.5h-7.61c-.45,5.64-7.65,7.96-11.96,4.73-1.63-1.22-2.55-2.77-3.04-4.73l-8-.1c-1.33,5.61-7.97,8.21-12.63,4.55-.45-.36-1.92-1.85-2.13-2.33-.15-.34-.43-.82-.45-.88-.12-.34.02-.86-.03-1.23l-6.93.02c-1.74,8.09-13.91,8.33-15.58-.03-1.27-.13-2.59.18-3.82.18-.67,0-1.46-.52-2.26-.08-.26.19-.15.76-.28,1.07-.75,1.86-3.43,4.11-5.36,4.7-.41.13-.82-.05-.89-.02-.04.02.04.31-.31.35-4.41.54-8.15-2.02-9.01-6.39l-6.04.22-.32,10.78c5.84,1.29,8.04,9.03,4.44,13.62-.66.84-2.84,2.43-3.85,2.69-.21.05-.53-.13-.6-.08l.36,6.09-.37.19.36.19-.16,3.77c3.95.66,5.68,4.6,6,8.23-.6.52-.13.58-.22,1.31-.26,2.06-2.09,5.14-3.97,6.09-.71.36-1.6-.05-1.72.89l-.08,10.22.54.34-.16.35c.78-.3,1.17.04,1.8.42,5.62,3.43,4.65,13.53-1.88,15.24l-.25.27-.07,4.84c.42.9-.29,4.42.25,4.88.15.13.89.2,1.24.4,5.39,2.93,5.86,11.53.71,14.68-.67.41-2.01.64-2.18,1.29l.02,10.01c1.02.6,2.01.81,2.96,1.67,3.69,3.34,3.59,10.47-.61,13.29-.78.52-1.55.85-2.35,1.31-.22,2.07.04,4.1.07,6.16,0,.6.06,1.22.06,1.72s-.48,1.95.03,2.33c.26.19,1.49.43,2.08.8,1.04.65,2.69,3.14,3.04,4.31,1.32,4.37-.76,9.5-5.33,10.74v11.28s6.46-.03,6.46-.03c.38-.13.62-1.56.86-2.04,1.97-3.96,6.39-5.05,10.38-3.55,2.08.78,3.95,3.44,4.26,5.62h6.45c1.1-8.15,13.7-8.3,14.68-.01h7.53c.1-3.02,3.07-5.63,5.98-6.09,3.45-.55,7.19.85,8.59,4.18.16.38.34,1.76.64,1.92h8.25c.62-2.45,2.17-4.83,4.65-5.63,4.11-1.31,8.12-.14,9.98,3.94.25.55.18,1.47.79,1.73l7.01.09c.34-.06.38-1.16.53-1.53,1.69-4.07,6.39-5.94,10.48-4.22,1.9.8,4.16,3.42,3.95,5.61l8.03-.19c1.45-7.52,12.48-8.02,15.06-.98.13.36.02.93.18,1.17.26.4.94.01,1.37,0,1.01-.02,5.03.2,5.5-.3.21-.23.55-1.45.81-1.9,3.23-5.64,12.37-5.46,14.75.83.14.37.02.8.18,1.17l.35.24,9.8.14v-10.69c-6.03-1.64-7.58-9.17-3.95-13.83,1.1-1.42,2.6-1.85,4.08-2.61l.07-10.92c-7.01-1-7.97-11.31-2.69-14.96.45-.31,2.5-1.16,2.57-1.32l-.06-9.49c-8.02-1.99-7.75-14-.1-16.33l.08-9.28c-7.62-1.31-7.4-14.75,0-16.23ZM40.47,15.2l-.19.38-3.38-.19c-7.6,6.93-14.55,14.72-22.03,21.83l.1,4.05,25.45-25.34.04-.73ZM157.13,80.77v-3.67c0-.05.27-.26.19-.48l-.39.09-10.03,10.44c-.17.15-1.24.96-1.36.38l9.97-10.21c.09-.46,1.61-1.83,1.61-1.96v-3.96c-.46-.12-.33.12-.44.25-2.55,2.89-5.44,6.06-8.12,8.76-.47.48-3.34,3.32-3.6,3.45-.34.18-.37.03-.58-.2l.78-1.16,11.97-12.17v-4.15c-2.74,2.73-5.26,5.69-7.99,8.43-1.46,1.47-4.01,4.25-5.52,5.39-.45.34-1.06.47-.82-.23l14.15-14.5.18-11.06-3.95,5.42c-15.7,15.83-42.73.96-37.28-21.06,2.24-9.05,10.48-15.97,19.7-16.61,7.76-.54,15.03,2.68,19.68,8.9.7.94,1.38,1.97,1.75,3.07l.1-18.54c-2.32-.17-4.63.07-6.94.09s-4.71.07-7.06.09c-2.96.03-5.94-.2-8.89-.1l-3.47,3.19c-.36-.27-.31-.35-.15-.72s2.45-2.26,2.18-2.56c-1.11.47-3.19-.37-4.19.44-2.26,2.24-4.29,4.83-6.61,7-.4.38-1.77,1.76-1.66.47l7.44-7.63c-1.14-.02-2.87-.56-3.92-.05-6.94,7.16-13.99,14.14-20.93,21.27-2.75,2.82-5.37,5.79-8.12,8.59l-.64-.27,28.39-29.64h-3.77l-23.93,24.64-1.37.86.09-.69c4.47-4.36,8.62-9.04,12.96-13.51,3.69-3.8,7.56-7.44,11.2-11.29-.92.11-3.57-.38-4.23.11-5.71,6.29-11.84,12.18-17.72,18.31-.58.61-3.54,4.19-4.03,4.18-.62-.02.27-1.21.38-1.35,3.16-3.97,8.25-8.71,11.88-12.46,2.87-2.96,5.85-5.81,8.7-8.78h-4.15s-18.54,18.93-18.54,18.93c-.48.1-.32-.48-.24-.73l17.52-18.2c-1.05.09-3.41-.37-4.16.19-3.83,4.15-7.73,8.23-11.68,12.27-.56.58-3.54,3.69-3.96,3.76-.29.05-.35,0-.3-.3.04-.22,1.35-1.7,1.64-2.03,3.73-4.13,7.97-8.05,11.78-12.17.18-.19,1.79-1.55,1.65-1.73l-1.91-.03-.11-.36-.11.37c-.53-.24-.99-.24-1.51,0l-.21-.37c-.02.27-.19.51-.38.69-3.7,3.69-7.14,7.65-10.82,11.39-.64.65-1.71,1.9-2.61,2.03-.36.05-.4-.13-.2-.39l12.85-13.52-4.12.21c-3.42,3.7-7.01,7.27-10.49,10.87-.41.42-1.78,2.36-2.28,2.25l-.2-.58,11.82-12.45-.32-.49c.02.13.03.35-.13.39-1.05.27-2.89-.65-3.92.49l-11.12,11.48-.2-.78,10.72-11.1-3.81-.15-10.08,10.39c-.66.67-4.5,4.66-4.93,4.73-.45.08-.34-.31-.2-.58l14-14.39-3.87-.18-12.93,13.32c-2.36,1.33-1.01-.28-.21-1.17,3.8-4.17,8.22-8.03,11.98-12.26-1.21.56-3.34-.27-4.35.38l-10.97,11.33-1.96,1.61-.2-.58,12.27-12.55h-4.06l-12.28,12.55c-.26.06-.79-.49-.64-.75l11.77-11.8h-3.96l-11.69,11.89-.76-.11.2-.63c3.49-3.6,7.11-7.09,10.62-10.67.16-.16.35-.28.58-.29-.1-.29-1.07-.32-1.34-.32-.87,0-2,.18-2.92.22l-11.86,11.89c-.15.17-1.03.42-.88-.1l11.78-11.79-3.97-.12c-3.6,3.19-6.78,6.83-10.2,10.19-.48.47-3.81,3.79-4.08,3.74-.14-.03-.44-.41-.2-.58l13.23-13.23c-1.33-.21-2.66-.3-4-.15l-16.76,16.86c-.27.42-1.44.92-1.07.08l16.62-16.8c.06-.48-.13-.23-.39-.2-.54.06-1.06.43-1.25-.28l-.22.39h-.72s-.22-.39-.22-.39c-.16.7-.88.24-1.45.49-.82.36-5.89,6.1-7.05,7.25-3.84,3.81-7.73,7.66-11.57,11.52-2.68,2.69-5.59,5.17-8.1,8.04.09.35-.3,4.02.15,4l9.75-9.75.58.19c-.3.98-1.35,1.53-2.03,2.22-2.07,2.12-4.07,4.3-6.17,6.38-.68.67-2.15,1.49-2.33,2.5-.09.49-.06,2.72-.02,3.31.02.24-.26.43.22.37l8.4-8.42c.31-.11.91-.64,1.16-.18l-9.37,9.56c-.73.68-.29,1.73-.27,2.59l-.4.13.39.31.09,1.23,7.91-7.93c1.56-.68.03,1.09-.35,1.49-2.26,2.38-5.03,4.71-7.2,7.09-.76.83-.68,2.25-.47,3.33l-.36.16.47,1.27,7.44-7.72c.15-.1.55.15.58.29.11.58-7.17,7.56-8.21,8.4l-.1,4.34c.4.4.41-.22.67-.48,1.81-1.89,4.15-4.42,6.09-6.08.72-.62,1.69-1.23.88.3-2.38,2.25-4.61,4.66-6.96,6.95-.18.17-.61.36-.64.41-.31.53.6,1.82-.43,1.9v.19c.67-.1.35,1.09.38,1.65.02.29-.15.56.29.48l5.74-5.94.73.05c0,.33-.29.63-.48.87-1.65,2.11-4.4,4.1-6.24,6.1.21,1.27-.3,2.68.25,3.94l4.92-4.74c.18-.26.58.1.58.2-.01.43-5.02,5.22-5.79,5.83.15,10.38-.08,20.7.18,31.04,0,.36-.56,1.43.41,1.19,1.8-.89,3.51-2.13,5.27-3.04.69-.35,2.58-1.44,3.29-.95.59.76-.1,1.16-.66,1.65l-8.1,4.45c-.77.84,0,3.22-.38,4.35l22.21,2.61c.19.96-1.59.7-2.22.67-4.36-.22-9.95-1.23-14.46-1.76-1.18-.14-1.08-.32-2.34-.35-.96-.02-1.91-.19-2.87-.18-.6.2-.14,1.61-.14,2.18,0,.48-.3.94-.16,1.44,8.12.71,16.37,1.14,24.36,2.97,5.65,1.3,11.81,3.88,15.7,8.25.83-1.11,1.46-2.15,2.52-3.09,3.44-3.04,8.45-6.61,12.19-9.43,1.44-1.09,2.99-2.06,4.51-3.03h-2.73c-2.35.58-4.35,2.33-6.73,2.61l.96.19c.12,1.41-1.72.46-2.61.39-3.25-.24-5.86.85-9.04-1.2-6.27-4.05-3.56-9.15,1.55-12.48,6.52-4.26,13.62-4.46,21.19-4.5l.51-.94c-.07-.1-2.06-.36-2.39-.37-.23,0-.53.18-.81.18-2.1-.06-4.31-.17-6.38.18l-.18-.37c-.99.7-2.62.62-3.79.89-3.33.78-6.08,2.11-9.14,3.56-1.8-1.42-3.32-2.68-5.44-3.66-5.44-2.51-11.9-3.62-16.1-8.24-.34-.37-2.02-2.4-2.16-2.69s-.12-.41.03-.68c-1.15-.31-2.29.32-3.33.83-1.1.54-3.5,2.37-4.35,2.6-1.57.43-2.17-.6-.69-1.66,2.12-1.52,4.56-2.51,6.81-3.82-.75-1.64-1.53-3.45-1.34-5.29-1.21.29-2.46.4-3.68.67-1.13.25-2.19.57-3.3.81-.66.14-1.47.64-2.09.35-2.14-.97,1.86-2.11,2.51-2.31,1.92-.62,3.78-.97,5.79-1.06-.42-.48.23-1.1.19-1.15-.02-.03-.35.14-.4-.28-.51-3.87.63-10.23,1.95-13.92.26-.72,1.12-2.04,1.18-2.7.07-.79-.51-2.68-.59-3.67-.5-5.75-.54-18.17,2.66-23.03.72-1.1,2.33-1.32,3.52-.92,4.42,1.5,9.82,6.92,13.05,10.33.28.29,1.56,2.02,1.68,2.09.61.35,3.1-.69,3.96-.88,1.8-.38,3.78-.77,5.57-.65.11,0,0-.37.36-.39.7-.02,2.29.07,3.03.14s2.16.72,2.87.37c1.5-1.95,2.92-4.04,4.54-5.9s5.8-6.41,7.78-7.48c1.42-.76,2.39-1.18,3.89-.33,2.53,1.43,3.91,7.9,4.34,10.68.72,4.74.7,9.64.11,14.41l3.87,5.81-.38.29c.24-.03.33.04.44.24,5.75,9.99.96,23.61-8.03,29.93-.72.51-1.84.93-2.45,1.42-.23.18-.46.32-.4.66,1.25.11,2.48-.59,3.53-1.2,2.4-1.37,5.16-4.12,6.78-6.36s2.77-4.79,3.58-7.43c1.01-.39,4.5.94,5.06.18l.11-.75c-.28-.61-4-.52-4.69-1.05l.34-4.03,8.06-1.21-.31-1.15c-1.05.11-2.22.1-3.25.2-.75.08-4.13.85-4.46.4-.27-3.04-.64-6.37-1.79-9.22-.47-1.16-1.57-1.94-1.49-3.16.39-.62,5.87-1.38,6.83-1.48,19.36-1.96,34.12,8.54,41.7,25.78,2,4.54,3.09,8.97,3.24,13.95,9.5,5.13,7.97,15-.3,20.56-3.48,2.34-7.91,4.09-11.96,5.13.2.49,3.59.84,2.32,1.65-.47.3-3.67-1.05-4.35-1.09-.96-.04-3.23.65-4.44.78-1.43.16-2.9.22-4.34.2l9.13,3.09.34.97c-.36.35-3.44-1.12-4.01-1.3-5.57-1.82-10.26-2.66-15.93-3.77-1.92-.38-3.9-1.27-5.87-1.67-5.7-1.14-13.12,1.28-17.21-3.89l-8.36-.77c-.07-.62.1-.71.67-.78,1.67-.2,4.4.61,6.24.55.29,0,.54-.1.82-.16-1.28-2.72.05-5.9,2.22-7.72,6.93-5.78,19.99-.07,28,.37,6.08.34,13.94.14,18.73-4.05.57-.5,1.86-1.66.62-2.1-5.63,4.92-13.76,5.08-20.87,4.4-3.48-.34-6.96-1.32-10.44-1.94-1.12-.2-1.71.2-2.62-.84-1.52-1.74-3.39-7.29-3.61-9.61-.81-8.67,2.95-17.09,11.09-20.75.81-.36,4.45-1.29,4.63-1.45.93-.87-.77-1.21-1.58-1.09-8.98,1.28-15.39,11.15-15.75,19.98-.19,4.68,1.29,9.09,3.67,13.03-.86.27-1.77-.1-2.61-.08-3.97.1-8.32.67-11.01,3.75-1.36,1.55-2.02,3.08-1.85,5.2-1.64.49-3.41.39-5.05.65-3.67.57-6.15,2.8-9.07,4.98-2.08,1.55-4.08,3.32-6.16,4.9s-4.21,2.82-5.97,4.56c3.36-.94,6.6-1.96,10.13-2.12,15.24-.72,37.29,7.29,51.82,11.91,1.53.49,3.04,1.11,4.57,1.6,2.11-2.59,4.57-4.92,6.96-7.24,4.39-4.27,8.94-8.41,13.34-12.63,4.01-3.84,7.95-7.76,11.97-11.6l.1-1.93c-.78.34-1.18-.33-1.26-.35-.15-.03-.74.17-1.11.1-.86-.16-4.1-.83-4.54-1.35-.25-.29-.43-.91.07-1.07,1.19-.39,6.41,1.35,6.83.94l.19-16.22c-.32-.07-.39.1-.58.29-.84.86-4.44,5.01-5.21,5.23-.35.1-.36.07-.59-.21l6.07-6.28.1-4.44c-2.89,2.87-5.49,6.11-8.63,8.66-1.84.29,1.22-1.89,1.5-2.18,2.4-2.41,4.64-5.04,7.03-7.45l.1-4.25-9.95,10.24-.14-.35-.34-.13,10.43-10.82ZM14.97,16.45c.02,1.32-.02,2.64,0,3.96l4.83-4.54c.08-.45-.21-.24-.49-.3-1.44-.3-3.07.04-4.54.01.07.24.19.63.19.87ZM14.97,21.67v3.96l10.24-10.24c-1.37.35-2.83.15-4.22.02-1.61,2.45-4.12,4.08-6.02,6.25ZM30.23,15.59l-4.4.05c-3.14,3.48-6.48,6.78-9.77,10.12-.24.24-.93.54-1.04.7-.37.57.15,3.52-.05,4.39l15.26-15.26ZM14.97,31.9v3.96l20.48-20.18-3.56-.28-.93.39-15.99,16.12ZM137.24,26.21c1.17.04,1.61-1.16,2.31-1.83l-.77-.2-1.54,2.03ZM134.66,25.18c.17-.2.29-.44.26-.71-1.21.36-1.62,1.68-2.51,2.51.38.08.52-.09.78-.28.22-.16,1.24-1.25,1.47-1.52ZM142.84,24.66c-1.12,0-1.44,1.38-2.32,1.83.24.28.22.31.57.19.37-.13,1.95-1.84,1.74-2.03ZM131.25,25.24c-.41-.41-3.15,2.79-3.58,3.09l-1.64,2.13c.15.13,1.47-.98,1.65-1.15.95-.87,2.34-2.39,3.18-3.39.18-.22.47-.31.39-.68ZM145.73,25.82c-.9,0-1.68.94-1.93,1.74.24.24,1.76-1.46,1.93-1.74ZM148.05,27.37c-.49-.21-1.79,1.17-1.74,1.44.06.31.23.26.48.1.45-.3,1.02-1.04,1.26-1.54ZM119.85,34.32l3.19-3.28,2.41-3.09c-.18-.18-2.56,2.05-2.89,2.41-.98,1.09-2.15,2.62-2.71,3.96ZM151.91,37.99c-4.27-9.57-15.39-12.64-24.05-6.57-3.74,2.62-5.65,6.21-6.37,10.63-.1.64-.07,1.35-.09,2l-.39.22.39.22c.03,6.34,4.48,12.18,10.37,14.32.84.31,2.24.42,2.91.75.2.1.26.23.24.45h.19c-.11-.72.7-.2,1.25-.18,4.88.11,9.14-1.29,12.56-4.84.87-.9,2.82-3.69,3.1-4.82.06-.24.16-.31-.1-.5-2.19-.29-4.42-1.08-6.64-.85l-.32-.4c.11.65-.64.26-1.13.3-3.35.29-5.79.89-8.59,2.82-.52.36-2.47,2.2-2.77,2.25-1.15.21-1.78-1.65-.69-2.68,1.72-1.62,8.11-5.06,10.39-4.74.2.03.36.37.47.3.02-.01-.03-.27.05-.33.44-.31,4.99.04,5.83.16,1.47.21,2.9.7,4.37.94.15-1.28.79-5.81-.1-6.76-.54-.57-4.85-1.4-5.81-1.52-5.87-.77-10.22.12-14.81,3.87-.66.54-1.25,1.78-2.31,1.48-.6-.17-.86-1-.71-1.57,3.92-5.63,11.42-7.43,17.96-6.22,1.62.3,3.22.91,4.82,1.26ZM149.21,30.65c.11-.82,1.27-1.03,1.16-1.93-.1-.13-1.75,1.35-1.54,1.83l.38.1ZM150.37,32.77c.59.49,2.12-1.69,2.12-1.83,0-.11-.33-.42-.48-.1l-1.64,1.93ZM155.34,36.2c.11-.09.48-.93.06-.91-.25.97-1.99,1.28-1.55,2.51.45-.16.49-.97.76-1.27.24-.26.58-.21.73-.33ZM121.34,36.4c.08-.13.15-.5-.04-.53-1.17,1.37-3.24,2.71-3.38,4.63l1.54-1.65c.42-.81,1.5-1.78,1.88-2.45ZM80.03,40.86c.09-.06,1.06-1.59,1-1.9l-2.71,2.65-.96,1.98c.93-.3,1.85-2.52,2.35-2.86.05-.03.27.16.32.13ZM169.87,40.88l-.29-1.73c-.16.19-.35.3-.59.38-3.17,1.03-6.4,1.86-9.75,1.94v7.92s4.99-.42,4.99-.42c.17-3.6,2.02-7.04,5.63-8.09ZM156.94,40.89c-.42-.09-.44.21-.61.45-.47.66-1.14,1.32-1.32,2.06.42-.12,2.05-2.39,1.93-2.51ZM119.85,41.66l-1.35,1.26-.77,1.44c.18.21,2.26-2.21,2.12-2.7ZM79.59,45.82c.68-.8,2.15-1.91,1.92-3-.87.62-1.4,1.62-2.04,2.36s-1.46,1.44-2.12,2.18c-.4.45-2.46,2.56-2.11,3,.66-.16.98-1.04,1.22-1.29,1.08-1.08,2.13-2.07,3.13-3.25ZM36.41,43.01c-.36-.08-.46.21-.68.39-.93.76-2.07,1.93-2.41,3.09l2.12-1.89c.27-.6,1.08-.84.97-1.58ZM157.52,44.17c-.43-.1-.43.25-.62.44-.49.5-2.03,2.21-2.29,2.74-.14.28-.27.17.1.48.81-.54,1.32-1.38,1.92-2.13.37-.46,1.03-.5.88-1.53ZM38.53,45.33l-2.25,1.81c-1.04,1.59-2.95,2.53-3.54,4.37l5.5-5.4.29-.77ZM119.66,45.91l-1.16,1.06-.38,1.06c.66-.54,1.57-1.16,1.54-2.12ZM82.38,46.88l-.71.26-4.5,5.34c.49.13.5-.13.74-.33,1.67-1.38,3.02-3.63,4.48-5.27ZM40.08,48.42c-.73-.09-.81.66-1.27.95-.27.16-.71.15-.82.24-.02.02.16.26-.1.56-1.29,1.5-3.15,2.93-4.57,4.33l-.18,1.07,5.03-4.73,1.92-2.42ZM118.69,51.32c.24.27,2.16-1.66,1.74-2.32-.26.37-2.08,1.94-1.74,2.32ZM154.92,51.81c.24-.32.61-.71.77-1.07.07-.16.24-.64-.11-.59-.26.8-1.1,1.31-1.65,1.93-2.6,2.92-5.95,6.14-8.3,9.08-.31.39-.72.8-.67,1.35.5.09.67-.18.97-.48,1.24-1.2,2.31-2.91,3.47-4.2,1.77-1.99,3.93-3.91,5.52-6.02ZM80.26,53.83c.41.1.43-.23.62-.44.67-.74,1.62-2.04,1.69-3.03l-2.01,2.33-.3,1.14ZM41.82,50.93c-.75-.03-.94.72-1.44,1.16-1.76,1.56-3.54,2.95-5.13,4.72-.71.8-1.56,1.56-1.54,2.61h.77c-.16-.27-.08-.36.07-.58,1.7-2.38,5.2-4.68,7.08-7.05l.18-.87ZM169.48,56.34c-.18.08-.38.16-.57.1-2.25-.61-3.69-3.21-4.44-5.24l-5.13.49c.06,2.61-.28,5.32-.17,7.92,0,.14.21,1.05.26,1.08,3.37.58,6.85.54,10.14-.47.22-.15.17-3.68-.09-3.88ZM120.05,54.41c.36-.06,2.12-2.15,1.25-2.12-.52.59-1.36,1.26-1.25,2.12ZM43.36,54.02c-.38-.28-1.41,1.32-1.64,1.54-.37.35-1.01.68-1.38,1.03-1.74,1.68-3.29,3.61-5.3,5.04l-.18,1.27,8.66-8.15-.16-.73ZM123.71,54.8c-.77-.37-2.07,1.15-1.93,1.93l1.93-1.93ZM127.19,58.66c-.14-.17-1.24,1.01-1.33,1.13s-.46.36-.22.61c.37.38,1.8-1.45,1.54-1.74ZM129.89,60.2c-.23-.26-1.73,1.4-1.74,1.74.4.32,2.06-1.37,1.74-1.74ZM143.8,60.78c-1.04.2-2.23,1.6-2.9,2.41-.18.22-.47.31-.39.68.53.48,2.88-2.7,3.28-3.09ZM132.79,61.17c-.62-.59-2.3,1.71-2.12,1.93,1.04-.23,1.53-1.14,2.12-1.93ZM135.57,62.2c.1-.13.5-.23.51-.36-.21-.23-.24-.37-.58-.2-.2.1-1.76,1.82-1.54,2.03.9.09,1.17-.91,1.61-1.48ZM139.75,61.56c-1.19.14-1.81,1.76-2.7,2.51,1.34-.09,1.78-1.7,2.7-2.51ZM83.67,70.86c-.27.09-1.24,1.59-1.81,2.06-1.84,1.51-4.52,2.05-6.79,1.25-1.1-.39-2.15-2.17-3.14-1.33-.86.72.36,1.99.98,2.53,2.68,2.35,7.31,2.55,10.03.18.75-.66,3.01-3.87,1.75-4.62-.31-.15-.71-.16-1.03-.06ZM44.98,79.44c3.33,2.11,7.83,1.9,10.75-.8.6-.56,2.32-2.81,2.1-3.62-.5-1.82-2.53.92-3.07,1.3-2.37,1.61-6.77,1.66-9.2.15-.75-.47-2.04-2.36-2.82-2.14-2.16.63,1.32,4.53,2.25,5.12ZM75.26,84.18c-.64,2.17-2.72,4.11-5.1,3.2-1.16-.44-1.91-1.48-1.9-2.75s1.05-1.53,1.6-2.47c.6-1.04.79-2.14-.53-2.65-1.04.27-5.32.12-5.59,1.33-.06.29.3,1.56.48,1.86.92,1.55,3.35.69,2.33,3.67-.88,2.58-4.52,2.99-6.56,1.52-.89-.64-1.26-2.13-2.54-1.74-.08.06-.34.86-.35.99,0,.1.29.08.36.22,1.34,2.63,4.13,3.6,7,2.91,1.56-.38,2.64-1.41,3.52-2.62,2.91,2.89,8.82,1.11,8.32-3.33l-1.05-.15ZM33.87,82.25c-2.1-.38-4.23,0-6.34.16l.28,1.11,6.29-.34-.22-.93ZM35.24,88.59v-.64s-.31-.29-.31-.29c-1.31-.42-4.27,1.07-5.25,2l.84.87c.08,0,.08-.29.24-.37,1.41-.69,2.93-1.33,4.48-1.57ZM57.02,112.68c.11-.09.55-.64.26-.81-1.75-.99-5.32,3.74-4.93,5.51.25.29.33.26.58,0,.61-.67.97-2.25,1.84-3.18.66-.7,1.67-1.03,2.26-1.51ZM60.43,115.32c.22-.18,1.79-1,.58-1.4-1.64-.54-5.44,4.1-4.11,5.95,1.22.28.89-1.17,1.37-2.17.46-.94,1.37-1.72,2.16-2.38ZM157.32,114.29c-.67-.18-.67.42-.98.66-4.62,3.47-10.06,9.82-14.37,14.03-5.39,5.26-10.89,10.43-16.25,15.71-.46.78.08,1.63.12,2.44l22.02-21.72c2.54-2.9,5.72-5.27,8.22-8.19.25-.29.79-.46.94-.8.28-.62-.11-1.47.29-2.12ZM157.13,118.15l-14.8,13.97-15.32,15.29-.97.48.39,2.31c9.45-9.41,19.09-18.59,28.48-28.01,1.31-1.32,2.86-1.7,2.23-4.05ZM157.32,121.82l-.59.13c-6.77,7.15-14.15,13.69-21.17,20.6-2.15,2.12-4.18,4.39-6.34,6.5-.54.53-2.41,1.86-2.38,2.54.01.38.22,1.33.45,1.7.11-.61.82-.85,1.35-1.34,9.72-9.05,18.45-19.18,28.3-28.1l.37-2.04ZM50.82,132.13c-6.53-4.87-19.38-6.69-27.45-7.42-2.4-.21-5.51-.51-7.87-.53-1.32-.01-.46,1.41-.7,2.33l.3.28c5.12.66,10.11,1.05,15.19,1.8s16.81,2.4,19.71,6.75c.49.74.22,1.15-.53.74-.71-.38-1.7-1.65-2.64-2.21-6.23-3.74-19.56-4.54-26.93-5.33-.83-.09-4.75-.85-5.14-.56l.19,1.65c1.9.25,3.98.24,5.88.49,2.85.38,5.69,1.09,8.52,1.54,4.95.79,10.79.95,15.3,3.42.39.21,2.85,1.88,2.37,2.36-.44-.02-.93-.13-1.33-.31-.58-.26-1.27-.98-1.72-1.22-1.88-1.01-4.45-1.61-6.26-1.98-7.41-1.54-14.97-2.31-22.44-3.39-.94.44.04,1.35-.7,2.08,1.87-.25,3.55.33,5.34.56,6.21.78,12.54,1.13,18.63,2.62,2.49.61,5.72,1.49,6.87,3.96,1.1-.49,1.97-1.46,3.12-1.87,3.38-1.21,7.25-.7,10.27,1.22,1.44.92,2.16,2.25,3.42,3.33,1.39-.66,2.86-1.07,4.41-1.14,8.18-.39,20.94,3.01,29.22,4.59l16.61,3.19c.41.55.04.8-.59.87-12.73-2.13-25.7-5.49-38.49-7.08-2.97-.37-6.22-.6-9.16,0,0,.23.77.39.96.44,3.16.7,6.27.98,9.39,1.48,15.6,2.49,31.31,5.17,46.59,7.88,1.48.26,2.99.5,4.48.63l-1.77-7.69-.96-.32c0-.87-.14-.25-.76-.37-3.59-.69-9.02-3.05-12.79-4.22-10.41-3.22-21.99-7.27-32.5-8.23-7.39-.68-12.54-.69-19.46,2.34-.73.32-1.49,1.27-2.55,1.12-.65-.09-2.49-2.5-3.15-3.09-.19-.17-.66-.53-.89-.7ZM157.13,131.47c-.34-.08-.39.14-.58.29-1.95,1.49-4.14,4.37-5.97,6.19-2.3,2.28-4.78,4.44-7.09,6.72-4.02,3.98-8.08,8.62-12.26,12.37-1.23,1.1-2.17,1.66-3.88,1.61l-12.43-1.98-3.76,3.1c0,.14.45.21.58.21,6.42.25,12.93-.21,19.41-.13.66,0,2.61.37,3.18.12,7.65-7.36,14.84-15.16,22.4-22.62l.78-.28c.09-.32-.39-.17-.39-.19v-5.41ZM25.55,134.63c-.28-.07-.95.18-1.39.13-1.25-.15-9.05-1.31-9.38-.97l.32,1.75,29.04,3.85c-1.3-1.28-3.39-1.85-5.13-2.3-4.38-1.13-9.32-1.46-13.46-2.46ZM157.13,138.24c-.2-.22-1.36,1.05-1.55,1.25-3.26,3.32-6.52,6.75-9.68,10.11l-.34-.16c-2.08,2.58-4.65,5.2-7.03,7.66-.75.77-1.85,1.5-2.54,2.38-.15.19-.37.25-.29.58l4.19-.24,17.06-17.61c.57-.97,0-2.84.18-3.97ZM19.22,141.13c-1.08-.92-2.94-.5-4.25-.97v1.23s-.39.12-.39.12l.4.47-.21,1.94.39.2,3.23-2.8.83-.19ZM23.47,141.33c-1.53.25-2.72-.77-4.1.19-.41.28-1.04,1.09-1.5,1.45-.75.6-2.78,1.92-2.99,2.7-.17.6.04,1.74-.1,2.42.15.17,1.13-.55,1.33-.69,2.51-1.75,5.1-4.02,7.36-6.07ZM25.94,141.85l-1.51-.23-9.36,7.44c-.4.48-.03,2.87-.1,3.65l13.43-10.23v-.39c-.79-.21-1.58.11-2.14-.57l-.32.33ZM43.68,142.13l-.42.36c-.29.56,1,1.81,1.47,2.2,3.3,2.75,9.8,3.87,13.94,2.96,1.06-.23,3.46-1.18,2.85-2.57-.74-.49-2.78.88-3.72,1.13-3.08.81-7.66.3-10.45-1.25-1.51-.84-2.15-2.22-3.68-2.83ZM32.93,142.87l-3.49-.48-6.57,5.39c-2.27,1.75-4.8,3.3-6.99,5.14-.33.28-.89.8-.98,1.19l-.13,3.25,18.16-14.48ZM37.76,143.45l-3.66-.49c-6.22,5.15-12.35,10.39-18.95,15.06l-.09,1.87c.1.19,2.51.14,2.62.08s.47-.72.76-.97c5.89-5.15,13.41-9.65,19-15,.18-.17.42-.18.32-.55ZM157.32,143.45c-.29-.06-.45.03-.68.18-.54.35-1.91,1.91-2.51,2.51-4.21,4.15-8.16,8.61-12.46,12.65l-.95,1.27c1.19-.5,3,.43,4.07-.28l12.05-12.28c.82-1.24-.05-2.75.49-4.05ZM42.19,144.98c.15-1.32-3.01-1.3-3.71-.95l-17.56,13.92-2.08,1.92c1.37.02,3.52.48,4.7-.22.83-.49,1.97-1.83,2.79-2.47,2.92-2.28,5.93-4.46,8.83-6.77,2.31-1.84,4.45-3.97,7.04-5.42ZM24.24,160.06c1.53-.36,3.09.22,4.63-.1l15.65-12.74-2.51-1.55-17.77,14.4ZM48.19,149.24c-.57-.4-1.51-.99-2.12-1.25-.31-.13-1.03-.42-1.32-.26l-14.52,12.33c1.36-.12,3.92.33,5.08-.42,1.88-1.2,3.85-3.35,5.63-4.8.24-.19.55-.25.73-.39,2.14-1.75,4.2-3.7,6.52-5.21ZM150.48,159.21c2.18-2.15,4.14-4.58,6.55-6.5l.1-4.44-11.2,11.3v.48c1.01-.39,2.54.16,3.55-.07.43-.1.69-.46,1.01-.78ZM65.58,148.86c-.74-.11-1.61-.52-2.37-.35-.47.1-.69.54-1.06.69-.89.37-1.88.47-2.73.94-1.99,1.1-6.62,5.34-8.62,7.02-1.09.92-2.14,1.94-3.18,2.9l5.02-.09,12.94-11.11ZM70.79,149.82c-.04-.28-.18-.27-.4-.29-1.28-.11-2.54-.39-3.84-.39l-12.75,10.63c.23.39.35.16.54.17.5.03,4.06.11,4.27,0,1.08-.49,3.01-2.68,4.03-3.55,2.23-1.91,4.87-4,6.74-5.82.31-.3.98-.78,1.42-.76ZM52.63,149.82l-3.61-.44c-2.19,1.52-4.08,3.42-6.15,5.09-.18.15-.43.29-.77.56-1.92,1.57-3.89,3.06-5.85,4.58-.16.12-.35,0-.24.44,1.43-.46,3.52.43,4.81-.3,1.59-1.24,3.05-2.68,4.61-3.94,2.04-1.65,5.12-3.67,6.9-5.42.19-.18.37-.25.29-.57ZM75.43,150.21l-3.86-.29-11.78,9.85c.2.33.31.17.53.17.95,0,3.23.19,3.89-.18l11.22-9.54ZM58.04,150.21h-3.57c-.06,0-.21-.18-.39-.18-3.94,2.87-8,6.1-11.68,9.36-.11.1-1.21.68-.3.65.38-.01.77-.18,1.17-.16,1,.04,1.98.35,3.01.06l11.76-9.74ZM80.06,150.98c-1.33.11-2.98-.87-4.12-.16-3.33,3.05-6.88,5.87-10.31,8.8-.14.12-.37,0-.24.44,1.18-.65,4.12.29,5.17-.24.15-.07.88-1.1,1.11-1.3,2.83-2.47,5.85-4.75,8.4-7.53ZM84.7,151.76l-3.68-.48-9.65,8.78,4.35-.17,8.71-7.62.26-.51ZM88.48,153.61c.16-.17,1-1,.67-1.18l-3.28-.39-8.89,8.02c1.35-.45,3.52.31,4.7-.41,1.97-2.14,4.88-3.94,6.8-6.04ZM93.78,153.11c-1.06-.13-2.38-.03-3.28-.58-.8,1.25-2.29,2.17-3.41,3.16-.13.12-.19.36-.36.51-1.34,1.19-2.98,2.27-4.15,3.67l4.25-.1c2.11-2.11,4.65-3.9,6.67-6.07.18-.19.36-.28.28-.59ZM104.21,154.85c-2.16-.17-4.36-.86-6.49-1.14-.6-.08-2.14-.29-2.64-.17-.82.19-1.58,1.38-2.16,1.9-1.65,1.47-3.39,2.84-4.93,4.43l10.92.02c1.85-1.52,3.93-3.08,5.31-5.04ZM157.13,159.77v-6.08c-1.54,1-2.61,2.69-3.96,3.88-.41.36-.26.25-.67.66-.19.2-1.63,1.54-1.55,1.64,1.57.05,3.36.23,4.92.18.32,0,1.18.02,1.26-.28ZM109.23,155.62l-3.54-.56-5.34,4.8,4.1-.04,4.79-4.2ZM113.86,156.39l-3.86-.49-4.45,4.16,4.3-.03c1.32-1.27,2.73-2.33,4-3.64Z"/>
        </g>
      </g>
      <path d="M50.18,109.78c-.12-.14-.1-.5-.32-.73-.51-.52-2.61-2.26-3.12-1.15-.23.51,1.77,1.49,2.22,1.85.24.2,1.09.96,1.14,1.17-.91,1.65-.26,4.53-2.04,5.43-2.71,1.36-9.43.48-12.45-.19-2.37-.53-4.53-1.86-6.9-2.37-1.36-.29-3.01-.26-4.34-.48-.35-.06-.65-.19-.88-.47,0-.44.33-.45.67-.49,1.04-.12,2.67.36,3.77.4l-1.29-1.72c-1.52-3.4-1.49-7.6.71-10.74.66-.94,3.49-3.78,4.55-3.96s2.59,1.4,3.58,2.01c1.1.67,2.57,1.54,3.72,2.08,4.48,2.07,10.7,2.92,13.57,7.32-.49.48-1.82,2.94-2.57,2.06ZM46.01,111.06c-.29-.2-1.92-.7-2.21-.4-.82.84.97,1.14,1.59,1.69.45.41,1.89,3.24,2.41,2.7-.02-.58.09-1.18-.08-1.75-.05-.17-1.57-2.15-1.71-2.25Z"/>
    </g>
  </g>
</svg>